<svg width="36" height="36" viewBox="0 0 36 36" fill="none" xmlns="http://www.w3.org/2000/svg">
<path d="M35.2204 12.667H32.5801C32.379 12.667 32.1857 12.7447 32.0406 12.8838L31.477 13.4237C30.5269 11.2255 29.164 9.05167 27.3231 6.80115C26.3279 5.58514 24.8564 4.8878 23.2853 4.8878H12.7146C11.1434 4.8878 9.67172 5.58523 8.67715 6.80124C6.77814 9.12254 5.44232 11.244 4.51479 13.416L3.95952 12.8838C3.81436 12.7447 3.62102 12.667 3.41992 12.667H0.779797C0.349087 12.667 0 13.0161 0 13.4468V15.2519C0 15.6636 0.31999 16.0041 0.730774 16.0302L3.44452 16.2011C3.03448 17.3992 2.71433 19.1847 2.71433 21.7027C2.71433 23.8875 3.15071 25.3235 3.91016 26.2531V30.4592C3.91016 30.8199 4.20255 31.1122 4.56323 31.1122H7.56711C7.92796 31.1122 8.22043 30.8199 8.22043 30.4592V27.8473H27.7796V30.4592C27.7796 30.8199 28.0721 31.1122 28.4328 31.1122H31.4367C31.7974 31.1122 32.0898 30.8199 32.0898 30.4592V26.2531C32.8491 25.3235 33.2858 23.8875 33.2858 21.7027C33.2858 19.1847 32.9656 17.3992 32.5556 16.2011L35.2693 16.0302C35.68 16.0041 36 15.6636 36 15.2519V13.4468C36 13.0161 35.6511 12.667 35.2204 12.667ZM10.9058 8.62438C11.3515 8.07961 12.0109 7.76704 12.7146 7.76704H23.2853C23.989 7.76704 24.6486 8.07961 25.0943 8.62438C26.3821 10.1987 27.3992 11.7054 28.1853 13.2062L7.79672 13.21C8.5656 11.7426 9.58843 10.2347 10.9058 8.62438ZM8.68399 24.6531C7.18884 24.6531 5.97692 24.1648 5.97692 22.9801C5.97692 21.7956 6.41663 20.835 7.9117 20.835C9.40676 20.835 11.3909 21.7956 11.3909 22.9801C11.3909 24.1647 10.1789 24.6531 8.68399 24.6531ZM20.8377 24.4063H15.1625C14.3069 24.4063 13.6109 23.7102 13.6109 22.8547C13.6109 22.6148 13.8055 22.4202 14.0456 22.4202H21.9547C22.1948 22.4202 22.3892 22.6148 22.3892 22.8547C22.3892 23.7103 21.6932 24.4063 20.8377 24.4063ZM27.3161 24.6531C25.821 24.6531 24.609 24.1648 24.609 22.9801C24.609 21.7956 26.5934 20.835 28.0882 20.835C29.5833 20.835 30.0231 21.7956 30.0231 22.9801C30.0231 24.1647 28.8112 24.6531 27.3161 24.6531Z" fill="white"/>
</svg>
