<svg width="36" height="36" viewBox="0 0 36 36" fill="none" xmlns="http://www.w3.org/2000/svg">
<g clip-path="url(#clip0)">
<path d="M6.62926 26.5185H1.22377C0.548985 26.5185 0 27.0675 0 27.7423V29.9952C0 30.6699 0.548903 31.2189 1.22377 31.2189H6.62926C7.30405 31.2189 7.85304 30.6699 7.85304 29.9952V27.7423C7.85304 27.0675 7.30405 26.5185 6.62926 26.5185Z" fill="white"/>
<path d="M15.6879 26.5185H10.2824C9.60758 26.5185 9.05859 27.0675 9.05859 27.7423V29.9952C9.05859 30.6699 9.60758 31.2189 10.2824 31.2189H15.6879C16.3626 31.2189 16.9116 30.6699 16.9116 29.9952V27.7423C16.9116 27.0675 16.3626 26.5185 15.6879 26.5185Z" fill="white"/>
<path d="M24.7465 26.5185H19.341C18.6662 26.5185 18.1172 27.0675 18.1172 27.7423V29.9952C18.1172 30.6699 18.6662 31.2189 19.341 31.2189H24.7465C25.4213 31.2189 25.9702 30.6699 25.9702 29.9952V27.7423C25.9702 27.0675 25.4213 26.5185 24.7465 26.5185Z" fill="white"/>
<path d="M1.22377 19.931H6.62926C7.30405 19.931 7.85304 19.382 7.85304 18.7073V16.4544C7.85304 15.7796 7.30405 15.2306 6.62926 15.2306H1.22377C0.548985 15.2306 0 15.7796 0 16.4544V18.7073C0 19.382 0.548903 19.931 1.22377 19.931Z" fill="white"/>
<path d="M10.2824 19.931H15.6879C16.3626 19.931 16.9116 19.382 16.9116 18.7073V16.4544C16.9116 15.7796 16.3626 15.2306 15.6879 15.2306H10.2824C9.60758 15.2306 9.05859 15.7796 9.05859 16.4544V18.7073C9.05859 19.382 9.60758 19.931 10.2824 19.931Z" fill="white"/>
<path d="M5.75405 20.8745C5.07926 20.8745 4.53027 21.4235 4.53027 22.0983V24.3512C4.53027 25.026 5.07926 25.5749 5.75405 25.5749H11.1595C11.8343 25.5749 12.3833 25.026 12.3833 24.3512V22.0983C12.3833 21.4235 11.8343 20.8745 11.1595 20.8745H5.75405Z" fill="white"/>
<path d="M13.5889 22.0983V24.3512C13.5889 25.026 14.1379 25.5749 14.8126 25.5749H20.2181C20.8929 25.5749 21.4419 25.026 21.4419 24.3512V22.0983C21.4419 21.4235 20.893 20.8745 20.2181 20.8745H14.8126C14.1378 20.8745 13.5889 21.4235 13.5889 22.0983Z" fill="white"/>
<path d="M35.6665 5.23267L34.7674 4.3336C34.5523 4.11846 34.2655 4 33.9598 4C33.6542 4 33.3674 4.11846 33.1523 4.3336L30.1418 7.34417C29.7399 7.74605 29.702 8.37475 30.0255 8.82102L26.6889 12.1576L24.9868 10.4555C24.7872 10.2559 24.5311 10.146 24.2655 10.146C23.9322 10.146 23.6284 10.3145 23.432 10.6084L20.9564 14.311C20.6907 14.7083 20.4734 15.3941 20.4615 15.8722L20.3978 18.4688C20.3904 18.7716 20.5015 19.0564 20.7106 19.2707C20.9196 19.4849 21.2013 19.6029 21.5034 19.6029L24.1281 19.5387C24.606 19.527 25.2918 19.3097 25.6893 19.0439L29.392 16.5684C29.6539 16.3932 29.8208 16.1235 29.8497 15.8284C29.8787 15.5333 29.7677 15.2363 29.5449 15.0135L27.8428 13.3114L31.1792 9.97495C31.3725 10.1153 31.6042 10.1921 31.8485 10.1921C32.1541 10.1921 32.441 10.0736 32.656 9.85845L35.6665 6.84797C35.8817 6.63283 36.0003 6.34597 36.0003 6.04028C36.0003 5.73466 35.8817 5.44781 35.6665 5.23267ZM27.5955 15.9085C27.4372 16.3111 26.7632 16.4367 26.3853 16.7844C26.0582 17.0854 25.9231 17.7544 25.4659 17.9579C25.0086 18.1613 24.4213 17.8136 23.9787 17.8551C23.4674 17.903 22.9228 18.3194 22.5177 18.1673C22.043 17.989 21.9828 17.3508 21.7929 16.9239C21.603 16.4969 21.1692 16.0248 21.3547 15.5528C21.513 15.1502 22.187 15.0246 22.5649 14.6769C22.892 14.3759 23.027 13.7069 23.4843 13.5034C23.9416 13.3 24.5289 13.6477 24.9715 13.6062C25.4828 13.5583 26.0274 13.1419 26.4325 13.294C26.9072 13.4723 26.9674 14.1104 27.1573 14.5374C27.3473 14.9644 27.781 15.4365 27.5955 15.9085Z" fill="white"/>
</g>
<defs>
<clipPath id="clip0">
<rect width="36" height="36" fill="white"/>
</clipPath>
</defs>
</svg>
