<svg width="10" height="14" viewBox="0 0 10 14" fill="none" xmlns="http://www.w3.org/2000/svg">
<path d="M5 0C2.24299 0 0 2.1584 0 4.81143C0 8.10391 4.47451 12.9375 4.66502 13.1416C4.84395 13.3334 5.15637 13.3331 5.33498 13.1416C5.52549 12.9375 10 8.10391 10 4.81143C9.99995 2.1584 7.75699 0 5 0ZM5 7.23219C3.61288 7.23219 2.4844 6.14624 2.4844 4.81143C2.4844 3.47661 3.6129 2.39069 5 2.39069C6.3871 2.39069 7.51557 3.47664 7.51557 4.81145C7.51557 6.14627 6.3871 7.23219 5 7.23219Z" fill="#A7A7A7"/>
</svg>
