<svg width="36" height="36" viewBox="0 0 36 36" fill="none" xmlns="http://www.w3.org/2000/svg">
<g clip-path="url(#clip0)">
<path d="M31.868 4.20271H30.1587V1.74557C30.1587 0.783069 29.3756 0 28.4132 0H5.87731C4.9148 0 4.13173 0.783069 4.13173 1.74557V4.20264H2.52734C2.23604 4.20264 2 4.43868 2 4.72998C2 5.02129 2.23604 5.25733 2.52734 5.25733H4.13173V7.71439C4.13173 8.6769 4.9148 9.45997 5.87724 9.45997H6.64167V11.1407C6.64167 12.2956 7.58125 13.2352 8.73614 13.2352C9.11442 13.2352 9.46928 13.1339 9.77591 12.9577V15.4919C9.77591 16.6467 10.7155 17.5863 11.8705 17.5863C13.0254 17.5863 13.965 16.6467 13.965 15.4919V9.45997H15.9631C16.2544 9.45997 16.4904 9.22393 16.4904 8.93262C16.4904 8.64132 16.2544 8.40528 15.9631 8.40528H15.2319C15.4223 8.08473 15.532 7.71088 15.532 7.31171V4.65988C15.8526 4.85022 16.2267 4.95962 16.6257 4.95962C17.8102 4.95962 18.7739 3.99592 18.7739 2.8113V1.05476H28.4133C28.7941 1.05476 29.104 1.36462 29.104 1.74557V7.71453C29.104 8.09541 28.7942 8.40535 28.4133 8.40535H18.4241C18.1328 8.40535 17.8968 8.64139 17.8968 8.93269C17.8968 9.224 18.1328 9.46004 18.4241 9.46004H28.4133C29.3758 9.46004 30.1587 8.67697 30.1587 7.71446V5.25747H31.868C32.1537 5.25747 32.3862 5.48992 32.3862 5.7756V11.1567C32.3862 11.6239 32.0735 12.0433 31.6257 12.1768L17.4836 16.3891C16.9739 16.5409 16.6178 17.0184 16.6178 17.5502V18.4754H14.2559C13.5139 18.4754 12.9102 19.0791 12.9102 19.8212V20.5475C12.9102 21.2277 13.4179 21.7902 14.074 21.8794L13.1009 31.6449C12.8692 33.9699 14.6976 36.0001 17.0436 36.0001C19.3803 36.0001 21.219 33.9793 20.9862 31.6449L20.6446 28.2152C20.6158 27.9255 20.3579 27.7137 20.0676 27.7427C19.7778 27.7716 19.5662 28.03 19.5951 28.3197L19.9368 31.7495C20.1068 33.4555 18.7651 34.9452 17.0436 34.9452C15.329 34.9452 13.9796 33.4625 14.1504 31.7495L15.1326 21.8932H18.9546L19.3497 25.8587C19.3786 26.1485 19.6358 26.3607 19.9268 26.3311C20.2166 26.3023 20.4282 26.0439 20.3993 25.754L20.0146 21.8932H20.131C20.8731 21.8932 21.4768 21.2895 21.4768 20.5475V19.8212C21.4768 19.0791 20.873 18.4754 20.131 18.4754H17.6725V17.5502C17.6725 17.4814 17.7185 17.4197 17.7845 17.4L31.9267 13.1876C32.8183 12.9221 33.4408 12.0869 33.4408 11.1567V5.7756C33.441 4.9083 32.7354 4.20271 31.868 4.20271ZM9.77591 11.1409C9.77591 11.7143 9.30946 12.1806 8.73614 12.1806C8.16281 12.1806 7.69643 11.7143 7.69643 11.1409V9.46018H9.77591V11.1409ZM12.9102 15.4919C12.9102 16.0653 12.4438 16.5316 11.8705 16.5316C11.2972 16.5316 10.8307 16.0653 10.8307 15.4919C10.8307 14.7569 10.8307 10.1464 10.8307 9.46004H12.9102V15.4919ZM16.6257 3.9048C16.0226 3.9048 15.532 3.41423 15.532 2.81123C15.532 2.51992 15.296 2.28389 15.0047 2.28389C14.7134 2.28389 14.4774 2.51992 14.4774 2.81123V7.31171C14.4774 7.91471 13.9869 8.40528 13.3839 8.40528C9.5256 8.40528 9.71742 8.40528 5.87731 8.40528C5.49642 8.40528 5.18656 8.09541 5.18656 7.71446V1.74557C5.18656 1.36469 5.49635 1.05476 5.87731 1.05476H17.7192V2.8113H17.7192C17.7192 3.41423 17.2287 3.9048 16.6257 3.9048ZM20.1311 19.5301C20.2889 19.5301 20.4221 19.6634 20.4221 19.8211V20.5474C20.4221 20.7051 20.2888 20.8384 20.1311 20.8384C17.996 20.8384 16.4159 20.8384 14.2559 20.8384C14.0982 20.8384 13.9649 20.7051 13.9649 20.5474V19.8211C13.9649 19.6634 14.0982 19.5301 14.2559 19.5301H20.1311Z" fill="white"/>
<path d="M17.3231 30.0828C16.348 30.0828 15.5547 30.8761 15.5547 31.8512C15.5547 32.8263 16.348 33.6195 17.3231 33.6195C18.2982 33.6195 19.0914 32.8263 19.0914 31.8512C19.0914 30.8761 18.2982 30.0828 17.3231 30.0828ZM17.3232 32.5647C16.9296 32.5647 16.6095 32.2446 16.6095 31.8511C16.6095 31.4576 16.9296 31.1375 17.3232 31.1375C17.7166 31.1374 18.0368 31.4575 18.0368 31.8511C18.0368 32.2447 17.7167 32.5647 17.3232 32.5647Z" fill="white"/>
</g>
<defs>
<clipPath id="clip0">
<rect width="36" height="36" fill="white"/>
</clipPath>
</defs>
</svg>
