<svg width="36" height="36" viewBox="0 0 36 36" fill="none" xmlns="http://www.w3.org/2000/svg">
<path d="M4.93115 31.8583L4.92468 31.8534C4.61643 31.6173 4.17515 31.6757 3.9389 31.984C3.70279 32.2923 3.76129 32.7336 4.06947 32.9698L4.07594 32.9747C4.20348 33.0725 4.35381 33.1197 4.50301 33.1197C4.7143 33.1197 4.92327 33.0248 5.06165 32.8441C5.29789 32.5358 5.23939 32.0945 4.93115 31.8583Z" fill="white"/>
<path d="M4.93115 26.0927L4.92468 26.0878C4.61643 25.8517 4.17515 25.9101 3.9389 26.2184C3.70279 26.5267 3.76129 26.968 4.06947 27.2042L4.07594 27.2091C4.20348 27.3068 4.35381 27.3541 4.50301 27.3541C4.7143 27.3541 4.92327 27.2592 5.06165 27.0785C5.29789 26.7701 5.23939 26.3289 4.93115 26.0927Z" fill="white"/>
<path d="M4.93115 20.3271L4.92468 20.3221C4.61643 20.0861 4.17515 20.1445 3.9389 20.4528C3.70279 20.761 3.76129 21.2024 4.06947 21.4386L4.07594 21.4435C4.20348 21.5412 4.35381 21.5885 4.50301 21.5885C4.7143 21.5885 4.92327 21.4935 5.06165 21.3128C5.29789 21.0045 5.23939 20.5632 4.93115 20.3271Z" fill="white"/>
<path d="M31.9245 31.8561L31.9179 31.8512C31.6084 31.6167 31.1674 31.6774 30.9328 31.9869C30.6983 32.2964 30.759 32.7374 31.0685 32.972L31.0751 32.9769C31.2021 33.0732 31.3513 33.1197 31.4992 33.1197C31.7118 33.1197 31.9218 33.0237 32.0602 32.8413C32.2947 32.5318 32.2339 32.0907 31.9245 31.8561Z" fill="white"/>
<path d="M31.9244 26.0906L31.9179 26.0857C31.6083 25.8511 31.1673 25.9118 30.9328 26.2214C30.6983 26.5307 30.759 26.9718 31.0685 27.2064L31.075 27.2113C31.2021 27.3075 31.3512 27.3541 31.4991 27.3541C31.7117 27.3541 31.9218 27.2581 32.0601 27.0757C32.2947 26.7662 32.2339 26.3251 31.9244 26.0906Z" fill="white"/>
<path d="M31.9244 20.3249L31.9179 20.32C31.6084 20.0855 31.1674 20.1462 30.9328 20.4557C30.6982 20.7652 30.7591 21.2062 31.0685 21.4407L31.0751 21.4457C31.2021 21.5419 31.3512 21.5885 31.4992 21.5885C31.7117 21.5885 31.9218 21.4925 32.0601 21.31C32.2947 21.0006 32.2339 20.5595 31.9244 20.3249Z" fill="white"/>
<path d="M25.9789 23.0625H25.9697C25.5815 23.0625 25.2666 23.3773 25.2666 23.7656C25.2666 24.154 25.5814 24.4688 25.9697 24.4688H25.9789C26.3671 24.4688 26.682 24.154 26.682 23.7656C26.682 23.3773 26.3671 23.0625 25.9789 23.0625Z" fill="white"/>
<path d="M10.0306 28.8281H10.0215C9.63322 28.8281 9.31836 29.1429 9.31836 29.5312C9.31836 29.9196 9.63322 30.2344 10.0215 30.2344H10.0306C10.4189 30.2344 10.7338 29.9196 10.7338 29.5312C10.7338 29.1429 10.419 28.8281 10.0306 28.8281Z" fill="white"/>
<path d="M5.6807 13.0212C5.54992 12.8904 5.36852 12.8152 5.18359 12.8152C4.99867 12.8152 4.81727 12.8904 4.68648 13.0212C4.55577 13.152 4.48047 13.3334 4.48047 13.519C4.48047 13.7039 4.5557 13.8846 4.68648 14.0154C4.81727 14.1469 4.99804 14.2214 5.18359 14.2214C5.36852 14.2214 5.54992 14.1469 5.6807 14.0154C5.81141 13.8846 5.88672 13.7039 5.88672 13.519C5.88672 13.3334 5.81148 13.1527 5.6807 13.0212Z" fill="white"/>
<path d="M35.2969 17.2969H32.3765C33.6331 16.5741 34.4817 15.2187 34.4817 13.668C34.4817 12.0581 33.5684 10.6251 32.1769 9.92777C32.4169 9.3941 32.5415 8.81452 32.5415 8.21581C32.5415 5.90857 30.6644 4.03144 28.3571 4.03144C27.6296 4.03144 26.931 4.21495 26.3084 4.56616C25.4915 3.99045 24.5147 3.67833 23.5062 3.67833C23.4378 3.67833 23.3699 3.68072 23.3021 3.68353C22.5593 1.51805 20.4879 0.003375 18.1549 0.003375C16.0511 0.003375 14.1475 1.22182 13.2506 3.08883C13.0823 3.07322 12.9133 3.06534 12.7444 3.06534C10.5334 3.06534 8.56976 4.40051 7.73135 6.39141C7.58257 6.34598 7.43119 6.30633 7.27755 6.27194C7.35813 5.37328 7.64318 4.68436 8.12953 4.22114C8.55316 3.81762 8.9787 3.73402 8.99662 3.73064L8.98685 3.73226L8.98671 3.73148C9.13535 3.70962 9.27605 3.64106 9.38285 3.53377C9.51356 3.40298 9.58887 3.22228 9.58887 3.03736C9.58887 2.85173 9.51363 2.67103 9.38285 2.53955C9.25207 2.40877 9.07066 2.33353 8.88574 2.33353C8.8463 2.33353 8.80713 2.33768 8.76846 2.34429L8.76825 2.34309C8.35073 2.40884 7.77973 2.64284 7.25309 3.11829V0.703125C7.25309 0.314789 6.93823 0 6.54996 0H4.86246C4.4742 0 4.15934 0.314789 4.15934 0.703125V3.33218C3.35046 2.34084 2.47725 1.76133 2.40954 1.7171C2.08477 1.50525 1.65038 1.5968 1.43796 1.92108C1.22548 2.24543 1.31625 2.68102 1.64011 2.89413C1.66338 2.90939 3.79069 4.33392 4.10674 6.38318C1.72744 7.09791 0 9.18907 0 11.6518C0 12.675 0.583523 15.1318 1.15622 17.2969H0.703125C0.314859 17.2969 0 17.6117 0 18V35.2969C0 35.6852 0.314859 36 0.703125 36H35.2969C35.6851 36 36 35.6852 36 35.2969V18C36 17.6117 35.6851 17.2969 35.2969 17.2969ZM12.7444 4.47159C13.0149 4.47159 13.2858 4.49866 13.5496 4.5521C13.893 4.62157 14.2351 4.42786 14.352 4.09753C14.921 2.48984 16.4493 1.40963 18.1549 1.40963C19.8171 1.40963 21.3005 2.44596 21.9026 3.95086C20.0033 4.61538 18.6369 6.42431 18.6369 8.54747C18.6369 8.93581 18.9518 9.25059 19.34 9.25059C19.7283 9.25059 20.0431 8.93581 20.0431 8.54747C20.0431 6.63799 21.5966 5.08458 23.5061 5.08458C24.3529 5.08458 25.1684 5.39416 25.8022 5.95638C26.0521 6.17808 26.4237 6.19319 26.6909 5.99266C27.1744 5.62957 27.7506 5.43769 28.357 5.43769C29.8888 5.43769 31.1351 6.68398 31.1351 8.21581C31.1351 8.81803 30.9456 9.39101 30.5869 9.87265C30.4467 10.061 30.4097 10.307 30.4886 10.5283C30.5674 10.7496 30.7513 10.9169 30.9791 10.9744C32.2134 11.2856 33.0754 12.3932 33.0754 13.668C33.0754 15.1998 31.8291 16.4461 30.2973 16.4461C30.1228 16.4461 29.9456 16.4291 29.7706 16.3955C29.4298 16.33 29.0924 16.5232 28.9758 16.85C28.9207 17.0045 28.851 17.1541 28.7691 17.2969H27.8815L30.7607 13.1695C30.8689 13.0144 30.9101 12.8222 30.8749 12.6364C30.8396 12.4505 30.731 12.2867 30.5736 12.1819L28.5236 10.8177C28.3639 10.7114 28.1676 10.6749 27.9805 10.7169C27.7933 10.7588 27.6313 10.8753 27.5322 11.0396L26.5071 12.7369L27.3462 8.4922C27.421 8.11329 27.1763 7.74492 26.7981 7.66716L25.009 7.29921C24.8241 7.2611 24.6316 7.29907 24.4749 7.4044C24.3183 7.50973 24.2106 7.67362 24.176 7.85918L23.9465 9.09211H22.3056C21.9173 9.09211 21.6025 9.4069 21.6025 9.79523V13.8413C21.1352 11.4486 19.0239 9.63703 16.4966 9.63703C15.3577 9.63703 14.276 9.99837 13.3686 10.682C12.6202 11.2457 12.0325 12.013 11.6788 12.8756C11.7684 12.3475 11.8126 11.9425 11.8126 11.6518C11.8126 10.6983 11.5536 9.80037 11.0982 9.01638C11.4676 8.01127 12.428 7.32846 13.5143 7.32846C13.687 7.32846 13.8599 7.34583 14.0285 7.38C14.3722 7.44989 14.7147 7.25562 14.8314 6.92494C14.9823 6.49758 15.2448 6.11529 15.5907 5.81941C15.8858 5.56699 15.9204 5.12311 15.6679 4.82801C15.4156 4.53291 14.9718 4.49838 14.6765 4.75073C14.2902 5.0812 13.9713 5.48184 13.7362 5.9284C13.6624 5.92425 13.5883 5.92221 13.5144 5.92221C12.1149 5.92221 10.8507 6.65487 10.1374 7.79759C9.80346 7.47605 9.42855 7.19234 9.02011 6.95398C9.63745 5.46884 11.0985 4.47159 12.7444 4.47159ZM25.7078 16.7804L28.3562 12.3954L29.1962 12.9544L26.167 17.2969H25.6057L25.7078 16.7804ZM24.8283 13.9779V12.0255C24.832 12.0108 24.8361 11.9962 24.8389 11.981L25.4273 8.82084L25.8313 8.90395L24.8283 13.9779ZM23.0036 16.0772C23.0067 16.0505 23.0087 16.0235 23.0087 15.9961V10.4983H23.4221V17.2969H23.2002C23.2021 17.2529 23.2031 17.2088 23.2031 17.1645C23.2031 16.7813 23.132 16.4148 23.0036 16.0772ZM13.3594 12.7969C13.3386 12.7969 13.3181 12.7982 13.2973 12.7984C13.9847 11.7311 15.1893 11.0432 16.4965 11.0432C18.3543 11.0432 19.9037 12.3848 20.2294 14.1499C19.2565 14.1568 18.3943 14.6464 17.8608 15.3954C16.9593 13.8435 15.2798 12.7969 13.3594 12.7969ZM17.0899 17.2969H9.73948H9.62887C9.95969 15.5382 11.5061 14.2031 13.3594 14.2031C15.2127 14.2031 16.7591 15.5382 17.0899 17.2969ZM20.25 15.5557C21.103 15.5557 21.7969 16.2774 21.7969 17.1645C21.7969 17.2089 21.7948 17.253 21.7913 17.2969H18.7086C18.7052 17.253 18.7031 17.2089 18.7031 17.1645C18.7031 16.2774 19.397 15.5557 20.25 15.5557ZM5.56559 1.40625H5.84684V6.1212C5.75255 6.12211 5.65875 6.12464 5.56559 6.12963V1.40625ZM1.44823 11.096C1.4921 11.1046 1.53738 11.1094 1.58372 11.1094H5.05983C5.44809 11.1094 5.76295 10.7946 5.76295 10.4062C5.76295 10.0179 5.44809 9.70312 5.05983 9.70312H1.94105C2.70113 8.40832 4.19323 7.52604 5.90625 7.52604C8.38758 7.52604 10.4062 9.37681 10.4062 11.6518C10.4062 11.8352 10.3769 12.1737 10.2652 12.7969H7.47246C7.0842 12.7969 6.76934 13.1117 6.76934 13.5C6.76934 13.8883 7.0842 14.2031 7.47246 14.2031H9.80726C8.95416 15.0018 8.36993 16.0833 8.20512 17.2969H2.61148C1.84331 14.4291 1.40625 12.3857 1.40625 11.6518C1.40625 11.4633 1.42137 11.278 1.44823 11.096ZM34.5938 23.0625H28.4062C28.018 23.0625 27.7031 23.3773 27.7031 23.7656C27.7031 24.154 28.018 24.4688 28.4062 24.4688H34.5938V28.8281H12.4176C12.0293 28.8281 11.7145 29.1429 11.7145 29.5312C11.7145 29.9196 12.0293 30.2344 12.4176 30.2344H34.5938V34.5938H1.40625V30.2344H7.59375C7.98202 30.2344 8.29688 29.9196 8.29688 29.5312C8.29688 29.1429 7.98202 28.8281 7.59375 28.8281H1.40625V24.4688H23.5824C23.9707 24.4688 24.2855 24.154 24.2855 23.7656C24.2855 23.3773 23.9707 23.0625 23.5824 23.0625H1.40625V18.7031H2.07302H34.5938V23.0625Z" fill="white"/>
<path d="M17.2593 3.79688H17.25C16.8617 3.79688 16.5469 4.11166 16.5469 4.5C16.5469 4.88834 16.8617 5.20312 17.25 5.20312H17.2593C17.6475 5.20312 17.9624 4.88834 17.9624 4.5C17.9624 4.11166 17.6475 3.79688 17.2593 3.79688Z" fill="white"/>
</svg>
