<?xml version="1.0" encoding="UTF-8"?>
<svg width="383px" height="364px" viewBox="0 0 383 364" version="1.1" xmlns="http://www.w3.org/2000/svg" xmlns:xlink="http://www.w3.org/1999/xlink">
    <!-- Generator: Sketch 51.2 (57519) - http://www.bohemiancoding.com/sketch -->
    <title>Group 23</title>
    <desc>Created with Sketch.</desc>
    <defs></defs>
    <g id="Page-1" stroke="none" stroke-width="1" fill="none" fill-rule="evenodd">
        <g id="Group-23" fill-rule="nonzero">
            <path d="M382,91.89 C380.65,85.15 379.12,78.45 378,71.67 C376.32,61.84 374.94,51.95 372.79,42.2 C372.506991,40.2217049 372.123158,38.2591501 371.64,36.32 C369.003593,27.7415192 364.686421,19.7734473 358.94,12.88 C352.25,5.1 343.83,1.39 333.75,0.95 C329.51,0.76 325.29,0.48 321.06,0.2 C317.072054,-0.11429616 313.060943,0.0434629992 309.11,0.67 C300.455856,2.3038799 292.147759,5.41603356 284.55,9.87 C279.55,12.71 275.04,16.06 271.89,20.97 C271.470764,21.7581996 270.604476,22.201324 269.72,22.08 C268.93,22.01 268.12,22.08 267.32,22.08 L137.5,22.08 C134.228846,22.0035041 130.956074,22.1270679 127.7,22.45 C125.830307,22.5871834 124.212495,23.8024959 123.56,25.56 C122.82,27.18 123.12,28.85 123.12,30.51 C123.12,68.03 123.12,105.55 123.12,143.07 C123.097869,144.982189 123.241742,146.892691 123.55,148.78 C124.09,151.89 125.71,153.38 128.91,153.5 C130.59,153.56 132.27,153.5 133.91,153.5 C182.87,153.5 231.826667,153.5 280.78,153.5 C281.603611,153.367387 282.447838,153.464266 283.22,153.78 C283.301003,155.918404 283.136597,158.059045 282.73,160.16 C282.143968,159.201876 281.509824,158.274022 280.83,157.38 C279.666517,155.968093 277.709846,155.495231 276.03,156.22 C274.41,156.88 273.03,157.84 273.13,159.87 C273.211306,160.673922 272.821922,161.452692 272.13,161.87 C271.70384,162.118089 271.357018,162.482252 271.13,162.92 C270.34,165.07 268.7,165.08 266.86,164.75 C266.16,164.63 265.43,164.63 264.71,164.57 C263.52,164.48 262.33,164.33 261.13,164.31 C259.745088,164.125262 258.377923,164.756261 257.62,165.93 C256.81,167.3 257.26,168.55 258.01,169.76 C258.675593,170.761939 259.519603,171.633066 260.5,172.33 C262.16,173.59 263.94,174.7 265.5,176.1 C270.5,180.64 276.08,184.37 281.26,188.65 C283.159316,190.396355 285.51899,191.562312 288.06,192.01 C289.46,192.19 289.42,192.82 289.37,193.93 C289.05,200.71 288.37,207.51 289.99,214.23 C290.038996,214.561533 290.038996,214.898467 289.99,215.23 C289.99,219.31 290.61,223.35 290.89,227.42 C291.17,231.49 292.2,235.42 292.82,239.48 C293.82,245.88 294.2,252.34 295.35,258.72 C296.59,265.56 297.58,272.45 299.35,279.19 C302.18,290.26 305.03,301.32 307.53,312.48 C309.53,321.28 310.72,330.26 313.65,338.84 C314.24,340.58 314.79,342.33 315.33,344.09 C315.563155,344.645031 315.563085,345.27055 315.329805,345.825528 C315.096526,346.380507 314.649676,346.818227 314.09,347.04 C313.575238,347.265935 313.034445,347.427165 312.48,347.52 C310.21,347.98 307.94,348.41 305.67,348.87 C303.533574,349.200197 301.47205,349.904297 299.58,350.95 C297.497688,352.143325 296.392249,354.518416 296.82,356.88 C297.1,359.34 298.82,360.39 300.94,360.96 C302.574593,361.370607 304.254668,361.572216 305.94,361.56 C309.62,361.56 313.29,361.2 316.94,360.99 C320.312642,360.883584 323.664593,360.421014 326.94,359.61 C329.94,358.76 330.59,358.01 330.61,354.9 C330.61,351.15 330.61,347.4 330.5,343.65 C330.34,338.21 330.36,332.78 330.11,327.35 C329.82,320.8 330.11,314.23 330.22,307.67 C330.293333,301.67 330.35,295.67 330.39,289.67 C330.39,282.39 329.86,275.12 330.19,267.84 C330.19,267.38 329.94,266.78 330.86,266.36 C331.108479,267.554303 331.27884,268.763533 331.37,269.98 C331.37,273.5 331.82,276.98 331.92,280.52 C332.26,292.35 331.92,304.19 331.67,316.02 C331.502516,324.408599 331.916843,332.798717 332.91,341.13 C333.06,342.42 333.12,343.88 334.47,344.72 C334.96,345.04 334.72,345.59 334.81,346.04 C335.27,348.41 335,350.83 335.14,353.22 C335.114974,354.777523 336.047964,356.190903 337.49,356.78 C339.3,357.61 341.01,358.67 342.83,359.5 C345.342232,360.745612 348.080481,361.470143 350.88,361.63 C354.32,361.72 357.76,361.69 361.2,361.46 C363.205339,361.383363 365.158944,360.802097 366.88,359.77 C368.009355,359.184745 368.779005,358.08189 368.938742,356.819967 C369.098479,355.558044 368.627905,354.298199 367.68,353.45 C366.977134,352.676899 366.104154,352.077795 365.13,351.7 C361.75,350.45 358.64,348.6 355.22,347.46 C353.55361,346.987872 352.167669,345.827465 351.41,344.27 C352.85,343.99 353.49,342.97 354.23,342.01 C355.59,340.25 355.6,338.12 355.86,336.09 C356.25,333 356.17,329.84 356.86,326.8 C358.38,320.49 358.76,314 359.79,307.62 C360.57,302.81 360.94,297.93 361.68,293.12 C363.15,283.7 363.86,274.21 364.59,264.73 C365.06,258.68 365.14,252.59 365.04,246.51 C364.97,241.51 364.84,236.59 364.83,231.64 C364.83,227.25 365.13,222.86 364.67,218.46 C364.498142,217.676258 364.522185,216.862232 364.74,216.09 C365.085087,215.017815 365.153879,213.875857 364.94,212.77 C364.42,207.92 363.94,203.07 363.27,198.24 C363.12,197.05 363.21,196.37 364.54,196.24 C364.934865,196.184677 365.323378,196.090898 365.7,195.96 C368.62,195.24 369.93,193.72 369.95,190.71 C369.931957,183.273126 369.477844,175.843709 368.59,168.46 C368.02,163.38 366.9,158.37 366.85,153.22 C366.85,151.47 366.41,149.8 367.72,148.3 C368.21,147.73 367.98,146.91 367.98,146.2 C367.879078,141.238697 367.091599,136.315269 365.64,131.57 C364.68536,128.055436 362.448253,125.026242 359.37,123.08 C358.31,122.39 357.3,121.65 355.81,120.62 C356.95,120.39 357.57,120.26 358.19,120.15 C363.246595,119.40864 368.224247,118.20356 373.06,116.55 C375.39,115.68 377.79,114.77 379.25,112.63 C381.48,109.35 383.04,105.82 382.96,101.69 C382.93763,98.4009918 382.616308,95.1208265 382,91.89 Z M278.63,56 C278.697716,54.6068083 279.579454,53.3841317 280.88,52.88 C291.29,48.83 299.98,41.98 308.97,35.62 C309.97,34.93 310.9,34.22 312.17,33.29 C312.8,34.54 313.32,35.52 313.79,36.52 C317.723454,44.9385268 323.112904,52.5961493 329.71,59.14 C333.06,62.46 336.55,65.64 338.71,70 C339.65,71.95 340.38,74 341.13,76 C341.42,76.8 341.59,77.79 342.72,77.86 C343.64,77.93 344.84,76.86 345.17,75.67 C345.535535,74.0319338 346.044154,72.4291157 346.69,70.88 C347.026819,70.0635856 347.559091,69.3424431 348.24,68.78 C350.06,67.46 351.9,68.08 352.49,70.24 C352.719394,71.0046976 352.860315,71.7931844 352.91,72.59 C353.027419,76.1115852 352.633314,79.6315782 351.74,83.04 C351.363142,84.5133918 350.655188,85.8814187 349.67,87.04 C349.115858,87.8508003 348.180981,88.3163463 347.2,88.27 C345.57,88.11 344.72,88.89 344.2,90.4 C342.867573,94.3439751 340.728892,97.9674728 337.92,101.04 C334.61,104.75 334.29,109.25 335.54,113.91 C336.19,116.32 336.24,116.33 334.21,117.56 C330.3,119.92 326.76,122.8 323.05,125.45 C321.56,126.52 321.23,126.57 320.05,125.27 C318.39,123.43 316.82,121.51 315.17,119.67 C314.59,119.01 314.58,118.59 315.17,117.85 C315.99082,116.754011 316.480158,115.445639 316.58,114.08 C316.66,113.08 317.01,112.76 318.01,112.66 C320.23,112.44 322.44,112.07 324.65,111.73 C325.199608,111.630092 325.741082,111.48971 326.27,111.31 C327,111.08 327.66,110.69 327.49,109.8 C327.32,108.91 326.49,108.85 325.78,108.8 C325.462922,108.784419 325.146101,108.83552 324.85,108.95 C319.12,110.84 313.31,110.27 307.5,109.49 C302.742431,108.813953 298.182205,107.137098 294.12,104.57 C288.35,101.03 285.71,95.57 284.47,89.22 C283.84,86.02 283.67,82.72 283.29,79.47 C282.77,75.13 281.07,71.15 279.58,67.1 C278.333612,63.539044 278.006839,59.7209625 278.63,56 Z M344.63,118.87 C344.5,119.63 343.74,119.68 343.22,119.97 C340.5,121.48 337.65,122.75 335.05,124.48 C331.537895,126.72281 328.394026,129.495622 325.73,132.7 C324.63,134.06 324.5,134.04 323.5,132.65 C322.642253,131.514455 321.995326,130.234149 321.59,128.87 C323.23255,128.47771 324.74306,127.660379 325.97,126.5 C329.184296,123.867165 332.560958,121.439041 336.08,119.23 C338.92,117.4 341.72,117.13 344.65,118.84 L344.63,118.87 Z M310.12,119.49 C311.00253,119.325283 311.905173,119.650387 312.48,120.34 C314.56,122.76 316.64,125.19 318.78,127.56 C319.33,128.16 319.07,128.51 318.69,128.97 L315.2,133.17 C314.48,131.81 313.81,130.65 313.2,129.45 C311.84,126.66 310.47,123.86 309.2,121.03 C308.73,119.86 309,119.59 310.14,119.46 L310.12,119.49 Z M307.86,117 C307.5,117.09 307.27,116.83 307.21,116.49 C307.15,116.15 307.33,115.66 307.78,115.64 C309.24,115.64 310.71,115.64 312.46,115.64 C311,116.69 309.34,116.58 307.88,117 L307.86,117 Z M281.75,151 C280.95,150.93 280.15,151 279.36,151 L137.36,151 C134.65,151 131.94,151 129.22,151 C127.769882,150.987262 126.536474,149.939075 126.29,148.51 C125.987853,146.974797 125.830496,145.414619 125.82,143.85 C125.82,105.91 125.82,67.9733333 125.82,30.04 C125.82,29.48 125.82,28.92 125.82,28.37 C126.02,26.12 126.75,25.55 128.96,25.37 C136.75,24.68 144.55,25.05 152.35,25.04 C190.35,24.9866667 228.35,24.9866667 266.35,25.04 L269.2,25.04 C267.2,29.34 265.39,33.47 264.86,38.04 C264.955098,38.6630589 264.955098,39.2969411 264.86,39.92 C264.94,41.92 265.01,43.84 265.08,45.86 C266.08,49.01 266.74,52.23 267.44,55.44 C269.2,60.64 271.59,65.63 272.77,71.03 C273.168148,71.8449014 273.412248,72.7263738 273.49,73.63 C274.52356,76.8725687 275.145106,80.2322781 275.34,83.63 C275.6,87.19 275.58,90.77 275.69,94.34 C275.935811,95.1286278 276.00411,95.9618705 275.89,96.78 C276.13,98.02 276.31,99.28 276.61,100.51 C277.651452,104.887294 280.169458,108.772016 283.74,111.51 C284.371644,111.970059 284.939874,112.511391 285.43,113.12 C286.284766,113.191941 287.099045,113.515565 287.77,114.05 C292.696155,115.305863 297.766826,115.90439 302.85,115.83 C303.41,115.83 304.22,115.49 304.39,116.46 C304.56,117.43 304.19,117.76 303.26,117.86 C301.451489,118.131586 299.668684,118.553037 297.93,119.12 C295.009099,119.985946 292.478754,121.837763 290.77,124.36 L287.98,128.21 C287.36,129.39 286.73,130.57 286.12,131.75 C285.144179,133.987537 284.455376,136.339547 284.07,138.75 C283.76,142.37 283.8,146.02 283.35,149.64 C283.27,150.74 282.84,151.1 281.77,151 L281.75,151 Z M291.23,166.61 C289.302764,165.662693 287.187374,165.160331 285.04,165.14 C284.66,163.6 285.19,162.2 285.27,160.79 C285.55,156.41 285.87,152.04 286.27,147.67 C286.51,145.12 286.79,144.91 289.27,144.53 C291.31607,144.321723 293.380722,144.385613 295.41,144.72 C293.97,148.63 291.95,151.85 291,155.5 C290.05,159.15 290.57,162.77 291.25,166.62 L291.23,166.61 Z M276.54,158.61 C277.227677,158.174214 278.114289,158.214152 278.76,158.71 C279.250463,159.120224 279.620295,159.655962 279.83,160.26 C280.39,161.81 280.91,163.38 281.44,164.92 C281.345243,164.991068 281.240866,165.048307 281.13,165.09 C279.81,165.27 278.25,165.76 277.25,164.89 C275.9,163.72 275.89,161.76 275.56,160.07 C275.44,159.36 276,158.94 276.56,158.64 L276.54,158.61 Z M273.54,163.92 C273.827587,163.987866 274.052134,164.212413 274.12,164.5 C274.25,164.91 274,165.05 273.66,165.01 C273.32,164.97 272.97,165.14 273,164.63 C273.073246,164.344764 273.27726,164.111075 273.55,164 L273.54,163.92 Z M283.02,186.86 C279.1,183.86 275.14,180.86 271.3,177.72 C268.3,175.25 265.3,172.72 262.13,170.39 C261.344211,169.85417 260.66583,169.175789 260.13,168.39 C259.51,167.39 259.79,166.87 260.9,166.87 C262.26,166.87 263.62,166.87 264.97,166.98 C271.658077,167.591409 278.376968,167.798452 285.09,167.6 C287.789146,167.454632 290.393653,168.615498 292.09,170.72 C293.89,172.83 295.35,175.21 297.64,177.52 C295.797011,177.537507 293.958159,177.697989 292.14,178 C290.64,178.29 289.3,178.91 288.84,180.43 C288.258038,182.056545 288.645192,183.872297 289.84,185.12 C290.792568,186.210971 292.06728,186.970896 293.48,187.29 C295.120046,187.458317 296.623159,188.280163 297.65,189.57 C296.994225,189.822451 296.28209,189.89159 295.59,189.77 C294.235602,189.673574 292.877141,189.646872 291.52,189.69 C288.419467,189.936653 285.349764,188.92783 283,186.89 L283.02,186.86 Z M324.6,352.56 C323.517935,352.822373 322.423176,353.029309 321.32,353.18 C319.971849,353.448517 318.57426,353.100037 317.51,352.23 C316.46,351.38 315.4,350.54 314.27,349.65 C315.329378,349.235872 316.258309,348.545217 316.96,347.65 C317.33042,347.022645 318.095966,346.749235 318.78,347 C321.714712,347.786909 324.807955,347.762716 327.73,346.93 C329,350.51 327.39,351.84 324.61,352.59 L324.6,352.56 Z M346.17,350.14 C345.507015,350.879248 344.413946,351.046769 343.56,350.54 C342.7,350.14 341.8,349.81 340.91,349.48 C340.138183,349.273977 339.480409,348.768636 339.082456,348.075974 C338.684504,347.383311 338.579243,346.560537 338.79,345.79 C341.979988,346.313133 345.246653,346.114946 348.35,345.21 C348.543467,345.136041 348.758571,345.143142 348.946738,345.229699 C349.134906,345.316257 349.280268,345.47497 349.35,345.67 C349.6,346.16 349.9,346.67 350.26,347.26 C348.793599,348.071429 347.424721,349.047762 346.18,350.17 L346.17,350.14 Z M361.04,214.83 C353.5,216.27 343.88,219.32 333.78,218.64 C329.645789,218.663102 325.513277,218.466156 321.4,218.05 C316.48,217.53 311.52,217.29 306.58,216.95 C302.48,216.68 298.58,215.49 294.66,214.41 C293.051924,214.066599 291.877301,212.682516 291.8,211.04 C291.513894,208.577412 291.386964,206.098932 291.42,203.62 C291.36,200.36 291.61,197.08 291.83,193.81 C291.95,192.05 292.04,192.06 293.89,192.15 C294.89,192.15 295.97,192.31 297,192.27 C299.17,192.2 301.25,192.21 303.1,193.73 C304.02,194.48 305.36,194.44 306.57,194.47 C314.476124,194.694696 322.36602,195.315475 330.21,196.33 C336.883338,197.072919 343.595876,197.406876 350.31,197.33 C353.03,197.33 355.7,196.62 358.43,196.78 C360.79,196.92 360.64,196.45 360.96,198.91 C361.59,203.58 361.96,208.29 362.58,212.96 C362.76,214.4 362.06,214.67 361.05,214.86 L361.04,214.83 Z M366.17,168.62 C367.036247,175.841394 367.483662,183.106884 367.51,190.38 C367.51,192.49 367.06,192.97 365.01,193.56 C362.875407,194.251151 360.628714,194.529442 358.39,194.38 C356.39,194.19 354.39,194.69 352.39,194.82 C347.993879,195.010007 343.590663,194.959932 339.2,194.67 C332.73,194.4 326.33,193.38 319.88,192.76 C315.82,192.37 311.74,192.22 307.67,192.14 C305.161286,192.209386 302.754998,191.144006 301.12,189.24 C299.271463,186.907649 296.631187,185.33487 293.7,184.82 C293.069677,184.701152 292.488617,184.398444 292.03,183.95 C291.204731,183.395265 290.807022,182.389062 291.03,181.42 C291.28,180.42 292.19,180.5 292.96,180.32 C294.96,179.84 297.07,180.27 299.04,179.32 C301.01,178.37 301.04,178.09 299.77,176.39 C299.38,175.89 298.96,175.39 298.53,174.93 C298.1,174.47 297.71,174.02 297.18,173.44 C298.709497,172.966798 300.373929,173.277243 301.63,174.27 C301.83644,174.390132 302.027795,174.534487 302.2,174.7 C304.83,177.8 308.58,179.43 311.67,181.91 C313.3,183.22 315.24,183.28 317.15,183.14 C319.94,182.94 322.71,182.51 325.48,182.19 C331.028644,181.465575 336.614767,181.064896 342.21,180.99 C346.21,180.99 350.21,180.67 354.21,180.47 C354.848422,180.446908 355.482305,180.353 356.1,180.19 C356.425861,180.144312 356.71826,179.965736 356.907719,179.696704 C357.097178,179.427672 357.166785,179.0922 357.1,178.77 C356.966442,178.197881 356.423124,177.818422 355.84,177.89 L355.6,177.89 C353.5,177.81 353.6,177.8 353.37,175.8 C352.850133,168.545621 352.709941,161.26902 352.95,154 C352.95,152.78 353.22,152.35 354.55,152.43 C357.422853,152.697059 360.320217,152.401549 363.08,151.56 C363.96,151.27 364.25,151.62 364.36,152.38 C364.437233,152.772227 364.480726,153.170349 364.49,153.57 C364.37,158.73 365.62,163.65 366.18,168.65 L366.17,168.62 Z M362.17,129.56 C362.490743,130.021385 362.743338,130.526575 362.92,131.06 C364.502117,136.016061 365.38069,141.169679 365.53,146.37 C365.650965,147.423107 364.996867,148.410585 363.98,148.71 C360.748824,149.918417 357.278752,150.350035 353.85,149.97 C352.85,149.89 351.78,149.78 350.74,149.71 C350.085311,149.558167 349.420227,149.918599 349.19,150.55 C349.08714,150.818991 349.097052,151.118088 349.217496,151.379678 C349.337941,151.641268 349.558747,151.843263 349.83,151.94 C350.99,152.45 350.52,153.44 350.5,154.23 C350.32,160.31 350.4,166.38 350.62,172.46 C350.62,173.73 350.83,175.01 350.92,176.28 C351.04,177.96 351.31,178.11 349.28,178.28 C345.84,178.62 342.4,178.47 338.97,178.64 C333.46,178.9 327.97,179.32 322.49,180.11 C320.91,180.34 319.32,180.48 317.73,180.66 C315.582094,180.874719 313.433863,180.255313 311.73,178.93 C308.828056,176.963226 306.040228,174.833126 303.38,172.55 C301.989427,171.302073 300.15441,170.667568 298.29,170.79 C297.29,170.79 296.39,170.79 295.54,170.79 C293.768544,167.31664 292.856343,163.468939 292.88,159.57 C292.917491,157.574823 293.327882,155.604265 294.09,153.76 C295.93,149.42 298.16,145.24 299.34,140.64 C299.593766,139.802125 299.784301,138.94639 299.91,138.08 C299.977177,137.765649 299.906049,137.437588 299.714714,137.179286 C299.523379,136.920984 299.230283,136.757343 298.91,136.73 C298.321939,136.658094 297.782565,137.064835 297.69,137.65 C297.37,138.72 297.06,139.8 296.78,140.88 C296.743928,141.318128 296.512359,141.71668 296.149593,141.964991 C295.786826,142.213302 295.331484,142.284935 294.91,142.16 C292.151998,141.663823 289.316069,141.821374 286.63,142.62 C286.7,137.77 287.63,133.62 290.09,129.91 C291.156667,128.323333 292.236667,126.736667 293.33,125.15 C295.73,121.67 299.52,120.87 303.33,120.06 C303.72,119.97 304.15,120.06 304.52,119.9 C305.94,119.42 306.35,120.12 306.84,121.37 C308.765062,125.92847 310.917772,130.387415 313.29,134.73 C314.29,136.73 315.43,136.73 316.94,134.95 C317.4,134.4 317.81,133.81 318.27,133.26 C318.73,132.71 319.2,132.16 319.74,131.54 C320.74,132.31 321.11,133.54 321.84,134.41 C323.84,136.9 325.44,136.97 327.42,134.41 C331,129.84 335.62,126.62 340.66,123.9 C342.2,123.07 343.83,122.38 345.34,121.48 C346.651399,120.675018 348.240431,120.457342 349.72,120.88 C354.87,122.4 359.28,125 362.23,129.59 L362.17,129.56 Z" id="Shape" fill="#222222"></path>
            <path d="M112.55,233.89 C108.92,222.11 105.2,210.35 101.11,198.67 C101.06,198.67 101.11,198.61 101.19,198.62 C101.57,198.72 101.95,198.83 102.32,198.95 C105.546313,199.993856 108.977425,200.240896 112.32,199.67 C114.66,199.31 116.5,198.25 117.24,195.74 C118.406473,191.742938 118.893245,187.578328 118.68,183.42 C118.5,179.33 117.62,175.34 117.24,171.29 C117.010377,167.451759 116.242883,163.66478 114.96,160.04 C113.553832,156.888889 113.347564,153.332551 114.38,150.04 C114.533187,149.418783 114.60048,148.779497 114.58,148.14 C114.74,144.85 114.72,141.6 113.19,138.53 C112.540757,136.863721 111.124531,135.615206 109.39,135.18 C108.118036,135.007743 107.134413,133.978466 107.02,132.7 C105.69,126.22 103.61,120.04 99.08,114.98 C102.167011,112.762433 104.551662,109.704387 105.95,106.17 C108.67,99.27 108.71,92.1 108.06,84.89 C107.427167,78.8370589 107.602033,72.7268423 108.58,66.72 C109.99,58.72 110.5,50.67 108.82,42.65 C107.82,38.13 106.93,33.58 104.58,29.48 C103.731254,28.2235353 102.969475,26.9104687 102.3,25.55 C98.3,15.83 91.03,9.32 81.62,5.32 C69.44,0.15 56.77,-1.18 43.87,2.44 C34.4254203,4.96412879 26.1722145,10.7353538 20.56,18.74 C13.06,29.29 10.18,41.2 10.28,54.02 C10.33,60.8 11.14,67.6 9.87,74.37 C9.21,77.9 8.87,81.53 7.28,84.79 C6.2,87.1 5.01,89.35 3.99,91.7 C2.12449209,96.0380543 0.982687667,100.652566 0.61,105.36 C0.118237726,111.102723 0.181866025,116.879502 0.8,122.61 C1.8,131.37 4.72,139.2 11.27,145.39 C11.79,145.88 12.27,146.39 12.82,146.89 C13.4578771,147.384919 13.6800093,148.248767 13.36,148.99 C12.57,151.99 11.89,155.04 11.23,158.09 C11.0621089,159.037299 10.42605,159.835195 9.54,160.21 C7.90066187,160.859669 6.37238415,161.760442 5.01,162.88 C3.1426685,164.35245 2.25813737,166.747251 2.72,169.08 C3.83199224,174.799688 5.25409038,180.454698 6.98,186.02 C9.04,192.41 10.46,198.97 12.53,205.35 C13.4439461,208.409583 14.6216981,211.384076 16.05,214.24 C17.63,217.24 20.05,219.32 24.05,218.04 C24.24,217.98 24.37,218.04 24.56,218.75 C23.63,225.47 22.75,232.68 21.56,239.84 C20.56,245.75 18.56,251.44 17.71,257.39 C17.18,261.19 16.52,264.97 15.9,268.75 C15.6170646,270.438289 16.1815281,272.157847 17.41,273.35 C19.2610079,275.47122 21.6577445,277.044834 24.34,277.9 C26.63,278.6 28.96,279.15 31.28,279.77 C32.59,280.12 33.9,280.45 35.21,280.77 C35.8474376,280.922513 36.2875595,281.505151 36.26,282.16 C36.56,285.43 37.11,288.65 37.66,291.88 C39.23,301.04 39.85,310.3 40.58,319.54 C41.14,326.71 41.7,333.89 42.32,341.06 C42.4971177,341.833791 42.1374111,342.630868 41.44,343.01 C40.1692876,343.874353 39.2282965,345.143105 38.77,346.61 C37.5066019,350.094099 37.3494482,353.883249 38.32,357.46 C38.738731,359.827417 40.6073557,361.671982 42.98,362.06 C48.49,363.06 53.98,363.64 59.62,362.59 C62.02,362.14 63,360.88 63.89,359.04 C64.5734148,357.491913 64.7721311,355.773191 64.46,354.11 C64.2,352.37 63.77,350.66 63.4,348.94 C63.2240641,348.159822 62.7994154,347.457923 62.19,346.94 C61.1092717,345.953061 60.6108452,344.480438 60.87,343.04 C61.09,340.086667 61.2666667,337.136667 61.4,334.19 C61.75,326.12 62.01,318.04 62.4,309.98 C62.79,302.16 63.73,294.37 63.75,286.53 C63.75,284.71 63.92,284.58 65.63,284.65 C67.34,284.72 67.32,284.83 67.43,286.76 C67.89,295.14 68.82,303.49 69.08,311.88 C69.28,318.44 70.08,324.96 70.25,331.52 C70.35,336.72 70.25,341.92 70.67,347.11 C70.85,349.27 71,351.38 69.94,353.42 C69.6393517,354.164037 69.4799653,354.957578 69.47,355.76 C69.3457545,358.845279 71.6644742,361.485187 74.74,361.76 C81.3711983,362.230549 88.0350017,361.639787 94.48,360.01 C96.4234176,359.538637 98.2774993,358.755127 99.97,357.69 C102.73,355.95 104.4,351.49 101.61,348.32 C100.107652,346.664434 98.2564327,345.363116 96.19,344.51 C94.4214232,343.75309 92.538869,343.296816 90.62,343.16 C89.68,343.08 89.35,342.69 89.39,341.82 C89.39,341.34 89.39,340.82 89.39,340.38 C89.79,335.04 90.22,329.71 90.61,324.38 C91.0248221,319.27965 91.715836,314.205538 92.68,309.18 C94.18,300.93 95.61,292.66 96.32,284.29 C96.2508008,283.30959 96.980827,282.454925 97.96,282.37 C99.37,282.09 100.77,281.78 102.16,281.37 C106.440687,280.08939 110.608206,278.457168 114.62,276.49 C118.41,274.73 120.29,272.04 120.47,267.99 C120.530074,264.95925 120.193895,261.933642 119.47,258.99 C117.69,250.52 115.11,242.21 112.55,233.89 Z M110.74,139.29 C111.562361,140.834798 112.033573,142.542084 112.12,144.29 C112.254005,146.91916 112.045592,149.554584 111.5,152.13 C111.39,152.65 111.32,153.28 110.5,153.13 C110.262504,153.102442 110.045734,152.981516 109.897522,152.793907 C109.749311,152.606298 109.681841,152.367425 109.71,152.13 C109.58,147.27 108.41,142.52 108.06,137.51 C109.222854,137.533652 110.267249,138.227317 110.74,139.29 Z M104.36,132.18 C105.719409,138.44434 106.664788,144.791408 107.19,151.18 C108.09,160.32 108.95,169.47 109.84,178.62 C109.91,179.34 110.01,180.05 110.15,180.76 C110.29,181.47 110.7,181.96 111.46,181.86 C111.787825,181.828744 112.087674,181.661918 112.287079,181.399843 C112.486485,181.137767 112.567302,180.804288 112.51,180.48 C112.32,178.25 112.08,176.03 111.85,173.8 L110.08,156.11 C111.081528,156.623926 111.781996,157.580121 111.97,158.69 C113.553208,163.634187 114.559883,168.744738 114.97,173.92 C115.27,177.02 115.97,180.06 116.1,183.19 C116.353616,187.025695 115.975242,190.876999 114.98,194.59 C114.699643,196.039935 113.507925,197.138423 112.04,197.3 C109.192398,197.785173 106.272755,197.634922 103.49,196.86 C100.8,196.07 99.04,194.02 97.42,191.98 C94.9072085,188.825823 93.4703946,184.94993 93.32,180.92 C92.98,172.77 92.69,164.62 92.32,156.47 C92.2243573,155.277171 92.0540232,154.091512 91.81,152.92 C91.66,152.06 91.23,151.32 90.22,151.56 C89.21,151.8 89.31,152.56 89.42,153.32 C90.42,159.75 90.01,166.25 90.49,172.7 C90.7,175.49 90.69,178.29 90.86,181.09 C91.0804933,186.41882 93.2847079,191.472821 97.04,195.26 C98.98,197.26 98.68,198.98 96.04,200.07 C93.9322449,200.829416 91.7447904,201.346084 89.52,201.61 C82.58,202.78 75.52,203.12 68.52,203.94 C65.1714435,204.269989 61.7985565,204.269989 58.45,203.94 C51.2750013,203.436675 44.1338203,202.531925 37.06,201.23 C36.0435693,201.029277 35.0414139,200.762036 34.06,200.43 C31.6,199.58 30.53,198.28 30.5,195.68 C30.5690582,192.083006 30.3315325,188.486667 29.79,184.93 C29.18,181.63 28.54,178.34 27.94,175.04 C27.13,170.61 27.52,166.1 27.13,161.64 C26.9335408,158.566916 26.3039888,155.536986 25.26,152.64 C26.63,152.92 27.79,153.13 28.95,153.39 C30.2546988,153.740593 31.5990406,153.922079 32.95,153.93 C35.1917919,153.84602 37.4304958,154.164383 39.56,154.87 C43.66,156.22 47.77,156.03 51.89,155.46 C56.7850015,154.711173 61.5703564,153.367915 66.14,151.46 C70.72,149.62 73.29,146.07 75.43,141.92 C78.61,135.8 79.43,129.18 79.79,122.44 C79.92,119.64 79.92,116.84 80.03,114.05 C80.09,112.47 80.21,112.39 81.71,112.48 C86.0286301,112.692542 90.2794676,113.639427 94.28,115.28 C95.9882601,115.970938 97.4703079,117.124026 98.56,118.61 C101.69,122.65 103.23,127.34 104.36,132.18 Z M102.82,59.32 C103.21,55.42 103.52,51.52 103.87,47.62 C104.055844,44.4264908 103.874659,41.2222033 103.33,38.07 C103.08,36.24 103.05,34.42 102.94,32.39 C103.621205,32.9522966 104.078775,33.7397423 104.23,34.61 C107.586799,44.9155629 108.23424,55.9117202 106.11,66.54 C105.043885,72.6927569 104.865403,78.9665841 105.58,85.17 C106.330923,91.134742 105.947525,97.1876765 104.45,103.01 C103.576818,105.922792 102.109273,108.622939 100.14,110.94 C99.2345547,111.844361 98.1744943,112.579291 97.01,113.11 C96.45,113.44 95.94,113.11 95.42,112.92 C90.9784554,111.064607 86.231814,110.047469 81.42,109.92 C80.59,109.92 80.35,109.57 80.3,108.78 C79.92,101.83 79.82,94.88 80.05,87.93 C80.0724933,86.4096032 80.4131377,84.9107675 81.05,83.53 C81.21,83.21 81.34,82.69 81.87,82.9 C82.4,83.11 82.12,83.52 82.04,83.9 C81.53,86.54 82.17,87.98 84.2,88.8 C85.8779308,89.4235434 87.7645573,89.0353486 89.06,87.8 C90.1696348,86.4741487 90.3485045,84.6019793 89.51,83.09 C88.7633333,81.6366667 87.9866667,80.19 87.18,78.75 C86.9888623,78.3429543 86.5796886,78.0830517 86.13,78.0830517 C85.6803114,78.0830517 85.2711377,78.3429543 85.08,78.75 C84.62,79.45 84.95,80.33 84.46,81.14 C82.3584186,80.6222979 80.6724511,79.0572966 80,77 C78.8447585,73.7308497 78.7087668,70.1880897 79.61,66.84 C80.46,63.53 82.46,61.84 85.68,62.47 C86.5507285,62.6027466 87.3452549,63.0425737 87.92,63.71 C88.9155647,64.8516793 89.7777932,66.1030848 90.49,67.44 C91.3143855,69.2702362 92.5996041,70.8552244 94.22,72.04 C96.22,73.34 97.14,73.25 98.85,71.6 C99.8993621,70.6116303 100.680455,69.3728931 101.12,68 C101.993518,65.175301 102.563405,62.2655249 102.82,59.32 Z M84.3,85.24 C84.5583587,84.2957887 85.4428209,83.661646 86.42,83.72 C86.7814072,83.7240084 87.1230783,83.8855006 87.3555919,84.1622109 C87.5881055,84.4389213 87.6883173,84.8033064 87.63,85.16 C87.5996187,85.5957694 87.3945415,86.0008016 87.061288,86.2832199 C86.7280345,86.5656381 86.2948509,86.7015048 85.86,86.66 C85.4640235,86.6817386 85.0758878,86.5436522 84.7826179,86.2767014 C84.4893481,86.0097506 84.315481,85.6362705 84.3,85.24 Z M13.06,143.88 C6.94,137.94 4.06,130.63 3.18,122.36 C2.79846986,118.78 2.64149602,115.179621 2.71,111.58 C2.66242539,106.855305 3.25446448,102.145904 4.47,97.58 C5.05293087,95.5100659 5.83317445,93.500855 6.8,91.58 C9.52091294,86.2575481 11.3774638,80.5359959 12.3,74.63 C13.39,67.5 12.46,60.41 12.69,53.31 C12.94,45.78 13.5,38.31 16.54,31.25 C19.32,24.8 22.68,18.78 27.96,14.01 C34.4007995,8.16389015 42.5028001,4.46940587 51.14,3.44 C60.3793228,2.22998568 69.7745992,3.3790235 78.45,6.78 C82.7300049,8.35146996 86.7434122,10.5706481 90.35,13.36 C94.4642017,16.7193504 97.6832018,21.0445598 99.72,25.95 C100.025121,26.7779159 100.161135,27.6586083 100.12,28.54 C100.184701,31.0956876 100.485988,33.6398886 101.02,36.14 C101.525343,38.9803095 101.68317,41.8715603 101.49,44.75 C101.349101,51.3069834 100.700494,57.8432015 99.55,64.3 C99.17,66.24 98.75,68.2 97.3,69.77 C97.115399,70.0740389 96.8015133,70.2765788 96.4484194,70.3194963 C96.0953256,70.3624138 95.7420599,70.2409641 95.49,69.99 C94.2026128,68.8985826 93.1772923,67.5314886 92.49,65.99 C91.7132972,64.3254855 90.6428401,62.8146504 89.33,61.53 C86.7667473,59.4735333 83.1588173,59.3394548 80.45,61.2 C78.7428828,62.4489177 77.5683581,64.2945993 77.16,66.37 C76.59,69.92 76.29,73.52 77.47,77.05 C77.5674655,77.6833794 77.7956329,78.2895555 78.14,78.83 C79.73,80.49 79.32,82.08 78.46,83.92 C77.7710042,85.6362906 77.4704816,87.4838216 77.58,89.33 C77.58,95.49 77.79,101.65 77.8,107.81 C77.8,116.27 78,124.81 76.17,133.13 C75.1553359,137.753226 73.1037176,142.08556 70.17,145.8 C68.3,148.18 65.47,149.15 62.8,150.09 C59.5211716,151.370171 56.1050623,152.266144 52.62,152.76 C48.62,153.2 44.62,153.71 40.54,152.42 C38.102538,151.618194 35.5450699,151.242693 32.98,151.31 C30.48,151.4 28.12,150.44 25.67,150.05 C24.89,149.92 24.13,149.6 23.34,149.52 C19.06,149.13 16,146.75 13.06,143.88 Z M23.98,152.3 C23.6271384,153.870004 22.3864593,155.0872 20.81,155.41 C18.53,156.07 16.35,157.06 13.81,158.01 C14.236213,155.163861 14.8712606,152.35294 15.71,149.6 C18.35,151.32 21.25,151.53 24,152.3 L23.98,152.3 Z M17.98,212.94 C16.7423847,210.261611 15.6703683,207.509768 14.77,204.7 C12.66,198.16 11.18,191.45 9.08,184.91 C7.44652637,179.65622 6.11106671,174.314382 5.08,168.91 C4.62,166.55 5.84,165.06 7.65,163.98 C9.503625,162.881972 11.4128462,161.880633 13.37,160.98 C16.4189281,159.576084 19.5399509,158.334351 22.72,157.26 C23.2,157.09 23.81,156.59 24.14,157.37 C24.47,158.15 23.9,158.3 23.34,158.56 C19.93,160.13 16.54,161.74 13.14,163.33 C11.4540005,164.051446 9.90990831,165.067296 8.58,166.33 C7.79516113,167.030864 7.49723131,168.1285 7.82,169.13 C9.64,177.13 11.56,185.13 14.11,192.97 C15.94,198.59 17.57,204.27 19.28,209.97 C19.9759193,212.068568 20.8874552,214.089363 22,216 C20.1847201,215.845511 18.6240756,214.651618 18,212.94 L17.98,212.94 Z M22.76,212.24 C21.76,209.63 20.84,207 20.03,204.33 C17.61,196.33 15.19,188.33 12.92,180.24 C11.92,176.65 11.26,172.94 10.4,169.3 C10.186138,168.600517 10.4245618,167.841535 11,167.39 C11.7230402,166.763343 12.5352583,166.247702 13.41,165.86 C16.57,164.34 19.7366667,162.833333 22.91,161.34 C23.39,161.11 23.86,160.69 24.66,161.01 C24.78,163.01 25.02,165.01 24.99,167.07 C25.0076434,172.020314 25.5914374,176.952366 26.73,181.77 C27.6998368,185.890992 28.1500031,190.11718 28.07,194.35 C27.9597416,195.697199 28.0987299,197.053183 28.48,198.35 C28.6532521,198.710844 28.6990786,199.119757 28.61,199.51 C27.32,204.28 26.75,209.22 25.31,213.96 C25.2283117,214.200763 25.1280088,214.434803 25.01,214.66 C23.52,214.57 23.19,213.27 22.8,212.24 L22.76,212.24 Z M61.31,353.64 C61.31,353.01 61.31,352.38 61.31,351.7 C61.7776657,352.984718 62.044139,354.33395 62.1,355.7 C62,358.64 61.44,359.12 58.97,360.12 C58.3039405,360.400213 57.5922076,360.556116 56.87,360.58 C52.65,360.58 48.43,360.85 44.23,360.02 C42.2527261,359.801559 40.6931745,358.237849 40.48,356.26 C39.84,352.55 39.95,348.97 42.36,345.77 C42.6355186,347.161315 42.5177795,348.601887 42.02,349.93 C41.550167,351.373495 41.310566,352.881969 41.31,354.4 C41.4,356.03 42.02,356.7 43.37,356.05 C47.17,354.24 50.83,355.05 54.58,356.05 C55.8756739,356.439484 57.2289625,356.601879 58.58,356.53 C60.68,356.34 61.27,355.66 61.35,353.64 L61.31,353.64 Z M61.07,294.36 C60.3,303.2 59.79,312.05 59.46,320.92 C59.14,329.38 58.85,337.85 58.25,346.31 C58.2645858,348.32102 58.4418305,350.327564 58.78,352.31 C58.9348594,352.881268 58.8518926,353.490893 58.55,354 C56.823803,354.012707 55.105215,353.770083 53.45,353.28 C48.86,352.14 48.31,352.13 44.06,353.12 C43.63,352.2 44.21,351.41 44.42,350.6 C45.1480702,347.817403 45.3146437,344.917664 44.91,342.07 C43.75,334.24 43.62,326.3 42.91,318.42 C42.14,309.58 41.55,300.73 40.1,291.97 C39.67,289.37 39.27,286.76 38.85,284.16 C38.633749,283.586144 38.6927235,282.944796 39.01,282.42 C42.8006765,283.193117 46.6395271,283.707636 50.5,283.96 C53.68,284.15 56.86,284.54 60.05,284.75 C60.96,284.82 61.25,285.09 61.3,286.02 C61.4250121,288.801102 61.3615336,291.587477 61.11,294.36 L61.07,294.36 Z M99.42,349.73 C101.3,351.82 100.86,354.3 98.48,355.83 C97.1362856,356.694358 95.655076,357.323365 94.1,357.69 C87.9909143,359.273531 81.665782,359.857753 75.37,359.42 C73.9896573,359.435586 72.7336894,358.624522 72.18,357.36 C71.54,356 72.11,354.71 72.62,353.45 C72.89,352.8 73.5,352.89 74.06,352.91 C75.9807462,352.911072 77.8863725,353.249549 79.69,353.91 C80.69,354.32 81.83,354.58 82.82,355.07 C84.8364983,356.115647 87.268428,355.945798 89.12,354.63 C89.9547867,354.165301 90.820102,353.757701 91.71,353.41 C93.0744866,352.854889 94.023441,351.594739 94.18,350.13 C94.37,348.73 93.41,347.78 92.27,347.06 C91.88,346.82 91.35,346.73 91.2,345.97 C94.3470822,346.060927 97.3247098,347.41636 99.46,349.73 L99.42,349.73 Z M93.69,287.33 C92.37,296.67 90.77,305.96 89.2,315.25 C88.3741745,320.785227 87.8334609,326.35925 87.58,331.95 C87.29,336.33 86.89,340.71 86.58,345.1 C86.5,346.1 86.51,347.17 86.47,348.21 C86.47,348.98 86.58,349.73 87.47,349.93 C88.36,350.13 88.6,349.51 88.89,348.93 C89,348.72 89.12,348.52 89.26,348.26 C89.4062325,348.301266 89.5498291,348.351358 89.69,348.41 C90.39,348.86 91.58,348.9 91.55,349.98 C91.52,351.06 90.44,350.98 89.8,351.43 C87.52,352.95 85.22,353.75 82.46,352.36 C79.9889416,351.001731 77.1850686,350.36748 74.37,350.53 C73.24,350.62 73.37,349.73 73.3,349.06 C72.94,345.15 72.83,341.24 72.82,337.32 C72.82,331.16 72.5,325.01 72.01,318.87 C71.67,314.57 71.57,310.25 71.28,305.94 C70.92,300.52 70.51,295.103333 70.05,289.69 C69.63,284.85 69.59,284.85 74.3,285.12 C76.4532422,285.253387 78.6144803,285.166267 80.75,284.86 C82.9571157,284.463536 85.1979902,284.286008 87.44,284.33 C89.54,284.43 91.56,283.83 93.72,283.61 C94.0331238,284.829812 94.0365612,286.108522 93.73,287.33 L93.69,287.33 Z M118.06,268.16 C118.029278,270.520293 116.687807,272.667419 114.58,273.73 C107.58,277.81 99.95,279.55 92.23,281.31 C88.83,282.08 85.36,281.56 81.98,282.22 C77.04,283.22 72.09,282.3 67.14,282.37 C60.81,282.46 54.54,281.74 48.24,281.28 C44.24476,281.099563 40.30751,280.254659 36.59,278.78 C33.78,277.58 30.74,277.21 27.81,276.46 C24.9779351,275.882779 22.3388086,274.595904 20.14,272.72 C18.7143355,271.636748 18.0280045,269.837553 18.37,268.08 C19.47,261.95 20.17,255.73 21.76,249.7 C23.5066094,243.216978 24.7404168,236.606579 25.45,229.93 C26.3979762,221.430834 27.9011887,213.002822 29.95,204.7 C30.19,203.7 30.37,202.7 30.6,201.63 C33.0609107,202.803363 35.6945564,203.573197 38.4,203.91 C45.1,205.04 51.85,205.91 58.63,206.33 C63.7397938,206.603634 68.8638516,206.416209 73.94,205.77 C79.03,205.2 84.13,204.77 89.19,204.02 C92.57,203.48 96,203.09 99,201.18 C99.73,201.58 99.85,202.3 100.06,202.97 C103.79,214.61 107.68,226.19 111.21,237.88 C113.58,245.75 116.07,253.61 117.54,261.72 C117.965423,263.839184 118.15325,265.999192 118.1,268.16 L118.06,268.16 Z" id="Shape" fill="#222222"></path>
            <path d="M297,91.34 C298.215811,91.5690394 299.454085,91.656289 300.69,91.6 C302.252167,91.6618424 303.815664,91.5172609 305.34,91.17 C305.922045,91.0625149 306.32982,90.5340574 306.286191,89.9437815 C306.242562,89.3535056 305.761522,88.8907432 305.17,88.87 C304.530338,88.8561242 303.890802,88.9030012 303.26,89.01 C301.751847,89.214955 300.225078,89.2451548 298.71,89.1 C297.71,89.04 296.55,88.95 296.07,87.81 C295.59,86.67 296.19,85.64 296.92,84.75 C297.890482,83.5777733 299.017732,82.5447409 300.27,81.68 C300.985879,81.1753053 301.670471,80.627632 302.32,80.04 C302.582945,79.8410982 302.751587,79.5420208 302.785706,79.2140908 C302.819826,78.8861609 302.716367,78.5587724 302.5,78.31 C302.298705,78.0532366 301.996254,77.8960088 301.670448,77.8787602 C301.344642,77.8615117 301.027281,77.9859259 300.8,78.22 C299.9,78.89 298.99,79.54 298.11,80.22 C296.498408,81.399188 295.13849,82.8882983 294.11,84.6 C293.31738,85.8367762 293.189382,87.3860272 293.768278,88.7361166 C294.347174,90.0862059 295.557669,91.0615336 297,91.34 Z" id="Shape" fill="#222222"></path>
            <path d="M310.07,98.6 C311.07,98.74 312.12,98.84 313.14,98.95 C314.810381,99.0535213 316.47804,98.7082503 317.97,97.95 C318.74,97.58 319.38,97 318.97,96.08 C318.56,95.16 317.7,95.33 316.97,95.73 C315.23937,96.5583776 313.277515,96.7700885 311.41,96.33 C310.78,96.22 310.16,96.11 309.53,96.03 C309.043264,95.9242987 308.552945,96.1929086 308.38,96.66 C308.135452,97.1849436 308.304309,97.8097155 308.78,98.14 C309.158798,98.4104226 309.605564,98.5697345 310.07,98.6 Z" id="Shape" fill="#222222"></path>
            <path d="M317.19,56.83 C317.560751,56.9710613 317.946693,57.0683859 318.34,57.12 C319.613194,57.2079067 320.868268,57.4703619 322.07,57.9 C322.9,58.21 323.76,58.25 324.07,57.3 C324.38,56.35 323.65,55.91 322.85,55.59 C321.178745,55.0547738 319.456005,54.6961489 317.71,54.52 C316.91,54.4 316.23,54.58 316.09,55.52 C315.95,56.46 316.53,56.62 317.19,56.83 Z" id="Shape" fill="#222222"></path>
            <path d="M286.68,62.31 C287.91,61.41 289.05,60.42 290.21,59.44 C290.37,59.31 290.42,59.03 290.49,58.88 C290.515968,58.4173759 290.277624,57.979972 289.874801,57.7509987 C289.471977,57.5220254 288.974213,57.5410098 288.59,57.8 C287.350108,58.5306351 286.230285,59.4480802 285.27,60.52 C285.040839,60.6980714 284.900342,60.9669138 284.884987,61.2567212 C284.869633,61.5465286 284.980938,61.8287115 285.19,62.03 C285.348324,62.2673686 285.595655,62.430887 285.876072,62.4835827 C286.156488,62.5362784 286.446308,62.4737012 286.68,62.31 Z" id="Shape" fill="#222222"></path>
            <path d="M321.42,71.09 C320.955392,70.9169933 320.432275,71.0670348 320.13,71.46 C319.36,72.46 319.93,73.41 320.4,74.33 C320.426555,74.4048481 320.46359,74.475552 320.51,74.54 C320.92,75.06 321.38,75.54 322.12,75.26 C322.713684,75.0317656 323.109356,74.4659549 323.12,73.83 C323.062807,72.6849137 322.42057,71.649779 321.42,71.09 Z" id="Shape" fill="#222222"></path>
            <path d="M290.13,75.36 C290.4,76.12 290.67,76.9 291.76,76.89 C291.977655,76.8586646 292.18584,76.7801688 292.37,76.66 C293.07,76 292.87,75.23 292.61,74.44 C292.35,73.65 292.12,72.89 291.14,72.79 C290.901885,72.7623759 290.662213,72.8267656 290.47,72.97 C289.6,73.64 289.84,74.52 290.13,75.36 Z" id="Shape" fill="#222222"></path>
            <path d="M281.73,151 C282.81,151.09 283.24,150.73 283.38,149.58 C283.82,145.96 283.79,142.31 284.09,138.69 C282.82,138.69 281.54,138.69 280.27,138.69 L145.46,138.69 C144.46,138.69 143.54,138.69 142.59,138.69 C140.81,138.59 140.59,138.29 140.5,136.55 C140.5,136.24 140.5,135.92 140.5,135.6 C140.5,104.613333 140.5,73.6133333 140.5,42.6 C140.5,41.96 140.5,41.32 140.5,40.69 C140.55,38.16 140.71,37.99 143.26,37.99 C150.826667,37.99 158.393333,37.99 165.96,37.99 L264.96,37.99 C265.49,33.45 267.33,29.32 269.29,24.99 L266.44,24.99 C228.44,24.99 190.44,24.99 152.44,24.99 C144.65,24.99 136.84,24.63 129.06,25.32 C126.84,25.52 126.11,26.09 125.92,28.32 C125.92,28.87 125.92,29.43 125.92,29.99 C125.92,67.93 125.92,105.866667 125.92,143.8 C125.927456,145.367601 126.081459,146.931071 126.38,148.47 C126.631446,149.898792 127.869268,150.942942 129.32,150.95 C132.03,150.95 134.74,150.95 137.45,150.95 L279.45,150.95 C280.14,151 280.94,150.94 281.73,151 Z" id="Shape" fill="#FFFFFF"></path>
            <path d="M283.24,79.44 C283.62,82.69 283.79,85.99 284.42,89.19 C285.66,95.5 288.3,101 294.07,104.54 C298.132205,107.107098 302.692431,108.783953 307.45,109.46 C313.26,110.24 319.07,110.81 324.8,108.92 C325.096101,108.80552 325.412922,108.754419 325.73,108.77 C326.45,108.83 327.27,108.9 327.44,109.77 C327.61,110.64 326.95,111.05 326.22,111.28 C325.691082,111.45971 325.149608,111.600092 324.6,111.7 C322.39,112.04 320.18,112.41 317.96,112.63 C316.96,112.73 316.61,113.06 316.53,114.05 C316.430158,115.415639 315.94082,116.724011 315.12,117.82 C314.55,118.56 314.56,118.98 315.12,119.64 C316.77,121.48 318.34,123.4 320,125.24 C321.18,126.54 321.51,126.49 323,125.42 C326.71,122.77 330.25,119.89 334.16,117.53 C336.16,116.3 336.16,116.29 335.49,113.88 C334.24,109.22 334.56,104.72 337.87,101.01 C340.678892,97.9374728 342.817573,94.3139751 344.15,90.37 C344.65,88.86 345.5,88.08 347.15,88.24 C348.130981,88.2863463 349.065858,87.8208003 349.62,87.01 C350.605188,85.8514187 351.313142,84.4833918 351.69,83.01 C352.583314,79.6015782 352.977419,76.0815852 352.86,72.56 C352.810315,71.7631844 352.669394,70.9746976 352.44,70.21 C351.85,68.05 350.01,67.43 348.19,68.75 C347.509091,69.3124431 346.976819,70.0335856 346.64,70.85 C345.994154,72.3991157 345.485535,74.0019338 345.12,75.64 C344.79,76.78 343.59,77.9 342.67,77.83 C341.54,77.76 341.37,76.77 341.08,75.97 C340.33,73.97 339.6,71.97 338.66,69.97 C336.55,65.61 333.06,62.43 329.66,59.11 C323.062904,52.5661493 317.673454,44.9085268 313.74,36.49 C313.27,35.49 312.74,34.49 312.12,33.26 C310.85,34.19 309.9,34.9 308.92,35.59 C299.92,41.95 291.24,48.8 280.83,52.85 C279.529454,53.3541317 278.647716,54.5768083 278.58,55.97 C277.940802,59.686768 278.250369,63.5047587 279.48,67.07 C281,71.12 282.72,75.1 283.24,79.44 Z M322.12,75.26 C321.38,75.5 320.92,75.06 320.51,74.54 C320.46359,74.475552 320.426555,74.4048481 320.4,74.33 C319.93,73.41 319.4,72.49 320.13,71.46 C320.432275,71.0670348 320.955392,70.9169933 321.42,71.09 C322.41672,71.6522696 323.054899,72.6869506 323.11,73.83 C323.100985,74.4634712 322.709756,75.0285801 322.12,75.26 Z M316.12,55.48 C316.26,54.58 316.94,54.4 317.74,54.48 C319.486005,54.6561489 321.208745,55.0147738 322.88,55.55 C323.68,55.87 324.44,56.3 324.1,57.26 C323.76,58.22 322.91,58.17 322.1,57.86 C320.898268,57.4303619 319.643194,57.1679067 318.37,57.08 C317.976693,57.0283859 317.590751,56.9310613 317.22,56.79 C316.53,56.62 316,56.25 316.11,55.48 L316.12,55.48 Z M308.36,96.62 C308.532945,96.1529086 309.023264,95.8842987 309.51,95.99 C310.14,96.07 310.76,96.18 311.39,96.29 C313.257515,96.7300885 315.21937,96.5183776 316.95,95.69 C317.7,95.29 318.53,95.07 318.95,96.04 C319.37,97.01 318.73,97.54 317.95,97.91 C316.45804,98.6682503 314.790381,99.0135213 313.12,98.91 C312.12,98.8 311.12,98.7 310.05,98.56 C309.571107,98.5235861 309.112838,98.3499995 308.73,98.06 C308.281506,97.7283773 308.123531,97.1297379 308.35,96.62 L308.36,96.62 Z M294.04,84.62 C295.06849,82.9082983 296.428408,81.419188 298.04,80.24 C298.92,79.55 299.83,78.9 300.73,78.24 C300.957281,78.0059259 301.274642,77.8815117 301.600448,77.8987602 C301.926254,77.9160088 302.228705,78.0732366 302.43,78.33 C302.646367,78.5787724 302.749826,78.9061609 302.715706,79.2340908 C302.681587,79.5620208 302.512945,79.8610982 302.25,80.06 C301.600471,80.647632 300.915879,81.1953053 300.2,81.7 C298.947732,82.5647409 297.820482,83.5977733 296.85,84.77 C296.12,85.66 295.51,86.64 296,87.83 C296.49,89.02 297.61,89.06 298.64,89.12 C300.155078,89.2651548 301.681847,89.234955 303.19,89.03 C303.820802,88.9230012 304.460338,88.8761242 305.1,88.89 C305.691522,88.9107432 306.172562,89.3735056 306.216191,89.9637815 C306.25982,90.5540574 305.852045,91.0825149 305.27,91.19 C303.745664,91.5372609 302.182167,91.6818424 300.62,91.62 C299.384085,91.676289 298.145811,91.5890394 296.93,91.36 C295.47729,91.0938388 294.252758,90.1212314 293.66469,88.766468 C293.076622,87.4117045 293.202368,85.8529764 294,84.61 L294.04,84.62 Z M292.62,74.45 C292.88,75.24 293.08,76.01 292.38,76.67 C292.19584,76.7901688 291.987655,76.8686646 291.77,76.9 C290.68,76.9 290.41,76.13 290.14,75.37 C289.87,74.61 289.61,73.65 290.48,72.98 C290.672213,72.8367656 290.911885,72.7723759 291.15,72.8 C292.12,72.89 292.35,73.66 292.61,74.44 L292.62,74.45 Z M285.28,60.53 C286.240285,59.4580802 287.360108,58.5406351 288.6,57.81 C288.984213,57.5510098 289.481977,57.5320254 289.884801,57.7609987 C290.287624,57.989972 290.525968,58.4273759 290.5,58.89 C290.43,59.04 290.38,59.32 290.22,59.45 C289.06,60.45 287.92,61.45 286.69,62.32 C286.456308,62.4837012 286.166488,62.5462784 285.886072,62.4935827 C285.605655,62.440887 285.358324,62.2773686 285.2,62.04 C284.986245,61.8399609 284.870884,61.5562993 284.884352,61.2638517 C284.89782,60.9714042 285.038764,60.6995461 285.27,60.52 L285.28,60.53 Z" id="Shape" fill="#FFFFFF"></path>
            <path d="M345.33,121.59 C343.82,122.49 342.19,123.18 340.65,124.01 C335.65,126.73 330.99,129.95 327.41,134.52 C325.41,137.04 323.82,136.97 321.83,134.52 C321.1,133.62 320.75,132.42 319.73,131.65 C319.19,132.27 318.73,132.81 318.26,133.37 C317.79,133.93 317.39,134.51 316.93,135.06 C315.42,136.87 314.32,136.87 313.28,134.84 C310.907772,130.497415 308.755062,126.03847 306.83,121.48 C306.34,120.23 305.93,119.53 304.51,120.01 C304.14,120.13 303.71,120.08 303.32,120.17 C299.55,120.98 295.76,121.78 293.32,125.26 C292.226667,126.84 291.146667,128.426667 290.08,130.02 C287.6,133.73 286.69,137.88 286.62,142.73 C289.306069,141.931374 292.141998,141.773823 294.9,142.27 C295.321484,142.394935 295.776826,142.323302 296.139593,142.074991 C296.502359,141.82668 296.733928,141.428128 296.77,140.99 C297.05,139.91 297.36,138.83 297.68,137.76 C297.772565,137.174835 298.311939,136.768094 298.9,136.84 C299.220283,136.867343 299.513379,137.030984 299.704714,137.289286 C299.896049,137.547588 299.967177,137.875649 299.9,138.19 C299.774301,139.05639 299.583766,139.912125 299.33,140.75 C298.15,145.35 295.92,149.53 294.08,153.87 C293.317882,155.714265 292.907491,157.684823 292.87,159.68 C292.846343,163.578939 293.758544,167.42664 295.53,170.9 C296.38,170.9 297.33,170.9 298.28,170.9 C300.14441,170.777568 301.979427,171.412073 303.37,172.66 C306.030228,174.943126 308.818056,177.073226 311.72,179.04 C313.423863,180.365313 315.572094,180.984719 317.72,180.77 C319.31,180.59 320.9,180.45 322.48,180.22 C327.95,179.43 333.48,179.01 338.96,178.75 C342.39,178.58 345.83,178.75 349.27,178.39 C351.27,178.19 351.03,178.04 350.91,176.39 C350.82,175.12 350.65,173.84 350.61,172.57 C350.39,166.49 350.31,160.42 350.49,154.34 C350.49,153.55 350.98,152.56 349.82,152.05 C349.548747,151.953263 349.327941,151.751268 349.207496,151.489678 C349.087052,151.228088 349.07714,150.928991 349.18,150.66 C349.410227,150.028599 350.075311,149.668167 350.73,149.82 C351.73,149.89 352.8,150 353.84,150.08 C357.268752,150.460035 360.738824,150.028417 363.97,148.82 C364.986867,148.520585 365.640965,147.533107 365.52,146.48 C365.37069,141.279679 364.492117,136.126061 362.91,131.17 C362.733338,130.636575 362.480743,130.131385 362.16,129.67 C359.21,125.04 354.8,122.48 349.64,121.07 C348.192907,120.64382 346.634207,120.831876 345.33,121.59 Z" id="Shape" fill="#FFFFFF"></path>
            <path d="M361,199 C360.68,196.54 360.83,197 358.47,196.87 C355.74,196.71 353.07,197.43 350.35,197.42 C343.635876,197.496876 336.923338,197.162919 330.25,196.42 C322.40602,195.405475 314.516124,194.784696 306.61,194.56 C305.4,194.56 304.06,194.56 303.14,193.82 C301.29,192.3 299.21,192.29 297.04,192.36 C296.04,192.36 294.97,192.29 293.93,192.24 C292.08,192.15 291.99,192.14 291.87,193.9 C291.65,197.17 291.4,200.45 291.46,203.71 C291.426964,206.188932 291.553894,208.667412 291.84,211.13 C291.917301,212.772516 293.091924,214.156599 294.7,214.5 C298.62,215.58 302.52,216.77 306.62,217.04 C311.56,217.38 316.52,217.62 321.44,218.14 C325.553277,218.556156 329.685789,218.753102 333.82,218.73 C343.92,219.41 353.54,216.36 361.08,214.92 C362.08,214.73 362.79,214.46 362.62,213.09 C362,208.36 361.6,203.65 361,199 Z" id="Shape" fill="#FFFFFF"></path>
            <path d="M366.18,168.65 C365.62,163.65 364.37,158.73 364.54,153.65 C364.530726,153.250349 364.487233,152.852227 364.41,152.46 C364.3,151.7 364.01,151.35 363.13,151.64 C360.370217,152.481549 357.472853,152.777059 354.6,152.51 C353.27,152.43 353.01,152.86 353,154.08 C352.759941,161.34902 352.900133,168.625621 353.42,175.88 C353.6,177.88 353.55,177.88 355.65,177.97 L355.89,177.97 C356.473124,177.898422 357.016442,178.277881 357.15,178.85 C357.216785,179.1722 357.147178,179.507672 356.957719,179.776704 C356.76826,180.045736 356.475861,180.224312 356.15,180.27 C355.532305,180.433 354.898422,180.526908 354.26,180.55 C350.26,180.75 346.26,181.08 342.26,181.07 C336.664767,181.144896 331.078644,181.545575 325.53,182.27 C322.76,182.59 319.99,183.02 317.2,183.22 C315.29,183.36 313.35,183.3 311.72,181.99 C308.63,179.51 304.88,177.88 302.25,174.78 C302.077795,174.614487 301.88644,174.470132 301.68,174.35 C300.423929,173.357243 298.759497,173.046798 297.23,173.52 C297.76,174.1 298.18,174.52 298.58,175.01 C298.98,175.5 299.43,176.01 299.82,176.47 C301.14,178.17 300.96,178.55 299.09,179.4 C297.22,180.25 295.01,179.88 293.01,180.4 C292.24,180.58 291.33,180.51 291.08,181.5 C290.857022,182.469062 291.254731,183.475265 292.08,184.03 C292.538617,184.478444 293.119677,184.781152 293.75,184.9 C296.681187,185.41487 299.321463,186.987649 301.17,189.32 C302.804998,191.224006 305.211286,192.289386 307.72,192.22 C311.79,192.3 315.87,192.45 319.93,192.84 C326.38,193.46 332.78,194.48 339.25,194.75 C343.640663,195.039932 348.043879,195.090007 352.44,194.9 C354.44,194.77 356.44,194.27 358.44,194.46 C360.678714,194.609442 362.925407,194.331151 365.06,193.64 C367.06,193.05 367.55,192.57 367.56,190.46 C367.52232,183.169425 367.061545,175.887181 366.18,168.65 Z" id="Shape" fill="#FFFFFF"></path>
            <path d="M295.52,189.79 C296.21209,189.91159 296.924225,189.842451 297.58,189.59 C296.553159,188.300163 295.050046,187.478317 293.41,187.31 C291.99728,186.990896 290.722568,186.230971 289.77,185.14 C288.575192,183.892297 288.188038,182.076545 288.77,180.45 C289.23,178.93 290.57,178.31 292.07,178.02 C293.888159,177.717989 295.727011,177.557507 297.57,177.54 C295.28,175.23 293.82,172.85 292.02,170.74 C290.323653,168.635498 287.719146,167.474632 285.02,167.62 C278.340272,167.814433 271.654896,167.607394 265,167 C263.65,166.88 262.29,166.89 260.93,166.89 C259.82,166.89 259.54,167.44 260.16,168.41 C260.69583,169.195789 261.374211,169.87417 262.16,170.41 C265.34,172.7 268.3,175.27 271.33,177.74 C275.17,180.87 279.13,183.85 283.05,186.88 C285.371559,188.899551 288.400401,189.913961 291.47,189.7 C292.820651,189.660884 294.17242,189.690923 295.52,189.79 Z" id="Shape" fill="#FFFFFF"></path>
            <path d="M267.66,98.49 C267.66,103.763333 267.66,109.04 267.66,114.32 C267.66,116.22 267.66,116.24 269.72,116.25 C273.88,116.25 278.04,116.25 282.2,116.25 C285.65,116.25 285.65,116.25 285.74,112.88 C285.246516,112.268073 284.674985,111.723438 284.04,111.26 C280.460169,108.526929 277.934386,104.64111 276.89,100.26 C276.58,99.03 276.41,97.76 276.17,96.51 C274.01,96.51 271.85,96.51 269.69,96.51 C267.7,96.56 267.66,96.57 267.66,98.49 Z" id="Shape" fill="#FFFFFF"></path>
            <path d="M269.22,73.27 C268.14,73.27 267.63,73.59 267.64,74.77 C267.64,80.77 267.64,86.7466667 267.64,92.7 C267.64,93.7 267.99,94.13 269.03,94.11 C271.34,94.11 273.65,94.11 275.96,94.11 C275.85,90.52 275.88,86.93 275.61,83.36 C275.419336,79.9323425 274.797779,76.5423391 273.76,73.27 C272.25,73.26 270.73,73.31 269.22,73.27 Z" id="Shape" fill="#FFFFFF"></path>
            <path d="M263.9,47.87 C264.77,47.87 265.26,47.6 265.21,46.63 C265.224049,46.2339899 265.267502,45.8395709 265.34,45.45 L265,40 C259.73,40 254.45,40 249.17,40 C247.44,40 247.41,40.05 247.38,41.73 C247.35,43.41 247.38,44.93 247.38,46.52 C247.38,47.57 247.82,47.92 248.82,47.92 C253.82,47.85 258.86,47.86 263.9,47.87 Z" id="Shape" fill="#FFFFFF"></path>
            <path d="M295.43,144.73 C293.400722,144.395613 291.33607,144.331723 289.29,144.54 C286.82,144.92 286.54,145.13 286.29,147.68 C285.88,152.05 285.56,156.42 285.29,160.8 C285.21,162.21 284.68,163.61 285.06,165.15 C287.207374,165.170331 289.322764,165.672693 291.25,166.62 C290.57,162.77 290.07,159.13 291.02,155.51 C291.97,151.89 294,148.64 295.43,144.73 Z" id="Shape" fill="#FFFFFF"></path>
            <path d="M325.75,132.67 C328.414026,129.465622 331.557895,126.69281 335.07,124.45 C337.67,122.72 340.52,121.45 343.24,119.94 C343.76,119.65 344.52,119.6 344.65,118.84 C341.72,117.13 338.92,117.4 336.1,119.2 C332.580958,121.409041 329.204296,123.837165 325.99,126.47 C324.76306,127.630379 323.25255,128.44771 321.61,128.84 C322.015326,130.204149 322.662253,131.484455 323.52,132.62 C324.52,134 324.65,134 325.75,132.67 Z" id="Shape" fill="#FFFFFF"></path>
            <path d="M288.3,128 C289.233333,126.706667 290.166667,125.42 291.1,124.14 C292.80874,121.59859 295.352085,119.734413 298.29,118.87 C300.03147,118.300829 301.817783,117.879339 303.63,117.61 C304.56,117.51 304.92,117.07 304.77,116.2 C304.62,115.33 303.77,115.58 303.22,115.57 C298.117077,115.643839 293.02665,115.04536 288.08,113.79 C288.08,114.73 288.08,115.68 288.15,116.63 C288.23,120.45 288,124.24 288.3,128 Z" id="Shape" fill="#FFFFFF"></path>
            <path d="M318.79,347.05 C318.105966,346.799235 317.34042,347.072645 316.97,347.7 C316.268309,348.595217 315.339378,349.285872 314.28,349.7 C315.41,350.59 316.47,351.43 317.52,352.28 C318.58426,353.150037 319.981849,353.498517 321.33,353.23 C322.433176,353.079309 323.527935,352.872373 324.61,352.61 C327.39,351.86 329.04,350.53 327.74,347 C324.816144,347.82616 321.722904,347.843441 318.79,347.05 Z" id="Shape" fill="#FFFFFF"></path>
            <path d="M309.24,121 C310.52,123.83 311.89,126.63 313.24,129.42 C313.82,130.62 314.49,131.78 315.24,133.14 L318.73,128.94 C319.11,128.48 319.37,128.13 318.82,127.53 C316.68,125.16 314.6,122.73 312.52,120.31 C311.945173,119.620387 311.04253,119.295283 310.16,119.46 C309,119.59 308.73,119.86 309.24,121 Z" id="Shape" fill="#FFFFFF"></path>
            <path d="M267.63,69 C267.63,70.18 267.96,70.77 269.23,70.69 C270.5,70.61 271.77,70.64 273.04,70.63 C271.84,65.21 269.46,60.2 267.69,54.98 C267.67,59.66 267.69,64.33 267.63,69 Z" id="Shape" fill="#FFFFFF"></path>
            <path d="M348.36,345.24 C345.256653,346.144946 341.989988,346.343133 338.8,345.82 C338.589243,346.590537 338.694504,347.413311 339.092456,348.105974 C339.490409,348.798636 340.148183,349.303977 340.92,349.51 C341.81,349.84 342.71,350.17 343.57,350.57 C344.423946,351.076769 345.517015,350.909248 346.18,350.17 C347.42002,349.059495 348.78207,348.093312 350.24,347.29 C349.88,346.66 349.58,346.19 349.33,345.7 C349.184477,345.309389 348.754544,345.105503 348.36,345.24 Z" id="Shape" fill="#FFFFFF"></path>
            <path d="M278.78,158.74 C278.134289,158.244152 277.247677,158.204214 276.56,158.64 C275.95,158.94 275.44,159.36 275.56,160.1 C275.89,161.79 275.9,163.75 277.25,164.92 C278.25,165.79 279.81,165.3 281.13,165.12 C281.240866,165.078307 281.345243,165.021068 281.44,164.95 C280.91,163.41 280.44,161.84 279.83,160.29 C279.625886,159.688246 279.263127,159.152745 278.78,158.74 Z" id="Shape" fill="#FFFFFF"></path>
            <path d="M307.8,115.61 C307.35,115.61 307.15,116.01 307.23,116.46 C307.31,116.91 307.52,117.06 307.88,116.97 C309.34,116.58 310.95,116.69 312.48,115.6 C310.73,115.6 309.26,115.57 307.8,115.61 Z" id="Shape" fill="#FFFFFF"></path>
            <path d="M273.55,164 C273.260838,164.129268 273.057349,164.396818 273.01,164.71 C273.01,165.22 273.42,165.06 273.67,165.09 C273.92,165.12 274.26,164.99 274.13,164.58 C274.062134,164.292413 273.837587,164.067866 273.55,164 Z" id="Shape" fill="#FFFFFF"></path>
            <path d="M23.3,149.54 C24.09,149.62 24.85,149.94 25.63,150.07 C28.08,150.46 30.44,151.42 32.94,151.33 C35.5050699,151.262693 38.062538,151.638194 40.5,152.44 C44.5,153.73 48.5,153.22 52.58,152.78 C56.0650623,152.286144 59.4811716,151.390171 62.76,150.11 C65.43,149.17 68.26,148.2 70.13,145.82 C73.0637176,142.10556 75.1153359,137.773226 76.13,133.15 C77.96,124.81 77.76,116.29 77.76,107.83 C77.76,101.67 77.54,95.51 77.54,89.35 C77.4304816,87.5038216 77.7310042,85.6562906 78.42,83.94 C79.28,82.1 79.69,80.51 78.1,78.85 C77.7556329,78.3095555 77.5274655,77.7033794 77.43,77.07 C76.25,73.54 76.55,69.94 77.12,66.39 C77.5283581,64.3145993 78.7028828,62.4689177 80.41,61.22 C83.1188173,59.3594548 86.7267473,59.4935333 89.29,61.55 C90.6028401,62.8346504 91.6732972,64.3454855 92.45,66.01 C93.1372923,67.5514886 94.1626128,68.9185826 95.45,70.01 C95.7020599,70.2609641 96.0553256,70.3824138 96.4084194,70.3394963 C96.7615133,70.2965788 97.075399,70.0940389 97.26,69.79 C98.71,68.22 99.13,66.26 99.51,64.32 C100.660494,57.8632015 101.309101,51.3269834 101.45,44.77 C101.64317,41.8915603 101.485343,39.0003095 100.98,36.16 C100.445988,33.6598886 100.144701,31.1156876 100.08,28.56 C100.121135,27.6786083 99.9851208,26.7979159 99.68,25.97 C97.6432018,21.0645598 94.4242017,16.7393504 90.31,13.38 C86.7034122,10.5906481 82.6900049,8.37146996 78.41,6.8 C69.7345992,3.3990235 60.3393228,2.24998568 51.1,3.46 C42.4944702,4.49698624 34.4230538,8.17978832 28,14 C22.72,18.77 19.36,24.79 16.58,31.24 C13.58,38.31 12.98,45.77 12.73,53.3 C12.5,60.4 13.43,67.49 12.34,74.62 C11.4174638,80.5259959 9.56091294,86.2475481 6.84,91.57 C5.87317445,93.490855 5.09293087,95.5000659 4.51,97.57 C3.29446448,102.135904 2.70242539,106.845305 2.75,111.57 C2.68149602,115.169621 2.83846986,118.77 3.22,122.35 C4.11,130.62 6.98,137.93 13.1,143.87 C16,146.75 19.06,149.13 23.3,149.54 Z" id="Shape" fill="#FFFFFF"></path>
            <path d="M111.25,237.88 C107.72,226.19 103.83,214.61 100.1,202.97 C99.89,202.3 99.77,201.58 99.04,201.18 C96.04,203.09 92.61,203.48 89.23,204.02 C84.17,204.82 79.07,205.2 73.98,205.77 C68.9038516,206.416209 63.7797938,206.603634 58.67,206.33 C51.89,205.87 45.14,205.04 38.44,203.91 C35.7345564,203.573197 33.1009107,202.803363 30.64,201.63 C30.41,202.71 30.23,203.71 29.99,204.7 C27.9411887,213.002822 26.4379762,221.430834 25.49,229.93 C24.7804168,236.606579 23.5466094,243.216978 21.8,249.7 C20.21,255.7 19.51,261.95 18.41,268.08 C18.0680045,269.837553 18.7543355,271.636748 20.18,272.72 C22.3788086,274.595904 25.0179351,275.882779 27.85,276.46 C30.78,277.21 33.85,277.58 36.63,278.78 C40.34751,280.254659 44.28476,281.099563 48.28,281.28 C54.58,281.74 60.85,282.46 67.18,282.37 C72.13,282.3 77.08,283.19 82.02,282.22 C85.4,281.56 88.87,282.08 92.27,281.31 C99.99,279.55 107.67,277.81 114.62,273.73 C116.727807,272.667419 118.069278,270.520293 118.1,268.16 C118.166417,266.000682 117.992007,263.840687 117.58,261.72 C116.11,253.61 113.62,245.75 111.25,237.88 Z" id="Shape" fill="#FFFFFF"></path>
            <path d="M87.43,284.3 C85.1879902,284.256008 82.9471157,284.433536 80.74,284.83 C78.6044803,285.136267 76.4432422,285.223387 74.29,285.09 C69.58,284.82 69.62,284.82 70.04,289.66 C70.5,295.066667 70.91,300.483333 71.27,305.91 C71.56,310.22 71.66,314.54 72,318.84 C72.49,324.98 72.8,331.13 72.81,337.29 C72.81,341.21 72.93,345.12 73.29,349.03 C73.35,349.7 73.23,350.59 74.36,350.5 C77.1750686,350.33748 79.9789416,350.971731 82.45,352.33 C85.21,353.72 87.51,352.92 89.79,351.4 C90.43,350.97 91.52,350.89 91.54,349.95 C91.56,349.01 90.38,348.83 89.68,348.38 C89.5398291,348.321358 89.3962325,348.271266 89.25,348.23 C89.11,348.49 88.99,348.69 88.88,348.9 C88.59,349.51 88.21,350.1 87.46,349.9 C86.71,349.7 86.46,348.9 86.46,348.18 C86.46,347.18 86.46,346.1 86.57,345.07 C86.89,340.68 87.29,336.3 87.57,331.92 C87.8234609,326.32925 88.3641745,320.755227 89.19,315.22 C90.76,305.93 92.36,296.64 93.68,287.3 C93.9949398,286.069837 93.9949398,284.780163 93.68,283.55 C91.55,283.8 89.53,284.4 87.43,284.3 Z" id="Shape" fill="#FFFFFF"></path>
            <path d="M60.11,284.71 C56.92,284.5 53.74,284.11 50.56,283.92 C46.6995271,283.667636 42.8606765,283.153117 39.07,282.38 C38.7527235,282.904796 38.693749,283.546144 38.91,284.12 C39.33,286.72 39.73,289.33 40.16,291.93 C41.61,300.69 42.16,309.54 42.97,318.38 C43.66,326.26 43.79,334.2 44.97,342.03 C45.3746437,344.877664 45.2080702,347.777403 44.48,350.56 C44.27,351.37 43.69,352.16 44.12,353.08 C48.37,352.08 48.92,352.08 53.51,353.24 C55.165215,353.730083 56.883803,353.972707 58.61,353.96 C58.9118926,353.450893 58.9948594,352.841268 58.84,352.27 C58.5018305,350.287564 58.3245858,348.28102 58.31,346.27 C58.91,337.81 59.2,329.34 59.52,320.88 C59.85,312.01 60.36,303.16 61.13,294.32 C61.4033574,291.535574 61.4868837,288.73577 61.38,285.94 C61.31,285.05 61,284.78 60.11,284.71 Z" id="Shape" fill="#FFFFFF"></path>
            <path d="M102.82,59.32 C102.553639,62.2666208 101.973691,65.1764186 101.09,68 C100.650455,69.3728931 99.8693621,70.6116303 98.82,71.6 C97.11,73.25 96.21,73.34 94.19,72.04 C92.5696041,70.8552244 91.2843855,69.2702362 90.46,67.44 C89.7477932,66.1030848 88.8855647,64.8516793 87.89,63.71 C87.3152549,63.0425737 86.5207285,62.6027466 85.65,62.47 C82.43,61.83 80.43,63.53 79.58,66.84 C78.688409,70.1911119 78.8348632,73.7339103 80,77 C80.7100073,79.0622928 82.4407175,80.6074345 84.57,81.08 C85.06,80.27 84.73,79.39 85.19,78.69 C85.3811377,78.2829543 85.7903114,78.0230517 86.24,78.0230517 C86.6896886,78.0230517 87.0988623,78.2829543 87.29,78.69 C88.09,80.13 88.8666667,81.5766667 89.62,83.03 C90.4585045,84.5419793 90.2796348,86.4141487 89.17,87.74 C87.8745573,88.9753486 85.9879308,89.3635434 84.31,88.74 C82.31,87.92 81.64,86.48 82.15,83.84 C82.23,83.46 82.51,83.04 81.98,82.84 C81.45,82.64 81.32,83.15 81.16,83.47 C80.5231377,84.8507675 80.1824933,86.3496032 80.16,87.87 C79.93,94.82 80.03,101.77 80.41,108.72 C80.41,109.51 80.7,109.82 81.53,109.86 C86.341814,109.987469 91.0884554,111.004607 95.53,112.86 C96.05,113.09 96.53,113.38 97.12,113.05 C98.2844943,112.519291 99.3445547,111.784361 100.25,110.88 C102.219273,108.562939 103.686818,105.862792 104.56,102.95 C106.057525,97.1276765 106.440923,91.074742 105.69,85.11 C104.975403,78.9065841 105.153885,72.6327569 106.22,66.48 C108.34424,55.8517202 107.696799,44.8555629 104.34,34.55 C104.188775,33.6797423 103.731205,32.8922966 103.05,32.33 C103.16,34.33 103.19,36.18 103.44,38.01 C103.984659,41.1622033 104.165844,44.3664908 103.98,47.56 C103.52,51.52 103.21,55.42 102.82,59.32 Z" id="Shape" fill="#FFFFFF"></path>
            <path d="M26.77,181.77 C25.6314374,176.952366 25.0476434,172.020314 25.03,167.07 C25.03,165.07 24.82,162.97 24.7,161.01 C23.9,160.69 23.43,161.11 22.95,161.34 C19.7766667,162.826667 16.61,164.333333 13.45,165.86 C12.5752583,166.247702 11.7630402,166.763343 11.04,167.39 C10.4645618,167.841535 10.226138,168.600517 10.44,169.3 C11.3,172.94 11.94,176.65 12.96,180.24 C15.23,188.3 17.65,196.31 20.07,204.33 C20.88,207 21.8,209.63 22.8,212.24 C23.19,213.24 23.52,214.57 25.05,214.69 C25.1680088,214.464803 25.2683117,214.230763 25.35,213.99 C26.79,209.25 27.35,204.31 28.65,199.54 C28.7390786,199.149757 28.6932521,198.740844 28.52,198.38 C28.1387299,197.083183 27.9997416,195.727199 28.11,194.38 C28.1925138,190.137165 27.7423308,185.900742 26.77,181.77 Z" id="Shape" fill="#FFFFFF"></path>
            <path d="M22,216 C20.9119066,214.070184 20.0271614,212.032589 19.36,209.92 C17.65,204.26 16.02,198.58 14.19,192.92 C11.64,185.09 9.72,177.1 7.9,169.08 C7.57723131,168.0785 7.87516113,166.980864 8.66,166.28 C9.98990831,165.017296 11.5340005,164.001446 13.22,163.28 C16.62,161.69 20.01,160.08 23.42,158.51 C23.98,158.25 24.52,158.01 24.22,157.32 C23.92,156.63 23.28,157.04 22.8,157.21 C19.6199509,158.284351 16.4989281,159.526084 13.45,160.93 C11.4928462,161.830633 9.583625,162.831972 7.73,163.93 C5.92,165.01 4.73,166.5 5.16,168.86 C6.19106671,174.264382 7.52652637,179.60622 9.16,184.86 C11.26,191.4 12.74,198.11 14.85,204.65 C15.7503683,207.459768 16.8223847,210.211611 18.06,212.89 C18.659305,214.602866 20.1947838,215.814881 22,216 Z" id="Shape" fill="#FFFFFF"></path>
            <path d="M110.51,153.18 C111.32,153.3 111.39,152.67 111.51,152.18 C112.055592,149.604584 112.264005,146.96916 112.13,144.34 C112.043573,142.592084 111.572361,140.884798 110.75,139.34 C110.270016,138.292242 109.232256,137.612062 108.08,137.59 C108.43,142.59 109.6,147.35 109.73,152.21 C109.688464,152.689987 110.032283,153.117556 110.51,153.18 Z" id="Shape" fill="#FFFFFF"></path>
            <path d="M87.63,85.16 C87.6883173,84.8033064 87.5881055,84.4389213 87.3555919,84.1622109 C87.1230783,83.8855006 86.7814072,83.7240084 86.42,83.72 C85.4428209,83.661646 84.5583587,84.2957887 84.3,85.24 C84.315481,85.6362705 84.4893481,86.0097506 84.7826179,86.2767014 C85.0758878,86.5436522 85.4640235,86.6817386 85.86,86.66 C86.2948509,86.7015048 86.7280345,86.5656381 87.061288,86.2832199 C87.3945415,86.0008016 87.5996187,85.5957694 87.63,85.16 Z" id="Shape" fill="#FFFFFF"></path>
            <path d="M181.58,73.27 C175.75,73.27 169.92,73.27 164.09,73.27 C162.75,73.27 162.51,73.9 162.53,75.03 C162.53,77.91 162.53,80.78 162.53,83.66 C162.53,86.54 162.53,89.57 162.53,92.52 C162.53,93.59 162.79,94.13 163.99,94.12 C169.9,94.12 175.81,94.12 181.72,94.12 C182.72,94.12 183.15,93.81 183.15,92.75 C183.15,86.75 183.15,80.75 183.15,74.75 C183.16,73.59 182.66,73.27 181.58,73.27 Z" id="Shape" fill="#FFFFFF"></path>
            <path d="M164.22,116.27 C169.96,116.23 175.706667,116.23 181.46,116.27 C182.63,116.27 183.17,115.98 183.16,114.67 C183.1,109.16 183.16,103.67 183.16,98.15 C183.16,96.9 182.72,96.49 181.49,96.52 C178.62,96.58 175.75,96.52 172.87,96.52 C169.99,96.52 167.13,96.52 164.25,96.52 C163.07,96.52 162.52,96.84 162.53,98.13 C162.53,103.64 162.53,109.13 162.53,114.65 C162.51,116 163,116.28 164.22,116.27 Z" id="Shape" fill="#FFFFFF"></path>
            <path d="M244.9,83.86 C244.9,80.91 244.9,77.95 244.9,75 C244.9,73.83 244.61,73.25 243.3,73.27 C238.19,73.27 233.08,73.27 227.98,73.27 C226.73,73.27 226.32,73.72 226.33,74.95 C226.33,80.77 226.33,86.6 226.33,92.42 C226.33,93.6 226.63,94.14 227.93,94.12 C233.03,94.0733333 238.136667,94.0733333 243.25,94.12 C244.49,94.12 244.93,93.72 244.9,92.47 C244.86,89.6 244.9,86.73 244.9,83.86 Z" id="Shape" fill="#FFFFFF"></path>
            <path d="M226.37,60.44 C226.37,63.31 226.37,66.18 226.37,69.06 C226.37,70.06 226.57,70.71 227.8,70.7 C233.07,70.7 238.34,70.7 243.61,70.7 C244.5,70.7 244.91,70.35 244.91,69.42 C244.91,63.52 244.91,57.61 244.91,51.7 C244.91,50.7 244.48,50.31 243.48,50.31 C238.293333,50.31 233.1,50.31 227.9,50.31 C226.8,50.31 226.33,50.65 226.35,51.82 C226.41,54.69 226.37,57.56 226.37,60.44 Z" id="Shape" fill="#FFFFFF"></path>
            <path d="M227.89,116.27 C233,116.27 238.12,116.22 243.24,116.27 C244.48,116.27 244.95,115.89 244.92,114.62 C244.85,111.91 244.92,109.19 244.92,106.47 C244.92,103.75 244.92,100.87 244.92,98.07 C244.92,96.95 244.51,96.51 243.37,96.52 C238.17,96.52 232.97,96.52 227.77,96.52 C226.77,96.52 226.36,96.91 226.37,97.93 C226.37,103.53 226.37,109.13 226.37,114.73 C226.35,115.87 226.75,116.28 227.89,116.27 Z" id="Shape" fill="#FFFFFF"></path>
            <path d="M207.38,70.71 C212.413333,70.6633333 217.443333,70.6633333 222.47,70.71 C223.64,70.71 223.96,70.22 223.95,69.13 C223.95,63.3833333 223.95,57.6333333 223.95,51.88 C223.95,50.8 223.66,50.29 222.47,50.3 C217.443333,50.3466667 212.413333,50.3466667 207.38,50.3 C206.11,50.3 205.73,50.78 205.76,51.99 C205.82,54.79 205.76,57.58 205.76,60.38 C205.76,63.18 205.76,66.13 205.76,69 C205.74,70.19 206.09,70.72 207.38,70.71 Z" id="Shape" fill="#FFFFFF"></path>
            <path d="M248.89,94.12 C253.89,94.12 258.8,94.07 263.75,94.12 C264.95,94.12 265.25,93.64 265.23,92.55 C265.23,89.67 265.23,86.79 265.23,83.92 C265.23,80.92 265.23,77.84 265.23,74.8 C265.23,73.65 264.81,73.26 263.69,73.27 C258.73,73.31 253.773333,73.31 248.82,73.27 C247.64,73.27 247.33,73.79 247.34,74.87 C247.34,80.78 247.34,86.7 247.34,92.61 C247.33,93.76 247.77,94.13 248.89,94.12 Z" id="Shape" fill="#FFFFFF"></path>
            <path d="M187.15,94.12 C192.03,94.07 196.9,94.06 201.78,94.12 C203.14,94.12 203.35,93.51 203.34,92.38 C203.34,89.5 203.34,86.62 203.34,83.74 C203.34,80.86 203.34,77.99 203.34,75.11 C203.34,73.35 203.34,73.3 201.66,73.29 C196.86,73.29 192.07,73.29 187.27,73.29 C186.07,73.29 185.57,73.65 185.58,74.93 C185.63,80.77 185.58,86.6 185.58,92.44 C185.54,93.6 185.85,94.14 187.15,94.12 Z" id="Shape" fill="#FFFFFF"></path>
            <path d="M207.35,116.27 C212.35,116.22 217.43,116.27 222.47,116.27 C223.65,116.27 223.97,115.78 223.95,114.69 C223.9,111.97 223.95,109.25 223.95,106.54 C223.95,103.83 223.9,100.94 223.95,98.14 C223.95,96.86 223.47,96.5 222.26,96.52 C217.3,96.5666667 212.343333,96.5666667 207.39,96.52 C206.1,96.52 205.74,97.04 205.75,98.23 C205.79,103.67 205.79,109.106667 205.75,114.54 C205.75,115.71 206,116.29 207.35,116.27 Z" id="Shape" fill="#FFFFFF"></path>
            <path d="M247.35,60.3 C247.35,63.17 247.35,66.04 247.35,68.91 C247.35,70.62 247.41,70.67 249.08,70.68 C253.866667,70.68 258.653333,70.68 263.44,70.68 C265.14,70.68 265.19,70.63 265.2,68.94 C265.2,63.28 265.2,57.62 265.2,51.94 C265.2,50.71 264.82,50.26 263.57,50.27 C258.696667,50.3166667 253.83,50.3166667 248.97,50.27 C247.76,50.27 247.27,50.64 247.3,51.9 C247.4,54.71 247.35,57.51 247.35,60.3 Z" id="Shape" fill="#FFFFFF"></path>
            <path d="M160.09,75.13 C160.09,73.34 160.09,73.3 158.18,73.29 C153.626667,73.29 149.073333,73.29 144.52,73.29 C142.78,73.29 142.73,73.34 142.72,75 C142.72,80.7533333 142.72,86.5033333 142.72,92.25 C142.72,94.01 142.77,94.07 144.42,94.08 C149.13,94.08 153.85,94.08 158.56,94.08 C159.92,94.08 160.13,93.47 160.12,92.34 C160.07,89.34 160.12,86.43 160.12,83.47 C160.1,80.72 160.12,77.93 160.09,75.13 Z" id="Shape" fill="#FFFFFF"></path>
            <path d="M144.32,70.71 C149.02,70.66 153.73,70.71 158.44,70.71 C160.05,70.71 160.08,70.64 160.09,68.87 C160.09,66.16 160.09,63.45 160.09,60.74 C160.09,57.86 160.09,54.99 160.09,52.12 C160.09,50.41 160.09,50.36 158.38,50.35 C153.753333,50.35 149.126667,50.35 144.5,50.35 C142.78,50.35 142.73,50.4 142.72,52.06 C142.72,57.72 142.72,63.39 142.72,69.06 C142.69,70.22 143,70.73 144.32,70.71 Z" id="Shape" fill="#FFFFFF"></path>
            <path d="M207.62,136 C210.01,136 212.41,136 214.8,136 C217.19,136 219.8,136 222.22,136 C223.37,136 223.98,135.77 223.96,134.42 C223.89,129.71 223.96,125 223.96,120.29 C223.96,119.23 223.71,118.68 222.5,118.69 C217.466667,118.736667 212.436667,118.736667 207.41,118.69 C206.14,118.69 205.76,119.2 205.77,120.41 C205.77,125.04 205.77,129.67 205.77,134.3 C205.79,135.92 205.85,136 207.62,136 Z" id="Shape" fill="#FFFFFF"></path>
            <path d="M249.11,136 C254.216667,136 259.33,136 264.45,136 C264.844162,135.965686 265.235235,135.902178 265.62,135.81 C265.277893,134.332534 265.143266,132.814614 265.22,131.3 C265.22,127.7 265.22,124.1 265.22,120.51 C265.22,118.82 265.15,118.76 263.43,118.75 C258.636667,118.75 253.843333,118.75 249.05,118.75 C247.42,118.75 247.38,118.81 247.37,120.58 C247.37,125.126667 247.37,129.68 247.37,134.24 C247.38,135.91 247.42,136 249.11,136 Z" id="Shape" fill="#FFFFFF"></path>
            <path d="M144.12,136 C146.51,136 148.9,136 151.29,136 C153.68,136 156.24,136 158.71,136 C159.71,136 160.14,135.69 160.13,134.63 C160.09,129.836667 160.09,125.05 160.13,120.27 C160.13,119.15 159.72,118.7 158.59,118.71 C153.716667,118.71 148.85,118.71 143.99,118.71 C143.07,118.71 142.72,119.11 142.72,120 C142.72,124.87 142.72,129.74 142.72,134.6 C142.71,135.59 143.09,136 144.12,136 Z" id="Shape" fill="#FFFFFF"></path>
            <path d="M162.85,47.44 C163.85,48.55 165.73,47.82 167.21,47.85 C171.93,47.91 176.65,47.85 181.37,47.85 C183.08,47.85 183.1,47.85 183.13,46.11 C183.13,44.59 183.07,43.11 183.13,41.55 C183.2,40.27 182.67,39.9 181.45,39.92 C178.57,39.98 175.69,39.92 172.82,39.92 C170.5,39.92 168.18,39.92 165.82,39.92 C162.04,39.92 162.5,39.45 162.5,43.22 C162.56,44.68 162,46.47 162.85,47.44 Z" id="Shape" fill="#FFFFFF"></path>
            <path d="M227.79,47.88 C230.34,47.88 232.9,47.88 235.45,47.88 C238,47.88 240.71,47.88 243.34,47.88 C244.45,47.88 244.95,47.49 244.91,46.35 C244.91,44.75 244.91,43.16 244.91,41.56 C244.91,40.5 244.61,39.93 243.42,39.94 C238.16,39.94 232.9,39.94 227.64,39.94 C226.73,39.94 226.35,40.32 226.37,41.23 C226.37,42.98 226.37,44.74 226.37,46.49 C226.33,47.55 226.8,47.89 227.79,47.88 Z" id="Shape" fill="#FFFFFF"></path>
            <path d="M222.24,39.94 C219.76,39.99 217.29,39.94 214.82,39.94 C212.35,39.94 209.87,39.99 207.4,39.94 C206.13,39.94 205.71,40.39 205.76,41.61 C205.83,43.21 205.82,44.81 205.76,46.4 C205.76,47.58 206.31,47.89 207.37,47.89 C212.37,47.89 217.42,47.89 222.45,47.89 C223.64,47.89 223.97,47.4 223.94,46.31 C223.88,44.72 223.86,43.12 223.94,41.52 C224,40.21 223.4,39.91 222.24,39.94 Z" id="Shape" fill="#FFFFFF"></path>
            <path d="M187,47.88 C189.39,47.88 191.78,47.88 194.17,47.88 C196.72,47.88 199.27,47.88 201.82,47.88 C202.99,47.88 203.37,47.43 203.33,46.32 C203.33,44.65 203.33,42.98 203.33,41.32 C203.33,40.49 203.11,39.96 202.13,39.96 C197.03,39.96 191.93,39.96 186.83,39.96 C185.91,39.96 185.55,40.35 185.57,41.25 C185.57,43.01 185.57,44.76 185.57,46.51 C185.53,47.56 186,47.89 187,47.88 Z" id="Shape" fill="#FFFFFF"></path>
            <path d="M158.65,39.94 C153.79,39.94 148.93,39.94 144.07,39.94 C143.07,39.94 142.68,40.41 142.7,41.39 C142.7,42.98 142.7,44.58 142.7,46.17 C142.7,47.76 142.76,47.84 144.5,47.86 C146.81,47.86 149.13,47.86 151.44,47.86 C153.75,47.86 156.22,47.86 158.61,47.86 C159.61,47.86 160.12,47.62 160.09,46.53 C160.04,44.78 160.04,43.02 160.09,41.27 C160.14,40.22 159.62,39.94 158.65,39.94 Z" id="Shape" fill="#FFFFFF"></path>
            <path d="M288.15,116.66 C288.15,115.71 288.15,114.76 288.08,113.82 C287.412102,113.278777 286.596701,112.951223 285.74,112.88 C285.65,116.25 285.65,116.25 282.2,116.25 C278.04,116.25 273.88,116.25 269.72,116.25 C267.72,116.25 267.66,116.25 267.66,114.32 C267.66,109.04 267.66,103.763333 267.66,98.49 C267.66,96.57 267.66,96.56 269.66,96.54 C271.82,96.54 273.98,96.54 276.14,96.54 C276.256366,95.7212772 276.184546,94.8868001 275.93,94.1 C273.62,94.1 271.31,94.1 269,94.1 C268,94.1 267.6,93.7 267.61,92.69 C267.61,86.69 267.61,80.7133333 267.61,74.76 C267.61,73.58 268.11,73.24 269.19,73.26 C270.7,73.26 272.19,73.26 273.73,73.26 C273.647402,72.3572522 273.403541,71.4766405 273.01,70.66 C271.74,70.66 270.47,70.66 269.2,70.72 C267.93,70.78 267.59,70.21 267.6,69.03 C267.66,64.35 267.6,59.68 267.66,55.03 C266.96,51.83 266.26,48.63 265.31,45.49 C265.237502,45.8795709 265.194049,46.2739899 265.18,46.67 C265.23,47.67 264.74,47.92 263.87,47.91 C258.87,47.91 253.79,47.91 248.75,47.91 C247.75,47.91 247.29,47.56 247.31,46.51 C247.31,44.92 247.31,43.32 247.31,41.72 C247.31,40.12 247.37,40 249.1,39.99 C254.38,39.99 259.66,39.99 264.93,39.99 C265.136244,39.1971244 265.183821,38.3713155 265.07,37.56 L143,37.56 C140.44,37.56 140.28,37.73 140.24,40.26 C140.24,40.9 140.24,41.54 140.24,42.18 C140.24,73.28 140.24,104.38 140.24,135.48 C140.24,135.8 140.24,136.12 140.24,136.48 C140.24,138.22 140.56,138.48 142.34,138.62 C143.34,138.68 144.26,138.62 145.22,138.62 L280.5,138.62 C281.78,138.62 283.06,138.62 284.34,138.62 C284.730454,136.209524 285.422552,133.857732 286.4,131.62 C287.02,130.43 287.65,129.25 288.27,128.07 C288,124.24 288.23,120.45 288.15,116.66 Z M226.37,41.24 C226.37,40.33 226.73,39.95 227.64,39.95 C232.9,39.95 238.16,39.95 243.42,39.95 C244.61,39.95 244.93,40.51 244.91,41.57 C244.91,43.17 244.91,44.76 244.91,46.36 C244.91,47.5 244.45,47.91 243.34,47.89 C240.71,47.89 238.08,47.89 235.45,47.89 C232.82,47.89 230.34,47.89 227.79,47.89 C226.79,47.89 226.33,47.56 226.36,46.51 C226.41,44.75 226.39,43 226.37,41.24 Z M227.9,50.3 C233.093333,50.3 238.286667,50.3 243.48,50.3 C244.48,50.3 244.91,50.65 244.91,51.69 C244.91,57.6 244.91,63.51 244.91,69.41 C244.91,70.34 244.5,70.69 243.61,70.69 C238.34,70.69 233.07,70.69 227.8,70.69 C226.57,70.69 226.36,70.08 226.37,69.05 C226.37,66.17 226.37,63.3 226.37,60.43 C226.37,57.56 226.37,54.68 226.37,51.8 C226.33,50.64 226.8,50.29 227.9,50.3 Z M207.4,39.93 C209.87,40 212.34,39.93 214.82,39.93 C217.3,39.93 219.76,39.93 222.24,39.93 C223.4,39.93 224.02,40.2 223.95,41.51 C223.87,43.11 223.89,44.71 223.95,46.3 C223.95,47.39 223.65,47.89 222.46,47.88 C217.46,47.83 212.46,47.88 207.38,47.88 C206.32,47.88 205.73,47.57 205.77,46.39 C205.77,44.8 205.83,43.2 205.77,41.6 C205.71,40.38 206.13,39.89 207.4,39.93 Z M185.57,41.24 C185.57,40.34 185.91,39.95 186.83,39.95 C191.93,39.95 197.03,39.95 202.13,39.95 C203.13,39.95 203.33,40.48 203.33,41.31 C203.33,42.99 203.33,44.66 203.33,46.31 C203.33,47.42 202.99,47.89 201.82,47.87 C199.27,47.81 196.72,47.87 194.17,47.87 C191.78,47.87 189.39,47.87 187,47.87 C186,47.87 185.53,47.55 185.56,46.49 C185.61,44.75 185.6,43 185.57,41.24 Z M160.12,92.39 C160.12,93.52 159.92,94.15 158.56,94.13 C153.85,94.06 149.13,94.13 144.42,94.13 C142.77,94.13 142.73,94.06 142.72,92.3 C142.72,86.5533333 142.72,80.8033333 142.72,75.05 C142.72,73.39 142.78,73.35 144.52,73.34 C149.08,73.34 153.633333,73.34 158.18,73.34 C160.04,73.34 160.08,73.39 160.09,75.18 C160.09,77.98 160.09,80.77 160.09,83.57 C160.1,86.48 160.07,89.43 160.12,92.39 Z M144.07,39.94 C148.93,39.94 153.79,39.94 158.65,39.94 C159.65,39.94 160.14,40.22 160.11,41.29 C160.06,43.04 160.06,44.8 160.11,46.55 C160.11,47.64 159.58,47.89 158.63,47.88 C156.24,47.88 153.85,47.88 151.46,47.88 C149.07,47.88 146.83,47.88 144.52,47.88 C142.78,47.88 142.75,47.88 142.72,46.19 C142.69,44.5 142.72,43 142.72,41.41 C142.68,40.41 143,39.94 144.07,39.94 Z M142.72,52.03 C142.72,50.37 142.78,50.33 144.5,50.32 C149.126667,50.32 153.753333,50.32 158.38,50.32 C160.04,50.32 160.08,50.38 160.09,52.09 C160.09,54.96 160.09,57.83 160.09,60.71 C160.09,63.42 160.09,66.13 160.09,68.84 C160.09,70.61 160.09,70.67 158.44,70.68 C153.73,70.68 149.02,70.68 144.32,70.68 C143.04,70.68 142.69,70.19 142.7,68.99 C142.73,63.36 142.7,57.69 142.72,52 L142.72,52.03 Z M158.72,135.98 C156.25,135.98 153.78,135.98 151.3,135.98 C148.82,135.98 146.52,135.98 144.13,135.98 C143.13,135.98 142.72,135.58 142.72,134.56 C142.72,129.7 142.72,124.83 142.72,119.96 C142.72,119.07 143.07,118.67 143.99,118.67 C148.863333,118.67 153.73,118.67 158.59,118.67 C159.72,118.67 160.13,119.11 160.13,120.23 C160.09,125.016667 160.09,129.803333 160.13,134.59 C160.14,135.67 159.7,136 158.71,136 L158.72,135.98 Z M165.89,39.98 C168.21,39.98 170.53,39.98 172.89,39.98 C175.76,39.98 178.64,39.98 181.52,39.98 C182.74,39.98 183.27,40.33 183.2,41.61 C183.12,43.13 183.2,44.61 183.2,46.17 C183.2,47.86 183.2,47.9 181.44,47.91 C176.72,47.91 172,47.96 167.28,47.91 C165.8,47.91 163.93,48.61 162.92,47.5 C161.91,46.39 162.63,44.74 162.63,43.32 C162.56,39.49 162.1,40 165.88,40 L165.89,39.98 Z M183.16,92.76 C183.16,93.82 182.73,94.14 181.73,94.13 C175.82,94.13 169.91,94.13 164,94.13 C162.8,94.13 162.52,93.6 162.54,92.53 C162.54,89.53 162.54,86.62 162.54,83.67 C162.54,80.72 162.54,77.92 162.54,75.04 C162.54,73.91 162.76,73.27 164.1,73.28 C169.93,73.28 175.76,73.28 181.59,73.28 C182.67,73.28 183.17,73.6 183.16,74.78 C183.113333,80.7666667 183.11,86.7533333 183.15,92.74 L183.16,92.76 Z M181.47,116.29 C175.723333,116.25 169.976667,116.25 164.23,116.29 C163.04,116.29 162.52,115.97 162.53,114.67 C162.59,109.17 162.53,103.67 162.53,98.15 C162.53,96.86 163.07,96.52 164.25,96.54 C167.13,96.54 170,96.54 172.87,96.54 C175.74,96.54 178.62,96.54 181.49,96.54 C182.72,96.54 183.17,96.92 183.16,98.17 C183.16,103.68 183.1,109.17 183.16,114.69 C183.17,116 182.63,116.28 181.46,116.27 L181.47,116.29 Z M201.79,94.15 C196.91,94.08 192.04,94.09 187.16,94.15 C185.86,94.15 185.55,93.63 185.56,92.45 C185.56,86.61 185.61,80.78 185.56,74.94 C185.56,73.66 186.05,73.29 187.25,73.3 C192.05,73.3 196.84,73.3 201.64,73.3 C203.27,73.3 203.31,73.36 203.32,75.12 C203.32,78 203.32,80.88 203.32,83.75 C203.32,86.62 203.32,89.51 203.32,92.39 C203.35,93.52 203.14,94.15 201.78,94.13 L201.79,94.15 Z M205.79,60.39 C205.79,57.59 205.79,54.8 205.79,52 C205.79,50.79 206.14,50.3 207.41,50.31 C212.443333,50.3566667 217.473333,50.3566667 222.5,50.31 C223.69,50.31 223.99,50.81 223.98,51.89 C223.98,57.6433333 223.98,63.3933333 223.98,69.14 C223.98,70.23 223.67,70.73 222.5,70.72 C217.473333,70.68 212.443333,70.68 207.41,70.72 C206.12,70.72 205.77,70.2 205.79,69 C205.81,66.12 205.78,63.24 205.78,60.37 L205.79,60.39 Z M205.79,98.25 C205.79,97.06 206.14,96.52 207.43,96.54 C212.39,96.5866667 217.346667,96.5866667 222.3,96.54 C223.51,96.54 224.02,96.88 223.99,98.16 C223.91,100.96 223.99,103.76 223.99,106.56 C223.99,109.36 223.99,111.99 223.99,114.71 C223.99,115.8 223.69,116.3 222.51,116.29 C217.51,116.29 212.43,116.24 207.39,116.29 C206.08,116.29 205.79,115.73 205.8,114.56 C205.813333,109.106667 205.8,103.663333 205.76,98.23 L205.79,98.25 Z M222.25,136.01 C219.78,136.01 217.31,136.01 214.83,136.01 C212.35,136.01 210.04,136.01 207.65,136.01 C205.88,136.01 205.82,135.96 205.82,134.33 C205.82,129.7 205.82,125.07 205.82,120.44 C205.82,119.23 206.19,118.71 207.46,118.72 C212.493333,118.766667 217.523333,118.766667 222.55,118.72 C223.76,118.72 224.02,119.26 224.01,120.32 C224.01,125.03 223.95,129.74 224.01,134.45 C224,135.76 223.37,136 222.22,136 L222.25,136.01 Z M243.25,116.29 C238.13,116.24 233.01,116.29 227.9,116.29 C226.76,116.29 226.36,115.89 226.36,114.75 C226.4,109.15 226.4,103.55 226.36,97.95 C226.36,96.95 226.73,96.54 227.76,96.54 C232.96,96.54 238.16,96.54 243.36,96.54 C244.5,96.54 244.92,96.97 244.91,98.09 C244.91,100.89 244.91,103.69 244.91,106.49 C244.91,109.29 244.91,111.93 244.91,114.64 C245,115.89 244.48,116.29 243.24,116.27 L243.25,116.29 Z M243.25,94.14 C238.136667,94.0933333 233.03,94.0933333 227.93,94.14 C226.63,94.14 226.32,93.62 226.33,92.44 C226.33,86.62 226.33,80.79 226.33,74.97 C226.33,73.74 226.73,73.28 227.98,73.29 C233.08,73.29 238.19,73.29 243.3,73.29 C244.61,73.29 244.91,73.85 244.9,75.02 C244.9,77.97 244.9,80.93 244.9,83.88 C244.9,86.83 244.9,89.62 244.9,92.49 C245,93.72 244.51,94.14 243.27,94.12 L243.25,94.14 Z M248.98,50.31 C253.853333,50.3566667 258.72,50.3566667 263.58,50.31 C264.83,50.31 265.23,50.75 265.21,51.98 C265.21,57.64 265.21,63.3 265.21,68.98 C265.21,70.67 265.15,70.71 263.45,70.72 C258.656667,70.72 253.87,70.72 249.09,70.72 C247.42,70.72 247.38,70.66 247.36,68.95 C247.36,66.08 247.36,63.21 247.36,60.34 C247.36,57.47 247.36,54.75 247.36,51.96 C247.3,50.66 247.79,50.28 249,50.29 L248.98,50.31 Z M247.32,74.89 C247.32,73.81 247.62,73.28 248.8,73.29 C253.76,73.33 258.716667,73.33 263.67,73.29 C264.79,73.29 265.23,73.67 265.21,74.82 C265.21,77.82 265.21,80.9 265.21,83.94 C265.21,86.81 265.21,89.69 265.21,92.57 C265.21,93.66 264.93,94.15 263.73,94.14 C258.73,94.09 253.82,94.14 248.87,94.14 C247.75,94.14 247.31,93.78 247.32,92.63 C247.38,86.7 247.37,80.78 247.34,74.87 L247.32,74.89 Z M264.43,135.98 C259.31,135.98 254.196667,135.98 249.09,135.98 C247.4,135.98 247.36,135.92 247.34,134.21 C247.34,129.663333 247.34,125.11 247.34,120.55 C247.34,118.78 247.34,118.73 249.02,118.72 C253.806667,118.72 258.6,118.72 263.4,118.72 C265.12,118.72 265.17,118.79 265.19,120.48 C265.19,124.07 265.19,127.67 265.19,131.27 C265.113266,132.784614 265.247893,134.302534 265.59,135.78 C265.21583,135.880847 264.834827,135.954374 264.45,136 L264.43,135.98 Z" id="Shape" fill="#FF6458"></path>
            <path d="M115,173.88 C114.589883,168.704738 113.583208,163.594187 112,158.65 C111.811996,157.540121 111.111528,156.583926 110.11,156.07 L111.88,173.76 C112.11,175.99 112.35,178.21 112.54,180.44 C112.597302,180.764288 112.516485,181.097767 112.317079,181.359843 C112.117674,181.621918 111.817825,181.788744 111.49,181.82 C110.73,181.92 110.31,181.42 110.18,180.72 C110.05,180.02 109.94,179.3 109.87,178.58 C108.98,169.43 108.12,160.28 107.22,151.14 C106.694788,144.751408 105.749409,138.40434 104.39,132.14 C103.26,127.3 101.72,122.61 98.72,118.52 C97.6303079,117.034026 96.1482601,115.880938 94.44,115.19 C90.4394676,113.549427 86.1886301,112.602542 81.87,112.39 C80.37,112.3 80.25,112.39 80.19,113.96 C80.08,116.75 80.08,119.55 79.95,122.35 C79.63,129.09 78.77,135.71 75.59,141.83 C73.45,145.98 70.88,149.53 66.3,151.37 C61.7303564,153.277915 56.9450015,154.621173 52.05,155.37 C47.93,155.94 43.82,156.13 39.72,154.78 C37.5904958,154.074383 35.3517919,153.75602 33.11,153.84 C31.7590406,153.832079 30.4146988,153.650593 29.11,153.3 C27.95,153.04 26.79,152.83 25.42,152.55 C26.4639888,155.446986 27.0935408,158.476916 27.29,161.55 C27.68,166.01 27.29,170.55 28.1,174.95 C28.7,178.25 29.34,181.54 29.95,184.84 C30.4915325,188.396667 30.7290582,191.993006 30.66,195.59 C30.66,198.19 31.76,199.49 34.22,200.34 C35.2014139,200.672036 36.2035693,200.939277 37.22,201.14 C44.2938203,202.441925 51.4350013,203.346675 58.61,203.85 C61.9585565,204.179989 65.3314435,204.179989 68.68,203.85 C75.68,203.03 82.68,202.69 89.68,201.52 C91.9047904,201.256084 94.0922449,200.739416 96.2,199.98 C98.82,198.89 99.12,197.14 97.2,195.17 C93.4447079,191.382821 91.2404933,186.32882 91.02,181 C90.85,178.2 90.86,175.4 90.65,172.61 C90.17,166.16 90.55,159.66 89.58,153.23 C89.47,152.49 89.48,151.68 90.38,151.47 C91.28,151.26 91.82,151.97 91.97,152.83 C92.2140232,154.001512 92.3843573,155.187171 92.48,156.38 C92.83,164.53 93.12,172.68 93.48,180.83 C93.6303946,184.85993 95.0672085,188.735823 97.58,191.89 C99.2,193.89 100.96,195.98 103.65,196.77 C106.432755,197.544922 109.352398,197.695173 112.2,197.21 C113.667925,197.048423 114.859643,195.949935 115.14,194.5 C116.135242,190.786999 116.513616,186.935695 116.26,183.1 C116,180 115.29,177 115,173.88 Z" id="Shape" fill="#FF6458"></path>
            <path d="M91.24,346 C91.39,346.76 91.92,346.85 92.31,347.09 C93.45,347.81 94.41,348.76 94.22,350.16 C94.063441,351.624739 93.1144866,352.884889 91.75,353.44 C90.860102,353.787701 89.9947867,354.195301 89.16,354.66 C87.308428,355.975798 84.8764983,356.145647 82.86,355.1 C81.86,354.61 80.76,354.35 79.73,353.94 C77.9263725,353.279549 76.0207462,352.941072 74.1,352.94 C73.54,352.94 72.93,352.83 72.66,353.48 C72.15,354.74 71.58,356.03 72.22,357.39 C72.7736894,358.654522 74.0296573,359.465586 75.41,359.45 C81.705782,359.887753 88.0309143,359.303531 94.14,357.72 C95.695076,357.353365 97.1762856,356.724358 98.52,355.86 C100.9,354.33 101.34,351.86 99.46,349.76 C97.3343321,347.456108 94.3730608,346.10156 91.24,346 Z" id="Shape" fill="#FF6458"></path>
            <path d="M61.35,353.64 C61.27,355.64 60.68,356.34 58.67,356.55 C57.3189625,356.621879 55.9656739,356.459484 54.67,356.07 C50.92,355.07 47.26,354.25 43.46,356.07 C42.11,356.72 41.46,356.07 41.4,354.42 C41.400566,352.901969 41.640167,351.393495 42.11,349.95 C42.6077795,348.621887 42.7255186,347.181315 42.45,345.79 C40.04,348.99 39.93,352.57 40.57,356.28 C40.7831745,358.257849 42.3427261,359.821559 44.32,360.04 C48.52,360.87 52.74,360.64 56.96,360.6 C57.6822076,360.576116 58.3939405,360.420213 59.06,360.14 C61.53,359.14 62.06,358.66 62.19,355.72 C62.134139,354.35395 61.8676657,353.004718 61.4,351.72 C61.36,352.38 61.38,353 61.35,353.64 Z" id="Shape" fill="#FF6458"></path>
            <path d="M13.84,158 C16.35,157.05 18.53,156.06 20.84,155.4 C22.4164593,155.0772 23.6571384,153.860004 24.01,152.29 C21.28,151.52 18.38,151.29 15.77,149.59 C14.9211157,152.342162 14.2760383,155.153095 13.84,158 Z" id="Shape" fill="#FF6458"></path>
        </g>
    </g>
</svg>