<?xml version="1.0" encoding="UTF-8"?>
<svg width="211px" height="175px" viewBox="0 0 211 175" version="1.1" xmlns="http://www.w3.org/2000/svg" xmlns:xlink="http://www.w3.org/1999/xlink">
    <!-- Generator: Sketch 51.2 (57519) - http://www.bohemiancoding.com/sketch -->
    <title>Group 3</title>
    <desc>Created with Sketch.</desc>
    <defs></defs>
    <g id="Page-1" stroke="none" stroke-width="1" fill="none" fill-rule="evenodd">
        <g id="Group-3" fill-rule="nonzero">
            <path d="M210.9,146.47 C210.32,142.58 209.98,138.69 209.58,134.79 C208.21,121.43 206.81,108.08 205.46,94.71 C204.246667,82.8566667 203.066667,71.0033333 201.92,59.15 C200.77,47.38 199.17,35.65 198.56,23.82 C198.499663,22.7823991 198.369367,21.7500533 198.17,20.73 C197.506917,15.9358836 193.524124,12.2933928 188.69,12.06 C187.69,11.96 186.62,11.99 185.58,11.99 C181.04,11.99 176.5,11.99 171.75,11.99 C171.75,8.99 171.75,6.09 171.75,3.22 C171.791089,2.58414069 171.750763,1.94563708 171.63,1.32 C171.568072,1.04053553 171.396751,0.797535951 171.154334,0.645320615 C170.911917,0.493105279 170.618618,0.444366792 170.34,0.51 C169.821035,0.507894286 169.386703,0.903136246 169.34,1.42 C169.276822,1.89387983 169.253407,2.37221526 169.27,2.85 C169.27,5.25 169.27,7.65 169.27,10.05 C169.27,11.95 169.27,11.99 167.48,11.99 C161.56,11.99 155.65,11.99 149.73,11.99 C148.63,11.99 148.17,11.72 148.2,10.53 C148.28,8.05 148.2,5.53 148.2,3.09 C148.237254,2.53244146 148.213783,1.97248511 148.13,1.42 C148.042496,0.83678788 147.51773,0.421347806 146.93,0.47 C146.344318,0.441293403 145.842733,0.885174312 145.8,1.47 C145.748237,1.94813824 145.731526,2.42942296 145.75,2.91 C145.75,5.39 145.75,7.91 145.75,10.35 C145.75,11.63 145.28,12 144.07,11.97 C141.76,11.9 139.44,11.97 137.07,11.97 L124.75,11.97 C124.75,8.97 124.75,6.09 124.75,3.22 C124.792366,2.58494365 124.758795,1.94710051 124.65,1.32 C124.52007,0.739424196 123.955512,0.364522349 123.37,0.47 C122.857968,0.466893765 122.426315,0.851065063 122.37,1.36 C122.308204,1.9144275 122.281484,2.47220428 122.29,3.03 C122.29,5.51 122.29,8.03 122.29,10.47 C122.29,11.62 121.88,11.99 120.75,11.99 C114.683333,11.95 108.61,11.95 102.53,11.99 C101.43,11.99 101.2,11.53 101.21,10.56 C101.21,8.08 101.21,5.56 101.21,3.12 C101.240317,2.5626622 101.220236,2.0037251 101.15,1.45 C101.086938,0.854977898 100.567307,0.414612878 99.97,0.45 C99.6833841,0.427978382 99.3998148,0.521129011 99.1820892,0.708823483 C98.9643636,0.896517955 98.8304486,1.16326755 98.81,1.45 C98.7582234,1.9247909 98.7415115,2.40275228 98.76,2.88 C98.76,5.28 98.76,7.68 98.76,10.08 C98.76,11.91 98.76,11.95 96.9,11.95 C91.9,11.95 86.99,11.95 82.03,11.95 C80.61,11.95 78.83,12.54 77.86,11.66 C76.89,10.78 77.52,8.79 77.45,7.31 C77.36,5.47 77.45,3.63 77.45,1.79 C77.45,1.1 77.15,0.51 76.35,0.47 C75.55,0.43 75.05,0.99 75,1.8 C74.95,2.61 75,3.24 75,3.96 L75,11.96 C68.28,11.96 61.81,11.96 55.34,11.96 C54.34,11.96 53.93,11.57 53.94,10.55 C53.94,8.23 53.94,5.91 53.94,3.55 C53.94,2.91 53.94,2.27 53.94,1.64 C53.94,1.01 53.54,0.41 52.75,0.41 C52.4256369,0.404637891 52.1127056,0.529748565 51.8814424,0.757251362 C51.6501792,0.984754159 51.5199557,1.29559258 51.52,1.62 C51.4899445,2.09952951 51.4899445,2.58047049 51.52,3.06 C51.52,5.14 51.52,7.22 51.52,9.3 C51.52,12.3 51.78,11.89 49.02,11.9 C44.22,11.9 39.43,11.9 34.63,11.9 C30.47,11.9 30.47,11.9 30.47,7.76 C30.47,5.76 30.47,3.76 30.47,1.76 C30.47,1.07 30.2,0.47 29.4,0.41 C28.6,0.35 28.09,0.9 28.02,1.72 C27.97,2.35 28.02,3 28.02,3.63 L28.02,11.79 C23.48,11.79 19.15,12.06 14.87,11.73 C8.96,11.27 2.26,16.5 1.48,22.15 C1.15387347,24.5962712 0.996834275,27.0621208 1.01,29.53 C1.01,70.33 1.01,111.13 1.01,151.93 C1.01,155.13 0.9,158.33 0.91,161.52 C0.870908799,163.603658 1.20971555,165.677155 1.91,167.64 C3.19505747,171.67126 7.06896509,174.302048 11.29,174.01 C13.21,174.01 15.12,173.95 17.04,173.95 L185.86,173.95 C187.778317,173.992408 189.6941,173.787385 191.56,173.34 C195.35,172.34 197.48,169.84 198.28,166.03 C198.72,163.95 198.17,161.89 198.37,159.83 C198.49,158.59 197.79,157.01 198.72,156.17 C199.65,155.33 201.17,155.9 202.43,155.92 C204.882931,156.019013 207.252002,155.017821 208.890519,153.189724 C210.529035,151.361627 211.265912,148.897506 210.9,146.47 Z M195.79,79.4 C195.79,105.633333 195.79,131.87 195.79,158.11 C195.79,160.423333 195.74,162.756667 195.64,165.11 C195.5979,167.758539 193.807192,170.05913 191.25,170.75 C189.233422,171.270774 187.150799,171.48982 185.07,171.4 L14,171.4 C13.2028312,171.379881 12.4051551,171.399907 11.61,171.46 C8.2350925,171.953899 4.99552562,169.943424 3.94,166.7 C3.43735625,165.426651 3.18278674,164.068947 3.19,162.7 C3.19,159.42 3.19,156.14 3.19,152.86 C3.19,123.266667 3.19,93.6733333 3.19,64.08 C3.19,60.81 2.72,61.24 5.92,61.24 C37.12,61.24 68.3166667,61.24 99.51,61.24 L192.61,61.24 C193.169285,61.280017 193.730715,61.280017 194.29,61.24 C195.62,61.05 195.87,61.7 195.86,62.88 C195.77,68.36 195.79,73.88 195.79,79.4 Z M195.79,56.24 C195.79,59.13 195.87,58.84 193.2,58.84 L6,58.84 C2.82,58.84 3.13,59.2 3.13,56.07 C3.13,47.27 3.13,38.47 3.13,29.67 C3.12647037,27.35291 3.27344642,25.0380371 3.57,22.74 C4.34861953,17.8239342 8.59267062,14.2080026 13.57,14.22 C17.65,14.22 21.72,14.22 25.8,14.22 C27.6,14.22 27.61,14.22 27.63,16.1 C27.65,17.98 27.63,19.62 27.63,21.38 C27.6177825,21.8587621 27.6512676,22.337598 27.73,22.81 C27.8061864,23.3897761 28.3053263,23.8200691 28.89,23.81 C29.4756817,23.8387066 29.9772672,23.3948257 30.02,22.81 C30.0934497,22.2564624 30.1268698,21.6983471 30.12,21.14 C30.12,19.3 30.12,17.46 30.12,15.62 C30.12,14.62 30.49,14.2 31.52,14.2 C37.6,14.2 43.68,14.2 49.76,14.2 C50.76,14.2 51.2,14.53 51.17,15.58 C51.17,17.34 51.17,19.1 51.17,20.86 C51.1400359,21.4195992 51.1400359,21.9804008 51.17,22.54 C51.24,23.23 51.56,23.79 52.34,23.82 C53.12,23.85 53.48,23.32 53.56,22.62 C53.6066322,22.0612934 53.6233227,21.500491 53.61,20.94 C53.61,19.26 53.61,17.58 53.61,15.94 C53.56,14.75 53.89,14.21 55.21,14.23 C61.21,14.2766667 67.21,14.2766667 73.21,14.23 C74.44,14.23 74.69,14.75 74.66,15.82 C74.66,17.66 74.66,19.5 74.66,21.34 C74.6399708,21.8974402 74.6903689,22.4551797 74.81,23 C74.8610076,23.2801723 75.0215973,23.528453 75.2562113,23.6898674 C75.4908252,23.8512817 75.7801057,23.9125118 76.06,23.86 C76.5860642,23.8612903 77.023177,23.4547754 77.06,22.93 C77.15,22.06 77.17,21.18 77.18,20.3 C77.18,18.78 77.18,17.3 77.18,15.74 C77.18,14.8 77.38,14.24 78.49,14.24 C84.73,14.24 90.97,14.24 97.21,14.24 C98.13,14.24 98.49,14.63 98.48,15.53 C98.48,17.45 98.48,19.37 98.48,21.29 C98.4744368,21.8490063 98.5145704,22.4075321 98.6,22.96 C98.7016089,23.4928632 99.1675357,23.8783399 99.71,23.8783399 C100.252464,23.8783399 100.718391,23.4928632 100.82,22.96 C100.926635,22.2518591 100.973467,21.5359981 100.96,20.82 C100.96,19.3 100.96,17.82 100.96,16.26 C100.96,14.26 100.96,14.26 102.96,14.26 C107.84,14.26 112.72,14.26 117.6,14.26 C119.01,14.26 120.79,13.62 121.75,14.64 C122.71,15.66 121.98,17.25 122.03,18.64 C122.03,19.64 122.03,20.72 122.03,21.76 C122.08,23.32 122.49,24.02 123.33,23.88 C124.51,23.69 124.5,22.74 124.51,21.88 C124.51,19.96 124.51,18.04 124.51,16.12 C124.51,14.2 124.51,14.32 126.41,14.32 C132.17,14.32 137.93,14.32 143.69,14.32 C145.49,14.32 145.51,14.37 145.53,16.22 C145.53,18.22 145.53,20.22 145.53,22.22 C145.53,23.07 145.7,23.94 146.78,23.91 C147.86,23.88 147.99,23.02 147.99,22.17 C147.99,20.02 148.04,17.85 147.99,15.7 C147.99,14.7 148.34,14.29 149.38,14.3 C155.46,14.3 161.54,14.3 167.62,14.3 C168.62,14.3 169.07,14.66 169.04,15.7 C169.04,17.61 169.04,19.54 169.04,21.45 C169.029458,22.0104532 169.079752,22.5703962 169.19,23.12 C169.335095,23.5891695 169.768907,23.9090922 170.26,23.9090922 C170.751093,23.9090922 171.184905,23.5891695 171.33,23.12 C171.465432,22.5774665 171.525994,22.0189532 171.51,21.46 C171.51,19.54 171.51,17.62 171.51,15.71 C171.51,14.71 171.77,14.25 172.85,14.26 C177.85,14.26 182.94,14.15 187.97,14.34 C192.84,14.52 195.97,18.11 195.83,23.43 C195.68,34.33 195.86,45.28 195.79,56.24 Z M207.46,150.24 C206.46,151.97 205.11,153.24 202.89,153.16 C201.32,153.09 199.4,153.92 198.3,152.81 C197.39,151.9 198.01,150.06 198.01,148.64 C198.01,117.046667 198.01,85.4566667 198.01,53.87 L198.01,52.02 C199.01,54.27 198.87,56.78 199.13,59.19 C200.34,70.19 201.42,81.29 202.53,92.35 C203.44,101.35 204.32,110.35 205.22,119.35 C206.12,128.35 207.06,137.64 207.98,146.78 C208.191675,147.968915 208.009076,149.194435 207.46,150.27 L207.46,150.24 Z" id="Shape" fill="#222222"></path>
            <path d="M179.07,81.13 C179.15,78.56 178.49,77.84 175.99,77.84 L23.64,77.84 C22.9119211,77.7881263 22.1802722,77.8216881 21.46,77.94 C20.2626554,78.2575897 19.4958599,79.4250144 19.68,80.65 C19.9464303,83.3412713 20.0232865,86.0479466 19.91,88.75 C19.91,108.976667 19.91,129.21 19.91,149.45 C19.91,150.01 19.91,150.57 19.91,151.13 C20,152.81 20.26,153.08 21.91,153.08 C23.75,153.08 25.59,153 27.42,153 L174,153 C174.8,153 175.61,153 176.4,153 C177.101977,152.957347 177.763859,152.658432 178.26,152.16 C179.26,151.11 179.01,149.95 179.01,148.8 L179.01,84 C179,83 179,82.08 179.07,81.13 Z M67.45,101.13 C67.45,100.13 67.72,99.72 68.8,99.73 C74.54,99.73 80.29,99.73 86.03,99.73 C86.92,99.73 87.34,99.98 87.34,100.93 C87.34,105.883333 87.34,110.833333 87.34,115.78 C87.34,116.78 86.83,116.93 85.99,116.92 C82.99,116.92 80.09,116.92 77.14,116.92 C74.42,116.92 71.71,116.92 69,116.92 C67.91,116.92 67.43,116.69 67.45,115.48 C67.5,110.71 67.48,105.92 67.45,101.13 Z M22.81,82.13 C22.81,80.99 23.16,80.59 24.32,80.6 C29.99,80.6 35.65,80.6 41.32,80.6 C42.32,80.6 42.75,80.88 42.74,81.96 C42.68,86.67 42.68,91.37 42.74,96.08 C42.74,96.99 42.46,97.35 41.5,97.33 C38.55,97.33 35.59,97.33 32.64,97.33 C29.85,97.33 27.05,97.33 24.26,97.33 C23.26,97.33 22.83,97.11 22.84,96.01 C22.8666667,91.3766667 22.8566667,86.7466667 22.81,82.12 L22.81,82.13 Z M22.81,101 C22.81,100.08 23.13,99.74 24.06,99.75 C29.8866667,99.75 35.7133333,99.75 41.54,99.75 C42.34,99.75 42.69,100.05 42.69,100.86 C42.69,105.86 42.69,110.92 42.69,115.94 C42.69,116.86 42.15,116.94 41.44,116.94 C38.49,116.94 35.53,116.94 32.58,116.94 C29.79,116.94 26.99,116.94 24.2,116.94 C23.2,116.94 22.8,116.66 22.8,115.59 C22.85,110.73 22.84,105.86 22.81,101 Z M22.81,132.85 C22.88,128.85 22.89,124.85 22.81,120.85 C22.81,119.5 23.33,119.28 24.49,119.3 C27.28,119.36 30.08,119.3 32.87,119.3 C35.66,119.3 38.46,119.36 41.25,119.3 C42.43,119.3 42.74,119.68 42.73,120.81 C42.67,124.88 42.66,128.95 42.73,133.01 C42.73,134.24 42.24,134.46 41.17,134.45 C35.59,134.45 30,134.45 24.42,134.45 C23.14,134.49 22.77,134.09 22.8,132.84 L22.81,132.85 Z M43,149.6 C43.0056212,149.97119 42.8592609,150.328546 42.594878,150.589152 C42.3304951,150.849758 41.9710709,150.990961 41.6,150.98 C38.72,150.98 35.84,150.98 32.96,150.98 C30.24,150.98 27.52,150.98 24.8,150.98 C23.52,150.98 22.95,150.75 23.13,148.98 C23.4750011,145.70573 23.4750011,142.40427 23.13,139.13 C22.94,137.37 23.28,136.95 24.6,136.96 C30.28,136.96 35.95,136.96 41.6,136.96 C42.66,136.96 42.97,137.33 42.96,138.35 C43,142.08 43,145.84 43,149.6 Z M65,149.6 C65,150.65 64.66,150.98 63.63,150.96 C60.76,150.96 57.88,150.96 55.01,150.96 C52.3,150.96 49.59,150.96 46.88,150.96 C45.12,150.96 45.08,150.96 45.07,149.3 C45.07,145.71 45.07,142.12 45.07,138.53 C45.07,137.26 45.52,136.92 46.73,136.93 C52.31,136.93 57.9,136.93 63.48,136.93 C64.54,136.93 65.07,137.13 65.05,138.37 C65,142.13 65,145.88 65.06,149.62 L65,149.6 Z M45,101.29 C45,100.23 45.22,99.7 46.45,99.71 C52.12,99.76 57.79,99.71 63.45,99.71 C64.6,99.71 64.97,100.07 64.95,101.22 C64.95,105.93 64.89,110.64 64.95,115.35 C64.95,116.69 64.44,116.95 63.27,116.92 C60.47,116.86 57.68,116.92 54.88,116.92 C52.08,116.92 49.29,116.92 46.5,116.92 C45.34,116.92 44.97,116.56 44.98,115.42 C45.1,110.733333 45.14,106.03 45.1,101.31 L45,101.29 Z M65,133.06 C65,134.06 64.64,134.46 63.62,134.45 C57.8733333,134.45 52.1233333,134.45 46.37,134.45 C45.29,134.45 45.04,133.97 45.04,133 C45.04,128.85 45.04,124.7 45.04,120.55 C45.04,119.64 45.36,119.29 46.3,119.31 C49.3,119.31 52.21,119.31 55.16,119.31 C57.87,119.31 60.59,119.31 63.3,119.31 C64.44,119.31 65.04,119.48 65,120.86 C65,124.94 65,129 65.06,133.08 L65,133.06 Z M65,95.79 C65,96.92 64.69,97.34 63.52,97.31 C60.65,97.24 57.77,97.31 54.9,97.31 C52.03,97.31 49.3,97.25 46.51,97.31 C45.32,97.31 45.02,96.91 45.04,95.79 C45.04,91.32 45.04,86.85 45.04,82.38 C45.04,80.64 45.1,80.6 46.77,80.6 C52.28,80.6 57.77,80.6 63.3,80.6 C64.47,80.6 65.01,80.83 64.99,82.16 C65,86.7 65,91.26 65.06,95.81 L65,95.79 Z M87.27,149.65 C87.27,150.74 86.85,150.98 85.88,150.96 C83,150.96 80.13,150.96 77.26,150.96 C74.39,150.96 71.51,150.96 68.64,150.96 C67.73,150.96 67.39,150.68 67.39,149.73 C67.39,145.9 67.39,142.07 67.39,138.24 C67.39,137.4 67.56,136.92 68.56,136.92 C74.38,136.92 80.2033333,136.92 86.03,136.92 C86.95,136.92 87.29,137.23 87.28,138.16 C87.3,142 87.28,145.84 87.33,149.67 L87.27,149.65 Z M87.27,133.03 C87.27,134.03 87.03,134.46 85.94,134.45 C80.2,134.45 74.46,134.45 68.71,134.45 C67.64,134.45 67.37,134.04 67.38,133.04 C67.38,128.97 67.45,124.9 67.38,120.84 C67.38,119.46 67.94,119.28 69.08,119.3 C71.87,119.36 74.66,119.3 77.46,119.3 C80.26,119.3 83.04,119.36 85.83,119.3 C87.04,119.3 87.31,119.73 87.3,120.83 C87.28,124.91 87.2933333,128.983333 87.34,133.05 L87.27,133.03 Z M87.27,95.63 C87.27,97.25 87.27,97.27 85.51,97.28 C82.8,97.28 80.08,97.28 77.37,97.28 C74.5,97.28 71.62,97.28 68.75,97.28 C67.69,97.28 67.39,96.92 67.4,95.89 C67.4,91.26 67.4,86.63 67.4,82 C67.4,80.81 67.86,80.53 68.95,80.54 C74.54,80.54 80.13,80.6 85.72,80.54 C87.02,80.54 87.34,80.97 87.33,82.2 C87.3,86.71 87.34,91.18 87.32,95.65 L87.27,95.63 Z M89.68,101.28 C89.68,99.97 90.19,99.69 91.39,99.71 C96.9,99.76 102.39,99.71 107.92,99.71 C109.59,99.71 109.62,99.76 109.63,101.45 C109.63,106.003333 109.63,110.556667 109.63,115.11 C109.63,116.85 109.63,116.87 107.73,116.88 C105.01,116.88 102.3,116.88 99.58,116.88 C96.86,116.88 93.99,116.83 91.19,116.88 C90.03,116.88 89.68,116.5 89.69,115.37 C89.78,110.73 89.79,106 89.73,101.3 L89.68,101.28 Z M109.68,149.67 C109.68,150.52 109.5,150.97 108.49,150.96 C102.35,150.96 96.21,150.96 89.75,150.96 C89.75,146.57 89.75,142.42 89.75,138.27 C89.75,137.44 89.94,136.94 90.94,136.94 C96.77,136.94 102.6,136.94 108.42,136.94 C109.31,136.94 109.71,137.23 109.7,138.19 C109.66,142.023333 109.656667,145.856667 109.69,149.69 L109.68,149.67 Z M108.24,134.45 C105.45,134.45 102.65,134.45 99.86,134.45 C97.07,134.45 94.11,134.45 91.24,134.45 C90.09,134.45 89.71,134.06 89.73,132.92 C89.73,128.85 89.73,124.78 89.73,120.71 C89.73,119.71 89.96,119.28 91.06,119.29 C96.81,119.34 102.56,119.29 108.31,119.29 C109.31,119.29 109.7,119.6 109.69,120.65 C109.636667,124.803333 109.636667,128.956667 109.69,133.11 C109.72,134.27 109.2,134.48 108.25,134.47 L108.24,134.45 Z M109.7,96 C109.7,97.12 109.21,97.32 108.26,97.31 C105.38,97.31 102.51,97.31 99.63,97.31 C96.75,97.31 93.88,97.31 91,97.31 C90,97.31 89.74,96.98 89.75,96.07 C89.75,91.36 89.75,86.64 89.75,81.93 C89.75,80.86 90.22,80.58 91.21,80.58 C96.9633333,80.58 102.713333,80.58 108.46,80.58 C109.4,80.58 109.71,80.94 109.7,81.85 C109.67,86.58 109.66,91.3 109.7,96 Z M132,149.6 C132,150.6 131.63,151 130.59,150.98 C127.72,150.98 124.83,150.98 121.95,150.98 C119.23,150.98 116.51,150.98 113.8,150.98 C112.67,150.98 112.06,150.85 112.09,149.46 C112.19,145.78 112.17,142.1 112.09,138.46 C112.09,137.29 112.46,136.96 113.6,136.97 C119.27,136.97 124.95,136.97 130.6,136.97 C131.66,136.97 131.98,137.34 131.96,138.36 C131.933333,142.12 131.946667,145.866667 132,149.6 Z M132,133.06 C132,134.06 131.75,134.48 130.67,134.47 C124.923333,134.43 119.176667,134.43 113.43,134.47 C112.36,134.47 112.1,134.04 112.11,133.05 C112.11,128.98 112.18,124.91 112.11,120.84 C112.11,119.45 112.69,119.29 113.81,119.32 C116.61,119.37 119.4,119.32 122.19,119.32 C124.98,119.32 127.62,119.32 130.33,119.32 C131.47,119.32 132.06,119.48 132.04,120.85 C131.91,124.92 131.94,129 132,133.06 Z M112.11,101.15 C112.11,100.15 112.35,99.72 113.44,99.73 C119.18,99.77 124.923333,99.77 130.67,99.73 C131.78,99.73 132,100.2 132,101.17 C132,105.95 131.95,110.74 132,115.53 C132,116.78 131.46,116.96 130.41,116.94 C127.62,116.94 124.82,116.94 122.03,116.94 C119.24,116.94 116.45,116.94 113.65,116.94 C112.58,116.94 112.07,116.75 112.09,115.51 C112.14,110.73 112.12,105.94 112.09,101.15 L112.11,101.15 Z M132.01,95.81 C132.01,96.93 131.73,97.37 130.53,97.33 C127.66,97.25 124.79,97.33 121.91,97.33 C119.2,97.33 116.48,97.28 113.77,97.33 C112.61,97.33 112.07,97.12 112.09,95.77 C112.18,91.22 112.15,86.67 112.09,82.12 C112.09,81 112.38,80.57 113.57,80.58 C119.24,80.64 124.91,80.63 130.57,80.58 C131.78,80.58 132.01,81.06 132,82.15 C131.946667,86.7166667 131.946667,91.27 132,95.81 L132.01,95.81 Z M154.36,149.56 C154.36,150.56 154.06,150.99 152.99,150.98 C147.24,150.98 141.48,150.98 135.72,150.98 C134.81,150.98 134.41,150.67 134.41,149.74 C134.41,145.9 134.41,142.06 134.41,138.22 C134.41,137.07 135,136.94 135.91,136.95 C138.71,136.95 141.51,136.95 144.31,136.95 C147.11,136.95 150.07,136.95 152.95,136.95 C153.95,136.95 154.38,137.21 154.37,138.29 C154.29,142 154.3,145.8 154.34,149.56 L154.36,149.56 Z M154.36,115.56 C154.36,116.56 154.01,116.94 152.98,116.93 C147.22,116.89 141.466667,116.89 135.72,116.93 C134.61,116.93 134.4,116.45 134.4,115.49 C134.4,110.7 134.4,105.9 134.4,101.11 C134.4,100.11 134.76,99.7 135.8,99.72 C138.8,99.77 141.71,99.72 144.66,99.72 C147.38,99.72 150.1,99.72 152.81,99.72 C153.91,99.72 154.38,99.97 154.37,101.18 C154.29,106 154.3,110.77 154.34,115.57 L154.36,115.56 Z M154.36,133.08 C154.36,134.13 153.98,134.47 152.97,134.46 C147.223333,134.46 141.476667,134.46 135.73,134.46 C134.63,134.46 134.4,133.96 134.4,133 C134.4,128.846667 134.4,124.696667 134.4,120.55 C134.4,119.63 134.73,119.3 135.67,119.32 C138.54,119.32 141.41,119.32 144.29,119.32 C147.17,119.32 149.88,119.32 152.67,119.32 C153.82,119.32 154.39,119.51 154.36,120.88 C154.27,125 154.29,129 154.34,133.09 L154.36,133.08 Z M154.36,95.96 C154.36,97.03 153.97,97.33 152.96,97.31 C150.09,97.31 147.21,97.31 144.34,97.31 C141.47,97.31 138.74,97.31 135.95,97.31 C134.86,97.31 134.37,97.09 134.39,95.87 C134.46,91.32 134.45,86.76 134.39,82.21 C134.39,80.96 134.8,80.55 136.07,80.56 C141.66,80.62 147.25,80.61 152.84,80.56 C153.96,80.56 154.38,80.85 154.36,82.04 C154.3,86.68 154.293333,91.3333333 154.34,96 L154.36,95.96 Z M176.28,149.57 C176.28,150.57 175.93,150.99 174.89,150.97 C172.09,150.97 169.3,150.97 166.5,150.97 C163.7,150.97 161.07,150.91 158.35,150.97 C157.06,150.97 156.72,150.53 156.74,149.32 C156.8,145.64 156.74,141.97 156.74,138.32 C156.74,137.32 157.08,136.94 158.11,136.94 C163.71,136.98 169.303333,136.98 174.89,136.94 C175.89,136.94 176.3,137.28 176.28,138.32 C176.22,142.07 176.23,145.83 176.26,149.58 L176.28,149.57 Z M156.75,120.57 C156.75,119.64 157.08,119.32 158,119.33 C163.66,119.33 169.326667,119.33 175,119.33 C175.9,119.33 176.3,119.59 176.3,120.53 C176.3,124.76 176.3,128.99 176.3,133.21 C176.3,134.37 175.67,134.47 174.78,134.46 C171.99,134.46 169.2,134.46 166.41,134.46 C163.62,134.46 160.83,134.46 158.04,134.46 C157.17,134.46 156.76,134.22 156.77,133.24 C156.77,129 156.76,124.79 156.73,120.57 L156.75,120.57 Z M176.26,115.26 C176.26,116.88 176.26,116.91 174.47,116.92 C171.76,116.92 169.05,116.92 166.34,116.92 C163.63,116.92 161.07,116.92 158.44,116.92 C157.31,116.92 156.71,116.77 156.73,115.39 C156.81,110.723333 156.81,106.02 156.73,101.28 C156.73,99.96 157.21,99.7 158.4,99.71 C163.82,99.76 169.25,99.77 174.67,99.71 C175.98,99.71 176.3,100.16 176.28,101.38 C176.22,106 176.26,110.64 176.24,115.26 L176.26,115.26 Z M174.75,97.33 C171.96,97.26 169.17,97.33 166.38,97.33 C163.59,97.33 160.96,97.28 158.25,97.33 C157.11,97.33 156.72,97.02 156.74,95.85 C156.8,91.31 156.8,86.7666667 156.74,82.22 C156.74,80.97 157.12,80.57 158.38,80.58 C163.8,80.64 169.22,80.64 174.64,80.58 C175.93,80.58 176.29,81.01 176.28,82.25 C176.22,86.79 176.22,91.3333333 176.28,95.88 C176.29,97.08 175.83,97.35 174.73,97.33 L174.75,97.33 Z" id="Shape" fill="#222222"></path>
            <path d="M67.69,38.36 C67.2136641,38.3348856 66.7363359,38.3348856 66.26,38.36 L22.62,38.36 C22.0634777,38.3377958 21.5062811,38.3814317 20.96,38.49 C20.3755758,38.587269 19.9758646,39.133541 20.06,39.72 C20.0578943,40.2389652 20.4531362,40.673297 20.97,40.72 C21.6030308,40.8036781 22.2416921,40.8371158 22.88,40.82 L65.79,40.82 C66.43,40.82 67.07,40.82 67.71,40.82 C68.35,40.82 68.96,40.44 68.95,39.66 C68.94,38.88 68.39,38.45 67.69,38.36 Z" id="Shape" fill="#222222"></path>
            <path d="M194.24,61 C193.680548,61.0350342 193.119452,61.0350342 192.56,61 L5.87,61 C2.67,61 3.14,60.57 3.14,63.83 C3.14,93.43 3.14,123.026667 3.14,152.62 C3.14,155.9 3.19,159.18 3.14,162.46 C3.13376726,163.828858 3.38830229,165.186379 3.89,166.46 C4.92844712,169.715815 8.18254641,171.731065 11.56,171.21 C12.35,171.14 13.15,171.15 13.95,171.15 L185.06,171.15 C187.140799,171.23982 189.223422,171.020774 191.24,170.5 C193.797192,169.80913 195.5879,167.508539 195.63,164.86 C195.73,162.54 195.78,160.206667 195.78,157.86 C195.78,131.62 195.78,105.383333 195.78,79.15 C195.78,73.63 195.78,68.15 195.78,62.6 C195.82,61.44 195.57,60.8 194.24,61 Z M178.24,152.15 C177.743859,152.648432 177.081977,152.947347 176.38,152.99 C175.59,153.04 174.78,152.99 173.98,152.99 L27.44,152.99 C25.61,152.99 23.77,153.06 21.93,153.07 C20.28,153.07 20.02,152.8 19.93,151.12 C19.93,150.56 19.93,150 19.93,149.44 C19.93,129.213333 19.93,108.98 19.93,88.74 C20.0432865,86.0379466 19.9664303,83.3312713 19.7,80.64 C19.5158599,79.4150144 20.2826554,78.2475897 21.48,77.93 C22.2002722,77.8116881 22.9319211,77.7781263 23.66,77.83 L176,77.83 C178.5,77.83 179.16,78.55 179.08,81.12 C179.08,82.07 179.08,83.03 179.08,83.99 L179.08,148.77 C179,149.93 179.27,151.09 178.29,152.14 L178.24,152.15 Z" id="Shape" fill="#FFFFFF"></path>
            <path d="M208,146.77 C207.08,137.63 206.16,128.486667 205.24,119.34 C204.34,110.34 203.46,101.34 202.55,92.34 C201.44,81.28 200.36,70.22 199.15,59.18 C198.89,56.77 199.06,54.26 198.03,52.01 L198.03,53.86 C198.03,85.4533333 198.03,117.043333 198.03,148.63 C198.03,150.05 197.41,151.89 198.32,152.8 C199.42,153.91 201.32,153.08 202.91,153.15 C205.13,153.26 206.45,151.96 207.48,150.23 C208.022546,149.163121 208.204981,147.949224 208,146.77 Z" id="Shape" fill="#FFFFFF"></path>
            <path d="M24.2,116.94 C26.99,116.94 29.79,116.94 32.58,116.94 C35.53,116.94 38.49,116.94 41.44,116.94 C42.15,116.94 42.69,116.86 42.69,115.94 C42.69,110.94 42.69,105.89 42.69,100.86 C42.69,100.05 42.34,99.75 41.54,99.75 C35.7066667,99.75 29.88,99.75 24.06,99.75 C23.13,99.75 22.81,100.08 22.81,101 C22.81,105.87 22.81,110.74 22.81,115.6 C22.8,116.66 23.19,117 24.2,116.94 Z" id="Shape" fill="#FFFFFF"></path>
            <path d="M46.62,117 C49.41,116.93 52.21,117 55,117 C57.79,117 60.59,117 63.39,117 C64.56,117 65.09,116.77 65.07,115.43 C65,110.72 65.01,106.01 65.07,101.3 C65.07,100.15 64.72,99.78 63.57,99.79 C57.9,99.79 52.23,99.84 46.57,99.79 C45.34,99.79 45.11,100.31 45.12,101.37 C45.16,106.076667 45.16,110.79 45.12,115.51 C45.09,116.59 45.46,117 46.62,117 Z" id="Shape" fill="#FFFFFF"></path>
            <path d="M152.79,99.73 C150.08,99.79 147.36,99.73 144.64,99.73 C141.69,99.73 138.73,99.73 135.78,99.73 C134.78,99.73 134.38,100.09 134.38,101.12 C134.38,105.91 134.38,110.71 134.38,115.5 C134.38,116.5 134.59,116.95 135.7,116.94 C141.453333,116.9 147.206667,116.9 152.96,116.94 C153.96,116.94 154.35,116.61 154.34,115.57 C154.34,110.77 154.29,105.98 154.34,101.19 C154.36,100 153.89,99.71 152.79,99.73 Z" id="Shape" fill="#FFFFFF"></path>
            <path d="M113.64,116.94 C116.44,116.94 119.23,116.94 122.02,116.94 C124.81,116.94 127.61,116.94 130.4,116.94 C131.45,116.94 132,116.78 131.99,115.53 C131.93,110.74 131.99,105.95 131.99,101.17 C131.99,100.17 131.77,99.72 130.66,99.73 C124.92,99.77 119.176667,99.77 113.43,99.73 C112.34,99.73 112.09,100.17 112.1,101.15 C112.1,105.94 112.1,110.73 112.1,115.51 C112.06,116.75 112.57,117 113.64,116.94 Z" id="Shape" fill="#FFFFFF"></path>
            <path d="M91.24,117 C94.04,116.92 96.84,117 99.63,117 C102.42,117 105.06,117 107.78,117 C109.64,117 109.67,117 109.68,115.23 C109.68,110.67 109.68,106.116667 109.68,101.57 C109.68,99.88 109.68,99.84 107.97,99.83 C102.46,99.83 96.97,99.83 91.44,99.83 C90.24,99.83 89.72,100.09 89.73,101.4 C89.79,106.11 89.73,110.83 89.73,115.54 C89.73,116.57 90.08,117 91.24,117 Z" id="Shape" fill="#FFFFFF"></path>
            <path d="M69,116.94 C71.71,116.88 74.42,116.94 77.14,116.94 C80.14,116.94 83.04,116.94 85.99,116.94 C86.83,116.94 87.35,116.8 87.34,115.8 C87.34,110.846667 87.34,105.896667 87.34,100.95 C87.34,100 86.92,99.74 86.03,99.75 C80.29,99.75 74.54,99.75 68.8,99.75 C67.72,99.75 67.44,100.15 67.45,101.15 C67.45,105.94 67.45,110.73 67.45,115.52 C67.42,116.71 67.9,117 69,116.94 Z" id="Shape" fill="#FFFFFF"></path>
            <path d="M174.66,99.72 C169.24,99.79 163.81,99.78 158.39,99.72 C157.2,99.72 156.7,99.97 156.72,101.29 C156.786667,105.99 156.786667,110.693333 156.72,115.4 C156.72,116.78 157.3,116.95 158.43,116.93 C161.06,116.93 163.69,116.93 166.33,116.93 C168.97,116.93 171.75,116.93 174.46,116.93 C176.2,116.93 176.24,116.93 176.25,115.27 C176.25,110.65 176.25,106.02 176.25,101.4 C176.29,100.17 176,99.7 174.66,99.72 Z" id="Shape" fill="#FFFFFF"></path>
            <path d="M63.39,80.59 C57.88,80.59 52.39,80.59 46.86,80.59 C45.19,80.59 45.15,80.59 45.13,82.37 C45.13,86.84 45.13,91.31 45.13,95.78 C45.13,96.9 45.41,97.34 46.6,97.3 C49.39,97.22 52.19,97.3 54.99,97.3 C57.79,97.3 60.74,97.25 63.61,97.3 C64.78,97.3 65.11,96.91 65.09,95.78 C65.09,91.23 65.03,86.67 65.09,82.12 C65.1,80.82 64.56,80.58 63.39,80.59 Z" id="Shape" fill="#FFFFFF"></path>
            <path d="M108.46,80.6 C102.713333,80.6 96.9633333,80.6 91.21,80.6 C90.21,80.6 89.75,80.88 89.75,81.95 C89.75,86.66 89.75,91.38 89.75,96.09 C89.75,97 90.05,97.35 91,97.33 C93.88,97.33 96.75,97.33 99.63,97.33 C102.51,97.33 105.38,97.33 108.26,97.33 C109.26,97.33 109.71,97.14 109.7,96.02 C109.7,91.31 109.7,86.59 109.7,81.88 C109.71,81 109.4,80.59 108.46,80.6 Z" id="Shape" fill="#FFFFFF"></path>
            <path d="M152.84,80.59 C147.25,80.59 141.66,80.64 136.07,80.59 C134.8,80.59 134.37,80.99 134.39,82.24 C134.39,86.79 134.44,91.35 134.39,95.9 C134.39,97.12 134.86,97.36 135.95,97.34 C138.74,97.28 141.54,97.34 144.34,97.34 C147.14,97.34 150.09,97.34 152.96,97.34 C153.96,97.34 154.37,97.06 154.36,95.99 C154.32,91.3566667 154.32,86.7233333 154.36,82.09 C154.38,80.88 154,80.58 152.84,80.59 Z" id="Shape" fill="#FFFFFF"></path>
            <path d="M24.22,97.32 C27.01,97.32 29.81,97.32 32.6,97.32 C35.55,97.32 38.51,97.32 41.46,97.32 C42.46,97.32 42.7,96.98 42.7,96.07 C42.7,91.36 42.7,86.66 42.7,81.95 C42.7,80.87 42.27,80.59 41.28,80.59 C35.61,80.59 29.95,80.59 24.28,80.59 C23.12,80.59 22.76,80.98 22.77,82.12 C22.81,86.74 22.81,91.3666667 22.77,96 C22.79,97.1 23.24,97.34 24.22,97.32 Z" id="Shape" fill="#FFFFFF"></path>
            <path d="M85.76,80.58 C80.17,80.65 74.58,80.63 68.99,80.58 C67.9,80.58 67.43,80.85 67.44,82.04 C67.5,86.67 67.44,91.3 67.44,95.93 C67.44,96.93 67.73,97.34 68.79,97.32 C71.66,97.26 74.54,97.32 77.41,97.32 C80.12,97.32 82.84,97.32 85.55,97.32 C87.27,97.32 87.3,97.32 87.31,95.67 C87.31,91.2 87.31,86.73 87.31,82.26 C87.38,81 87.06,80.56 85.76,80.58 Z" id="Shape" fill="#FFFFFF"></path>
            <path d="M130.58,80.59 C124.91,80.59 119.24,80.64 113.58,80.59 C112.39,80.59 112.09,81.01 112.1,82.13 C112.1,86.68 112.17,91.23 112.1,95.78 C112.1,97.13 112.62,97.36 113.78,97.34 C116.49,97.27 119.21,97.34 121.92,97.34 C124.8,97.34 127.67,97.28 130.54,97.34 C131.74,97.34 132.03,96.94 132.02,95.82 C131.973333,91.2733333 131.973333,86.7233333 132.02,82.17 C132,81.07 131.79,80.58 130.58,80.59 Z" id="Shape" fill="#FFFFFF"></path>
            <path d="M176.27,82.25 C176.27,81.01 175.92,80.57 174.63,80.58 C169.21,80.64 163.79,80.64 158.37,80.58 C157.11,80.58 156.71,80.97 156.73,82.22 C156.776667,86.76 156.776667,91.3033333 156.73,95.85 C156.73,97.02 157.1,97.36 158.24,97.33 C160.95,97.26 163.66,97.33 166.37,97.33 C169.08,97.33 171.95,97.28 174.74,97.33 C175.84,97.33 176.3,97.08 176.28,95.88 C176.213333,91.34 176.21,86.7966667 176.27,82.25 Z" id="Shape" fill="#FFFFFF"></path>
            <path d="M41.15,134.47 C42.22,134.47 42.73,134.26 42.71,133.03 C42.64,128.97 42.65,124.9 42.71,120.83 C42.71,119.7 42.41,119.28 41.23,119.32 C38.44,119.4 35.64,119.32 32.85,119.32 C30.06,119.32 27.26,119.32 24.47,119.32 C23.31,119.32 22.76,119.52 22.79,120.87 C22.88,124.87 22.87,128.87 22.79,132.87 C22.79,134.12 23.13,134.52 24.39,134.51 C30,134.43 35.57,134.44 41.15,134.47 Z" id="Shape" fill="#FFFFFF"></path>
            <path d="M63.37,119.32 C60.66,119.38 57.94,119.32 55.23,119.32 C52.23,119.32 49.32,119.32 46.37,119.32 C45.43,119.32 45.1,119.65 45.11,120.56 C45.11,124.71 45.11,128.86 45.11,133.01 C45.11,134.01 45.36,134.46 46.44,134.46 C52.1933333,134.46 57.9433333,134.46 63.69,134.46 C64.69,134.46 65.08,134.11 65.07,133.07 C65.07,129 64.99,124.93 65.07,120.86 C65.11,119.49 64.51,119.3 63.37,119.32 Z" id="Shape" fill="#FFFFFF"></path>
            <path d="M85.88,119.31 C83.09,119.4 80.3,119.31 77.51,119.31 C74.72,119.31 71.92,119.31 69.13,119.31 C67.99,119.31 67.4,119.47 67.43,120.85 C67.52,124.91 67.49,128.98 67.43,133.05 C67.43,134.05 67.69,134.47 68.76,134.46 C74.51,134.46 80.25,134.46 85.99,134.46 C87.08,134.46 87.33,134.02 87.32,133.04 C87.28,128.966667 87.28,124.896667 87.32,120.83 C87.36,119.74 87.09,119.28 85.88,119.31 Z" id="Shape" fill="#FFFFFF"></path>
            <path d="M109.7,120.69 C109.7,119.69 109.34,119.32 108.32,119.33 C102.57,119.33 96.82,119.33 91.07,119.33 C89.97,119.33 89.74,119.78 89.74,120.75 C89.74,124.82 89.74,128.89 89.74,132.96 C89.74,134.1 90.1,134.51 91.25,134.49 C94.12,134.43 97,134.49 99.87,134.49 C102.74,134.49 105.46,134.49 108.25,134.49 C109.25,134.49 109.72,134.29 109.7,133.17 C109.653333,129.01 109.653333,124.85 109.7,120.69 Z" id="Shape" fill="#FFFFFF"></path>
            <path d="M130.29,119.32 C127.58,119.38 124.86,119.32 122.15,119.32 C119.44,119.32 116.57,119.32 113.77,119.32 C112.65,119.32 112.04,119.45 112.07,120.84 C112.16,124.91 112.13,128.98 112.07,133.05 C112.07,134.05 112.32,134.47 113.39,134.47 C119.143333,134.43 124.89,134.43 130.63,134.47 C131.71,134.47 131.97,134.05 131.96,133.06 C131.96,128.99 131.89,124.92 131.96,120.85 C132,119.48 131.43,119.3 130.29,119.32 Z" id="Shape" fill="#FFFFFF"></path>
            <path d="M152.66,119.32 C149.87,119.38 147.07,119.32 144.28,119.32 C141.49,119.32 138.53,119.32 135.66,119.32 C134.72,119.32 134.38,119.63 134.39,120.55 C134.39,124.696667 134.39,128.846667 134.39,133 C134.39,134 134.62,134.47 135.72,134.46 C141.46,134.46 147.206667,134.46 152.96,134.46 C153.96,134.46 154.36,134.13 154.35,133.08 C154.3,129.01 154.28,124.94 154.35,120.87 C154.38,119.51 153.81,119.3 152.66,119.32 Z" id="Shape" fill="#FFFFFF"></path>
            <path d="M158,134.46 C160.79,134.46 163.58,134.46 166.37,134.46 C169.16,134.46 171.95,134.46 174.74,134.46 C175.63,134.46 176.27,134.37 176.26,133.21 C176.26,128.99 176.26,124.76 176.26,120.53 C176.26,119.59 175.86,119.32 174.96,119.33 C169.3,119.33 163.633333,119.33 157.96,119.33 C157.04,119.33 156.7,119.64 156.71,120.57 C156.71,124.79 156.71,129.02 156.71,133.24 C156.72,134.22 157.13,134.47 158,134.46 Z" id="Shape" fill="#FFFFFF"></path>
            <path d="M108.42,136.94 C102.6,136.94 96.77,136.94 90.94,136.94 C89.94,136.94 89.75,137.44 89.75,138.27 C89.75,142.42 89.75,146.57 89.75,150.96 C96.21,150.96 102.35,150.96 108.49,150.96 C109.49,150.96 109.68,150.52 109.68,149.67 C109.68,145.83 109.68,141.996667 109.68,138.17 C109.71,137.23 109.31,136.94 108.42,136.94 Z" id="Shape" fill="#FFFFFF"></path>
            <path d="M130.62,136.93 C124.94,136.93 119.26,136.93 113.62,136.93 C112.48,136.93 112.09,137.25 112.11,138.42 C112.18,142.1 112.2,145.78 112.11,149.42 C112.11,150.81 112.69,150.97 113.82,150.94 C116.53,150.94 119.25,150.94 121.97,150.94 C124.85,150.94 127.74,150.94 130.61,150.94 C131.61,150.94 132.03,150.59 132.02,149.56 C131.98,145.8 131.98,142.04 132.02,138.28 C132,137.3 131.68,136.93 130.62,136.93 Z" id="Shape" fill="#FFFFFF"></path>
            <path d="M86.09,136.94 C80.27,136.94 74.4466667,136.94 68.62,136.94 C67.62,136.94 67.45,137.42 67.45,138.26 C67.45,142.09 67.45,145.92 67.45,149.75 C67.45,150.7 67.79,150.99 68.7,150.98 C71.57,150.98 74.45,150.98 77.32,150.98 C80.19,150.98 83.06,150.98 85.94,150.98 C86.94,150.98 87.35,150.76 87.33,149.67 C87.28,145.84 87.33,142.01 87.33,138.18 C87.35,137.25 87,136.94 86.09,136.94 Z" id="Shape" fill="#FFFFFF"></path>
            <path d="M63.5,136.94 C57.92,136.94 52.33,136.94 46.75,136.94 C45.54,136.94 45.07,137.27 45.09,138.54 C45.16,142.13 45.09,145.72 45.09,149.31 C45.09,150.93 45.09,150.96 46.9,150.97 C49.61,150.97 52.32,150.97 55.03,150.97 C57.9,150.97 60.78,150.97 63.65,150.97 C64.65,150.97 65.03,150.66 65.02,149.61 C65.02,145.87 64.95,142.12 65.02,138.37 C65.09,137.14 64.56,136.93 63.5,136.94 Z" id="Shape" fill="#FFFFFF"></path>
            <path d="M152.92,136.94 C150.04,136.94 147.16,136.94 144.28,136.94 C141.4,136.94 138.68,136.94 135.88,136.94 C134.97,136.94 134.37,137.06 134.38,138.21 C134.38,142.05 134.38,145.89 134.38,149.73 C134.38,150.66 134.78,150.98 135.69,150.97 C141.45,150.97 147.21,150.97 152.96,150.97 C154.03,150.97 154.33,150.55 154.33,149.55 C154.33,145.79 154.28,142.03 154.33,138.27 C154.35,137.2 153.9,136.92 152.92,136.94 Z" id="Shape" fill="#FFFFFF"></path>
            <path d="M41.69,136.93 C36.01,136.93 30.34,136.93 24.69,136.93 C23.37,136.93 23.03,137.34 23.22,139.1 C23.5650011,142.37427 23.5650011,145.67573 23.22,148.95 C23.04,150.76 23.61,151.02 24.89,150.95 C27.61,150.89 30.33,150.95 33.05,150.95 C35.93,150.95 38.81,150.95 41.69,150.95 C42.88,150.95 43.2,150.47 43.06,149.04 C42.6983553,145.827684 42.6815932,142.585884 43.01,139.37 C43.17,137.56 43.06,136.92 41.69,136.93 Z" id="Shape" fill="#FFFFFF"></path>
            <path d="M174.87,136.94 C169.276667,136.94 163.683333,136.94 158.09,136.94 C157.09,136.94 156.71,137.28 156.72,138.32 C156.72,142 156.78,145.67 156.72,149.32 C156.72,150.53 157.04,151.01 158.33,150.97 C161.05,150.88 163.77,150.97 166.48,150.97 C169.19,150.97 172.07,150.97 174.87,150.97 C175.87,150.97 176.27,150.6 176.26,149.57 C176.26,145.82 176.26,142.06 176.26,138.31 C176.28,137.28 175.89,136.93 174.87,136.94 Z" id="Shape" fill="#FFFFFF"></path>
            <path d="M99.37,58.85 L6,58.85 C2.82,58.85 3.13,59.21 3.13,56.08 C3.13,47.28 3.13,38.48 3.13,29.68 C3.12647037,27.36291 3.27344642,25.0480371 3.57,22.75 C4.34861953,17.8339342 8.59267062,14.2180026 13.57,14.23 C17.65,14.23 21.72,14.23 25.8,14.23 C27.6,14.23 27.61,14.23 27.63,16.11 C27.65,17.99 27.63,19.63 27.63,21.39 C27.6177825,21.8687621 27.6512676,22.347598 27.73,22.82 C27.8061864,23.3997761 28.3053263,23.8300691 28.89,23.82 C29.4756817,23.8487066 29.9772672,23.4048257 30.02,22.82 C30.0934497,22.2664624 30.1268698,21.7083471 30.12,21.15 C30.12,19.31 30.12,17.47 30.12,15.63 C30.12,14.63 30.49,14.21 31.52,14.21 C37.6,14.21 43.68,14.21 49.76,14.21 C50.76,14.21 51.2,14.54 51.17,15.59 C51.17,17.35 51.17,19.11 51.17,20.87 C51.1400359,21.4295992 51.1400359,21.9904008 51.17,22.55 C51.24,23.24 51.56,23.8 52.34,23.83 C53.12,23.86 53.48,23.33 53.56,22.63 C53.6066322,22.0712934 53.6233227,21.510491 53.61,20.95 C53.61,19.27 53.61,17.59 53.61,15.95 C53.56,14.76 53.89,14.22 55.21,14.24 C61.21,14.2866667 67.21,14.2866667 73.21,14.24 C74.44,14.24 74.69,14.76 74.66,15.83 C74.66,17.67 74.66,19.51 74.66,21.35 C74.6399708,21.9074402 74.6903689,22.4651797 74.81,23.01 C74.8610076,23.2901723 75.0215973,23.538453 75.2562113,23.6998674 C75.4908252,23.8612817 75.7801057,23.9225118 76.06,23.87 C76.5860642,23.8712903 77.023177,23.4647754 77.06,22.94 C77.15,22.07 77.17,21.19 77.18,20.31 C77.18,18.79 77.18,17.31 77.18,15.75 C77.18,14.81 77.38,14.25 78.49,14.25 C84.73,14.25 90.97,14.25 97.21,14.25 C98.13,14.25 98.49,14.64 98.48,15.54 C98.48,17.46 98.48,19.38 98.48,21.3 C98.4744368,21.8590063 98.5145704,22.4175321 98.6,22.97 C98.7016089,23.5028632 99.1675357,23.8883399 99.71,23.8883399 C100.252464,23.8883399 100.718391,23.5028632 100.82,22.97 C100.926635,22.2618591 100.973467,21.5459981 100.96,20.83 C100.96,19.31 100.96,17.83 100.96,16.27 C100.96,14.27 100.96,14.27 102.96,14.27 C107.84,14.27 112.72,14.27 117.6,14.27 C119.01,14.27 120.79,13.63 121.75,14.65 C122.71,15.67 121.98,17.26 122.03,18.65 C122.03,19.65 122.03,20.73 122.03,21.77 C122.08,23.33 122.49,24.03 123.33,23.89 C124.51,23.7 124.5,22.75 124.51,21.89 C124.51,19.97 124.51,18.05 124.51,16.13 C124.51,14.21 124.51,14.33 126.41,14.33 C132.17,14.33 137.93,14.33 143.69,14.33 C145.49,14.33 145.51,14.38 145.53,16.24 C145.55,18.1 145.53,20.24 145.53,22.24 C145.53,23.09 145.7,23.96 146.78,23.93 C147.86,23.9 147.99,23.04 147.99,22.19 C147.99,20.03 148.04,17.87 147.99,15.72 C147.99,14.72 148.34,14.31 149.38,14.32 C155.46,14.32 161.54,14.32 167.62,14.32 C168.62,14.32 169.07,14.68 169.04,15.72 C169.04,17.63 169.04,19.56 169.04,21.48 C169.029867,22.037128 169.080161,22.5937128 169.19,23.14 C169.335095,23.6091695 169.768907,23.9290922 170.26,23.9290922 C170.751093,23.9290922 171.184905,23.6091695 171.33,23.14 C171.465432,22.5974665 171.525994,22.0389532 171.51,21.48 C171.51,19.56 171.51,17.64 171.51,15.72 C171.51,14.72 171.77,14.27 172.85,14.28 C177.85,14.28 182.94,14.17 187.97,14.36 C192.84,14.54 195.97,18.13 195.83,23.45 C195.62,34.45 195.83,45.36 195.73,56.32 C195.73,59.21 195.81,58.92 193.14,58.92 L99.37,58.85 Z M44.45,40.76 L65.79,40.76 C66.43,40.76 67.07,40.76 67.71,40.76 C68.35,40.76 68.96,40.38 68.95,39.6 C68.94,38.82 68.39,38.49 67.69,38.4 C67.2136641,38.3748856 66.7363359,38.3748856 66.26,38.4 L22.62,38.4 C22.0634777,38.3777958 21.5062811,38.4214317 20.96,38.53 C20.3755758,38.627269 19.9758646,39.173541 20.06,39.76 C20.0578943,40.2789652 20.4531362,40.713297 20.97,40.76 C21.6030308,40.8436781 22.2416921,40.8771158 22.88,40.86 L44.45,40.76 Z" id="Shape" fill="#FD5F52"></path>
        </g>
    </g>
</svg>