<?xml version="1.0" encoding="UTF-8"?>
<svg width="108px" height="128px" viewBox="0 0 108 128" version="1.1" xmlns="http://www.w3.org/2000/svg" xmlns:xlink="http://www.w3.org/1999/xlink">
    <!-- Generator: Sketch 51.2 (57519) - http://www.bohemiancoding.com/sketch -->
    <title>Group 14</title>
    <desc>Created with Sketch.</desc>
    <defs></defs>
    <g id="Page-1" stroke="none" stroke-width="1" fill="none" fill-rule="evenodd">
        <g id="Group-14" fill-rule="nonzero">
            <path d="M107.88,71 C107.668097,68.8502729 107.601279,66.6887108 107.68,64.53 C107.68,47.9833333 107.68,31.43 107.68,14.87 C107.68,12.79 107.68,10.71 107.55,8.64 C107.19,3.39 104.43,0.88 99.2,0.88 L54.58,0.88 L50,0.88 C43.0466667,0.88 36.09,0.88 29.13,0.88 C22.41,0.88 15.69,0.88 8.98,0.88 C5.12290661,0.766924574 1.83685792,3.65969616 1.46,7.5 C1.32020295,8.5274184 1.2500429,9.56311438 1.25,10.6 C1.25,25.72 1.25,40.83 1.25,55.95 C1.25,61.54 1.41,67.14 0.97,72.73 C0.831406386,74.4108554 1.08117507,76.1010708 1.7,77.67 C3.46250155,82.1467243 6.13952536,86.2065365 9.56,89.59 C10.92,90.94 12.29,92.29 13.56,93.7 C18.8658907,99.4559247 24.4597133,104.939606 30.32,110.13 C34.24,113.65 38.01,117.33 42.02,120.77 C44.8324471,123.125333 47.9139002,125.139355 51.2,126.77 C53.0001257,127.755288 55.1624274,127.822163 57.02,126.95 C59.4495456,125.936737 61.760135,124.659038 63.91,123.14 C66.84,120.79 69.73,118.38 72.48,115.83 C77.12,111.55 81.54,107.03 86.43,103.03 C87.2348312,102.368481 87.9748381,101.631823 88.64,100.83 C90.37,98.73 92.34,96.83 94.16,94.83 C97.63,90.98 101.73,87.69 104.43,83.15 C106.72,79.42 108.5,75.61 107.88,71 Z M103.33,80.27 C102.149954,82.4521856 100.724007,84.4921289 99.08,86.35 C96.51,89.09 93.87,91.77 91.2,94.41 C90.2828414,95.2920652 89.4180328,96.2269934 88.61,97.21 C86.942548,99.2591097 85.0731308,101.135227 83.03,102.81 C78.65,106.43 74.79,110.61 70.53,114.36 C66.27,118.11 62.34,121.95 57.08,124.24 C55.22,125.04 53.55,125.34 51.84,124.37 C48.9034617,122.756713 46.1158642,120.886044 43.51,118.78 C39.33,115.28 35.38,111.56 31.51,107.78 C27.39,103.78 22.78,100.35 19.13,95.78 C16.8624252,93.091814 14.4026224,90.5718531 11.77,88.24 C8.62687002,85.259037 6.12870549,81.6649474 4.43,77.68 C3.63713906,76.0086265 3.33874285,74.145385 3.57,72.31 C3.80802488,70.0817787 3.89155777,67.8397557 3.82,65.6 C3.82,47.28 3.82,28.9466667 3.82,10.6 C3.82,8.67 3.82,6.77 5.15,5.13 C5.76740418,4.18201774 6.80925654,3.5957424 7.94,3.56 C9.3,3.56 10.65,3.4 12.01,3.4 L45.85,3.4 C48.73,3.4 51.6,3.74 54.48,3.57 C68.63,3.26 82.79,3.44 96.95,3.41 C98.07,3.41 99.18,3.48 100.3,3.56 C102.794448,3.54831382 104.871099,5.47194834 105.05,7.96 C105.146947,8.83310593 105.1837,9.71184802 105.16,10.59 C105.16,29.87 105.16,49.15 105.16,68.43 C105.129591,69.0680802 105.159725,69.7076065 105.25,70.34 C105.907775,73.7769525 105.220455,77.335261 103.33,80.28 L103.33,80.27 Z" id="Shape" fill="#222222"></path>
            <path d="M97,66 L97,18.51 C97,15.85 96.09,14.62 93.53,13.81 C92.2313485,13.4310839 90.8825197,13.2523641 89.53,13.28 C77.8566667,13.28 66.19,13.28 54.53,13.28 C42.87,13.28 31.28,13.28 19.76,13.28 C18.4803239,13.2364383 17.2009328,13.3744779 15.96,13.69 C12.96,14.54 12.08,15.69 12.08,18.8 C12.08,36.06 12.0433333,53.3266667 11.97,70.6 C11.9901114,73.0122031 12.7319633,75.3631422 14.1,77.35 C16.4156307,81.0978532 19.0952681,84.6081782 22.1,87.83 C26.29,92.11 29.72,97.11 34.46,100.83 C37.7813811,103.591623 40.9462876,106.536188 43.94,109.65 C46.3124821,112.014825 49.0054733,114.034568 51.94,115.65 C53.5848181,116.738349 55.7043791,116.800347 57.41,115.81 C59.9447214,114.437264 62.2657925,112.702356 64.3,110.66 C65.53,109.3 66.86,108.02 68.17,106.73 C73.4,101.59 79.17,97.08 83.91,91.33 C87.55,86.89 91.55,82.74 94.67,77.87 C96.4033529,75.4484873 97.2731929,72.5149782 97.14,69.54 C97,68.37 97,67.17 97,66 Z M92.74,76.5 C89.6923805,81.2603657 86.1456479,85.6820484 82.16,89.69 C81.58,90.28 80.7,91.3 80.16,91.94 C77.0682677,95.8528086 73.379776,99.2544551 69.23,102.02 C66.672375,103.789087 64.4819662,106.037227 62.78,108.64 C61.05,111.18 58.44,112.44 56.02,114 C55.1606493,114.47999 54.1039208,114.43354 53.29,113.88 C50.6255694,112.483241 48.1961706,110.678062 46.09,108.53 C44.98,107.53 43.86,106.48 42.81,105.39 C39.11,101.56 34.65,98.57 31.1,94.59 C27.55,90.61 24.1,86.91 20.82,82.88 C18.38,79.88 15.99,76.8 14.68,73.06 C14.4993044,72.4560489 14.4017404,71.8302936 14.39,71.2 L14.48,20.47 C14.48,19.91 14.48,19.35 14.48,18.79 C14.34,17.41 15.08,16.79 16.31,16.42 C17.61763,16.0987234 18.965265,15.9706981 20.31,16.04 C24.71,16.04 29.11,16.04 33.5,16.04 L54.38,16.04 C65.6533333,16.04 76.9266667,16.04 88.2,16.04 C89.7985944,15.9212023 91.405686,16.0802198 92.95,16.51 C93.9366707,16.7066632 94.6042085,17.6316174 94.48,18.63 C94.48,19.1 94.48,19.58 94.48,20.06 C94.48,35.5 94.48,50.9366667 94.48,66.37 C94.48,68.05 94.43,69.72 94.48,71.37 C94.4228578,73.2121552 93.8015323,74.9923574 92.7,76.47 L92.74,76.5 Z" id="Shape" fill="#222222"></path>
            <path d="M62.39,36.62 C59.5035771,36.8267136 56.7609598,37.9595337 54.57,39.85 C54.2498607,40.0893671 53.9159537,40.3097457 53.57,40.51 C48.57,35.38 41.34,35.57 36.22,39.93 C35.0648015,40.9151961 33.994374,41.9956589 33.02,43.16 C31.6834299,44.7672539 30.9480181,46.7896363 30.94,48.88 C30.67,56.02 33.65,61.76 38.59,66.56 C42.0087348,69.9272296 45.8115046,72.8808372 49.92,75.36 C51.0382675,76.1239847 52.2748533,76.6983552 53.58,77.06 C54.1932278,77.2365426 54.8532484,77.130206 55.38,76.77 C58.8144246,74.585404 62.1106952,72.1908488 65.25,69.6 C70.1126565,65.6263731 73.5578345,60.1849565 75.07,54.09 C75.9325792,50.9875403 75.8770016,47.7015154 74.91,44.63 C73.2757076,39.2433757 67.9656382,35.8461188 62.39,36.62 Z M72.58,53.91 C71.1325435,59.4394919 67.9328345,64.3513258 63.46,67.91 C60.7858822,70.1895517 57.9296812,72.2464177 54.92,74.06 C54.2109337,74.5883496 53.2390663,74.5883496 52.53,74.06 C46.93,70.48 41.48,66.74 37.4,61.32 C34.797661,57.8641937 33.4091273,53.6458635 33.45,49.32 C33.11,47.4 34.25,45.39 36.03,43.59 C37.6076147,41.8815877 39.5534429,40.5547312 41.72,39.71 C45.2021863,38.4835199 49.0802942,39.4648703 51.56,42.2 C51.83,42.5 52.07,42.82 52.35,43.11 C54,44.84 54.35,44.76 55.48,42.71 C56.3230633,41.4438489 57.5603645,40.4912676 59,40 C61.2915874,38.9782418 63.8514623,38.7222544 66.3,39.27 C69.0755282,39.9937952 71.3184232,42.0348297 72.3,44.73 C73.4363199,47.6687654 73.5351031,50.9074439 72.58,53.91 Z" id="Shape" fill="#222222"></path>
            <path d="M68.83,44.56 C68.33,44.09 67.74,43.83 67.12,44.33 C66.63853,44.6769999 66.5113275,45.3393303 66.83,45.84 C67.3089665,46.5821171 67.6478965,47.405717 67.83,48.27 C67.95,49.14 68.03,50.01 68.17,50.88 C68.1757419,51.2076166 68.3209647,51.5172267 68.569208,51.7310978 C68.8174513,51.944969 69.145139,52.0427895 69.47,52 C70.0537309,51.9364369 70.5038447,51.4565986 70.53,50.87 C70.53,50.55 70.53,50.23 70.58,49.98 C70.5891868,49.5588234 70.5657837,49.1375671 70.51,48.72 C70.15,47.25 70,45.69 68.83,44.56 Z" id="Shape" fill="#222222"></path>
            <path d="M94.5,66.34 C94.5,50.9066667 94.5,35.47 94.5,20.03 C94.5,19.55 94.5,19.03 94.5,18.6 C94.6242085,17.6016174 93.9566707,16.6766632 92.97,16.48 C91.425686,16.0502198 89.8185944,15.8912023 88.22,16.01 C76.9466667,16.01 65.6733333,16.01 54.4,16.01 L33.52,16.01 C29.13,16.01 24.73,16.01 20.33,16.01 C18.985265,15.9406981 17.63763,16.0687234 16.33,16.39 C15.1,16.76 14.33,17.39 14.5,18.76 C14.55,19.32 14.5,19.88 14.5,20.44 L14.41,71.88 C14.413772,72.0422475 14.4372781,72.2034327 14.48,72.36 C15.72,76.41 18.26,79.68 20.84,82.85 C24.11,86.85 27.67,90.68 31.12,94.56 C34.73,98.56 39.27,101.63 43,105.56 C43.5466667,106.14 44.1166667,106.7 44.71,107.24 C47.36,109.63 49.97,112.33 53.31,113.87 C54.1239208,114.42354 55.1806493,114.46999 56.04,113.99 C59.04,112.08 62.26,110.61 63.81,106.72 C64.2809978,105.506527 65.1524661,104.490402 66.28,103.84 C71.9667587,100.623158 76.9298973,96.269348 80.86,91.05 C81.0133807,90.8487444 81.1804428,90.6582936 81.36,90.48 C85.6604571,86.2521533 89.4741972,81.5562553 92.73,76.48 C93.8494034,75.0083439 94.4883686,73.2276214 94.56,71.38 C94.45,69.69 94.5,68 94.5,66.34 Z M75.11,54.09 C73.5978345,60.1849565 70.1526565,65.6263731 65.29,69.6 C62.1506952,72.1908488 58.8544246,74.585404 55.42,76.77 C54.8932484,77.130206 54.2332278,77.2365426 53.62,77.06 C52.3148533,76.6983552 51.0782675,76.1239847 49.96,75.36 C45.8515046,72.8808372 42.0487348,69.9272296 38.63,66.56 C33.69,61.76 30.71,56.02 30.98,48.88 C30.9880181,46.7896363 31.7234299,44.7672539 33.06,43.16 C34.034374,41.9956589 35.1048015,40.9151961 36.26,39.93 C41.38,35.57 48.56,35.38 53.61,40.51 C53.9559537,40.3097457 54.2898607,40.0893671 54.61,39.85 C56.8009598,37.9595337 59.5435771,36.8267136 62.43,36.62 C68.0167697,35.8238165 73.3495362,39.2204831 74.99,44.62 C75.9458638,47.6984968 75.9875505,50.9882709 75.11,54.09 Z" id="Shape" fill="#FFFFFF"></path>
            <path d="M105.25,70.39 C105.159725,69.7576065 105.129591,69.1180802 105.16,68.48 C105.16,49.2 105.16,29.92 105.16,10.64 C105.1837,9.76184802 105.146947,8.88310593 105.05,8.01 C104.871099,5.52194834 102.794448,3.59831382 100.3,3.61 C99.18,3.53 98.07,3.46 96.95,3.46 C82.79,3.46 68.63,3.31 54.48,3.62 C51.6,3.79 48.73,3.45 45.85,3.45 L12,3.45 C10.64,3.45 9.29,3.62 7.93,3.61 C6.79925654,3.6457424 5.75740418,4.23201774 5.14,5.18 C3.82,6.82 3.81,8.72 3.81,10.65 C3.81,28.97 3.81,47.3033333 3.81,65.65 C3.88155777,67.8897557 3.79802488,70.1317787 3.56,72.36 C3.32874285,74.195385 3.62713906,76.0586265 4.42,77.73 C6.11870549,81.7149474 8.61687002,85.309037 11.76,88.29 C14.3926224,90.6218531 16.8524252,93.141814 19.12,95.83 C22.77,100.39 27.38,103.83 31.5,107.83 C35.4,111.61 39.35,115.33 43.5,118.83 C46.1058642,120.936044 48.8934617,122.806713 51.83,124.42 C53.54,125.42 55.21,125.09 57.07,124.29 C62.33,122 66.35,118.09 70.52,114.41 C74.69,110.73 78.64,106.48 83.02,102.86 C85.0631308,101.185227 86.932548,99.3091097 88.6,97.26 C89.4080328,96.2769934 90.2728414,95.3420652 91.19,94.46 C93.86,91.82 96.5,89.14 99.07,86.4 C100.714007,84.5421289 102.139954,82.5021856 103.32,80.32 C105.211352,77.3793387 105.902171,73.8250218 105.25,70.39 Z M94.58,77.89 C91.46,82.76 87.46,86.89 83.82,91.35 C79.12,97.1 73.31,101.61 68.08,106.75 C66.77,108.04 65.44,109.32 64.21,110.68 C62.1757925,112.722356 59.8547214,114.457264 57.32,115.83 C55.6143791,116.820347 53.4948181,116.758349 51.85,115.67 C48.9154733,114.054568 46.2224821,112.034825 43.85,109.67 C40.8562876,106.556188 37.6913811,103.611623 34.37,100.85 C29.63,97.11 26.2,92.11 22.01,87.85 C19.0052681,84.6281782 16.3256307,81.1178532 14.01,77.37 C12.6419633,75.3831422 11.9001114,73.0322031 11.88,70.62 C11.94,53.3533333 11.9766667,36.0866667 11.99,18.82 C11.99,15.71 12.88,14.56 15.87,13.71 C17.1109328,13.3944779 18.3903239,13.2564383 19.67,13.3 C31.2633333,13.3 42.8533333,13.3 54.44,13.3 C66.0266667,13.3 77.6933333,13.3 89.44,13.3 C90.7925197,13.2723641 92.1413485,13.4510839 93.44,13.83 C96,14.64 96.91,15.83 96.91,18.53 L96.91,66 C96.91,67.2 96.91,68.4 97,69.59 C97.1409357,72.549057 96.2891783,75.4703738 94.58,77.89 Z" id="Shape" fill="#FA5E52"></path>
            <path d="M66.34,39.27 C63.8914623,38.7222544 61.3315874,38.9782418 59.04,40 C57.5856316,40.483531 56.333289,41.4368592 55.48,42.71 C54.31,44.76 54,44.84 52.35,43.11 C52.07,42.82 51.83,42.5 51.56,42.2 C49.0802942,39.4648703 45.2021863,38.4835199 41.72,39.71 C39.5534429,40.5547312 37.6076147,41.8815877 36.03,43.59 C34.25,45.39 33.11,47.4 33.45,49.32 C33.4091273,53.6458635 34.797661,57.8641937 37.4,61.32 C41.48,66.74 46.93,70.48 52.53,74.06 C53.2390663,74.5883496 54.2109337,74.5883496 54.92,74.06 C57.9296812,72.2464177 60.7858822,70.1895517 63.46,67.91 C67.9328345,64.3513258 71.1325435,59.4394919 72.58,53.91 C73.5383028,50.9085779 73.4430479,47.6699118 72.31,44.73 C71.334306,42.0421018 69.1041137,40.0024284 66.34,39.27 Z M70.51,50.87 C70.4838447,51.4565986 70.0337309,51.9364369 69.45,52 C69.125139,52.0427895 68.7974513,51.944969 68.549208,51.7310978 C68.3009647,51.5172267 68.1557419,51.2076166 68.15,50.88 C68.01,50.01 67.93,49.14 67.81,48.27 C67.6278965,47.405717 67.2889665,46.5821171 66.81,45.84 C66.4913275,45.3393303 66.61853,44.6769999 67.1,44.33 C67.72,43.83 68.31,44.09 68.81,44.56 C69.98,45.69 70.13,47.25 70.47,48.72 C70.5257837,49.1375671 70.5491868,49.5588234 70.54,49.98 C70.55,50.23 70.55,50.55 70.51,50.87 Z" id="Shape" fill="#FA5E52"></path>
        </g>
    </g>
</svg>