<svg xmlns="http://www.w3.org/2000/svg" xmlns:xlink="http://www.w3.org/1999/xlink" width="50" height="50" viewBox="0 0 50 50"><defs><path id="5t5wa" d="M583 2036.84a21.41 21.41 0 0 0-8.04-7.84 24.08 24.08 0 0 0-8.22-2.83 10.16 10.16 0 0 0-6.37.9 15.07 15.07 0 0 0-5.59 5.27c2.5-.64 5.14-.9 7.97-.7.9.64.13 1.41-.58 1.48-3.34.38-6.55.7-9.45 2.05a22.6 22.6 0 0 0-8.29 6.69c-1.99 2.57-3.47 5.59-3.98 8.8-.58 3.21-.2 7.26.83 10.28a14.73 14.73 0 0 0 5.66 7.52c2.76 1.87 6.1 2.77 9.64 2.96a37 37 0 0 0 14.27-2.38 22.66 22.66 0 0 0 9.25-6.62c3.09-3.6 5.14-7.97 5.53-12.4.45-4.82-.39-9.32-2.63-13.18zm-1.8 27.51a27.8 27.8 0 0 1-13.24 7.97c-3.8.9-8.04 1.41-12.09 1.1-5.2-.4-10.09-2.2-13.56-6.24-2.5-2.96-3.85-6.81-4.24-10.93-.32-4.05.45-8.22 2.19-11.63 2.57-5.01 7.64-9.9 12.91-11.7.2-3.08 3.22-5.52 5.53-7.07 2.77-1.8 5.72-2.12 8.68-1.67 4.63.77 8.8 2.83 12.66 5.85a20.4 20.4 0 0 1 5.6 6.81c2.56 4.95 2.95 10.86 1.6 16.65a24.66 24.66 0 0 1-6.04 10.86z"/><path id="5t5wb" d="M570.91 2057.03c-1.47.45-3.02.64-4.62.64-.13 1.73.19 3.28.13 4.88 0 .39-.78.45-1.03.2a12.3 12.3 0 0 1-1.22-5.08c-3.86-.07-7.59.32-11.32.64-.83-.06-1.73-.58-2.05-1.41-.45-1.22.13-2.19.9-2.96 4.75-4.75 9.57-9.64 14.65-14.14a.98.98 0 0 1 1.29.45v1.22c-.77 4.57-1.42 9.2-1.35 14.08 1.54 0 3.72.13 5.14.26.45.45-.2 1.02-.52 1.22zm-18.06-1.21c-.12.12 0 .25.13.32 3.73-.32 7.34-.52 11.07-.58 0-4.05.45-8.1 1.03-11.97-3.28 3.16-9.2 9.2-12.23 12.23z"/></defs><g><g transform="translate(-538 -2024)"><use fill="#ff6053" xlink:href="#5t5wa"/></g><g transform="translate(-538 -2024)"><use fill="#222" xlink:href="#5t5wb"/></g></g></svg>