<?xml version="1.0" encoding="UTF-8"?>
<svg width="306px" height="412px" viewBox="0 0 306 412" version="1.1" xmlns="http://www.w3.org/2000/svg" xmlns:xlink="http://www.w3.org/1999/xlink">
    <!-- Generator: Sketch 51.2 (57519) - http://www.bohemiancoding.com/sketch -->
    <title>Group 4</title>
    <desc>Created with Sketch.</desc>
    <defs></defs>
    <g id="Page-1" stroke="none" stroke-width="1" fill="none" fill-rule="evenodd">
        <g id="Group-4" fill-rule="nonzero">
            <path d="M304.28,153.85 C302.35,151.74 300.5,149.51 297.79,148.25 C295.79,147.3 293.73,146.39 291.63,145.61 C283.4,142.55 274.74,141.42 266.18,139.89 C260.18,138.83 254.06,138.89 248,138.72 C235.446845,138.162392 222.870833,139.021144 210.51,141.28 C202.6,142.83 194.69,144.43 186.76,145.92 C180.63,147.07 174.44,148.11 168.19,147.92 C162.03256,147.912666 155.883533,147.464857 149.79,146.58 C139.850604,145.030147 130.166281,142.144023 121,138 C120.54,137.78 119.89,137.75 119.81,137 C119.93,136.89 120.03,136.71 120.16,136.7 C124.596046,136.158404 128.956909,135.118506 133.16,133.6 C139.320001,131.615692 144.557298,127.475565 147.91,121.94 C153,113.49 155.81,104.35 154.98,94.31 C154.589938,90.1683856 153.792754,86.0752799 152.6,82.09 C150.097358,73.710073 145.785921,65.9815742 139.97,59.45 C133.713035,52.2142482 125.831242,46.5633458 116.97,42.96 C115.72,42.44 114.43,41.96 113.2,41.41 C109.29,39.59 105.2,37.88 102.5,34.35 C98.5,29.09 94.14,24.02 90.87,18.21 C87.6147349,12.3566475 82.3557081,7.87528905 76.06,5.59 C73,4.42 69.86,3.52 66.75,2.54 C62.5351829,1.09215151 58.1248637,0.293034039 53.67,0.17 C40.9,0.08 29.38,3.54 19.42,11.71 C10.74,18.83 4.74,27.77 2.22,38.71 C0.0189448442,47.6880325 0.132489323,57.0778168 2.55,66 C4.18429873,71.365742 4.92418999,76.9639146 4.74,82.57 C4.550591,87.7805031 5.72243672,92.9504107 8.14,97.57 C11.41,104.31 16.53,108.74 23.87,110.44 C25.63,110.84 27.43,111.05 29.6,111.44 C28.8144297,111.980666 27.9512366,112.398775 27.04,112.68 C24.45,113.9 21.68,114.85 19.72,117.12 C17.97,119.12 17.66,121.26 19.11,123.47 C19.6911033,124.222732 19.6618356,125.280551 19.04,126 C11.7697999,137.865329 6.05624003,150.61665 2.04,163.94 C0.612929064,168.362931 -0.0630937372,172.993687 0.04,177.64 C0.388822738,185.04702 5.33771168,191.442999 12.42,193.64 C14.8235655,194.540899 17.3733026,194.988459 19.94,194.96 C20.87,194.9 21.11,195.32 21.22,196.2 C21.71,200.32 22.46,204.42 22.81,208.55 C23.6989807,217.405795 23.021982,226.348949 20.81,234.97 C16.9914809,248.938613 14.72116,263.284895 14.04,277.75 C13.741263,285.749161 14.0991294,293.759348 15.11,301.7 C16.45,312.89 17.64,324.09 18.83,335.29 C19.55,342.05 20.37,348.8 20.83,355.58 C21.43,364.58 23.23,373.46 22.7,382.58 C22.48,386.42 22.14,390.04 20.17,393.39 C19.6426518,394.284511 19.1620074,395.205746 18.73,396.15 C17.21,399.49 15.19,402.61 14.26,406.2 C13.55,409 14.38,410.27 17.17,410.86 C17.7217919,410.957202 18.27994,411.01402 18.84,411.03 C21.487034,411.096098 24.1120644,410.534081 26.5,409.39 C32.25,407 38.09,404.86 43.97,402.79 C47.7396985,401.444704 51.698836,400.70553 55.7,400.6 C58.7,400.52 61.59,400.08 64.53,399.8 C70.42,399.22 76.31,398.73 82.2,398.21 C82.91,398.14 83.61,398 84.06,398.86 C84.82,400.35 86.29,400.86 87.78,401.24 C88.62,401.48 89.63,401.53 90.15,402.24 C90.9465812,403.146395 91.9885167,403.802815 93.15,404.13 C98.2782756,406.334357 103.56272,408.156003 108.96,409.58 C111.149031,410.358222 113.579468,409.435164 114.7,407.4 C115.05,406.87 115.37,406.31 115.7,405.76 C117.8,402.13 120.44,399.15 124.63,397.87 C125.614975,397.545972 126.57155,397.141268 127.49,396.66 C128.94208,395.988222 130.354403,395.233648 131.72,394.4 C133.14,393.49 133,391.97 131.51,391.2 C131.068521,391.02925 130.613624,390.895457 130.15,390.8 C126.43,389.6 122.6,389.53 118.75,389.51 C115.47,389.51 112.19,389.51 108.92,389.39 C107.92,389.39 106.8,389.46 106.1,388.39 C104.27,385.7 102.75,382.94 103.44,379.49 C103.62,378.55 103.64,377.58 103.75,376.62 C104.86,367.19 106.08,357.77 106.68,348.27 C107.02,342.85 107.68,337.44 108.34,332.05 C109.93,319.27 111.71,306.52 112.53,293.66 C112.467084,293.024316 112.603375,292.384798 112.92,291.83 C118.005238,292.281505 123.118792,292.318293 128.21,291.94 C133.844205,291.294561 139.439135,290.343156 144.97,289.09 C150.52,287.91 156.09,286.85 161.32,284.5 C163.86,283.36 166.51,282.43 169.15,281.55 C173.788831,280.057365 178.243845,278.044558 182.43,275.55 C185.31,273.82 188.23,272.17 191.14,270.5 C197.72251,266.863681 203.949739,262.618452 209.74,257.82 C219.14,249.77 227.25,240.47 234.82,230.75 C242.92,220.35 250.21,209.33 258.58,199.11 C259.29,198.25 259.91,197.31 260.58,196.4 C263.879503,191.482376 267.712809,186.944788 272.01,182.87 C274.5,180.62 276.94,178.3 279.29,175.87 C284.364849,170.749408 290.138752,166.372689 296.44,162.87 C298.971191,161.499673 301.418827,159.980335 303.77,158.32 C305.45,157 305.76,155.47 304.28,153.85 Z M68.36,117.45 C69.5506264,117.002441 70.8007358,116.732876 72.07,116.65 C72.95,116.65 73.98,116.5 73.84,115.25 C73.72,114.17 72.75,114.25 71.97,114.25 C71.7402267,114.235559 71.5097733,114.235559 71.28,114.25 C70.7176018,114.335423 70.1485346,114.368897 69.58,114.35 C68.91,114.24 68.9,113.73 69.21,113.29 C70.0933072,111.991664 71.7901256,111.529281 73.21,112.2 C77.6615147,114.169827 81.9629901,116.46261 86.08,119.06 C87.1822438,119.720906 88.1166132,120.627894 88.81,121.71 C89.2880805,122.377127 89.3610652,123.252944 89,123.99 C88.57,124.75 87.77,124.58 87.06,124.58 C85.9411167,124.522169 84.8410794,124.268314 83.81,123.83 C80.442391,122.54917 76.8625846,121.918038 73.26,121.97 C71.9833384,121.951062 70.709842,121.837416 69.45,121.63 C68.9725276,121.6157 68.5057306,121.485271 68.09,121.25 C67.34,120.74 66.22,120.42 66.37,119.2 C66.52,117.98 67.37,117.73 68.36,117.45 Z M63.81,119.01 C63.7602103,119.329458 63.5590425,119.605132 63.27,119.75 C61.69,120.68 60.15,121.67 58.56,122.57 C57.5863271,123.173474 56.3718038,123.237595 55.34,122.74 C51.95,121.12 48.67,119.35 46.18,116.42 C45.98,116.18 45.69,115.97 45.6,115.69 C45.3786474,115.161317 45.4671074,114.553635 45.83,114.11 C46.22,113.66 46.7,114.01 47.13,114.18 C50.7389919,115.69458 54.6161144,116.466604 58.53,116.45 C61.2391184,116.240604 63.919726,115.754744 66.53,115 C65.0253383,115.810049 64.010192,117.302911 63.81,119 L63.81,119.01 Z M13.62,87.47 C12.4858344,87.5291127 11.3504333,87.3799854 10.27,87.03 C10.9129443,85.3751623 11.9414145,83.8975933 13.27,82.72 C14.18,83.93 14.18,85.3 14.43,86.58 C14.55,87.18 14.19,87.44 13.62,87.47 Z M28.78,100.15 C25.2989697,95.9673443 22.3560235,91.3647915 20.02,86.45 C19.5217804,85.7422177 19.5217804,84.7977823 20.02,84.09 C20.64,83.09 19.8,82.16 18.61,82.55 C16.98,83.09 16.18,82.68 15.47,81.12 C14.76,79.56 13.72,79.41 12.3,80.31 C11.3,80.96 10.78,80.62 10.05,80.01 C7.48,77.85 5.55,71.84 7.59,68.58 C8.2248285,67.4688629 9.09105561,66.5071462 10.13,65.76 C11.7824114,64.4783768 14.1276787,64.6150773 15.62,66.08 C16.1,66.49 16.49,67 16.95,67.45 C17.54,68.05 18.24,68.6 18.95,67.8 C19.66,67 19.18,66.34 18.61,65.71 C18.0357197,64.9296603 17.332252,64.2532491 16.53,63.71 C15.865679,63.3866054 15.544627,62.6203614 15.78,61.92 C16.0398033,59.4430693 16.9929594,57.0896402 18.53,55.13 C20.0498799,53.267602 21.8083199,51.6133908 23.76,50.21 C30.07,45.71 36.76,41.72 42.76,36.8 C42.86,36.71 43.06,36.74 43.43,36.69 C43.74,41.07 45.63,43.05 49.43,43.02 C51.941612,43.1280352 54.0747654,41.1997357 54.22,38.69 C53.41,38.8 53.16,39.59 52.6,39.92 C51.5969884,40.6211772 50.2883066,40.7097057 49.2,40.15 C48.05,39.6 47.97,38.63 47.87,37.56 C47.6983726,35.3718954 48.4198353,33.2075073 49.87,31.56 C52.3,28.45 55.68,26.92 59.41,25.44 C60.3,28.97 62.11,31.97 63.76,35.05 C64.7916857,36.9448273 66.0400575,38.713354 67.48,40.32 C70.74,44.07 74.34,47.47 77.92,50.91 C78.8388178,51.7999431 79.8670633,52.5694471 80.98,53.2 C83.98,54.87 85.92,57.48 87.71,60.2 C88.83,61.92 88.81,64.03 88.85,65.99 C88.860066,68.310421 88.5230038,70.6192972 87.85,72.84 C85.5418562,81.1141531 82.582621,89.192698 79,97 C77.3710048,100.564845 75.2356233,103.875697 72.66,106.83 C67.16,113.06 60.42,115.35 52.4,113.29 C47.3578318,112.042759 42.483137,110.196284 37.88,107.79 C34.3658011,105.878202 31.2712954,103.280178 28.78,100.15 Z M21.03,119.55 C21.5972678,118.570899 22.4244741,117.767921 23.42,117.23 C28.2747951,114.601317 33.5012598,112.726534 38.92,111.67 C40.46,111.33 41.64,112.38 42.92,113.01 C43.23,113.16 43.24,113.55 43.19,113.86 C43.09,114.36 42.72,114.45 42.29,114.42 L38.46,114.15 L38.46,114.25 C37.18,114.25 35.9,114.25 34.62,114.25 C33.89,114.25 33.1,114.4 33.06,115.36 C33.02,116.32 33.87,116.67 34.7,116.65 C36.9299682,116.518314 39.1668311,116.56178 41.39,116.78 C42.5191164,116.873034 43.5802522,117.357619 44.39,118.15 C45.25,119.03 45.12,120 43.97,120.4 C42.7813639,120.879608 41.4979888,121.078103 40.22,120.98 C38.32,120.75 36.4,120.64 34.49,120.49 C31.527066,120.169509 28.5364254,120.751603 25.91,122.16 C25.2709217,122.515142 24.6016392,122.812972 23.91,123.05 C23.009914,123.484889 21.9284969,123.235331 21.31,122.45 C20.5829977,121.655412 20.4573828,120.480306 21,119.55 L21.03,119.55 Z M17.78,192.34 C9.95,191.52 4.48,187.34 2.78,180.03 C1.99,176.7 2.47,173.33 3.1,170.03 C4.58,162.29 7.52,155.03 10.59,147.82 C13.3989429,141.019292 16.742757,134.452042 20.59,128.18 C21.49,126.74 22.23,125.37 24.34,125.43 C25.27,125.43 26.24,124.69 27.17,124.22 C29.5505215,123.063921 32.2099613,122.606233 34.84,122.9 C37.53,123.11 40.22,123.73 42.94,123.22 C43.8320582,123.1679 44.7009083,123.516173 45.31,124.17 C47.92,126.17 50.99,127.42 53.69,129.28 C54.7600153,129.855159 56.0217906,129.956681 57.17,129.56 C59.0490262,129.159025 60.8653952,128.506478 62.57,127.62 C64.72,126.56 67.05,125.91 69.1,124.62 C69.4873896,124.331208 69.956824,124.173562 70.44,124.17 C74.74,124.43 79.07,124.41 83.17,126.05 C84.35,126.52 85.62,126.77 86.82,127.19 C88.02,127.61 88.96,126.91 90,126.65 C93,130.22 94.78,134.41 96.62,138.56 C98.92,143.75 101.94,148.56 104.33,153.72 C106.861222,158.79679 108.829592,164.135197 110.2,169.64 C111.119232,173.134631 111.170725,176.800932 110.35,180.32 C110.04922,181.568085 109.516651,182.748558 108.78,183.8 C104.45,189.6 98.78,192.8 91.42,192.8 C85.4189248,192.892644 79.4259612,192.322524 73.55,191.1 C67.5548524,189.729418 61.6896198,187.842373 56.02,185.46 C55.6685814,185.272516 55.3340057,185.055042 55.02,184.81 C55.16,184.55 55.21,184.27 55.37,184.15 C59.83,181.05 64.23,177.79 69.21,175.58 C74.46,173.25 79.41,170.26 84.83,168.31 C85.4090771,168.188009 85.9150366,167.838869 86.2345749,167.340765 C86.5541132,166.842661 86.660532,166.237212 86.53,165.66 C86.21,160.66 85,155.72 84.28,150.74 C84.11,149.56 83.85,148.38 83.62,147.21 C83.5622118,146.815609 83.4684884,146.427326 83.34,146.05 C83.2731785,145.731121 83.0805859,145.452663 82.8057941,145.277624 C82.5310023,145.102586 82.1972338,145.045759 81.88,145.12 C81.08,145.3 80.94,145.94 81.06,146.62 C81.46,148.98 81.95,151.33 82.3,153.7 C82.84,157.33 83.67,160.92 84.03,164.58 C84.15,165.83 83.53,166.28 82.55,166.66 C81.75,166.97 81.36,166.38 80.89,166.01 C77.48,163.28 73.43,162.13 69.27,161.25 C68.8027428,161.147465 68.327777,161.083913 67.85,161.06 C60.73,160.92 53.61,160.64 46.6,162.29 C45.6067224,162.618952 44.5218744,162.524931 43.6,162.03 C39.6147446,159.724379 34.9342421,158.925961 30.41,159.78 C30.2526564,159.77645 30.0970794,159.746011 29.95,159.69 C29.53,159.19 29.79,158.63 29.89,158.12 C30.62,154.6 31.38,151.12 32.13,147.57 C32.13,147.34 32.26,147.11 32.3,146.88 C32.41,146.2 32.3,145.54 31.61,145.28 C30.92,145.02 30.21,145.49 29.96,146.23 C29.6608708,147.141528 29.4302294,148.074121 29.27,149.02 C28.64,152.72 27.72,156.36 26.97,160.02 C26.8261707,160.966589 26.2391535,161.78767 25.39,162.23 C23.5229135,163.155101 21.7985924,164.343939 20.27,165.76 C19.52,166.54 18.62,166.11 17.78,166.17 C16.94,166.23 15.78,165.87 15.44,167.17 C15.24,168.05 16.03,168.5 17.73,168.59 C23.36,168.87 28.85,167.85 34.39,167.02 C40.7,166.07 46.84,164.1 53.22,163.67 C58.79,163.3 64.42,162.72 69.95,163.88 C73.2,164.56 76.48,165.42 79.2,167.93 C76.96,169.06 74.9,170.24 72.74,171.16 C66.941147,173.664883 61.43206,176.793294 56.31,180.49 C49.0806105,185.520831 40.9748517,189.156552 32.41,191.21 C27.6404534,192.460341 22.6849794,192.843094 17.78,192.34 Z M96.56,221.65 C97,223.23 96.93,223.26 95.33,223.81 C89.6138531,225.873076 83.6276801,227.092544 77.56,227.43 C73.32,227.6 69.14,228.43 64.91,228.6 C56.8461975,228.932262 48.7687278,228.597791 40.76,227.6 C36.24,227.07 31.76,226.35 27.25,225.66 C25.12,225.33 25.25,225.27 25.25,223.19 C25.39,216.89 25.81,210.59 24.58,204.31 C24.06,201.67 23.99,198.92 23.58,196.24 C23.43,195.24 23.7,194.79 24.81,194.74 C34.03,194.31 42.39,191.04 50.47,186.9 C51.65,186.3 52.41,186.04 53.75,186.99 C56.5,188.94 59.88,189.62 63.06,190.66 C64.73,191.21 66.42,191.66 68.06,192.21 C76.56,194.88 85.32,195.21 94.12,195.21 C95.33,195.21 96.38,194.45 97.61,194.57 C98.03,195.28 97.73,196 97.61,196.68 C97.09,201.29 96.45,205.88 96.01,210.49 C95.75,214.2 95.54,218 96.56,221.65 Z M40,163.11 C34.58,164.65 29.34,165.26 24.16,166.11 C28.89,162.53 33.88,160.56 40,163.11 Z M42.38,396.22 C42.22,398.15 41.44,399.13 39.38,399.43 C39.52,398.57 39.66,397.95 39.7,397.33 C39.7,396.54 39.47,395.85 38.58,395.76 C37.69,395.67 37.45,396.21 37.31,396.91 C37.13,397.85 36.97,398.8 36.77,399.74 C36.6610339,400.789535 36.0695703,401.728483 35.17,402.28 C30.93,404.51 26.82,407.01 22.17,408.28 C20.7727191,408.615008 19.3276047,408.703001 17.9,408.54 C16.82,408.44 16.3,407.83 16.66,406.73 C16.9322188,405.811785 17.2663168,404.913061 17.66,404.04 C19.46,400.3 21.27,396.56 23.15,392.85 C24.3549996,390.2379 25.0345595,387.414329 25.15,384.54 C26,374.73 23.94,365.13 23.3,355.43 C22.89,349.05 22.07,342.7 21.45,336.34 C21.39,335.81 21.16,335.24 21.67,334.64 C23.44,334.84 25.08,335.71 26.82,336.22 C32.42,337.84 38.19,337.77 43.92,338.05 C46.07,338.15 48.24,338.05 50.39,337.98 C51.39,337.98 51.73,338.27 51.54,339.23 C51.16,341.11 50.83,343 50.44,344.87 C49.4940014,349.733507 48.8063708,354.643724 48.38,359.58 C47.73,365.95 46.06,372.15 45.08,378.46 C44,384.36 42.87,390.25 42.39,396.22 L42.38,396.22 Z M79.46,388.99 C69.39,388.99 59.31,388.71 49.24,389.09 C48.11,389.14 46.58,389.94 45.93,388.88 C45.48,388.14 46.12,386.74 46.28,385.64 C47.35,378.53 48.72,371.47 50.08,364.4 C50.9,360.1 51.14,355.68 51.7,351.32 C52.31,346.48 53.59,341.76 54.37,336.95 C55.08,332.54 56.2,328.22 56.61,323.74 C57.02,319.26 57.81,314.74 58.61,310.22 C60.34,300.38 62.1,290.55 62.89,280.57 C62.89,280.15 62.79,279.63 63.48,279.2 C63.8469556,280.39494 64.0619803,281.631332 64.12,282.88 C64.41,286.88 64.56,290.88 65.12,294.83 C65.96,301.4 67.18,307.92 68.32,314.46 C69.58,321.69 70.73,328.95 71.62,336.26 C72.1275416,339.657237 72.8286831,343.022716 73.72,346.34 C75.72,354.73 77.83,363.1 79.83,371.49 C81.1353665,376.771128 81.9257292,382.166358 82.19,387.6 C82.19,387.98 82.19,388.37 82.19,388.74 C81.3219594,389.064292 80.3837572,389.153973 79.47,389 L79.46,388.99 Z M104.46,344.32 C103.71,354.32 102.63,364.32 101.46,374.32 C101.009952,376.993687 100.719438,379.691791 100.59,382.4 C100.55108,383.51557 100.832139,384.618988 101.4,385.58 C102.53,387.42 103.54,389.34 104.79,391.09 C106.46,393.44 107.86,395.95 109.33,398.41 C110.657,400.426636 111.407386,402.767704 111.5,405.18 C111.5,407.07 110.95,407.67 109.21,407.1 C106.03,406.05 102.67,405.62 99.63,404.1 C98.2005305,403.385433 96.7030482,402.815921 95.16,402.4 C93.1075301,401.898566 91.5411235,400.238175 91.16,398.16 C90.99,397.46 90.83,396.76 90.65,396.06 C90.5868461,395.460864 90.0610601,395.019027 89.46,395.06 C89.1344664,395.07547 88.8286543,395.220543 88.6107419,395.462876 C88.3928294,395.70521 88.2809334,396.024657 88.3,396.35 C88.24,397.13 88.72,397.89 88.49,398.84 C86.6548893,398.66792 85.261064,397.112934 85.29,395.27 C85.09,393.12 84.77,390.98 84.67,388.83 C84.1671464,380.369817 82.7556938,371.988269 80.46,363.83 C78.24,355.41 76.31,346.93 74.36,338.45 C74.3348763,338.217343 74.3348763,337.982657 74.36,337.75 C74.93,337.29 75.43,337.67 75.92,337.85 C78.5412437,338.808764 81.2669467,339.453265 84.04,339.77 C87.13,340.12 90.16,340.88 93.29,341.07 C96.7250931,341.395368 100.186989,340.855629 103.36,339.5 C103.77,339.32 104.18,338.97 104.81,339.29 C104.73,341 104.62,342.66 104.5,344.32 L104.46,344.32 Z M108.18,312 C107.3,319.47 106.34,326.92 105.5,334.39 C105.452106,335.498555 104.723588,336.46195 103.67,336.81 C99.04,339.03 94.26,339.05 89.36,338.19 C86.92,337.76 84.46,337.46 82.02,337.07 C79.5286967,336.511131 77.0820483,335.769115 74.7,334.85 C73.7,334.51 73.7,333.69 73.58,332.94 C73.04,329.54 72.58,326.14 72.03,322.75 C71.25,317.7 70.42,312.65 69.46,307.63 C67.9444025,299.706212 66.9787641,291.68707 66.57,283.63 C66.36,279.54 65.2,275.63 64.88,271.52 C64.8163122,269.285234 64.8730611,267.04866 65.05,264.82 C65.05,264.13 65.45,263.89 66.05,263.77 C66.9165153,263.619625 67.769337,263.398895 68.6,263.11 C69.1704227,262.957869 69.5248174,262.389088 69.41,261.81 C69.3820815,261.47766 69.2021855,261.176861 68.9226007,260.995033 C68.6430158,260.813205 68.2951078,260.770747 67.98,260.88 C65.07,261.76 62.13,261.54 59.18,261.28 C58.49,261.22 57.86,261.44 57.75,262.23 C57.64,263.02 58.19,263.53 58.99,263.66 C59.46,263.74 59.99,263.76 60.42,263.81 C62.66,264.06 62.89,264.27 62.42,266.52 C60.8,274.12 60.34,281.88 59.42,289.57 C58.61,296.17 57.32,302.68 56.28,309.23 C55.44,314.52 54.49,319.78 53.97,325.12 C53.68,328.12 52.91,331.12 52.39,334.12 C52.21,335.12 51.49,335.29 50.65,335.41 C47.46,335.88 44.26,335.53 41.07,335.41 C36.435342,335.438072 31.8145599,334.900771 27.31,333.81 C21.12,332.11 20.8,331.81 20.08,325.42 C19.02,315.97 17.89,306.52 17.01,297.05 C16.0714785,286.286503 16.2088249,275.456235 17.42,264.72 C18.57,254.11 21.08,243.8 23.57,233.46 C23.9,232.07 24.13,230.64 24.37,229.23 C24.61,227.82 24.63,227.63 26.21,227.95 C31.62,229.03 37.1,229.7 42.59,230.24 C52.14,231.18 61.71,231.78 71.3,230.48 C74.94,229.98 78.63,229.85 82.3,229.48 C86.9795259,228.87218 91.5774757,227.748683 96.01,226.13 C97.01,225.8 97.45,225.71 97.92,226.92 C102.00716,237.585865 105.224331,248.565044 107.54,259.75 C109.003826,266.318557 109.784644,273.020852 109.87,279.75 C109.87,282.15 110.23,284.54 110.09,286.83 C110.31,295.34 109.19,303.67 108.22,312 L108.18,312 Z M301.67,156.7 C300.507928,157.554215 299.303028,158.348581 298.06,159.08 C289.909026,163.362695 282.484484,168.904103 276.06,175.5 C274.13,177.5 272.06,179.42 269.98,181.29 C265.48,185.29 261.91,190.14 258.42,195.02 C257.42,196.39 256.49,197.78 255.42,199.02 C248.52,207.14 242.58,215.97 236.27,224.53 C228.283299,235.434676 219.275945,245.553718 209.37,254.75 C203.58,260.08 196.91,264.23 190.13,268.18 C186.88,270.07 183.6,271.9 180.38,273.84 C176.647588,276.011613 172.695511,277.7815 168.59,279.12 C165.8,280.12 163.02,281.12 160.31,282.27 C154.38,284.84 148.06,285.86 141.81,287.2 C137.36,288.2 132.86,288.91 128.34,289.46 C123.797319,289.824981 119.232681,289.824981 114.69,289.46 C112.69,289.37 112.63,289.1 112.58,287.09 C112.47,283.25 112.58,279.4 112.2,275.58 C111.502017,266.09323 109.799146,256.70733 107.12,247.58 C106.27,244.84 105.55,242.06 104.8,239.3 C104.005478,236.042842 102.965849,232.850411 101.69,229.75 C98.7769832,223.566841 97.7076454,216.675167 98.61,209.9 C99.3,205.15 99.74,200.37 100.26,195.6 C100.344987,194.342352 101.112945,193.232653 102.26,192.71 C107.97,189.27 112.73,184.96 113.26,177.71 C113.47822,173.145608 112.798717,168.582749 111.26,164.28 C108.61,156.28 104.64,148.88 100.71,141.46 C99.93,139.98 99.23,138.46 98.54,136.92 C97.0942325,133.288078 95.2281955,129.837924 92.98,126.64 L93.42,126.24 C95.88,127.35 98.42,128.33 100.78,129.6 C105.28,132 109.61,134.7 114.13,137.1 C118.946413,139.5972 123.893546,141.833758 128.95,143.8 C135.317445,146.182134 141.921809,147.875131 148.65,148.85 C162.483343,151.169732 176.635654,150.77916 190.32,147.7 C199.32,145.7 208.5,144.03 217.64,142.51 C222.299677,141.776982 227.00393,141.362687 231.72,141.27 C239.47,141.06 247.22,141.27 254.98,141.49 C264.66,141.76 273.98,143.73 283.39,145.7 C288.159767,146.73306 292.770425,148.39774 297.1,150.65 C299.17,151.71 300.49,153.54 302.1,155.07 C302.73,155.75 302.29,156.31 301.71,156.7 L301.67,156.7 Z" id="Shape" fill="#222222"></path>
            <path d="M203.82,211.65 C195.644696,207.282127 187.23908,203.359729 178.64,199.9 C173.78,197.9 168.82,196.03 164.23,193.39 C163.212077,192.785129 162.083124,192.390675 160.91,192.23 C160.07,192.23 159.36,192.35 159.25,193.28 C159.201593,193.603988 159.29243,193.933338 159.500076,194.186705 C159.707722,194.440071 160.012815,194.593828 160.34,194.61 C161.364266,194.808309 162.350111,195.16956 163.26,195.68 C168.36,198.55 173.88,200.47 179.26,202.82 C186.64,206.07 194.17,209.01 201.15,213.11 C201.701008,213.438856 202.272133,213.732768 202.86,213.99 C203.206819,214.219701 203.641134,214.273901 204.033768,214.136479 C204.426401,213.999057 204.732122,213.685845 204.86,213.29 C205.12,212.43 204.51,212 203.82,211.65 Z" id="Shape" fill="#222222"></path>
            <path d="M270.8,162 C270.436034,161.831205 270.048089,161.719882 269.65,161.67 C267.678781,161.359681 265.740514,160.867583 263.86,160.2 C261.899454,159.498599 259.848714,159.081043 257.77,158.96 C254.975382,158.926725 252.192549,158.591444 249.47,157.96 C243.72,156.66 237.86,157.01 232.09,156.28 C231.3,156.17 230.59,156.35 230.45,157.23 C230.31,158.11 230.99,158.45 231.72,158.68 C232.810039,158.942792 233.928861,159.067105 235.05,159.05 C239.19,159.28 243.36,159.19 247.44,160.16 C248.61,160.44 249.81,160.49 250.98,160.7 C254.75,161.37 258.64,161.18 262.33,162.35 C263.62,162.75 264.91,163.19 266.23,163.51 C267.55,163.83 268.88,164.07 270.23,164.3 C270.804727,164.443746 271.39199,164.115054 271.57,163.55 C271.683275,163.242701 271.664893,162.9023 271.519182,162.608987 C271.373472,162.315674 271.113316,162.09538 270.8,162 Z" id="Shape" fill="#222222"></path>
            <path d="M138.75,249.73 C136.75,246.37 135.08,242.82 133.14,239.41 C132.792467,238.78517 132.380201,238.198612 131.91,237.66 C131.572806,237.288425 131.012459,237.224263 130.6,237.51 C130.157465,237.740927 129.933395,238.247159 130.06,238.73 C130.154176,239.118693 130.30944,239.489977 130.52,239.83 C132.52,243.18 134.14,246.77 136.13,250.15 C140.23,257.15 144.51,263.96 148.02,271.24 C148.175179,271.602628 148.3842,271.939758 148.64,272.24 C148.941481,272.64071 149.493125,272.75617 149.93,272.51 C150.41,272.26 150.63,271.87 150.59,271.05 C150.21,270.21 149.77,269.05 149.22,268.05 C146,261.82 142.38,255.76 138.75,249.73 Z" id="Shape" fill="#222222"></path>
            <path d="M172.31,261.54 C171,260.49 169.65,259.48 168.37,258.4 C165.14,255.66 161.3,253.73 158.19,250.82 C157.956524,250.604872 157.701896,250.413901 157.43,250.25 C156.96145,249.89047 156.293419,249.960789 155.91,250.41 C155.704729,250.609577 155.588918,250.883701 155.588918,251.17 C155.588918,251.456299 155.704729,251.730423 155.91,251.93 C156.327365,252.412515 156.789421,252.854482 157.29,253.25 C161.61,256.8 166.45,259.67 170.68,263.34 C170.964461,263.605194 171.306869,263.800367 171.68,263.91 C172.034838,263.994344 172.408612,263.903814 172.685532,263.666454 C172.962452,263.429094 173.109083,263.073564 173.08,262.71 C172.991819,262.232038 172.7141,261.81005 172.31,261.54 Z" id="Shape" fill="#222222"></path>
            <path d="M234.68,193.73 C234.38,193.6 234.06,193.56 233.76,193.46 C230.44,192.31 227.02,191.52 223.62,190.63 C222.08,190.23 220.62,189.63 219.06,189.21 C218.3,188.98 217.59,189.08 217.33,189.98 C217.07,190.88 217.59,191.2 218.23,191.45 C219.254081,191.892395 220.302431,192.276345 221.37,192.6 C225.13,193.66 228.98,194.42 232.67,195.73 C233.07772,195.854616 233.491605,195.958087 233.91,196.04 C234.76,196.1 235.38,195.99 235.57,195.21 C235.648563,194.895701 235.59889,194.563061 235.431933,194.285425 C235.264977,194.00779 234.994449,193.807961 234.68,193.73 Z" id="Shape" fill="#222222"></path>
            <path d="M136.65,203.61 C137.3,204.16 138.05,204.52 138.75,203.69 C139.45,202.86 138.91,202.34 138.34,201.84 C135.64,199.46 132.93,197.11 130.21,194.75 C129.837307,194.319907 129.299035,194.068956 128.73,194.06 C128.301863,194.055369 127.910667,194.301822 127.73,194.69 C127.487591,195.129486 127.583235,195.6784 127.96,196.01 C128.7,196.73 129.47,197.43 130.26,198.11 C132.41,200 134.52,201.79 136.65,203.61 Z" id="Shape" fill="#222222"></path>
            <path d="M56.42,81.21 C58.87,80.86 61.33,80.54 63.25,78.71 C63.9981719,78.089359 64.4367506,77.1719984 64.45,76.2 C64.4840537,74.8982684 63.9021914,73.6567152 62.88,72.85 C61.3579844,71.6889815 59.7230962,70.6839274 58,69.85 C57.31,69.56 56.56,69.32 56.11,70.13 C55.66,70.94 56.11,71.7 56.93,72.06 C58.0539089,72.6513735 59.1454607,73.302299 60.2,74.01 C61.05,74.51 61.99,74.94 61.9,76.09 C61.81,77.24 60.77,77.55 59.9,77.92 C59.2242115,78.1618436 58.5280876,78.342568 57.82,78.46 C57.2,78.61 56.57,78.72 55.96,78.88 C55.3770891,78.9868124 54.9808892,79.5326879 55.06,80.12 C55.0683995,80.455871 55.2245289,80.770934 55.486694,80.9810516 C55.748859,81.1911692 56.0903602,81.2749425 56.42,81.21 Z" id="Shape" fill="#222222"></path>
            <path d="M49.34,91.31 C49.8104673,91.6060191 50.3182651,91.8380592 50.85,92 C52.4783187,92.4837151 54.1552125,92.785556 55.85,92.9 C58.4020651,92.8727449 60.9060042,92.202047 63.13,90.95 C63.3423766,90.8422325 63.5462923,90.7185459 63.74,90.58 C64.36,90.14 64.9,89.63 64.43,88.81 C63.96,87.99 63.31,88.03 62.59,88.45 C62.25,88.65 61.89,88.84 61.59,89.02 C59.1143294,90.3738521 56.2236927,90.7587951 53.48,90.1 C52.4547352,89.8827541 51.450791,89.5748779 50.48,89.18 C50.1981651,89.0141087 49.8593988,88.9748906 49.5471167,89.0720027 C49.2348347,89.1691148 48.978053,89.3935338 48.84,89.69 C48.674009,89.9674993 48.6336729,90.3024349 48.7290353,90.6114089 C48.8243976,90.9203828 49.0464856,91.1743233 49.34,91.31 Z" id="Shape" fill="#222222"></path>
            <path d="M16.47,73.66 C14.94,72.97 13.39,72.34 11.87,71.66 C11.12,71.31 10.44,71.22 10.03,72.04 C9.84272732,72.3617031 9.81823289,72.7529112 9.96391515,73.0954614 C10.1095974,73.4380115 10.4083738,73.6917367 10.77,73.78 C11.3218928,73.8738946 11.7935613,74.2305066 12.0343252,74.735912 C12.2750892,75.2413174 12.2548227,75.8322763 11.98,76.32 C11.8719958,76.6328904 11.9106318,76.9777821 12.0851924,77.2590185 C12.2597529,77.540255 12.5516774,77.7279331 12.88,77.77 C13.4532307,77.8833972 14.0231234,77.5601745 14.22,77.01 C14.43,76.59 14.4,76.01 15.02,75.77 C15.53,75.97 16.09,76.24 16.68,76.41 C17.2528645,76.5758327 17.8552005,76.2636731 18.05,75.7 C18.2740079,75.2462351 18.1237305,74.696649 17.7,74.42 C17.3254348,74.1133574 16.9118225,73.8577921 16.47,73.66 Z" id="Shape" fill="#222222"></path>
            <path d="M37.94,62.58 C37.2211872,62.615562 36.5474608,62.9408741 36.0726072,63.4816795 C35.5977537,64.022485 35.3623031,64.7326246 35.42,65.45 C35.3736903,66.2108133 35.636238,66.9581406 36.1482136,67.5228197 C36.6601893,68.0874987 37.3783011,68.4217811 38.14,68.45 C39.53,68.45 40.25,67.53 40.27,65.64 C40.29,63.91 39.32,62.65 37.94,62.58 Z" id="Shape" fill="#222222"></path>
            <path d="M35.13,53.55 C36.13,53.55 37.04,53.55 38,53.55 L38,53.31 C39.19,53.31 40.39,53.31 41.58,53.31 C41.8612929,53.2945298 42.1248567,53.1677202 42.3124853,52.9575762 C42.5001139,52.7474321 42.5963714,52.4712419 42.58,52.19 C42.6306089,51.8968227 42.5480479,51.5963348 42.3547474,51.3701732 C42.1614469,51.1440116 41.8774817,51.015664 41.58,51.02 C39.2796809,50.8611978 36.9688389,50.9584611 34.69,51.31 C34.4027719,51.3393904 34.1403205,51.4857592 33.9643714,51.7146822 C33.7884224,51.9436051 33.7145036,52.2348792 33.76,52.52 C33.89,53.28 34.41,53.55 35.13,53.55 Z" id="Shape" fill="#222222"></path>
            <path d="M73.84,64.94 C73.700319,63.7911754 72.7817198,62.893359 71.63,62.78 C70.51,62.86 69.99,63.67 69.73,64.65 C69.5043838,65.4238027 69.5253547,66.2486616 69.79,67.01 C69.9786748,67.8094911 70.6370214,68.4123145 71.45,68.53 C72.3551608,68.6157691 73.2134738,68.1120643 73.58,67.28 C73.8331083,66.7765845 73.9272677,66.2081404 73.85,65.65 C73.8666667,65.413474 73.8633214,65.1759628 73.84,64.94 Z" id="Shape" fill="#222222"></path>
            <path d="M68.61,53.47 C69.41,53.47 70.2,53.47 71,53.47 L71,53.32 C72,53.32 72.92,53.38 73.87,53.32 C74.205719,53.324786 74.5261804,53.1800325 74.7445264,52.9249734 C74.9628724,52.6699143 75.0564882,52.3309671 75,52 C74.9702375,51.4605238 74.5394762,51.0297625 74,51 C72.1688009,50.8648466 70.3284133,50.9251872 68.51,51.18 C67.9009847,51.2598828 67.4574283,51.7971109 67.4942685,52.4102371 C67.5311087,53.0233633 68.0358012,53.503615 68.65,53.51 L68.61,53.47 Z" id="Shape" fill="#222222"></path>
            <path d="M109.89,279.72 C109.804644,272.990852 109.023826,266.288557 107.56,259.72 C105.244331,248.535044 102.02716,237.555865 97.94,226.89 C97.47,225.68 97.05,225.77 96.03,226.1 C91.5974757,227.718683 86.9995259,228.84218 82.32,229.45 C78.67,229.8 74.98,229.93 71.32,230.45 C61.73,231.75 52.16,231.15 42.61,230.21 C37.12,229.67 31.61,229 26.23,227.92 C24.65,227.6 24.65,227.66 24.39,229.2 C24.13,230.74 23.92,232.04 23.59,233.43 C21.1,243.77 18.59,254.08 17.44,264.69 C16.2288249,275.426235 16.0914785,286.256503 17.03,297.02 C17.91,306.49 19.03,315.94 20.1,325.39 C20.82,331.8 21.1,332.08 27.33,333.78 C31.8345599,334.870771 36.455342,335.408072 41.09,335.38 C44.28,335.46 47.48,335.81 50.67,335.38 C51.51,335.26 52.23,335.12 52.41,334.09 C52.93,331.09 53.7,328.14 53.99,325.09 C54.51,319.75 55.46,314.49 56.3,309.2 C57.3,302.65 58.63,296.14 59.44,289.54 C60.38,281.85 60.84,274.09 62.44,266.49 C62.93,264.24 62.7,264.03 60.44,263.78 C59.96,263.73 59.44,263.71 59.01,263.63 C58.21,263.5 57.63,263.1 57.77,262.2 C57.91,261.3 58.51,261.2 59.2,261.25 C62.2,261.51 65.09,261.73 68,260.85 C68.3151078,260.740747 68.6630158,260.783205 68.9426007,260.965033 C69.2221855,261.146861 69.4020815,261.44766 69.43,261.78 C69.5448174,262.359088 69.1904227,262.927869 68.62,263.08 C67.789337,263.368895 66.9365153,263.589625 66.07,263.74 C65.43,263.86 65.07,264.1 65.07,264.79 C64.8930611,267.01866 64.8363122,269.255234 64.9,271.49 C65.22,275.57 66.38,279.49 66.59,283.6 C66.9987641,291.65707 67.9644025,299.676212 69.48,307.6 C70.48,312.6 71.27,317.67 72.05,322.72 C72.57,326.11 73.05,329.51 73.6,332.91 C73.72,333.66 73.69,334.48 74.72,334.82 C77.1020483,335.739115 79.5486967,336.481131 82.04,337.04 C84.48,337.43 86.94,337.73 89.38,338.16 C94.28,339.02 99.06,339 103.69,336.78 C104.743588,336.43195 105.472106,335.468555 105.52,334.36 C106.36,326.89 107.32,319.44 108.2,311.97 C109.2,303.64 110.29,295.31 110.09,286.77 C110.25,284.51 109.89,282.12 109.89,279.72 Z" id="Shape" fill="#FFFFFF"></path>
            <path d="M110.12,169.65 C108.749592,164.145197 106.781222,158.80679 104.25,153.73 C101.86,148.58 98.84,143.73 96.54,138.57 C94.7,134.42 92.89,130.23 89.92,126.66 C88.92,126.92 87.92,127.66 86.74,127.2 C85.56,126.74 84.27,126.53 83.09,126.06 C78.99,124.42 74.66,124.44 70.36,124.18 C69.876824,124.183562 69.4073896,124.341208 69.02,124.63 C67.02,125.9 64.64,126.55 62.49,127.63 C60.7853952,128.516478 58.9690262,129.169025 57.09,129.57 C55.9417906,129.966681 54.6800153,129.865159 53.61,129.29 C50.91,127.43 47.84,126.18 45.23,124.18 C44.6209083,123.526173 43.7520582,123.1779 42.86,123.23 C40.14,123.74 37.45,123.12 34.76,122.91 C32.1299613,122.616233 29.4705215,123.073921 27.09,124.23 C26.16,124.7 25.19,125.47 24.26,125.44 C22.15,125.38 21.41,126.75 20.51,128.19 C16.662757,134.462042 13.3189429,141.029292 10.51,147.83 C7.44,155.04 4.51,162.3 3.02,170.04 C2.39,173.35 1.91,176.72 2.7,180.04 C4.43,187.32 9.9,191.53 17.7,192.35 C22.5674983,192.846369 27.484513,192.470481 32.22,191.24 C40.7848517,189.186552 48.8906105,185.550831 56.12,180.52 C61.24206,176.823294 66.751147,173.694883 72.55,171.19 C74.71,170.27 76.77,169.09 79.01,167.96 C76.29,165.45 73.01,164.59 69.76,163.91 C64.23,162.75 58.6,163.33 53.03,163.7 C46.65,164.13 40.51,166.1 34.2,167.05 C28.66,167.88 23.2,168.9 17.54,168.62 C15.84,168.53 15.05,168.08 15.25,167.2 C15.55,165.87 16.67,166.2 17.59,166.2 C18.51,166.2 19.33,166.57 20.08,165.79 C21.6085924,164.373939 23.3329135,163.185101 25.2,162.26 C26.0491535,161.81767 26.6361707,160.996589 26.78,160.05 C27.53,156.37 28.45,152.73 29.08,149.05 C29.2402294,148.104121 29.4708708,147.171528 29.77,146.26 C30.02,145.52 30.56,145 31.42,145.31 C32.28,145.62 32.22,146.23 32.11,146.91 C32.11,147.14 31.99,147.37 31.94,147.6 C31.19,151.12 30.43,154.6 29.7,158.15 C29.6,158.66 29.34,159.22 29.76,159.72 C29.9070794,159.776011 30.0626564,159.80645 30.22,159.81 C34.7442421,158.955961 39.4247446,159.754379 43.41,162.06 C44.3318744,162.554931 45.4167224,162.648952 46.41,162.32 C53.41,160.67 60.54,160.95 67.66,161.09 C68.137777,161.113913 68.6127428,161.177465 69.08,161.28 C73.24,162.16 77.29,163.28 80.7,166.04 C81.17,166.41 81.56,167.04 82.36,166.69 C83.36,166.31 83.96,165.86 83.84,164.61 C83.48,160.95 82.65,157.36 82.11,153.73 C81.76,151.36 81.27,149.01 80.87,146.65 C80.75,145.97 80.87,145.33 81.69,145.15 C82.0072338,145.075759 82.3410023,145.132586 82.6157941,145.307624 C82.8905859,145.482663 83.0831785,145.761121 83.15,146.08 C83.2784884,146.457326 83.3722118,146.845609 83.43,147.24 C83.66,148.41 83.92,149.59 84.09,150.77 C84.81,155.77 86.02,160.65 86.34,165.69 C86.470532,166.267212 86.3641132,166.872661 86.0445749,167.370765 C85.7250366,167.868869 85.2190771,168.218009 84.64,168.34 C79.22,170.29 74.27,173.28 69.02,175.61 C64.02,177.82 59.64,181.08 55.18,184.18 C55.02,184.3 54.97,184.58 54.83,184.84 C55.1440057,185.085042 55.4785814,185.302516 55.83,185.49 C61.4996198,187.872373 67.3648524,189.759418 73.36,191.13 C79.2359612,192.352524 85.2289248,192.922644 91.23,192.83 C98.6,192.91 104.23,189.67 108.59,183.83 C109.326651,182.778558 109.85922,181.598085 110.16,180.35 C111.020074,176.833515 111.006341,173.159957 110.12,169.65 Z" id="Shape" fill="#FFFFFF"></path>
            <path d="M10,80 C10.73,80.61 11.24,80.95 12.25,80.3 C13.67,79.4 14.77,79.66 15.42,81.11 C16.07,82.56 16.93,83.11 18.56,82.54 C19.75,82.15 20.56,83.1 19.97,84.08 C19.4717804,84.7877823 19.4717804,85.7322177 19.97,86.44 C22.3060235,91.3547915 25.2489697,95.9573443 28.73,100.14 C31.2310494,103.269683 34.3359316,105.864453 37.86,107.77 C42.463137,110.176284 47.3378318,112.022759 52.38,113.27 C60.38,115.33 67.14,113.04 72.64,106.81 C75.2210614,103.863117 77.3631564,100.559036 79,97 C82.5440671,89.2188282 85.4697802,81.1706095 87.75,72.93 C88.4230038,70.7092972 88.760066,68.400421 88.75,66.08 C88.75,64.08 88.75,62.01 87.61,60.29 C85.82,57.55 83.84,54.94 80.88,53.29 C79.7670633,52.6594471 78.7388178,51.8899431 77.82,51 C74.24,47.56 70.64,44.16 67.38,40.41 C65.9400575,38.803354 64.6916857,37.0348273 63.66,35.14 C62.01,32.06 60.2,29.06 59.31,25.53 C55.58,27.01 52.2,28.53 49.77,31.65 C48.3198353,33.2975073 47.5983726,35.4618954 47.77,37.65 C47.87,38.72 47.95,39.65 49.1,40.24 C50.1883066,40.7997057 51.4969884,40.7111772 52.5,40.01 C53.06,39.68 53.31,38.89 54.12,38.78 C53.9747654,41.2897357 51.841612,43.2180352 49.33,43.11 C45.57,43.11 43.68,41.16 43.33,36.78 C42.96,36.83 42.76,36.78 42.66,36.89 C36.66,41.81 29.98,45.8 23.66,50.3 C21.7083199,51.7033908 19.9498799,53.357602 18.43,55.22 C16.8929594,57.1796402 15.9398033,59.5330693 15.68,62.01 C15.444627,62.7103614 15.765679,63.4766054 16.43,63.8 C17.232252,64.3432491 17.9357197,65.0196603 18.51,65.8 C19.08,66.43 19.56,67.14 18.85,67.89 C18.14,68.64 17.4,68.14 16.85,67.54 C16.39,67.09 16,66.54 15.52,66.17 C14.0276787,64.7050773 11.6824114,64.5683768 10.03,65.85 C8.99105561,66.5971462 8.1248285,67.5588629 7.49,68.67 C5.5,71.84 7.43,77.85 10,80 Z M73.58,67.27 C73.2134738,68.1020643 72.3551608,68.6057691 71.45,68.52 C70.6370214,68.4023145 69.9786748,67.7994911 69.79,67 C69.5253547,66.2386616 69.5043838,65.4138027 69.73,64.64 C69.99,63.64 70.51,62.85 71.63,62.77 C72.7817198,62.883359 73.700319,63.7811754 73.84,64.93 C73.8599921,65.1662445 73.8599921,65.4037555 73.84,65.64 C73.9224302,66.2003886 73.831716,66.7725858 73.58,67.28 L73.58,67.27 Z M68.47,51.13 C70.2884133,50.8751872 72.1288009,50.8148466 73.96,50.95 C74.5337285,50.9608024 74.9946882,51.4261944 75,52 C75.0377394,52.3250143 74.9327478,52.6504305 74.7121737,52.892103 C74.4915996,53.1337755 74.1771008,53.2679749 73.85,53.26 C72.9,53.34 71.94,53.26 70.98,53.26 L70.98,53.41 C70.18,53.41 69.39,53.41 68.59,53.41 C67.9758012,53.403615 67.4711087,52.9233633 67.4342685,52.3102371 C67.3974283,51.6971109 67.8409847,51.1598828 68.45,51.08 L68.47,51.13 Z M56,78.9 C56.61,78.74 57.24,78.63 57.86,78.48 C58.5680876,78.362568 59.2642115,78.1818436 59.94,77.94 C60.79,77.57 61.84,77.23 61.94,76.11 C62.04,74.99 61.09,74.53 60.24,74.03 C59.1854607,73.322299 58.0939089,72.6713735 56.97,72.08 C56.18,71.72 55.65,71.08 56.15,70.15 C56.65,69.22 57.35,69.58 58.04,69.87 C59.7630962,70.7039274 61.3979844,71.7089815 62.92,72.87 C63.9421914,73.6767152 64.5240537,74.9182684 64.49,76.22 C64.4767506,77.1919984 64.0381719,78.109359 63.29,78.73 C61.37,80.56 58.91,80.88 56.46,81.23 C56.1367097,81.2879653 55.804127,81.2036773 55.5474672,80.9987326 C55.2908075,80.7937879 55.1350123,80.4881024 55.12,80.16 C55.0281266,79.5720053 55.4163215,79.0161808 56,78.9 Z M48.82,89.69 C48.958053,89.3935338 49.2148347,89.1691148 49.5271167,89.0720027 C49.8393988,88.9748906 50.1781651,89.0141087 50.46,89.18 C51.430791,89.5748779 52.4347352,89.8827541 53.46,90.1 C56.2036927,90.7587951 59.0943294,90.3738521 61.57,89.02 C61.92,88.84 62.28,88.65 62.57,88.45 C63.29,88.03 63.96,88.02 64.41,88.81 C64.86,89.6 64.34,90.14 63.72,90.58 C63.5262923,90.7185459 63.3223766,90.8422325 63.11,90.95 C60.8860042,92.202047 58.3820651,92.8727449 55.83,92.9 C54.1352125,92.785556 52.4583187,92.4837151 50.83,92 C50.2982651,91.8380592 49.7904673,91.6060191 49.32,91.31 C49.0230263,91.1781581 48.7964231,90.9258577 48.697117,90.616481 C48.5978109,90.3071042 48.6352394,89.970053 48.8,89.69 L48.82,89.69 Z M38.16,68.44 C37.3983011,68.4117811 36.6801893,68.0774987 36.1682136,67.5128197 C35.656238,66.9481406 35.3936903,66.2008133 35.44,65.44 C35.3823031,64.7226246 35.6177537,64.012485 36.0926072,63.4716795 C36.5674608,62.9308741 37.2411872,62.605562 37.96,62.57 C39.34,62.64 40.31,63.9 40.29,65.62 C40.25,67.52 39.53,68.47 38.14,68.44 L38.16,68.44 Z M34.77,51.28 C37.0488389,50.9284611 39.3596809,50.8311978 41.66,50.99 C41.9574817,50.985664 42.2414469,51.1140116 42.4347474,51.3401732 C42.6280479,51.5663348 42.7106089,51.8668227 42.66,52.16 C42.6763714,52.4412419 42.5801139,52.7174321 42.3924853,52.9275762 C42.2048567,53.1377202 41.9412929,53.2645298 41.66,53.28 C40.47,53.36 39.27,53.28 38.08,53.28 L38.08,53.52 C37.08,53.52 36.17,53.52 35.21,53.52 C34.49,53.52 33.97,53.25 33.9,52.46 C33.8263067,51.9036768 34.1989803,51.3863181 34.75,51.28 L34.77,51.28 Z M10,72 C10.41,71.18 11.09,71.27 11.84,71.62 C13.36,72.33 14.91,72.96 16.44,73.62 C16.8801837,73.8084493 17.2937182,74.0538803 17.67,74.35 C18.0937305,74.626649 18.2440079,75.1762351 18.02,75.63 C17.8252005,76.1936731 17.2228645,76.5058327 16.65,76.34 C16.06,76.17 15.5,75.9 14.99,75.7 C14.37,75.98 14.4,76.52 14.19,76.94 C13.9931234,77.4901745 13.4232307,77.8133972 12.85,77.7 C12.5216774,77.6579331 12.2297529,77.470255 12.0551924,77.1890185 C11.8806318,76.9077821 11.8419958,76.5628904 11.95,76.25 C12.2248227,75.7622763 12.2450892,75.1713174 12.0043252,74.665912 C11.7635613,74.1605066 11.2918928,73.8038946 10.74,73.71 C10.3872927,73.6190494 10.0963568,73.3703073 9.95169488,73.0360209 C9.80703295,72.7017346 9.82486069,72.3193754 10,72 Z" id="Shape" fill="#FFFFFF"></path>
            <path d="M97.71,196.65 C97.79,195.97 98.09,195.25 97.71,194.54 C96.48,194.42 95.43,195.18 94.22,195.18 C85.42,195.18 76.66,194.84 68.16,192.18 C66.49,191.65 64.8,191.18 63.16,190.63 C59.98,189.63 56.6,188.91 53.85,186.96 C52.51,186.01 51.75,186.27 50.57,186.87 C42.49,191.01 34.13,194.28 24.91,194.71 C23.8,194.76 23.53,195.24 23.68,196.21 C24.1,198.89 24.17,201.64 24.68,204.28 C25.91,210.56 25.49,216.86 25.35,223.16 C25.35,225.24 25.18,225.3 27.35,225.63 C31.85,226.32 36.35,227.04 40.86,227.57 C48.8687278,228.567791 56.9461975,228.902262 65.01,228.57 C69.24,228.36 73.42,227.57 77.66,227.4 C83.7276801,227.062544 89.7138531,225.843076 95.43,223.78 C97.03,223.23 97.1,223.2 96.66,221.62 C95.66,217.92 95.85,214.17 96.21,210.43 C96.55,205.85 97.19,201.26 97.71,196.65 Z" id="Shape" fill="#FFFFFF"></path>
            <path d="M45.83,114.11 C45.4671074,114.553635 45.3786474,115.161317 45.6,115.69 C45.69,115.97 45.98,116.18 46.18,116.42 C48.67,119.35 51.95,121.12 55.34,122.74 C56.3718038,123.237595 57.5863271,123.173474 58.56,122.57 C60.15,121.67 61.69,120.68 63.27,119.75 C63.5590425,119.605132 63.7602103,119.329458 63.81,119.01 C64.0208248,117.302834 65.0560951,115.807858 66.58,115.01 C63.969726,115.764744 61.2891184,116.250604 58.58,116.46 C54.6661144,116.476604 50.7889919,115.70458 47.18,114.19 C46.7,114 46.22,113.66 45.83,114.11 Z" id="Shape" fill="#FFFFFF"></path>
            <path d="M40,163.11 C33.87,160.56 28.88,162.53 24.16,166.11 C29.35,165.26 34.59,164.65 40,163.11 Z" id="Shape" fill="#FFFFFF"></path>
            <path d="M302.07,155.14 C300.45,153.61 299.13,151.78 297.07,150.72 C292.740425,148.46774 288.129767,146.80306 283.36,145.77 C273.98,143.77 264.63,141.83 254.95,141.56 C247.19,141.35 239.44,141.13 231.69,141.34 C226.97393,141.432687 222.269677,141.846982 217.61,142.58 C208.47,144.1 199.34,145.78 190.29,147.77 C176.605654,150.84916 162.453343,151.239732 148.62,148.92 C141.891809,147.945131 135.287445,146.252134 128.92,143.87 C123.863546,141.903758 118.916413,139.6672 114.1,137.17 C109.58,134.77 105.25,132.07 100.75,129.67 C98.38,128.4 95.85,127.42 93.39,126.31 L92.95,126.71 C95.1981955,129.907924 97.0642325,133.358078 98.51,136.99 C99.2,138.52 99.9,140.05 100.68,141.53 C104.61,148.95 108.58,156.34 111.23,164.35 C112.768717,168.652749 113.44822,173.215608 113.23,177.78 C112.72,185.05 107.96,189.36 102.23,192.78 C101.082945,193.302653 100.314987,194.412352 100.23,195.67 C99.71,200.44 99.23,205.22 98.58,209.97 C97.6776454,216.745167 98.7469832,223.636841 101.66,229.82 C102.935849,232.920411 103.975478,236.112842 104.77,239.37 C105.52,242.13 106.24,244.91 107.09,247.65 C109.769146,256.77733 111.472017,266.16323 112.17,275.65 C112.52,279.47 112.44,283.32 112.55,287.16 C112.6,289.16 112.65,289.44 114.66,289.53 C119.202681,289.894981 123.767319,289.894981 128.31,289.53 C132.83,288.98 137.31,288.23 141.78,287.27 C148.03,285.93 154.35,284.91 160.28,282.34 C162.99,281.17 165.77,280.15 168.56,279.19 C172.665511,277.8515 176.617588,276.081613 180.35,273.91 C183.57,271.97 186.85,270.14 190.1,268.25 C196.88,264.3 203.55,260.15 209.34,254.82 C219.245945,245.623718 228.253299,235.504676 236.24,224.6 C242.55,216.04 248.49,207.21 255.39,199.09 C256.47,197.81 257.39,196.42 258.39,195.09 C261.88,190.21 265.45,185.4 269.95,181.36 C272.03,179.49 274.1,177.6 276.03,175.57 C282.454484,168.974103 289.879026,163.432695 298.03,159.15 C299.273028,158.418581 300.477928,157.624215 301.64,156.77 C302.29,156.31 302.73,155.75 302.07,155.14 Z M128,196 C127.623235,195.6684 127.527591,195.119486 127.77,194.68 C127.950667,194.291822 128.341863,194.045369 128.77,194.05 C129.339035,194.058956 129.877307,194.309907 130.25,194.74 C132.97,197.1 135.68,199.45 138.38,201.83 C138.95,202.33 139.38,202.94 138.79,203.68 C138.2,204.42 137.34,204.15 136.69,203.6 C134.56,201.78 132.45,199.94 130.35,198.1 C129.52,197.43 128.75,196.73 128,196 Z M149.92,272.52 C149.483125,272.76617 148.931481,272.65071 148.63,272.25 C148.3742,271.949758 148.165179,271.612628 148.01,271.25 C144.5,263.97 140.22,257.11 136.12,250.16 C134.12,246.78 132.55,243.16 130.51,239.84 C130.29944,239.499977 130.144176,239.128693 130.05,238.74 C129.923395,238.257159 130.147465,237.750927 130.59,237.52 C131.002459,237.234263 131.562806,237.298425 131.9,237.67 C132.370201,238.208612 132.782467,238.79517 133.13,239.42 C135.07,242.83 136.72,246.42 138.74,249.74 C142.37,255.74 145.95,261.83 149.21,268.07 C149.76,269.07 150.21,270.24 150.58,271.07 C150.63,271.89 150.41,272.28 149.93,272.53 L149.92,272.52 Z M171.66,263.9 C171.286869,263.790367 170.944461,263.595194 170.66,263.33 C166.43,259.66 161.59,256.79 157.27,253.24 C156.769421,252.844482 156.307365,252.402515 155.89,251.92 C155.684729,251.720423 155.568918,251.446299 155.568918,251.16 C155.568918,250.873701 155.684729,250.599577 155.89,250.4 C156.273419,249.950789 156.94145,249.88047 157.41,250.24 C157.681896,250.403901 157.936524,250.594872 158.17,250.81 C161.28,253.72 165.17,255.65 168.35,258.39 C169.63,259.47 170.98,260.48 172.29,261.53 C172.690321,261.80197 172.964258,262.223688 173.05,262.7 C173.080638,263.060873 172.937978,263.414834 172.665661,263.653605 C172.393344,263.892376 172.023772,263.987545 171.67,263.91 L171.66,263.9 Z M204.79,213.28 C204.662122,213.675845 204.356401,213.989057 203.963768,214.126479 C203.571134,214.263901 203.136819,214.209701 202.79,213.98 C202.202133,213.722768 201.631008,213.428856 201.08,213.1 C194.08,209 186.57,206.1 179.19,202.81 C173.85,200.46 168.33,198.54 163.19,195.67 C162.280111,195.15956 161.294266,194.798309 160.27,194.6 C159.942815,194.583828 159.637722,194.430071 159.430076,194.176705 C159.22243,193.923338 159.131593,193.593988 159.18,193.27 C159.29,192.34 160,192.19 160.84,192.22 C162.013124,192.380675 163.142077,192.775129 164.16,193.38 C168.75,196.02 173.71,197.85 178.57,199.89 C187.16908,203.349729 195.574696,207.272127 203.75,211.64 C204.51,212 205.12,212.43 204.8,213.29 L204.79,213.28 Z M235.56,195.2 C235.37,195.98 234.75,196.09 233.9,196.03 C233.481605,195.948087 233.06772,195.844616 232.66,195.72 C228.97,194.41 225.12,193.65 221.36,192.59 C220.292431,192.266345 219.244081,191.882395 218.22,191.44 C217.58,191.19 217.1,190.74 217.32,189.97 C217.54,189.2 218.32,188.97 219.05,189.2 C220.58,189.65 222.05,190.2 223.61,190.62 C227.01,191.51 230.43,192.3 233.75,193.45 C234.05,193.55 234.37,193.59 234.67,193.72 C234.9885,193.795607 235.263254,193.996037 235.432504,194.276239 C235.601753,194.556441 235.651297,194.892905 235.57,195.21 L235.56,195.2 Z M271.56,163.56 C271.38199,164.125054 270.794727,164.453746 270.22,164.31 C268.88,164.08 267.54,163.85 266.22,163.52 C264.9,163.19 263.61,162.76 262.32,162.36 C258.63,161.19 254.74,161.36 250.97,160.71 C249.8,160.5 248.6,160.45 247.43,160.17 C243.35,159.17 239.18,159.29 235.04,159.06 C233.918861,159.077105 232.800039,158.952792 231.71,158.69 C230.98,158.46 230.3,158.14 230.44,157.24 C230.58,156.34 231.29,156.18 232.08,156.29 C237.85,157.02 243.71,156.67 249.46,157.97 C252.182549,158.601444 254.965382,158.936725 257.76,158.97 C259.838714,159.091043 261.889454,159.508599 263.85,160.21 C265.730514,160.877583 267.668781,161.369681 269.64,161.68 C270.038089,161.729882 270.426034,161.841205 270.79,162.01 C271.105775,162.105113 271.367919,162.327004 271.513886,162.622729 C271.659853,162.918455 271.676553,163.261494 271.56,163.57 L271.56,163.56 Z" id="Shape" fill="#FE6053"></path>
            <path d="M50.28,338 C48.13,338.08 45.96,338.17 43.81,338.07 C38.08,337.79 32.31,337.86 26.71,336.24 C24.97,335.73 23.33,334.86 21.56,334.66 C21.05,335.26 21.28,335.83 21.34,336.36 C21.96,342.72 22.78,349.07 23.19,355.45 C23.83,365.15 25.89,374.75 25.04,384.56 C24.9245595,387.434329 24.2449996,390.2579 23.04,392.87 C21.16,396.58 19.35,400.32 17.55,404.06 C17.1563168,404.933061 16.8222188,405.831785 16.55,406.75 C16.19,407.85 16.71,408.46 17.79,408.56 C19.2176047,408.723001 20.6627191,408.635008 22.06,408.3 C26.75,407.05 30.86,404.55 35.06,402.3 C35.9595703,401.748483 36.5510339,400.809535 36.66,399.76 C36.86,398.82 37.02,397.87 37.2,396.93 C37.34,396.23 37.71,395.7 38.47,395.78 C39.23,395.86 39.63,396.56 39.59,397.35 C39.59,397.97 39.41,398.59 39.27,399.45 C41.37,399.15 42.15,398.17 42.27,396.24 C42.75,390.24 43.92,384.38 44.85,378.46 C45.85,372.15 47.5,365.95 48.15,359.58 C48.5763708,354.643724 49.2640014,349.733507 50.21,344.87 C50.6,343 50.93,341.11 51.31,339.23 C51.62,338.25 51.25,337.92 50.28,338 Z" id="Shape" fill="#FE6053"></path>
            <path d="M104.87,391.13 C103.62,389.38 102.61,387.46 101.48,385.62 C100.912139,384.658988 100.63108,383.55557 100.67,382.44 C100.799438,379.731791 101.089952,377.033687 101.54,374.36 C102.67,364.36 103.75,354.36 104.54,344.36 C104.66,342.7 104.77,341.04 104.88,339.43 C104.25,339.11 103.88,339.43 103.43,339.64 C100.256989,340.995629 96.7950931,341.535368 93.36,341.21 C90.23,341.02 87.2,340.26 84.11,339.91 C81.3407457,339.595719 78.6184546,338.954588 76,338 C75.51,337.82 75,337.44 74.44,337.9 C74.4148763,338.132657 74.4148763,338.367343 74.44,338.6 C76.39,347.08 78.32,355.6 80.54,363.98 C82.8356938,372.138269 84.2471464,380.519817 84.75,388.98 C84.85,391.13 85.17,393.27 85.37,395.42 C85.341064,397.262934 86.7348893,398.81792 88.57,398.99 C88.8,397.99 88.32,397.28 88.38,396.5 C88.3609334,396.174657 88.4728294,395.85521 88.6907419,395.612876 C88.9086543,395.370543 89.2144664,395.22547 89.54,395.21 C90.1410601,395.169027 90.6668461,395.610864 90.73,396.21 C90.91,396.91 91.07,397.61 91.24,398.31 C91.6211235,400.388175 93.1875301,402.048566 95.24,402.55 C96.7830482,402.965921 98.2805305,403.535433 99.71,404.25 C102.71,405.76 106.11,406.19 109.29,407.25 C111.03,407.82 111.59,407.25 111.58,405.33 C111.487386,402.917704 110.737,400.576636 109.41,398.56 C107.94,396 106.54,393.48 104.87,391.13 Z" id="Shape" fill="#FE6053"></path>
            <path d="M83.79,123.82 C84.8210794,124.258314 85.9211167,124.512169 87.04,124.57 C87.75,124.57 88.55,124.74 88.98,123.98 C89.3410652,123.242944 89.2680805,122.367127 88.79,121.7 C88.0966132,120.617894 87.1622438,119.710906 86.06,119.05 C81.9429901,116.45261 77.6415147,114.159827 73.19,112.19 C71.7701256,111.519281 70.0733072,111.981664 69.19,113.28 C68.88,113.72 68.89,114.23 69.56,114.34 C70.1285346,114.358897 70.6976018,114.325423 71.26,114.24 C71.4897733,114.225559 71.7202267,114.225559 71.95,114.24 C72.73,114.24 73.7,114.17 73.82,115.24 C73.96,116.49 72.93,116.65 72.05,116.64 C70.7807358,116.722876 69.5306264,116.992441 68.34,117.44 C67.34,117.72 66.47,118.04 66.34,119.18 C66.21,120.32 67.34,120.72 68.06,121.23 C68.4757306,121.465271 68.9425276,121.5957 69.42,121.61 C70.679842,121.817416 71.9533384,121.931062 73.23,121.95 C76.8365801,121.899963 80.419919,122.534513 83.79,123.82 Z" id="Shape" fill="#FE6053"></path>
            <path d="M23.92,123.06 C24.6116392,122.822972 25.2809217,122.525142 25.92,122.17 C28.5464254,120.761603 31.537066,120.179509 34.5,120.5 C36.41,120.65 38.33,120.76 40.23,120.99 C41.5079888,121.088103 42.7913639,120.889608 43.98,120.41 C45.13,120.01 45.26,119.04 44.4,118.16 C43.5902522,117.367619 42.5291164,116.883034 41.4,116.79 C39.1768311,116.57178 36.9399682,116.528314 34.71,116.66 C33.88,116.66 33.02,116.46 33.07,115.37 C33.12,114.28 33.9,114.28 34.63,114.26 C35.91,114.26 37.19,114.26 38.47,114.26 L38.47,114.16 L42.3,114.43 C42.73,114.43 43.1,114.37 43.2,113.87 C43.2,113.56 43.2,113.17 42.93,113.02 C41.67,112.39 40.49,111.34 38.93,111.68 C33.5112598,112.736534 28.2847951,114.611317 23.43,117.24 C22.4344741,117.777921 21.6072678,118.580899 21.04,119.56 C20.487033,120.488411 20.6046841,121.668978 21.33,122.47 C21.9499452,123.24685 23.0247505,123.491689 23.92,123.06 Z" id="Shape" fill="#FE6053"></path>
        </g>
    </g>
</svg>