<svg xmlns="http://www.w3.org/2000/svg" xmlns:xlink="http://www.w3.org/1999/xlink" width="177" height="33" viewBox="0 0 177 33"><defs><path id="11jna" d="M263.64 89.5h-11.22c.6-3.32 2.5-5.93 5.56-5.93 2.9 0 5.11 2.57 5.66 5.92zm4.36 1.44c0-5.89-3.7-10.94-9.87-10.94-6.56 0-10.31 5.4-10.31 11.98 0 6.73 3.9 11.97 10.81 11.97 4.11 0 7.27-1.78 9.07-4.25l-2.25-2.23a7.68 7.68 0 0 1-6.16 2.92c-4.51 0-6.72-3.37-7.07-7.47h15.73c.05-.6.05-1.24.05-1.98zm-31.35-3.32v15.59h4.25V80.7h-4.25l-10.87 15.58V80.7h-4.3v22.5h4.3zm-29.45 3.91l7.96-10.83h-4.9l-6.77 9.35h-2.7v-9.5l-4.31.15v22.5h4.3v-9.59h2.71l7.46 9.6h5.26zm-26.55-7.96c2.76 0 3.36 1.68 3.36 2.67 0 1.53-1.2 3.41-4.76 3.41h-.8v3.56h.8c4 0 5.86 1.79 5.86 3.62.05 1.23-.85 3.5-4.3 3.5-2.76 0-4.27-.83-6.07-2.27l-2.05 2.82c2.5 1.93 4.8 3.02 8.46 3.02 6.91 0 8.52-4.55 8.52-7.17-.05-2.03-1.6-4.36-4.81-5.4 2.7-1.28 3.66-3.56 3.66-5.34 0-2.23-1.3-5.99-7.57-5.99a9.81 9.81 0 0 0-7 2.58l1.94 2.57c1.06-.99 2.7-1.58 4.76-1.58zm-18.18 4.05v15.59h4.26V80.7h-4.26L151.6 96.28V80.7h-4.3v22.5h4.3zm-40.27 6.83c-.6 3.56-1 5.1-5.2 5.1v3.7c7 0 8.56-3.16 9.31-7.71l1.75-11.28h6.61v18.95h4.31V80.7h-14.62zm-13.82-1.48c0 4.5-2.55 7.42-6.06 7.42-3.76 0-6.51-3.86-6.81-9.85 1.8-3.16 4.46-4.94 7.56-4.94 3.06 0 5.3 3.01 5.3 7.37zm-8.36-17.47c-6.12 2.43-8.97 7.13-9.02 14.2 0 8.41 4.4 14.3 11.32 14.3 6.16 0 10.62-4.3 10.62-11.03 0-6.53-4.16-10.99-9.87-10.99a8.85 8.85 0 0 0-7.11 3.37c.9-3.81 3.15-6.09 7.01-7.13 4.16-1.04 8.61-1.48 9.77-7.22h-3.91c-1.85 3.46-5.26 3.07-8.81 4.5z"/></defs><g><g transform="translate(-91 -71)"><use fill="#ff6053" xlink:href="#11jna"/></g></g></svg>