<?xml version="1.0" encoding="UTF-8"?>
<svg width="121px" height="163px" viewBox="0 0 121 163" version="1.1" xmlns="http://www.w3.org/2000/svg" xmlns:xlink="http://www.w3.org/1999/xlink">
    <!-- Generator: Sketch 51.2 (57519) - http://www.bohemiancoding.com/sketch -->
    <title>Group 15</title>
    <desc>Created with Sketch.</desc>
    <defs></defs>
    <g id="Page-1" stroke="none" stroke-width="1" fill="none" fill-rule="evenodd">
        <g id="Group-15" fill-rule="nonzero">
            <path d="M120.15,54.44 C120.077379,49.7983043 119.294994,45.1950433 117.83,40.79 C115.938168,34.3343968 112.836449,28.2972447 108.69,23 C103.38,16.22 96.6,11.45 89.32,7.19 C88.7766425,6.85392384 88.1960852,6.58210219 87.59,6.38 C83.12,4.94 78.92,2.65 74.19,2.02 C73.3212517,1.88076352 72.4697897,1.64946083 71.65,1.33 C67.9291241,0.0418603728 63.9465276,-0.301763138 60.06,0.33 C59.5822121,0.391416369 59.1015728,0.428131873 58.62,0.44 C51.8217094,0.7107158 45.1264886,2.19402722 38.85,4.82 C27.1144022,9.32536503 17.1134452,17.4423883 10.29,28 C7.29,32.5 5.65,37.63 3.75,42.62 C2.48230403,45.7282101 1.59584553,48.978558 1.11,52.3 C0.77,55.24 0.456666667,58.18 0.17,61.12 C0.0834713084,61.9972888 0.0667520809,62.880064 0.12,63.76 C0.48,69.03 1.01,74.27 3.19,79.19 C3.45880012,79.8581904 3.67283831,80.5471258 3.83,81.25 C6.15,90.25 11.31,97.39 18.31,103.33 C21.9967822,106.273861 25.9125361,108.918918 30.02,111.24 C31.02,111.86 31.32,112.35 30.82,113.5 C29.69,116.14 28.7,118.85 27.66,121.5 C24.66,129.23 21.2,136.81 18.89,144.81 C18.31,146.81 17.77,148.81 17.19,150.81 C16.9090275,151.406243 17.033114,152.114737 17.5,152.58 C18.0895302,153.033538 18.9104698,153.033538 19.5,152.58 C19.7832542,152.42447 20.054061,152.247276 20.31,152.05 C25.02,148.31 30.39,145.57 35.31,142.2 C35.8371607,141.683925 36.5182796,141.353898 37.25,141.26 C37.4263134,141.511137 37.5834261,141.77522 37.72,142.05 C40.07,147.82 43.55,153.05 45.51,159.05 C45.8,159.92 46.21,160.72 47.25,160.8 C48.29,160.88 48.83,160.12 49.12,159.25 C50.98,153.72 53.72,148.5 55.12,142.84 C57.12,135.08 60.31,127.75 62.52,119.84 C62.88,120.18 63.07,120.27 63.1,120.4 C65.03,128.23 67.35,135.96 69.1,143.83 C70.34,149.36 71.28,154.97 73.16,160.35 C73.42,161.11 73.61,161.98 74.61,162.03 C75.61,162.08 76.07,161.34 76.38,160.43 C76.9102703,158.344311 77.6891843,156.329878 78.7,154.43 C80.3594621,151.607697 81.8358378,148.681667 83.12,145.67 C83.92,143.97 84.78,142.3 85.66,140.54 C87.66,141.7 89.33,142.91 91.16,143.89 C95.25,146.06 99.54,147.83 103.49,150.27 C104.24,150.73 105.06,151.06 105.84,151.47 C106.365898,151.870057 107.094102,151.870057 107.62,151.47 C108.22,150.98 108.1,150.33 107.94,149.71 C107.78,149.09 107.6,148.64 107.41,148.11 C106.48,145.56 105.5,143.03 104.63,140.46 C101.38,130.94 98.58,121.27 95.09,111.82 C94.37,109.9 94.4,109.87 96.27,108.69 C103.549329,104.246139 109.39009,97.7942168 113.09,90.11 C113.78,88.67 114.45,87.22 115.2,85.81 C118.68,79.33 120.02,72.31 120.3,65.07 C120.5,61.48 120.09,58 120.15,54.44 Z M59.36,121.83 C58.06,125.77 56.64,129.67 55.36,133.61 C54.75,135.43 54.17,137.26 53.74,139.13 C52.36,145.07 49.6,150.5 47.52,156.76 C44.82,150.54 41.66,145.23 39.4,139.5 C38.74,137.84 37.86,137.67 36.18,138.75 C31.46,141.75 26.76,144.75 22.04,147.75 C21.7218675,148.050497 21.3070496,148.227769 20.87,148.25 C20.53,147.48 21,146.78 21.18,146.06 C22.74,140 25.33,134.32 27.57,128.51 C29.26,124.11 31.03,119.74 32.77,115.36 C33.58,113.36 33.58,113.36 35.46,114.17 C40.4827166,116.437288 45.7511608,118.115137 51.16,119.17 C52.8999529,119.402741 54.654748,119.506357 56.41,119.48 C56.89,119.48 57.41,119.48 57.85,119.48 C59.67,119.78 59.93,120.07 59.36,121.83 Z M101.36,138.3 C102.36,141.39 103.53,144.44 104.62,147.51 L104.29,147.88 C99.05,144.51 92.99,142.67 87.96,138.88 C87.45,138.5 86.9,138.16 86.35,137.83 C85.06,137.05 84.65,137.09 83.92,138.49 C82.75,140.76 81.62,143.05 80.63,145.41 C79.03,149.22 76.75,152.66 74.78,156.41 C71.94,144.15 68.92,131.99 65.55,119.78 C69.66,119.06 73.44,118.51 77.18,117.71 C81.716638,116.739292 86.0463698,114.975578 89.97,112.5 C92.32,111.02 92.27,111.05 93.24,113.73 C96.14,121.86 98.68,130.1 101.34,138.3 L101.36,138.3 Z M115.14,79.89 C111.47,89.53 106.61,98.56 97.82,104.62 C92.11,108.56 86.29,112.43 79.54,114.45 C74.5534763,115.880679 69.4271423,116.769154 64.25,117.1 C59.8733702,117.511444 55.4614844,117.339945 51.13,116.59 C43.4055308,115.197474 36.0335602,112.288112 29.44,108.03 C25.933259,105.954746 22.5901969,103.614603 19.44,101.03 C14.01,96.16 9.44,90.75 7.22,83.62 C6.45,81.1 5.67,78.62 4.77,76.11 C2.67919653,70.0439263 2.11255149,63.5566992 3.12,57.22 C3.18,56.74 3.32,56.27 3.34,55.79 C3.56,50.37 5.28,45.32 7.26,40.34 C8.32817636,37.4134988 9.57382153,34.5548601 10.99,31.78 C15.1233583,24.4385934 20.9010175,18.1543621 27.87,13.42 C33.87,9.21 40.53,6.69 47.39,4.5 C50.31,3.56 53.39,3.5 56.39,3.06 C58.52,2.75 60.7,2.77 62.84,2.56 C66.28,2.23 69.49,3.27 72.7,4.22 C73.914198,4.61105848 75.1537688,4.91844531 76.41,5.14 C78.0760656,5.36053074 79.6905316,5.87160909 81.18,6.65 C82.0352732,7.08371649 82.9209399,7.45469387 83.83,7.76 C92.1,10.67 98.83,15.81 104.72,22.15 C109.760665,27.555929 113.4091,34.1080105 115.35,41.24 C116.65,45.97 118.13,50.75 117.69,55.8 C117.58,56.99 117.69,58.2 117.69,59.39 C118.496431,66.3305861 117.614772,73.3632721 115.12,79.89 L115.14,79.89 Z" id="Shape" fill="#222222"></path>
            <path d="M98,36.68 C94.8090146,32.103012 90.9455027,28.0338506 86.54,24.61 C81.5588725,20.7065835 75.6804635,18.1111456 69.44,17.06 C61.6308811,15.591798 53.5733714,16.1951631 46.07,18.81 C37.1257346,21.7086187 29.3158663,27.3395582 23.74,34.91 C21.7771377,37.4377942 20.2247737,40.259047 19.14,43.27 C17.166285,49.0473508 16.1758707,55.1149064 16.21,61.22 C16.0325006,65.123886 16.5818211,69.0267742 17.83,72.73 C19.43,77.91 20.75,83.22 24.54,87.4 C26.95,90.07 29.12,92.97 32.13,95.02 C34.58,96.68 37.07,98.27 39.52,99.92 C41.9175822,101.671493 44.6356213,102.935381 47.52,103.64 C49.7,104.09 51.89,104.57 54.08,104.98 C61.2637591,106.37451 68.6959255,105.698228 75.51,103.03 C79.2272841,101.556688 82.7528537,99.6394498 86.01,97.32 C94.07,91.66 100.41,84.51 103.75,75.01 C105.471312,70.0046377 106.015404,64.6697996 105.34,59.42 C104.4,51.36 102.85,43.6 98,36.68 Z M100.3,76.38 C100.25359,76.444448 100.216555,76.5151519 100.19,76.59 C98.29,82.93 93.82,87.44 89.12,91.66 C85.7157763,94.5734228 81.9719741,97.064814 77.97,99.08 C69.66,103.51 60.97,104.18 51.92,101.97 C50.21,101.56 48.49,101.24 46.8,100.78 C44.5252809,100.038092 42.382159,98.9412181 40.45,97.53 C38.17,96.05 35.9,94.5533333 33.64,93.04 C30.81,91.15 28.8,88.42 26.55,85.93 C22.98,82 21.74,77 20.24,72.11 C19.0383041,68.6253601 18.5254589,64.9403466 18.73,61.26 C18.6132488,55.5669618 19.4966517,49.8976138 21.34,44.51 C22.5527465,41.1173526 24.349853,37.9631092 26.65,35.19 C29.4361763,31.6802142 32.7687358,28.6414061 36.52,26.19 C41.9344979,22.6080888 48.050441,20.2217119 54.46,19.19 C59.9,18.19 65.29,18.74 70.66,19.78 C75.4488285,20.7350311 79.9627648,22.7510965 83.87,25.68 C86.903575,27.8949668 89.7346719,30.3746865 92.33,33.09 C93.2025562,34.0295515 93.9734945,35.0585865 94.63,36.16 C95.79,38.07 96.96,39.99 98.25,41.81 C99.1523992,43.1323087 99.8283096,44.5956549 100.25,46.14 C101.739941,51.1244113 102.669023,56.2595189 103.02,61.45 C103.31,66.65 102.88,71.72 100.3,76.38 Z" id="Shape" fill="#222222"></path>
            <path d="M72.31,72.55 C72.9707701,69.9926074 73.1872523,67.3407005 72.95,64.71 C72.44,59.79 68.02,54.54 61.11,56.6 C59.3688128,57.138059 57.6706673,57.8066202 56.03,58.6 C55.9333254,57.6015858 56.4677705,56.6483591 57.37,56.21 C58.61,55.35 59.9,54.54 61.21,53.78 C62.7565424,52.9383818 64.1826937,51.8923132 65.45,50.67 C68.1989916,47.6263033 68.9002521,43.250281 67.24,39.5 C66.87,38.77 66.43,38.04 65.51,38.05 C64.79,38.05 64.51,38.72 64.2,39.29 C62.9718742,41.4591295 61.1460204,43.2294441 58.94,44.39 C57.26,45.31 55.53,46.14 53.85,47.05 C50.47,48.9 47.85,51.52 47.25,55.42 C46.1063844,61.2488339 46.5097758,67.2755707 48.42,72.9 C49.2598521,75.5140526 51.151641,77.6595296 53.64,78.82 C55.0084731,79.4793813 56.4220254,80.0407921 57.87,80.5 C60.8396457,81.4136236 64.0528898,81.0834253 66.7746633,79.584942 C69.4964369,78.0864586 71.4938609,75.5479027 72.31,72.55 Z M61.22,78.55 C58.4859975,78.4339948 55.8392337,77.5540498 53.58,76.01 C52.3678899,75.216297 51.4452409,74.0515843 50.95,72.69 C48.84,67.22 48.77,61.6 49.69,55.93 C50.0051694,54.0926173 50.9575842,52.4250063 52.38,51.22 C52.9556084,50.6667189 53.5892819,50.1772145 54.27,49.76 C58.07,47.63 62.27,46.13 65.27,42.67 C65.8626426,44.8764422 65.2811465,47.232634 63.73,48.91 C62.6583987,49.9911662 61.4274456,50.9017343 60.08,51.61 C58.382758,52.499892 56.775314,53.5514283 55.28,54.75 C53.4808703,56.1073198 52.8340006,58.5135102 53.71,60.59 C54.09,61.72 54.77,62.05 55.93,61.59 C56.5839056,61.2906835 57.2214685,60.9568809 57.84,60.59 C59.2408318,59.8165975 60.7465395,59.2506939 62.31,58.91 C66.1,58.12 69.2,59.91 70.15,63.7 C71.1617722,67.3755451 70.6308973,71.304742 68.68,74.58 C67.1425547,77.210355 64.2620449,78.7587256 61.22,78.59 L61.22,78.55 Z" id="Shape" fill="#222222"></path>
            <path d="M78.44,91 C77.58,91.41 76.75,91.9 75.86,92.22 C72.2,93.51 68.67,95.22 64.73,95.57 C64.1594889,95.5676381 63.6818602,96.0018459 63.63,96.57 C63.5995907,96.8923548 63.7018478,97.2131831 63.9131858,97.4584861 C64.1245238,97.7037891 64.4266936,97.8523849 64.75,97.87 C65.045121,97.9085824 65.3423709,97.9286217 65.64,97.93 C65.8977226,97.9273099 66.1549715,97.9072645 66.41,97.87 C70.6489803,96.8220607 74.7855235,95.3963589 78.77,93.61 C79.0624023,93.4829118 79.340604,93.3253759 79.6,93.14 C80.28,92.67 80.94,92.14 80.34,91.21 C79.74,90.28 79.13,90.63 78.44,91 Z" id="Shape" fill="#222222"></path>
            <path d="M51.88,27.13 C52.36,27.06 52.88,27.07 53.3,26.97 C55.6096529,26.552158 57.9528861,26.347962 60.3,26.36 C61.7625264,26.2386865 63.2336746,26.2688468 64.69,26.45 C65.0128384,26.5231462 65.3515529,26.4561156 65.6221977,26.2655207 C65.8928424,26.0749258 66.0700857,25.7786059 66.11,25.45 C66.1834435,25.1305359 66.1158163,24.7949164 65.9243835,24.5288248 C65.7329507,24.2627333 65.4362395,24.0919224 65.11,24.06 C64.3440555,23.8484176 63.5545042,23.7341847 62.76,23.72 C60.14,23.8 57.52,23.95 54.91,24.13 C53.8034074,24.2333233 52.7045173,24.4070081 51.62,24.65 C50.8,24.81 49.99,25.14 50.19,26.18 C50.37,27.09 51.1,27.23 51.88,27.13 Z" id="Shape" fill="#222222"></path>
            <path d="M95.88,62.08 C95.2098269,62.1683479 94.7262982,62.7661651 94.78,63.44 C94.78,64.16 94.78,64.88 94.78,65.6 C94.8736615,67.8372733 94.5341033,70.0715663 93.78,72.18 C93.5,72.9 93.54,73.66 94.39,73.98 C95.24,74.3 95.75,73.85 96.06,73.09 C97.38,69.89 97.37,66.54 97.18,63.18 C97.1718198,62.8547786 97.0250827,62.5485453 96.7767346,62.3384046 C96.5283865,62.1282639 96.2020896,62.0342376 95.88,62.08 Z" id="Shape" fill="#222222"></path>
            <path d="M87.77,38.7 C88.0887232,38.7132266 88.3974913,38.5874411 88.6162407,38.3552598 C88.83499,38.1230785 88.9421741,37.8073709 88.91,37.49 C88.8739514,37.0063087 88.6473551,36.5567128 88.28,36.24 C86.717196,34.4204575 85.0117914,32.7284286 83.18,31.18 C82.1368643,30.4342956 81.0406094,29.7658475 79.9,29.18 C79.4221279,28.8243525 78.7465278,28.9227843 78.39,29.4 C78.1751788,29.6483846 78.0735823,29.975055 78.1096391,30.3014643 C78.145696,30.6278735 78.3161442,30.9244925 78.58,31.12 C78.988367,31.5004712 79.4540631,31.8143099 79.96,32.05 C81.1907279,32.636314 82.2895933,33.4664166 83.19,34.49 C84.19,35.6 85.32,36.66 86.37,37.76 C86.7015406,38.2385572 87.201554,38.5742805 87.77,38.7 Z" id="Shape" fill="#222222"></path>
            <path d="M25.33,53.16 C26.2,53.36 26.63,52.77 26.87,52.02 C26.9261861,51.7897321 26.9662829,51.555834 26.99,51.32 C27.4024355,49.1304883 28.2974452,47.0603512 29.61,45.26 C29.9830795,44.8459064 30.2355548,44.3374971 30.34,43.79 C30.4779847,43.2260526 30.2028413,42.6424151 29.68,42.39 C29.1628228,42.1128769 28.5189986,42.2993639 28.23,42.81 C27.65,43.66 27.06,44.51 26.57,45.41 C25.4157436,47.4158048 24.6904417,49.6393827 24.44,51.94 C24.3612772,52.5195909 24.7540498,53.0579984 25.33,53.16 Z" id="Shape" fill="#222222"></path>
            <path d="M25.94,65.61 C25.73,64.93 25.34,64.42 24.6,64.52 C23.86,64.62 23.49,65.32 23.54,66.4 C24.2214731,68.993877 25.0562738,71.5450278 26.04,74.04 C26.1372338,74.3514531 26.366573,74.6043526 26.6670646,74.7314837 C26.9675562,74.8586147 27.3087629,74.8471 27.6,74.7 C28.2214971,74.4378555 28.5159284,73.7240826 28.26,73.1 C27.49,70.6 26.7,68.11 25.94,65.61 Z" id="Shape" fill="#222222"></path>
            <path d="M43.16,29.24 C43.22,28.24 42.11,27.7 41.07,28.3 C39.1210401,29.5310947 37.3596127,31.0365594 35.84,32.77 C35.5562322,33.0017003 35.3916055,33.3486543 35.3916055,33.715 C35.3916055,34.0813457 35.5562322,34.4282997 35.84,34.66 C36.54,35.32 37.16,34.89 37.71,34.38 C39.2078648,32.8451156 40.8448776,31.4524831 42.6,30.22 C42.9208231,29.990787 43.1254036,29.6327712 43.16,29.24 Z" id="Shape" fill="#222222"></path>
            <path d="M39.67,88.92 C38.1180228,87.7978816 36.7047938,86.4954282 35.46,85.04 C34.94,84.38 34.31,84.13 33.62,84.69 C33.327951,84.9183033 33.1492207,85.2620054 33.1300394,85.6322041 C33.1108581,86.0024028 33.2531099,86.3627361 33.52,86.62 C35.0507714,88.4592705 36.8591954,90.0483893 38.88,91.33 C39.2213702,91.5530071 39.654761,91.5804032 40.0214957,91.4021578 C40.3882304,91.2239125 40.6344476,90.8662041 40.67,90.46 C40.6059329,89.8149423 40.2332054,89.240942 39.67,88.92 Z" id="Shape" fill="#222222"></path>
            <path d="M96.07,58.19 C96.6508358,58.0882792 97.0558051,57.557029 97,56.97 C97,56.73 97,56.49 97,56.25 C96.8458835,54.2567437 96.4941569,52.2837245 95.95,50.36 C95.8283003,49.9855347 95.6231401,49.6436011 95.35,49.36 C95.0316066,48.9741936 94.4914797,48.8546235 94.04,49.07 C93.5489437,49.2194376 93.2507714,49.7163915 93.35,50.22 C93.9630248,52.5332883 94.3976339,54.8902072 94.65,57.27 C94.6851824,57.5963538 94.8655624,57.8894755 95.1410428,58.0679557 C95.4165231,58.2464359 95.757767,58.2912678 96.07,58.19 Z" id="Shape" fill="#222222"></path>
            <path d="M94.08,45.88 C93.8726876,44.1209066 92.9134072,42.5379115 91.45,41.54 C91.0003266,41.3570239 90.4844759,41.4681302 90.15,41.82 C89.7432965,42.1194429 89.6540276,42.6907639 89.95,43.1 C90.700395,44.1064395 91.3980017,45.1511806 92.04,46.23 C92.3127499,46.6520507 92.8563455,46.8061408 93.31,46.59 C93.6728719,46.5037162 93.9646256,46.2346965 94.08,45.88 Z" id="Shape" fill="#222222"></path>
            <path d="M89,81.75 C88.6001989,81.4430406 88.0344367,81.4816153 87.68,81.84 C86.9022668,82.7168262 86.180824,83.6420099 85.52,84.61 C85.2753686,85.0397882 85.3816297,85.5838449 85.77,85.89 C86.0626568,86.1615847 86.4744126,86.2635793 86.86,86.16 C87.74,85.92 89.53,83.65 89.52,82.74 C89.5335451,82.3413519 89.3359145,81.9650936 89,81.75 Z" id="Shape" fill="#222222"></path>
            <path d="M69.55,27.65 C70.43,27.97 71.36,28.15 72.18,28.37 C73,28.59 73.59,28.46 73.87,27.74 C74.0084704,27.4013459 73.9876441,27.0184245 73.8132617,26.6967858 C73.6388793,26.3751472 73.3293523,26.1487502 72.97,26.08 C72.0751311,25.7917947 71.1589697,25.5744571 70.23,25.43 C69.9185871,25.343332 69.5850216,25.3929427 69.3123097,25.5664867 C69.0395978,25.7400306 68.8533815,26.0211902 68.8,26.34 C68.6582714,26.9071339 68.9891661,27.4850966 69.55,27.65 Z" id="Shape" fill="#222222"></path>
            <path d="M33,35.53 C32.84,35.53 32.64,35.53 32.54,35.64 C31.5521049,36.5456827 30.7563433,37.6407051 30.2,38.86 C30.0936228,39.2453382 30.2572177,39.6543256 30.6,39.86 C30.9829668,40.1747114 31.5263268,40.2030959 31.94,39.93 C33.0281293,39.2482999 33.8122904,38.1741065 34.13,36.93 C34.2334468,36.5854063 34.1601842,36.2119622 33.9342103,35.9319946 C33.7082364,35.6520269 33.3586639,35.5016044 33,35.53 Z" id="Shape" fill="#222222"></path>
            <path d="M30.28,78.24 C29.9029337,78.0165501 29.4311504,78.029065 29.0664609,78.2721914 C28.7017714,78.5153177 28.5087641,78.9459965 28.57,79.38 C28.8303469,80.4545116 29.3965165,81.4305463 30.2,82.19 C30.5068377,82.4586412 30.9460674,82.5140395 31.31,82.33 C31.7968794,82.0966034 32.0906868,81.5883958 32.05,81.05 C31.7032221,79.9805452 31.0948084,79.0146456 30.28,78.24 Z" id="Shape" fill="#222222"></path>
            <path d="M49.4,93.52 C48.7,93.15 48.03,93.1 47.55,93.86 C47.2923507,94.2734055 47.3286225,94.8053918 47.64,95.18 C48.5615612,96.0407166 49.8197435,96.4442153 51.07,96.28 C51.5663366,96.1206207 51.9048038,95.6612723 51.91,95.14 C51.71,93.73 50.29,94 49.4,93.52 Z" id="Shape" fill="#222222"></path>
            <path d="M92.3,76.23 C91.7640375,75.9877505 91.1327709,76.2189186 90.88,76.75 C90.47,77.65 89.77,78.56 90.36,79.62 C90.6003175,80.05002 91.1180056,80.2409705 91.58,80.07 C91.7985688,79.9828959 91.9937586,79.8459206 92.15,79.67 C92.5995757,79.0319554 92.9189955,78.311562 93.09,77.55 C93.1722006,76.9784949 92.8425125,76.4276238 92.3,76.23 Z" id="Shape" fill="#222222"></path>
            <path d="M24.62,61.09 C25.1191366,61.1704896 25.5998286,60.8657652 25.74,60.38 C25.8700293,59.7668383 25.956909,59.1453144 26,58.52 L26,57.77 C26.046185,57.4471724 25.9506474,57.1201322 25.7379418,56.8729338 C25.5252362,56.6257354 25.2161051,56.482485 24.89,56.48 C24.2974926,56.4242467 23.7617905,56.8336451 23.66,57.42 C23.4186869,58.3518022 23.3913374,59.3261284 23.58,60.27 C23.6700564,60.7666213 24.1160727,61.1182881 24.62,61.09 Z" id="Shape" fill="#222222"></path>
            <path d="M47.8,28.31 C48.52,28.03 49.32,27.77 49.44,26.83 C49.4648285,26.5417365 49.372955,26.2555647 49.1849708,26.0356232 C48.9969867,25.8156818 48.7286132,25.6803646 48.44,25.66 C47.4089197,25.5839831 46.3985584,25.9771055 45.69,26.73 C45.4878938,26.9308542 45.381068,27.2083867 45.3963447,27.4929144 C45.4116213,27.777442 45.5475494,28.0419408 45.77,28.22 C46.42,28.81 47.15,28.57 47.8,28.31 Z" id="Shape" fill="#222222"></path>
            <path d="M56.51,95 C55.72,94.95 55.1,95.19 55.01,96.08 C54.92,96.97 55.72,97.46 56.82,97.47 C57.69,97.47 58.48,97.2 58.44,96.22 C58.4,95 57.4,95 56.51,95 Z" id="Shape" fill="#222222"></path>
            <path d="M43.86,90.77 C43.5395944,90.7041244 43.207225,90.7991172 42.9700225,91.0243599 C42.7328199,91.2496027 42.6207741,91.5766176 42.67,91.9 C42.67,92.84 43.35,93.25 44.22,93.3 C45.09,93.35 45.36,92.92 45.45,92.13 C45.3349463,91.3426876 44.6556307,90.7616377 43.86,90.77 Z" id="Shape" fill="#222222"></path>
            <path d="M62.54,62.72 C58.87,61.79 56.04,64.31 56.06,68.51 C55.991839,69.7936365 56.2282759,71.0751926 56.75,72.25 C57.2825461,73.33988 58.2405083,74.1622771 59.3984565,74.5236629 C60.5564047,74.8850487 61.8120823,74.7535097 62.87,74.16 C64.5342166,73.1473485 65.7147402,71.5011139 66.14,69.6 C66.87,66.35 65.32,63.43 62.54,62.72 Z M62.34,71.38 C61.8518351,72.0624769 60.9895629,72.3676713 60.180761,72.1442453 C59.371959,71.9208194 58.7886176,71.2162842 58.72,70.38 C58.6170193,69.9066069 58.5600873,69.4243597 58.55,68.94 C58.55,66.12 58.79,65.73 60.76,65.22 C61.4022522,64.9699018 62.1244152,65.0337614 62.7128128,65.3926839 C63.3012104,65.7516064 63.6884671,66.3644928 63.76,67.05 C64.0850506,68.6428522 63.5452092,70.2889882 62.34,71.38 Z" id="Shape" fill="#222222"></path>
            <path d="M117.66,59.36 C117.66,58.17 117.57,56.96 117.66,55.77 C118.1,50.72 116.66,45.94 115.32,41.21 C113.3791,34.0780105 109.730665,27.525929 104.69,22.12 C98.82,15.78 92.07,10.64 83.8,7.73 C82.8909399,7.42469387 82.0052732,7.05371649 81.15,6.62 C79.6605316,5.84160909 78.0460656,5.33053074 76.38,5.11 C75.1237688,4.88844531 73.884198,4.58105848 72.67,4.19 C69.46,3.24 66.25,2.19 62.81,2.53 C60.67,2.74 58.49,2.72 56.36,3.03 C53.36,3.46 50.3,3.53 47.36,4.47 C40.5,6.66 33.81,9.18 27.84,13.39 C20.8710175,18.1243621 15.0933583,24.4085934 10.96,31.75 C9.54382153,34.5248601 8.29817636,37.3834988 7.23,40.31 C5.23,45.31 3.53,50.31 3.31,55.76 C3.31,56.24 3.15,56.71 3.09,57.19 C2.08255149,63.5266992 2.64919653,70.0139263 4.74,76.08 C5.64,78.55 6.42,81.08 7.19,83.59 C9.38,90.72 13.98,96.13 19.41,101 C22.5601969,103.584603 25.903259,105.924746 29.41,108 C36.0035602,112.258112 43.3755308,115.167474 51.1,116.56 C55.4314844,117.309945 59.8433702,117.481444 64.22,117.07 C69.3971423,116.739154 74.5234763,115.850679 79.51,114.42 C86.26,112.42 92.08,108.53 97.79,104.59 C106.58,98.53 111.44,89.5 115.11,79.86 C117.598002,73.3316118 118.472794,66.298975 117.66,59.36 Z M103.73,75 C100.39,84.5 94.05,91.65 85.99,97.31 C82.7328537,99.6294498 79.2072841,101.546688 75.49,103.02 C68.6759255,105.688228 61.2437591,106.36451 54.06,104.97 C51.87,104.56 49.68,104.08 47.5,103.63 C44.6156213,102.925381 41.8975822,101.661493 39.5,99.91 C37.05,98.26 34.56,96.67 32.11,95.01 C29.11,92.96 26.93,90.01 24.52,87.39 C20.73,83.21 19.41,77.9 17.81,72.72 C16.5618211,69.0167742 16.0125006,65.113886 16.19,61.21 C16.1558707,55.1049064 17.146285,49.0373508 19.12,43.26 C20.2047737,40.249047 21.7571377,37.4277942 23.72,34.9 C29.2958663,27.3295582 37.1057346,21.6986187 46.05,18.8 C53.5533714,16.1851631 61.6108811,15.581798 69.42,17.05 C75.6604635,18.1011456 81.5388725,20.6965835 86.52,24.6 C90.9255027,28.0238506 94.7890146,32.093012 97.98,36.67 C102.83,43.59 104.38,51.35 105.3,59.41 C105.981822,64.6582646 105.444577,69.9930662 103.73,75 Z" id="Shape" fill="#FFFFFF"></path>
            <path d="M100.25,46.17 C99.8283096,44.6256549 99.1523992,43.1623087 98.25,41.84 C96.96,40.02 95.79,38.1 94.63,36.19 C93.9734945,35.0885865 93.2025562,34.0595515 92.33,33.12 C89.7346719,30.4046865 86.903575,27.9249668 83.87,25.71 C79.9627648,22.7810965 75.4488285,20.7650311 70.66,19.81 C65.29,18.81 59.9,18.2 54.46,19.22 C48.050441,20.2517119 41.9344979,22.6380888 36.52,26.22 C32.7687358,28.6714061 29.4361763,31.7102142 26.65,35.22 C24.349853,37.9931092 22.5527465,41.1473526 21.34,44.54 C19.4966517,49.9276138 18.6132488,55.5969618 18.73,61.29 C18.5254589,64.9703466 19.0383041,68.6553601 20.24,72.14 C21.74,77.03 22.98,82.03 26.55,85.96 C28.8,88.45 30.81,91.18 33.64,93.07 C35.9,94.5833333 38.17,96.08 40.45,97.56 C42.382159,98.9712181 44.5252809,100.068092 46.8,100.81 C48.49,101.27 50.21,101.59 51.92,102 C60.92,104.21 69.66,103.54 77.97,99.11 C81.9719741,97.094814 85.7157763,94.6034228 89.12,91.69 C93.82,87.47 98.29,82.96 100.19,76.62 C100.216555,76.5451519 100.25359,76.474448 100.3,76.41 C102.88,71.75 103.3,66.68 103.02,61.51 C102.671239,56.3094141 101.742135,51.1641226 100.25,46.17 Z M68.8,26.34 C68.8533815,26.0211902 69.0395978,25.7400306 69.3123097,25.5664867 C69.5850216,25.3929427 69.9185871,25.343332 70.23,25.43 C71.1589697,25.5744571 72.0751311,25.7917947 72.97,26.08 C73.3293523,26.1487502 73.6388793,26.3751472 73.8132617,26.6967858 C73.9876441,27.0184245 74.0084704,27.4013459 73.87,27.74 C73.59,28.46 72.94,28.5 72.18,28.37 C71.42,28.24 70.43,27.97 69.55,27.65 C68.9891661,27.4850966 68.6582714,26.9071339 68.8,26.34 Z M51.63,24.69 C52.7145173,24.4470081 53.8134074,24.2733233 54.92,24.17 C57.53,23.99 60.15,23.84 62.77,23.76 C63.5645042,23.7741847 64.3540555,23.8884176 65.12,24.1 C65.4462395,24.1319224 65.7429507,24.3027333 65.9343835,24.5688248 C66.1258163,24.8349164 66.1934435,25.1705359 66.12,25.49 C66.0800857,25.8186059 65.9028424,26.1149258 65.6321977,26.3055207 C65.3615529,26.4961156 65.0228384,26.5631462 64.7,26.49 C63.2436746,26.3088468 61.7725264,26.2786865 60.31,26.4 C57.9628861,26.387962 55.6196529,26.592158 53.31,27.01 C52.85,27.11 52.37,27.1 51.89,27.17 C51.11,27.27 50.38,27.17 50.21,26.26 C50,25.18 50.81,24.85 51.63,24.69 Z M26.57,45.41 C27.06,44.51 27.65,43.66 28.23,42.81 C28.5189986,42.2993639 29.1628228,42.1128769 29.68,42.39 C30.2028413,42.6424151 30.4779847,43.2260526 30.34,43.79 C30.2355548,44.3374971 29.9830795,44.8459064 29.61,45.26 C28.2974452,47.0603512 27.4024355,49.1304883 26.99,51.32 C26.9662829,51.555834 26.9261861,51.7897321 26.87,52.02 C26.63,52.77 26.2,53.36 25.33,53.16 C24.7540498,53.0579984 24.3612772,52.5195909 24.44,51.94 C24.6904417,49.6393827 25.4157436,47.4158048 26.57,45.41 Z M23.66,57.41 C23.7617905,56.8236451 24.2974926,56.4142467 24.89,56.47 C25.2161051,56.472485 25.5252362,56.6157354 25.7379418,56.8629338 C25.9506474,57.1101322 26.046185,57.4371724 26,57.76 L26,58.51 C25.956909,59.1353144 25.8700293,59.7568383 25.74,60.37 C25.5998286,60.8557652 25.1191366,61.1604896 24.62,61.08 C24.1309963,61.0879763 23.7079673,60.7410925 23.62,60.26 C23.419766,59.3223538 23.4334381,58.351635 23.66,57.42 L23.66,57.41 Z M27.6,74.69 C27.3087629,74.8371 26.9675562,74.8486147 26.6670646,74.7214837 C26.366573,74.5943526 26.1372338,74.3414531 26.04,74.03 C25.0562738,71.5350278 24.2214731,68.983877 23.54,66.39 C23.49,65.31 23.73,64.63 24.6,64.51 C25.47,64.39 25.73,64.92 25.94,65.6 C26.7,68.1 27.49,70.6 28.26,73.09 C28.3860845,73.3910101 28.3873759,73.7297885 28.26359,74.0317512 C28.1398041,74.3337138 27.9010892,74.5741046 27.6,74.7 L27.6,74.69 Z M31.31,82.32 C30.9460674,82.5040395 30.5068377,82.4486412 30.2,82.18 C29.3965165,81.4205463 28.8303469,80.4445116 28.57,79.37 C28.5087641,78.9359965 28.7017714,78.5053177 29.0664609,78.2621914 C29.4311504,78.019065 29.9029337,78.0065501 30.28,78.23 C31.0948084,79.0046456 31.7032221,79.9705452 32.05,81.04 C32.0949753,81.5819088 31.8004948,82.0952601 31.31,82.33 L31.31,82.32 Z M32,40 C31.5863268,40.2730959 31.0429668,40.2447114 30.66,39.93 C30.3172177,39.7243256 30.1536228,39.3153382 30.26,38.93 C30.8163433,37.7107051 31.6121049,36.6156827 32.6,35.71 C32.7,35.62 32.9,35.63 33.05,35.6 C33.4175077,35.564057 33.7782238,35.7166231 34.0084066,36.0053612 C34.2385894,36.2940992 34.3069358,36.6797432 34.19,37.03 C33.8653873,38.2630197 33.0819827,39.3254451 32,40 Z M38.93,91.36 C36.9091954,90.0783893 35.1007714,88.4892705 33.57,86.65 C33.3031099,86.3927361 33.1608581,86.0324028 33.1800394,85.6622041 C33.1992207,85.2920054 33.377951,84.9483033 33.67,84.72 C34.36,84.16 34.99,84.41 35.51,85.07 C36.7547938,86.5254282 38.1680228,87.8278816 39.72,88.95 C40.2832054,89.270942 40.6559329,89.8449423 40.72,90.49 C40.6849942,90.9078382 40.4272228,91.2742615 40.0457887,91.4483944 C39.6643547,91.6225273 39.2186383,91.5772615 38.88,91.33 L38.93,91.36 Z M37.72,34.41 C37.17,34.92 36.55,35.35 35.85,34.69 C35.5662322,34.4582997 35.4016055,34.1113457 35.4016055,33.745 C35.4016055,33.3786543 35.5662322,33.0317003 35.85,32.8 C37.3696127,31.0665594 39.1310401,29.5610947 41.08,28.33 C42.08,27.73 43.23,28.33 43.17,29.27 C43.1317143,29.6769817 42.9110846,30.0446977 42.57,30.27 C40.81356,31.4861494 39.1732536,32.8619982 37.67,34.38 L37.72,34.41 Z M44.27,93.33 C43.4,93.28 42.74,92.87 42.72,91.93 C42.6707741,91.6066176 42.7828199,91.2796027 43.0200225,91.0543599 C43.257225,90.8291172 43.5895944,90.7341244 43.91,90.8 C44.7056307,90.7916377 45.3849463,91.3726876 45.5,92.16 C45.36,92.92 45,93.34 44.22,93.3 L44.27,93.33 Z M45.78,26.76 C46.4885584,26.0071055 47.4989197,25.6139831 48.53,25.69 C48.8186132,25.7103646 49.0869867,25.8456818 49.2749708,26.0656232 C49.462955,26.2855647 49.5548285,26.5717365 49.53,26.86 C49.41,27.8 48.61,28.06 47.89,28.34 C47.17,28.62 46.51,28.84 45.89,28.25 C45.6462204,28.084606 45.4877705,27.8201372 45.4569313,27.5271651 C45.4260921,27.2341931 45.5260017,26.9425285 45.73,26.73 L45.78,26.76 Z M51.12,96.31 C49.8697435,96.4742153 48.6115612,96.0707166 47.69,95.21 C47.3786225,94.8353918 47.3423507,94.3034055 47.6,93.89 C48.08,93.13 48.75,93.18 49.45,93.55 C50.34,94.03 51.76,93.76 51.96,95.17 C51.9351738,95.693754 51.5758342,96.1419191 51.07,96.28 L51.12,96.31 Z M56.87,97.49 C55.77,97.49 54.98,96.9 55.06,96.1 C55.14,95.3 55.77,94.97 56.56,95.02 C57.35,95.07 58.45,95.07 58.49,96.24 C58.48,97.19 57.69,97.47 56.82,97.46 L56.87,97.49 Z M57.92,80.58 C56.4720254,80.1207921 55.0584731,79.5593813 53.69,78.9 C51.201641,77.7395296 49.3098521,75.5940526 48.47,72.98 C46.5597758,67.3555707 46.1563844,61.3288339 47.3,55.5 C47.95,51.6 50.52,48.98 53.9,47.13 C55.58,46.22 57.31,45.39 58.99,44.47 C61.1960204,43.3094441 63.0218742,41.5391295 64.25,39.37 C64.57,38.8 64.84,38.13 65.56,38.13 C66.48,38.13 66.92,38.85 67.29,39.58 C68.9502521,43.330281 68.2489916,47.7063033 65.5,50.75 C64.2326937,51.9723132 62.8065424,53.0183818 61.26,53.86 C59.95,54.62 58.66,55.43 57.42,56.29 C56.5177705,56.7283591 55.9833254,57.6815858 56.08,58.68 C57.7206673,57.8866202 59.4188128,57.218059 61.16,56.68 C68.07,54.62 72.49,59.87 73,64.79 C73.2372523,67.4207005 73.0207701,70.0726074 72.36,72.63 C71.5383057,75.6340017 69.5303975,78.1747314 66.7976173,79.6684249 C64.0648372,81.1621184 60.842147,81.4803493 57.87,80.55 L57.92,80.58 Z M79.65,93.17 C79.390604,93.3553759 79.1124023,93.5129118 78.82,93.64 C74.8355235,95.4263589 70.6989803,96.8520607 66.46,97.9 C66.2049715,97.9372645 65.9477226,97.9573099 65.69,97.96 C65.3923709,97.9586217 65.095121,97.9385824 64.8,97.9 C64.4766936,97.8823849 64.1745238,97.7337891 63.9631858,97.4884861 C63.7518478,97.2431831 63.6495907,96.9223548 63.68,96.6 C63.7318602,96.0318459 64.2094889,95.5976381 64.78,95.6 C68.72,95.23 72.25,93.54 75.91,92.25 C76.8,91.93 77.63,91.44 78.49,91.03 C79.18,90.71 79.89,90.51 80.39,91.29 C80.89,92.07 80.28,92.67 79.6,93.14 L79.65,93.17 Z M80.01,32.12 C79.5040631,31.8843099 79.038367,31.5704712 78.63,31.19 C78.3661442,30.9944925 78.195696,30.6978735 78.1596391,30.3714643 C78.1235823,30.045055 78.2251788,29.7183846 78.44,29.47 C78.7965278,28.9927843 79.4721279,28.8943525 79.95,29.25 C81.0906094,29.8358475 82.1868643,30.5042956 83.23,31.25 C85.0617914,32.7984286 86.767196,34.4904575 88.33,36.31 C88.6973551,36.6267128 88.9239514,37.0763087 88.96,37.56 C88.9921741,37.8773709 88.88499,38.1930785 88.6662407,38.4252598 C88.4474913,38.6574411 88.1387232,38.7832266 87.82,38.77 C87.2577164,38.6543753 86.7586283,38.333533 86.42,37.87 C85.37,36.77 84.28,35.71 83.24,34.6 C82.3434813,33.5500753 81.2406432,32.6957161 80,32.09 L80.01,32.12 Z M86.86,86.19 C86.4744126,86.2935793 86.0626568,86.1915847 85.77,85.92 C85.3816297,85.6138449 85.2753686,85.0697882 85.52,84.64 C86.180824,83.6720099 86.9022668,82.7468262 87.68,81.87 C88.0344367,81.5116153 88.6001989,81.4730406 89,81.78 C89.3383235,81.9986894 89.5389607,82.37725 89.53,82.78 C89.0873287,84.2121947 88.1143679,85.4212416 86.81,86.16 L86.86,86.19 Z M92.2,79.7 C92.0437586,79.8759206 91.8485688,80.0128959 91.63,80.1 C91.1680056,80.2709705 90.6503175,80.08002 90.41,79.65 C89.82,78.59 90.52,77.65 90.93,76.78 C91.1827709,76.2489186 91.8140375,76.0177505 92.35,76.26 C92.8925125,76.4576238 93.2222006,77.0084949 93.14,77.58 C92.9501131,78.3347984 92.6137392,79.0449211 92.15,79.67 L92.2,79.7 Z M92.09,46.26 C91.4480017,45.1811806 90.750395,44.1364395 90,43.13 C89.7040276,42.7207639 89.7932965,42.1494429 90.2,41.85 C90.5344759,41.4981302 91.0503266,41.3870239 91.5,41.57 C92.9634072,42.5679115 93.9226876,44.1509066 94.13,45.91 C94.0146256,46.2646965 93.7228719,46.5337162 93.36,46.62 C93.12796,46.7487454 92.8542625,46.7799832 92.5991798,46.7068345 C92.3440971,46.6336858 92.1285481,46.4621493 92,46.23 L92.09,46.26 Z M94.09,49.08 C94.5414797,48.8646235 95.0816066,48.9841936 95.4,49.37 C95.6731401,49.6536011 95.8783003,49.9955347 96,50.37 C96.5441569,52.2937245 96.8958835,54.2667437 97.05,56.26 C97.05,56.5 97.05,56.74 97.05,56.98 C97.1058051,57.567029 96.7008358,58.0982792 96.12,58.2 C95.8046677,58.3016301 95.4602291,58.2543268 95.1839693,58.0714506 C94.9077096,57.8885744 94.7296196,57.5899785 94.7,57.26 C94.4476339,54.8802072 94.0130248,52.5232883 93.4,50.21 C93.2850347,49.7280896 93.540262,49.2346501 94,49.05 L94.09,49.08 Z M96.09,73.08 C95.78,73.84 95.25,74.29 94.42,73.97 C93.59,73.65 93.53,72.89 93.81,72.17 C94.5641033,70.0615663 94.9036615,67.8272733 94.81,65.59 C94.81,64.87 94.81,64.15 94.81,63.43 C94.7562982,62.7561651 95.2398269,62.1583479 95.91,62.07 C96.2352196,62.0179117 96.567074,62.1090273 96.8200989,62.3198813 C97.0731237,62.5307354 97.2225883,62.8407189 97.23,63.17 C97.39,66.54 97.4,69.89 96.08,73.09 L96.09,73.08 Z" id="Shape" fill="#FFFFFF"></path>
            <path d="M60.76,65.21 C58.76,65.72 58.53,66.11 58.55,68.93 C58.5600873,69.4143597 58.6170193,69.8966069 58.72,70.37 C58.7886176,71.2062842 59.371959,71.9108194 60.180761,72.1342453 C60.9895629,72.3576713 61.8518351,72.0524769 62.34,71.37 C63.5340871,70.2685073 64.058631,68.6188547 63.72,67.03 C63.6422281,66.356529 63.2596482,65.756015 62.6821354,65.4009226 C62.1046226,65.0458303 61.3960808,64.975452 60.76,65.21 Z" id="Shape" fill="#FFFFFF"></path>
            <path d="M101.34,138.3 C98.68,130.1 96.14,121.86 93.22,113.75 C92.22,111.07 92.3,111.04 89.95,112.52 C86.0263698,114.995578 81.696638,116.759292 77.16,117.73 C73.42,118.53 69.64,119.08 65.53,119.8 C68.9,132.01 71.92,144.17 74.76,156.43 C76.76,152.69 79.01,149.25 80.61,145.43 C81.61,143.07 82.73,140.78 83.9,138.51 C84.63,137.11 85.04,137.07 86.33,137.85 C86.88,138.18 87.43,138.52 87.94,138.9 C92.94,142.66 99.03,144.5 104.27,147.9 L104.6,147.53 C103.51,144.44 102.35,141.39 101.34,138.3 Z" id="Shape" fill="#FA5E52"></path>
            <path d="M57.81,119.59 C57.33,119.54 56.81,119.59 56.37,119.59 C54.614748,119.616357 52.8599529,119.512741 51.12,119.28 C45.7111608,118.225137 40.4427166,116.547288 35.42,114.28 C33.54,113.45 33.54,113.43 32.73,115.47 C30.99,119.85 29.22,124.22 27.53,128.62 C25.29,134.43 22.7,140.11 21.14,146.17 C20.96,146.89 20.49,147.59 20.83,148.36 C21.2670496,148.337769 21.6818675,148.160497 22,147.86 C26.72,144.86 31.42,141.86 36.14,138.86 C37.82,137.78 38.7,137.95 39.36,139.61 C41.62,145.34 44.78,150.61 47.48,156.87 C49.56,150.61 52.32,145.18 53.7,139.24 C54.13,137.37 54.7,135.54 55.32,133.72 C56.64,129.78 58.06,125.88 59.32,121.94 C59.93,120.07 59.67,119.78 57.81,119.59 Z" id="Shape" fill="#FA5E52"></path>
            <path d="M68.7,74.62 C70.6508973,71.344742 71.1817722,67.4155451 70.17,63.74 C69.22,59.96 66.12,58.16 62.33,58.95 C60.7665395,59.2906939 59.2608318,59.8565975 57.86,60.63 C57.2414685,60.9968809 56.6039056,61.3306835 55.95,61.63 C54.79,62.1 54.11,61.77 53.73,60.63 C52.8540006,58.5535102 53.5008703,56.1473198 55.3,54.79 C56.795314,53.5914283 58.402758,52.539892 60.1,51.65 C61.4474456,50.9417343 62.6783987,50.0311662 63.75,48.95 C65.3011465,47.272634 65.8826426,44.9164422 65.29,42.71 C62.29,46.17 58.07,47.71 54.29,49.8 C53.6092819,50.2172145 52.9756084,50.7067189 52.4,51.26 C50.9775842,52.4650063 50.0251694,54.1326173 49.71,55.97 C48.79,61.64 48.86,67.26 50.97,72.73 C51.4652409,74.0915843 52.3878899,75.256297 53.6,76.05 C55.8592337,77.5940498 58.5059975,78.4739948 61.24,78.59 C64.2736237,78.7668056 67.1520811,77.2349723 68.7,74.62 Z M66.14,69.62 C65.7147402,71.5211139 64.5342166,73.1673485 62.87,74.18 C61.8120823,74.7735097 60.5564047,74.9050487 59.3984565,74.5436629 C58.2405083,74.1822771 57.2825461,73.35988 56.75,72.27 C56.2282759,71.0951926 55.991839,69.8136365 56.06,68.53 C56.06,64.33 58.87,61.81 62.54,62.74 C65.32,63.43 66.87,66.35 66.14,69.6 L66.14,69.62 Z" id="Shape" fill="#FA5E52"></path>
        </g>
    </g>
</svg>