<?xml version="1.0" encoding="UTF-8"?>
<svg width="148px" height="133px" viewBox="0 0 148 133" version="1.1" xmlns="http://www.w3.org/2000/svg" xmlns:xlink="http://www.w3.org/1999/xlink">
    <!-- Generator: Sketch 51.2 (57519) - http://www.bohemiancoding.com/sketch -->
    <title>Group 19</title>
    <desc>Created with Sketch.</desc>
    <defs></defs>
    <g id="Page-1" stroke="none" stroke-width="1" fill="none" fill-rule="evenodd">
        <g id="Group-19" fill-rule="nonzero">
            <path d="M140.63,15 C139.63,13.93 138.45,13.13 137.45,12.09 C133.1,7.56 127.62,5.74 121.51,5.51 C119.993253,5.50017238 118.477258,5.58031309 116.97,5.75 C116.019511,5.99103845 115.022732,5.58584346 114.51,4.75 C113.705448,3.64164725 112.576938,2.8101136 111.28,2.37 C108.179061,1.0617532 104.834433,0.431013 101.47,0.52 C93.31,0.52 85.1533333,0.52 77,0.52 L77,0.59 C68.28,0.59 59.57,0.45 50.85,0.64 C45.4,0.77 40.05,1.64 35.46,5.09 C33.2707674,6.60897293 31.6628287,8.82694095 30.9,11.38 C29.74,15.38 28.9,19.53 29.65,23.89 C30.3649197,28.2844462 30.3649197,32.7655538 29.65,37.16 C28.59,44.02 31.36,42.24 24.51,43.42 C23.7376463,43.5476934 22.9756274,43.7315138 22.23,43.97 C18.39,45.15 14.56,46.41 11.31,48.91 C4.03,54.5 0.57,62.02 0.16,71.04 C-0.28,80.64 3.05,88.91 9.31,96.04 C11.7686731,99.1115436 14.9741664,101.501031 18.62,102.98 C22.75,104.5 26.84,106.14 31.34,106.06 C32.4,106.06 32.71,106.44 32.69,107.45 C32.62,110.56 32.62,113.68 32.57,116.8 C32.4967568,117.995012 32.5436586,119.194358 32.71,120.38 C33.87,126.88 39.09,130.97 45.63,132.16 L103.11,132.29 C106.57,132.29 109.96,132.05 112.82,129.74 C114.05,128.74 115.36,127.85 116.56,126.82 C117.122298,126.35129 117.509892,125.706474 117.66,124.99 C118.38694,121.914402 118.782527,118.769817 118.84,115.61 C118.84,100.736667 118.84,85.8633333 118.84,70.99 C118.84,70.43 118.84,69.87 118.84,69.31 C118.76,68.31 119.17,67.95 120.12,67.68 C122.49,66.99 124.84,66.18 127.12,65.32 C136.68,61.78 143,55.18 145.94,45.38 C146.686122,42.7644475 147.194849,40.0869371 147.46,37.38 C148.45,29 146.45,21.44 140.63,15 Z M31.84,19.22 C31.9478482,16.9807891 32.3341546,14.7637265 32.99,12.62 C33.5973771,10.3611178 34.9773971,8.38662761 36.89,7.04 C39.89,4.84 43.35,4.04 46.89,3.42 C49.8210862,3.04894396 52.7787526,2.93184179 55.73,3.07 C71.17,3.07 86.6,3.07 102.03,3.07 C104.997423,3.01840724 107.937884,3.64069081 110.63,4.89 C110.918247,5.02143907 111.195761,5.17524228 111.46,5.35 C111.572279,5.463953 111.669716,5.59162987 111.75,5.73 C111.38,6.27 110.75,6.18 110.25,6.25 C106.684608,6.7150658 103.199213,7.66379291 99.89,9.07 C98.7854664,9.53313357 97.5976121,9.76457796 96.4,9.75 C81.6133333,9.71 66.8233333,9.69 52.03,9.69 C49.6302578,9.71768262 47.2440315,10.0537708 44.93,10.69 C41.25,11.69 37.6,15.88 37.75,21.16 C37.93,27.64 37.82,34.16 37.82,40.59 C37.9398653,41.4665357 37.8437448,42.3590839 37.54,43.19 C36.1066848,42.8921963 34.6432233,42.7646469 33.18,42.81 C32.25,42.81 31.72,42.67 31.73,41.53 C31.81,34.14 31.78,26.7 31.84,19.26 L31.84,19.22 Z M79.76,43.35 L80.15,45.65 C80.69,47.07 81.27,48.46 81.74,49.9 C82.5911981,52.5642558 83.8676776,55.0733148 85.52,57.33 C85.7695762,57.7325209 85.9805158,58.1577484 86.15,58.6 L88.74,60.85 L95.02,64.63 L90.82,72.05 C90.11,73.3 89.37,74.53 88.69,75.8 C88.4258568,76.3086278 88.5172477,76.9292643 88.9167941,77.3401615 C89.3163405,77.7510586 89.9341742,77.8597951 90.45,77.61 C91.53,77.1 92.63,76.61 93.72,76.12 C98.13,74.12 102.6,72.12 106.9,69.87 C107.163908,69.7560151 107.438629,69.6689086 107.72,69.61 C108.4,70.07 108.14,70.68 108.14,71.19 C108.14,81.1033333 108.14,91.0133333 108.14,100.92 C108.265367,104.207811 106.432176,107.257894 103.47,108.69 C102.771065,109.070307 101.985593,109.26323 101.19,109.25 C86.25,109.25 71.31,109.25 56.37,109.25 C53.9801526,109.128275 51.6013392,108.844288 49.25,108.4 C47.2,108.13 45.97,106.58 45.12,104.75 C44.77,103.98 45.03,103.57 45.75,103.27 C47.8404608,102.486549 49.8498929,101.501928 51.75,100.33 C52.34,99.94 52.75,100.25 53.31,100.44 L64.98,104.72 C65.9,105.06 66.8,105.48 67.63,104.59 C68.3777566,103.811516 68.516668,102.630769 67.97,101.7 C66.71,98.95 65.49,96.17 64.19,93.44 C63.6389194,92.3002378 63.5563517,90.9899232 63.96,89.79 C65.13,85.72 65.45,81.48 66.1,77.3 L66.16,74.88 C65.81,72.62 66.07,70.33 65.56,68.06 C65.069733,65.6559113 64.329026,63.3097805 63.35,61.06 C62.798007,60.2861106 62.3820435,59.4237473 62.12,58.51 C57.18,51.39 50.32,47 42.12,44.42 C40.24,43.82 40.22,43.81 40.22,41.79 C40.22,34.79 40.22,27.88 40.22,20.92 C40.22,16.19 42.97,13.17 47.68,12.56 C50.0538692,12.2495473 52.4459408,12.0992076 54.84,12.11 C67.63,12.11 80.42,12.11 93.48,12.11 C92.38,13.79 90.73,14.61 89.48,15.85 C88.1529774,17.1201839 86.9259982,18.4909235 85.81,19.95 C84.684437,21.4152929 83.6810672,22.9705162 82.81,24.6 C82,26.25 81.24,27.92 80.45,29.6 C80.366357,30.4871524 80.1116663,31.3497048 79.7,32.14 C79.13,35.14 79.36,38.23 79.23,41.28 C79.37,42.12 80,42.66 79.76,43.39 L79.76,43.35 Z M27.28,103.2 C23.2857318,102.379446 19.4476528,100.92793 15.91,98.9 C14.1151127,97.694596 12.5221101,96.2129686 11.19,94.51 C4.86,87.44 1.82,79.16 2.63,69.65 C3.0671357,62.017718 6.94392962,54.9960865 13.17,50.56 C13.5415195,50.2547881 13.9397982,49.9836909 14.36,49.75 C22.43,45.54 30.83,44.01 39.82,46.29 C45.8489768,47.9438455 51.4139095,50.9693071 56.08,55.13 C59.45,57.98 61.35,61.91 62.56,66.13 C64.15,71.63 63.77,77.2 62.85,82.75 C62.37,85.66 62.07,88.62 60.85,91.37 C60.5546957,91.9559775 60.6207495,92.6592569 61.02,93.18 C63.02,95.74 63.65,98.92 65.2,101.65 C64.852456,101.940222 64.3598605,101.980271 63.97,101.75 C60.53,100.27 56.79,99.54 53.48,97.75 C52.6235128,97.2819546 51.5692891,97.3767163 50.81,97.99 C46.1051324,100.880723 40.8380843,102.735269 35.36,103.43 C32.6750125,103.81929 29.9437217,103.755064 27.28,103.24 L27.28,103.2 Z M115.34,121.97 C114.75,125.56 110.34,129.31 106.45,129.63 C104.86,129.76 103.26,129.72 101.66,129.72 C83.5133333,129.72 65.3633333,129.72 47.21,129.72 C43.0505747,129.818876 39.1117044,127.853185 36.69,124.47 C35.3878708,122.741088 34.6856436,120.634407 34.69,118.47 C34.69,114.87 34.79,111.27 34.75,107.68 C34.75,106.38 35.13,105.81 36.46,105.68 C37.9789008,105.590893 39.4789648,105.29828 40.92,104.81 C41.79,104.49 42.18,104.81 42.53,105.62 C44.07,109.05 46.67,110.69 50.53,111.2 C54.0937279,111.624138 57.6813978,111.814545 61.27,111.77 C72.79,111.77 84.27,111.77 95.84,111.77 C97.05,111.77 98.84,111.91 100.02,111.95 C105.14,112.13 110.57,107.13 110.44,100.65 C110.24,90.71 110.44,80.76 110.35,70.82 C110.338681,69.9201538 111.050494,69.177199 111.95,69.15 C113.22,69.15 114.49,68.93 116.04,68.79 L116.04,71.17 C116.04,85.8 116.04,100.44 116.04,115.07 C115.999823,117.395449 115.765677,119.713491 115.34,122 L115.34,121.97 Z M144.92,37.16 C144.665653,39.7848755 144.163413,42.3797824 143.42,44.91 C140.93,53.01 135.92,58.91 128.06,62.21 C122.68,64.48 117.2,66.43 111.28,66.78 C111.048017,66.8378517 110.808814,66.861435 110.57,66.85 C107.94,66.34 105.83,67.61 103.62,68.74 C100.57,70.31 97.42,71.67 94.3,73.11 C93.9348696,73.3606219 93.4804249,73.4442398 93.05,73.34 C94.05,71.51 95,69.8 95.92,68.06 C98.03,64.06 97.92,63.62 94.18,61.2 C93.65,60.86 93.11,60.5 92.55,60.2 C89.156921,58.3397495 86.5266408,55.344841 85.12,51.74 C83.3708124,47.9545388 82.2914815,43.8943598 81.93,39.74 C81.38,31.39 84.8,24.64 90.26,18.74 C96.56,11.96 104.62,8.82 113.73,8.29 C117.22,8.08 120.73,7.51 124.25,8.13 C128.58,8.9 132.53,10.42 135.6,13.75 C136.6,14.86 137.91,15.7 138.93,16.85 C144.12,22.78 145.78,29.62 144.92,37.2 L144.92,37.16 Z" id="Shape" fill="#222222"></path>
            <path d="M79,114.88 C77.6951544,114.078778 76.1635887,113.727502 74.64,113.88 C74.41,113.88 73.93,113.88 73.45,113.95 C71.4476449,114.08777 69.6793261,115.305343 68.8362595,117.126783 C67.9931928,118.948223 68.2092589,121.084283 69.4,122.7 C70.99,125.07 73.69,125.9 77.09,125.04 C79.1748275,124.542604 80.7231707,122.790216 80.96,120.66 C81.48,118.3 81,116.32 79,114.88 Z M78.31,120.99 C77.67,122.49 75.31,123.3 73.31,122.67 C71.5550968,122.138199 70.5139576,120.335891 70.93,118.55 C71.33,117.04 72.63,116.31 74.93,116.31 C78.11,116.29 79.5,118.26 78.35,121 L78.31,120.99 Z" id="Shape" fill="#222222"></path>
            <path d="M74.47,7.28 C75.19,7.28 75.56,6.78 75.58,5.91 C75.37,5.42 75.05,4.91 74.28,5.01 C73.6740951,5.08677655 73.2363384,5.62742095 73.2872803,6.23604262 C73.3382222,6.84466429 73.8597626,7.3050151 74.47,7.28 Z" id="Shape" fill="#222222"></path>
            <path d="M138.93,17 C137.93,15.85 136.63,15 135.6,13.9 C132.53,10.57 128.6,9.05 124.25,8.28 C120.73,7.66 117.25,8.23 113.73,8.44 C104.62,8.97 96.56,12.11 90.26,18.89 C84.8,24.75 81.38,31.5 81.93,39.89 C82.2914815,44.0443598 83.3708124,48.1045388 85.12,51.89 C86.5266408,55.494841 89.156921,58.4897495 92.55,60.35 C93.11,60.65 93.65,61.01 94.18,61.35 C97.92,63.77 98.03,64.19 95.92,68.21 C95,69.95 94.04,71.66 93.05,73.49 C93.4804249,73.5942398 93.9348696,73.5106219 94.3,73.26 C97.42,71.82 100.57,70.46 103.62,68.89 C105.83,67.76 107.94,66.49 110.57,67 C110.808814,67.011435 111.048017,66.9878517 111.28,66.93 C117.2,66.58 122.68,64.63 128.06,62.36 C135.92,59.06 140.93,53.16 143.42,45.06 C144.163413,42.5297824 144.665653,39.9348755 144.92,37.31 C145.78,29.62 144.12,22.78 138.93,17 Z M102.87,42.52 C101.92,42.62 100.96,42.62 100,42.67 L100,42.55 C99,42.55 97.92,42.55 96.89,42.55 C96.6035293,42.5421531 96.3319225,42.4207708 96.134986,42.2125808 C95.9380495,42.0043908 95.831932,41.7264646 95.84,41.44 C95.8122954,41.1490575 95.9025889,40.8591765 96.0906114,40.6354297 C96.2786339,40.411683 96.5486333,40.2728154 96.84,40.25 C98.899986,40.0149954 100.980014,40.0149954 103.04,40.25 C103.326487,40.2799752 103.588789,40.4241933 103.767583,40.6500386 C103.946377,40.875884 104.026561,41.1642784 103.99,41.45 C103.947958,42.0371163 103.458618,42.4915034 102.87,42.49 L102.87,42.52 Z M121.08,42.39 C120.521293,42.4366322 119.960491,42.4533227 119.4,42.44 L111.5,42.44 C111.02,42.44 110.5,42.44 110.07,42.44 C109.36,42.44 108.77,42.13 108.74,41.35 C108.71,40.57 109.36,40.12 110.15,40.07 C110.94,40.02 111.58,40.07 112.3,40.07 L115.41,40.07 C116.85,40.07 118.29,40.07 119.72,40.07 C120.198444,40.054478 120.677278,40.0846144 121.15,40.16 C121.742482,40.2278388 122.180258,40.7444153 122.15,41.34 C122.133645,41.9160067 121.65613,42.3712081 121.08,42.36 L121.08,42.39 Z M128.57,32.39 L98.09,32.39 C97.7570188,32.4116679 97.4229812,32.4116679 97.09,32.39 C96.3,32.3 95.67,31.97 95.74,31.06 C95.81,30.15 96.44,30.06 97.12,30.06 C97.8,30.06 98.4,30.06 99.04,30.06 L113.2,30.06 C118.32,30.06 123.44,30.06 128.56,30.06 C129.45,30.06 130.63,29.71 130.88,31.06 C131.08,31.92 130.27,32.38 128.57,32.38 L128.57,32.39 Z" id="Shape" fill="#FFFFFF"></path>
            <path d="M50.84,98 C51.5992891,97.3867163 52.6535128,97.2919546 53.51,97.76 C56.82,99.56 60.56,100.29 64,101.76 C64.3898605,101.990271 64.882456,101.950222 65.23,101.66 C63.68,98.93 63.01,95.75 61.05,93.19 C60.6507495,92.6692569 60.5846957,91.9659775 60.88,91.38 C62.07,88.63 62.37,85.67 62.88,82.76 C63.8,77.21 64.18,71.64 62.59,66.14 C61.38,61.93 59.48,58 56.11,55.14 C51.4439095,50.9793071 45.8789768,47.9538455 39.85,46.3 C30.85,44.02 22.46,45.55 14.39,49.76 C13.9697982,49.9936909 13.5715195,50.2647881 13.2,50.57 C6.97392962,55.0060865 3.0971357,62.027718 2.66,69.66 C1.85,79.17 4.89,87.45 11.22,94.52 C12.5521101,96.2229686 14.1451127,97.704596 15.94,98.91 C19.4776528,100.93793 23.3157318,102.389446 27.31,103.21 C29.982341,103.735095 32.7240648,103.806089 35.42,103.42 C40.8861908,102.727248 46.1425024,100.879699 50.84,98 Z M24.73,79.36 C22.27,79.36 19.81,79.48 17.35,79.48 C16.54,79.48 15.65,79.23 15.69,78.18 C15.73,77.13 16.58,77.01 17.43,77.01 L21,77.01 C22.27,77.01 23.54,77.01 24.81,77.01 C25.6,77.01 26.28,77.37 26.26,78.24 C26.24,79.11 25.51,79.36 24.73,79.37 L24.73,79.36 Z M17.59,69.76 C16.96,69.76 16.31,69.76 15.68,69.76 C15.3919381,69.7780659 15.110119,69.6707867 14.9069888,69.4657401 C14.7038585,69.2606935 14.5992301,68.9778795 14.62,68.69 C14.5849322,68.0946981 15.0264997,67.5780642 15.62,67.52 C16.1686417,67.431643 16.724719,67.3981443 17.28,67.42 C27.9466667,67.42 38.6366667,67.42 49.35,67.42 C49.9846836,67.3303002 50.6315107,67.3884804 51.24,67.59 C51.7060817,67.7584998 52.0039882,68.2155618 51.97,68.71 C51.9749401,69.211932 51.6070163,69.6397504 51.11,69.71 C50.4766827,69.7900879 49.8380421,69.820181 49.2,69.8 L17.61,69.8 L17.59,69.76 Z" id="Shape" fill="#FFFFFF"></path>
            <path d="M90.82,72.09 L95.02,64.67 L88.74,60.89 C87.7219985,61.0830203 86.682493,61.1368459 85.65,61.05 L63.37,61.15 C64.349026,63.3997805 65.089733,65.7459113 65.58,68.15 C66.09,70.42 65.83,72.71 66.18,74.97 L73.06,74.97 C73.54,74.97 74.01,74.97 74.48,74.97 C74.95,74.97 75.54,75.32 75.57,75.97 C75.6468616,76.5552992 75.2351844,77.0922694 74.65,77.17 C74.0275685,77.2603807 73.3988714,77.3005103 72.77,77.29 L66.12,77.29 C65.47,81.47 65.12,85.71 63.98,89.78 C63.5763517,90.9799232 63.6589194,92.2902378 64.21,93.43 C65.51,96.16 66.73,98.94 67.99,101.69 C68.536668,102.620769 68.3977566,103.801516 67.65,104.58 C66.82,105.47 65.92,105.05 65,104.71 L53.33,100.43 C52.82,100.24 52.33,99.93 51.77,100.32 C49.8698929,101.491928 47.8604608,102.476549 45.77,103.26 C45.05,103.56 44.77,103.97 45.14,104.74 C45.99,106.57 47.22,108.12 49.27,108.39 C51.6213392,108.834288 54.0001526,109.118275 56.39,109.24 C71.33,109.2 86.27,109.2 101.21,109.24 C102.005593,109.25323 102.791065,109.060307 103.49,108.68 C106.452176,107.247894 108.285367,104.197811 108.16,100.91 C108.16,91.0033333 108.16,81.0933333 108.16,71.18 C108.16,70.67 108.42,70.06 107.74,69.6 C107.458629,69.6589086 107.183908,69.7460151 106.92,69.86 C102.62,72.14 98.15,74.07 93.74,76.11 C92.65,76.62 91.55,77.11 90.47,77.6 C89.9541742,77.8497951 89.3363405,77.7410586 88.9367941,77.3301615 C88.5372477,76.9192643 88.4458568,76.2986278 88.71,75.79 C89.37,74.57 90.11,73.34 90.82,72.09 Z" id="Shape" fill="#FFFFFF"></path>
            <path d="M51.69,29.59 C52.0227752,29.5627213 52.3572248,29.5627213 52.69,29.59 L79.23,29.59 C79.71,29.59 80.23,29.65 80.66,29.68 C81.45,28.02 82.21,26.35 83.02,24.68 C83.8910672,23.0505162 84.894437,21.4952929 86.02,20.03 C87.1359982,18.5709235 88.3629774,17.2001839 89.69,15.93 C90.93,14.69 92.58,13.87 93.69,12.19 C80.63,12.19 67.84,12.19 55.05,12.19 C52.6559408,12.1792076 50.2638692,12.3295473 47.89,12.64 C43.18,13.25 40.46,16.27 40.43,21 C40.43,28 40.43,34.91 40.43,41.87 C40.43,43.87 40.43,43.87 42.33,44.5 C50.48,47.08 57.33,51.5 62.33,58.59 L86.33,58.59 C86.1605158,58.1477484 85.9495762,57.7225209 85.7,57.32 C84.0476776,55.0633148 82.7711981,52.5542558 81.92,49.89 C81.45,48.45 80.87,47.06 80.33,45.64 C77.54,45.74 74.75,45.85 71.95,45.93 C71.5543641,45.9232371 71.1612007,45.8661108 70.78,45.76 C70.1930691,45.6972619 69.7555752,45.1897689 69.78,44.6 C69.7850756,44.0267305 70.2116028,43.5447547 70.78,43.47 C71.3361947,43.389952 71.8984365,43.3598319 72.46,43.38 L79.89,43.38 C80.14,42.65 79.5,42.11 79.53,41.38 C79.66,38.33 79.43,35.27 80,32.24 L54.89,32.15 C53.89,32.15 52.82,32.15 51.78,32.1 C51,32.1 50.33,31.76 50.34,30.85 C50.35,29.94 50.94,29.69 51.69,29.59 Z M53.21,43.43 C55.76,43.43 58.31,43.43 60.86,43.43 C61.65,43.43 62.27,43.85 62.2,44.76 C62.13,45.67 61.5,45.76 60.82,45.76 C59.55,45.76 58.27,45.76 57,45.76 C55.73,45.76 54.45,45.76 53.18,45.76 C52.48,45.76 51.87,45.47 51.83,44.7 C51.79,43.93 52.43,43.44 53.21,43.43 Z" id="Shape" fill="#FFFFFF"></path>
            <path d="M116,68.83 C114.45,68.97 113.18,69.16 111.91,69.19 C111.010494,69.217199 110.298681,69.9601538 110.31,70.86 C110.31,80.8 110.2,90.75 110.4,100.69 C110.53,107.17 105.1,112.17 99.98,111.99 C98.89,111.99 96.88,111.81 95.8,111.81 C84.27,111.81 72.75,111.81 61.23,111.81 C57.6413978,111.854545 54.0537279,111.664138 50.49,111.24 C46.66,110.73 44.06,109.09 42.49,105.66 C42.14,104.86 41.75,104.53 40.88,104.85 C39.4389648,105.33828 37.9389008,105.630893 36.42,105.72 C35.09,105.84 34.69,106.41 34.71,107.72 C34.71,111.31 34.64,114.91 34.65,118.51 C34.6456436,120.674407 35.3478708,122.781088 36.65,124.51 C39.0717044,127.893185 43.0105747,129.858876 47.17,129.76 C65.3166667,129.8 83.4666667,129.8 101.62,129.76 C103.22,129.76 104.82,129.76 106.41,129.67 C110.29,129.35 114.71,125.6 115.3,122.01 C115.724021,119.733355 115.95816,117.425417 116,115.11 C115.95,100.48 116,85.84 116,71.21 L116,68.83 Z M81,120.62 C80.7631707,122.750216 79.2148275,124.502604 77.13,125 C73.73,125.86 71.03,125 69.44,122.66 C68.2492589,121.044283 68.0331928,118.908223 68.8762595,117.086783 C69.7193261,115.265343 71.4876449,114.04777 73.49,113.91 C73.97,113.85 74.49,113.85 74.68,113.84 C76.2035887,113.687502 77.7351544,114.038778 79.04,114.84 C81,116.32 81.48,118.3 81,120.62 Z" id="Shape" fill="#FFFFFF"></path>
            <path d="M33.21,42.85 C34.6732233,42.8046469 36.1366848,42.9321963 37.57,43.23 C37.8737448,42.3990839 37.9698653,41.5065357 37.85,40.63 C37.85,34.16 37.96,27.68 37.78,21.2 C37.63,15.92 41.28,11.69 44.96,10.73 C47.2740315,10.0937708 49.6602578,9.75768262 52.06,9.73 C66.8533333,9.73 81.6433333,9.75 96.43,9.79 C97.6276121,9.80457796 98.8154664,9.57313357 99.92,9.11 C103.229213,7.70379291 106.714608,6.7550658 110.28,6.29 C110.81,6.22 111.41,6.29 111.78,5.77 C111.699716,5.63162987 111.602279,5.503953 111.49,5.39 C111.225761,5.21524228 110.948247,5.06143907 110.66,4.93 C107.967884,3.68069081 105.027423,3.05840724 102.06,3.11 C86.63,3.11 71.2,3.11 55.76,3.11 C52.8087526,2.97184179 49.8510862,3.08894396 46.92,3.46 C43.35,4.09 39.92,4.88 36.92,7.08 C35.0073971,8.42662761 33.6273771,10.4011178 33.02,12.66 C32.3641546,14.8037265 31.9778482,17.0207891 31.87,19.26 C31.81,26.7 31.87,34.14 31.79,41.57 C31.75,42.71 32.28,42.89 33.21,42.85 Z M74.28,5.01 C75.05,4.9 75.37,5.42 75.58,5.91 C75.58,6.78 75.19,7.25 74.47,7.28 C73.8597626,7.3050151 73.3382222,6.84466429 73.2872803,6.23604262 C73.2363384,5.62742095 73.6740951,5.08677655 74.28,5.01 Z" id="Shape" fill="#FFFFFF"></path>
            <path d="M75,116.31 C72.68,116.31 71.38,117.04 71,118.55 C70.5839576,120.335891 71.6250968,122.138199 73.38,122.67 C75.33,123.3 77.71,122.49 78.38,120.99 C79.5,118.26 78.11,116.29 75,116.31 Z" id="Shape" fill="#FFFFFF"></path>
            <path d="M51.65,32.09 C52.65,32.15 53.72,32.14 54.76,32.14 L79.87,32.23 C80.2816663,31.4397048 80.536357,30.5771524 80.62,29.69 C80.15,29.69 79.67,29.6 79.19,29.6 L52.65,29.6 C52.3172248,29.5727213 51.9827752,29.5727213 51.65,29.6 C50.9,29.7 50.18,29.94 50.17,30.85 C50.16,31.76 50.87,32.06 51.65,32.09 Z" id="Shape" fill="#FA5E52"></path>
            <path d="M62.14,58.6 C62.4020435,59.5137473 62.818007,60.3761106 63.37,61.15 L85.65,61.05 C86.682493,61.1368459 87.7219985,61.0830203 88.74,60.89 L86.15,58.64 L62.14,58.6 Z" id="Shape" fill="#FA5E52"></path>
            <path d="M72.33,43.43 C71.7684365,43.4098319 71.2061947,43.439952 70.65,43.52 C70.0816028,43.5947547 69.6550756,44.0767305 69.65,44.65 C69.6255752,45.2397689 70.0630691,45.7472619 70.65,45.81 C71.0312007,45.9161108 71.4243641,45.9732371 71.82,45.98 C74.62,45.9 77.41,45.79 80.2,45.69 L79.81,43.39 L72.33,43.43 Z" id="Shape" fill="#FA5E52"></path>
            <path d="M74.48,75 C74.01,75 73.54,75 73.06,75 L66.18,75 L66.12,77.42 L72.77,77.42 C73.3988714,77.4305103 74.0275685,77.3903807 74.65,77.3 C75.2351844,77.2222694 75.6468616,76.6852992 75.57,76.1 C75.54,75.33 75.09,75 74.48,75 Z" id="Shape" fill="#FA5E52"></path>
            <path d="M130.92,31.05 C130.67,29.66 129.49,30.05 128.6,30.05 C123.48,30.05 118.36,30.05 113.24,30.05 L99.08,30.05 C98.44,30.05 97.8,30.05 97.16,30.05 C96.52,30.05 95.84,30.25 95.78,31.05 C95.72,31.85 96.34,32.29 97.13,32.38 C97.4629812,32.4016679 97.7970188,32.4016679 98.13,32.38 L128.61,32.38 C130.27,32.38 131.08,31.92 130.92,31.05 Z" id="Shape" fill="#FA5E52"></path>
            <path d="M121.15,40.1 C120.677278,40.0246144 120.198444,39.994478 119.72,40.01 C118.29,40.01 116.85,40.01 115.41,40.01 L112.3,40.01 C111.58,40.01 110.86,40.01 110.15,40.01 C109.44,40.01 108.71,40.38 108.74,41.29 C108.77,42.2 109.36,42.35 110.07,42.38 C110.54,42.38 111.07,42.38 111.5,42.38 L119.4,42.38 C119.960491,42.3933227 120.521293,42.3766322 121.08,42.33 C121.363754,42.3301158 121.635475,42.2153826 121.833273,42.0119324 C122.031072,41.8084823 122.138107,41.5336381 122.13,41.25 C122.14531,40.6725207 121.722597,40.1764806 121.15,40.1 Z" id="Shape" fill="#FA5E52"></path>
            <path d="M103,40.21 C100.936669,39.9750125 98.853331,39.9750125 96.79,40.21 C96.2133803,40.305771 95.7980934,40.8156084 95.8209484,41.3996803 C95.8438034,41.9837522 96.2976598,42.4595796 96.88,42.51 C97.88,42.58 98.95,42.51 99.99,42.51 L99.99,42.63 C100.99,42.58 101.91,42.58 102.86,42.48 C103.451607,42.4645183 103.929066,41.9914391 103.95,41.4 C104.014394,40.8095995 103.589998,40.2779869 103,40.21 Z" id="Shape" fill="#FA5E52"></path>
            <path d="M51.22,67.56 C50.6115107,67.3584804 49.9646836,67.3003002 49.33,67.39 C38.6633333,67.39 27.9733333,67.39 17.26,67.39 C16.704719,67.3681443 16.1486417,67.401643 15.6,67.49 C15.0064997,67.5480642 14.5649322,68.0646981 14.6,68.66 C14.5792301,68.9478795 14.6838585,69.2306935 14.8869888,69.4357401 C15.090119,69.6407867 15.3719381,69.7480659 15.66,69.73 C16.29,69.78 16.94,69.73 17.57,69.73 L49.16,69.73 C49.7980421,69.750181 50.4366827,69.7200879 51.07,69.64 C51.5670163,69.5697504 51.9349401,69.141932 51.93,68.64 C51.9489403,68.1651268 51.6634658,67.730884 51.22,67.56 Z" id="Shape" fill="#FA5E52"></path>
            <path d="M24.81,77 C23.54,77 22.27,77 21,77 L17.43,77 C16.58,77 15.72,77.14 15.69,78.17 C15.66,79.2 16.54,79.47 17.35,79.47 C19.81,79.47 22.27,79.39 24.73,79.35 C25.51,79.35 26.24,79.14 26.26,78.23 C26.28,77.32 25.6,77 24.81,77 Z" id="Shape" fill="#FA5E52"></path>
            <path d="M60.86,43.44 C58.31,43.44 55.76,43.44 53.21,43.44 C52.43,43.44 51.78,43.83 51.83,44.73 C51.88,45.63 52.48,45.73 53.18,45.79 C54.45,45.79 55.73,45.79 57,45.79 C58.27,45.79 59.55,45.79 60.82,45.79 C61.5,45.79 62.14,45.6 62.2,44.79 C62.26,43.98 61.65,43.45 60.86,43.44 Z" id="Shape" fill="#FA5E52"></path>
        </g>
    </g>
</svg>