<?xml version="1.0" encoding="UTF-8"?>
<svg width="178px" height="95px" viewBox="0 0 178 95" version="1.1" xmlns="http://www.w3.org/2000/svg" xmlns:xlink="http://www.w3.org/1999/xlink">
    <!-- Generator: Sketch 51.2 (57519) - http://www.bohemiancoding.com/sketch -->
    <title>Group 16</title>
    <desc>Created with Sketch.</desc>
    <defs></defs>
    <g id="Page-1" stroke="none" stroke-width="1" fill="none" fill-rule="evenodd">
        <g id="Group-16" fill-rule="nonzero">
            <path d="M177.08,45.61 C176.789353,39.9421781 176.060511,34.3053484 174.9,28.75 C173.54,21.51 169.2,16.83 162.51,14.09 C160.505134,13.2906757 158.419663,12.7106331 156.29,12.36 C154.02,11.95 151.75,11.52 149.48,11.12 C145.80952,10.3074989 141.992407,10.4451765 138.39,11.52 C132.533834,13.4728093 127.18014,16.6925371 122.71,20.95 C117.479044,25.9287582 113.37088,31.966566 110.66,38.66 C109.94,40.38 109.93,40.32 108.01,40.22 C104.08,40.01 100.31,38.75 96.41,38.47 C95.02,38.36 94.92,37.73 95.01,36.64 C95.6364387,29.2211956 94.8249272,21.7512151 92.62,14.64 C91.09,9.64 88.25,6.05 83,4.64 C76.95,2.97 70.89,1.69 64.57,2.76 C63.0053939,3.14615916 61.3512195,2.88668083 59.98,2.04 C59.2135207,1.59915983 58.3606178,1.32964252 57.48,1.25 C50.1188793,0.0559859396 42.5941914,0.331279402 35.34,2.06 C29.79,3.43 24.26,5.15 19.66,8.93 C16.08,11.93 12.37,14.69 9.81,18.66 C3.89034397,27.5594012 0.540783946,37.9195073 0.13,48.6 C-0.0828558911,54.1904327 0.786407288,59.7693366 2.69,65.03 C3.25920506,66.6083778 4.00387187,68.1178376 4.91,69.53 C9.26939659,76.0524886 14.7469217,81.7534479 21.09,86.37 C21.7408163,86.8348475 22.426137,87.2493829 23.14,87.61 C31.01,91.72 39.59,93.18 48.27,94.07 C53.47,94.6 58.4,92.84 63.27,91.24 C68.99,89.33 74.08,86.1 78.96,82.6 C81.8240913,80.6824861 84.278339,78.2146415 86.18,75.34 C90.25,68.84 92.06,61.58 93.37,54.16 C93.53,53.24 93.63,52.84 94.8,52.9 C98.39,53.07 101.93,53.76 105.52,53.9 C106.36,53.9 106.6,54.26 106.57,55.07 C106.52,56.74 106.57,58.42 106.57,60.52 C106.37,64.37 107.12,68.52 107.73,72.74 C108.161354,76.1671541 109.455034,79.4288776 111.49,82.22 C116.2,88.56 123.07,90.56 130.4,91.58 C131.97,91.8 133.61,91.58 135.18,91.76 C137.789702,92.0299988 140.420298,92.0299988 143.03,91.76 C151.72,91.16 158.55,86.51 164.09,80.47 C172.961547,71.0882372 177.648787,58.5095464 177.08,45.61 Z M82.33,7.21 C79.3157089,7.0773625 76.354653,8.03597772 73.99,9.91 C71.82,7.96 69.16,6.75 66.67,5.16 C72.15,4.26 77.25,5.59 82.33,7.21 Z M2.69,52.56 C2.58,46 2.97,39.45 5.37,33.22 C6.98844986,28.6250021 9.13268364,24.2325107 11.76,20.13 C15.2141818,15.09097 19.8807829,11.0021058 25.33,8.24 C29.431831,6.0928094 33.8623179,4.64301619 38.44,3.95 C41.5441292,3.38098727 44.6941658,3.09979378 47.85,3.11 C49.39,3.11 50.85,3.16 52.27,3.11 C57.05,2.92 61.01,5.21 65.03,7.32 C65.6,7.62 66.1,8.06 66.68,8.32 C70.89,10.03 73.86,13.27 76.96,16.4 C78.41,17.86 78.88,19.86 80.12,21.4 C82.3133266,24.3457995 84.2218972,27.4932668 85.82,30.8 C86.3265036,31.5258382 86.215179,32.5149139 85.56,33.11 C83.2373755,35.8778312 80.4735069,38.2429999 77.38,40.11 C72.02,43.27 66.79,46.64 61.22,49.46 C57.3120424,51.4453405 53.2526203,53.1172607 49.08,54.46 C43.4257815,56.4101314 37.6415417,57.9606151 31.77,59.1 C23.7454069,60.6630037 15.4724581,60.4067165 7.56,58.35 C3.1,57.14 2.77,57 2.69,52.56 Z M8.69,70.56 C6.56818289,67.7480917 4.98487425,64.5679129 4.02,61.18 C3.8321783,60.7906332 3.86255076,60.3312497 4.1,59.97 C9.92461512,61.8922878 16.0387037,62.7889305 22.17,62.62 C26.7209439,62.4088769 31.2464954,61.8201873 35.7,60.86 C42.0081457,59.422874 48.2148878,57.5722093 54.28,55.32 C58.9215669,53.5792402 63.3908764,51.4098674 67.63,48.84 C71.39,46.71 75.09,44.5 78.76,42.22 C81.8964295,40.1939758 84.7685043,37.785464 87.31,35.05 C88.53,36.62 88.79,38.45 89.31,40.15 C89.83,41.85 90,43.76 90.48,45.53 C90.9604772,47.076403 90.5314453,48.7616093 89.37,49.89 C87.8710317,51.6469842 86.1955745,53.2453703 84.37,54.66 C78.6390344,58.8724593 72.4820137,62.4721546 66,65.4 C58.4973934,68.8014717 50.5633139,71.1567964 42.42,72.4 C38.42,73.03 34.42,73.96 30.35,74.31 C25,74.76 19.66,74.21 14.35,73.9 C12.0506465,73.7475101 9.95733458,72.5211628 8.7,70.59 L8.69,70.56 Z M90.62,55.56 C89.74,59.04 89.01,62.56 87.83,65.97 C85.8092357,72.3521649 81.6347676,77.8344681 76.02,81.48 C71.58,84.34 67.17,87.31 62.1,88.88 C57.03,90.45 51.87,92.23 46.39,91.34 C42.77,90.75 39.16,90.05 35.56,89.34 C31.7287055,88.5468803 28.0264967,87.2241821 24.56,85.41 C23.4850611,84.8832894 22.4777511,84.2285379 21.56,83.46 C19.7847428,81.8785366 17.9289341,80.3898842 16,79 C15.2265145,78.4153654 14.582917,77.6764201 14.11,76.83 C14.49,76.17 15.11,76.52 15.58,76.53 C19.02,76.61 22.46,76.67 25.89,76.92 C29.67,77.19 33.37,76.41 37.07,75.82 C43.8617218,74.8133218 50.5747546,73.3330463 57.16,71.39 C62.3874206,69.6640509 67.4727435,67.5343003 72.37,65.02 C77.78,62.37 82.63,58.85 87.57,55.46 C88.71,54.68 89.4,53.46 90.7,52.34 C90.9810958,53.4220695 90.956866,54.5608658 90.63,55.63 L90.62,55.56 Z M90.97,37.05 C90.2201617,34.5231241 89.249764,32.0670142 88.07,29.71 C86.2,26.18 84.07,22.8 81.92,19.46 C80.3,16.98 78.85,14.46 76.69,12.37 C76.07,11.78 76.23,11.3 76.95,10.86 C79.778102,9.21947486 83.3081591,9.40382228 85.95,11.33 C89.87,14.18 91.5,18.24 92.05,22.83 C92.5544432,25.8295325 92.785392,28.8686848 92.74,31.91 L92.47,36.91 C92.47,37.37 92.47,37.91 91.82,37.98 C91.17,38.05 91.11,37.54 91,37.12 L90.97,37.05 Z M107.09,50.61 C106.92,51.36 106.35,51.42 105.8,51.39 C104.843832,51.3482169 103.891625,51.2413024 102.95,51.07 C100.27,50.56 97.54,50.59 94.85,50.27 C94.14,50.19 93.37,50.17 93.34,49.13 C93.1242885,46.2589899 92.696454,43.4078741 92.06,40.6 C97.92,40.6 103.21,42.47 108.95,42.67 C108.32,45.47 107.69,48.08 107.1,50.68 L107.09,50.61 Z M111.09,75.92 C106.78,59.51 108.55,43.92 118.4,29.65 C122.545629,23.5100151 128.269783,18.6011302 134.97,15.44 C139.97,13.12 142.55,12.52 147.53,13.39 C145.67,14.2 144.14,14.96 142.53,15.55 C137.61,17.4 133.72,20.68 130.11,24.35 C123.49,31.1 119.71,39.35 117.19,48.35 C115.371532,54.9251984 115.179343,61.8439926 116.63,68.51 C117.4881,73.5528132 118.782975,78.5114811 120.5,83.33 C120.920415,84.5569014 121.505782,85.7209073 122.24,86.79 C116.27,85 112.47,81.32 111.07,76 L111.09,75.92 Z M127.56,88.55 C127.087803,88.4801505 126.653743,88.2507693 126.33,87.9 C125.09,86.06 123.57,84.47 122.76,82.28 C120.63492,76.2516375 119.163154,70.0125568 118.37,63.67 C117.786063,59.4614421 118.020352,55.1797177 119.06,51.06 C120.428381,44.8917925 122.792693,38.9877677 126.06,33.58 C130.34,26.77 135.75,21.1 143.36,17.93 C145.64,16.93 147.91,16 150.24,15.15 C153.122114,14.0477264 156.353212,14.3508728 158.98,15.97 C157.448039,16.0843622 155.926989,16.3150269 154.43,16.66 C143.02,19.46 135.68,26.99 131.16,37.36 C127.172397,46.3881271 125.219586,56.1829096 125.44,66.05 C125.58,72.24 126.69,78.27 129.96,83.72 C131.125616,85.6009867 132.464795,87.3687019 133.96,89 C131.49,89.05 129.5,89.25 127.54,88.62 L127.56,88.55 Z M173.89,55.48 C173.007934,60.3559902 171.31804,65.050516 168.89,69.37 C167.219759,72.3728064 165.256889,75.2032241 163.03,77.82 C160.382538,80.7036726 157.354721,83.2133962 154.03,85.28 C150.593979,87.499635 146.665791,88.842224 142.59,89.19 C139.59115,89.5404487 136.620553,88.3378844 134.71,86 C132.052161,82.9911335 130.182916,79.3694716 129.27,75.46 C128.291346,71.7379979 127.836963,67.8976185 127.92,64.05 C128.189321,55.0861092 130.10802,46.2485686 133.58,37.98 C135.599136,33.0707749 138.763966,28.716133 142.81,25.28 C148.43,20.58 154.97,17.98 162.46,18.51 C166.981935,18.9016706 170.761151,22.1111962 171.88,26.51 C173.026835,31.0013925 173.822569,35.5751878 174.26,40.19 C174.887486,45.3012507 174.756066,50.4771794 173.87,55.55 L173.89,55.48 Z" id="Shape" fill="#222222"></path>
            <path d="M155.05,46.16 C153.18129,46.0868464 151.396695,46.9398605 150.28,48.44 C147.932044,51.408841 146.719455,55.1175191 146.86,58.9 C147.021107,62.1199527 149.251033,64.8638542 152.37,65.68 C155.46,66.47 158.37,66.11 160.64,63.45 C162.91,60.79 163.64,57.71 163.88,54.03 C164.34,49.76 158.85,46.07 155.05,46.16 Z M153.43,63.27 C150.49,62.22 149.37,60.8 149.31,58.27 C149.23,55.27 150.48,52.66 152.03,50.22 C153.03,48.68 154.59,48.46 156.51,48.85 C155.25,51.07 153.62,53.04 152.96,55.48 C152.331686,58.0650229 152.495446,60.7792708 153.43,63.27 Z M158.26,62.27 C157.04,63.53 156.35,63.35 155.63,61.72 C155.192884,60.7161569 155.00093,59.6227032 155.07,58.53 C154.96,55.71 156.32,53.53 157.85,51.53 C158.85,50.23 160.08,50.48 160.85,51.96 C161.052033,52.3024632 161.190905,52.6784336 161.26,53.07 C161.701094,56.4444887 160.599235,59.8382156 158.26,62.31 L158.26,62.27 Z" id="Shape" fill="#222222"></path>
            <path d="M154.36,77.78 C153.61,78.41 153.85,79.21 154.18,79.93 C154.51,80.65 154.85,81.6 156,81.42 C156.53,81.33 156.77,80.94 157,80.29 C156.813318,79.3402769 156.36675,78.4609876 155.71,77.75 C155.320165,77.408797 154.734293,77.4218163 154.36,77.78 Z" id="Shape" fill="#222222"></path>
            <path d="M158.44,28 C159.44,27.91 159.63,27.15 159.62,26.3 C159.62,25.12 159.06,24.35 158.25,24.51 C157.44,24.67 157.16,25.3 157.15,26.09 C157.14,27.16 157.7,28.06 158.44,28 Z" id="Shape" fill="#222222"></path>
            <path d="M164.65,25.51 C163.74095,25.7991646 163.096896,26.6091712 163.02,27.56 C162.977356,27.8778952 163.079569,28.198154 163.298487,28.4325702 C163.517404,28.6669864 163.829935,28.790833 164.15,28.77 C165.153391,28.5176577 165.870196,27.6338693 165.91,26.6 C165.913933,26.278896 165.776072,25.9723966 165.533209,25.7623002 C165.290345,25.5522039 164.967195,25.4598917 164.65,25.51 Z" id="Shape" fill="#222222"></path>
            <path d="M149.43,81.29 C148.62,81.21 148,81.95 147.99,83.05 C147.99,83.9 148.23,84.71 149.23,84.71 C150.43,84.71 150.4,83.71 150.49,82.84 C150.58,81.97 150.37,81.39 149.43,81.29 Z" id="Shape" fill="#222222"></path>
            <path d="M134.57,65.52 C134.57,64.83 134.06,64.46 133.27,64.52 C132.22,64.52 131.15,65.29 131.19,66.04 C131.23,66.79 131.81,67.23 132.63,67.18 C133.77,67.07 134.63,66.36 134.57,65.52 Z" id="Shape" fill="#222222"></path>
            <path d="M133.51,68.71 C132.42,68.71 131.51,69.3 131.65,70.06 C131.726499,70.76476 132.321101,71.2990397 133.03,71.3 C134.08,71.3 135.03,70.49 134.88,69.74 C134.782037,69.0796734 134.171553,68.6206966 133.51,68.71 Z" id="Shape" fill="#222222"></path>
            <path d="M132.58,59.45 C133.37,59.45 133.96,59.23 134.03,58.29 C134.1,57.35 133.36,57.11 132.62,57.07 C132.26644,56.9946875 131.897769,57.0827724 131.61644,57.3097757 C131.335111,57.536779 131.171105,57.8785097 131.17,58.24 C131.15,59.1 131.79,59.42 132.58,59.45 Z" id="Shape" fill="#222222"></path>
            <path d="M31.77,59.11 C37.6415417,57.9706151 43.4257815,56.4201314 49.08,54.47 C53.2526203,53.1272607 57.3120424,51.4553405 61.22,49.47 C66.79,46.65 72.02,43.28 77.38,40.12 C80.4735069,38.2529999 83.2373755,35.8878312 85.56,33.12 C86.215179,32.5249139 86.3265036,31.5358382 85.82,30.81 C84.2218972,27.5032668 82.3133266,24.3557995 80.12,21.41 C78.88,19.83 78.41,17.83 76.96,16.41 C73.86,13.28 70.89,10.04 66.68,8.33 C66.1,8.09 65.6,7.65 65.03,7.33 C61.03,5.22 57.03,2.93 52.27,3.12 C50.83,3.18 49.39,3.12 47.85,3.12 C44.6941658,3.10979378 41.5441292,3.39098727 38.44,3.96 C33.8623179,4.65301619 29.431831,6.1028094 25.33,8.25 C19.8807829,11.0121058 15.2141818,15.10097 11.76,20.14 C9.13268364,24.2425107 6.98844986,28.6350021 5.37,33.23 C2.97,39.46 2.58,46.01 2.69,52.57 C2.77,57.04 3.1,57.15 7.56,58.37 C15.473209,60.4234016 23.7461525,60.6762714 31.77,59.11 Z" id="Shape" fill="#FFFFFF"></path>
            <path d="M174.21,40.26 C173.772569,35.6451878 172.976835,31.0713925 171.83,26.58 C170.711151,22.1811962 166.931935,18.9716706 162.41,18.58 C154.92,18.05 148.41,20.65 142.76,25.35 C138.713966,28.786133 135.549136,33.1407749 133.53,38.05 C130.05802,46.3185686 128.139321,55.1561092 127.87,64.12 C127.786963,67.9676185 128.241346,71.8079979 129.22,75.53 C130.132916,79.4394716 132.002161,83.0611335 134.66,86.07 C136.570553,88.4078844 139.54115,89.6104487 142.54,89.26 C146.615791,88.912224 150.543979,87.569635 153.98,85.35 C157.304721,83.2833962 160.332538,80.7736726 162.98,77.89 C165.206889,75.2732241 167.169759,72.4428064 168.84,69.44 C171.26804,65.120516 172.957934,60.4259902 173.84,55.55 C174.7125,50.4990578 174.837168,45.3472324 174.21,40.26 Z M132.62,57.07 C133.36,57.07 133.97,57.43 134.03,58.29 C134.09,59.15 133.37,59.48 132.58,59.45 C131.79,59.42 131.15,59.1 131.17,58.24 C131.171105,57.8785097 131.335111,57.536779 131.61644,57.3097757 C131.897769,57.0827724 132.26644,56.9946875 132.62,57.07 Z M131.19,66 C131.19,65.25 132.19,64.51 133.27,64.48 C134.06,64.48 134.52,64.83 134.57,65.48 C134.62,66.13 133.77,67.03 132.63,67.1 C131.81,67.19 131.23,66.89 131.19,66 Z M133.03,71.3 C132.321101,71.2990397 131.726499,70.76476 131.65,70.06 C131.53,69.3 132.42,68.68 133.51,68.71 C134.161589,68.6194491 134.767633,69.0618174 134.88,69.71 C135,70.49 134.08,71.29 133,71.3 L133.03,71.3 Z M158.25,24.5 C159.06,24.34 159.61,25.11 159.62,26.29 C159.62,27.14 159.45,27.9 158.44,27.99 C157.7,28.06 157.14,27.16 157.15,26.08 C157.16,25.29 157.42,24.66 158.25,24.5 Z M149.25,84.71 C148.25,84.71 148,83.9 148.01,83.05 C148.01,81.95 148.64,81.21 149.45,81.29 C150.26,81.37 150.45,82.08 150.51,82.84 C150.57,83.6 150.43,84.71 149.23,84.71 L149.25,84.71 Z M156.02,81.42 C154.87,81.6 154.55,80.71 154.2,79.93 C153.85,79.15 153.63,78.41 154.38,77.78 C154.755886,77.4541718 155.314114,77.4541718 155.69,77.78 C156.34675,78.4909876 156.793318,79.3702769 156.98,80.32 C156.77,80.94 156.53,81.33 156,81.42 L156.02,81.42 Z M163.9,54.03 C163.66,57.71 162.9,60.82 160.66,63.45 C158.42,66.08 155.48,66.45 152.39,65.68 C149.271033,64.8638542 147.041107,62.1199527 146.88,58.9 C146.739455,55.1175191 147.952044,51.408841 150.3,48.44 C151.416695,46.9398605 153.20129,46.0868464 155.07,46.16 C158.85,46.07 164.34,49.76 163.88,54 L163.9,54.03 Z M164.17,28.77 C163.849935,28.790833 163.537404,28.6669864 163.318487,28.4325702 C163.099569,28.198154 162.997356,27.8778952 163.04,27.56 C163.116896,26.6091712 163.76095,25.7991646 164.67,25.51 C164.987195,25.4598917 165.310345,25.5522039 165.553209,25.7623002 C165.796072,25.9723966 165.933933,26.278896 165.93,26.6 C165.887745,27.6396367 165.161299,28.5252479 164.15,28.77 L164.17,28.77 Z" id="Shape" fill="#FFFFFF"></path>
            <path d="M87.55,55.43 C82.61,58.82 77.76,62.34 72.35,64.99 C67.4527435,67.5043003 62.3674206,69.6340509 57.14,71.36 C50.5547546,73.3030463 43.8417218,74.7833218 37.05,75.79 C33.35,76.38 29.65,77.16 25.87,76.89 C22.44,76.64 19,76.58 15.56,76.5 C15.09,76.5 14.47,76.14 14.09,76.8 C14.5653228,77.6591753 15.2160822,78.4087412 16,79 C17.9342613,80.4155612 19.7934485,81.930949 21.57,83.54 C22.4877511,84.3085379 23.4950611,84.9632894 24.57,85.49 C28.0364967,87.3041821 31.7387055,88.6268803 35.57,89.42 C39.17,90.15 42.78,90.85 46.4,91.42 C51.88,92.31 57.02,90.52 62.11,88.96 C67.2,87.4 71.59,84.42 76.03,81.56 C81.6447676,77.9144681 85.8192357,72.4321649 87.84,66.05 C89.02,62.64 89.75,59.12 90.63,55.64 C90.9559652,54.5596532 90.9732842,53.4096729 90.68,52.32 C89.38,53.45 88.69,54.65 87.55,55.43 Z" id="Shape" fill="#FFFFFF"></path>
            <path d="M125.43,66.12 C125.209586,56.2529096 127.162397,46.4581271 131.15,37.43 C135.67,27.06 143.01,19.53 154.42,16.73 C155.916989,16.3850269 157.438039,16.1543622 158.97,16.04 C156.343212,14.4208728 153.112114,14.1177264 150.23,15.22 C147.9,16.07 145.63,17.04 143.35,18 C135.74,21.17 130.35,26.84 126.05,33.65 C122.782693,39.0577677 120.418381,44.9617925 119.05,51.13 C118.010352,55.2497177 117.776063,59.5314421 118.36,63.74 C119.153154,70.0825568 120.62492,76.3216375 122.75,82.35 C123.56,84.54 125.08,86.13 126.32,87.97 C126.643743,88.3207693 127.077803,88.5501505 127.55,88.62 C129.55,89.25 131.5,89.05 134,89.07 C132.504795,87.4387019 131.165616,85.6709867 130,83.79 C126.68,78.34 125.57,72.31 125.43,66.12 Z" id="Shape" fill="#FFFFFF"></path>
            <path d="M116.62,68.57 C115.169343,61.9039926 115.361532,54.9851984 117.18,48.41 C119.7,39.41 123.48,31.17 130.1,24.41 C133.71,20.74 137.6,17.46 142.52,15.61 C144.12,15.02 145.65,14.26 147.52,13.45 C142.52,12.58 139.93,13.18 134.96,15.5 C128.259783,18.6611302 122.535629,23.5700151 118.39,29.71 C108.54,43.95 106.77,59.57 111.08,75.98 C112.48,81.31 116.28,84.98 122.24,86.84 C121.505782,85.7709073 120.920415,84.6069014 120.5,83.38 C118.780136,78.5650365 117.48192,73.6097321 116.62,68.57 Z" id="Shape" fill="#FFFFFF"></path>
            <path d="M92.5,37 L92.77,32 C92.815392,28.9586848 92.5844432,25.9195325 92.08,22.92 C91.53,18.33 89.9,14.27 85.98,11.42 C83.3381591,9.49382228 79.808102,9.30947486 76.98,10.95 C76.26,11.39 76.1,11.87 76.72,12.46 C78.88,14.52 80.33,17.07 81.95,19.55 C84.13,22.89 86.23,26.27 88.1,29.8 C89.279764,32.1570142 90.2501617,34.6131241 91,37.14 C91.13,37.56 91.24,38.14 91.87,38.14 C92.5,38.14 92.47,37.47 92.5,37 Z" id="Shape" fill="#FFFFFF"></path>
            <path d="M92.07,40.67 C92.706454,43.4778741 93.1342885,46.3289899 93.35,49.2 C93.35,50.2 94.15,50.26 94.86,50.34 C97.55,50.66 100.28,50.63 102.96,51.14 C103.901625,51.3113024 104.853832,51.4182169 105.81,51.46 C106.36,51.46 106.93,51.46 107.1,50.68 C107.69,48.08 108.32,45.47 108.96,42.74 C103.22,42.54 97.93,40.65 92.07,40.67 Z" id="Shape" fill="#FFFFFF"></path>
            <path d="M82.33,7.21 C77.25,5.59 72.15,4.26 66.67,5.16 C69.16,6.75 71.82,7.96 73.99,9.91 C76.354653,8.03597772 79.3157089,7.0773625 82.33,7.21 Z" id="Shape" fill="#FFFFFF"></path>
            <path d="M160.84,52 C160.08,50.52 158.84,50.27 157.84,51.57 C156.31,53.63 154.95,55.8 155.06,58.57 C154.99093,59.6627032 155.182884,60.7561569 155.62,61.76 C156.34,63.39 157.03,63.57 158.25,62.31 C160.592138,59.8358822 161.694218,56.437801 161.25,53.06 C161.175277,52.6857269 161.036578,52.3271405 160.84,52 Z" id="Shape" fill="#FFFFFF"></path>
            <path d="M156.51,48.85 C154.59,48.46 153,48.68 152.03,50.22 C150.48,52.66 149.23,55.22 149.31,58.27 C149.37,60.8 150.49,62.22 153.43,63.27 C152.495446,60.7792708 152.331686,58.0650229 152.96,55.48 C153.62,53 155.25,51.07 156.51,48.85 Z" id="Shape" fill="#FFFFFF"></path>
            <path d="M4.11,60 C9.93461512,61.9222878 16.0487037,62.8189305 22.18,62.65 C26.7309439,62.4388769 31.2564954,61.8501873 35.71,60.89 C42.0184994,59.4542208 48.2253294,57.6035298 54.29,55.35 C58.9315669,53.6092402 63.4008764,51.4398674 67.64,48.87 C71.4,46.74 75.1,44.53 78.77,42.25 C81.9064295,40.2239758 84.7785043,37.815464 87.32,35.08 C88.54,36.65 88.8,38.48 89.32,40.18 C89.84,41.88 90.01,43.79 90.49,45.56 C90.9704772,47.106403 90.5414453,48.7916093 89.38,49.92 C87.8810317,51.6769842 86.2055745,53.2753703 84.38,54.69 C78.6445362,58.8926455 72.4841844,62.4822737 66,65.4 C58.4973934,68.8014717 50.5633139,71.1567964 42.42,72.4 C38.42,73.03 34.42,73.96 30.35,74.31 C25,74.76 19.66,74.21 14.35,73.9 C12.0850047,73.7300534 10.0272265,72.5182917 8.78,70.62 C6.65818289,67.8080917 5.07487425,64.6279129 4.11,61.24 C3.88641174,60.8569036 3.88641174,60.3830964 4.11,60 Z" id="Shape" fill="#FA5E52"></path>
        </g>
    </g>
</svg>