<?xml version="1.0" encoding="UTF-8"?>
<svg width="78px" height="128px" viewBox="0 0 78 128" version="1.1" xmlns="http://www.w3.org/2000/svg" xmlns:xlink="http://www.w3.org/1999/xlink">
    <!-- Generator: Sketch 51.2 (57519) - http://www.bohemiancoding.com/sketch -->
    <title>Group 18</title>
    <desc>Created with Sketch.</desc>
    <defs></defs>
    <g id="Page-1" stroke="none" stroke-width="1" fill="none" fill-rule="evenodd">
        <g id="Group-18" fill-rule="nonzero">
            <path d="M77.08,7.63 C76.31,3.63 74.25,1.9 70.25,1.44 C65.8002094,0.942661594 61.3274036,0.678966325 56.85,0.65 C42.94,0.52 29.03,0.13 15.12,0.97 C12.3292215,1.13157171 9.54877479,1.43865586 6.79,1.89 C3.04,2.51 1.02,4.73 0.99,8.34 C0.99,10.66 0.9,12.98 0.88,15.34 C0.732217637,17.0665816 1.48897201,18.7465763 2.88,19.78 C4.48,20.85 4.78,22.33 5.07,24.01 C5.88,28.81 6.78,33.62 8.89,38.07 C11.4355177,43.4901238 14.4292554,48.6881889 17.84,53.61 C20.04,56.74 21.84,60.16 25,62.54 C25.79,63.14 25.6,63.69 24.95,64.28 C23.6071533,65.2852019 22.3403748,66.3882016 21.16,67.58 C16.65,72.98 13.02,78.84 11.64,85.87 C10.79,90.18 9.85,94.48 9.38,98.87 C9.31,99.49 9.3,100.01 8.58,100.42 C4.58,102.73 3.01,106.29 3.22,110.87 C3.26141411,114.693144 5.27272711,118.224283 8.54,120.21 C13.05,123.21 18.22,124.3 23.26,125.73 C28.3,127.16 33.72,126.84 38.84,127.29 C42.63,127.08 46.33,127.1 49.97,126.63 C56.3057653,125.777512 62.5021018,124.096466 68.4,121.63 C70.0229535,120.929418 71.3963142,119.754741 72.34,118.26 C74.28,115.4 74.26,112.26 73.9,109.04 C73.6351315,106.380269 72.2722657,103.951758 70.14,102.34 C69.2657171,101.685414 68.7448131,100.662078 68.73,99.57 C68.14,93.01 67.04,86.57 63.53,80.8 C61.46,77.4 59.24,74.07 57.16,70.66 C55.5946476,68.0411844 53.5607856,65.7327511 51.16,63.85 C50.04,62.98 50.29,62.2 50.71,61.27 C50.9535591,60.8606842 51.23121,60.4726419 51.54,60.11 C54.65,55.46 58.37,51.24 61.24,46.42 C65.734142,39.0540524 69.4220659,31.2255958 72.24,23.07 C72.47,22.38 72.65,21.76 73.46,21.44 C74.6869011,20.8144821 75.625336,19.7399383 76.08,18.44 C77.6049292,15.047803 77.956773,11.2443711 77.08,7.63 Z M14.82,3.47 C28.54,2.57 42.29,2.99 56.02,3.08 C60.6519606,3.07540724 65.2801068,3.34588331 69.88,3.89 C70.6729476,3.9765237 71.4502293,4.17168535 72.19,4.47 C72.55,4.62 72.94,4.83 72.95,5.29 C72.96,5.75 72.52,5.96 72.17,6.06 C71.4786488,6.25461533 70.7731784,6.39504071 70.06,6.48 C68.9602758,6.67505018 67.8467435,6.78205629 66.73,6.8 C56.25,6.5 45.82,7.61 35.36,7.56 C28.7318637,7.52513079 22.1148089,7.01381292 15.56,6.03 C12.73,5.6 9.84,5.55 6.73,4.52 C9.38540655,3.90387312 12.0952897,3.55215776 14.82,3.47 Z M69.26,105.61 C69.08,105.61 68.91,105.42 69.01,105.33 C69.34,105.02 69.33,105.33 69.33,105.55 C70.12,105.6 70.45,106.24 70.64,106.79 C71.64,109.71 72.13,112.7 70.88,115.66 C70.1867275,117.384445 68.8004813,118.738031 67.06,119.39 C60.4089257,122.131107 53.3710063,123.818049 46.2,124.39 C39.7411162,124.789044 33.2596948,124.621738 26.83,123.89 C25.7955231,123.812298 24.7727175,123.621151 23.78,123.32 C19.08,121.8 14.16,120.95 9.91,118.16 C7.31027319,116.635535 5.70652912,113.853685 5.69,110.84 C5.6,107.91 6.04,105.29 8.79,103.28 C8.9,105.99 10.55,107.44 12.5,108.66 C17.1946398,111.567391 22.5153597,113.312395 28.02,113.75 C34.317067,114.256394 40.6403761,114.353265 46.95,114.04 C52.4698244,113.865315 57.9415661,112.953919 63.22,111.33 C64.22,111.02 65.16,110.59 66.12,110.18 C68.14,109.34 69.4,108 69.26,105.61 Z M66.57,30.61 C62.44,40.77 56.32,49.74 49.63,58.33 C48.15,60.23 46.79,62.41 44.09,63.01 C43.0746527,63.203873 42.0436752,63.3042929 41.01,63.31 C39.48,63.37 38.8,63.78 38.9,64.64 C39.05,65.89 40.03,65.75 40.9,65.79 C42.8249819,65.9501448 44.7572745,65.5837352 46.49,64.73 C47.2309298,64.2350566 48.2212569,64.3493251 48.83,65 C50.8050191,66.5056442 52.532539,68.3107675 53.95,70.35 C57.02,75.2 60.41,79.86 62.9,85.08 C66,91.55 66.44,98.43 66.28,105.43 C66.3333491,106.735894 65.4730027,107.903803 64.21,108.24 C59.6390425,109.954872 54.8343791,110.96638 49.96,111.24 C42.7889297,111.854982 35.5775347,111.834904 28.41,111.18 C23.6372738,110.807068 18.9998531,109.415842 14.81,107.1 C13.9901144,106.605075 13.1988529,106.064213 12.44,105.48 C11.7183607,104.952639 11.3363188,104.077763 11.44,103.19 C11.8151685,96.1596716 13.0476273,89.2014848 15.11,82.47 C16.9914077,76.3968463 20.6019428,71.0036312 25.5,66.95 C25.8311714,66.7244544 26.1334282,66.4591401 26.4,66.16 C27.1348007,64.9490544 28.7013424,64.545215 29.93,65.25 C31.1495872,65.6418748 32.4311759,65.8046162 33.71,65.73 C34.5,65.73 35.23,65.62 35.31,64.73 C35.39,63.84 34.67,63.37 33.78,63.32 L33.54,63.32 C29.06,63.44 25.99,60.91 23.54,57.6 C18.24,50.29 13.23,42.77 9.97,34.27 C8.53228011,30.2045147 7.58883611,25.9808401 7.16,21.69 C28.05,24.33 48.78,25.12 69.68,22.33 C69.18,25.37 67.67,27.93 66.57,30.64 L66.57,30.61 Z M73.9,17.23 C73.4690666,18.4436418 72.3805485,19.3027936 71.1,19.44 C66.9266667,20.18 62.73,20.72 58.51,21.06 C49.1038975,21.7533331 39.6607737,21.7867482 30.25,21.16 C25.07,20.85 19.86,20.89 14.71,20.16 C11.79,19.74 8.88,19.16 6.01,18.53 C4.06,18.08 3.43,17.24 3.39,15.35 C3.34,12.87 3.48,10.35 3.51,7.92 C3.51,6.82 3.98,6.59 5.03,6.81 C19.5278754,9.79192202 34.3694004,10.7477028 49.13,9.65 C54.24,9.3 59.36,9.28 64.47,9.41 C66.5473954,9.39054289 68.6215023,9.24024529 70.68,8.96 C72.0566007,8.84279599 73.3910103,8.4264329 74.59,7.74 C75.17,11.23 75.18,14.27 73.9,17.26 L73.9,17.23 Z" id="Shape" fill="#222222"></path>
            <path d="M53.42,93.23 C53.5796524,93.2449161 53.7403476,93.2449161 53.9,93.23 C54.3973049,93.272407 54.8578738,92.9653611 55.01,92.49 C55.2123188,91.9428469 54.9768238,91.3305598 54.46,91.06 C54.0441704,90.8163008 53.5719495,90.6853198 53.09,90.68 C49.8,90.46 46.54,90.52 43.46,91.91 C41.9185801,92.571813 40.3135813,93.0744223 38.67,93.41 C37.7014828,93.7648679 36.6385172,93.7648679 35.67,93.41 C36.1632846,92.6465448 36.3557061,91.7271975 36.21,90.83 C36.21,84.0433333 36.21,77.2533333 36.21,70.46 C36.21,68.54 35.8,67.68 34.93,67.84 C33.46,68.13 33.79,69.37 33.79,70.36 C33.79,77.23 33.79,84.1 33.79,90.97 C33.6462127,91.8285623 33.8474926,92.7091622 34.35,93.42 C30.64,93.73 21.78,92.06 18.8,90.42 C20.2388868,89.1668143 22.072291,88.4589362 23.98,88.42 C24.62,88.37 25.27,88.42 25.9,88.42 C28.25,88.06 30.71,88 32.59,86.23 C33.06,85.79 33.52,85.28 33.04,84.57 C32.8646284,84.2423654 32.5462677,84.0154672 32.1793419,83.9566021 C31.8124161,83.897737 31.4390568,84.0136641 31.17,84.27 C29.17,85.82 26.73,85.87 24.34,85.97 C22.1711045,85.9831712 20.0486384,86.5994828 18.21,87.75 C17.21,88.45 16.21,89.18 16.21,90.53 C16.21,91.88 17.34,92.74 18.55,93.29 C20.4574266,94.1394468 22.4788069,94.7054333 24.55,94.97 C26.69,95.24 28.83,95.52 30.96,95.84 C34.88,96.44 38.81,96.51 42.52,94.97 C45.9244065,93.3993841 49.6958051,92.7973443 53.42,93.23 Z" id="Shape" fill="#222222"></path>
            <path d="M42.77,46.87 C36.55,46.73 30.34,46.07 24.11,46.06 C22.9104388,46.0983754 21.7195437,45.8444093 20.64,45.32 C21.71,44.45 22.73,44.57 23.64,44.25 C24.32,44.01 24.78,43.62 24.64,42.87 C24.6000857,42.5413941 24.4228424,42.2450742 24.1521977,42.0544793 C23.8815529,41.8638844 23.5428384,41.7968538 23.22,41.87 C22.2001979,42.0083959 21.1957406,42.2427693 20.22,42.57 C19.0041014,42.8917593 18.1734716,44.0131096 18.22,45.27 C18.2392999,46.5191785 19.0838389,47.6044315 20.29,47.93 C21.5003859,48.3532084 22.7783786,48.5498227 24.06,48.51 C29.57,48.51 35.06,48.98 40.55,49.3 C43.6610429,49.4089157 46.7758884,49.2919419 49.87,48.95 C51.5438567,48.771831 53.1654305,48.2619022 54.64,47.45 C55.6246006,47.0221917 56.2638531,46.0535085 56.27,44.98 C56.27,43.82 55.4,43.33 54.52,42.92 C52.6674083,42.1643407 50.6804459,41.7934864 48.68,41.83 C47.68,41.83 46.51,41.76 46.45,43.03 C46.39,44.3 47.64,44.18 48.58,44.28 C50.12,44.43 51.72,44.34 53.35,45.33 C49.78,46.91 46.25,47 42.77,46.87 Z" id="Shape" fill="#222222"></path>
            <path d="M41,86.57 C42.27,87.04 43.55,87.48 44.85,87.87 C48.85,89.09 53,89.38 57.05,90.27 C59.11,90.72 61.21,91.21 61.2,94.02 C61.1979224,94.3073798 61.3195851,94.5817624 61.5339581,94.7731669 C61.7483311,94.9645714 62.0346903,95.054494 62.32,95.02 C63.1,95.02 63.46,94.54 63.55,93.82 C63.5649886,93.580234 63.5649886,93.339766 63.55,93.1 C63.5957939,91.7176457 62.9415385,90.4053748 61.81,89.61 C60.5095095,88.681792 59.0211738,88.0502734 57.45,87.76 C53.93,87.01 50.34,86.76 46.85,85.82 C45.16,85.37 43.48,84.82 41.85,84.25 C41.05,83.95 40.38,84.06 40.07,84.88 C39.76,85.7 40.23,86.29 41,86.57 Z" id="Shape" fill="#222222"></path>
            <path d="M34.79,41 L29.79,41 C29,41 28.25,41.22 28.15,42.07 C28.03,43.07 28.88,43.36 29.71,43.5 C29.9487319,43.5315717 30.1891957,43.5482706 30.43,43.55 C34.01,43.66 37.61,43.23 41.2,43.84 C42,43.98 42.89,43.84 42.94,42.72 C42.94,41.78 42.23,41.57 41.5,41.43 C39.2923792,40.9891267 37.0358372,40.8445197 34.79,41 Z" id="Shape" fill="#222222"></path>
            <path d="M37.89,70.24 C37.89,71.83 37.89,73.41 37.89,75 C37.89,76.59 37.89,78.17 37.89,79.76 C37.89,80.52 38.11,81.25 39.02,81.3 C39.93,81.35 40.3,80.67 40.3,79.91 C40.3,76.66 40.3,73.4 40.3,70.15 C40.3335091,69.826339 40.2307183,69.5033431 40.0163125,69.258579 C39.8019067,69.0138149 39.4952554,68.8693945 39.17,68.86 C38.23,68.82 37.91,69.45 37.89,70.24 Z" id="Shape" fill="#222222"></path>
            <path d="M54.5,96.82 C53.88,96.82 53.24,96.82 52.29,96.82 C51.34,96.82 49.93,97.09 48.6,97.26 C47.91,97.35 47.36,97.68 47.34,98.43 C47.3161861,98.7558612 47.4345828,99.0760793 47.6646553,99.3080691 C47.8947278,99.5400589 48.2139524,99.6611089 48.54,99.64 C50.54,99.54 52.62,99.35 54.66,99.11 C54.9482613,99.0877209 55.212772,98.9417708 55.3853229,98.7097856 C55.5578738,98.4778005 55.6215751,98.1824879 55.56,97.9 C55.5626646,97.6162147 55.4524804,97.3429953 55.2536891,97.1404533 C55.0548979,96.9379113 54.7837856,96.8226398 54.5,96.82 Z" id="Shape" fill="#222222"></path>
            <path d="M7.22,21.66 C7.64883611,25.9508401 8.59228011,30.1745147 10.03,34.24 C13.29,42.74 18.3,50.24 23.6,57.57 C26.01,60.88 29.08,63.41 33.6,63.29 L33.84,63.29 C34.73,63.29 35.46,63.66 35.37,64.7 C35.28,65.74 34.56,65.75 33.77,65.7 C32.4911759,65.7746162 31.2095872,65.6118748 29.99,65.22 C28.7613424,64.515215 27.1948007,64.9190544 26.46,66.13 C26.1934282,66.4291401 25.8911714,66.6944544 25.56,66.92 C20.6619428,70.9736312 17.0514077,76.3668463 15.17,82.44 C13.1076273,89.1714848 11.8751685,96.1296716 11.5,103.16 C11.3963188,104.047763 11.7783607,104.922639 12.5,105.45 C13.2588529,106.034213 14.0501144,106.575075 14.87,107.07 C19.0598531,109.385842 23.6972738,110.777068 28.47,111.15 C35.6375347,111.804904 42.8489297,111.824982 50.02,111.21 C54.8943791,110.93638 59.6990425,109.924872 64.27,108.21 C65.5330027,107.873803 66.3933491,106.705894 66.34,105.4 C66.5,98.4 66.06,91.52 62.96,85.05 C60.47,79.83 57.08,75.17 54.01,70.32 C52.592539,68.2807675 50.8650191,66.4756442 48.89,64.97 C48.2812569,64.3193251 47.2909298,64.2050566 46.55,64.7 C44.8172745,65.5537352 42.8849819,65.9201448 40.96,65.76 C40.08,65.76 39.1,65.86 38.96,64.61 C38.86,63.75 39.54,63.34 41.07,63.28 C42.1036752,63.2742929 43.1346527,63.173873 44.15,62.98 C46.85,62.38 48.21,60.2 49.69,58.3 C56.38,49.71 62.5,40.74 66.63,30.58 C67.73,27.87 69.24,25.31 69.8,22.24 C48.84,25.09 28.11,24.3 7.22,21.66 Z M30.9,95.81 C28.77,95.49 26.63,95.21 24.49,94.94 C22.4188069,94.6754333 20.3974266,94.1094468 18.49,93.26 C17.28,92.71 16.19,91.97 16.15,90.5 C16.11,89.03 17.09,88.42 18.15,87.72 C19.9886384,86.5694828 22.1111045,85.9531712 24.28,85.94 C26.67,85.84 29.07,85.79 31.11,84.24 C31.3790568,83.9836641 31.7524161,83.867737 32.1193419,83.9266021 C32.4862677,83.9854672 32.8046284,84.2123654 32.98,84.54 C33.46,85.25 32.98,85.76 32.53,86.2 C30.65,87.97 28.19,88.03 25.84,88.39 C25.21,88.48 24.56,88.39 23.92,88.39 C22.012291,88.4289362 20.1788868,89.1368143 18.74,90.39 C21.74,92.01 30.58,93.68 34.29,93.39 C33.7874926,92.6791622 33.5862127,91.7985623 33.73,90.94 C33.73,84.07 33.73,77.2 33.73,70.33 C33.73,69.33 33.4,68.1 34.87,67.81 C35.74,67.65 36.15,68.51 36.15,70.43 C36.15,77.2233333 36.15,84.0133333 36.15,90.8 C36.2957061,91.6971975 36.1032846,92.6165448 35.61,93.38 C36.5785172,93.7348679 37.6414828,93.7348679 38.61,93.38 C40.2535813,93.0444223 41.8585801,92.541813 43.4,91.88 C46.48,90.49 49.74,90.43 53.03,90.65 C53.5119495,90.6553198 53.9841704,90.7863008 54.4,91.03 C54.9168238,91.3005598 55.1523188,91.9128469 54.95,92.46 C54.7978738,92.9353611 54.3373049,93.242407 53.84,93.2 C53.6803476,93.2149161 53.5196524,93.2149161 53.36,93.2 C49.6057096,92.7391953 45.7972309,93.3312406 42.36,94.91 C38.75,96.48 34.82,96.41 30.9,95.81 Z M54.66,99.1 C52.66,99.34 50.58,99.53 48.54,99.63 C48.2139524,99.6511089 47.8947278,99.5300589 47.6646553,99.2980691 C47.4345828,99.0660793 47.3161861,98.7458612 47.34,98.42 C47.34,97.67 47.91,97.34 48.6,97.25 C49.93,97.08 51.27,96.93 52.29,96.81 C53.31,96.69 53.88,96.81 54.5,96.81 C55.0870357,96.8154866 55.5600256,97.2929386 55.56,97.88 C55.6248954,98.1639424 55.5627699,98.462068 55.3898614,98.6964551 C55.2169528,98.9308422 54.9504466,99.0781952 54.66,99.1 Z M41.81,84.28 C43.45,84.88 45.13,85.4 46.81,85.85 C50.3,86.79 53.89,87.04 57.41,87.79 C58.9811738,88.0802734 60.4695095,88.711792 61.77,89.64 C62.9015385,90.4353748 63.5557939,91.7476457 63.51,93.13 C63.5249886,93.369766 63.5249886,93.610234 63.51,93.85 C63.42,94.57 63.06,95.06 62.28,95.05 C61.9946903,95.084494 61.7083311,94.9945714 61.4939581,94.8031669 C61.2795851,94.6117624 61.1579224,94.3373798 61.16,94.05 C61.16,91.24 59.07,90.75 57.01,90.3 C52.96,89.41 48.79,89.12 44.81,87.9 C43.51,87.51 42.23,87.07 40.96,86.6 C40.22,86.32 39.7,85.78 40.02,84.94 C40.34,84.1 41,84 41.81,84.28 Z M39.16,68.86 C39.4852554,68.8693945 39.7919067,69.0138149 40.0063125,69.258579 C40.2207183,69.5033431 40.3235091,69.826339 40.29,70.15 C40.29,73.4 40.29,76.66 40.29,79.91 C40.29,80.67 39.92,81.35 39.01,81.3 C38.1,81.25 37.89,80.52 37.88,79.76 C37.88,78.17 37.88,76.59 37.88,75 C37.88,73.41 37.88,71.83 37.88,70.24 C37.91,69.45 38.23,68.82 39.16,68.86 Z M48.55,44.3 C47.61,44.2 46.36,44.42 46.42,43.05 C46.48,41.68 47.68,41.81 48.65,41.85 C50.6504459,41.8134864 52.6374083,42.1843407 54.49,42.94 C55.37,43.35 56.25,43.84 56.24,45 C56.2338531,46.0735085 55.5946006,47.0421917 54.61,47.47 C53.1354305,48.2819022 51.5138567,48.791831 49.84,48.97 C46.7458884,49.3119419 43.6310429,49.4289157 40.52,49.32 C35.03,49 29.52,48.5 24.03,48.53 C22.7483786,48.5698227 21.4703859,48.3732084 20.26,47.95 C19.0538389,47.6244315 18.2092999,46.5391785 18.19,45.29 C18.1434716,44.0331096 18.9741014,42.9117593 20.19,42.59 C21.1657406,42.2627693 22.1701979,42.0283959 23.19,41.89 C23.5128384,41.8168538 23.8515529,41.8838844 24.1221977,42.0744793 C24.3928424,42.2650742 24.5700857,42.5613941 24.61,42.89 C24.75,43.64 24.29,44.03 23.61,44.27 C22.73,44.59 21.71,44.47 20.61,45.34 C21.6895437,45.8644093 22.8804388,46.1183754 24.08,46.08 C30.31,46.08 36.52,46.75 42.74,46.89 C46.22,46.97 49.74,46.89 53.29,45.37 C51.69,44.36 50.09,44.45 48.55,44.3 Z M42.91,42.71 C42.86,43.82 41.97,43.97 41.17,43.83 C37.58,43.22 33.98,43.65 30.4,43.54 C30.1591957,43.5382706 29.9187319,43.5215717 29.68,43.49 C28.85,43.35 28,43.09 28.12,42.06 C28.22,41.21 28.97,40.98 29.76,40.99 L34.76,40.99 C36.9958844,40.837192 39.2421603,40.9817876 41.44,41.42 C42.2,41.56 43,41.77 42.91,42.71 Z" id="Shape" fill="#FFFFFF"></path>
            <path d="M72.19,4.47 C71.4502293,4.17168535 70.6729476,3.9765237 69.88,3.89 C65.2801068,3.34588331 60.6519606,3.07540724 56.02,3.08 C42.29,2.99 28.54,2.57 14.82,3.47 C12.0952897,3.55215776 9.38540655,3.90387312 6.73,4.52 C9.84,5.52 12.73,5.6 15.56,6.03 C22.1148089,7.01381292 28.7318637,7.52513079 35.36,7.56 C45.82,7.56 56.25,6.5 66.73,6.8 C67.8467435,6.78205629 68.9602758,6.67505018 70.06,6.48 C70.7731784,6.39504071 71.4786488,6.25461533 72.17,6.06 C72.52,5.96 72.96,5.78 72.95,5.29 C72.94,4.8 72.55,4.62 72.19,4.47 Z" id="Shape" fill="#FFFFFF"></path>
            <path d="M74.59,7.76 C73.3910103,8.4464329 72.0566007,8.86279599 70.68,8.98 C68.6215023,9.26024529 66.5473954,9.41054289 64.47,9.43 C59.36,9.3 54.24,9.32 49.13,9.67 C34.3694004,10.7677028 19.5278754,9.81192202 5.03,6.83 C3.98,6.61 3.52,6.83 3.51,7.94 C3.51,10.41 3.34,12.94 3.39,15.37 C3.39,17.26 4.06,18.1 6.01,18.55 C8.88,19.21 11.79,19.76 14.71,20.18 C19.86,20.92 25.07,20.88 30.25,21.18 C39.6607737,21.8067482 49.1038975,21.7733331 58.51,21.08 C62.73,20.74 66.9266667,20.2 71.1,19.46 C72.3805485,19.3227936 73.4690666,18.4636418 73.9,17.25 C75.18,14.27 75.17,11.23 74.59,7.76 Z" id="Shape" fill="#FA5E52"></path>
            <path d="M69.33,105.55 C69.33,105.32 69.33,105.02 69.01,105.33 C68.91,105.42 69.08,105.6 69.26,105.61 C69.4,107.95 68.14,109.34 66.12,110.19 C65.12,110.6 64.21,111.03 63.22,111.34 C57.9415661,112.963919 52.4698244,113.875315 46.95,114.05 C40.6403761,114.363265 34.317067,114.266394 28.02,113.76 C22.5153597,113.322395 17.1946398,111.577391 12.5,108.67 C10.55,107.45 8.9,106 8.79,103.29 C6.04,105.29 5.6,107.92 5.69,110.85 C5.70652912,113.863685 7.31027319,116.645535 9.91,118.17 C14.16,120.96 19.08,121.81 23.78,123.33 C24.7727175,123.631151 25.7955231,123.822298 26.83,123.9 C33.2596948,124.631738 39.7411162,124.799044 46.2,124.4 C53.3710063,123.828049 60.4089257,122.141107 67.06,119.4 C68.8004813,118.748031 70.1867275,117.394445 70.88,115.67 C72.13,112.67 71.69,109.72 70.64,106.8 C70.45,106.24 70.12,105.6 69.33,105.55 Z" id="Shape" fill="#FA5E52"></path>
        </g>
    </g>
</svg>