<svg width="22" height="22" viewBox="0 0 22 22" fill="none" xmlns="http://www.w3.org/2000/svg">
<path d="M18.7681 3.22606C16.7267 1.18469 14.0238 0.0458048 11.1429 0.00773439C11.0927 0.00317969 11.0429 0 10.9941 0C10.9452 0 10.8954 0.00317969 10.8452 0.00773439C7.96427 0.0457618 5.26141 1.18465 3.22004 3.22601C1.14357 5.30257 0 8.0634 0 11C0 13.9366 1.14357 16.6974 3.22008 18.7739C5.26145 20.8153 7.96427 21.9542 10.8452 21.9922C10.8954 21.9968 10.9452 22 10.9941 22C11.0429 22 11.0927 21.9968 11.1429 21.9922C14.0239 21.9542 16.7267 20.8153 18.7681 18.7739C20.8445 16.6975 21.9881 13.9366 21.9881 11C21.9881 8.0634 20.8446 5.30257 18.7681 3.22606ZM4.14426 4.15023C5.31219 2.9823 6.72608 2.14995 8.26892 1.70023C7.92118 2.10057 7.58314 2.56103 7.26852 3.07128C6.86724 3.72209 6.51979 4.42747 6.22885 5.17328H3.2539C3.5246 4.81522 3.82135 4.47314 4.14426 4.15023ZM2.42121 6.48026H5.7888C5.43861 7.70582 5.2315 9.01147 5.18032 10.3465H1.32916C1.4196 8.97993 1.79296 7.66843 2.42121 6.48026ZM2.42125 15.5197C1.79292 14.3316 1.41956 13.0201 1.32911 11.6535H5.18028C5.23146 12.9886 5.43857 14.2942 5.78876 15.5197H2.42125ZM4.1443 17.8498C3.8213 17.5269 3.52456 17.1848 3.2539 16.8267H6.22889C6.51983 17.5725 6.86724 18.2779 7.26857 18.9287C7.58318 19.439 7.92122 19.8994 8.26897 20.2998C6.72617 19.8501 5.31228 19.0177 4.1443 17.8498ZM10.3405 20.424C9.79608 20.0678 9.06501 19.3521 8.38094 18.2428C8.10659 17.7979 7.85999 17.324 7.64201 16.8268H10.3405V20.424H10.3405ZM10.3405 15.5197H7.15246C6.77056 14.3088 6.5439 12.9996 6.48821 11.6535H10.3405V15.5197ZM10.3405 10.3465H6.48821C6.54385 9.00042 6.77051 7.69116 7.15246 6.48026H10.3405V10.3465ZM10.3405 5.17323H7.64205C7.86003 4.676 8.10663 4.20214 8.38099 3.75724C9.06501 2.64787 9.79612 1.93214 10.3406 1.57597V5.17323H10.3405ZM19.5669 6.48026C20.1952 7.66848 20.5685 8.97993 20.659 10.3465H16.8078C16.7566 9.01142 16.5495 7.70577 16.1993 6.48026H19.5669ZM17.8439 4.15023C18.1668 4.47314 18.4635 4.81522 18.7342 5.17328H15.7593C15.4684 4.42747 15.1209 3.72209 14.7196 3.07128C14.405 2.56103 14.067 2.10057 13.7192 1.70023C15.262 2.14995 16.6759 2.9823 17.8439 4.15023ZM11.6476 1.57597C12.192 1.93218 12.9231 2.64787 13.6072 3.75724C13.8815 4.20214 14.1281 4.676 14.3461 5.17323H11.6476V1.57597H11.6476ZM11.6476 6.48026H14.8356C15.2176 7.69121 15.4442 9.00051 15.4999 10.3465H11.6476V6.48026ZM15.4998 11.6535C15.4442 12.9996 15.2175 14.3088 14.8356 15.5197H11.6475V11.6535H15.4998ZM11.6476 20.424V16.8268H14.346C14.1281 17.324 13.8815 17.7979 13.6071 18.2428C12.9231 19.3522 12.192 20.0678 11.6476 20.424ZM17.8439 17.8498C16.6759 19.0177 15.2621 19.8501 13.7192 20.2998C14.067 19.8995 14.405 19.439 14.7196 18.9288C15.1209 18.278 15.4684 17.5726 15.7593 16.8268H18.7342C18.4636 17.1848 18.1668 17.5269 17.8439 17.8498ZM19.5669 15.5197H16.1993C16.5495 14.2942 16.7566 12.9886 16.8078 11.6535H20.6589C20.5685 13.0201 20.1951 14.3316 19.5669 15.5197Z" fill="#45A490"/>
</svg>
