<svg width="12" height="17" viewBox="0 0 12 17" fill="none" xmlns="http://www.w3.org/2000/svg">
<path d="M6.00046 0C2.76039 0 0.133789 2.79076 0.133789 6.23333C0.133789 9.5829 5.56366 16.6002 5.79486 16.8972C5.84552 16.9623 5.92092 17 6.00046 17C6.07999 17 6.15539 16.9623 6.20606 16.8972C6.43726 16.6002 11.8671 9.5829 11.8671 6.23333C11.8671 2.79076 9.24052 0 6.00046 0ZM6.00046 16.2664C4.99699 14.9356 0.667122 9.0304 0.667122 6.23333C0.670489 3.10519 3.05636 0.570244 6.00046 0.566667C8.94459 0.570244 11.3304 3.10519 11.3338 6.23333C11.3338 9.02983 7.00392 14.9353 6.00046 16.2664Z" fill="#45A490"/>
<path d="M9.63011 5.15899L6.16345 2.32566C6.06755 2.24724 5.93401 2.24724 5.83811 2.32566L2.37145 5.15899C2.25481 5.25451 2.23315 5.43244 2.32305 5.55636C2.37351 5.62592 2.45145 5.66669 2.53411 5.66672H3.33411V8.78339C3.33411 8.93986 3.45351 9.06672 3.60078 9.06672H8.40078C8.54805 9.06672 8.66745 8.93986 8.66745 8.78339V5.66672H9.46745C9.61471 5.66665 9.73405 5.53972 9.73398 5.38325C9.73395 5.29541 9.69558 5.21261 9.63011 5.15899ZM6.53411 8.50006H5.46745V6.80006H6.53411V8.50006ZM8.40078 5.10006C8.25351 5.10006 8.13411 5.22692 8.13411 5.38339V8.50006H7.06745V6.51672C7.06745 6.36025 6.94805 6.23339 6.80078 6.23339H5.20078C5.05351 6.23339 4.93411 6.36025 4.93411 6.51672V8.50006H3.86745V5.38339C3.86745 5.22692 3.74805 5.10006 3.60078 5.10006H3.31811L6.00078 2.90762L8.68345 5.10006H8.40078Z" fill="#45A490"/>
</svg>
