<svg width="17" height="13" viewBox="0 0 17 13" fill="none" xmlns="http://www.w3.org/2000/svg">
<path d="M13.7639 10.1641C13.6965 10.1641 13.6291 10.1393 13.5765 10.0892L10.4223 7.11383C10.3121 7.01021 10.3066 6.83548 10.4102 6.72469C10.5138 6.6128 10.6865 6.60784 10.7978 6.71256L13.952 9.68788C14.0622 9.79151 14.0676 9.96623 13.964 10.077C13.9098 10.1349 13.8374 10.1641 13.7639 10.1641Z" fill="#45A490"/>
<path d="M3.2353 10.1646C3.16239 10.1646 3.08948 10.1354 3.03521 10.0776C2.93161 9.96677 2.93709 9.79204 3.04727 9.68842L6.20257 6.7131C6.3133 6.60947 6.48707 6.61388 6.59013 6.72522C6.69373 6.83601 6.68825 7.01074 6.57807 7.11436L3.42277 10.0897C3.37015 10.1398 3.30272 10.1646 3.2353 10.1646Z" fill="#45A490"/>
<path d="M15.6296 12.9305H1.37044C0.615052 12.9305 0 12.3126 0 11.5526V2.15642C0 1.39633 0.615052 0.778442 1.37044 0.778442H15.6296C16.3849 0.778442 17 1.39633 17 2.15642V11.5526C17 12.3126 16.3849 12.9305 15.6296 12.9305ZM1.37044 1.32963C0.917097 1.32963 0.548175 1.70058 0.548175 2.15642V11.5526C0.548175 12.0084 0.917097 12.3793 1.37044 12.3793H15.6296C16.0829 12.3793 16.4518 12.0084 16.4518 11.5526V2.15642C16.4518 1.70058 16.0829 1.32963 15.6296 1.32963H1.37044Z" fill="#45A490"/>
<path d="M8.5004 8.23931C8.13587 8.23931 7.77133 8.1175 7.49395 7.87443L0.455388 1.70055C0.341368 1.60078 0.329308 1.42661 0.428528 1.31141C0.528844 1.19676 0.701519 1.18629 0.815539 1.28495L7.8541 7.45828C8.20439 7.76529 8.79642 7.76529 9.14615 7.45828L16.1759 1.29487C16.2894 1.19511 16.4621 1.20613 16.563 1.32133C16.6622 1.43653 16.6507 1.61015 16.5366 1.71047L9.50685 7.87387C9.22893 8.1175 8.86494 8.23931 8.5004 8.23931Z" fill="#45A490"/>
</svg>
