<svg width="14" height="14" viewBox="0 0 14 14" fill="none" xmlns="http://www.w3.org/2000/svg">
<path d="M0.247281 6.75014L3.47316 7.95414L4.72178 11.9697C4.80167 12.2268 5.11616 12.3219 5.3249 12.1512L7.12305 10.6853C7.31154 10.5318 7.58001 10.5241 7.77699 10.6671L11.0202 13.0218C11.2435 13.1841 11.5599 13.0617 11.6159 12.7919L13.9917 1.36364C14.0529 1.06889 13.7633 0.823004 13.4826 0.93155L0.243501 6.0388C-0.083212 6.1648 -0.0803654 6.62736 0.247281 6.75014ZM4.52055 7.31322L10.8251 3.43022C10.9384 3.36064 11.055 3.51385 10.9577 3.6041L5.7546 8.44063C5.57172 8.61087 5.45374 8.8387 5.42033 9.08599L5.24309 10.3995C5.21961 10.5748 4.97326 10.5922 4.92487 10.4225L4.24321 8.02736C4.16514 7.75417 4.27891 7.46236 4.52055 7.31322Z" fill="#E1E1E1"/>
</svg>
