<svg width="12" height="12" viewBox="0 0 12 12" fill="none" xmlns="http://www.w3.org/2000/svg">
<g clip-path="url(#clip0)">
<path d="M0.211955 5.78578L2.977 6.81778L4.04724 10.2597C4.11572 10.4801 4.38528 10.5616 4.5642 10.4153L6.10548 9.15882C6.26704 9.02718 6.49716 9.02062 6.666 9.14318L9.44592 11.1615C9.63732 11.3006 9.90848 11.1957 9.95648 10.9644L11.9929 1.16878C12.0453 0.916139 11.7971 0.70538 11.5565 0.79842L0.208715 5.17606C-0.0713246 5.28406 -0.0688846 5.68054 0.211955 5.78578ZM3.87476 6.26842L9.27868 2.94014C9.3758 2.8805 9.47572 3.01182 9.39232 3.08918L4.93252 7.23478C4.77576 7.3807 4.67464 7.57598 4.646 7.78794L4.49408 8.91378C4.47396 9.0641 4.2628 9.07902 4.22132 8.93354L3.63704 6.88054C3.57012 6.64638 3.66764 6.39626 3.87476 6.26842Z" fill="#333333"/>
</g>
<defs>
<clipPath id="clip0">
<rect width="12" height="12" fill="white"/>
</clipPath>
</defs>
</svg>
