<svg width="12" height="14" viewBox="0 0 12 14" fill="none" xmlns="http://www.w3.org/2000/svg">
<path d="M11.5389 3.68376C11.3202 2.90282 10.887 2.28595 10.2527 1.84954C9.45205 1.2972 8.53111 1.10251 7.73596 0.983293C6.63564 0.819231 5.63924 0.796262 4.68877 0.9122C3.79846 1.02157 3.12799 1.19548 2.51658 1.47657C1.31783 2.02782 0.598144 2.91923 0.378301 4.12564C0.271113 4.71189 0.198926 5.24126 0.157363 5.74657C0.0611132 6.9147 0.148613 7.94829 0.424238 8.90642C0.6933 9.84048 1.16252 10.5077 1.85924 10.9463C2.03643 11.0578 2.26393 11.1388 2.48377 11.2164C2.60846 11.2602 2.72986 11.3028 2.82939 11.3499C2.92127 11.3925 2.92127 11.4002 2.92018 11.4767C2.91252 12.1406 2.92018 13.4422 2.92018 13.4422L2.92236 13.72H3.42111L3.50205 13.6413C3.55564 13.591 4.79158 12.3966 5.23236 11.9153L5.29252 11.8486C5.36799 11.7611 5.36799 11.7611 5.44564 11.76C6.04064 11.748 6.64877 11.725 7.25252 11.6922C7.98424 11.6528 8.83189 11.5817 9.63033 11.2492C10.361 10.9441 10.8947 10.4595 11.2152 9.80986C11.5499 9.13173 11.7478 8.39783 11.8222 7.56548C11.9535 6.10204 11.8605 4.8322 11.5389 3.68376ZM8.90736 9.37454C8.72361 9.67314 8.45017 9.88095 8.12752 10.0155C7.89127 10.1139 7.65064 10.0931 7.41768 9.9947C5.46752 9.16892 3.93736 7.86845 2.92674 5.99814C2.71783 5.61314 2.57346 5.19314 2.40721 4.78626C2.3733 4.70314 2.37549 4.6047 2.36018 4.51282C2.37439 3.85548 2.87861 3.4847 3.3883 3.37314C3.58299 3.32939 3.7558 3.39829 3.90018 3.5372C4.30049 3.91783 4.61658 4.36079 4.85502 4.85736C4.95893 5.07501 4.91189 5.26751 4.73471 5.42939C4.69752 5.46329 4.65924 5.49392 4.61877 5.52454C4.21408 5.82861 4.15502 6.05939 4.37049 6.51767C4.73799 7.29751 5.3483 7.82142 6.13689 8.14626C6.34471 8.23158 6.54049 8.18892 6.69908 8.02048C6.72096 7.99861 6.74502 7.97673 6.76033 7.95048C7.07096 7.43204 7.52268 7.48345 7.93939 7.77876C8.21283 7.97345 8.47861 8.17908 8.74877 8.37704C9.16111 8.68001 9.15783 8.96439 8.90736 9.37454ZM6.32064 4.20001C6.22877 4.20001 6.13689 4.20767 6.04611 4.22298C5.89299 4.24814 5.74971 4.14533 5.72346 3.9922C5.6983 3.84017 5.80111 3.69579 5.95424 3.67064C6.07455 3.64986 6.19814 3.64001 6.32064 3.64001C7.53361 3.64001 8.52017 4.62657 8.52017 5.83954C8.52017 5.96314 8.51033 6.08673 8.48955 6.20595C8.46658 6.34267 8.34846 6.44001 8.21392 6.44001C8.19861 6.44001 8.1833 6.43892 8.16689 6.43564C8.01486 6.41048 7.91205 6.26611 7.93721 6.11407C7.95252 6.02439 7.96017 5.93251 7.96017 5.83954C7.96017 4.93611 7.22408 4.20001 6.32064 4.20001ZM7.68018 5.88001C7.68018 6.03423 7.55439 6.16001 7.40018 6.16001C7.24596 6.16001 7.12018 6.03423 7.12018 5.88001C7.12018 5.41736 6.74283 5.04001 6.28018 5.04001C6.12596 5.04001 6.00018 4.91423 6.00018 4.76001C6.00018 4.60579 6.12596 4.48001 6.28018 4.48001C7.05236 4.48001 7.68018 5.10782 7.68018 5.88001ZM9.27924 6.50236C9.24971 6.63251 9.13377 6.72001 9.0058 6.72001C8.98502 6.72001 8.96424 6.71782 8.94346 6.71345C8.79252 6.67845 8.69846 6.52861 8.73236 6.37767C8.77283 6.19939 8.79361 6.01454 8.79361 5.82861C8.79361 4.46798 7.68564 3.36001 6.32502 3.36001C6.13908 3.36001 5.95424 3.38079 5.77596 3.42126C5.62502 3.45626 5.47518 3.36111 5.44127 3.21017C5.40627 3.05923 5.50143 2.90939 5.65236 2.87548C5.87111 2.82517 6.09752 2.80001 6.32502 2.80001C7.99518 2.80001 9.35361 4.15845 9.35361 5.82861C9.35361 6.05611 9.32846 6.28251 9.27924 6.50236Z" fill="#E1E1E1"/>
</svg>
