<svg width="12" height="12" viewBox="0 0 12 12" fill="none" xmlns="http://www.w3.org/2000/svg">
<path d="M10.7479 3.15755C10.5604 2.48817 10.1892 1.95942 9.64543 1.58536C8.95918 1.11192 8.1698 0.945045 7.48824 0.842858C6.54512 0.702233 5.69105 0.682545 4.87637 0.78192C4.11324 0.87567 3.53855 1.02473 3.01449 1.26567C1.98699 1.73817 1.37012 2.50223 1.18168 3.5363C1.0898 4.0388 1.02793 4.49255 0.992305 4.92567C0.909805 5.92692 0.984805 6.81286 1.22105 7.63411C1.45168 8.43473 1.85387 9.00661 2.45105 9.38255C2.60293 9.47817 2.79793 9.54755 2.98637 9.61411C3.09324 9.65161 3.1973 9.68817 3.28262 9.72848C3.36137 9.76505 3.36137 9.77161 3.36043 9.83723C3.35387 10.4063 3.36043 11.5219 3.36043 11.5219L3.3623 11.76H3.7898L3.85918 11.6925C3.90512 11.6494 4.96449 10.6257 5.3423 10.2132L5.39387 10.156C5.45855 10.081 5.45855 10.081 5.52512 10.08C6.03512 10.0697 6.55637 10.05 7.07387 10.0219C7.70105 9.98817 8.42762 9.92723 9.11199 9.64223C9.73824 9.38067 10.1957 8.96536 10.4704 8.40848C10.7573 7.82723 10.927 7.19817 10.9907 6.48473C11.1032 5.23036 11.0236 4.14192 10.7479 3.15755ZM8.4923 8.03536C8.3348 8.2913 8.10043 8.46942 7.82387 8.58473C7.62137 8.66911 7.41512 8.6513 7.21543 8.56692C5.54387 7.85911 4.2323 6.74442 3.36605 5.1413C3.18699 4.8113 3.06324 4.4513 2.92074 4.10255C2.89168 4.0313 2.89355 3.94692 2.88043 3.86817C2.89262 3.30473 3.3248 2.98692 3.76168 2.8913C3.92855 2.8538 4.07668 2.91286 4.20043 3.03192C4.54355 3.35817 4.81449 3.73786 5.01887 4.16348C5.10793 4.35005 5.06762 4.51505 4.91574 4.6538C4.88387 4.68286 4.85105 4.70911 4.81637 4.73536C4.46949 4.99598 4.41887 5.1938 4.60355 5.58661C4.91855 6.25505 5.44168 6.70411 6.11762 6.98255C6.29574 7.05567 6.46355 7.01911 6.59949 6.87473C6.61824 6.85598 6.63887 6.83723 6.65199 6.81473C6.91824 6.37036 7.30543 6.41442 7.66262 6.66755C7.89699 6.83442 8.1248 7.01067 8.35637 7.18036C8.7098 7.44005 8.70699 7.6838 8.4923 8.03536ZM6.27512 3.60005C6.19637 3.60005 6.11762 3.60661 6.0398 3.61973C5.90855 3.6413 5.78574 3.55317 5.76324 3.42192C5.74168 3.29161 5.8298 3.16786 5.96105 3.1463C6.06418 3.12848 6.17012 3.12005 6.27512 3.12005C7.3148 3.12005 8.16043 3.96567 8.16043 5.00536C8.16043 5.1113 8.15199 5.21723 8.13418 5.31942C8.11449 5.43661 8.01324 5.52005 7.89793 5.52005C7.8848 5.52005 7.87168 5.51911 7.85762 5.5163C7.7273 5.49473 7.63918 5.37098 7.66074 5.24067C7.67387 5.1638 7.68043 5.08505 7.68043 5.00536C7.68043 4.23098 7.04949 3.60005 6.27512 3.60005ZM7.44043 5.04005C7.44043 5.17223 7.33262 5.28005 7.20043 5.28005C7.06824 5.28005 6.96043 5.17223 6.96043 5.04005C6.96043 4.64348 6.63699 4.32005 6.24043 4.32005C6.10824 4.32005 6.00043 4.21223 6.00043 4.08005C6.00043 3.94786 6.10824 3.84005 6.24043 3.84005C6.9023 3.84005 7.44043 4.37817 7.44043 5.04005ZM8.81105 5.57348C8.78574 5.68505 8.68637 5.76005 8.57668 5.76005C8.55887 5.76005 8.54105 5.75817 8.52324 5.75442C8.39387 5.72442 8.31324 5.59598 8.3423 5.46661C8.37699 5.3138 8.3948 5.15536 8.3948 4.99598C8.3948 3.82973 7.44512 2.88005 6.27887 2.88005C6.11949 2.88005 5.96105 2.89786 5.80824 2.93255C5.67887 2.96255 5.55043 2.88098 5.52137 2.75161C5.49137 2.62223 5.57293 2.4938 5.7023 2.46473C5.8898 2.42161 6.08387 2.40005 6.27887 2.40005C7.71043 2.40005 8.8748 3.56442 8.8748 4.99598C8.8748 5.19098 8.85324 5.38505 8.81105 5.57348Z" fill="#333333"/>
</svg>
