<svg width="14" height="14" viewBox="0 0 14 14" fill="none" xmlns="http://www.w3.org/2000/svg">
<path d="M14 6.81971C14 10.5862 10.9233 13.6394 7.12724 13.6394C5.92216 13.6394 4.79002 13.3314 3.80504 12.7909L0 14L1.24056 10.341C0.614756 9.31342 0.254333 8.10818 0.254333 6.81971C0.254333 3.05324 3.33138 0 7.12724 0C10.9236 0 14 3.05324 14 6.81971ZM7.12724 1.08609C3.94084 1.08609 1.34898 3.6582 1.34898 6.81971C1.34898 8.07427 1.75793 9.23611 2.44969 10.1813L1.72776 12.3107L3.94831 11.6049C4.86064 12.204 5.95358 12.5533 7.1274 12.5533C10.3133 12.5533 12.9057 9.98153 12.9057 6.82002C12.9057 3.65851 10.3135 1.08609 7.12724 1.08609ZM10.5978 8.39036C10.5554 8.32082 10.4432 8.27882 10.2749 8.19529C10.1063 8.11176 9.2778 7.70716 9.1238 7.65162C8.96933 7.59593 8.85671 7.56793 8.74456 7.73516C8.6324 7.90253 8.30947 8.27882 8.211 8.39036C8.11269 8.5022 8.01453 8.5162 7.84591 8.43251C7.6776 8.34898 7.13487 8.17227 6.49133 7.60293C5.9906 7.15991 5.65242 6.61298 5.55411 6.44544C5.45596 6.27822 5.54384 6.18784 5.628 6.10462C5.70391 6.02964 5.79662 5.9094 5.88078 5.81187C5.96524 5.71418 5.99324 5.64464 6.04909 5.53296C6.10556 5.42142 6.0774 5.32389 6.03509 5.24004C5.99309 5.15651 5.65584 4.33393 5.51553 3.99918C5.37522 3.66473 5.23507 3.72042 5.1366 3.72042C5.03844 3.72042 4.92598 3.70642 4.81367 3.70642C4.70136 3.70642 4.51873 3.74827 4.36427 3.91549C4.20996 4.08287 3.77487 4.48731 3.77487 5.30973C3.77487 6.13231 4.37827 6.92704 4.46273 7.03842C4.54689 7.1498 5.62784 8.89264 7.34051 9.562C9.05333 10.231 9.05333 10.0078 9.36227 9.97982C9.67089 9.95198 10.3588 9.57553 10.4997 9.1854C10.6397 8.79464 10.6397 8.46004 10.5978 8.39036Z" fill="#E1E1E1"/>
</svg>
