<svg width="9" height="7" viewBox="0 0 9 7" fill="none" xmlns="http://www.w3.org/2000/svg">
<path d="M8.76516 3.33864L4.5626 0.0701877C4.50262 0.0234614 4.43345 0 4.35527 0C4.27719 0 4.20811 0.0234614 4.148 0.0701877L3.69705 0.42088C3.63694 0.467631 3.60693 0.521335 3.60693 0.582211C3.60693 0.643088 3.63694 0.696792 3.69705 0.743542L7.24122 3.50005L3.69708 6.25663C3.63697 6.30338 3.60697 6.35718 3.60697 6.41789C3.60697 6.47874 3.63697 6.53254 3.69708 6.57929L4.14803 6.92989C4.20811 6.97669 4.27719 7 4.3553 7C4.43357 7 4.50265 6.97664 4.5626 6.92989L8.76516 3.6614C8.82523 3.61468 8.85521 3.56085 8.85521 3.50007C8.85521 3.4393 8.82523 3.38549 8.76516 3.33864Z" fill="#333333"/>
<path d="M5.39244 3.50007C5.39244 3.4393 5.36253 3.38547 5.3022 3.33864L1.09993 0.0701877C1.03985 0.0234614 0.970681 0 0.892537 0C0.814393 0 0.745188 0.0234614 0.685112 0.0701877L0.234253 0.420905C0.17405 0.467656 0.144043 0.521359 0.144043 0.582236C0.144043 0.643113 0.17405 0.696816 0.234253 0.743567L3.77833 3.50007L0.234253 6.25663C0.17405 6.30338 0.144043 6.35718 0.144043 6.41789C0.144043 6.47874 0.17405 6.53254 0.234253 6.57929L0.68508 6.92989C0.745188 6.97669 0.814362 7 0.892506 7C0.97065 7 1.03982 6.97664 1.09993 6.92989L5.3022 3.6614C5.36253 3.61468 5.39244 3.56085 5.39244 3.50007Z" fill="#333333"/>
</svg>
