<svg width="64" height="64" viewBox="0 0 64 64" fill="none" xmlns="http://www.w3.org/2000/svg">
<g clip-path="url(#clip0)">
<path d="M28.2593 8.14739L27.71 11.3549C27.6109 11.9355 28.0015 12.4868 28.5821 12.5859C28.8126 12.6254 29.0494 12.5878 29.2569 12.4789L32.1368 10.9658L35.0167 12.4789C35.5382 12.7534 36.1832 12.5527 36.4576 12.0312C36.5665 11.8237 36.6041 11.5859 36.5645 11.3549L36.0142 8.14739L38.3438 5.87639C38.7657 5.46525 38.7745 4.78996 38.3638 4.36808C38.1998 4.19962 37.9854 4.09025 37.753 4.05656L34.5328 3.58927L33.0948 0.671781C32.7838 0.143459 32.1031 -0.0328115 31.5743 0.278713C31.4122 0.373928 31.2769 0.509671 31.1812 0.671781L29.7413 3.58927L26.5206 4.05656C25.9375 4.13957 25.5323 4.67961 25.6153 5.2631C25.6485 5.4965 25.7583 5.71281 25.9278 5.87736L28.2593 8.14739ZM30.606 5.62053C30.9537 5.56975 31.2545 5.351 31.4092 5.03556L32.1412 3.55411L32.8716 5.03556C33.0269 5.35148 33.3282 5.56975 33.6758 5.62053L35.3111 5.85734L34.1241 7.01018C33.8731 7.2553 33.7584 7.60833 33.8179 7.95403L34.0972 9.58392L32.6339 8.8139C32.3228 8.65179 31.9517 8.65179 31.6407 8.8139L30.1783 9.58392L30.4566 7.95403C30.5162 7.60833 30.4019 7.2553 30.1504 7.01018L28.9664 5.85588L30.606 5.62053Z" fill="white"/>
<path d="M38.3551 56.2593C38.2301 55.8731 37.8961 55.5914 37.4942 55.5328L34.274 55.0655L32.8341 52.148C32.523 51.6197 31.8424 51.4434 31.3135 51.7549C31.1514 51.8506 31.0162 51.9859 30.9205 52.148L29.4815 55.0655L26.2613 55.5328C25.6783 55.6173 25.274 56.1588 25.3589 56.7418C25.3926 56.9742 25.502 57.1885 25.67 57.3526L27.9996 59.6246L27.4493 62.8311C27.3497 63.4117 27.7398 63.963 28.3204 64.0626C28.5518 64.1021 28.7896 64.0645 28.9971 63.9552L31.877 62.442L34.7574 63.9552C35.2789 64.2291 35.9239 64.0274 36.1973 63.5059C36.3057 63.2984 36.3433 63.0616 36.3038 62.8311L35.7545 59.6246L38.0875 57.358C38.3795 57.0728 38.4835 56.6466 38.3551 56.2593ZM33.8643 58.4884C33.6124 58.733 33.4976 59.0865 33.5582 59.4327L33.8365 61.0616L32.3741 60.2926C32.0635 60.129 31.692 60.129 31.3809 60.2926L29.9175 61.0616L30.1973 59.4327C30.2564 59.0865 30.1422 58.734 29.8907 58.4884L28.7056 57.3336L30.3423 57.0968C30.69 57.0465 30.9913 56.8277 31.1465 56.5118L31.877 55.0303L32.609 56.5118C32.7637 56.8272 33.0645 57.046 33.4122 57.0968L35.0484 57.3336L33.8643 58.4884Z" fill="white"/>
<path d="M10.0219 15.5937L9.47114 18.8012C9.37202 19.3818 9.76167 19.9336 10.3427 20.0327C10.5737 20.0727 10.8115 20.0346 11.019 19.9257L13.8989 18.4121L16.7793 19.9257C17.3008 20.1997 17.9453 19.9995 18.2197 19.478C18.3286 19.2705 18.3667 19.0327 18.3266 18.8012L17.7773 15.5937L20.1069 13.3227C20.5293 12.912 20.5381 12.2363 20.1269 11.8144C19.9629 11.6459 19.7475 11.5366 19.5151 11.5029L16.2959 11.0361L14.8545 8.11857C14.5429 7.59025 13.8623 7.41495 13.3339 7.72648C13.1723 7.82218 13.0376 7.95695 12.9423 8.11857L11.5019 11.0361L8.28266 11.5029C7.69965 11.5878 7.29584 12.1288 7.38031 12.7118C7.41449 12.9443 7.52386 13.1591 7.69183 13.3227L10.0219 15.5937ZM12.3686 13.0668C12.7163 13.016 13.0166 12.7978 13.1718 12.4824L13.9033 11.0009L14.6352 12.4833C14.7905 12.7983 15.0908 13.0165 15.4384 13.0668L17.0737 13.3036L15.8896 14.4579C15.6382 14.7026 15.5229 15.0561 15.5825 15.4018L15.8618 17.0317L14.3984 16.2626C14.0879 16.0996 13.7168 16.0996 13.4062 16.2626L11.9428 17.0317L12.2221 15.4018C12.2817 15.0561 12.1665 14.7031 11.915 14.4579L10.728 13.3036L12.3686 13.0668Z" fill="white"/>
<path d="M46.0429 51.983L45.4926 55.189C45.3925 55.7696 45.7821 56.3219 46.3627 56.422C46.5941 56.4615 46.8324 56.4239 47.0404 56.3145L49.9203 54.7999L52.8007 56.3145C53.3217 56.589 53.9667 56.3888 54.2411 55.8673C54.3505 55.6593 54.3881 55.421 54.3485 55.189L53.7987 51.983L56.1283 49.712C56.5507 49.3008 56.5595 48.6255 56.1484 48.2037C55.9848 48.0352 55.7699 47.9258 55.5375 47.8921L52.3173 47.4239L50.8773 44.5064C50.6161 43.9781 49.9765 43.7618 49.4486 44.0225C49.2387 44.1265 49.0683 44.2964 48.9647 44.5064L47.5238 47.4239L44.3046 47.8921C43.7216 47.98 43.3207 48.5235 43.4086 49.1055C43.4428 49.3331 43.5497 49.5435 43.7133 49.7051L46.0429 51.983ZM48.3895 49.4547C48.7372 49.4044 49.0375 49.1861 49.1928 48.8712L49.9247 47.3887L50.6566 48.8712C50.8119 49.1861 51.1122 49.4044 51.4599 49.4547L53.0961 49.6924L51.9076 50.8511C51.6562 51.0963 51.5414 51.4493 51.6005 51.795L51.8798 53.4249L50.4174 52.6558C50.1068 52.4923 49.7352 52.4923 49.4242 52.6558L47.9608 53.4249L48.2406 51.795C48.2997 51.4498 48.185 51.0972 47.9345 50.8521L46.7504 49.6978L48.3895 49.4547Z" fill="white"/>
<path d="M2.65921 34.0239L2.10941 37.2305C2.01028 37.8111 2.40091 38.3623 2.98148 38.4615C3.21195 38.501 3.44925 38.4634 3.65629 38.355L6.53618 36.8413L9.41656 38.355C9.93804 38.6289 10.5826 38.4283 10.857 37.9073C10.9659 37.6993 11.0035 37.4619 10.9639 37.2305L10.4136 34.0239L12.7432 31.752C13.1651 31.3408 13.1744 30.6655 12.7632 30.2437C12.5997 30.0757 12.3848 29.9658 12.1524 29.9321L8.93218 29.4648L7.49419 26.5474C7.18315 26.019 6.50249 25.8433 5.97368 26.1543C5.81157 26.25 5.67631 26.3852 5.58061 26.5474L4.14066 29.4648L0.920436 29.9321C0.33645 30.0132 -0.070778 30.5518 0.0102769 31.1353C0.0429919 31.3726 0.154809 31.5913 0.327173 31.7573L2.65921 34.0239ZM5.0059 31.4961C5.35356 31.4453 5.65385 31.2266 5.80912 30.9116L6.54057 29.4297L7.27153 30.9116C7.42681 31.2271 7.72759 31.4458 8.07573 31.4961L9.71197 31.7329L8.52349 32.8882C8.27251 33.1333 8.15825 33.4863 8.21734 33.8321L8.49712 35.461L7.03325 34.6919C6.7227 34.5283 6.35112 34.5283 6.04008 34.6919L4.57767 35.461L4.85648 33.8321C4.91703 33.4863 4.80229 33.1328 4.55033 32.8882L3.36625 31.7329L5.0059 31.4961Z" fill="white"/>
<path d="M55.0741 29.4565L51.8549 29.9248C51.2719 30.0088 50.8671 30.5498 50.9516 31.1328C50.9848 31.3657 51.0946 31.5806 51.2626 31.7446L53.5922 34.0156L53.0429 37.2232C52.9438 37.8037 53.3334 38.355 53.9145 38.4546C54.1454 38.4942 54.3832 38.4566 54.5907 38.3472L57.4706 36.8325L60.351 38.3472C60.8725 38.6216 61.517 38.4209 61.7915 37.8994C61.9003 37.6919 61.9384 37.4541 61.8984 37.2232L61.3481 34.0156L63.6777 31.7446C64.0996 31.3335 64.1088 30.6582 63.6977 30.2363C63.5341 30.0679 63.3193 29.9585 63.0869 29.9248L59.8676 29.4565L58.4277 26.539C58.1664 26.0107 57.5268 25.7944 56.999 26.0552C56.789 26.1592 56.6186 26.3291 56.5151 26.539L55.0741 29.4565ZM56.7392 30.9038L57.4711 29.4214L58.2026 30.9038C58.3579 31.2187 58.6586 31.437 59.0058 31.4873L60.642 31.7256L59.4584 32.8784C59.2065 33.1235 59.0913 33.4771 59.1508 33.8237L59.4306 35.4536L57.9672 34.6831C57.6567 34.52 57.2856 34.52 56.975 34.6831L55.5117 35.4536L55.7909 33.8237C55.85 33.4775 55.7353 33.1245 55.4838 32.8794L54.3017 31.7251L55.9384 31.4873C56.2846 31.4365 56.5844 31.2183 56.7392 30.9038Z" fill="white"/>
<path d="M20.1944 48.6289C20.069 48.2427 19.7355 47.9615 19.3336 47.9029L16.1144 47.4375L14.6744 44.52C14.3629 43.9917 13.6822 43.8155 13.1539 44.127C12.9918 44.2227 12.856 44.3579 12.7603 44.52L11.3194 47.4375L8.09919 47.9058C7.51618 47.9912 7.11286 48.5328 7.19782 49.1158C7.23151 49.3477 7.34138 49.5621 7.50935 49.7256L9.83894 51.9966L9.28719 55.2012C9.18806 55.7818 9.5782 56.3331 10.1588 56.4327C10.3897 56.4722 10.6275 56.4346 10.835 56.3253L13.7149 54.8106L16.5953 56.3253C17.1173 56.5982 17.7618 56.3961 18.0348 55.8741C18.1427 55.6671 18.1798 55.4307 18.1407 55.2012L17.5914 51.9932L19.921 49.7227C20.213 49.44 20.319 49.0157 20.1944 48.6289ZM15.7037 50.8575C15.4522 51.1026 15.337 51.4556 15.3961 51.8013L15.6759 53.4312L14.2125 52.6646C13.9015 52.5025 13.5309 52.5025 13.2203 52.6646L11.7569 53.4346L12.0362 51.8047C12.0953 51.4585 11.9806 51.1055 11.7291 50.8604L10.545 49.7066L12.1822 49.4688C12.5299 49.418 12.8302 49.1997 12.9854 48.8848L13.7164 47.4024L14.4493 48.8848C14.6046 49.1997 14.9044 49.4175 15.2511 49.4688L16.8878 49.7066L15.7037 50.8575Z" fill="white"/>
<path d="M46.2267 15.9701L45.6765 19.1777C45.5768 19.7587 45.967 20.31 46.5475 20.4096C46.779 20.4492 47.0163 20.4116 47.2243 20.3022L50.1042 18.7875L52.9841 20.3022C53.5056 20.5766 54.1506 20.3759 54.4245 19.8544C54.5339 19.6469 54.5715 19.4091 54.5319 19.1782L53.9817 15.9706L56.3112 13.6996C56.7331 13.2885 56.7419 12.6132 56.3308 12.1908C56.1667 12.0229 55.9519 11.9135 55.719 11.8798L52.4997 11.4115L51.0598 8.49502C50.7487 7.9667 50.0681 7.79043 49.5393 8.10196C49.3771 8.19717 49.2419 8.33291 49.1462 8.49502L47.7072 11.4115L44.487 11.8798C43.904 11.9648 43.5002 12.5063 43.5856 13.0893C43.6193 13.3207 43.7287 13.5351 43.8962 13.6982L46.2267 15.9701ZM48.5734 13.4423C48.9216 13.392 49.2224 13.1737 49.3776 12.8588L50.1086 11.3774L50.84 12.8588C50.9958 13.1737 51.2961 13.392 51.6433 13.4423L53.28 13.6801L52.0959 14.8334C51.844 15.0785 51.7292 15.4321 51.7888 15.7783L52.0617 17.4106L50.5993 16.6401C50.2883 16.477 49.9172 16.477 49.6062 16.6401L48.1428 17.4106L48.4221 15.7807C48.4816 15.4345 48.3669 15.0815 48.1159 14.8364L46.9318 13.6821L48.5734 13.4423Z" fill="white"/>
</g>
<defs>
<clipPath id="clip0">
<rect width="64" height="64" fill="white"/>
</clipPath>
</defs>
</svg>
