<svg width="64" height="64" viewBox="0 0 64 64" fill="none" xmlns="http://www.w3.org/2000/svg">
<path d="M14.9336 38.5941H29.8669V27.9275H14.9336V38.5941ZM17.0669 36.4608V33.2608H27.7336V36.4608H17.0669ZM27.7336 30.0608V31.1275H17.0669V30.0608H27.7336Z" fill="white"/>
<path d="M14.9336 42.8608V55.6608H29.8669V42.8608H14.9336ZM21.3336 44.9941V48.1941H17.0669V44.9941H21.3336ZM17.0669 50.3275H21.3336V53.5275H17.0669V50.3275ZM23.4669 53.5275V50.3275H27.7336V53.5275H23.4669ZM27.7336 48.1941H23.4669V44.9941H27.7336V48.1941Z" fill="white"/>
<path d="M34.1328 38.5941H49.0661V27.9275H34.1328V38.5941ZM36.2661 36.4608V35.3941H46.9328V36.4608H36.2661ZM46.9328 30.0608V33.2608H36.2661V30.0608H46.9328Z" fill="white"/>
<path d="M62.9333 51.3941C62.3435 51.3941 61.8667 51.872 61.8667 52.4608V53.5275H60.8V52.4608C60.8 51.872 60.3232 51.3941 59.7333 51.3941C59.1435 51.3941 58.6667 51.872 58.6667 52.4608V53.5275H57.6V31.9765C58.1557 32.2261 58.7445 32.3637 59.3344 32.3637C60.4789 32.3637 61.616 31.8987 62.4565 30.9941C63.2672 30.1216 63.6779 28.9408 63.584 27.7536C63.4891 26.5675 62.8971 25.4656 61.9605 24.7317L34.9035 3.56799L32 0.872528L29.1659 3.50933L2.04053 24.7317C1.10293 25.4656 0.510933 26.5675 0.417067 27.7536C0.3232 28.9408 0.733867 30.1216 1.54453 30.9941C2.81813 32.3659 4.76693 32.7115 6.40107 31.9776V53.5285H5.33333V52.4619C5.33333 51.8731 4.85653 51.3952 4.26667 51.3952C3.6768 51.3952 3.2 51.8731 3.2 52.4619V53.5285H2.13333V52.4619C2.13333 51.8731 1.65653 51.3952 1.06667 51.3952C0.4768 51.3952 0 51.8731 0 52.4619V62.0619C0 62.6507 0.4768 63.1285 1.06667 63.1285C1.65653 63.1285 2.13333 62.6507 2.13333 62.0619V60.9952H3.2V62.0619C3.2 62.6507 3.6768 63.1285 4.26667 63.1285C4.85653 63.1285 5.33333 62.6507 5.33333 62.0619V60.9952H6.4V63.1285H34.1333H49.0667H57.6V60.9952H58.6667V62.0619C58.6667 62.6507 59.1435 63.1285 59.7333 63.1285C60.3232 63.1285 60.8 62.6507 60.8 62.0619V60.9952H61.8667V62.0619C61.8667 62.6507 62.3435 63.1285 62.9333 63.1285C63.5232 63.1285 64 62.6507 64 62.0619V52.4619C64 51.872 63.5232 51.3941 62.9333 51.3941ZM3.10613 29.5413C2.69547 29.0987 2.496 28.5237 2.544 27.9221C2.592 27.3205 2.87893 26.784 3.35573 26.4117L30.5493 5.13173L32.0011 3.78239L33.52 5.18933L60.6453 26.4117C61.1211 26.784 61.4091 27.3205 61.4571 27.9221C61.5051 28.5237 61.3045 29.0997 60.8949 29.5413C60.1397 30.3541 58.9099 30.4565 58.0299 29.7792L57.6 29.4485L32 9.71519L6.816 29.1285L6.81493 29.1296L5.9712 29.7792C5.09013 30.4565 3.86133 30.3541 3.10613 29.5413ZM2.13333 58.8608V55.6608H3.2V58.8608H2.13333ZM5.33333 58.8608V55.6608H6.4V58.8608H5.33333ZM36.2667 60.9941V44.9941H46.9333V60.9941H36.2667ZM55.4667 60.9941H49.0667V42.8608H34.1333V60.9941H8.53333V30.4971L32 12.4075L55.4667 30.4971V60.9941ZM57.6 58.8608V55.6608H58.6667V58.8608H57.6ZM60.8 58.8608V55.6608H61.8667V58.8608H60.8Z" fill="white"/>
</svg>
