<svg width="60" height="60" viewBox="0 0 60 60" fill="none" xmlns="http://www.w3.org/2000/svg">
<path d="M51.371 3.146C50.912 2.961 40.012 -1.306 31.531 3.191C24.811 6.758 13.015 4.082 10 3.308V1C10 0.447 9.553 0 9 0C8.447 0 8 0.447 8 1V4C8 4.014 8.007 4.026 8.008 4.04C8.008 4.052 8 4.062 8 4.074V33V34.074V59C8 59.553 8.447 60 9 60C9.553 60 10 59.553 10 59V35.375C12.273 35.942 17.227 37.007 22.368 37.007C25.925 37.007 29.568 36.496 32.469 34.958C40.121 30.897 50.525 34.962 50.629 35.003C50.938 35.127 51.286 35.089 51.561 34.901C51.835 34.716 52 34.406 52 34.074V4.074C52 3.665 51.751 3.298 51.371 3.146ZM50 32.665C46.74 31.627 38.354 29.569 31.531 33.19C24.812 36.756 13.02 34.082 10 33.308V33V5.375C13.853 6.336 25.381 8.718 32.469 4.958C39.035 1.475 47.627 3.973 50 4.777V32.665Z" fill="white"/>
</svg>
