<svg width="64" height="64" viewBox="0 0 64 64" fill="none" xmlns="http://www.w3.org/2000/svg">
<g clip-path="url(#clip0)">
<path d="M16.6816 51.0835C15.9536 50.5993 15.1227 50.2919 14.2549 50.1853C15.9195 48.8751 16.9431 46.9145 17.0667 44.7997C17.0667 37.7469 13.0059 36.2664 9.60001 36.2664C6.19414 36.2664 2.13334 37.7469 2.13334 44.7997C2.25721 46.9147 3.28121 48.8752 4.94614 50.1853C2.11867 50.5337 -0.00412731 52.9375 6.02563e-06 55.7864V62.9331C6.02563e-06 63.5221 0.477606 63.9997 1.06667 63.9997H18.1333C18.7224 63.9997 19.2 63.5221 19.2 62.9331V55.7864C19.2012 53.8959 18.2557 52.1304 16.6816 51.0835ZM4.32214 43.6712C4.61121 40.0957 6.29334 38.3997 9.60001 38.3997C12.6272 38.3997 14.2933 39.8312 14.7701 42.8179L11.216 40.6845C10.7108 40.3815 10.0556 40.5453 9.75254 41.0505C9.71254 41.1172 9.68001 41.1879 9.65547 41.2616C9.11574 42.8808 6.20161 43.4931 4.32214 43.6712ZM4.41494 45.8109C6.24107 45.6605 9.53494 45.108 11.0709 43.0856L14.8832 45.3736C14.4555 47.9859 11.2373 50.1331 9.60001 50.1331C7.22094 49.7279 5.24187 48.0781 4.41494 45.8109ZM10.4811 56.2749L9.60001 57.1581L8.71894 56.276L9.60001 54.0712L10.4811 56.2749ZM17.0667 61.8664H2.13334V55.7864C2.13334 53.8424 3.70934 52.2664 5.65334 52.2664H8.02134L6.47574 56.1373C6.31774 56.5335 6.41081 56.9857 6.71254 57.2872L8.84587 59.4205C9.26241 59.8369 9.93761 59.8369 10.3541 59.4205L12.4875 57.2872C12.7892 56.9857 12.8823 56.5335 12.7243 56.1373L11.1755 52.2664H13.5467C15.4907 52.2664 17.0667 53.8424 17.0667 55.7864V61.8664Z" fill="white"/>
<path d="M39.082 51.0835C38.354 50.5993 37.5231 50.2919 36.6553 50.1853C38.3199 48.8751 39.3435 46.9145 39.4671 44.7997C39.4671 37.7469 35.4063 36.2664 32.0004 36.2664C28.5945 36.2664 24.5337 37.7469 24.5337 44.7997C24.6576 46.9147 25.6816 48.8752 27.3465 50.1853C24.5191 50.5337 22.3963 52.9375 22.4004 55.7864V62.9331C22.4004 63.5221 22.878 63.9997 23.4671 63.9997H40.5337C41.1228 63.9997 41.6004 63.5221 41.6004 62.9331V55.7864C41.6016 53.8959 40.6561 52.1304 39.082 51.0835ZM26.7225 43.6712C27.0116 40.0957 28.6937 38.3997 32.0004 38.3997C35.0276 38.3997 36.6937 39.8312 37.1705 42.8179L33.6164 40.6845C33.1112 40.3815 32.456 40.5453 32.1529 41.0505C32.1129 41.1172 32.0804 41.1879 32.0559 41.2616C31.5161 42.8808 28.602 43.4931 26.7225 43.6712ZM26.8153 45.8109C28.6415 45.6605 31.9353 45.108 33.4713 43.0856L37.2836 45.3736C36.8559 47.9859 33.6377 50.1331 32.0004 50.1331C29.6213 49.7279 27.6423 48.0781 26.8153 45.8109ZM32.8815 56.2749L32.0004 57.1581L31.1193 56.276L32.0004 54.0712L32.8815 56.2749ZM39.4671 61.8664H24.5337V55.7864C24.5337 53.8424 26.1097 52.2664 28.0537 52.2664H30.4217L28.8729 56.1373C28.7149 56.5335 28.808 56.9857 29.1097 57.2872L31.2431 59.4205C31.6596 59.8369 32.3348 59.8369 32.7513 59.4205L34.8847 57.2872C35.1864 56.9857 35.2795 56.5335 35.1215 56.1373L33.5759 52.2664H35.9471C37.8911 52.2664 39.4671 53.8424 39.4671 55.7864V61.8664Z" fill="white"/>
<path d="M61.4814 51.0835C60.7534 50.5993 59.9225 50.2919 59.0547 50.1853C60.7193 48.8751 61.7429 46.9145 61.8665 44.7997C61.8665 37.7469 57.8057 36.2664 54.3998 36.2664C50.9939 36.2664 46.9331 37.7469 46.9331 44.7997C47.057 46.9147 48.081 48.8752 49.7459 50.1853C46.9185 50.5337 44.7957 52.9375 44.7998 55.7864V62.9331C44.7998 63.5221 45.2774 63.9997 45.8665 63.9997H62.9331C63.5222 63.9997 63.9998 63.5221 63.9998 62.9331V55.7864C64.001 53.8959 63.0555 52.1304 61.4814 51.0835ZM49.1219 43.6712C49.411 40.0957 51.0931 38.3997 54.3998 38.3997C57.427 38.3997 59.0931 39.8312 59.5699 42.8179L56.0158 40.6845C55.5106 40.3815 54.8554 40.5453 54.5523 41.0505C54.5123 41.1172 54.4798 41.1879 54.4553 41.2616C53.9155 42.8808 51.0014 43.4931 49.1219 43.6712ZM49.2147 45.8109C51.0409 45.6605 54.3347 45.108 55.8707 43.0856L59.683 45.3736C59.2553 47.9859 56.0371 50.1331 54.3998 50.1331C52.0207 49.7279 50.0417 48.0781 49.2147 45.8109ZM55.2809 56.2749L54.3998 57.1581L53.5187 56.276L54.3998 54.0712L55.2809 56.2749ZM61.8665 61.8664H46.9331V55.7864C46.9331 53.8424 48.5091 52.2664 50.4531 52.2664H52.8211L51.2723 56.1373C51.1143 56.5335 51.2074 56.9857 51.5091 57.2872L53.6425 59.4205C54.059 59.8369 54.7342 59.8369 55.1507 59.4205L57.2841 57.2872C57.5858 56.9857 57.6789 56.5335 57.5209 56.1373L55.9753 52.2664H58.3465C60.2905 52.2664 61.8665 53.8424 61.8665 55.7864V61.8664Z" fill="white"/>
<path d="M49.0665 31.9997V18.1331C49.0665 17.544 48.5889 17.0664 47.9998 17.0664H38.3998V13.8664C38.3998 13.2773 37.9222 12.7997 37.3332 12.7997H30.8532C29.2868 10.0749 26.3466 8.43467 23.2052 8.53307C18.5256 8.7952 14.8808 12.6933 14.9332 17.38C14.9314 20.1651 15.7257 22.8925 17.2222 25.2413L21.523 31.9997H20.2665V34.133H50.1332V31.9997H49.0665ZM26.6665 31.9997H25.41L26.6665 30.0253V31.9997ZM23.4665 31.0802L19.0228 24.0957C17.7438 22.0895 17.065 19.7593 17.0665 17.38C17.0061 13.8435 19.739 10.8855 23.2692 10.6664H23.4665C27.0012 10.6664 29.8665 13.5317 29.8665 17.0664V17.38C29.8688 19.7608 29.19 22.0924 27.9102 24.1L23.4665 31.0802ZM36.2665 31.9997H28.7998V26.6717L29.7108 25.2413C31.2073 22.8925 32.0016 20.1651 31.9998 17.38V17.0664C31.9973 16.3465 31.9041 15.6297 31.7225 14.9331H36.2665V31.9997ZM43.7332 31.9997H41.5998V28.7997H43.7332V31.9997ZM46.9332 20.2664H44.7998V22.3997H46.9332V23.4664H44.7998V25.5997H46.9332V31.9997H45.8665V27.7331C45.8665 27.144 45.3889 26.6664 44.7998 26.6664H40.5332C39.9441 26.6664 39.4665 27.144 39.4665 27.7331V31.9997H38.3998V25.5997H40.5332V23.4664H38.3998V22.3997H40.5332V20.2664H38.3998V19.1997H46.9332V20.2664Z" fill="white"/>
<path d="M35.1997 15.9997H33.0664V18.1331H35.1997V15.9997Z" fill="white"/>
<path d="M43.7329 20.2664H41.5996V22.3997H43.7329V20.2664Z" fill="white"/>
<path d="M43.7329 23.4664H41.5996V25.5997H43.7329V23.4664Z" fill="white"/>
<path d="M35.1997 19.1997H33.0664V21.3331H35.1997V19.1997Z" fill="white"/>
<path d="M35.1997 22.3997H33.0664V24.5331H35.1997V22.3997Z" fill="white"/>
<path d="M31.9995 25.5997H29.8662V27.7331H31.9995V25.5997Z" fill="white"/>
<path d="M35.1997 25.5997H33.0664V27.7331H35.1997V25.5997Z" fill="white"/>
<path d="M31.9995 28.7997H29.8662V30.9331H31.9995V28.7997Z" fill="white"/>
<path d="M35.1997 28.7997H33.0664V30.9331H35.1997V28.7997Z" fill="white"/>
<path d="M59.1923 22.2557L57.1006 22.6771C57.2318 23.3288 57.3385 23.9955 57.4206 24.6579L59.5358 24.4061C59.4494 23.6872 59.3342 22.964 59.1923 22.2557Z" fill="white"/>
<path d="M4.79934 22.3069C4.65534 23.0195 4.54227 23.7416 4.45801 24.4541L6.57641 24.7037C6.65321 24.0467 6.75987 23.3789 6.89001 22.7197L4.79934 22.3069Z" fill="white"/>
<path d="M56.1745 14.132L54.3164 15.1795C54.6439 15.7587 54.9564 16.3592 55.2337 16.9661L57.1676 16.0659C56.8625 15.4099 56.5276 14.7592 56.1745 14.132Z" fill="white"/>
<path d="M53.7508 10.5245L52.0762 11.8493C52.489 12.3688 52.8879 12.916 53.2623 13.4717L55.0308 12.2803C54.6255 11.6787 54.1946 11.0877 53.7508 10.5245Z" fill="white"/>
<path d="M10.2265 10.5597C9.7774 11.1251 9.34647 11.7171 8.94434 12.3165L10.7171 13.5037C11.0873 12.9501 11.4851 12.404 11.899 11.8803L10.2265 10.5597Z" fill="white"/>
<path d="M50.7941 7.33947L49.3477 8.90747C49.8415 9.364 50.3205 9.8408 50.7695 10.3251L52.3343 8.87547C51.8479 8.35067 51.3295 7.83333 50.7941 7.33947Z" fill="white"/>
<path d="M7.80539 14.1672C7.45339 14.7933 7.11952 15.4461 6.81445 16.1064L8.74939 17.0024C9.03206 16.3923 9.34032 15.7896 9.66352 15.2147L7.80539 14.1672Z" fill="white"/>
<path d="M5.97971 18.1192C5.72691 18.8019 5.50077 19.4984 5.30664 20.1896L7.35891 20.7688C7.53917 20.1288 7.74824 19.4888 7.98184 18.8573L5.97971 18.1192Z" fill="white"/>
<path d="M13.1768 7.36507C12.6435 7.85467 12.1293 8.372 11.6387 8.9032L13.2056 10.3507C13.6536 9.86213 14.1357 9.3864 14.6243 8.932L13.1768 7.36507Z" fill="white"/>
<path d="M58.0068 18.0755L56.0068 18.8168C56.2404 19.4451 56.4506 20.0872 56.6319 20.7261L58.6842 20.1427C58.4868 19.4504 58.2575 18.756 58.0068 18.0755Z" fill="white"/>
<path d="M24.4549 1.03973C23.7552 1.23813 23.0586 1.4664 22.3877 1.7128L23.1269 3.7128C23.7466 3.48453 24.3898 3.27547 25.0362 3.092L24.4549 1.03973Z" fill="white"/>
<path d="M28.7225 0.192802C28.01 0.277069 27.2868 0.391202 26.5742 0.530936L26.987 2.6248C27.6462 2.49467 28.314 2.388 28.9721 2.3112L28.7225 0.192802Z" fill="white"/>
<path d="M30.8906 0.0210671L30.9717 2.1544C31.6373 2.13093 32.3157 2.1288 32.9813 2.1544L33.0666 0.0210671C32.3445 -0.00773291 31.6128 -0.00559958 30.8906 0.0210671Z" fill="white"/>
<path d="M20.3794 2.5448C19.7256 2.84667 19.0728 3.1848 18.4424 3.53467L19.4877 5.39493C20.0701 5.06747 20.6706 4.75493 21.2754 4.4808L20.3794 2.5448Z" fill="white"/>
<path d="M35.2306 0.186401L34.9863 2.3048C35.6423 2.38053 36.3101 2.48507 36.9714 2.61413L37.3799 0.520268C36.6642 0.380535 35.9463 0.268535 35.2306 0.186401Z" fill="white"/>
<path d="M47.3753 4.64827L46.1924 6.4232C46.7428 6.79013 47.2889 7.18693 47.818 7.60293L49.1364 5.92613C48.5636 5.476 47.9716 5.04507 47.3753 4.64827Z" fill="white"/>
<path d="M39.4966 1.02587L38.9238 3.08027C39.5638 3.25947 40.2038 3.4664 40.8332 3.6968L41.5681 1.69467C40.8897 1.444 40.1932 1.22 39.4966 1.02587Z" fill="white"/>
<path d="M16.5879 4.67387C15.9841 5.08027 15.3921 5.51013 14.8311 5.95387L16.1516 7.62853C16.67 7.21893 17.2183 6.82107 17.7772 6.44453L16.5879 4.67387Z" fill="white"/>
<path d="M43.5792 2.5256L42.6875 4.46267C43.2902 4.74107 43.8939 5.04827 44.4795 5.3736L45.5195 3.5112C44.8859 3.1592 44.2342 2.8264 43.5792 2.5256Z" fill="white"/>
<path d="M23.4669 12.7997C21.1105 12.7997 19.2002 14.71 19.2002 17.0664C19.2002 19.4228 21.1105 21.3331 23.4669 21.3331C25.8233 21.3331 27.7335 19.4228 27.7335 17.0664C27.7335 14.71 25.8233 12.7997 23.4669 12.7997ZM23.4669 19.1997C22.2886 19.1997 21.3335 18.2447 21.3335 17.0664C21.3335 15.8881 22.2886 14.9331 23.4669 14.9331C24.6451 14.9331 25.6002 15.8881 25.6002 17.0664C25.6002 18.2447 24.6451 19.1997 23.4669 19.1997Z" fill="white"/>
</g>
<defs>
<clipPath id="clip0">
<rect width="64" height="64" fill="white"/>
</clipPath>
</defs>
</svg>
