<svg width="76" height="76" viewBox="0 0 76 76" fill="none" xmlns="http://www.w3.org/2000/svg">
<path d="M67.3955 22.1338C68.3653 20.9451 68.9481 19.4288 68.9481 17.7786V16.4244C68.9481 12.6189 65.8522 9.52314 62.0468 9.52314C58.2413 9.52314 55.1455 12.6189 55.1455 16.4244V17.7786C55.1455 19.4294 55.7287 20.9463 56.6992 22.1351C55.5166 22.4617 54.3913 22.9723 53.3656 23.6471V22.5706C53.3656 18.0917 49.7217 14.4477 45.2428 14.4477H44.2843C45.434 13.0482 46.1252 11.2585 46.1252 9.31028V8.1063C46.1251 3.63671 42.4887 0 38.0188 0C33.5489 0 29.9125 3.63671 29.9125 8.10645V9.31043C29.9125 11.2587 30.6037 13.0484 31.7534 14.4478H30.7949C26.316 14.4478 22.6722 18.0918 22.6722 22.5708V23.6729C21.6364 22.9856 20.498 22.4658 19.3008 22.1353C20.2712 20.9463 20.8545 19.4295 20.8545 17.7788V16.4246C20.8545 12.6191 17.7587 9.52328 13.9532 9.52328C10.1478 9.52328 7.05196 12.6191 7.05196 16.4246V17.7788C7.05196 19.4289 7.63472 20.9451 8.60446 22.1339C3.65022 23.5003 0 28.0436 0 33.4263V45.5753C0 48.1567 2.10009 50.2568 4.68156 50.2568H5.9268V74.5155C5.9268 75.3351 6.59135 75.9998 7.41117 75.9998H13.9332C13.9363 75.9998 13.9393 75.9994 13.9424 75.9994C13.9455 75.9994 13.9485 75.9998 13.9516 75.9998H20.4736C21.2935 75.9998 21.958 75.3351 21.958 74.5155V50.2568H23.2248C25.7976 50.2568 27.8919 48.1704 27.9056 45.6005C28.3868 45.7843 28.8897 45.9231 29.4094 46.0127V74.5155C29.4094 75.3351 30.074 75.9998 30.8938 75.9998H45.1438C45.9636 75.9998 46.6281 75.3351 46.6281 74.5155V60.1248C46.6281 59.3051 45.9636 58.6404 45.1438 58.6404C44.3239 58.6404 43.6594 59.3051 43.6594 60.1248V73.0311H39.5032V47.9906C39.5032 47.171 38.8386 46.5063 38.0188 46.5063C37.199 46.5063 36.5344 47.171 36.5344 47.9906V73.0311H32.3782V41.4965H43.6594V48.6457C43.6594 49.4654 44.3239 50.1301 45.1438 50.1301C45.9636 50.1301 46.6281 49.4654 46.6281 48.6457V46.0129C47.1343 45.9254 47.6249 45.7921 48.0947 45.6153C48.1164 48.1783 50.2073 50.2568 52.7752 50.2568H54.042V74.5155C54.042 75.3351 54.7065 75.9998 55.5264 75.9998H62.0484C62.0515 75.9998 62.0545 75.9994 62.0576 75.9994C62.0607 75.9994 62.0637 75.9998 62.0668 75.9998H68.5888C69.4086 75.9998 70.0732 75.3351 70.0732 74.5155V50.2568H71.3184C73.8999 50.2568 76 48.1567 76 45.5753V33.4263C75.9999 28.0436 72.3496 23.5003 67.3955 22.1338ZM10.0206 16.4244C10.0206 14.2561 11.7847 12.4919 13.9531 12.4919C16.1215 12.4919 17.8856 14.2561 17.8856 16.4244V17.7786C17.8856 19.947 16.1215 21.7112 13.9531 21.7112C11.7847 21.7112 10.0206 19.947 10.0206 17.7786V16.4244ZM18.9893 73.0311H15.436V50.1718C15.436 49.3521 14.7714 48.6874 13.9516 48.6874C13.1318 48.6874 12.4672 49.3521 12.4672 50.1718V51.7304C12.4563 51.8031 12.4487 51.8772 12.4487 51.953V73.0311H8.89555V44.3818H18.9893V73.0311ZM24.9373 45.5751C24.9375 46.5196 24.1691 47.2881 23.2246 47.2881H21.9579V39.3874C21.9579 38.5677 21.2933 37.903 20.4735 37.903C19.6537 37.903 18.9891 38.5677 18.9891 39.3874V41.4129H8.8954V34.6625C8.8954 33.8428 8.23084 33.1781 7.41102 33.1781C6.59121 33.1781 5.92665 33.8428 5.92665 34.6625V47.2879H4.68141C3.73706 47.2879 2.9686 46.5195 2.9686 45.5751V33.4261C2.9686 28.6034 6.89224 24.6798 11.715 24.6798H16.1909C18.6528 24.6798 21.0143 25.7261 22.6698 27.5505C22.6704 27.5513 22.6711 27.5519 22.6719 27.5526V38.0105C22.6719 40.1894 23.5359 42.1691 24.9373 43.6294V45.5751ZM38.0188 2.96874C40.8517 2.96874 43.1563 5.27338 43.1563 8.1063V9.31028C43.1563 12.1431 40.8517 14.4477 38.0188 14.4477C35.1859 14.4477 32.8812 12.1431 32.8812 9.31028V8.1063C32.8812 5.27338 35.1859 2.96874 38.0188 2.96874ZM50.3967 38.0108C50.3967 40.3728 48.799 42.3674 46.628 42.9742V22.5708C46.6281 21.7509 45.9636 21.0864 45.1438 21.0864C44.3239 21.0864 43.6594 21.7511 43.6594 22.5708V38.5278H32.3782V22.5708C32.3782 21.7511 31.7136 21.0864 30.8938 21.0864C30.074 21.0864 29.4094 21.7511 29.4094 22.5708V42.9741C27.2384 42.3672 25.6407 40.3727 25.6407 38.0106V22.5708C25.6407 19.7288 27.9528 17.4166 30.7948 17.4166H36.4848V21.4729C36.4848 22.2926 37.1494 22.9573 37.9692 22.9573C38.789 22.9573 39.4536 22.2926 39.4536 21.4729V17.4166H45.2426C48.0846 17.4166 50.3967 19.7286 50.3967 22.5708V38.0108ZM58.1142 16.4244C58.1142 14.2561 59.8784 12.4919 62.0468 12.4919C64.2151 12.4919 65.9793 14.2561 65.9793 16.4244V17.7786C65.9793 19.947 64.2151 21.7112 62.0468 21.7112C59.8784 21.7112 58.1142 19.947 58.1142 17.7786V16.4244ZM67.1043 73.0311H63.5512V51.953C63.5512 51.8772 63.5436 51.8032 63.5326 51.7304V50.1718C63.5326 49.3521 62.8681 48.6874 62.0482 48.6874C61.2284 48.6874 60.5639 49.3521 60.5639 50.1718V73.0311H57.0106V44.3818H67.1043V73.0311ZM71.3183 47.2881H70.0731V34.6626C70.0731 33.8429 69.4085 33.1782 68.5887 33.1782C67.7689 33.1782 67.1043 33.8429 67.1043 34.6626V41.4131H57.0106V39.3875C57.0106 38.5678 56.346 37.9031 55.5262 37.9031C54.7064 37.9031 54.0418 38.5678 54.0418 39.3875V47.2882H52.7751C51.8307 47.2882 51.0623 46.5198 51.0623 45.5754V43.6692C52.4861 42.2053 53.3654 40.2093 53.3654 38.0108V27.5136C55.0193 25.7127 57.364 24.6801 59.8086 24.6801H64.2846C69.1073 24.6801 73.031 28.6037 73.031 33.4264V45.5753H73.0311C73.0311 46.5196 72.2628 47.2881 71.3183 47.2881Z" fill="white"/>
<path d="M46.194 53.237C45.9179 52.9594 45.5349 52.8021 45.1445 52.8021C44.7541 52.8021 44.3712 52.9596 44.0951 53.237C43.8175 53.5131 43.6602 53.8961 43.6602 54.2865C43.6602 54.6769 43.8175 55.0598 44.0951 55.3359C44.3712 55.6119 44.7541 55.7708 45.1445 55.7708C45.5349 55.7708 45.9164 55.612 46.194 55.3359C46.4701 55.0598 46.6289 54.6769 46.6289 54.2865C46.6289 53.8961 46.4701 53.5131 46.194 53.237Z" fill="white"/>
<path d="M39.0182 25.9706C38.7421 25.6945 38.3606 25.5357 37.9687 25.5357C37.5784 25.5357 37.1954 25.6943 36.9193 25.9706C36.6432 26.2465 36.4844 26.6295 36.4844 27.02C36.4844 27.4104 36.6432 27.7934 36.9193 28.0693C37.1954 28.3454 37.5784 28.5044 37.9687 28.5044C38.3606 28.5044 38.7421 28.3456 39.0182 28.0693C39.2958 27.7934 39.4531 27.4104 39.4531 27.02C39.4531 26.6295 39.2958 26.2465 39.0182 25.9706Z" fill="white"/>
</svg>
