<svg width="45" height="47" viewBox="0 0 45 47" fill="none" xmlns="http://www.w3.org/2000/svg">
<path d="M37.5289 2.4108C32.4777 -0.803601 25.9341 -0.803601 20.8829 2.4108C17.5537 4.4772 14.4541 8.26561 14.4541 14.6944C14.4541 28.8148 29.2633 38.1136 29.2633 38.1136C29.2633 38.1136 44.0725 28.9296 44.0725 14.6944C44.0725 8.26561 40.9729 4.59201 37.5289 2.4108Z" fill="#37474F"/>
<path d="M29.2633 23.1897C33.955 23.1897 37.7585 19.3862 37.7585 14.6945C37.7585 10.0027 33.955 6.19928 29.2633 6.19928C24.5715 6.19928 20.7681 10.0027 20.7681 14.6945C20.7681 19.3862 24.5715 23.1897 29.2633 23.1897Z" fill="white"/>
<path d="M23.8677 10.5616C18.8165 7.34716 12.2729 7.34716 7.22174 10.5616C3.89254 12.628 0.792969 16.4164 0.792969 22.8452C0.792969 36.9656 15.6022 46.2643 15.6022 46.2643C15.6022 46.2643 30.4113 37.0804 30.4113 22.8452C30.2965 16.4164 27.1969 12.628 23.8677 10.5616Z" fill="#37474F" stroke="white" stroke-miterlimit="10"/>
<path d="M23.9826 22.8452C23.9826 27.5519 20.1942 31.3403 15.4874 31.3403C10.7806 31.3403 6.99219 27.5519 6.99219 22.8452C6.99219 18.1384 10.7806 14.35 15.4874 14.35C20.1942 14.4648 23.9826 18.1384 23.9826 22.8452Z" fill="white"/>
</svg>
