<svg width="64" height="64" viewBox="0 0 64 64" fill="none" xmlns="http://www.w3.org/2000/svg">
<path d="M51.586 0H12.4128C10.9399 0 9.74609 1.19383 9.74609 2.66666V54.2132C9.74609 55.686 10.9399 56.8798 12.4128 56.8798H16.5594V62.6665C16.5594 63.4028 17.1562 63.9998 17.8926 64C18.2824 64 18.6527 63.8295 18.9061 63.5332L21.8394 60.1198L24.7727 63.5332C25.2514 64.0928 26.0931 64.1585 26.6525 63.68C26.9487 63.4267 27.1194 63.0563 27.1194 62.6665V56.8798H51.586C53.0588 56.8798 54.2526 55.686 54.2526 54.2132V2.66666C54.2526 1.19383 53.0588 0 51.586 0ZM22.8527 57.1598C22.3741 56.6002 21.5324 56.5345 20.9729 57.013C20.9202 57.058 20.8712 57.1072 20.8261 57.1598L19.2261 59.0265V53.9599C20.9106 54.5944 22.7682 54.5944 24.4527 53.9599V59.0265L22.8527 57.1598ZM26.6794 46.8665C26.6796 49.5484 24.5211 51.7307 21.8394 51.7599H21.7861C19.0836 51.7599 16.8927 49.569 16.8927 46.8665C16.8927 44.1641 19.0836 41.9732 21.7861 41.9732C24.4886 41.9732 26.6794 44.1641 26.6794 46.8665ZM51.5193 54.1999H27.1194V52.2665C30.1075 49.3505 30.166 44.564 27.25 41.5759C24.3341 38.5877 19.5476 38.5292 16.5594 41.4452C13.5713 44.3612 13.5127 49.1477 16.4287 52.1359C16.4717 52.18 16.5152 52.2235 16.5594 52.2665V54.1999H12.4128V2.66666H51.586L51.5193 54.1999Z" fill="white"/>
<path d="M43.5867 10.5466H20.4134C19.6771 10.5466 19.0801 11.1436 19.0801 11.88C19.0801 12.6163 19.6771 13.2133 20.4134 13.2133H43.5867C44.323 13.2133 44.92 12.6163 44.92 11.88C44.92 11.1436 44.3232 10.5466 43.5867 10.5466Z" fill="white"/>
<path d="M43.5867 18.2133H20.4134C19.6771 18.2133 19.0801 18.8103 19.0801 19.5466C19.0801 20.2829 19.6771 20.8799 20.4134 20.8799H43.5867C44.323 20.8799 44.92 20.2829 44.92 19.5466C44.92 18.8103 44.3232 18.2133 43.5867 18.2133Z" fill="white"/>
<path d="M43.5867 25.8799H20.4134C19.6771 25.8799 19.0801 26.4769 19.0801 27.2133C19.0801 27.9496 19.6771 28.5466 20.4134 28.5466H43.5867C44.323 28.5466 44.92 27.9496 44.92 27.2133C44.92 26.4769 44.3232 25.8799 43.5867 25.8799Z" fill="white"/>
<path d="M43.5867 33.5466H20.4134C19.6771 33.5466 19.0801 34.1436 19.0801 34.8799C19.0801 35.6162 19.6771 36.2132 20.4134 36.2132H43.5867C44.323 36.2132 44.92 35.6162 44.92 34.8799C44.92 34.1436 44.3232 33.5466 43.5867 33.5466Z" fill="white"/>
<path d="M43.587 41.2132H33.0003C32.264 41.2132 31.667 41.8102 31.667 42.5466C31.667 43.2829 32.264 43.8799 33.0003 43.8799H43.587C44.3233 43.8799 44.9203 43.2829 44.9203 42.5466C44.9203 41.8102 44.3235 41.2132 43.587 41.2132Z" fill="white"/>
</svg>
