<svg width="64" height="64" viewBox="0 0 64 64" fill="none" xmlns="http://www.w3.org/2000/svg">
<g clip-path="url(#clip0)">
<path d="M9.87777 43.6238C9.64539 43.3913 9.32289 43.2586 8.99414 43.2586C8.66527 43.2586 8.34289 43.3913 8.11039 43.6238C7.87789 43.8574 7.74414 44.1786 7.74414 44.5086C7.74414 44.8375 7.87777 45.1586 8.11039 45.3924C8.34289 45.625 8.66527 45.7586 8.99414 45.7586C9.32289 45.7586 9.64539 45.625 9.87777 45.3924C10.1103 45.1586 10.2441 44.8375 10.2441 44.5086C10.2441 44.1799 10.1104 43.8574 9.87777 43.6238Z" fill="white"/>
<path d="M48.8357 29.8135C46.0761 27.9613 42.854 26.9821 39.5177 26.9821H38.7877C41.0827 25.0407 42.5439 22.1425 42.5439 18.908V10.8884C43.0825 9.88488 43.389 8.739 43.389 7.5225V1.25C43.389 0.55975 42.8292 0 42.139 0H27.5934C23.5599 0 20.2785 3.28137 20.2785 7.31488V9.37588C20.2785 10.597 20.6956 11.7218 21.3934 12.6178V18.9079C21.3934 22.1423 22.8544 25.0406 25.1495 26.982H24.4825C20.68 26.982 16.9572 28.2919 13.9997 30.6704C11.0871 33.0126 9.0196 36.2967 8.17823 39.9175C8.02198 40.5899 8.44035 41.2616 9.11273 41.4179C9.20798 41.44 9.30298 41.4506 9.39673 41.4506C9.96498 41.4506 10.479 41.0606 10.6131 40.4834C12.0039 34.4989 16.9789 30.185 22.9806 29.5626L31.1161 37.6981C31.3602 37.9421 31.6801 38.0643 32 38.0643C32.3199 38.0643 32.6397 37.9421 32.8839 37.6981L41.0204 29.5618C43.3176 29.8027 45.5132 30.5944 47.4424 31.8891C48.0155 32.2739 48.7921 32.1213 49.1769 31.548C49.5616 30.9748 49.4089 30.1981 48.8357 29.8135ZM22.7786 9.37588V7.31488C22.7786 4.66 24.9385 2.5 27.5935 2.5H40.8892V7.52262C40.8892 10.0816 38.8074 12.1635 36.2484 12.1635H25.5661C24.0291 12.1635 22.7786 10.913 22.7786 9.37588ZM32.0002 35.0464L26.4359 29.4819H31.9206C31.9367 29.482 31.9526 29.4831 31.9687 29.4831C31.9849 29.4831 32.0007 29.482 32.0169 29.4819H37.5647L32.0002 35.0464ZM32.0169 26.982H31.9206C27.49 26.9557 23.8935 23.3445 23.8935 18.9079V14.3907C24.4195 14.5667 24.9816 14.6635 25.5661 14.6635H36.2484C37.6425 14.6635 38.9437 14.2604 40.0441 13.5667V18.9079C40.0441 23.3445 36.4475 26.9559 32.0169 26.982Z" fill="white"/>
<path d="M34.5 46.2774C32.5914 46.2774 30.9729 47.542 30.4379 49.2774H17.527C16.992 47.542 15.3735 46.2774 13.4649 46.2774C11.1214 46.2774 9.21488 48.1839 9.21488 50.5274C9.21488 51.245 9.39437 51.9212 9.70963 52.5148L6.23737 55.987C5.64387 55.6716 4.96763 55.4922 4.25 55.4922C1.9065 55.4922 0 57.3987 0 59.7422C0 62.0857 1.9065 63.9922 4.25 63.9922C6.5935 63.9922 8.5 62.0857 8.5 59.7422C8.5 59.0246 8.3205 58.3484 8.00525 57.7549L11.4775 54.2825C12.071 54.5979 12.7473 54.7772 13.4649 54.7772C15.3735 54.7772 16.992 53.5126 17.527 51.7772H30.4379C30.9729 53.5126 32.5914 54.7772 34.5 54.7772C36.8435 54.7772 38.75 52.8707 38.75 50.5272C38.75 48.1837 36.8435 46.2774 34.5 46.2774ZM4.25 61.4922C3.285 61.4922 2.5 60.7072 2.5 59.7422C2.5 58.7772 3.285 57.9922 4.25 57.9922C5.215 57.9922 6 58.7772 6 59.7422C6 60.7072 5.215 61.4922 4.25 61.4922ZM13.4649 52.2774C12.4999 52.2774 11.7149 51.4924 11.7149 50.5274C11.7149 49.5624 12.4999 48.7774 13.4649 48.7774C14.4299 48.7774 15.2149 49.5624 15.2149 50.5274C15.2149 51.4924 14.4298 52.2774 13.4649 52.2774ZM34.5 52.2774C33.535 52.2774 32.75 51.4924 32.75 50.5274C32.75 49.5624 33.535 48.7774 34.5 48.7774C35.465 48.7774 36.25 49.5624 36.25 50.5274C36.25 51.4924 35.465 52.2774 34.5 52.2774Z" fill="white"/>
<path d="M41.011 44.5162C40.7783 44.2837 40.4558 44.15 40.1272 44.15C39.7972 44.15 39.4747 44.2836 39.2422 44.5162C39.0099 44.7487 38.876 45.0711 38.876 45.4C38.876 45.7287 39.0097 46.0512 39.2422 46.2836C39.4747 46.5174 39.7972 46.65 40.1272 46.65C40.456 46.65 40.7772 46.5174 41.011 46.2836C41.2435 46.0512 41.376 45.7287 41.376 45.4C41.376 45.0711 41.2435 44.75 41.011 44.5162Z" fill="white"/>
<path d="M62.75 21.5063H58.2636C57.5734 21.5063 57.0136 22.066 57.0136 22.7563C57.0136 23.4465 57.5734 24.0063 58.2636 24.0063H59.7533L42.661 41.0985C42.1729 41.5866 42.1729 42.3781 42.661 42.8664C42.9051 43.1104 43.225 43.2325 43.5449 43.2325C43.8648 43.2325 44.1846 43.1104 44.4288 42.8664L61.5 25.7951V27.2425C61.5 27.9328 62.0598 28.4925 62.75 28.4925C63.4403 28.4925 64 27.9328 64 27.2425V22.7563C64 22.0659 63.4403 21.5063 62.75 21.5063Z" fill="white"/>
<path d="M29.4277 17.7625C29.1952 17.5301 28.8727 17.3963 28.5439 17.3963C28.2139 17.3963 27.8927 17.53 27.6602 17.7625C27.4266 17.995 27.2939 18.3175 27.2939 18.6475C27.2939 18.9763 27.4266 19.2975 27.6602 19.5313C27.8927 19.7636 28.2141 19.8963 28.5439 19.8963C28.8727 19.8963 29.1952 19.7636 29.4277 19.5313C29.6601 19.2975 29.7939 18.9763 29.7939 18.6475C29.7939 18.3175 29.6601 17.995 29.4277 17.7625Z" fill="white"/>
<path d="M36.3045 17.7625C36.0721 17.5301 35.7496 17.3963 35.4209 17.3963C35.0921 17.3963 34.7696 17.53 34.5371 17.7625C34.3046 17.995 34.1709 18.3175 34.1709 18.6475C34.1709 18.9763 34.3045 19.2988 34.5371 19.5313C34.7696 19.7636 35.0921 19.8963 35.4209 19.8963C35.7496 19.8963 36.0721 19.7636 36.3045 19.5313C36.537 19.2988 36.6709 18.9763 36.6709 18.6475C36.6709 18.3175 36.5371 17.995 36.3045 17.7625Z" fill="white"/>
<path d="M53 42C46.9346 42 42 46.9346 42 53C42 59.0654 46.9346 64 53 64C59.0654 64 64 59.0654 64 53C64 46.9346 59.0654 42 53 42ZM53 61.5C48.3131 61.5 44.5 57.6869 44.5 53C44.5 48.3131 48.3131 44.5 53 44.5C57.6869 44.5 61.5 48.3131 61.5 53C61.5 57.6869 57.6869 61.5 53 61.5Z" fill="white"/>
<path d="M53.0002 51.8291C52.4227 51.8291 51.9348 51.4392 51.9348 50.9776C51.9346 50.5161 52.4224 50.1262 52.9999 50.1262C53.5774 50.1262 54.0653 50.5161 54.0653 50.9776C54.0653 51.6679 54.6251 52.2276 55.3153 52.2276C56.0056 52.2276 56.5653 51.6679 56.5653 50.9776C56.5653 49.5415 55.5991 48.3138 54.2457 47.8378C54.2023 47.1868 53.6619 46.6717 52.9999 46.6717C52.3379 46.6717 51.7976 47.1868 51.7542 47.8378C50.4008 48.3138 49.4346 49.5415 49.4346 50.9776C49.4346 52.8256 51.0341 54.3291 52.9999 54.3291C53.5774 54.3291 54.0653 54.719 54.0653 55.1805C54.0653 55.642 53.5774 56.0319 52.9999 56.0319C52.4224 56.0319 51.9346 55.642 51.9346 55.1805C51.9346 54.4902 51.3748 53.9305 50.6846 53.9305C49.9943 53.9305 49.4346 54.4902 49.4346 55.1805C49.4346 56.6196 50.4048 57.8495 51.7626 58.3234C51.8447 58.9342 52.3667 59.4059 53.0001 59.4059C53.6334 59.4059 54.1554 58.9342 54.2376 58.3234C55.5953 57.8495 56.5656 56.6196 56.5656 55.1805C56.5656 53.3326 54.9661 51.8291 53.0002 51.8291Z" fill="white"/>
</g>
<defs>
<clipPath id="clip0">
<rect width="64" height="64" fill="white"/>
</clipPath>
</defs>
</svg>
