<svg width="64" height="64" viewBox="0 0 64 64" fill="none" xmlns="http://www.w3.org/2000/svg">
<path d="M13.25 23.2498C12.56 23.2498 12 23.8098 12 24.4999C12 25.1899 12.56 25.7499 13.25 25.7499C13.94 25.7499 14.5 25.1899 14.5 24.4999C14.5 23.8098 13.94 23.2498 13.25 23.2498Z" fill="white"/>
<path d="M43.2501 25.7499H37.0001V19.4999C37.0001 18.8096 36.4403 18.2498 35.7501 18.2498H28.25C27.5598 18.2498 27 18.8096 27 19.4999V25.7499H20.75C20.0598 25.7499 19.5 26.3096 19.5 26.9999V34.4999C19.5 35.1902 20.0598 35.7499 20.75 35.7499H27V41.9999C27 42.6902 27.5598 43.25 28.25 43.25H35.7501C36.4403 43.25 37.0001 42.6902 37.0001 41.9999V35.7499H43.2501C43.9404 35.7499 44.5001 35.1902 44.5001 34.4999V26.9999C44.5001 26.3096 43.9404 25.7499 43.2501 25.7499ZM42.0001 33.2499H35.7501C35.0598 33.2499 34.5001 33.8097 34.5001 34.4999V40.7499H29.5V34.4999C29.5 33.8097 28.9403 33.2499 28.25 33.2499H22V28.2499H28.25C28.9403 28.2499 29.5 27.6901 29.5 26.9999V20.7499H34.5001V26.9999C34.5001 27.6901 35.0598 28.2499 35.7501 28.2499H42.0001V33.2499Z" fill="white"/>
<path d="M51.2971 3.84264C49.2733 5.15665 46.9229 5.85102 44.5001 5.85102C40.7949 5.85102 37.3022 4.22064 34.9179 1.37776C34.9177 1.37776 34.9177 1.37776 34.9177 1.37776C34.1834 0.502252 33.1199 0 32.0001 0C30.8803 0 29.8168 0.502252 29.0823 1.37763C26.698 4.22052 23.2052 5.8509 19.5 5.8509C17.0773 5.8509 14.7269 5.1564 12.7031 3.84251C10.2315 2.23838 7 4.12702 7 7.0384V32.5349C7 38.2063 8.81926 43.7474 12.1223 48.1374C20.2936 59.0024 31.0532 63.7038 31.5072 63.8986C31.6646 63.9661 31.8325 64 32.0001 64C32.1677 64 32.3357 63.9661 32.493 63.8986C32.947 63.7038 43.7066 59.0025 51.8778 48.1388C55.1811 43.7474 57.0002 38.2058 57.0002 32.5349V7.03853C57.0002 4.12689 53.7679 2.23838 51.2971 3.84264ZM49.8799 46.6361C43.0846 55.6705 34.1719 60.3279 31.9993 61.3727C29.826 60.3304 20.9304 55.6902 14.1202 46.6347C11.1408 42.675 9.50001 37.6678 9.50001 32.535V7.03853C9.50001 6.0869 10.5501 5.42577 11.3418 5.93952C13.7719 7.51715 16.593 8.35103 19.5 8.35103C23.9463 8.35103 28.1372 6.39503 30.9977 2.98439C31.2597 2.67201 31.6156 2.50001 32.0001 2.50001C32.3846 2.50001 32.7405 2.67201 33.0024 2.98439C35.8631 6.3949 40.0539 8.35103 44.5001 8.35103C47.4072 8.35103 50.2282 7.51715 52.6584 5.93952C53.4372 5.43365 54.5002 6.07252 54.5002 7.03853V32.5349C54.5002 37.6673 52.8594 42.675 49.8799 46.6361Z" fill="white"/>
<path d="M51.4713 10.0027C51.1395 9.76843 50.7149 9.70993 50.3321 9.84555C48.4515 10.5128 46.4893 10.8511 44.5001 10.8511C40.2035 10.8511 36.0598 9.26493 32.8323 6.38479C32.3582 5.96166 31.6419 5.96166 31.1678 6.38479C27.9404 9.26493 23.7967 10.8511 19.5 10.8511C17.5109 10.8511 15.5486 10.5128 13.668 9.84555C13.285 9.70993 12.8606 9.76843 12.5289 10.0027C12.1974 10.2369 12.0001 10.6177 12.0001 11.0237V19.5C12.0001 20.1902 12.5599 20.75 13.2501 20.75C13.9404 20.75 14.5001 20.1902 14.5001 19.5V12.7133C16.1324 13.1371 17.8076 13.3512 19.5002 13.3512C24.0495 13.3512 28.4471 11.7971 32.0002 8.95355C35.5533 11.7971 39.9509 13.3512 44.5003 13.3512C46.1928 13.3512 47.868 13.1371 49.5003 12.7133V32.535C49.5003 36.5914 48.2161 40.5306 45.8835 43.6276C41.1569 49.9146 35.3838 53.8075 32.012 55.7241C28.6134 53.7824 22.8033 49.86 18.1164 43.6296C15.7844 40.5307 14.5 36.5905 14.5 32.5349V29.4999C14.5 28.8096 13.9403 28.2499 13.25 28.2499C12.5598 28.2499 12 28.8096 12 29.4999V32.5349C12 37.1294 13.4628 41.6034 16.1186 45.1326C21.375 52.1203 27.9538 56.3514 31.4074 58.2515C31.5951 58.3546 31.8025 58.4062 32.01 58.4062C32.2162 58.4062 32.4227 58.3553 32.6095 58.2531C36.0365 56.3801 42.5776 52.1846 47.881 45.1307C50.5371 41.6037 52 37.1305 52 32.5349V11.0236C52 10.6176 51.8028 10.2369 51.4713 10.0027Z" fill="white"/>
</svg>
