<svg width="64" height="64" viewBox="0 0 64 64" fill="none" xmlns="http://www.w3.org/2000/svg">
<path d="M60.0209 30.8925C55.7165 30.8925 51.7211 28.7547 49.3331 25.1722L48.4764 23.8871L47.6196 25.1722C45.2316 28.7547 41.2362 30.8925 36.9318 30.8925H33.0301V47.4056C33.0301 51.3969 34.827 55.1483 37.8298 57.666H16.5541V53.547H29.9409V35.0115H8.31612V43.2495H2.13762V2.0595H47.4466V20.595H49.5061V0H0.078125V44.7056L15.0981 59.7255H40.9952L48.4764 64L57.1778 59.0284C61.3379 56.6517 63.9226 52.197 63.9226 47.4056V30.8925H60.0209ZM14.4946 56.2099L3.59369 45.309H14.4946V56.2099ZM10.3756 43.2495V37.071H27.8814V51.4875H16.5541V43.2495H10.3756ZM61.8631 47.4056C61.8631 51.4607 59.6759 55.2286 56.1562 57.2407L48.4764 61.6295L40.7965 57.2407C37.2768 55.2286 35.0896 51.4607 35.0896 47.4056V32.952H36.9318C41.4421 32.952 45.66 30.9285 48.4764 27.4758C51.2927 30.9285 55.5106 32.952 60.0209 32.952H61.8631V47.4056Z" fill="white"/>
<path d="M57.7433 41.19V47.4056C57.7433 49.9861 56.351 52.3844 54.1113 53.6644L55.1328 55.452C58.013 53.8065 59.8028 50.7234 59.8028 47.4056V41.19H57.7433Z" fill="white"/>
<path d="M6.25586 4.11902V10.2975H43.3269V4.11902H6.25586ZM41.2674 8.23802H8.31536V6.17852H41.2674V8.23802Z" fill="white"/>
<path d="M57.016 35.3132L43.3275 49.0017L39.9365 45.6107L38.4805 47.0668L43.3275 51.9138L58.472 36.7693L57.016 35.3132Z" fill="white"/>
<path d="M25.8213 39.1305H12.4346V41.19H25.8213V39.1305Z" fill="white"/>
<path d="M25.8215 43.2495H18.6133V45.309H25.8215V43.2495Z" fill="white"/>
<path d="M25.8215 47.3685H18.6133V49.428H25.8215V47.3685Z" fill="white"/>
<path d="M39.2079 14.4165H6.25586V16.476H39.2079V14.4165Z" fill="white"/>
<path d="M39.2079 18.5355H6.25586V20.595H39.2079V18.5355Z" fill="white"/>
<path d="M39.2079 22.6545H6.25586V24.714H39.2079V22.6545Z" fill="white"/>
<path d="M25.8211 26.7735H6.25586V28.833H25.8211V26.7735Z" fill="white"/>
<path d="M25.8211 30.8925H6.25586V32.952H25.8211V30.8925Z" fill="white"/>
<path d="M43.3271 14.4165H41.2676V16.476H43.3271V14.4165Z" fill="white"/>
<path d="M43.3271 18.5355H41.2676V20.595H43.3271V18.5355Z" fill="white"/>
<path d="M43.3271 22.6545H41.2676V24.714H43.3271V22.6545Z" fill="white"/>
<path d="M29.9404 26.7735H27.8809V28.833H29.9404V26.7735Z" fill="white"/>
<path d="M29.9404 30.8925H27.8809V32.952H29.9404V30.8925Z" fill="white"/>
</svg>
