<svg width="16" height="17" viewBox="0 0 16 17" fill="none" xmlns="http://www.w3.org/2000/svg">
<path d="M12.8594 16.132C12.1937 16.132 11.3897 15.9643 10.5055 15.6288C8.56709 14.894 6.45804 13.4416 4.56695 11.5401C2.67532 9.63808 1.23091 7.5169 0.499548 5.56779C-0.165078 3.79562 -0.166693 2.34109 0.495781 1.67552C0.591035 1.57974 0.687903 1.47693 0.788001 1.37087C1.39235 0.731807 2.07528 0.0126606 2.98046 0.0451278C3.60419 0.0711015 4.20854 0.460707 4.82742 1.23505C6.65608 3.52182 5.83162 4.33674 4.87747 5.28153L4.70903 5.44928C4.55296 5.60621 4.25805 6.33293 7.00158 9.09155C7.89708 9.99197 8.66073 10.6511 9.271 11.0499C9.65524 11.3009 10.3425 11.6808 10.6245 11.3973L10.794 11.2252C11.7325 10.2679 12.543 9.44165 14.8156 11.2788C15.5858 11.901 15.9727 12.5082 15.9985 13.1364C16.0357 14.046 15.3151 14.7343 14.679 15.3415C14.574 15.4421 14.4718 15.5395 14.3765 15.6348C14.0477 15.9659 13.5219 16.132 12.8594 16.132ZM2.91588 0.585164C2.27278 0.585164 1.69211 1.19988 1.17817 1.7437C1.07484 1.85301 0.974742 1.95906 0.876259 2.05809C0.382767 2.55375 0.432816 3.85623 1.00326 5.37731C1.70825 7.25608 3.10908 9.30908 4.94797 11.1581C6.78632 13.006 8.82702 14.4145 10.696 15.1229C12.2088 15.6975 13.5042 15.7462 13.9966 15.2511C14.0951 15.1521 14.2005 15.0514 14.3092 14.9481C14.8619 14.4199 15.4889 13.8215 15.4614 13.1575C15.4426 12.7014 15.1122 12.2106 14.4793 11.6992C12.5855 10.1678 12.056 10.7084 11.1777 11.604L11.0055 11.7787C10.5857 12.2014 9.90387 12.1077 8.97824 11.5028C8.33622 11.0829 7.54297 10.4 6.62164 9.47304C4.34469 7.18411 3.61656 5.78315 4.32909 5.06509L4.50076 4.89463C5.39356 4.01153 5.93226 3.47853 4.40873 1.57325C3.8991 0.937433 3.41152 0.605186 2.95786 0.585705C2.94386 0.585164 2.92987 0.585164 2.91588 0.585164Z" fill="#45A490"/>
</svg>
