<svg width="36" height="36" viewBox="0 0 36 36" fill="none" xmlns="http://www.w3.org/2000/svg">
<g clip-path="url(#clip0)">
<path d="M0.113786 3.30237L2.5147 7.50372C2.59568 7.64569 2.73123 7.7484 2.88975 7.78815L5.12968 8.34813L12.8122 16.0306L13.661 15.182L5.8583 7.37952C5.78151 7.30249 5.68522 7.24792 5.57979 7.2215L3.42751 6.68152L1.38338 3.10237L3.13591 1.34984L6.71654 3.39594L7.25677 5.54822C7.28294 5.6539 7.33776 5.75044 7.41455 5.82723L15.2173 13.6299L16.0659 12.7811L8.3834 5.09861L7.82342 2.85991C7.78367 2.70115 7.68096 2.56535 7.53899 2.48412L3.33739 0.0834551C3.10307 -0.049874 2.80827 -0.0103691 2.61716 0.179995L0.216498 2.58091C0.023418 2.77078 -0.018556 3.06608 0.113786 3.30237Z" fill="white"/>
<path d="M25.0678 11.829L11.8635 25.0335L11.0146 24.1847L24.2192 10.9804L25.0678 11.829Z" fill="white"/>
<path d="M9.55156 25.5007C9.44292 25.32 9.24786 25.2096 9.03701 25.2096H5.43588C5.22527 25.2096 5.02997 25.32 4.92158 25.5007L3.12089 28.5016C3.00658 28.6917 3.00658 28.9295 3.12089 29.1198L4.92158 32.1207C5.02997 32.3012 5.22527 32.4118 5.43588 32.4118H9.03701C9.24786 32.4118 9.44292 32.3012 9.55156 32.1207L11.352 29.1198C11.4663 28.9295 11.4663 28.6917 11.352 28.5016L9.55156 25.5007ZM8.69751 31.2114H5.77563L4.33518 28.8107L5.77563 26.4098H8.69751L10.138 28.8107L8.69751 31.2114Z" fill="white"/>
<path d="M28.8437 14.4062C32.8078 14.4195 36.0324 11.2166 36.0457 7.25257C36.0477 6.64913 35.9736 6.04816 35.8252 5.46324C35.7452 5.14152 35.4196 4.94573 35.0978 5.02573C34.9922 5.05214 34.8959 5.10671 34.8188 5.1835L31.0826 8.91721L28.1183 7.92934L27.1297 4.96573L30.8659 1.2288C31.1002 0.994244 31.0999 0.614255 30.8654 0.379941C30.7881 0.30266 30.6908 0.247847 30.5844 0.221675C26.7401 -0.751876 22.8347 1.57521 21.8612 5.41929C21.7133 6.00249 21.6395 6.60197 21.6414 7.20368C21.6429 7.67626 21.6916 8.14736 21.7874 8.61006L8.64281 21.7544C8.18011 21.6588 7.70901 21.6102 7.23668 21.6084C3.25878 21.6084 0.0341797 24.833 0.0341797 28.8109C0.0341797 32.7886 3.25878 36.0132 7.23668 36.0132C11.2143 36.0132 14.4389 32.7886 14.4389 28.8109C14.4375 28.3383 14.3886 27.8673 14.293 27.4045L17.4398 24.2577L18.8161 25.634C19.0507 25.8683 19.4304 25.8683 19.665 25.634L19.9649 25.3337C20.2281 25.0723 20.6536 25.0723 20.9168 25.3337C21.1797 25.596 21.1802 26.0216 20.918 26.2846C20.9178 26.2848 20.9173 26.2853 20.9168 26.2858L20.6168 26.5858C20.3825 26.8201 20.3825 27.2001 20.6168 27.4344L27.7766 34.5942C29.6597 36.4946 32.7268 36.5085 34.6272 34.6253C36.5274 32.7422 36.5412 29.6749 34.6581 27.7747C34.648 27.7643 34.6376 27.7539 34.6272 27.7436L27.4674 20.584C27.2331 20.3497 26.8531 20.3497 26.6188 20.584L26.3188 20.884C26.0554 21.1457 25.6302 21.1457 25.3668 20.884C25.1041 20.6218 25.1033 20.1961 25.3655 19.9334C25.366 19.9329 25.3665 19.9327 25.3668 19.9322L25.667 19.6319C25.9013 19.3976 25.9013 19.0176 25.667 18.7833L24.2907 17.4071L27.4376 14.2603C27.9003 14.3558 28.3714 14.4047 28.8437 14.4062ZM31.2019 34.813C30.7659 34.8122 30.3335 34.7335 29.9254 34.5801L34.6129 29.8924C35.3203 31.774 34.3685 33.8727 32.4868 34.5801C32.0762 34.7344 31.6409 34.8135 31.2019 34.813ZM24.4023 19.2137C23.7377 20.0065 23.8419 21.1882 24.6347 21.8526C25.3315 22.4366 26.347 22.4361 27.043 21.8509L33.7786 28.5924C33.8517 28.6657 33.9201 28.743 33.9863 28.8215L28.8546 33.9532C28.7758 33.8873 28.6985 33.8189 28.6252 33.7456L21.8844 27.0043C22.5491 26.2115 22.4449 25.0298 21.6521 24.3654C20.9553 23.7812 19.9395 23.7819 19.2435 24.3669L18.2833 23.4066L23.4419 18.2557L24.4023 19.2137ZM26.826 13.1771L13.2103 26.79C13.061 26.9391 13.001 27.1557 13.0518 27.3604C13.8753 30.5941 11.9212 33.8831 8.68726 34.7063C5.45353 35.5297 2.16449 33.5757 1.34105 30.3417C0.517869 27.108 2.47189 23.819 5.70586 22.9955C6.68411 22.7467 7.70901 22.7467 8.68726 22.9955C8.89194 23.0457 9.10799 22.9857 9.25761 22.8373L22.87 9.22412C23.0192 9.07498 23.0792 8.85845 23.0278 8.65401C22.2101 5.45806 24.1379 2.20433 27.3339 1.38633C27.9378 1.23201 28.5625 1.17276 29.1847 1.21152L26.0186 4.37883C25.8579 4.53932 25.8016 4.77709 25.8734 4.99264L27.0736 8.59401C27.1336 8.77302 27.2744 8.91376 27.4536 8.97326L31.055 10.1737C31.2703 10.2456 31.5081 10.1895 31.6688 10.029L34.8349 6.86295C34.842 6.97752 34.8457 7.09085 34.8457 7.20368C34.8625 10.5016 32.2029 13.1887 28.9049 13.2057C28.3951 13.2082 27.8869 13.1455 27.3931 13.0191C27.1884 12.968 26.9719 13.0277 26.8228 13.1768H26.826V13.1771Z" fill="white"/>
<path d="M31.0694 30.1867L30.2206 31.0356L24.2188 25.0338L25.0674 24.1849L31.0694 30.1867Z" fill="white"/>
</g>
<defs>
<clipPath id="clip0">
<rect width="36" height="36" fill="white"/>
</clipPath>
</defs>
</svg>
