<svg width="36" height="36" viewBox="0 0 36 36" fill="none" xmlns="http://www.w3.org/2000/svg">
<g clip-path="url(#clip0)">
<path d="M32.5719 0.66577L24.1504 16.9941C24.1987 17.0077 24.2469 17.0221 24.2948 17.0375C24.6504 17.152 24.9843 17.2916 25.2952 17.4552C25.671 17.6531 26.0126 17.8863 26.3178 18.1531L34.7561 1.79231C35.0672 1.18918 34.8305 0.448031 34.2273 0.136955C33.6241 -0.17417 32.8831 0.0625899 32.5719 0.66577Z" fill="white"/>
<path d="M4.74811 30.9483C6.08698 32.1558 7.73093 33.208 9.6343 34.0755C12.8486 35.5405 15.6773 35.9732 15.7961 35.9909C15.7994 35.9914 15.8027 35.9918 15.806 35.9923C15.8435 35.9974 15.8812 36 15.919 36C15.9281 36 15.9372 35.9998 15.9464 35.9995C19.3278 35.8891 21.9633 34.763 23.7794 32.6523C26.1681 29.8764 27.0314 25.7026 26.8636 22.1143C26.8154 21.087 26.4496 20.0383 25.7314 19.2902C25.6778 19.2344 25.6228 19.18 25.5654 19.1277C25.3134 18.8984 25.0316 18.7067 24.7316 18.5478C24.4717 18.4101 24.1982 18.2972 23.9182 18.207C23.802 18.1696 23.6856 18.1413 23.5694 18.1204C23.4082 18.0915 23.2472 18.0774 23.0872 18.0774C21.9016 18.0774 20.765 18.8226 19.8968 19.5837C19.0002 20.3697 18.0902 21.2264 17.0773 21.8974C15.9672 22.6328 14.7485 23.0031 13.4794 23.3646C11.8401 23.8314 10.1548 24.1296 8.46215 24.3195C6.95724 24.4884 5.43214 24.5866 3.91141 24.5866C3.30784 24.5866 2.7052 24.5711 2.10447 24.5385C2.06963 24.5366 2.03478 24.5349 1.99998 24.5325C1.98061 24.5311 1.9612 24.5304 1.94193 24.5304C1.6836 24.5304 1.43843 24.6503 1.27987 24.8571C1.10946 25.0792 1.06174 25.372 1.15286 25.6367C1.83803 27.6276 3.04763 29.4147 4.74811 30.9483ZM3.57836 26.25C3.57885 26.25 3.57935 26.25 3.57989 26.25C3.66433 26.2506 3.75167 26.2509 3.84132 26.2509C5.07059 26.2509 6.78349 26.1965 8.7051 25.9778C12.7709 25.5151 16.0853 24.5256 18.5944 23.0302C18.6657 22.9877 18.7457 22.9665 18.826 22.9665C18.9017 22.9665 18.9775 22.9853 19.0461 23.023C20.5045 23.8246 22.7708 25.0124 24.3868 25.589C24.5868 25.6604 24.7106 25.8608 24.6864 26.0717C24.4934 27.7581 23.946 29.9042 22.5076 31.5712C21.0343 33.2785 18.8588 34.2048 16.0393 34.3256C16.0305 34.326 16.0217 34.3262 16.0129 34.3262C15.9763 34.3262 15.9399 34.3229 15.9037 34.3166C15.6196 34.2664 14.9187 34.1312 13.9781 33.8723C14.2462 33.7539 14.5235 33.612 14.8038 33.4536C15.0548 33.3118 15.3079 33.1574 15.5585 32.9957C16.3337 32.4956 17.0843 31.928 17.6683 31.4608C17.8034 31.3528 17.6767 31.1418 17.5171 31.2087C16.2404 31.7443 14.6093 32.1025 13.1499 32.338C12.6911 32.412 12.2497 32.4738 11.8412 32.5253C11.3635 32.5856 10.9315 32.6315 10.5711 32.666C10.4772 32.6245 10.383 32.5824 10.2885 32.5391C9.47628 32.167 8.71847 31.7596 8.01777 31.3203C8.32359 31.2919 8.64494 31.2412 8.97086 31.1749C9.26694 31.1147 9.56642 31.0417 9.86118 30.9616C10.7291 30.7259 11.5545 30.4283 12.119 30.209C12.2265 30.1673 12.1882 30.007 12.0734 30.018C11.0458 30.1169 9.62049 30.126 8.40331 30.1081C8.0046 30.1023 7.62835 30.0935 7.29565 30.0841C6.85811 30.0717 6.49626 30.0582 6.25817 30.0483C6.11853 29.9315 5.9817 29.8133 5.84894 29.6931C5.67716 29.5376 5.51171 29.3791 5.35158 29.218C5.59866 29.193 5.85518 29.1536 6.11568 29.1038C6.35927 29.0571 6.60601 29.0014 6.85142 28.9394C7.82063 28.6949 8.76629 28.3557 9.39188 28.1129C9.49933 28.0711 9.46104 27.9108 9.34627 27.9218C8.38154 28.0147 7.06631 28.0284 5.90183 28.0149C5.61459 28.0116 5.33664 28.0066 5.0753 28.0008C4.78448 27.9943 4.51429 27.9867 4.27522 27.9792C3.93687 27.5294 3.63789 27.0626 3.37974 26.5794C3.30007 26.4305 3.40963 26.25 3.57836 26.25Z" fill="white"/>
<path d="M30.535 32.4326C31.6244 32.4326 32.5076 31.5495 32.5076 30.4601C32.5076 29.3707 31.6244 28.4875 30.535 28.4875C29.4456 28.4875 28.5625 29.3707 28.5625 30.4601C28.5625 31.5495 29.4456 32.4326 30.535 32.4326Z" fill="white"/>
<path d="M26.2807 35.9739C26.8311 35.9739 27.2772 35.5277 27.2772 34.9773C27.2772 34.427 26.8311 33.9808 26.2807 33.9808C25.7303 33.9808 25.2842 34.427 25.2842 34.9773C25.2842 35.5277 25.7303 35.9739 26.2807 35.9739Z" fill="white"/>
<path d="M31.684 35.744C32.2344 35.744 32.6806 35.2978 32.6806 34.7475C32.6806 34.1971 32.2344 33.7509 31.684 33.7509C31.1337 33.7509 30.6875 34.1971 30.6875 34.7475C30.6875 35.2978 31.1337 35.744 31.684 35.744Z" fill="white"/>
</g>
<defs>
<clipPath id="clip0">
<rect width="36" height="36" fill="white"/>
</clipPath>
</defs>
</svg>
