<svg xmlns="http://www.w3.org/2000/svg" xmlns:xlink="http://www.w3.org/1999/xlink" width="39" height="44" viewBox="0 0 39 44"><defs><path id="9bexa" d="M154.19 2355.68c.23 0 .46-.05.68-.16l1.75-.9a1.48 1.48 0 0 0 .64-2 1.5 1.5 0 0 0-2.01-.64l-1.75.9a1.48 1.48 0 0 0 .69 2.8zm2.42 9.42l-1.74-.9a1.5 1.5 0 0 0-2.01.65c-.38.73-.1 1.62.64 2l1.75.89a1.5 1.5 0 0 0 2.01-.64c.38-.73.09-1.63-.65-2zm1.11-6.72h-1.74c-.83 0-1.5.66-1.5 1.47 0 .82.67 1.48 1.5 1.48h1.74c.83 0 1.5-.66 1.5-1.48 0-.81-.67-1.47-1.5-1.47zm-11.57 5.83l-1.75.89a1.48 1.48 0 0 0 .69 2.8c.22 0 .46-.05.68-.16l1.74-.9a1.48 1.48 0 0 0 .65-1.99 1.5 1.5 0 0 0-2.01-.64zm-1.75-9.59l1.75.9a1.5 1.5 0 0 0 2-.65c.39-.72.1-1.62-.64-2l-1.74-.89a1.5 1.5 0 0 0-2.01.64c-.38.73-.1 1.63.64 2zm2.12 5.24c0-.82-.66-1.48-1.49-1.48h-1.74a1.49 1.49 0 1 0 0 2.97h1.74c.83 0 1.5-.67 1.5-1.49zm9.54 14.16c-1.13 0-1.65-.26-2.3-.59-.75-.37-1.68-.84-3.26-.84-1.57 0-2.5.47-3.25.84-.66.33-1.18.6-2.3.6-3.84 0-10.97-8.83-10.97-17.17 0-5.01 2.7-10.36 10.3-10.36 1.13 0 1.99.3 2.9.62.93.34 2 .72 3.32.72 1.33 0 2.4-.38 3.33-.72.9-.32 1.76-.62 2.9-.62 7.59 0 10.3 5.35 10.3 10.36 0 8.34-7.13 17.16-10.97 17.16zm-10.53-37.66c1.25.5 3.1 1.49 3.92 3.12.82 1.65.48 3.7.12 5-1.25-.5-3.1-1.48-3.92-3.12-.82-1.64-.48-3.7-.12-5zm11.2 7.17c-1.43 0-2.51.32-3.46.65a7.63 7.63 0 0 1 4.04-3.07 1.48 1.48 0 1 0-.93-2.82 10.65 10.65 0 0 0-3.59 1.99 7.58 7.58 0 0 0-.67-2.12c-1.93-3.86-6.97-5.07-7.19-5.12a1.5 1.5 0 0 0-1.7.84c-.09.2-2.17 4.94-.25 8.8.15.31.33.6.52.88-8.62.38-12.5 6.86-12.5 13.3 0 9.72 8.18 20.14 13.94 20.14 1.84 0 2.84-.5 3.65-.91.63-.32 1.04-.52 1.91-.52.87 0 1.28.2 1.9.52.82.4 1.82.91 3.66.91 5.76 0 13.94-10.41 13.94-20.14 0-6.63-4.1-13.33-13.28-13.33z"/></defs><g><g transform="translate(-131 -2333)"><use fill="#ff6053" xlink:href="#9bexa"/></g></g></svg>