<svg width="5" height="9" viewBox="0 0 5 9" fill="none" xmlns="http://www.w3.org/2000/svg">
<path d="M2.62827 7.13892C2.95503 7.13892 3.21681 7.02306 3.41362 6.79133C3.61042 6.55531 3.7181 6.22059 3.73667 5.78717H4.66683C4.64455 6.45661 4.43847 7.01233 4.04858 7.45433C3.6624 7.89204 3.18897 8.11089 2.62827 8.11089C1.88191 8.11089 1.31193 7.84054 0.918329 7.29984C0.52844 6.75485 0.333496 5.94594 0.333496 4.87312V4.10713C0.333496 3.05577 0.52844 2.25759 0.918329 1.7126C1.30822 1.16331 1.87634 0.888672 2.6227 0.888672C3.23909 0.888672 3.72738 1.11396 4.08757 1.56455C4.45146 2.01513 4.64455 2.63093 4.66683 3.41194H3.73667C3.71439 2.89699 3.6067 2.51078 3.41362 2.2533C3.22424 1.99582 2.9606 1.86708 2.6227 1.86708C2.18454 1.86708 1.85963 2.03444 1.64798 2.36916C1.43632 2.69959 1.32678 3.24458 1.31936 4.00414V4.89244C1.31936 5.71207 1.42333 6.29139 1.63127 6.6304C1.84292 6.96941 2.17526 7.13892 2.62827 7.13892Z" fill="white"/>
</svg>
