<svg width="16" height="17" viewBox="0 0 16 17" fill="none" xmlns="http://www.w3.org/2000/svg">
<path d="M13.336 15.003V5.8345H1.667V15.003H13.336ZM10.8355 0H12.5025V1.667H13.336C13.7781 1.667 14.2021 1.84263 14.5147 2.15525C14.8274 2.46788 15.003 2.89188 15.003 3.334V15.003C15.003 15.4451 14.8274 15.8691 14.5147 16.1817C14.2021 16.4944 13.7781 16.67 13.336 16.67H1.667C0.741815 16.67 0 15.9199 0 15.003V3.334C0 2.40881 0.741815 1.667 1.667 1.667H2.5005V0H4.1675V1.667H10.8355V0ZM3.334 7.5015H5.001V9.1685H3.334V7.5015ZM10.002 7.5015H11.669V9.1685H10.002V7.5015ZM6.668 10.8355H8.335V12.5025H6.668V10.8355ZM10.002 10.8355H11.669V12.5025H10.002V10.8355Z" fill="#01B6A7"/>
</svg>
