<?xml version="1.0" encoding="UTF-8"?>
<svg width="182px" height="221px" viewBox="0 0 182 221" version="1.1" xmlns="http://www.w3.org/2000/svg" xmlns:xlink="http://www.w3.org/1999/xlink">
    <!-- Generator: Sketch 51.2 (57519) - http://www.bohemiancoding.com/sketch -->
    <title>Group</title>
    <desc>Created with Sketch.</desc>
    <defs></defs>
    <g id="Page-1" stroke="none" stroke-width="1" fill="none" fill-rule="evenodd">
        <g id="Group" fill-rule="nonzero">
            <path d="M181.29,89.66 C180.597446,85.2014582 178.453299,81.095944 175.19,77.98 C174.49,77.27 173.51,76.75 173.24,75.65 C177.32,74.2 177.95,71.04 174.77,68.23 C174.11,67.65 173.25,67.32 172.77,66.55 C174.88,63.31 175.09,60.36 173.31,58.67 C172.10839,57.5985953 170.593547,56.9428648 168.99,56.8 C167.22,56.57 166.06,57.67 164.73,58.86 C164.133202,56.2962906 163.722135,53.6928666 163.5,51.07 C163.080057,48.2978298 163.049764,45.4805592 163.41,42.7 C163.99,38.65 164.1,34.57 164.29,30.5 C164.358676,27.7669719 163.63639,25.0722886 162.21,22.74 C159.989628,19.0077698 156.813763,15.9354657 153.01,13.84 C148.415207,11.2378998 143.523171,9.19983127 138.44,7.77 C130.03,5.17 121.36,3.77 112.69,2.24 C101.97,0.37 91.2,0.46 80.41,0.9 C74.16,1.15 68.03,2.42 61.9,3.49 C52.53,5.14 43.28,7.28 34.48,11.07 C29.88,13.07 25.59,15.48 22.24,19.27 C19.1,22.82 17.24,26.87 17.71,31.75 C17.92,34.22 17.81,36.75 18.18,39.17 C18.985584,44.3114693 18.91458,49.5522426 17.97,54.67 C17.8563151,56.0200952 17.6288404,57.3581812 17.29,58.67 C13.94,56.35 10.98,56.41 8.6,58.67 C7.9562075,59.2868659 7.56423726,60.1206936 7.5,61.01 C7.2620719,63.0026363 7.90472846,64.9999837 9.26,66.48 C4.02,71.21 3.87,73.66 8.91,75.87 C6.79274932,77.7147939 4.92681101,79.829524 3.36,82.16 C-0.15,88.03 -0.64,94.08 2.88,100.09 C4.53723427,102.733834 6.34348383,105.28128 8.29,107.72 C9.8,109.72 11.11,111.72 11.29,114.35 C11.48,116.54 13.42,117.45 15.35,116.48 C17.1629142,115.636923 18.7961053,114.451926 20.16,112.99 C24.75,107.86 30.07,103.46 35.02,98.69 C36.16,97.58 36.2,97.62 37.21,98.78 L40.57,102.61 C40.36,102.9 40.14,103.22 39.9,103.52 C37.303912,106.562438 34.9626732,109.813415 32.9,113.24 C29.3913985,119.616206 26.7832624,126.44784 25.15,133.54 C23.3699606,141.111101 23.0038174,148.945887 24.07,156.65 C24.8183958,162.85127 26.5501046,168.893685 29.2,174.55 C30.36,177 31.57,179.43 32.81,181.85 C35.81,187.74 39.19,193.34 44.71,197.26 C46.33,198.4 46.38,199.78 46.04,201.46 C45.1293166,206.088952 44.6505934,210.792491 44.61,215.51 C44.4272038,217.319976 45.4332211,219.041114 47.1,219.77 C48.72,220.38 50.31,219.77 51.61,217.98 C52.61,216.55 53.61,215.06 54.47,213.55 C55.66,211.55 56.77,209.55 57.94,207.55 C61.6354333,209.542536 65.5614498,211.073985 69.63,212.11 C74.3620506,213.244012 79.1525227,214.118649 83.98,214.73 C91.69,215.73 99.28,214.97 106.85,213.47 C110.504466,212.60922 114.060063,211.372636 117.46,209.78 C119.11,209.08 119.11,209.1 120.01,210.55 C121.564144,213.253733 123.284097,215.85871 125.16,218.35 C125.831132,219.349379 126.785147,220.125821 127.9,220.58 C128.788417,220.990574 129.818277,220.958994 130.679869,220.494758 C131.541461,220.030521 132.134263,219.18779 132.28,218.22 C132.540336,217.130372 132.638061,216.008227 132.57,214.89 C132.49,210.73 132.4,206.57 132.27,202.42 C132.188452,201.38891 132.618281,200.383485 133.42,199.73 C141.73,192.09 147.78,182.85 152.55,172.73 C156.03,165.33 156.71,157.34 156.99,149.37 C157.51,134.83 153.24,121.64 144.99,109.7 C143.073439,107.044647 141.003239,104.503644 138.79,102.09 C137.57,100.71 137.58,100.71 138.62,99.39 C139.866302,97.8007362 141.319126,96.3849055 142.94,95.18 C143.198896,95.3462784 143.446138,95.5300391 143.68,95.73 C149.68,101.41 155.95,106.73 161.56,112.78 C162.911314,114.249267 164.517142,115.462108 166.3,116.36 C168.55,117.51 170.37,116.72 170.64,114.24 C170.897072,112.087883 171.784197,110.059671 173.19,108.41 C175.257335,105.861949 177.167539,103.190335 178.91,100.41 C180.986979,97.236487 181.83334,93.4136395 181.29,89.66 Z M167,60.6 C167.104881,60.1313377 167.397757,59.7263731 167.81,59.48 C169.39,58.57 171.98,60.08 171.99,61.92 C172.019066,62.5565382 171.89564,63.1908099 171.63,63.77 C171.372244,64.2801981 170.851582,64.6041654 170.28,64.61 C168.74,64.71 166.61,62.09 167,60.6 Z M11.25,59.79 C12.18,59.37 13.16,58.9 14.2,59.53 C14.6844638,59.8249346 14.9886762,60.3432223 15.01,60.91 C15.13,62.22 13.13,64.58 11.82,64.65 C10.67,64.71 9.88,63.54 9.91,61.76 C9.82930586,60.8708276 10.3851259,60.0475452 11.24,59.79 L11.25,59.79 Z M40.57,99 C39.6619072,98.1118738 38.8811603,97.1022873 38.25,96 C38.315499,95.847954 38.4031125,95.7064245 38.51,95.58 C40.37,93.72 40.38,93.72 42.1,95.7 C42.99,96.7 43.85,97.76 44.7,98.77 C44.62,98.97 44.6,99.16 44.49,99.25 C42.39,101 42.36,101 40.57,99 Z M50.24,215.79 C49.9516721,216.265449 49.6166838,216.710984 49.24,217.12 C48.949101,217.446053 48.4996583,217.580974 48.0772785,217.469043 C47.6548988,217.357113 47.331254,217.017324 47.24,216.59 C47.1504528,216.285003 47.1099476,215.967712 47.12,215.65 C47.1442183,211.09769 47.5962055,206.557729 48.47,202.09 C48.5617817,201.797048 48.6788904,201.512641 48.82,201.24 L55.82,206.24 C54.1482085,209.513517 52.2849794,212.685681 50.24,215.74 L50.24,215.79 Z M130.08,216.42 C130.08,217.12 130.21,218.05 129.43,218.33 C128.65,218.61 127.94,217.95 127.43,217.33 C125.392674,214.672334 123.538398,211.879227 121.88,208.97 C121.39,208.19 121.76,207.86 122.41,207.5 C124.97431,206.149476 127.425582,204.59444 129.74,202.85 C130.110773,207.346511 130.224292,211.860536 130.08,216.37 L130.08,216.42 Z M139.61,121.64 C140.909752,123.752728 141.836586,126.073195 142.35,128.5 C142.895288,131.24176 143.654271,133.936651 144.62,136.56 C145.56,138.99 145.62,141.56 145.79,144.13 C146.194398,148.664392 146.012904,153.231991 145.25,157.72 C144.08,164.33 140.98,170.04 138.09,175.9 C136.300889,179.479628 133.992624,182.775225 131.24,185.68 C124.05,193.36 115.75,199.23 105.24,201.52 C101.997266,202.375205 98.704153,203.02648 95.38,203.47 C91.8036529,203.898682 88.1847392,203.821254 84.63,203.24 C80.33,202.41 75.9,202.24 71.7,200.79 C66.78,199.09 61.99,197.13 58.01,193.64 C57.8260311,193.480009 57.6286364,193.336145 57.42,193.21 C50.52,189.03 45.8,182.91 42.01,175.92 C40.0582607,172.431251 38.38635,168.793174 37.01,165.04 C35.2,159.91 34.96,154.55 34.76,149.43 C34.6518674,145.273029 34.8658405,141.113927 35.4,136.99 C36.1192369,132.893251 37.4013732,128.9156 39.21,125.17 C40.3588205,122.618142 41.7237949,120.169217 43.29,117.85 C46.83,112.62 51.51,108.57 56.37,104.62 C62.66,99.51 69.82,96.62 77.6,94.62 C84.92,92.74 92.13,93.42 99.48,93.93 C107.48,94.48 114.05,98.33 120.72,102.07 C123.11,103.4 124.97,105.45 127.01,107.24 C131.908927,111.36127 136.156892,116.199231 139.61,121.59 L139.61,121.64 Z M91,64.47 L91,64.37 C88.77,64.24 86.55,64.12 84.32,63.97 C82.64,63.86 82.59,63.79 82.54,62.18 C82.46,59.41 83.05,58.69 85.75,58.7 C90.04,58.7 94.34,58.84 98.64,58.99 C100.88,59.06 101.04,59.25 101.11,60.71 C101.2,62.92 100.39,64.21 98.64,64.42 C97.6082885,64.4917222 96.5734879,64.5084126 95.54,64.47 L91,64.47 Z M92.78,80.47 C92.78,81.06 92.78,81.58 91.92,81.57 C91.06,81.56 91,81.1 91,80.48 L91,67.84 C91,67.24 91.06,66.74 91.87,66.75 C92.68,66.76 92.78,67.21 92.78,67.83 C92.77,72.08 92.78,76.29 92.78,80.5 L92.78,80.47 Z M135.85,98.86 L133.47,97 L138.24,92 C138.380813,91.8031479 138.607969,91.6863485 138.85,91.6863485 C139.092031,91.6863485 139.319187,91.8031479 139.46,92 C140.039801,92.4202545 140.5238,92.9587877 140.88,93.58 C138.979153,95.1232987 137.288165,96.908417 135.85,98.89 L135.85,98.86 Z M153.6,58.86 C152.1,57.86 150.6,56.86 149.09,55.78 C145.65,53.38 141.74,52.86 137.68,52.95 C133.487001,53.1137581 129.482969,54.737301 126.36,57.54 C123.897946,59.4507765 121.544296,61.4972832 119.31,63.67 C118.275818,64.7828124 117.058098,65.7096325 115.71,66.41 C112.79,67.92 113.05,70.3 114.59,72.41 C115.532968,73.6124133 116.705731,74.6152106 118.04,75.36 C124.16,79.06 129.57,83.69 135.13,88.12 C135.7,88.57 136.22,89.06 136.87,89.62 C135.59,91.69 133.67,93.13 132.07,94.86 C131.52,95.45 131.07,94.97 130.62,94.67 C127.784583,92.738106 124.81732,91.0072031 121.74,89.49 C115.62,86.49 109.41,83.84 102.74,82.49 C100.641917,81.9840084 98.4972312,81.6958162 96.34,81.63 C95.29,81.63 94.72,81.41 94.74,80.17 C94.79,76.17 94.74,72.17 94.74,68.17 C94.74,67.28 94.99,66.81 95.96,66.87 C96.75,66.87 97.56,66.87 98.36,66.87 C101.36,66.79 103.12,65.23 103.54,62.32 C104.17,57.96 103.34,56.76 98.9,56.51 C94.46,56.26 89.79,56.2 85.24,56.28 C80.93,56.36 78.59,60.93 80.72,64.8 C81.2121587,65.741773 82.1873833,66.3315333 83.25,66.33 C84.45,66.4 85.64,66.48 86.84,66.53 C87.7,66.53 88.11,66.89 88.1,67.84 C88.1,72 88.1,76.1566667 88.1,80.31 C88.1,81.21 87.83,81.57 86.87,81.61 C77.3,82.07 68.42,85.17 59.75,88.94 C55.6037176,90.845375 51.7351041,93.3044676 48.25,96.25 C46.88,97.37 46.85,97.35 45.65,95.98 C44.6,94.78 43.57,93.56 42.4,92.19 C44.0102087,90.5505621 45.7129973,89.0046972 47.5,87.56 C52.867688,83.0228498 58.5155102,78.8278973 64.41,75 C65.5708066,74.2924017 66.5884358,73.3731433 67.41,72.29 C69.08,70.06 68.65,67.78 66.23,66.46 C64.8360283,65.6817647 63.5626931,64.7048673 62.45,63.56 C59.6473847,60.8291762 56.6384752,58.3184084 53.45,56.05 C49.54,53.13 45.11,52.7 40.45,53.05 C36.6999966,53.48757 33.1623788,55.0215813 30.28,57.46 C29.58,58 28.87,58.46 28.12,59.05 C28.06,58.77 27.94,58.59 27.99,58.48 C29.49,55 29.51,51.33 29.47,47.64 C29.47,43.48 29.56,39.32 29.47,35.16 C29.257621,31.6503513 30.9749149,28.3039283 33.95,26.43 C38.3550639,23.5220614 43.1356662,21.2276415 48.16,19.61 C55.16,17.11 62.54,15.93 69.79,14.36 C83.7589473,11.4067342 98.1910527,11.4067342 112.16,14.36 C119.1,15.86 126.16,17 132.88,19.31 C137.91459,20.895213 142.73178,23.1022518 147.22,25.88 C150.79,28.22 152.7,31.2 152.46,35.65 C152.22,40.1 152.46,44.76 152.4,49.32 C152.282579,52.2048746 152.727511,55.0850407 153.71,57.8 C153.888938,58.1503018 153.845888,58.5729675 153.6,58.88 L153.6,58.86 Z M173.1,73 C171.848483,73.3824103 170.489049,73.1284502 169.46,72.32 C166.17,69.52 162.57,67.01 159.69,63.84 C156.498923,60.1792762 154.778069,55.4656316 154.86,50.61 C154.79,45.41 154.73,40.21 154.86,35.01 C155.081958,30.7644456 152.999102,26.7286723 149.41,24.45 C144.64857,21.1998451 139.408772,18.7132184 133.88,17.08 C123.028849,13.6796482 111.867777,11.3616824 100.56,10.16 C89.9859849,9.04220283 79.3001259,9.67058404 68.93,12.02 C61.2,13.75 53.37,15.02 45.93,17.79 C41.5587349,19.3323651 37.3675781,21.3441204 33.43,23.79 C29.01,26.64 26.67,30.43 27.01,35.79 C27.16,38.18 27.01,40.59 27.01,42.99 C25.55,42.99 24.94,43.99 25.59,45.34 C27.72,49.64 27.13,53.2 25.99,56.78 C24.7913979,60.9562325 22.1926681,64.5930418 18.63,67.08 C16.5370078,68.6745851 14.5339402,70.3838695 12.63,72.2 C11.6176769,73.0396726 10.2678998,73.3511597 8.99,73.04 C7.66,72.83 7.29,71.89 8.06,70.78 C8.92672992,69.7257049 9.99834297,68.8582086 11.21,68.23 C13.087607,67.0123862 14.8634223,65.6445736 16.52,64.14 C18.3188587,62.6350036 19.5094276,60.527519 19.87,58.21 C20.6729131,53.9641731 21.1277581,49.6598683 21.23,45.34 C21.23,43.65 20.7,42.05 20.72,40.34 C20.8273818,37.9094018 20.6933925,35.4741457 20.32,33.07 C19.38,28.07 21.07,24.07 24.22,20.59 C27.53,16.97 31.75,14.75 36.22,12.88 C46.22,8.7 56.87,6.79 67.49,4.88 C79.246119,2.81651044 91.2244423,2.32554043 103.11,3.42 C114.17962,4.42536719 125.132774,6.45062954 135.83,9.47 C141.419523,10.9060301 146.798125,13.0641942 151.83,15.89 C155.293663,17.7749407 158.174634,20.5729066 160.16,23.98 C161.356535,25.9833005 161.953464,28.2877237 161.88,30.62 C161.65,34.62 161.55,38.62 160.98,42.57 C160.636456,45.5934562 160.683509,48.6485575 161.12,51.66 C161.33,53.57 161.62,55.47 161.9,57.37 C162.229614,59.9241189 163.434743,62.2848992 165.31,64.05 C167.538425,65.9937153 169.900933,67.7781269 172.38,69.39 C172.989647,69.7751811 173.519313,70.2742897 173.94,70.86 C174.59,71.94 174.32,72.77 173.1,73 Z" id="Shape" fill="#222222"></path>
            <path d="M110,115.32 C109.14,114.72 108.51,115.32 108,116 C107.714831,116.38519 107.451098,116.785797 107.21,117.2 C105.97,119.43 104.75,121.68 103.51,123.91 C99.96,130.33 96.82,136.99 92.73,143.11 C92,144.21 91.42,145.22 89.81,144.94 C88.9118489,144.846333 88.0192847,145.16222 87.38,145.8 C86.38,146.67 85.7,146.27 84.86,145.73 C82.91,144.48 80.92,143.31 78.99,142.03 C73.35,138.28 67.22,135.29 61.84,131.13 C61.17,130.62 60.36,130.28 59.72,131.13 C59.08,131.98 59.67,132.53 60.35,133.13 C62.9838112,135.206441 65.7793798,137.069039 68.71,138.7 C73.95,141.7 79.02,145.07 84.19,148.23 C84.89,148.66 85.28,149.1 85.13,149.94 C84.7853429,151.781267 85.3773708,153.673508 86.71,154.99 L88.47,155.99 C88.95,155.99 89.47,155.92 89.9,155.87 C94.9,155.34 97.02,151.2 94.48,146.87 C94.0171004,146.233058 94.0586711,145.360074 94.58,144.77 C96.79,141.35 98.9,137.87 100.79,134.26 C103.79,128.61 106.69,122.94 109.99,117.47 C110.39,116.69 110.86,115.94 110,115.32 Z M92.95,150.32 C92.83,152.45 91.64,153.53 89.62,153.37 C88.18,153.25 87.46,152.22 87.53,150.49 C87.62,148.43 88.65,147.41 90.92,147.44 C92.36,147.44 93,148.45 92.9,150.29 L92.95,150.32 Z" id="Shape" fill="#222222"></path>
            <path d="M91.43,190.08 C90.9,189.95 90.35,189.9 89.68,189.79 C89.8061015,189.147366 90.184235,188.581967 90.73,188.22 C91.33,187.67 91.62,187.05 91,186.37 C90.38,185.69 89.66,185.99 89.08,186.45 C87.6018666,187.581749 86.6514965,189.269288 86.45,191.12 C86.1769061,192.306091 86.4408974,193.552252 87.1714808,194.52572 C87.9020642,195.499189 89.0248418,196.100834 90.24,196.17 C91.0284445,196.361448 91.8610522,196.212649 92.5343796,195.75996 C93.2077069,195.307271 93.6597303,194.592392 93.78,193.79 C94.0587806,192.982232 93.9548504,192.0915 93.4975903,191.369613 C93.0403302,190.647725 92.2794317,190.173132 91.43,190.08 Z M90.43,193.7 C90.03,193.58 89.38,193.65 89.43,193.02 C89.48,192.39 90.07,192.45 90.52,192.45 C90.97,192.45 91.35,192.58 91.31,193.09 C91.27,193.6 90.94,193.72 90.47,193.7 L90.43,193.7 Z" id="Shape" fill="#222222"></path>
            <path d="M44.87,145.33 C43.2353016,144.991525 41.6261318,146.008308 41.23,147.63 C40.65,149.49 41.12,150.52 42.98,151.44 L43.98,151.9 C43.6524637,152.347222 43.1840095,152.671266 42.65,152.82 C42.3388841,152.917939 42.0859182,153.146635 41.9572028,153.446331 C41.8284874,153.746026 41.8368115,154.086943 41.98,154.38 C42.264945,154.98385 42.9584608,155.276763 43.59,155.06 C44.2150022,154.926087 44.7920862,154.625451 45.26,154.19 C46.9524457,152.803859 47.8995409,150.706191 47.82,148.52 C47.8498515,146.838152 46.5490469,145.431519 44.87,145.33 Z M44.68,149.33 C44.18,149.33 43.68,149.19 43.57,148.69 C43.5064638,148.458418 43.5642938,148.210414 43.7237085,148.03082 C43.8831232,147.851226 44.1225163,147.764384 44.36,147.8 C44.88,147.8 45.26,147.98 45.29,148.58 C45.31,149 45.2,149.33 44.68,149.33 Z" id="Shape" fill="#222222"></path>
            <path d="M134.91,146.56 C135.58,146.67 136.33,146.37 137.06,146.97 C136.65,147.51 136.21,147.39 135.84,147.47 C135.169578,147.529714 134.647484,148.077485 134.62,148.75 C134.62,149.5 135.14,149.8 135.83,150 C136.52,150.2 137.56,149.91 137.38,151 C137.24,151.84 136.26,151.71 135.56,151.75 C135.320397,151.757368 135.082317,151.7909 134.85,151.85 C134.372474,151.985336 134.044729,152.423694 134.05,152.92 C134.047798,153.416624 134.367355,153.857531 134.84,154.01 C136.77,154.84 139.84,153.42 139.9,151.36 C139.98,149.61 139.79,147.81 139.72,146.03 C139.629682,145.46414 139.250567,144.986456 138.72,144.77 C137.475548,144.173269 136.065932,144.014687 134.72,144.32 C134.435794,144.354625 134.177681,144.502744 134.004394,144.730655 C133.831107,144.958566 133.757383,145.246882 133.8,145.53 C133.859854,146.10286 134.33427,146.543084 134.91,146.56 Z" id="Shape" fill="#222222"></path>
            <path d="M90.18,99.56 C90.4,99.48 90.62,99.37 90.84,99.29 C91.2674257,99.0431369 91.8110367,99.145064 92.12,99.53 C92.3449137,99.9597567 92.2938743,100.481929 91.99,100.86 C91.52,101.75 90.62,102.16 89.88,102.75 C89.3,103.21 88.77,103.7 89.13,104.54 C89.49,105.38 90.07,105.31 91.02,105.27 C92.1911716,105.206807 93.3533631,105.029297 94.49,104.74 C95.49,104.58 95.94,103.49 95.22,103.05 C93.97,102.26 94.51,101.44 94.67,100.47 C95.0087997,99.1934205 94.4728554,97.8454395 93.35,97.15 C92.0459124,96.4887952 90.4911249,96.5570541 89.25,97.33 C88.74,97.73 88.25,98.22 88.59,98.94 C88.7079827,99.2420034 88.9469757,99.4808451 89.2490537,99.5986365 C89.5511317,99.7164279 89.8887212,99.7024172 90.18,99.56 Z" id="Shape" fill="#222222"></path>
            <path d="M85.69,105.1 C86.0161968,105.10303 86.3293355,104.972019 86.5561896,104.737603 C86.7830436,104.503187 86.9037204,104.185922 86.89,103.86 C86.94,101.95 86.94,100.03 86.89,98.12 C86.906689,97.7932798 86.7869914,97.4742941 86.559487,97.2392062 C86.3319825,97.0041183 86.0170916,96.8740292 85.69,96.88 C85.3641327,96.8727529 85.0507489,97.0053398 84.8290306,97.2442604 C84.6073123,97.4831809 84.4984683,97.8055809 84.53,98.13 C84.53,99.13 84.53,100.04 84.53,101 C84.53,102 84.53,102.91 84.53,103.87 C84.5012494,104.1919 84.6117033,104.510706 84.8334389,104.745822 C85.0551746,104.980938 85.3669689,105.109861 85.69,105.1 Z" id="Shape" fill="#222222"></path>
            <path d="M72,182.55 C71.6073273,182.239405 71.0526727,182.239405 70.66,182.55 C69.609415,183.509812 68.7860995,184.691833 68.25,186.01 C68.0657997,186.475204 68.2537732,187.004948 68.69,187.25 C69.0047257,187.51654 69.4583769,187.541062 69.8,187.31 C70.9061721,186.27322 71.8232215,185.051616 72.51,183.7 C72.5730768,183.250795 72.3752876,182.8048 72,182.55 Z" id="Shape" fill="#222222"></path>
            <path d="M115.83,106.64 C115.389992,106.402659 114.846685,106.479695 114.49,106.83 C113.548631,107.920495 112.86504,109.209065 112.49,110.6 C112.356792,111.088856 112.610259,111.600085 113.08,111.79 C113.403343,112.052778 113.866657,112.052778 114.19,111.79 C115.129516,110.580916 115.872012,109.230925 116.39,107.79 C116.35,107.2 116.26,106.82 115.83,106.64 Z" id="Shape" fill="#222222"></path>
            <path d="M53.21,168 C52.21,168.51 51.33,169.17 50.4,169.77 C49.82,170.15 49.4,170.63 49.78,171.35 C50.0913917,171.948639 50.8217035,172.192076 51.43,171.9 C52.6229589,171.458749 53.6952353,170.742757 54.56,169.81 C54.7146642,169.607865 54.8269084,169.376574 54.89,169.13 C54.9547207,168.701917 54.7669177,168.274872 54.4076736,168.033238 C54.0484295,167.791603 53.5820924,167.778661 53.21,168 Z" id="Shape" fill="#222222"></path>
            <path d="M111.11,184.29 C110.91608,183.912297 110.534198,183.667893 110.11,183.65 C109.24,183.74 108.78,184.27 108.97,185.1 C109.232449,186.096185 109.566656,187.072067 109.97,188.02 C110.058733,188.291176 110.253042,188.51513 110.508993,188.641223 C110.764944,188.767316 111.06092,188.784901 111.33,188.69 C111.649002,188.61964 111.920815,188.412335 112.07304,188.123301 C112.225264,187.834267 112.242443,187.492854 112.12,187.19 C111.83852,186.204988 111.50131,185.236761 111.11,184.29 Z" id="Shape" fill="#222222"></path>
            <path d="M47.75,128 C48.6127899,128.399777 49.4975416,128.750339 50.4,129.05 C50.954781,129.256495 51.5734903,128.986915 51.8,128.44 C52.0871181,127.925683 51.9091656,127.276157 51.4,126.98 C50.5460231,126.376001 49.5752906,125.957053 48.55,125.75 C47.93,125.75 47.29,125.7 47.01,126.47 C46.8864493,126.769994 46.8965739,127.108419 47.0378372,127.400491 C47.1791005,127.692562 47.4381187,127.910607 47.75,128 Z" id="Shape" fill="#222222"></path>
            <path d="M64,111.47 C64.17,111.7 64.53,111.78 64.68,111.86 C65.067016,111.89776 65.4472072,111.739093 65.6925669,111.437421 C65.9379266,111.135749 66.015812,110.731207 65.9,110.36 C65.4889977,109.317876 64.8774371,108.366559 64.1,107.56 C63.9311315,107.325809 63.6692828,107.176036 63.3818076,107.149204 C63.0943323,107.122373 62.8092899,107.221104 62.6,107.42 C62.3533969,107.56888 62.1772388,107.810901 62.1113668,108.091328 C62.0454948,108.371754 62.0954737,108.666895 62.25,108.91 C62.7882953,109.793264 63.3724268,110.647765 64,111.47 Z" id="Shape" fill="#222222"></path>
            <path d="M129.21,128.8 C129.031867,129.075957 129.000606,129.421796 129.126369,129.725222 C129.252131,130.028649 129.518879,130.250971 129.84,130.32 C130.76,130.63 133.19,128.86 133.22,127.88 C133.258852,127.554448 133.135653,127.230531 132.890276,127.013083 C132.644899,126.795635 132.308517,126.712282 131.99,126.79 C130.808478,127.008456 129.787744,127.746468 129.21,128.8 Z" id="Shape" fill="#222222"></path>
            <path d="M125,171.45 C124.689957,171.556004 124.451515,171.807174 124.361762,172.122306 C124.27201,172.437437 124.342334,172.776547 124.55,173.03 C125.193092,173.943138 126.139153,174.598648 127.22,174.88 C127.96,175.05 128.42,174.63 128.57,173.88 C128.63,172.77 126,171 125,171.45 Z" id="Shape" fill="#222222"></path>
            <path d="M144.62,136.51 C143.654271,133.886651 142.895288,131.19176 142.35,128.45 C141.836586,126.023195 140.909752,123.702728 139.61,121.59 C136.18552,116.172264 131.961044,111.303834 127.08,107.15 C125.08,105.36 123.18,103.31 120.79,101.98 C114.12,98.24 107.58,94.39 99.55,93.84 C92.2,93.33 84.99,92.65 77.67,94.53 C69.89,96.53 62.73,99.46 56.44,104.53 C51.58,108.53 46.9,112.53 43.36,117.76 C41.7937949,120.079217 40.4288205,122.528142 39.28,125.08 C37.4713732,128.8256 36.1892369,132.803251 35.47,136.9 C34.9358405,141.023927 34.7218674,145.183029 34.83,149.34 C35.03,154.46 35.27,159.82 37.08,164.95 C38.45635,168.703174 40.1282607,172.341251 42.08,175.83 C45.87,182.83 50.59,188.94 57.49,193.12 C57.6986364,193.246145 57.8960311,193.390009 58.08,193.55 C62.08,197.04 66.85,199 71.77,200.7 C75.97,202.14 80.4,202.32 84.7,203.15 C88.2547392,203.731254 91.8736529,203.808682 95.45,203.38 C98.774153,202.93648 102.067266,202.285205 105.31,201.43 C115.79,199.14 124.09,193.27 131.31,185.59 C134.062624,182.685225 136.370889,179.389628 138.16,175.81 C141.05,169.95 144.16,164.24 145.32,157.63 C146.082904,153.141991 146.264398,148.574392 145.86,144.04 C145.59,141.54 145.56,138.94 144.62,136.51 Z M47.01,126.51 C47.29,125.74 47.93,125.75 48.55,125.79 C49.5752906,125.997053 50.5460231,126.416001 51.4,127.02 C51.9091656,127.316157 52.0871181,127.965683 51.8,128.48 C51.5734903,129.026915 50.954781,129.296495 50.4,129.09 C49.4975416,128.790339 48.6127899,128.439777 47.75,128.04 C47.4362942,127.952851 47.174821,127.735727 47.031512,127.443376 C46.888203,127.151026 46.8767351,126.81135 47,126.51 L47.01,126.51 Z M45.22,154.19 C44.7520862,154.625451 44.1750022,154.926087 43.55,155.06 C42.9184608,155.276763 42.224945,154.98385 41.94,154.38 C41.7968115,154.086943 41.7884874,153.746026 41.9172028,153.446331 C42.0459182,153.146635 42.2988841,152.917939 42.61,152.82 C43.1440095,152.671266 43.6124637,152.347222 43.94,151.9 L42.94,151.44 C41.08,150.52 40.61,149.49 41.19,147.63 C41.5861318,146.008308 43.1953016,144.991525 44.83,145.33 C46.4932046,145.451865 47.7710138,146.852625 47.74,148.52 C47.829273,150.699394 46.8975168,152.795846 45.22,154.19 Z M54.56,169.82 C53.6952353,170.752757 52.6229589,171.468749 51.43,171.91 C50.8217035,172.202076 50.0913917,171.958639 49.78,171.36 C49.42,170.64 49.78,170.16 50.4,169.78 C51.33,169.18 52.23,168.52 53.21,168.01 C53.5820924,167.788661 54.0484295,167.801603 54.4076736,168.043238 C54.7669177,168.284872 54.9547207,168.711917 54.89,169.14 C54.8269084,169.386574 54.7146642,169.617865 54.56,169.82 Z M89.25,97.33 C90.4911249,96.5570541 92.0459124,96.4887952 93.35,97.15 C94.4728554,97.8454395 95.0087997,99.1934205 94.67,100.47 C94.51,101.47 93.97,102.26 95.22,103.05 C95.94,103.49 95.5,104.58 94.49,104.74 C93.3533631,105.029297 92.1911716,105.206807 91.02,105.27 C90.07,105.27 89.43,105.27 89.13,104.54 C88.83,103.81 89.3,103.21 89.88,102.75 C90.62,102.16 91.52,101.75 91.99,100.86 C92.2938743,100.481929 92.3449137,99.9597567 92.12,99.53 C91.8110367,99.145064 91.2674257,99.0431369 90.84,99.29 C90.62,99.37 90.4,99.48 90.18,99.56 C89.8887212,99.7024172 89.5511317,99.7164279 89.2490537,99.5986365 C88.9469757,99.4808451 88.7079827,99.2420034 88.59,98.94 C88.27,98.22 88.74,97.73 89.25,97.33 Z M84.51,101 C84.51,100 84.51,99.09 84.51,98.13 C84.4784683,97.8055809 84.5873123,97.4831809 84.8090306,97.2442604 C85.0307489,97.0053398 85.3441327,96.8727529 85.67,96.88 C85.9970916,96.8740292 86.3119825,97.0041183 86.539487,97.2392062 C86.7669914,97.4742941 86.886689,97.7932798 86.87,98.12 C86.92,100.03 86.92,101.95 86.87,103.86 C86.8837204,104.185922 86.7630436,104.503187 86.5361896,104.737603 C86.3093355,104.972019 85.9961968,105.10303 85.67,105.1 C85.3435573,105.115778 85.0262721,104.989446 84.8000161,104.753602 C84.5737601,104.517759 84.4606965,104.195507 84.49,103.87 C84.48,102.91 84.51,102 84.51,101 Z M62.57,107.42 C62.7792899,107.221104 63.0643323,107.122373 63.3518076,107.149204 C63.6392828,107.176036 63.9011315,107.325809 64.07,107.56 C64.8474371,108.366559 65.4589977,109.317876 65.87,110.36 C65.985812,110.731207 65.9079266,111.135749 65.6625669,111.437421 C65.4172072,111.739093 65.037016,111.89776 64.65,111.86 C64.5,111.78 64.14,111.7 63.97,111.47 C63.3424268,110.647765 62.7582953,109.793264 62.22,108.91 C62.0654737,108.666895 62.0154948,108.371754 62.0813668,108.091328 C62.1472388,107.810901 62.3233969,107.56888 62.57,107.42 Z M69.8,187.35 C69.4583769,187.581062 69.0047257,187.55654 68.69,187.29 C68.2537732,187.044948 68.0657997,186.515204 68.25,186.05 C68.7860995,184.731833 69.609415,183.549812 70.66,182.59 C71.0526727,182.279405 71.6073273,182.279405 72,182.59 C72.3897856,182.851394 72.5895325,183.31747 72.51,183.78 C71.819311,185.117382 70.9024578,186.325193 69.8,187.35 Z M93.8,193.79 C93.6797303,194.592392 93.2277069,195.307271 92.5543796,195.75996 C91.8810522,196.212649 91.0484445,196.361448 90.26,196.17 C89.0448418,196.100834 87.9220642,195.499189 87.1914808,194.52572 C86.4608974,193.552252 86.1969061,192.306091 86.47,191.12 C86.6714965,189.269288 87.6218666,187.581749 89.1,186.45 C89.68,185.99 90.39,185.67 91.02,186.37 C91.65,187.07 91.35,187.67 90.75,188.22 C90.204235,188.581967 89.8261015,189.147366 89.7,189.79 C90.37,189.9 90.92,189.95 91.45,190.08 C92.2957979,190.178639 93.0512427,190.65549 93.5041241,191.376601 C93.9570056,192.097713 94.0584644,192.985288 93.78,193.79 L93.8,193.79 Z M100.8,134.2 C98.91,137.81 96.8,141.29 94.59,144.71 C94.0686711,145.300074 94.0271004,146.173058 94.49,146.81 C97.03,151.13 94.88,155.27 89.91,155.81 C89.44,155.86 88.96,155.89 88.48,155.93 C86.28,160.25 84.13,164.6 81.87,168.93 C80.23,172.03 78.45,175.05 76.72,178.1 C76.4639191,178.594126 76.1518696,179.057167 75.79,179.48 C75.6109229,179.752383 75.329519,179.94099 75.0095151,180.003108 C74.6895112,180.065227 74.35798,179.995601 74.09,179.81 C73.8185746,179.628592 73.6344345,179.342841 73.5813783,179.020714 C73.5283222,178.698587 73.6110918,178.368875 73.81,178.11 C74.24,177.35 74.7,176.6 75.14,175.85 C78.36,170.336667 81.3833333,164.723333 84.21,159.01 C84.83332,157.554124 85.6801912,156.204529 86.72,155.01 C85.3873708,153.693508 84.7953429,151.801267 85.14,149.96 C85.29,149.12 84.9,148.68 84.2,148.25 C79.03,145.09 73.96,141.77 68.72,138.72 C65.7893798,137.089039 62.9938112,135.226441 60.36,133.15 C59.68,132.59 59.07,132.04 59.73,131.15 C60.39,130.26 61.18,130.66 61.85,131.15 C67.23,135.31 73.36,138.3 79,142.05 C80.93,143.33 82.92,144.5 84.87,145.75 C85.71,146.29 86.43,146.69 87.39,145.82 C88.0292847,145.18222 88.9218489,144.866333 89.82,144.96 C91.43,145.24 92.01,144.23 92.74,143.13 C96.83,137.01 99.97,130.35 103.52,123.93 C104.76,121.7 105.98,119.45 107.22,117.22 C107.461098,116.805797 107.724831,116.40519 108.01,116.02 C108.5,115.32 109.13,114.74 110.01,115.34 C110.89,115.94 110.45,116.71 110.01,117.43 C106.66,122.88 103.73,128.55 100.76,134.2 L100.8,134.2 Z M111.4,188.69 C111.123407,188.797141 110.814576,188.783488 110.548516,188.652359 C110.282456,188.521229 110.083511,188.28462 110,188 C109.596656,187.052067 109.262449,186.076185 109,185.08 C108.81,184.25 109.27,183.72 110.14,183.63 C110.564198,183.647893 110.94608,183.892297 111.14,184.27 C111.527921,185.216973 111.861791,186.185196 112.14,187.17 C112.269835,187.473653 112.257719,187.81935 112.106944,188.113169 C111.956169,188.406987 111.682393,188.618412 111.36,188.69 L111.4,188.69 Z M114.27,111.76 C113.946657,112.022778 113.483343,112.022778 113.16,111.76 C112.690259,111.570085 112.436792,111.058856 112.57,110.57 C112.94504,109.179065 113.628631,107.890495 114.57,106.8 C114.926685,106.449695 115.469992,106.372659 115.91,106.61 C116.34,106.79 116.43,107.17 116.51,107.75 C115.968379,109.199548 115.198682,110.55327 114.23,111.76 L114.27,111.76 Z M127.27,174.88 C126.189153,174.598648 125.243092,173.943138 124.6,173.03 C124.392334,172.776547 124.32201,172.437437 124.411762,172.122306 C124.501515,171.807174 124.739957,171.556004 125.05,171.45 C126.05,170.97 128.67,172.77 128.62,173.89 C128.43,174.63 128,175.05 127.23,174.88 L127.27,174.88 Z M129.88,130.32 C129.558879,130.250971 129.292131,130.028649 129.166369,129.725222 C129.040606,129.421796 129.071867,129.075957 129.25,128.8 C129.82999,127.750293 130.850369,127.016207 132.03,126.8 C132.348517,126.722282 132.684899,126.805635 132.930276,127.023083 C133.175653,127.240531 133.298852,127.564448 133.26,127.89 C133.19,128.86 130.76,130.63 129.84,130.32 L129.88,130.32 Z M139.94,151.32 C139.84,153.38 136.81,154.8 134.88,153.97 C134.407355,153.817531 134.087798,153.376624 134.09,152.88 C134.084729,152.383694 134.412474,151.945336 134.89,151.81 C135.122317,151.7509 135.360397,151.717368 135.6,151.71 C136.3,151.71 137.28,151.8 137.42,150.96 C137.6,149.9 136.47,150.16 135.87,149.96 C135.27,149.76 134.64,149.46 134.66,148.71 C134.687484,148.037485 135.209578,147.489714 135.88,147.43 C136.25,147.35 136.69,147.43 137.1,146.93 C136.37,146.33 135.62,146.63 134.95,146.52 C134.367722,146.496413 133.895129,146.041006 133.85,145.46 C133.807383,145.176882 133.881107,144.888566 134.054394,144.660655 C134.227681,144.432744 134.485794,144.284625 134.77,144.25 C136.115932,143.944687 137.525548,144.103269 138.77,144.7 C139.300567,144.916456 139.679682,145.39414 139.77,145.96 C139.79,147.78 140,149.58 139.9,151.33 L139.94,151.32 Z" id="Shape" fill="#FFFFFF"></path>
            <path d="M173.91,70.88 C173.489313,70.2942897 172.959647,69.7951811 172.35,69.41 C169.870933,67.7981269 167.508425,66.0137153 165.28,64.07 C163.404743,62.3048992 162.199614,59.9441189 161.87,57.39 C161.59,55.49 161.3,53.59 161.09,51.68 C160.653509,48.6685575 160.606456,45.6134562 160.95,42.59 C161.52,38.59 161.62,34.59 161.85,30.64 C161.923464,28.3077237 161.326535,26.0033005 160.13,24 C158.144634,20.5929066 155.263663,17.7949407 151.8,15.91 C146.768125,13.0841942 141.389523,10.9260301 135.8,9.49 C125.102774,6.47062954 114.14962,4.44536719 103.08,3.44 C91.1944423,2.34554043 79.216119,2.83651044 67.46,4.9 C56.84,6.82 46.24,8.73 36.19,12.9 C31.72,14.77 27.5,16.99 24.19,20.61 C20.7,24.43 19,28.94 20.69,34.75 C21.0909365,36.1566193 21.1390211,37.6403728 20.83,39.07 C20.37,41.25 21.18,43.22 21.2,45.34 C21.0977581,49.6598683 20.6429131,53.9641731 19.84,58.21 C19.4794276,60.527519 18.2888587,62.6350036 16.49,64.14 C14.8334223,65.6445736 13.057607,67.0123862 11.18,68.23 C9.96834297,68.8582086 8.89672992,69.7257049 8.03,70.78 C7.26,71.89 7.63,72.83 8.96,73.04 C10.5601346,73.451779 12.2499762,72.8502429 13.23,71.52 C14.1871343,70.1696852 15.4169668,69.0352413 16.84,68.19 C22.84,64.83 25.71,59.65 26.9,52.95 C26.9630722,52.573197 26.996508,52.1920293 27,51.81 C27,48.87 27,45.93 27,42.99 C27,40.59 27.12,38.18 27,35.79 C26.66,30.43 29,26.64 33.42,23.79 C37.3575781,21.3441204 41.5487349,19.3323651 45.92,17.79 C55.76,14.14 66.26,13.08 76.3,10.16 C79.0241482,9.3511321 81.8594322,8.9798449 84.7,9.06 C101.383438,9.45003393 117.933095,12.1421294 133.88,17.06 C139.408772,18.6932184 144.64857,21.1798451 149.41,24.43 C152.999102,26.7086723 155.081958,30.7444456 154.86,34.99 C154.72,40.19 154.78,45.39 154.86,50.59 C154.778069,55.4456316 156.498923,60.1592762 159.69,63.82 C162.57,66.99 166.17,69.5 169.46,72.3 C170.489049,73.1084502 171.848483,73.3624103 173.1,72.98 C174.32,72.77 174.59,71.94 173.91,70.88 Z" id="Shape" fill="#FFFFFF"></path>
            <path d="M98.64,64.42 C100.39,64.21 101.2,62.92 101.11,60.71 C101.04,59.25 100.88,59.06 98.64,58.99 C94.34,58.84 90.04,58.73 85.75,58.7 C83.04,58.7 82.45,59.41 82.54,62.18 C82.54,63.79 82.64,63.86 84.32,63.97 C86.55,64.12 88.77,64.24 91,64.37 L91,64.47 L95.54,64.47 C96.5734879,64.5084126 97.6082885,64.4917222 98.64,64.42 Z" id="Shape" fill="#FFFFFF"></path>
            <path d="M48.41,202 C47.5362055,206.467729 47.0842183,211.00769 47.06,215.56 C47.0499476,215.877712 47.0904528,216.195003 47.18,216.5 C47.271254,216.927324 47.5948988,217.267113 48.0172785,217.379043 C48.4396583,217.490974 48.889101,217.356053 49.18,217.03 C49.5566838,216.620984 49.8916721,216.175449 50.18,215.7 C52.2201969,212.625741 54.0767721,209.4335 55.74,206.14 L48.74,201.14 C48.6052033,201.416526 48.4947848,201.704283 48.41,202 Z" id="Shape" fill="#FFFFFF"></path>
            <path d="M122.4,207.45 C121.75,207.81 121.4,208.14 121.87,208.92 C123.528398,211.829227 125.382674,214.622334 127.42,217.28 C127.94,217.9 128.59,218.59 129.42,218.28 C130.25,217.97 130.04,217.07 130.07,216.37 C130.212876,211.843695 130.096017,207.312921 129.72,202.8 C127.40878,204.543984 124.960868,206.09901 122.4,207.45 Z" id="Shape" fill="#FFFFFF"></path>
            <path d="M91.39,66.78 C90.58,66.78 90.52,67.27 90.52,67.87 L90.52,80.51 C90.52,81.13 90.66,81.59 91.43,81.6 C92.2,81.61 92.3,81.09 92.3,80.5 C92.3,76.29 92.3,72.08 92.3,67.86 C92.3,67.24 92.16,66.79 91.39,66.78 Z" id="Shape" fill="#FFFFFF"></path>
            <path d="M44.49,99.2 C44.6,99.11 44.62,98.92 44.7,98.72 C43.85,97.72 42.99,96.66 42.1,95.65 C40.38,93.65 40.37,93.65 38.51,95.53 C38.4031125,95.6564245 38.315499,95.797954 38.25,95.95 C38.8811603,97.0522873 39.6619072,98.0618738 40.57,98.95 C42.36,101 42.39,101 44.49,99.2 Z" id="Shape" fill="#FFFFFF"></path>
            <path d="M11.81,64.65 C13.12,64.58 15.12,62.22 15,60.91 C14.9786762,60.3432223 14.6744638,59.8249346 14.19,59.53 C13.19,58.9 12.19,59.37 11.24,59.79 C10.3690875,60.0457646 9.8052831,60.8872638 9.9,61.79 C9.87,63.54 10.66,64.71 11.81,64.65 Z" id="Shape" fill="#FFFFFF"></path>
            <path d="M170.27,64.61 C170.841582,64.6041654 171.362244,64.2801981 171.62,63.77 C171.885116,63.190366 172.011786,62.5570143 171.99,61.92 C171.99,60.08 169.38,58.57 167.8,59.48 C167.387757,59.7263731 167.094881,60.1313377 166.99,60.6 C166.61,62.09 168.74,64.71 170.27,64.61 Z" id="Shape" fill="#FFFFFF"></path>
            <path d="M140.88,93.61 C140.5238,92.9887877 140.039801,92.4502545 139.46,92.03 C139.319187,91.8331479 139.092031,91.7163485 138.85,91.7163485 C138.607969,91.7163485 138.380813,91.8331479 138.24,92.03 L133.47,97.03 L135.85,98.89 C137.290205,96.9189865 138.981107,95.1440437 140.88,93.61 Z" id="Shape" fill="#FFFFFF"></path>
            <path d="M90.87,147.41 C88.6,147.41 87.57,148.41 87.48,150.46 C87.41,152.19 88.13,153.22 89.57,153.34 C91.57,153.5 92.78,152.42 92.9,150.29 C93,148.45 92.36,147.44 90.87,147.41 Z" id="Shape" fill="#FFFFFF"></path>
            <path d="M90.54,192.45 C90.09,192.45 89.47,192.4 89.45,193.02 C89.43,193.64 90.07,193.58 90.45,193.7 C90.83,193.82 91.28,193.57 91.31,193.09 C91.34,192.61 90.94,192.45 90.54,192.45 Z" id="Shape" fill="#FFFFFF"></path>
            <path d="M44.36,147.8 C44.1225163,147.764384 43.8831232,147.851226 43.7237085,148.03082 C43.5642938,148.210414 43.5064638,148.458418 43.57,148.69 C43.67,149.19 44.18,149.32 44.68,149.33 C45.18,149.34 45.31,149.01 45.29,148.58 C45.26,148 44.88,147.79 44.36,147.8 Z" id="Shape" fill="#FFFFFF"></path>
            <path d="M86.68,154.93 L88.44,155.93 C86.24,160.25 84.09,164.6 81.83,168.93 C80.19,172.03 78.41,175.05 76.68,178.1 C76.4239191,178.594126 76.1118696,179.057167 75.75,179.48 C75.5709229,179.752383 75.289519,179.94099 74.9695151,180.003108 C74.6495112,180.065227 74.31798,179.995601 74.05,179.81 C73.7785746,179.628592 73.5944345,179.342841 73.5413783,179.020714 C73.4883222,178.698587 73.5710918,178.368875 73.77,178.11 C74.2,177.35 74.66,176.6 75.1,175.85 C78.32,170.336667 81.3433333,164.723333 84.17,159.01 C84.7859105,157.52596 85.6330812,156.148886 86.68,154.93 Z" id="Shape" fill="#FD5F52"></path>
        </g>
    </g>
</svg>