<?xml version="1.0" encoding="UTF-8"?>
<svg width="178px" height="174px" viewBox="0 0 178 174" version="1.1" xmlns="http://www.w3.org/2000/svg" xmlns:xlink="http://www.w3.org/1999/xlink">
    <!-- Generator: Sketch 51.2 (57519) - http://www.bohemiancoding.com/sketch -->
    <title>Group 13</title>
    <desc>Created with Sketch.</desc>
    <defs></defs>
    <g id="Page-1" stroke="none" stroke-width="1" fill="none" fill-rule="evenodd">
        <g id="Group-13" fill-rule="nonzero">
            <path d="M176.71,145 C175.81,135.53 174.97,126.06 173.81,116.62 C172.63,107.02 171.61,97.39 170.51,87.78 C169.46,78.73 168.68,69.65 167.94,60.56 C167.36,53.4666667 166.62,46.39 165.72,39.33 C164.88,32.75 163.93,26.18 163.39,19.56 C162.95,14.07 162.69,8.56 161.8,3.09 C161.43,0.83 160.94,0.45 158.61,0.61 C146.32,1.48 134.05,2.5 121.82,3.95 C108.01,5.59 94.14,6.66 80.37,8.61 C73.8,9.54 67.18,10.11 60.58,10.81 C53.98,11.51 47.2,13.2 40.4,13.58 C38.89,13.66 38.4,14.15 38.31,15.68 C38.22,16.94 38.31,18.22 38.31,19.55 C37.580031,19.7976217 36.7998717,19.8594845 36.04,19.73 C34.28,19.73 32.52,19.67 30.76,19.73 C29.23,19.73 28.76,20.22 28.69,21.73 C28.69,22.29 28.69,22.85 28.69,23.41 C28.69,30.85 28.69,38.29 28.69,45.73 C28.69,47.73 28.69,47.8 26.69,48.27 C22.96,49.15 19.24,50.09 15.48,50.82 C11.08,51.67 6.78,52.9 2.41,53.82 C0.87,54.16 -0.23,55.17 0.64,57.18 C1.22822457,58.7545494 1.66356433,60.3820503 1.94,62.04 C3.64,70.17 5.25,78.33 7.23,86.4 C8.16,90.2 9.04,94.02 9.7,97.88 C11.21,106.62 12.84,115.34 15.21,123.88 C18.65,136.27 22.66,148.52 24.84,161.23 C25.08,162.62 25.93,163.77 26.9,163.89 C29.39,164.2 28.85,165.89 28.9,167.32 C28.9,168.12 28.9,168.92 28.9,169.72 C28.9,173.15 28.9,173.15 32.41,173.15 L147.61,173.15 C148.41,173.15 149.21,173.15 150.01,173.15 C152.48,173.25 152.48,173.26 152.48,170.69 C152.48,166.85 152.48,163.01 152.48,159.17 C152.48,158.08 152.86,157.52 153.95,157.45 C154.58,157.45 155.22,157.33 155.86,157.31 C162.42,157.08 168.86,156.03 175.44,155.48 C177.72,155.29 177.76,155.14 177.74,152.79 C177.65,150.17 177,147.6 176.71,145 Z M27.08,159.87 C25.6844816,152.489661 23.8952598,145.189236 21.72,138 C20.44,133.46 19.12,128.93 17.84,124.39 C15.4594589,115.511934 13.5402228,106.516557 12.09,97.44 C11.43,93.58 10.56,89.76 9.62,85.96 C7.62,77.81 6.01,69.57 4.27,61.36 C3.97,59.96 3.61,58.56 3.27,57.16 C3.06,56.16 3.79,56.21 4.4,56.04 C7.55,55.14 10.74,54.4 13.94,53.69 C26.1,50.96 38.25,48.13 50.41,45.41 C57.67,43.8 64.96,42.33 72.22,40.76 C74.014939,40.3650077 75.7874701,39.874307 77.53,39.29 C78.68,38.9 79.07,39.29 79.31,40.36 C80.3233333,44.8933333 81.37,49.41 82.45,53.91 C86.19,69.37 89.97,84.81 93.68,100.28 C95.95,109.77 97.73,119.35 99.39,128.96 C100.17,133.45 101.31,137.87 102.44,142.28 C102.78,143.61 102.32,144 101.25,144.28 C98.2562778,145.15723 95.2010693,145.809053 92.11,146.23 C88.5469914,146.734586 85.0198214,147.466073 81.55,148.42 C71.14,150.95 60.99,154.42 50.63,157.09 C45.29,158.47 39.87,159.51 34.46,160.55 C32.89,160.85 31.32,161.16 29.77,161.55 C27.59,162 27.45,162 27.08,159.84 L27.08,159.87 Z M149.74,168.58 C149.737354,169.131652 149.51567,169.659659 149.123718,170.04786 C148.731766,170.436062 148.201652,170.652659 147.65,170.65 L33.17,170.65 C31.06,170.65 31.06,170.65 31.04,168.65 C31.04,167.61 31.04,166.57 31.04,165.53 C31.0657382,164.301186 31.9741972,163.270191 33.19,163.09 C38.92,162.18 44.58,160.91 50.19,159.57 C57.49,157.84 64.56,155.24 71.83,153.37 C78.12,151.75 84.31,149.62 90.77,148.76 C95.2794232,148.188541 99.7232912,147.183899 104.04,145.76 C105.28,145.34 105.43,145.02 105.04,143.65 C102.762361,134.991349 100.939863,126.21933 99.58,117.37 C99.25,115.24 98.78,113.13 98.38,111.02 C98.0811835,110.197461 97.9092168,109.334256 97.87,108.46 C97.2657934,106.43273 96.8112383,104.363835 96.51,102.27 C96.1877563,101.464972 95.9921052,100.614901 95.93,99.75 C95.1449689,97.4102726 94.5759245,95.0035495 94.23,92.56 C93.8161456,91.8106387 93.6058305,90.9659305 93.62,90.11 C92.8934519,87.9326277 92.367922,85.6932681 92.05,83.42 C91.6724659,82.660402 91.4643396,81.8278966 91.44,80.98 C90.7600659,78.9003254 90.2287285,76.774976 89.85,74.62 C89.4544735,73.8354965 89.2263153,72.9773494 89.18,72.1 C88.4879251,69.8083725 87.9664993,67.4686415 87.62,65.1 C87.2255591,64.3296693 87.0231458,63.4754167 87.03,62.61 C86.47,60.9 85.6,59.26 85.66,57.38 C85.2567548,56.6284223 85.0633171,55.7821327 85.1,54.93 C83.9951872,51.5009291 83.1461923,47.9946473 82.56,44.44 C82.2221624,43.6798265 82.0680053,42.8508035 82.11,42.02 C81.6107789,40.6745041 81.2391441,39.2850587 81,37.87 C80.44,35.6 80.09,35.5 77.48,36.41 C74.4679222,37.4316807 71.3867596,38.2370605 68.26,38.82 C55.89,41.22 43.64,44.18 31.26,46.72 C31.18,46.72 31.1,46.72 30.89,46.65 L30.89,22 L146.66,22 C149.88,22 149.47,21.6 149.47,24.77 C149.47,53.77 149.36,82.69 149.52,111.65 C149.62,130.13 149.52,148.65 149.63,167.09 L149.74,168.58 Z M173.13,153.58 C166.52,154.08 159.95,155.11 153.31,155.36 C152.43,155.36 151.91,155.26 152,154.25 C152,153.86 152,153.45 152,153.05 L152,88.05 L151.91,88.05 L151.91,22.79 C151.91,20.64 151.39,20.09 149.28,20.02 C148.4,20.02 147.52,20.02 146.64,20.02 L43.47,20.02 C43.03,20.02 42.58,20.02 42.14,20.02 C41.2430335,20.0658398 40.4741485,19.3858433 40.41,18.49 C40.23,16.33 40.2,16.44 42.41,16.14 C47.24,15.5 52.04,14.68 56.88,14.06 C63.22,13.25 69.58,12.58 75.93,11.83 C80.45,11.29 84.93,10.68 89.49,10.18 C96.39,9.41 103.31,8.71 110.22,7.97 C118.4,7.09 126.58,6.16 134.77,5.31 C139.14,4.86 143.52,4.5 147.9,4.14 C151.01,3.89 154.13,3.8 157.23,3.46 C158.67,3.31 159.03,3.93 159.14,5.11 C159.38,7.76 159.66,10.39 159.9,13.04 C160.67,21.24 161.51,29.43 162.55,37.61 C163.883333,48.0166667 164.91,58.46 165.63,68.94 C165.98,73.94 166.5,78.84 167.08,83.77 C168.08,92.36 168.76,101 169.95,109.57 C171.45,120.42 172.34,131.33 173.57,142.2 C173.92,145.3 174.15,148.41 174.65,151.49 C175,153.28 174.92,153.41 173.13,153.54 L173.13,153.58 Z" id="Shape" fill="#222222"></path>
            <path d="M148.85,24.76 C148.85,21.61 149.25,22.01 146.05,22.01 L31,22.01 L31,46.52 C31.1173533,46.5553291 31.2379588,46.5787802 31.36,46.59 C43.63,44.06 55.8,41.12 68.1,38.74 C71.2058093,38.1556753 74.2666902,37.3536978 77.26,36.34 C79.86,35.44 80.2,35.53 80.76,37.79 C81.0004574,39.1972211 81.3686464,40.5796035 81.86,41.92 C89.3933333,41.92 96.92,41.92 104.44,41.92 C105.38,41.92 106.62,41.77 106.6,43.11 C106.58,44.45 105.37,44.31 104.42,44.31 L82.31,44.36 C82.8930925,47.8904806 83.73537,51.373231 84.83,54.78 L130.32,54.78 C131.04,54.78 131.75,54.78 132.46,54.83 C132.746204,54.8122445 133.02626,54.9182083 133.229026,55.1209744 C133.431792,55.3237405 133.537755,55.6037957 133.52,55.89 C133.560439,56.4870936 133.116107,57.0069622 132.52,57.06 C131.813656,57.1483793 131.101518,57.181813 130.39,57.16 L88.47,57.16 C87.47,57.16 86.4,57.16 85.37,57.22 C85.32,59.09 86.17,60.72 86.74,62.42 L92.63,62.42 C93.1,62.42 93.57,62.42 94.04,62.42 C94.6391739,62.4391928 95.1230947,62.9154431 95.1518575,63.5142339 C95.1806204,64.1130247 94.7445757,64.6334655 94.15,64.71 C93.6022522,64.7716199 93.0511398,64.7983405 92.5,64.79 L87.32,64.85 C87.6618643,67.1858078 88.1800105,69.4923943 88.87,71.75 L111.75,71.65 C112.145262,71.6527331 112.538516,71.7065114 112.92,71.81 C113.399035,71.9145942 113.752695,72.3210999 113.79,72.81 C113.829936,73.0911538 113.75647,73.3766514 113.585785,73.6036069 C113.415099,73.8305624 113.161195,73.9803585 112.88,74.02 C112.175781,74.1332883 111.463241,74.1868124 110.75,74.18 L89.53,74.24 C89.9099173,76.3816078 90.4412504,78.4935731 91.12,80.56 L129.45,80.61 C130.161268,80.5798208 130.873813,80.6099284 131.58,80.7 C131.869469,80.7229079 132.137832,80.8603692 132.325565,81.0818941 C132.513298,81.3034189 132.604881,81.5906942 132.58,81.88 C132.597755,82.1662043 132.491792,82.4462595 132.289026,82.6490256 C132.08626,82.8517917 131.806204,82.9577555 131.52,82.94 C130.97,82.99 130.41,82.94 129.86,82.94 L91.76,82.94 C92.079318,85.1990021 92.6014267,87.4246578 93.32,89.59 L97.09,89.59 C98,89.59 99,89.69 98.96,90.85 C98.92,92.01 97.88,91.99 96.96,92 L93.9,92.05 C94.2427973,94.4801314 94.8085163,96.8735581 95.59,99.2 C106.636667,99.2 117.68,99.2 128.72,99.2 C129.434587,99.1746338 130.150066,99.2047241 130.86,99.29 C131.447366,99.3214317 131.910337,99.8018733 131.92,100.39 C131.965994,100.98892 131.518775,101.512166 130.92,101.56 C130.295283,101.661653 129.662876,101.708498 129.03,101.7 L96.14,101.7 C96.4355795,103.780027 96.8834496,105.83555 97.48,107.85 L107.22,107.85 C107.53,107.85 107.85,107.85 108.17,107.85 C109.09,107.9 110.03,108.06 109.97,109.23 C109.91,110.23 109.03,110.4 108.2,110.4 L98,110.4 C98.4,112.5 98.87,114.59 99.2,116.71 C100.539691,125.503772 102.348944,134.219564 104.62,142.82 C104.97,144.17 104.84,144.5 103.62,144.91 C99.3095324,146.344062 94.8679789,147.348938 90.36,147.91 C83.95,148.77 77.82,150.91 71.58,152.49 C64.36,154.35 57.33,156.93 50.07,158.65 C44.43,159.99 38.77,161.25 33.07,162.17 C31.07,162.48 31.07,162.53 31.07,164.48 C31.07,165.48 31.07,166.57 31.07,167.61 C31.07,169.68 31.07,169.7 33.19,169.7 C71.11,169.7 109.03,169.7 146.95,169.7 C148.094858,169.700013 149.024496,168.774845 149.03,167.63 C149.03,167.16 149.03,166.68 149.03,166.2 C148.96,147.83 149.03,129.47 148.92,111.11 C148.74,82.33 148.86,53.54 148.85,24.76 Z M118.85,92.46 C116.77,92.46 114.69,92.46 112.61,92.46 C110.69,92.46 108.77,92.46 106.85,92.46 C106.295206,92.4689285 105.741318,92.4118613 105.2,92.29 C104.725911,92.1440792 104.402415,91.7060375 104.402415,91.21 C104.402415,90.7139625 104.725911,90.2759208 105.2,90.13 C105.736271,89.9966757 106.287451,89.9328194 106.84,89.94 C110.84,89.94 114.84,89.94 118.84,89.94 C119.84,89.94 121.07,89.73 121.3,91.2 C121.42,92.05 120.63,92.44 118.87,92.46 L118.85,92.46 Z M124.8,74.11 C123.401035,74.3950025 121.958965,74.3950025 120.56,74.11 C120.071014,73.9876206 119.749552,73.5204303 119.81,73.02 C119.803624,72.5246072 120.160942,72.0992284 120.65,72.02 C121.35,71.91 122.07,71.93 122.78,71.89 L122.78,71.98 C123.412848,71.9449518 124.047152,71.9449518 124.68,71.98 C125.211195,72.047877 125.618195,72.4853339 125.647628,73.0200388 C125.677062,73.5547437 125.320536,74.0342295 124.8,74.16 L124.8,74.11 Z M130.22,65.11 L101.22,65.16 C100.821086,65.196041 100.418956,65.1656278 100.03,65.07 C99.3788837,64.9343557 98.9427034,64.3193414 99.03,63.66 C99.1108576,63.0786774 99.6131777,62.6493439 100.2,62.66 C101,62.6 101.8,62.57 102.6,62.56 L130.18,62.56 C132.18,62.56 132.85,62.88 132.89,63.8 C132.93,64.72 132.18,65.07 130.24,65.07 L130.22,65.11 Z" id="Shape" fill="#FFFFFF"></path>
            <path d="M174.68,151.46 C174.18,148.38 173.95,145.27 173.6,142.17 C172.37,131.3 171.48,120.39 169.98,109.54 C168.79,100.97 168.12,92.33 167.11,83.74 C166.53,78.81 166.01,73.87 165.66,68.91 C164.913333,58.4433333 163.886667,48 162.58,37.58 C161.58,29.4 160.7,21.21 159.93,13.01 C159.69,10.36 159.41,7.73 159.17,5.08 C159.06,3.9 158.7,3.28 157.26,3.43 C154.16,3.77 151.04,3.86 147.93,4.11 C143.55,4.47 139.17,4.83 134.8,5.28 C126.61,6.13 118.43,7.06 110.25,7.94 C103.34,8.68 96.42,9.38 89.52,10.15 C84.99,10.65 80.52,11.26 75.96,11.8 C69.61,12.55 63.25,13.22 56.91,14.03 C52.07,14.65 47.27,15.47 42.44,16.11 C40.2,16.41 40.23,16.3 40.44,18.46 C40.5041485,19.3558433 41.2730335,20.0358398 42.17,19.99 C42.61,19.99 43.06,19.99 43.5,19.99 L146.67,19.99 C147.55,19.99 148.43,19.94 149.31,19.99 C151.42,20.06 151.94,20.61 151.94,22.76 L151.94,88 L152.03,88 L152.03,153 C152.03,153.4 152.03,153.81 152.03,154.2 C151.94,155.2 152.46,155.34 153.34,155.31 C159.98,155.06 166.55,154.03 173.16,153.53 C174.92,153.41 175,153.28 174.68,151.46 Z" id="Shape" fill="#FFFFFF"></path>
            <path d="M40.72,121.43 C43.1956977,121.580379 45.6792201,121.3202 48.07,120.66 C49.53,120.25 51.01,119.88 52.48,119.53 C54.21,119.13 55.66,119.4 56.48,121.25 C56.77,121.94 57.23,122.55 58.08,122.46 C59.08,122.35 59.28,121.46 59.33,120.67 C59.4539302,118.937759 60.6557755,117.471508 62.33,117.01 C63.2853157,116.608079 64.2677449,116.273919 65.27,116.01 C67.75,115.38 70.27,114.91 72.72,114.2 C75.63,113.35 76.89,111.5 76.85,108.26 C76.85,107.97 76.76,107.42 76.66,106.87 C75.041177,97.0923508 72.8202864,87.4239624 70.01,77.92 C69.11,75.09 68.53,72.2 67.84,69.32 C67.49,67.85 66.84,67.48 65.45,67.63 C65.06,67.63 64.68,67.83 64.29,67.92 C57.77,69.49 51.29,71.34 44.73,72.64 C39.24,73.72 33.91,75.45 28.51,76.91 C26.27,77.52 25.87,78.28 26.39,80.61 C26.5,81.07 26.61,81.54 26.75,82 C28.4610736,87.8280878 29.77739,93.7648752 30.69,99.77 C31.69,105.77 33.57,111.57 35.33,117.38 C36.22,120.49 37.46,121.24 40.72,121.43 Z M29.08,81.33 C28.65,79.5 28.65,79.52 30.51,78.93 C38.35,76.42 46.42,74.86 54.41,72.93 C57.28,72.24 60.14,71.5 63,70.77 C65.42,70.16 65.37,70.17 66,72.48 C67.09,76.65 68.17,80.82 69.4,84.95 C71.63,92.39 72.69,100.07 74.27,107.64 C74.33,107.95 74.33,108.27 74.35,108.41 C74.35,110.51 73.78,111.34 71.85,111.88 C69.4,112.56 66.85,113.02 64.42,113.66 C61.99,114.3 59.35,115.18 57.69,117.48 C57.6026324,117.660151 57.4359911,117.789035 57.2396602,117.828301 C57.0433294,117.867567 56.839936,117.812691 56.69,117.68 C54.64,116.43 52.53,116.97 50.43,117.49 C47.49,118.23 44.61,119.18 41.51,119.02 C38.63,118.87 38.33,118.7 37.43,115.96 C34.8950996,108.219454 33.0053134,100.282352 31.78,92.23 C31.2,88.53 30,85 29.08,81.33 Z" id="Shape" fill="#FFFFFF"></path>
            <path d="M79.69,131.42 C79.6,130.42 78.84,130.42 77.74,130.42 C77.21,130.55 76.36,130.73 75.51,130.96 C68.8,132.73 62.07,134.46 55.38,136.32 C51.46,137.41 47.6,138.71 43.72,139.94 C42.92,140.19 42.13,140.65 42.45,141.64 C42.77,142.63 43.62,142.57 44.45,142.27 C44.83,142.13 45.21,142.04 45.59,141.92 C52.3433333,139.693333 59.1733333,137.746667 66.08,136.08 C70.19,135.08 74.26,133.9 78.35,132.81 C79.09,132.63 79.76,132.33 79.69,131.42 Z" id="Shape" fill="#FFFFFF"></path>
            <path d="M48.09,135.27 L51.3,134.37 C57.3,132.71 63.3,131.043333 69.3,129.37 C70.21,129.12 71.3,129 71.11,127.62 C70.97,126.71 70.29,126.54 68.75,126.95 L68.52,127.02 C61.44,128.973333 54.36,130.92 47.28,132.86 C46.44,133.09 45.64,133.31 45.86,134.37 C46.05,135.27 46.84,135.34 48.09,135.27 Z" id="Shape" fill="#FFFFFF"></path>
            <path d="M48.15,57.59 C52.33,56.59 56.53,55.59 60.72,54.59 C62.98,54.05 65.24,53.59 67.49,53 C68.28,52.81 69.05,52.53 69.07,51.47 C68.9750933,51.0779502 68.7134051,50.7470511 68.353778,50.5643528 C67.9941508,50.3816546 67.5725915,50.3654492 67.2,50.52 C60.6,52.09 53.99,53.63 47.4,55.24 C45.69,55.66 45.07,56.36 45.45,57.13 C46.1,58.47 47.15,57.83 48.15,57.59 Z" id="Shape" fill="#FFFFFF"></path>
            <path d="M38.28,60.22 C39.13,60.06 40.14,59.74 39.9,58.56 C39.66,57.38 38.7,57.56 37.8,57.79 C31.8,59.37 25.8,60.92 19.8,62.49 C19.13,62.67 18.59,63.05 18.68,63.82 C18.77,64.59 19.48,64.91 20.29,64.91 C20.6800577,64.8694666 21.0673933,64.8060237 21.45,64.72 C23.67,64.11 25.89,63.43 28.13,62.86 C31.49,62 34.82,60.88 38.28,60.22 Z" id="Shape" fill="#FFFFFF"></path>
            <path d="M41.62,63.81 C41.78,64.57 42.36,64.81 43.07,64.73 C43.23,64.73 43.39,64.73 43.54,64.65 L60.9,60.26 C61.2866269,60.1673157 61.6621312,60.033207 62.02,59.86 C62.5770131,59.6781669 62.9026343,59.100732 62.77,58.53 C62.698639,58.2148095 62.5041591,57.9412622 62.2299024,57.7703214 C61.9556458,57.5993806 61.6244046,57.5452524 61.31,57.62 C60.9974039,57.6752467 60.6897486,57.7555046 60.39,57.86 C55.56,59.24 50.66,60.27 45.78,61.43 C44.69,61.68 43.63,62.02 42.57,62.37 C42.2489823,62.4273559 41.9655673,62.6139371 41.7859896,62.886139 C41.606412,63.158341 41.5464077,63.4923111 41.62,63.81 Z" id="Shape" fill="#FFFFFF"></path>
            <path d="M33.36,67.09 C33.9,66.94 34.44,66.81 34.96,66.61 C35.233309,66.5313215 35.463536,66.3461128 35.5989343,66.096002 C35.7343326,65.8458912 35.763543,65.5518615 35.68,65.28 C35.5697062,64.7044252 35.0442275,64.3038554 34.46,64.35 C34.1419325,64.3558409 33.825965,64.4028999 33.52,64.49 L25.46,66.69 C24.7,66.89 24.08,67.25 24.27,68.16 C24.43,68.9 25.05,69.1 26.08,69.05 L27.38,68.73 L33.36,67.09 Z" id="Shape" fill="#FFFFFF"></path>
            <path d="M67.32,145.36 C65.54,145.72 63.78,146.16 62.04,146.66 C61.7222091,146.735939 61.4528444,146.945715 61.301379,147.235225 C61.1499136,147.524735 61.1311764,147.865634 61.25,148.17 C61.3290563,148.486102 61.5342717,148.755961 61.8177582,148.916603 C62.1012446,149.077246 62.4382021,149.114618 62.75,149.02 C64.43,148.59 66.1,148.11 67.75,147.6 C68.3494133,147.439045 68.7324556,146.853722 68.64,146.24 C68.6192801,145.929878 68.4555371,145.647021 68.1969247,145.474613 C67.9383122,145.302205 67.6142357,145.259848 67.32,145.36 Z" id="Shape" fill="#FFFFFF"></path>
            <path d="M41.74,97.09 C40.7307203,97.5672104 39.6355406,97.8359036 38.52,97.88 C37.9326046,97.9175115 37.4857983,98.4224026 37.52,99.01 C37.5099309,99.5946737 37.9402239,100.093814 38.52,100.17 C39.2335499,100.296972 39.9670669,100.252412 40.66,100.04 C41.25,99.89 41.83,99.58 42.48,99.9 C42.39,100.57 41.57,101.19 42.32,101.9 C43.07,102.61 43.8,102.3 44.53,101.9 C44.87,101.7 45.21,101.48 45.53,101.25 C45.85,101.02 46.3,100.67 46.69,100.39 C47.08,100.11 47.4,99.54 47.85,100.15 C48.3,100.76 47.75,100.9 47.29,101.09 C46.9180803,101.236001 46.5783536,101.453427 46.29,101.73 C45.67,102.34 45.24,103.08 46.05,103.79 C46.86,104.5 47.47,103.85 48.05,103.3 C48.63,102.75 48.4,101.96 48.82,101.4 C54.37,103.34 54.37,103.34 57.33,99.93 C58.0122543,100.93395 59.2737313,101.369363 60.43,101 C60.9205552,100.873806 61.2634589,100.431527 61.2634589,99.925 C61.2634589,99.4184732 60.9205552,98.9761941 60.43,98.85 C59.6510907,98.6937633 58.8489093,98.6937633 58.07,98.85 C57.8632629,98.3315571 57.9636107,97.7410488 58.33,97.32 C59.33,97.5 60.33,97.73 61.33,97.86 C61.9096718,97.9572606 62.4682694,97.5978528 62.62,97.03 C62.83,96.39 62.46,95.98 61.96,95.65 C61.46,95.32 61.01,95.65 60.75,95.15 C60.86,94.76 61.19,94.7 61.49,94.61 C62.49,94.3 63.49,94.03 64.43,93.67 C64.703791,93.5893476 64.9334869,93.4016887 65.0671193,93.1494811 C65.2007517,92.8972735 65.2270268,92.601832 65.14,92.33 C64.98,91.69 64.45,91.52 63.84,91.53 C63.23,91.54 62.53,91.94 61.84,91.61 L64.27,88.89 C64.8,88.31 65.07,87.63 64.5,86.98 C63.93,86.33 63.22,86.64 62.64,87.14 C61.7205587,88.026948 60.7156702,88.82081 59.64,89.51 C59.48,89.65 59.29,89.86 59.1,89.66 C58.91,89.46 59.1,89.28 59.31,89.17 C59.5,88.82 59.69,88.47 59.89,88.17 C61.03,86.3366667 62.1733333,84.51 63.32,82.69 C63.71,82.08 63.86,81.48 63.26,80.97 C62.66,80.46 61.89,80.7 61.39,81.3 C60.9492458,81.8669084 60.560979,82.4727384 60.23,83.11 C58.8471085,85.4484553 57.2928539,87.681234 55.58,89.79 C55.3420579,90.0949277 54.9806943,90.2780701 54.59409,90.2896682 C54.2074858,90.3012664 53.8357934,90.1401156 53.58,89.85 C52.49,88.47 53.12,85.56 54.71,84.94 C55.46,84.65 56.38,84.54 56.31,83.5 C56.24,82.46 55.2,82.56 54.49,82.3 C54.37,82.3 54.29,82.09 54.16,81.93 C54.6844544,80.9419481 54.6844544,79.7580519 54.16,78.77 C54.0132126,78.2001769 53.4630341,77.8305257 52.88,77.91 C52.2214486,78.0271322 51.7772165,78.6490571 51.88,79.31 C51.8555761,80.6486329 52.6472057,81.8677425 53.88,82.39 C50.55,83.82 50.42,86.51 50.78,89.82 C49.49,88.32 48.92,86.82 47.64,86.21 C45.73,85.32 44.1,84.4 43.94,82 C43.8818004,81.7153666 43.7026939,81.4701141 43.4492768,81.3280469 C43.1958596,81.1859797 42.8931863,81.1611436 42.62,81.26 C42.0427962,81.3757897 41.6511932,81.9153316 41.72,82.5 C41.774504,83.1362552 41.9158147,83.76206 42.14,84.36 C42.39,85.01 42.74,85.46 42.3,86.31 C41.71,87.46 42.3,88.02 43.66,87.92 C45.7623013,87.6325772 47.7487802,88.9583266 48.29,91.01 C48.52,91.72 48.29,92.08 47.56,92.13 C46.06,92.22 45.96,93.13 46.26,94.32 C46.47,95.17 46.64,96.03 46.79,96.9 C46.87,97.39 46.55,97.63 46.1,97.66 C45.65,97.69 43.66,96.01 43.79,95.81 C44.2,95.16 42.73,94.81 43.74,93.97 C45.04,92.97 44.86,92.4 43.36,91.56 C41.1840894,90.5359524 39.2252378,89.1033088 37.59,87.34 C37.13,86.77 36.59,86.16 35.79,86.77 C34.99,87.38 35.22,88.22 35.79,88.9 C36.6779307,90.0389558 37.7614956,91.010778 38.99,91.77 L42.55,94.06 C40.6107969,94.2693093 38.6494701,94.0262828 36.82,93.35 C36.5288367,93.2028862 36.1894752,93.1840116 35.8837938,93.2979302 C35.5781125,93.4118487 35.3338717,93.6482148 35.21,93.95 C34.83,94.8 35.37,95.34 36.09,95.63 C37.4276824,96.1532329 38.8370996,96.4701831 40.27,96.57 C40.9,96.49 41.59,96.23 41.74,97.09 Z M61.29,91.72 C61.34,91.72 61.38,91.8 61.43,91.85 C61.48,91.9 61.31,91.95 61.27,91.94 C61.23,91.93 61.18,91.86 61.13,91.81 C61.08,91.76 61.25,91.71 61.29,91.72 Z M58.09,98.82 L57.9,99.11 C57.75,98.84 57.87,98.78 58.09,98.82 Z M56.65,91.21 C56.952141,91.1183426 57.2789639,91.2313184 57.46,91.49 C58.7,93 58.86,94.41 57.92,96.57 C57.1,94.98 57.03,93.27 56.38,91.75 C56.3280506,91.6436428 56.3286287,91.519152 56.3815638,91.4132819 C56.4344988,91.3074118 56.5337446,91.2322548 56.65,91.21 Z M52.52,93.15 C53.36,92.83 54.28,92.79 54.52,94.02 C54.76,95.25 55.05,96.18 55.28,97.1 C55.28,98.33 54.28,99.98 53.52,100.1 C52.76,100.22 50.15,99.23 49.87,98.36 C49.417221,97.3424646 49.1756785,96.2436164 49.16,95.13 C49.41,93.34 51.3,93.63 52.52,93.15 Z" id="Shape" fill="#FFFFFF"></path>
            <path d="M51,105.75 C51.42,105.24 52.31,104.82 51.58,103.99 C50.85,103.16 50.3,103.63 49.65,103.99 C48.3071996,104.800987 47.0623224,105.764005 45.94,106.86 C44.64,104.93 42.69,103.86 41.15,102.41 C40.9396752,102.215681 40.6561383,102.120848 40.3712279,102.14953 C40.0863175,102.178213 39.8273722,102.327657 39.66,102.56 C39.2248494,102.967726 39.1981152,103.649449 39.6,104.09 C41.3,105.59 42.6,107.69 45.18,107.88 L45.43,107.58 C45.53,107.83 45.55,108.01 45.18,107.88 C45.2540143,108.019385 45.2982819,108.172619 45.31,108.33 C45.18,109.14 45.03,110.01 46.11,110.26 C47.19,110.51 47.44,109.65 47.83,108.94 C48.3154955,107.774852 49.2651118,106.865105 50.45,106.43 L50.6,106.23 C50.86,106.99 50.37,107.7 50.22,108.41 C50.07,109.12 50.02,109.91 50.85,110.22 C51.85,110.58 52.34,109.92 52.57,109.08 C52.86,108.08 53.09,107 53.34,105.96 L50.81,105.96 C50.86,105.92 50.92,105.83 51,105.75 Z" id="Shape" fill="#FFFFFF"></path>
            <path d="M63.71,98.86 C63.3195702,98.967196 62.9708688,99.1903649 62.71,99.5 C62.06,100.29 62.55,101.23 62.71,102.28 C61.13,102.28 59.79,102.23 58.45,102.28 C57.8550975,102.3143 57.3849384,102.797345 57.3667319,103.392957 C57.3485254,103.988569 57.7883032,104.499428 58.38,104.57 L58.85,104.57 C60.71,104.75 62.66,104.23 64.42,105.32 C64.85,105.58 65.35,105.27 65.63,104.84 C65.9509085,104.445843 65.9250958,103.873661 65.57,103.51 C65.1234613,103.082415 64.6490895,102.684878 64.15,102.32 C64.92,101.59 66.26,101.15 65.46,99.69 C65.1573932,99.0233301 64.4177208,98.672514 63.71,98.86 Z" id="Shape" fill="#FFFFFF"></path>
            <path d="M58.11,105.53 C57.23,105.36 56.9,106.17 56.37,106.71 C56.18,106.27 56.09,106.05 55.99,105.83 C55.62,105 55.54,103.72 54.19,104.06 C53.11,104.33 53.29,105.2 53.35,105.99 C53.3600136,106.15318 53.3600136,106.31682 53.35,106.48 C53.89,106.79 53.84,107.42 54.04,107.91 C54.42,108.83 54.45,110.21 55.86,110.03 C57.27,109.85 56.5,108.46 56.86,107.56 C57.53,107.87 58.14,108.2 58.79,108.45 C59.3162066,108.714123 59.9568188,108.542147 60.28,108.05 C60.6016885,107.549927 60.4586477,106.883893 59.96,106.56 C59.4470506,106.05672 58.8079928,105.70092 58.11,105.53 Z" id="Shape" fill="#FFFFFF"></path>
            <path d="M48.79,83 C49.58,83 49.91,82.52 49.94,81.78 C49.94,80.72 49.13,79.64 48.35,79.78 C47.6957435,79.882502 47.2482022,80.4956335 47.35,81.15 C47.33,82.1 48,83 48.79,83 Z" id="Shape" fill="#FFFFFF"></path>
            <path d="M99.4,128.93 C97.74,119.32 95.96,109.74 93.69,100.25 C89.98,84.78 86.2,69.34 82.46,53.88 C81.38,49.3666667 80.3333333,44.85 79.32,40.33 C79.08,39.22 78.69,38.87 77.54,39.26 C75.7974701,39.844307 74.024939,40.3350077 72.23,40.73 C64.97,42.3 57.68,43.73 50.42,45.38 C38.26,48.1 26.11,50.93 13.95,53.66 C10.75,54.37 7.56,55.11 4.41,56.01 C3.8,56.18 3.07,56.17 3.28,57.13 C3.61,58.53 3.97,59.93 4.28,61.33 C6.02,69.54 7.62,77.78 9.63,85.93 C10.57,89.73 11.44,93.55 12.1,97.41 C13.5502228,106.486557 15.4694589,115.481934 17.85,124.36 C19.13,128.9 20.45,133.43 21.73,137.97 C23.9052598,145.159236 25.6944816,152.459661 27.09,159.84 C27.46,162.01 27.6,162.02 29.79,161.51 C31.34,161.14 32.91,160.83 34.48,160.51 C39.89,159.51 45.31,158.43 50.65,157.05 C61.01,154.36 71.16,150.91 81.57,148.38 C85.0398214,147.426073 88.5669914,146.694586 92.13,146.19 C95.2210693,145.769053 98.2762778,145.11723 101.27,144.24 C102.34,143.95 102.8,143.56 102.46,142.24 C101.32,137.84 100.18,133.42 99.4,128.93 Z M47.4,55.23 C53.99,53.62 60.6,52.08 67.2,50.51 C67.5725915,50.3554492 67.9941508,50.3716546 68.353778,50.5543528 C68.7134051,50.7370511 68.9750933,51.0679502 69.07,51.46 C69.07,52.52 68.28,52.8 67.49,52.99 C65.24,53.54 62.98,54.04 60.72,54.58 C56.53,55.58 52.33,56.58 48.15,57.58 C47.15,57.82 46.15,58.46 45.45,57.11 C45.07,56.35 45.69,55.65 47.4,55.23 Z M42.57,62.37 C43.63,62.02 44.69,61.68 45.78,61.43 C50.66,60.27 55.56,59.24 60.39,57.86 C60.6897486,57.7555046 60.9974039,57.6752467 61.31,57.62 C61.6244046,57.5452524 61.9556458,57.5993806 62.2299024,57.7703214 C62.5041591,57.9412622 62.698639,58.2148095 62.77,58.53 C62.9026343,59.100732 62.5770131,59.6781669 62.02,59.86 C61.6621312,60.033207 61.2866269,60.1673157 60.9,60.26 L43.54,64.65 C43.39,64.65 43.23,64.7 43.07,64.73 C42.36,64.73 41.78,64.57 41.62,63.81 C41.5464077,63.4923111 41.606412,63.158341 41.7859896,62.886139 C41.9655673,62.6139371 42.2489823,62.4273559 42.57,62.37 Z M21.41,64.72 C21.0273933,64.8060237 20.6400577,64.8694666 20.25,64.91 C19.44,64.91 18.74,64.73 18.64,63.82 C18.54,62.91 19.09,62.67 19.76,62.49 C25.76,60.92 31.76,59.37 37.76,57.79 C38.66,57.56 39.61,57.32 39.86,58.56 C40.11,59.8 39.09,60.06 38.24,60.22 C34.78,60.88 31.45,62 28.05,62.86 C25.85,63.43 23.63,64.11 21.41,64.72 Z M24.27,68.16 C24.08,67.25 24.7,66.89 25.46,66.69 L33.52,64.49 C33.825965,64.4028999 34.1419325,64.3558409 34.46,64.35 C35.0442275,64.3038554 35.5697062,64.7044252 35.68,65.28 C35.763543,65.5518615 35.7343326,65.8458912 35.5989343,66.096002 C35.463536,66.3461128 35.233309,66.5313215 34.96,66.61 C34.44,66.81 33.9,66.94 33.36,67.09 L27.36,68.73 L26.06,69.05 C25.05,69.1 24.43,68.9 24.27,68.16 Z M35.27,117.39 C33.51,111.58 31.62,105.8 30.63,99.78 C29.71739,93.7748752 28.4010736,87.8380878 26.69,82.01 C26.55,81.55 26.44,81.08 26.33,80.62 C25.81,78.29 26.21,77.53 28.45,76.92 C33.85,75.46 39.18,73.73 44.67,72.65 C51.26,71.35 57.67,69.5 64.23,67.93 C64.62,67.84 65,67.69 65.39,67.64 C66.82,67.49 67.39,67.86 67.78,69.33 C68.47,72.21 69.05,75.1 69.95,77.93 C72.7602864,87.4339624 74.981177,97.1023508 76.6,106.88 C76.7,107.43 76.75,107.98 76.79,108.27 C76.79,111.51 75.57,113.36 72.66,114.21 C70.21,114.92 67.66,115.39 65.21,116.02 C64.2077449,116.283919 63.2253157,116.618079 62.27,117.02 C60.5957755,117.481508 59.3939302,118.947759 59.27,120.68 C59.22,121.46 59.06,122.36 58.02,122.47 C57.17,122.56 56.71,121.95 56.42,121.26 C55.64,119.41 54.19,119.14 52.42,119.54 C50.95,119.89 49.47,120.26 48.01,120.67 C45.6192201,121.3302 43.1356977,121.590379 40.66,121.44 C37.46,121.24 36.22,120.49 35.28,117.39 L35.27,117.39 Z M69.27,129.39 C63.27,131.063333 57.27,132.73 51.27,134.39 L48.06,135.29 C46.81,135.36 46.06,135.29 45.84,134.41 C45.62,133.35 46.42,133.13 47.26,132.9 C54.34,130.966667 61.42,129.02 68.5,127.06 L68.73,126.99 C70.27,126.58 70.95,126.75 71.09,127.66 C71.33,129 70.22,129.14 69.31,129.39 L69.27,129.39 Z M67.72,147.6 C66.06,148.11 64.39,148.6 62.72,149.02 C62.4082021,149.114618 62.0712446,149.077246 61.7877582,148.916603 C61.5042717,148.755961 61.2990563,148.486102 61.22,148.17 C61.1011764,147.865634 61.1199136,147.524735 61.271379,147.235225 C61.4228444,146.945715 61.6922091,146.735939 62.01,146.66 C63.75,146.16 65.51,145.72 67.29,145.36 C67.5854622,145.256007 67.9125816,145.296463 68.1738068,145.469303 C68.435032,145.642144 68.6001795,145.927399 68.62,146.24 C68.71529,146.844924 68.347367,147.426756 67.76,147.6 L67.72,147.6 Z M78.31,132.83 C74.22,133.92 70.15,135.11 66.04,136.1 C59.1333333,137.773333 52.3033333,139.72 45.55,141.94 C45.17,142.06 44.79,142.15 44.41,142.29 C43.58,142.59 42.73,142.64 42.41,141.66 C42.09,140.68 42.88,140.21 43.68,139.96 C47.56,138.73 51.42,137.43 55.34,136.34 C62.03,134.48 68.76,132.75 75.47,130.98 C76.32,130.75 77.17,130.57 77.7,130.44 C78.8,130.44 79.56,130.44 79.65,131.44 C79.74,132.44 79.09,132.63 78.35,132.83 L78.31,132.83 Z" id="Shape" fill="#FE6054"></path>
            <path d="M133.36,55.11 C132.64,55.05 131.92,55.11 131.2,55.11 L85.43,55.11 C85.3933171,55.9621327 85.5867548,56.8084223 85.99,57.56 C86.99,57.56 88.07,57.5 89.11,57.5 L131.29,57.5 C132.004876,57.5268086 132.720739,57.493357 133.43,57.4 C134.026107,57.3469622 134.470439,56.8270936 134.43,56.23 C134.466932,55.9320559 134.368047,55.6332831 134.160658,55.4162022 C133.953268,55.1991212 133.659319,55.086704 133.36,55.11 Z" id="Shape" fill="#FE6054"></path>
            <path d="M131.75,100 C131.036324,99.9197083 130.31789,99.8896343 129.6,99.91 L96.26,99.91 C96.3221052,100.774901 96.5177563,101.624972 96.84,102.43 L129.94,102.43 C130.575901,102.441676 131.211616,102.39818 131.84,102.3 C132.437622,102.241877 132.880685,101.719062 132.84,101.12 C132.835025,100.515092 132.354551,100.021393 131.75,100 Z" id="Shape" fill="#FE6054"></path>
            <path d="M132.49,81.7 C131.776704,81.6148849 131.057914,81.584796 130.34,81.61 L91.77,81.61 C91.7955982,82.4577228 92.0036583,83.2899631 92.38,84.05 L130.71,84.05 C131.27,84.05 131.83,84.05 132.39,84.05 C132.678062,84.0680659 132.959881,83.9607867 133.163011,83.7557401 C133.366142,83.5506935 133.47077,83.2678795 133.45,82.98 C133.501476,82.6816217 133.427685,82.3752189 133.246013,82.1329901 C133.064342,81.8907612 132.790857,81.7341286 132.49,81.7 Z" id="Shape" fill="#FE6054"></path>
            <path d="M90.18,74.7 L111.53,74.64 C112.246409,74.6551361 112.962707,74.6049283 113.67,74.49 C114.258088,74.4023273 114.667413,73.8595259 114.59,73.27 C114.549544,72.782424 114.197288,72.3775324 113.72,72.27 C113.334853,72.1677925 112.938457,72.1140439 112.54,72.11 L89.54,72.21 C89.5810419,73.0749981 89.7988527,73.9224185 90.18,74.7 Z" id="Shape" fill="#FE6054"></path>
            <path d="M105.13,44.52 C106.13,44.52 107.32,44.61 107.33,43.31 C107.34,42.01 106.1,42.11 105.16,42.11 L82.44,42.11 C82.3980053,42.9408035 82.5521624,43.7698265 82.89,44.53 L105.13,44.52 Z" id="Shape" fill="#FE6054"></path>
            <path d="M109,108.54 C108.68,108.54 108.36,108.54 108,108.54 L98.21,108.54 C98.2491408,109.411013 98.421125,110.270934 98.72,111.09 L109,111.09 C109.83,111.09 110.72,110.93 110.78,109.92 C110.83,108.75 109.88,108.58 109,108.54 Z" id="Shape" fill="#FE6054"></path>
            <path d="M94.71,62.8 C94.24,62.75 93.76,62.8 93.29,62.75 L87.3599866,62.75 C87.358091,63.6180479 87.5601896,64.4743978 87.95,65.25 L93.17,65.18 C93.7209705,65.1968357 94.2724351,65.1734402 94.82,65.11 C95.4551275,65.0796243 95.9453757,64.5401275 95.915,63.905 C95.8846243,63.2698725 95.3451275,62.7796243 94.71,62.81 L94.71,62.8 Z" id="Shape" fill="#FE6054"></path>
            <path d="M99.62,91.43 C99.67,90.26 98.62,90.16 97.75,90.17 L93.95,90.17 C93.9358305,91.0259305 94.1461456,91.8706387 94.56,92.62 L97.65,92.57 C98.54,92.58 99.58,92.6 99.62,91.43 Z" id="Shape" fill="#FE6054"></path>
            <path d="M132.86,63.74 C132.86,62.82 132.14,62.5 130.15,62.5 L102.57,62.5 C101.77,62.5 100.97,62.5 100.17,62.6 C99.5831777,62.5893439 99.0808576,63.0186774 99,63.6 C98.9127034,64.2593414 99.3488837,64.8743557 100,65.01 C100.388956,65.1056278 100.791086,65.136041 101.19,65.1 L130.19,65.05 C132.18,65.07 132.89,64.7 132.86,63.74 Z" id="Shape" fill="#FE6054"></path>
            <path d="M106.87,92.46 C108.79,92.46 110.71,92.46 112.63,92.46 C114.71,92.46 116.79,92.46 118.87,92.46 C120.63,92.46 121.42,92.05 121.3,91.2 C121.07,89.73 119.85,89.94 118.84,89.94 C114.84,89.94 110.84,89.94 106.84,89.94 C106.287451,89.9328194 105.736271,89.9966757 105.2,90.13 C104.725911,90.2759208 104.402415,90.7139625 104.402415,91.21 C104.402415,91.7060375 104.725911,92.1440792 105.2,92.29 C105.747832,92.4134487 106.30853,92.4705257 106.87,92.46 Z" id="Shape" fill="#FE6054"></path>
            <path d="M122.8,71.92 L122.8,71.83 C122.09,71.83 121.37,71.83 120.67,71.96 C120.180942,72.0392284 119.823624,72.4646072 119.83,72.96 C119.769552,73.4604303 120.091014,73.9276206 120.58,74.05 C121.978965,74.3350025 123.421035,74.3350025 124.82,74.05 C125.340536,73.9242295 125.697062,73.4447437 125.667628,72.9100388 C125.638195,72.3753339 125.231195,71.937877 124.7,71.87 C124.066229,71.8515936 123.431925,71.8682858 122.8,71.92 Z" id="Shape" fill="#FE6054"></path>
            <path d="M50.42,117.51 C52.52,116.99 54.63,116.45 56.68,117.7 C56.829936,117.832691 57.0333294,117.887567 57.2296602,117.848301 C57.4259911,117.809035 57.5926324,117.680151 57.68,117.5 C59.34,115.2 61.84,114.36 64.41,113.68 C66.98,113 69.41,112.58 71.84,111.9 C73.77,111.36 74.3,110.53 74.34,108.43 C74.34,108.29 74.34,107.97 74.26,107.66 C72.68,100.09 71.62,92.41 69.39,84.97 C68.16,80.84 67.08,76.67 65.99,72.5 C65.38,70.19 65.43,70.18 62.99,70.79 C60.13,71.52 57.27,72.26 54.4,72.95 C46.4,74.86 38.34,76.42 30.5,78.95 C28.64,79.54 28.64,79.52 29.07,81.35 C29.94,85 31.19,88.55 31.76,92.27 C32.9853134,100.322352 34.8750996,108.259454 37.41,116 C38.31,118.74 38.61,118.91 41.49,119.06 C44.6,119.2 47.48,118.25 50.42,117.51 Z M50.83,110.26 C50,109.95 50.04,109.26 50.2,108.45 C50.36,107.64 50.95,106.87 50.45,106 L53.32,106 C53.07,107 52.84,108.09 52.55,109.12 C52.32,110 51.81,110.62 50.83,110.26 Z M60.28,107.56 C59.9628482,108.05974 59.3181708,108.237134 58.79,107.97 C58.14,107.71 57.53,107.39 56.86,107.08 C56.51,107.98 57.24,109.37 55.86,109.54 C54.48,109.71 54.42,108.34 54.04,107.42 C53.84,106.93 53.89,106.31 53.34,105.99 C53.41,105.1 52.87,103.9 54.18,103.56 C55.49,103.22 55.61,104.5 55.98,105.33 C56.08,105.55 56.17,105.77 56.36,106.21 C56.89,105.68 57.22,104.86 58.1,105.04 C58.7948211,105.202361 59.4335636,105.547627 59.95,106.04 C60.1996425,106.194112 60.3758458,106.443154 60.4380902,106.729855 C60.5003346,107.016557 60.4432631,107.316244 60.28,107.56 Z M65.48,99.74 C66.28,101.2 64.94,101.64 64.17,102.37 C64.6690895,102.734878 65.1434613,103.132415 65.59,103.56 C65.9450958,103.923661 65.9709085,104.495843 65.65,104.89 C65.37,105.32 64.87,105.63 64.44,105.37 C62.68,104.28 60.73,104.8 58.87,104.62 L58.4,104.62 C57.8083032,104.549428 57.3685254,104.038569 57.3867319,103.442957 C57.4049384,102.847345 57.8750975,102.3643 58.47,102.33 C59.81,102.27 61.15,102.33 62.73,102.33 C62.59,101.28 62.1,100.33 62.73,99.55 C62.9908688,99.2403649 63.3395702,99.017196 63.73,98.91 C64.4377208,98.722514 65.1773932,99.0733301 65.48,99.74 Z M48.35,79.74 C49.13,79.61 49.95,80.69 49.94,81.74 C49.94,82.48 49.58,82.95 48.79,82.96 C48,82.97 47.33,82.08 47.31,81.1 C47.2675111,80.7828333 47.3534611,80.4618333 47.54875,80.2083333 C47.7440389,79.9548333 48.0324889,79.7898333 48.35,79.75 L48.35,79.74 Z M38.52,100.16 C37.9402239,100.083814 37.5099309,99.5846737 37.52,99 C37.4857983,98.4124026 37.9326046,97.9075115 38.52,97.87 C39.6355406,97.8259036 40.7307203,97.5572104 41.74,97.08 C41.59,96.22 40.9,96.48 40.41,96.45 C38.9770996,96.3501831 37.5676824,96.0332329 36.23,95.51 C35.51,95.22 34.97,94.68 35.35,93.83 C35.4738717,93.5282148 35.7181125,93.2918487 36.0237938,93.1779302 C36.3294752,93.0640116 36.6688367,93.0828862 36.96,93.23 C38.7894701,93.9062828 40.7507969,94.1493093 42.69,93.94 L39.13,91.65 C37.9014956,90.890778 36.8179307,89.9189558 35.93,88.78 C35.4,88.1 35.18,87.28 35.93,86.65 C36.68,86.02 37.27,86.65 37.73,87.22 C39.3652378,88.9833088 41.3240894,90.4159524 43.5,91.44 C45,92.28 45.18,92.8 43.88,93.85 C42.88,94.67 44.34,95.04 43.93,95.69 C43.8,95.89 45.93,97.57 46.24,97.54 C46.55,97.51 47.01,97.27 46.93,96.78 C46.78,95.91 46.61,95.05 46.4,94.2 C46.1,93.01 46.2,92.1 47.7,92.01 C48.45,91.96 48.7,91.6 48.43,90.89 C47.8887802,88.8383266 45.9023013,87.5125772 43.8,87.8 C42.44,87.9 41.85,87.34 42.44,86.19 C42.88,85.34 42.53,84.89 42.28,84.24 C42.0558147,83.64206 41.914504,83.0162552 41.86,82.38 C41.7911932,81.7953316 42.1827962,81.2557897 42.76,81.14 C43.0331863,81.0411436 43.3358596,81.0659797 43.5892768,81.2080469 C43.8426939,81.3501141 44.0218004,81.5953666 44.08,81.88 C44.24,84.28 45.87,85.2 47.78,86.09 C49.06,86.69 49.63,88.2 50.92,89.7 C50.56,86.39 50.69,83.7 54.02,82.27 C52.7872057,81.7477425 51.9955761,80.5286329 52.02,79.19 C51.9172165,78.5290571 52.3614486,77.9071322 53.02,77.79 C53.6030341,77.7105257 54.1532126,78.0801769 54.3,78.65 C54.8244544,79.6380519 54.8244544,80.8219481 54.3,81.81 C54.43,81.97 54.51,82.13 54.63,82.18 C55.34,82.44 56.39,82.3 56.45,83.38 C56.51,84.46 55.6,84.53 54.85,84.82 C53.26,85.44 52.63,88.35 53.72,89.73 C53.9757934,90.0201156 54.3474858,90.1812664 54.73409,90.1696682 C55.1206943,90.1580701 55.4820579,89.9749277 55.72,89.67 C57.4328539,87.561234 58.9871085,85.3284553 60.37,82.99 C60.700979,82.3527384 61.0892458,81.7469084 61.53,81.18 C62.03,80.58 62.69,80.24 63.4,80.85 C64.11,81.46 63.85,81.96 63.46,82.57 C62.3133333,84.39 61.17,86.2166667 60.03,88.05 C59.83,88.39 59.64,88.74 59.45,89.05 C59.25,89.16 59.05,89.33 59.24,89.54 C59.43,89.75 59.62,89.54 59.78,89.39 C60.8556702,88.70081 61.8605587,87.906948 62.78,87.02 C63.36,86.52 64.01,86.13 64.64,86.86 C65.27,87.59 64.94,88.19 64.41,88.77 L61.98,91.49 C62.64,91.82 63.3,91.43 63.98,91.41 C64.66,91.39 65.12,91.57 65.28,92.21 C65.3670268,92.481832 65.3407517,92.7772735 65.2071193,93.0294811 C65.0734869,93.2816887 64.843791,93.4693476 64.57,93.55 C63.57,93.91 62.57,94.18 61.63,94.49 C61.33,94.58 61,94.64 60.89,95.03 C61.15,95.52 61.73,95.28 62.1,95.53 C62.47,95.78 62.97,96.27 62.76,96.91 C62.6082694,97.4778528 62.0496718,97.8372606 61.47,97.74 C60.47,97.61 59.47,97.38 58.47,97.2 C58.1036107,97.6210488 58.0032629,98.2115571 58.21,98.73 C58.9889093,98.5737633 59.7910907,98.5737633 60.57,98.73 C61.0605552,98.8561941 61.4034589,99.2984732 61.4034589,99.805 C61.4034589,100.311527 61.0605552,100.753806 60.57,100.88 C59.4137313,101.249363 58.1522543,100.81395 57.47,99.81 C54.47,103.22 54.47,103.22 48.96,101.28 C48.54,101.84 48.78,102.66 48.19,103.18 C47.6,103.7 46.95,104.39 46.19,103.67 C45.43,102.95 45.81,102.22 46.43,101.61 C46.7183536,101.333427 47.0580803,101.116001 47.43,100.97 C47.89,100.78 48.43,100.65 47.99,100.03 C47.55,99.41 47.18,100.03 46.83,100.27 C46.48,100.51 46.07,100.85 45.67,101.13 C45.27,101.41 45.01,101.58 44.67,101.78 C43.94,102.19 43.17,102.45 42.46,101.78 C41.75,101.11 42.53,100.48 42.62,99.78 C41.97,99.46 41.39,99.78 40.8,99.92 C40.0736099,100.1958 39.2888949,100.281843 38.52,100.17 L38.52,100.16 Z M39.58,103.63 C39.1781152,103.189449 39.2048494,102.507726 39.64,102.1 C39.8058011,101.8662 40.0639545,101.714783 40.3489389,101.684181 C40.6339232,101.653578 40.9183393,101.746732 41.13,101.94 C42.67,103.42 44.62,104.47 45.92,106.39 C47.0425115,105.297102 48.2874159,104.337419 49.63,103.53 C50.28,103.13 50.96,102.8 51.56,103.53 C52.16,104.26 51.4,104.77 50.98,105.29 C50.79,105.52 50.61,105.76 50.43,106 C49.2451118,106.435105 48.2954955,107.344852 47.81,108.51 C47.42,109.22 47.1,110.06 46.09,109.83 C45.08,109.6 45.16,108.77 45.28,107.97 C45.5,107.97 45.5,107.86 45.41,107.65 L45.27,107.81 C45.2425102,107.690645 45.2057315,107.573622 45.16,107.46 C42.58,107.23 41.28,105.13 39.58,103.64 L39.58,103.63 Z" id="Shape" fill="#FE6054"></path>
            <path d="M53.57,100.15 C54.36,99.98 55.37,98.33 55.33,97.15 C55.1,96.23 54.82,95.15 54.57,94.07 C54.32,92.99 53.36,92.88 52.57,93.2 C51.35,93.68 49.46,93.39 49.26,95.2 C49.2756785,96.3136164 49.517221,97.4124646 49.97,98.43 C50.2,99.28 52.64,100.36 53.57,100.15 Z" id="Shape" fill="#FE6054"></path>
            <path d="M57.92,96.57 C58.86,94.41 58.7,93 57.46,91.49 C57.2789639,91.2313184 56.952141,91.1183426 56.65,91.21 C56.5337446,91.2322548 56.4344988,91.3074118 56.3815638,91.4132819 C56.3286287,91.519152 56.3280506,91.6436428 56.38,91.75 C57,93.27 57.1,95 57.92,96.57 Z" id="Shape" fill="#FE6054"></path>
            <path d="M61.27,91.94 C61.27,91.94 61.37,91.88 61.43,91.85 C61.49,91.82 61.34,91.73 61.29,91.72 C61.24,91.71 61.19,91.78 61.13,91.81 C61.07,91.84 61.22,91.94 61.27,91.94 Z" id="Shape" fill="#FE6054"></path>
            <path d="M57.9,99.11 L58.09,98.82 C57.87,98.78 57.75,98.84 57.9,99.11 Z" id="Shape" fill="#FE6054"></path>
            <polygon id="Shape" fill="#FE6054" points="58.09 98.82 58.15 98.82 58.15 98.77 58.15 98.77"></polygon>
        </g>
    </g>
</svg>