<svg xmlns="http://www.w3.org/2000/svg" xmlns:xlink="http://www.w3.org/1999/xlink" width="50" height="31" viewBox="0 0 50 31"><defs><path id="4x67a" d="M573 2215.58h-3.07v-16.15H573zm-6.06 4.46h-3.09v-25.08h3.09zm-25.8-14.07h19.71v3.06h-19.71zm-3 14.07h-3.08v-25.08h3.09zm-9.15-4.46v-16.15h3.09v16.15zm45.51-19.1h-4.57v-3c0-.82-.67-1.48-1.5-1.48h-6.07c-.83 0-1.5.66-1.5 1.48v9.53h-19.72v-9.53c0-.82-.67-1.48-1.5-1.48h-6.07c-.83 0-1.5.66-1.5 1.48v3h-4.58c-.82 0-1.49.66-1.49 1.47v19.1c0 .81.67 1.48 1.5 1.48h4.57v2.99c0 .82.67 1.48 1.5 1.48h6.07c.83 0 1.5-.66 1.5-1.48v-9.53h19.72v9.53c0 .82.67 1.48 1.5 1.48h6.07c.83 0 1.5-.66 1.5-1.48v-3h4.58c.82 0 1.49-.66 1.49-1.47v-19.1c0-.81-.67-1.48-1.5-1.48z"/></defs><g><g transform="translate(-526 -2192)"><use fill="#ff6053" xlink:href="#4x67a"/></g></g></svg>