<svg xmlns="http://www.w3.org/2000/svg" xmlns:xlink="http://www.w3.org/1999/xlink" width="50" height="50" viewBox="0 0 50 50"><defs><path id="2a6ia" d="M583 1891.84a21.41 21.41 0 0 0-8.04-7.84 24.08 24.08 0 0 0-8.22-2.83 10.16 10.16 0 0 0-6.37.9 15.07 15.07 0 0 0-5.59 5.27c2.5-.64 5.14-.9 7.97-.7.9.64.13 1.41-.58 1.48-3.34.38-6.55.7-9.45 2.05a22.6 22.6 0 0 0-8.29 6.69c-1.99 2.57-3.47 5.59-3.98 8.8-.58 3.21-.2 7.26.83 10.28a14.73 14.73 0 0 0 5.66 7.52c2.76 1.87 6.1 2.77 9.64 2.96a37 37 0 0 0 14.27-2.38 22.66 22.66 0 0 0 9.25-6.62c3.09-3.6 5.14-7.97 5.53-12.4.45-4.82-.39-9.32-2.63-13.18zm-1.8 27.51a27.8 27.8 0 0 1-13.24 7.97c-3.8.9-8.04 1.41-12.09 1.1-5.2-.4-10.09-2.2-13.56-6.24-2.5-2.96-3.85-6.81-4.24-10.93-.32-4.05.45-8.22 2.19-11.63 2.57-5.01 7.64-9.9 12.91-11.7.2-3.08 3.22-5.52 5.53-7.07 2.77-1.8 5.72-2.12 8.68-1.67 4.63.77 8.8 2.83 12.66 5.85a20.4 20.4 0 0 1 5.6 6.81c2.56 4.95 2.95 10.86 1.6 16.65a24.66 24.66 0 0 1-6.04 10.86z"/><path id="2a6ib" d="M568.28 1914.53a13.11 13.11 0 0 1-8.74 5.07c-.77 0-1.35-.38-1.8-.83a8.12 8.12 0 0 1-1.6-3.15c-.07-.32.64-.77.96-.58.38.52.7 1.16 1.1 1.67.31.52.7.9 1.34 1.03a12.3 12.3 0 0 0 5.33-2.83 11.4 11.4 0 0 0 3.22-4.69c.32-.9.38-1.93-.13-2.63a3.38 3.38 0 0 0-1.8-1.48 7.5 7.5 0 0 0-2.96.32c-1.47.38-2.76 1.22-4.11 1.93-.45.06-.9-.07-1.03-.58-.2-.9.58-1.48 1.1-1.74 1.8-.83 3.85-2.05 5.4-3.6a8.25 8.25 0 0 0 2.3-3.53c.2-.84 0-1.67-.5-2.25-1.23-1.1-2.51-2.12-4.06-2.5a4.3 4.3 0 0 0-2.95.12c-.45-.2-.52-.7-.39-1.09.39-.77 1.29-1.22 2.06-1.35 2 .2 4.05.9 5.59 2.19.9.77 1.67 1.8 2.19 2.95a5.7 5.7 0 0 1-.52 3.47 12.8 12.8 0 0 1-3.15 3.86c1.22 0 2.44.26 3.4.9 1.36.83 1.94 2.25 1.94 3.79-.07 2-1.16 3.92-2.19 5.53z"/></defs><g><g transform="translate(-538 -1879)"><use fill="#ff6053" xlink:href="#2a6ia"/></g><g transform="translate(-538 -1879)"><use fill="#222" xlink:href="#2a6ib"/></g></g></svg>