<svg xmlns="http://www.w3.org/2000/svg" xmlns:xlink="http://www.w3.org/1999/xlink" width="50" height="50" viewBox="0 0 50 50"><defs><path id="krira" d="M164 1891.84a21.41 21.41 0 0 0-8.04-7.84 24.08 24.08 0 0 0-8.22-2.83 10.16 10.16 0 0 0-6.37.9 15.07 15.07 0 0 0-5.59 5.27c2.5-.64 5.14-.9 7.97-.7.9.64.13 1.41-.58 1.48-3.34.38-6.55.7-9.45 2.05a22.6 22.6 0 0 0-8.29 6.69c-1.99 2.57-3.47 5.59-3.98 8.8-.58 3.21-.2 7.26.83 10.28a14.73 14.73 0 0 0 5.66 7.52c2.76 1.87 6.1 2.77 9.64 2.96a37 37 0 0 0 14.27-2.38 22.66 22.66 0 0 0 9.25-6.62c3.09-3.6 5.14-7.97 5.53-12.4.45-4.82-.39-9.32-2.63-13.18zm-1.8 27.51a27.8 27.8 0 0 1-13.24 7.97c-3.8.9-8.04 1.41-12.09 1.1-5.2-.4-10.09-2.2-13.56-6.24-2.5-2.96-3.85-6.81-4.24-10.93-.32-4.05.45-8.22 2.19-11.63 2.57-5.01 7.64-9.9 12.91-11.7.2-3.08 3.22-5.52 5.53-7.07 2.77-1.8 5.72-2.12 8.68-1.67 4.63.77 8.8 2.83 12.66 5.85a20.4 20.4 0 0 1 5.6 6.81c2.56 4.95 2.95 10.86 1.6 16.65a24.66 24.66 0 0 1-6.04 10.86z"/><path id="krirb" d="M144.65 1901.87a76.15 76.15 0 0 0-.7 16.7c-.14 1.1-1.1.9-1.55.52-.39-.64-.52-1.29-.64-1.93l-.13-2.05c-.45-7.59.9-14.92 2.5-21.86l.33-.96c.19-.32.38-.58.83-.7.45-.14.84.31.97.57-.33 3.28-1.16 6.43-1.61 9.7z"/></defs><g><g transform="translate(-119 -1879)"><use fill="#ff6053" xlink:href="#krira"/></g><g transform="translate(-119 -1879)"><use fill="#222" xlink:href="#krirb"/></g></g></svg>