<svg xmlns="http://www.w3.org/2000/svg" xmlns:xlink="http://www.w3.org/1999/xlink" width="59" height="34" viewBox="0 0 59 34"><defs><path id="4hgca" d="M564.88 2372.97h-9.38v-2.6h9.38zm-15.82-8.12c-.9-1.73-.73-4.1.46-6.73l.07-.14c.4-.87.91-1.76 1.53-2.67.47-.7.3-1.64-.4-2.11a1.5 1.5 0 0 0-2.08.4c-.47.7-.89 1.38-1.26 2.07l-16.42-3.82c-.93-.22-1.33-.62-1.3-.9.03-.23.31-.59.97-.59h26.33c2.11 0 4.31.29 6.39.89.1 8.6 1.76 11.95 9.53 12.23-.15 3.56-1.68 3.88-3.13 3.88H554c-2.34 0-4.1-.9-4.94-2.5zm-19.8-8.45a5.28 5.28 0 0 1-5.26-5.29 5.23 5.23 0 1 1 8.9-3.78h-2.28c-2.06 0-3.73 1.38-3.94 3.27-.17 1.51.67 3.52 3.6 4.2l2.17.5c-.9.7-2.02 1.1-3.2 1.1zm43.4 4.05c-5-.18-6.13-1.58-6.29-8.04 3.13 1.58 5.55 4.17 6.28 8.04zm6.8 10.49a1.5 1.5 0 0 0-2.1.16c-.07.08-1.68 1.87-5.8 1.87h-3.67v-2.6h1.86c2.8 0 6.15-1.3 6.15-7.48 0-6.9-4.62-14.9-17.43-15.5v-2.36h16.16c.83 0 1.5-.68 1.5-1.52a1.5 1.5 0 0 0-1.5-1.51H539.3c-.83 0-1.5.68-1.5 1.51 0 .84.67 1.52 1.5 1.52h16.16v2.3H536.6a8.27 8.27 0 0 0-7.34-4.54 8.3 8.3 0 0 0-8.25 8.32 8.24 8.24 0 1 0 14.86 4.98l10.3 2.4c-.96 2.9-.9 5.6.24 7.77 1.16 2.22 3.35 3.63 6.1 4v2.71h-7.58c-.83 0-1.5.68-1.5 1.52 0 .83.67 1.51 1.5 1.51h26.65c5.53 0 7.85-2.66 8.1-2.96a1.5 1.5 0 0 0-.2-2.1z"/></defs><g><g transform="translate(-521 -2342)"><use fill="#ff6053" xlink:href="#4hgca"/></g></g></svg>