<?xml version="1.0" encoding="UTF-8"?>
<svg width="59px" height="34px" viewBox="0 0 59 34" version="1.1" xmlns="http://www.w3.org/2000/svg" xmlns:xlink="http://www.w3.org/1999/xlink">
    <!-- Generator: Sketch 51.2 (57519) - http://www.bohemiancoding.com/sketch -->
    <title>Shape</title>
    <desc>Created with Sketch.</desc>
    <defs></defs>
    <g id="PORTAL" stroke="none" stroke-width="1" fill="none" fill-rule="evenodd">
        <g id="02_uslugi_desktop" transform="translate(-521.000000, -2342.000000)" fill="#FF6053" fill-rule="nonzero">
            <path d="M579.462685,2370.93613 C578.836853,2370.40229 577.894601,2370.48302 577.354884,2371.10364 C577.288796,2371.17832 575.677655,2372.97459 571.568195,2372.97459 L567.889306,2372.97459 L567.889306,2370.37101 L569.75078,2370.37101 C572.554505,2370.37101 575.897948,2369.07426 575.897948,2362.88923 C575.897948,2355.98267 571.27881,2347.9832 558.466786,2347.39386 L558.466786,2345.02742 L574.631265,2345.02742 C575.461368,2345.02742 576.133261,2344.34928 576.133261,2343.51371 C576.133261,2342.67814 575.461368,2342 574.631265,2342 L539.298315,2342 C538.468212,2342 537.796319,2342.67814 537.796319,2343.51371 C537.796319,2344.34928 538.468212,2345.02742 539.298315,2345.02742 L555.461793,2345.02742 L555.461793,2347.33533 L536.590717,2347.33533 C535.186851,2344.5723 532.349081,2342.79218 529.252967,2342.79218 C524.701919,2342.79218 521,2346.52398 521,2351.11053 C521,2355.69708 524.701919,2359.42788 529.252967,2359.42788 C531.872447,2359.42788 534.31269,2358.17452 535.859746,2356.09468 L546.162436,2358.49139 C545.204162,2361.39267 545.265244,2364.08809 546.400752,2366.25674 C547.564299,2368.47786 549.747199,2369.88561 552.500858,2370.26 L552.500858,2372.97258 L544.918783,2372.97258 C544.08868,2372.97258 543.416787,2373.65072 543.416787,2374.48629 C543.416787,2375.32186 544.08868,2376 544.918783,2376 L571.569196,2376 C577.102549,2376 579.419628,2373.34091 579.665955,2373.03716 C580.182642,2372.39837 580.088517,2371.46794 579.462685,2370.93613 Z M572.650633,2360.45115 C567.659,2360.27354 566.533505,2358.87386 566.370288,2352.41434 C569.495441,2353.99365 571.924668,2356.58411 572.650633,2360.45115 Z M529.251965,2356.40045 C526.357119,2356.40045 524.001989,2354.02594 524.001989,2351.11053 C524.001989,2348.19512 526.35812,2345.8196 529.251965,2345.8196 C530.641812,2345.8196 531.943542,2346.38775 532.908824,2347.33533 L530.624789,2347.33533 C528.555039,2347.33533 526.894833,2348.70877 526.68155,2350.60192 C526.511323,2352.1116 527.352441,2354.11676 530.288342,2354.79995 L532.449214,2355.30251 C531.545012,2356.00083 530.428529,2356.40045 529.251965,2356.40045 Z M549.057282,2364.84394 C548.151078,2363.11326 548.331318,2360.74783 549.523902,2358.117 C549.547934,2358.07058 549.569964,2358.02315 549.588989,2357.9737 C549.991524,2357.10786 550.502202,2356.21174 551.120023,2355.30251 C551.589647,2354.61023 551.413413,2353.66971 550.727502,2353.19844 C550.04159,2352.72516 549.10835,2352.90378 548.640729,2353.59403 C548.170104,2354.28832 547.749545,2354.9816 547.384059,2355.66882 L530.96424,2351.85124 C530.025994,2351.63226 529.634473,2351.22961 529.666516,2350.94705 C529.691549,2350.721 529.974926,2350.36478 530.625791,2350.36478 L556.963789,2350.36478 C559.070588,2350.36478 561.273515,2350.64532 563.349274,2351.24777 C563.454413,2359.85071 565.113618,2363.19097 572.880939,2363.47554 C572.731741,2367.02873 571.1957,2367.34661 569.752782,2367.34661 L554.002854,2367.34661 C551.655735,2367.34358 549.899401,2366.45655 549.057282,2364.84394 Z M564.883312,2372.97459 L555.502847,2372.97459 L555.502847,2370.37101 L564.883312,2370.37101 L564.883312,2372.97459 Z" id="Shape"></path>
        </g>
    </g>
</svg>