<svg xmlns="http://www.w3.org/2000/svg" xmlns:xlink="http://www.w3.org/1999/xlink" width="54" height="40" viewBox="0 0 54 40"><defs><path id="23c9a" d="M165.6 2444.55a17.58 17.58 0 0 1-8.8 2.44c-1.3 0-2.58-.17-3.79-.49a22.74 22.74 0 0 0 6.48-11.56c.14-.09.27-.19.42-.27a17.58 17.58 0 0 1 8.78-2.44c1.82 0 3.6.32 5.2.93-.73 4.51-3.83 8.8-8.3 11.4zm-31.2 0c-4.46-2.59-7.56-6.88-8.28-11.4 1.6-.6 3.37-.92 5.19-.92 3 0 6.04.84 8.78 2.44.15.08.28.18.42.27a22.75 22.75 0 0 0 6.48 11.56 15 15 0 0 1-3.8.49c-3 0-6.04-.84-8.78-2.44zm-.03-24.73a16.6 16.6 0 0 1 6.47 2.51 25.34 25.34 0 0 0-.88 8.88 20.68 20.68 0 0 0-6.35-1.84c-.61-3.31-.38-6.64.76-9.55zm15.63-6.45c4.42 3.5 7.13 9.48 7.13 15.89 0 6.4-2.7 12.38-7.13 15.87-4.42-3.5-7.13-9.47-7.13-15.87 0-6.4 2.7-12.39 7.13-15.89zm15.63 6.45c1.14 2.9 1.39 6.24.77 9.54-2.17.26-4.32.88-6.35 1.84a25.32 25.32 0 0 0-.88-8.88 16.58 16.58 0 0 1 6.46-2.5zm10.52 11.04a17.12 17.12 0 0 0-6.7-1.6c.64-4.09.14-8.2-1.54-11.71a1.5 1.5 0 0 0-1.46-.85 19.11 19.11 0 0 0-8.31 2.73 21.03 21.03 0 0 0-7.3-9.17 1.5 1.5 0 0 0-1.69 0 21.06 21.06 0 0 0-7.3 9.18 19.1 19.1 0 0 0-8.3-2.74 1.5 1.5 0 0 0-1.46.85 20.07 20.07 0 0 0-1.53 11.71c-2.38.1-4.69.63-6.7 1.6-.57.27-.9.86-.86 1.47.45 5.87 4.25 11.55 9.9 14.83a20.57 20.57 0 0 0 10.3 2.84c2.4 0 4.72-.49 6.8-1.38 2.08.9 4.4 1.38 6.8 1.38 3.53 0 7.1-.98 10.3-2.84 5.65-3.28 9.45-8.96 9.9-14.83a1.5 1.5 0 0 0-.85-1.47z"/></defs><g><g transform="translate(-123 -2410)"><use fill="#ff6053" xlink:href="#23c9a"/></g></g></svg>