<svg xmlns="http://www.w3.org/2000/svg" xmlns:xlink="http://www.w3.org/1999/xlink" width="126" height="23" viewBox="0 0 126 23"><defs><path id="mntxa" d="M312.9 3910.9h-7.99c.43-2.31 1.78-4.14 3.96-4.14 2.07 0 3.64 1.8 4.03 4.14zm3.1 1c0-4.1-2.64-7.62-7.02-7.62-4.67 0-7.35 3.75-7.35 8.34 0 4.69 2.78 8.35 7.7 8.35 2.93 0 5.17-1.25 6.46-2.97l-1.6-1.55a5.51 5.51 0 0 1-4.4 2.03c-3.2 0-4.77-2.34-5.02-5.2h11.2c.03-.42.03-.87.03-1.38zm-22.32-2.31v10.86h3.03v-15.7h-3.03l-7.74 10.87v-10.86h-3.06v15.69h3.06zm-20.97 2.72l5.67-7.55h-3.5l-4.8 6.52h-1.93v-6.62l-3.06.1v15.69h3.06v-6.7h1.92l5.31 6.7h3.74zm-18.89-5.55c1.96 0 2.39 1.17 2.39 1.86 0 1.07-.86 2.38-3.39 2.38h-.57v2.48h.57c2.85 0 4.17 1.24 4.17 2.51.04.86-.6 2.45-3.06 2.45a6.22 6.22 0 0 1-4.32-1.59l-1.46 1.97a9.1 9.1 0 0 0 6.03 2.1c4.92 0 6.06-3.17 6.06-5-.04-1.4-1.14-3.03-3.43-3.75 1.93-.9 2.6-2.48 2.6-3.72 0-1.56-.92-4.17-5.38-4.17-2.42 0-3.88.82-4.99 1.79l1.4 1.79a4.95 4.95 0 0 1 3.38-1.1zm-12.93 2.83v10.86h3.03v-15.7h-3.03l-7.75 10.87v-10.86h-3.07v15.69h3.07zm-28.68 4.75c-.42 2.49-.7 3.56-3.7 3.56v2.58c4.99 0 6.1-2.2 6.63-5.38l1.25-7.86h4.7v13.2h3.08v-15.68h-10.42zm-9.84-1.03c0 3.14-1.82 5.17-4.31 5.17-2.68 0-4.64-2.69-4.85-6.86 1.28-2.2 3.17-3.45 5.38-3.45 2.18 0 3.78 2.1 3.78 5.14zm-5.95-12.17c-4.35 1.69-6.38 4.96-6.42 9.9 0 5.86 3.14 9.96 8.06 9.96 4.38 0 7.56-3 7.56-7.69 0-4.55-2.96-7.65-7.03-7.65-2.1 0-3.78.82-5.06 2.34.64-2.66 2.25-4.24 5-4.97 2.95-.72 6.12-1.03 6.94-5.03h-2.78c-1.32 2.41-3.74 2.14-6.27 3.14z"/></defs><g><g transform="translate(-190 -3898)"><use fill="#edebe3" xlink:href="#mntxa"/></g></g></svg>