<svg width="36" height="30" viewBox="0 0 36 30" fill="none" xmlns="http://www.w3.org/2000/svg">
<path d="M4.35489 13.8719C1.94975 11.0119 2.3243 6.74731 5.19147 4.34674C8.05864 1.94617 12.3327 2.31865 14.7378 5.1787L23.4476 15.5359C25.8527 18.3959 25.4782 22.6605 22.611 25.0611C19.7438 27.4616 15.4698 27.0892 13.0647 24.2291L4.35489 13.8719Z" fill="#80DBD3"/>
<path fill-rule="evenodd" clip-rule="evenodd" d="M22.4093 16.4052L13.6995 6.04802C11.7754 3.75998 8.35619 3.462 6.06245 5.38245C3.76871 7.30291 3.46907 10.7146 5.39318 13.0026L14.103 23.3598C16.0271 25.6478 19.4463 25.9458 21.74 24.0253C24.0338 22.1049 24.3334 18.6932 22.4093 16.4052ZM5.19147 4.34674C2.3243 6.74731 1.94975 11.0119 4.35489 13.8719L13.0647 24.2291C15.4698 27.0892 19.7438 27.4616 22.611 25.0611C25.4782 22.6605 25.8527 18.3959 23.4476 15.5359L14.7378 5.1787C12.3327 2.31865 8.05864 1.94617 5.19147 4.34674Z" fill="#01B6A7"/>
<path d="M22.914 24.8178C20.5113 27.6799 16.2375 28.0559 13.3684 25.6577C10.4992 23.2595 10.1211 18.9952 12.5238 16.1332L21.2249 5.7688C23.6277 2.90675 27.9014 2.53073 30.7706 4.92892C33.6398 7.32712 34.0179 11.5914 31.6152 14.4534L22.914 24.8178Z" fill="white"/>
<path fill-rule="evenodd" clip-rule="evenodd" d="M22.264 6.63726L13.5628 17.0016C11.6407 19.2913 11.9431 22.7027 14.2385 24.6212C16.5338 26.5398 19.9528 26.239 21.875 23.9493L30.5761 13.585C32.4983 11.2953 32.1958 7.88392 29.9005 5.96536C27.6052 4.04681 24.1862 4.34763 22.264 6.63726ZM13.3684 25.6577C16.2375 28.0559 20.5113 27.6799 22.914 24.8178L31.6152 14.4534C34.0179 11.5914 33.6398 7.32712 30.7706 4.92892C27.9014 2.53073 23.6277 2.90675 21.2249 5.7688L12.5238 16.1332C10.1211 18.9952 10.4992 23.2595 13.3684 25.6577Z" fill="#01B6A7"/>
<path d="M22.9227 24.825C20.5152 27.6831 16.2375 28.0559 13.3684 25.6577C10.4992 23.2595 10.125 18.9985 12.5325 16.1404L16.8917 10.9654L27.2819 19.6501L22.9227 24.825Z" fill="#01B6A7" fill-opacity="0.5"/>
</svg>
