<?xml version="1.0" encoding="UTF-8"?>
<svg width="97px" height="18px" viewBox="0 0 97 18" version="1.1" xmlns="http://www.w3.org/2000/svg" xmlns:xlink="http://www.w3.org/1999/xlink">
    <!-- Generator: Sketch 51.2 (57519) - http://www.bohemiancoding.com/sketch -->
    <title>близкие</title>
    <desc>Created with Sketch.</desc>
    <defs></defs>
    <g id="PORTAL" stroke="none" stroke-width="1" fill="none" fill-rule="evenodd">
        <g id="02_uslugi_mobile" transform="translate(-15.000000, -9.000000)" fill="#FFFFFF">
            <path d="M24.7713639,9 L26.9122807,9 C26.2809847,12.1304348 23.8381437,12.3733133 21.5599887,12.94003 C19.4465195,13.5067466 18.2113752,14.7481259 17.7173175,16.826087 C18.7054329,15.6386807 19.9954726,14.9910045 21.614884,14.9910045 C24.7439162,14.9910045 27.0220713,17.4197901 27.0220713,20.982009 C27.0220713,24.6521739 24.5792303,27 21.2031692,27 C17.4153933,27 15,23.7886057 15,19.2008996 C15.0274477,15.3418291 16.5919638,12.7781109 19.9405772,11.4557721 C21.8893605,10.6731634 23.7558008,10.8890555 24.7713639,9 Z M21.614884,16.9610195 C19.9131296,16.9610195 18.4584041,17.9325337 17.4702886,19.6596702 C17.6349745,22.9250375 19.1445954,25.029985 21.2031692,25.029985 C23.1245048,25.029985 24.524335,23.4377811 24.524335,20.982009 C24.524335,18.6071964 23.2891907,16.9610195 21.614884,16.9610195 Z M33.2801358,14.2893553 L41.29485,14.2893553 L41.29485,26.5682159 L38.934352,26.5682159 L38.934352,16.2323838 L35.311262,16.2323838 L34.3505942,22.3853073 C33.9388795,24.868066 33.0880023,26.5952024 29.2453311,26.5952024 L29.2453311,24.5712144 C31.5509338,24.5712144 31.770515,23.7346327 32.0998868,21.7916042 L33.2801358,14.2893553 Z M48.2116582,26.5682159 L45.8511602,26.5682159 L45.8511602,14.2893553 L48.2116582,14.2893553 L48.2116582,22.7901049 L54.1677985,14.2893553 L56.5008489,14.2893553 L56.5008489,26.5682159 L54.1677985,26.5682159 L54.1677985,18.0674663 L48.2116582,26.5682159 Z M61.5237691,16.7181409 L60.4533107,15.3148426 C61.3041879,14.5592204 62.4295416,13.9115442 64.2959819,13.9115442 C67.7269383,13.9115442 68.4405772,15.9625187 68.4405772,17.1769115 C68.4405772,18.1484258 67.9190719,19.3898051 66.4368987,20.0914543 C68.1935484,20.6581709 69.0444256,21.9265367 69.0718732,23.0329835 C69.0718732,24.4632684 68.1935484,26.946027 64.4057725,26.946027 C62.4020939,26.946027 61.139502,26.3523238 59.7671194,25.2998501 L60.8924731,23.7616192 C61.8805886,24.5442279 62.7040181,25.0029985 64.2136389,25.0029985 C66.1075269,25.0029985 66.6015846,23.7616192 66.574137,23.0869565 C66.574137,22.0884558 65.5585739,21.1169415 63.3627617,21.1169415 L62.9235993,21.1169415 L62.9235993,19.173913 L63.3627617,19.173913 C65.311545,19.173913 65.9702886,18.1484258 65.9702886,17.3118441 C65.9702886,16.7721139 65.6409168,15.8545727 64.131296,15.8545727 C63.0059423,15.8545727 62.1001698,16.1784108 61.5237691,16.7181409 Z M83.6191285,26.5682159 L80.7371251,26.5682159 L76.647425,21.3328336 L75.1652518,21.3328336 L75.1652518,26.5682159 L72.8047538,26.5682159 L72.8047538,14.2893553 L75.1652518,14.2083958 L75.1652518,19.3898051 L76.647425,19.3898051 L80.352858,14.2893553 L83.0427278,14.2893553 L78.6785512,20.1994003 L83.6191285,26.5682159 Z M88.8616299,26.5682159 L86.5011319,26.5682159 L86.5011319,14.2893553 L88.8616299,14.2893553 L88.8616299,22.7901049 L94.8177702,14.2893553 L97.1508206,14.2893553 L97.1508206,26.5682159 L94.8177702,26.5682159 L94.8177702,18.0674663 L88.8616299,26.5682159 Z M111.972552,20.9550225 L103.35399,20.9550225 C103.546123,23.1949025 104.75382,25.029985 107.224109,25.029985 C108.788625,25.029985 109.804188,24.3553223 110.60017,23.4377811 L111.835314,24.6521739 C110.847199,26.0014993 109.117997,26.9730135 106.867289,26.9730135 C103.079513,26.9730135 100.938596,24.1124438 100.938596,20.4422789 C100.938596,16.8530735 102.99717,13.9115442 106.592813,13.9115442 C109.968874,13.9115442 112,16.6641679 112,19.8755622 C112,20.2803598 112,20.6311844 111.972552,20.9550225 Z M106.51047,15.8545727 C104.836163,15.8545727 103.793152,17.2848576 103.46378,19.0929535 L109.612054,19.0929535 C109.31013,17.2578711 108.102434,15.8545727 106.51047,15.8545727 Z" id="близкие"></path>
        </g>
    </g>
</svg>