<svg xmlns="http://www.w3.org/2000/svg" xmlns:xlink="http://www.w3.org/1999/xlink" width="40" height="39" viewBox="0 0 40 39"><defs><path id="4o0la" d="M53.75 69.8h11.4a8.32 8.32 0 0 1 8.35 8.29 8.32 8.32 0 0 1-8.36 8.29H54a8.32 8.32 0 0 1-8.35-8.3v-.24a8.07 8.07 0 0 1 8.1-8.04"/><path id="4o0lb" d="M56.05 70.36h2.9c6.78 0 12.28 5.45 12.28 12.18v.02c0 4.14 0 6.44.04 6.88.1 1.16 1.97.95 1.97 1.97 0 .69-.66 1.7-1.97 3.03v7.1a4.9 4.9 0 0 1-4.9 4.88H48.67z"/><path id="4o0lc" d="M66.9 106.97H48.69l7.6-37.17h2.99c6.98 0 12.65 5.63 12.65 12.56 0 1.6 0 6.43.05 7.11.04.43.14.65 1.01 1.05l.12.06c.5.23.9.41.9.93 0 .26 0 1.05-2.03 3.12v7.32a5.05 5.05 0 0 1-5.06 5.02zm-16.36-1.5H66.9a3.53 3.53 0 0 0 3.54-3.52v-7.93l.43-.44c.78-.8 1.2-1.36 1.42-1.71-.85-.4-1.73-.93-1.84-2.28-.03-.34-.06-1.47-.06-7.22 0-6.1-5-11.06-11.13-11.06h-1.75z"/><path id="4o0ld" d="M66.91 80.6l-.79 1.26a5.06 5.06 0 0 0-6.01 0l-.79-1.25a6.39 6.39 0 0 1 7.6 0"/><path id="4o0le" d="M51.21 69.8h12.16v7.79c0 4.85-3.97 8.79-8.86 8.79h-3.3a8.32 8.32 0 0 1-8.35-8.3 8.32 8.32 0 0 1 8.35-8.28"/><path id="4o0lf" d="M50.7 69.8v37.17h-3.03A13.62 13.62 0 0 1 34 93.41v-7.03c0-9.16 7.48-16.58 16.7-16.58"/><path id="4o0lg" d="M43.87 90.4h9.37v6.18c0 1.8.84 3.51 2.28 4.62l1.31 1.02a1 1 0 0 1 .05 1.54l-1.36 1.2a8.05 8.05 0 0 1-5.33 2.02h-1.76a4.54 4.54 0 0 1-4.56-4.52z"/><path id="4o0lh" d="M48.35 69.09c1.62-.57 3.48-.91 5.6-1.04 2.41-.14 4.62 0 6.64.44a1 1 0 0 1 .7 1.4l-12.7 27.2a1.02 1.02 0 0 1-1.93-.42V71.46c0-1.07.68-2.02 1.7-2.37"/><path id="4o0li" d="M65.3 88.39c-.38.5-1.01.8-1.68.8-.66 0-1.28-.3-1.68-.8l-1.1.73c.65.82 1.69 1.3 2.78 1.3 1.1 0 2.15-.49 2.79-1.3z"/><path id="4o0lj" d="M66.15 93.42a2.78 2.78 0 0 1-2.78-2.77v-5.77c0-.83.68-1.51 1.52-1.51h2.53c.84 0 1.52.68 1.52 1.5v5.78a2.78 2.78 0 0 1-2.79 2.77zm-1.26-9.05a.5.5 0 0 0-.5.5v5.78c0 .97.79 1.76 1.77 1.76s1.78-.79 1.78-1.76v-5.77a.5.5 0 0 0-.51-.5z"/><path id="4o0lk" d="M53.75 86.88h10.63v-1H53.75z"/><path id="4o0ll" d="M67.92 86.88h2.8v-1h-2.8z"/><path id="4o0lm" d="M60.58 93.91a2.77 2.77 0 0 1 2.79 2.76 2.77 2.77 0 0 1-2.79 2.77 2.77 2.77 0 0 1-2.78-2.77 2.77 2.77 0 0 1 2.78-2.76"/><path id="4o0ln" d="M67.42 103.02l-1.01-.12 1.01-8.54 1 .12z"/><path id="4o0lo" d="M69.42 99.05c-.93 0-1.74-.35-2.42-1.05l.73-.7c.78.8 1.8.95 3.1.45l.36.93a4.9 4.9 0 0 1-1.77.37"/><path id="4o0lp" d="M54.57 92.91h-1.58a3.28 3.28 0 0 1-3.29-3.26c0-1.8 1.47-3.27 3.3-3.27h2.08"/><path id="4o0lq" d="M54.57 93.41h-1.58c-2.1 0-3.8-1.68-3.8-3.76s1.7-3.77 3.8-3.77h2.08v1H53a2.78 2.78 0 0 0-2.79 2.77A2.78 2.78 0 0 0 53 92.4h1.58z"/></defs><g><g transform="translate(-34 -68)"><g><use fill="#222" xlink:href="#4o0la"/></g><g><use fill="#fff" xlink:href="#4o0lb"/></g><g><use fill="#222" xlink:href="#4o0lc"/></g><g><use fill="#222" xlink:href="#4o0ld"/></g><g><use fill="#222" xlink:href="#4o0le"/></g><g><use fill="#222" xlink:href="#4o0lf"/></g><g><use fill="#222" xlink:href="#4o0lg"/></g><g><use fill="#ff6053" xlink:href="#4o0lh"/></g><g><use fill="#222" xlink:href="#4o0li"/></g><g><use fill="#222" xlink:href="#4o0lj"/></g><g><use fill="#222" xlink:href="#4o0lk"/></g><g><use fill="#222" xlink:href="#4o0ll"/></g><g><use fill="#ff6053" xlink:href="#4o0lm"/></g><g><use fill="#222" xlink:href="#4o0ln"/></g><g><use fill="#222" xlink:href="#4o0lo"/></g><g><use fill="#fff" xlink:href="#4o0lp"/></g><g><use fill="#222" xlink:href="#4o0lq"/></g></g></g></svg>