<?xml version="1.0" encoding="UTF-8"?>
<svg width="175px" height="149px" viewBox="0 0 175 149" version="1.1" xmlns="http://www.w3.org/2000/svg" xmlns:xlink="http://www.w3.org/1999/xlink">
    <!-- Generator: Sketch 51.2 (57519) - http://www.bohemiancoding.com/sketch -->
    <title>Group 11</title>
    <desc>Created with Sketch.</desc>
    <defs></defs>
    <g id="Page-1" stroke="none" stroke-width="1" fill="none" fill-rule="evenodd">
        <g id="Group-11" fill-rule="nonzero">
            <path d="M173.78,47.27 C171.87,45.79 170.57,43.71 168.78,42.13 C162.033333,36.25 155.11,30.5833333 148.01,25.13 C140.08,19.06 132.01,13.13 124.56,6.48 C122.152012,4.24364157 119.46267,2.33084722 116.56,0.79 C114.883146,-0.230836179 112.776854,-0.230836179 111.1,0.79 C110.63,1.08 110.1,1.31 109.64,1.62 C102.38,6.28 95,10.75 87.9,15.62 C74.75,24.7 61.14,33.1 48.15,42.42 C47.1890331,42.9968966 46.6298003,44.0613673 46.7,45.18 C46.7,48.94 46.7,52.69 46.7,56.45 C46.7,58.35 46.63,58.45 44.77,58.75 C42.1,59.2 39.4,59.53 36.77,60.05 C30.26,61.29 23.77,62.65 17.26,63.89 C14.05,64.51 10.74,64.53 7.57,65.46 C6.66299357,65.7563245 5.73771682,65.9934893 4.8,66.17 C0.95,66.75 -0.2,68.51 0.67,72.32 C1.54,76.13 2.51,79.77 3.17,83.54 C4.53,91.41 5.69,99.32 6.97,107.21 C7.88,112.73 9.26,118.16 10.53,123.6 C12.1550516,130.193558 13.423558,136.869907 14.33,143.6 C14.59,145.66 15.28,147.37 17.47,147.94 C18.6289318,148.267323 19.8489425,148.315301 21.03,148.08 C25.24,147.2 29.47,146.35 33.69,145.51 C38.69,144.51 43.69,143.41 48.76,142.72 C51.3058246,142.505354 53.8368477,142.141394 56.34,141.63 C62.05,140.13 67.85,138.98 73.69,138.01 C82.35,136.57 91.04,135.26 99.69,133.8 C113.47,131.49 127.11,128.47 140.77,125.54 C141.77,125.32 142.57,124.54 143.68,124.54 C148.68,124.48 153.59,124.23 158.55,124.27 C162.22,124.27 165.89,124.68 170.02,124.94 C170.2,124.94 170.84,124.94 171.48,124.94 C173.36,124.94 174.01,124.27 174.12,122.38 C174.18,121.26 174.24,120.14 174.24,119.02 C174.24,98.7066667 174.24,78.3933333 174.24,58.08 C174.115001,55.3644936 174.195229,52.6434247 174.48,49.94 C174.772411,48.9892795 174.501244,47.9549682 173.78,47.27 Z M71.49,57 C71.75,50.93 71.93,44.85 72.19,38.78 C72.29,36.2 72.73,35.78 75.44,35.83 C78.64,35.83 81.83,36.1 85.03,36.14 C92.22,36.24 99.42,36.35 106.61,35.89 C111.948963,35.724713 117.293035,35.8983953 122.61,36.41 C126.29,36.64 129.96,36.76 133.61,36.73 C137.84,36.73 142.07,36.95 146.31,36.73 C148.55,36.6 149.11,37.17 149.46,39.38 C149.503573,39.6142324 149.526992,39.8517682 149.53,40.09 C149.53,43.53 149.41,46.97 149.47,50.4 C149.47,53.68 149.47,56.96 149.47,60.24 C149.536757,61.6799359 148.754387,63.0256132 147.47,63.68 C137.14,70.38 126.74,76.96 116.6,83.95 C115.16,84.95 113.78,86.04 112.4,87.14 C112.056919,87.4761757 111.592537,87.6594273 111.112338,87.6481285 C110.63214,87.6368297 110.17689,87.4319397 109.85,87.08 C108.19,85.7 106.46,84.41 104.85,83.01 C100.722299,79.4624955 96.3516451,76.2078951 91.77,73.27 C85.15,69.06 78.99,64.22 72.64,59.63 C71.7876402,59.0434225 71.3419026,58.0240398 71.49,57 Z M3.27,71.06 C2.92,69.54 3.33,69.06 4.82,68.74 C15.82,66.62 26.73,64.48 37.69,62.39 C40.74,61.81 43.81,61.39 47,60.9 L47,98.9 C46.09,99.29 45.44,98.63 44.72,98.38 C34.1806676,94.6773561 23.8635521,90.3702108 13.82,85.48 C11.65,84.48 9.34,83.79 7.1,82.95 C6.40889773,82.7818904 5.88289324,82.2205572 5.76,81.52 C5,78.08 4.07,74.61 3.27,71.1 L3.27,71.06 Z M6.06,85.53 C7.89328156,85.9216346 9.67750772,86.5152587 11.38,87.3 C19,90.8 26.55,94.44 34.38,97.39 L40.22,99.63 C30.91,109.17 23.68,120.16 14.57,129.93 C10.7848665,115.341154 7.94232807,100.52388 6.06,85.57 L6.06,85.53 Z M128.76,125.53 C120.05,127.53 111.26,129.19 102.45,130.7 C92.69,132.37 82.91,133.91 73.14,135.54 C67.31,136.54 61.52,137.69 55.79,139.13 C52.8153399,139.72588 49.8110987,140.163164 46.79,140.44 C41.65,141.17 36.61,142.44 31.51,143.36 C27.98,144.02 24.51,144.79 20.96,145.47 C20.2489827,145.580219 19.5288665,145.620412 18.81,145.59 C18.3170282,145.648837 17.8217632,145.50029 17.4425487,145.179854 C17.0633342,144.859417 16.834237,144.395879 16.81,143.9 L15.19,133.73 C15.1184936,133.261043 15.2875945,132.78756 15.64,132.47 C22.64,124.79 28.92,116.47 35.49,108.47 C37.49,105.99 39.8,103.75 41.91,101.35 C42.1158942,101.009645 42.4559749,100.772095 42.846398,100.695915 C43.2368211,100.619735 43.6412588,100.712013 43.96,100.95 C44.232274,101.123186 44.5338894,101.245188 44.85,101.31 C46.29,101.54 46.73,102.31 46.7,103.79 C46.59,108.42 46.64,113.06 46.64,117.69 C46.5999086,118.329372 46.5999086,118.970628 46.64,119.61 C46.99,122.55 48.64,124.07 51.55,124.61 C55.36,125.31 59.19,125.03 63.01,125.06 C68.76,125.06 74.53,125.15 80.27,124.88 C84.82,124.67 89.38,124.48 93.92,124.71 C103.92,125.21 113.92,124.3 123.92,124.63 C126.221889,124.839966 128.538111,124.839966 130.84,124.63 C130.277142,125.177313 129.54222,125.512975 128.76,125.58 L128.76,125.53 Z M171.76,120.36 C171.76,122.55 172.04,122.36 169.69,122.36 C164.49,122.25 159.33,121.57 154.12,121.8 C144.12,122.23 134.12,122.26 124.12,122.23 C116.61,122.23 109.12,122.17 101.58,122.5 C99.68,122.59 97.75,122.26 95.84,122.28 C83.2066667,122.38 70.58,122.506667 57.96,122.66 C55.96,122.66 53.96,122.22 51.96,122.21 C50.460583,122.163516 49.2366373,120.995596 49.12,119.5 C49.0632219,119.022233 49.046497,118.540555 49.07,118.06 C49.07,94.6266667 49.07,71.1966667 49.07,47.77 C48.9410752,47.1509168 49.0110742,46.5069255 49.27,45.93 C49.9904597,46.0534321 50.6526472,46.4037959 51.16,46.93 C54.69,49.42 58.16,51.93 61.53,54.69 C63.81,56.58 66.36,58.09 68.74,59.85 C77.08,66.03 85.42,72.23 94.11,77.94 C99.1969589,81.4032079 104.011052,85.2511395 108.51,89.45 C110.22,91 110.95,91.11 112.9,89.75 C116.56,87.18 120.11,84.45 123.84,81.98 C139.046667,71.98 154.423333,62.2166667 169.97,52.69 C170.42,52.42 170.81,51.93 171.45,52.11 C171.721806,52.7819178 171.794702,53.5178148 171.66,54.23 C171.753333,76.2766667 171.793333,98.3366667 171.78,120.41 L171.76,120.36 Z" id="Shape" fill="#222222"></path>
            <path d="M171.77,54.21 C171.904702,53.4978148 171.831806,52.7619178 171.56,52.09 C170.92,51.91 170.56,52.4 170.08,52.67 C154.52,62.15 139.143333,71.9133333 123.95,81.96 C120.22,84.43 116.67,87.16 113.01,89.73 C111.06,91.09 110.33,90.98 108.62,89.43 C104.121052,85.2311395 99.3069589,81.3832079 94.22,77.92 C85.53,72.21 77.22,66.01 68.85,59.83 C66.47,58.07 63.92,56.56 61.64,54.67 C58.31,51.91 54.8,49.4 51.27,46.91 C50.7626472,46.3837959 50.1004597,46.0334321 49.38,45.91 C49.1210742,46.4869255 49.0510752,47.1309168 49.18,47.75 C49.18,71.1833333 49.18,94.6133333 49.18,118.04 C49.156497,118.520555 49.1732219,119.002233 49.23,119.48 C49.3466373,120.975596 50.570583,122.143516 52.07,122.19 C54.07,122.19 56.07,122.66 58.07,122.64 C70.6966667,122.5 83.3233333,122.373333 95.95,122.26 C97.86,122.26 99.79,122.57 101.69,122.48 C109.2,122.15 116.69,122.19 124.23,122.21 C134.23,122.21 144.23,122.21 154.23,121.78 C159.44,121.55 164.6,122.23 169.8,122.34 C172.15,122.39 171.88,122.56 171.87,120.34 C171.81,98.32 171.776667,76.2766667 171.77,54.21 Z" id="Shape" fill="#FFFFFF"></path>
            <path d="M72.71,59.65 C79.06,64.24 85.22,69.08 91.84,73.29 C96.4216451,76.2278951 100.792299,79.4824955 104.92,83.03 C106.56,84.43 108.29,85.72 109.92,87.1 C110.24689,87.4519397 110.70214,87.6568297 111.182338,87.6681285 C111.662537,87.6794273 112.126919,87.4961757 112.47,87.16 C113.85,86.06 115.23,84.97 116.67,83.97 C126.81,76.97 137.21,70.4 147.54,63.7 C148.824387,63.0456132 149.606757,61.6999359 149.54,60.26 C149.54,56.98 149.54,53.7 149.54,50.42 C149.48,46.99 149.61,43.55 149.6,40.11 C149.596992,39.8717682 149.573573,39.6342324 149.53,39.4 C149.18,37.19 148.62,36.62 146.38,36.75 C142.14,36.99 137.91,36.75 133.68,36.75 C130,36.75 126.33,36.66 122.68,36.43 C117.363035,35.9183953 112.018963,35.744713 106.68,35.91 C99.49,36.37 92.29,36.26 85.1,36.16 C81.9,36.16 78.71,35.89 75.51,35.85 C72.8,35.85 72.36,36.22 72.26,38.8 C72,44.87 71.82,50.95 71.56,57.02 C71.4119026,58.0440398 71.8576402,59.0634225 72.71,59.65 Z M83.53,54.65 C83.53,53.6 84.44,53.5 85.29,53.5 L97.29,53.5 C97.5297676,53.4850633 97.7702324,53.4850633 98.01,53.5 C98.73,53.59 99.24,53.95 99.19,54.73 C99.14,55.51 98.61,55.82 97.89,55.86 C97.17,55.9 96.62,55.86 95.98,55.86 L91.18,55.86 C89.26,55.86 87.34,55.86 85.43,55.86 C84.46,55.94 83.52,55.81 83.53,54.64 L83.53,54.65 Z M108.03,72.55 C106.35,72.6 104.68,72.55 103.03,72.55 L98.48,72.55 C97.62,72.55 96.76,72.36 96.72,71.35 C96.68,70.34 97.59,69.96 98.54,69.96 L107.4,69.96 C107.639768,69.9450633 107.880232,69.9450633 108.12,69.96 C108.8,70.06 109.39,70.34 109.44,71.11 C109.49,71.88 108.81,72.51 108,72.54 L108.03,72.55 Z M86.46,64.39 C85.46,64.39 84.25,64.6 83.95,63.2 C83.76,62.26 84.56,61.83 86.51,61.83 C92.34,61.83 98.17,61.83 104,61.83 C109.67,61.83 115.34,61.83 121,61.83 C121.71215,61.7426117 122.434738,61.807372 123.12,62.02 C123.583512,62.1948786 123.88481,62.6448164 123.87,63.14 C123.910303,63.6449583 123.566655,64.100293 123.07,64.2 C122.529489,64.3285899 121.975591,64.3923721 121.42,64.39 L86.46,64.39 Z M124.55,72.39 C122.74,72.39 120.92,72.39 119.1,72.33 C118.812295,72.3535037 118.528469,72.251536 118.321499,72.0503152 C118.114529,71.8490945 118.004608,71.5682524 118.02,71.28 C117.989228,70.9572322 118.094945,70.6363167 118.311529,70.3950342 C118.528114,70.1537518 118.835795,70.0141266 119.16,70.01 C120.106005,69.9599551 121.053995,69.9599551 122,70.01 C122.87,70.01 123.75,69.95 124.61,70.01 C124.934554,70.0066434 125.245918,70.1382577 125.469666,70.3733823 C125.693414,70.6085069 125.809436,70.9260111 125.79,71.25 C125.794071,71.5722316 125.661572,71.8811329 125.425288,72.100267 C125.189004,72.3194012 124.871013,72.4282939 124.55,72.4 L124.55,72.39 Z M137.1,53.52 C137.657375,53.504842 138.21515,53.5248818 138.77,53.58 C139.363046,53.606072 139.834813,54.0865754 139.85,54.68 C139.85,55.44 139.38,55.83 138.66,55.9 C138.11,55.95 137.55,55.9 136.99,55.9 C132.29,55.9 127.58,55.9 122.88,55.9 L109,55.9 C108.52,55.9 108,55.9 107.56,55.9 C107.237306,55.933631 106.915275,55.8305833 106.672051,55.6158625 C106.428828,55.4011418 106.286643,55.094374 106.28,54.77 C106.248468,54.4455809 106.357312,54.1231809 106.579031,53.8842604 C106.800749,53.6453398 107.114133,53.5127529 107.44,53.52 C107.916336,53.4948856 108.393664,53.4948856 108.87,53.52 L137.1,53.52 Z M85.68,43.87 C89.91,43.87 94.14,43.87 98.37,43.87 C102.6,43.87 106.82,43.87 111.05,43.87 C112.77,43.87 113.56,44.31 113.39,45.17 C113.12,46.46 112.05,46.31 111.09,46.31 C102.64,46.31 94.18,46.31 85.73,46.31 C84.73,46.31 83.33,46.6 83.31,45.11 C83.29,43.62 84.7,43.88 85.68,43.88 L85.68,43.87 Z" id="Shape" fill="#FFFFFF"></path>
            <path d="M124,124.67 C114,124.34 104,125.25 94,124.75 C89.46,124.52 84.9,124.75 80.35,124.92 C74.61,125.19 68.84,125.14 63.09,125.1 C59.27,125.1 55.44,125.35 51.63,124.65 C48.71,124.11 47.07,122.59 46.72,119.65 C46.6799086,119.010628 46.6799086,118.369372 46.72,117.73 C46.72,113.1 46.67,108.46 46.78,103.83 C46.78,102.35 46.37,101.58 44.93,101.35 C44.6138894,101.285188 44.312274,101.163186 44.04,100.99 C43.7212588,100.752013 43.3168211,100.659735 42.926398,100.735915 C42.5359749,100.812095 42.1958942,101.049645 41.99,101.39 C39.88,103.79 37.58,106.03 35.57,108.51 C29,116.51 22.73,124.84 15.72,132.51 C15.3675945,132.82756 15.1984936,133.301043 15.27,133.77 L16.89,143.94 C16.914237,144.435879 17.1433342,144.899417 17.5225487,145.219854 C17.9017632,145.54029 18.3970282,145.688837 18.89,145.63 C19.6088665,145.660412 20.3289827,145.620219 21.04,145.51 C24.56,144.83 28.04,144.06 31.59,143.4 C36.69,142.46 41.73,141.21 46.87,140.48 C49.8910987,140.203164 52.8953399,139.76588 55.87,139.17 C61.6,137.73 67.39,136.56 73.22,135.58 C82.99,133.95 92.77,132.41 102.53,130.74 C111.34,129.23 120.13,127.59 128.84,125.57 C129.63591,125.522569 130.389836,125.19693 130.97,124.65 C128.652161,124.869671 126.319062,124.876366 124,124.67 Z" id="Shape" fill="#FFFFFF"></path>
            <path d="M7.1,83 C9.34,83.84 11.65,84.49 13.82,85.53 C23.8635521,90.4202108 34.1806676,94.7273561 44.72,98.43 C45.44,98.68 46.09,99.34 47,98.95 L47,60.95 C43.81,61.45 40.74,61.86 37.69,62.44 C26.69,64.53 15.78,66.67 4.82,68.79 C3.33,69.08 2.92,69.59 3.27,71.11 C4.07,74.62 4.98,78.11 5.76,81.6 C5.89357821,82.2890115 6.41749634,82.8363886 7.1,83 Z" id="Shape" fill="#FFFFFF"></path>
            <path d="M34.41,97.43 C26.55,94.43 19,90.84 11.41,87.34 C9.70750772,86.5552587 7.92328156,85.9616346 6.09,85.57 C7.98050453,100.537995 10.8330754,115.368691 14.63,129.97 C23.74,120.2 30.97,109.21 40.28,99.67 L34.41,97.43 Z" id="Shape" fill="#FFFFFF"></path>
            <path d="M123.08,64.18 C123.576655,64.080293 123.920303,63.6249583 123.88,63.12 C123.89481,62.6248164 123.593512,62.1748786 123.13,62 C122.444738,61.787372 121.72215,61.7226117 121.01,61.81 C115.34,61.81 109.67,61.81 104.01,61.81 C98.18,61.81 92.35,61.81 86.52,61.81 C84.57,61.81 83.77,62.24 83.96,63.18 C84.26,64.58 85.46,64.37 86.47,64.37 L121.47,64.37 C122.012214,64.3692351 122.552503,64.3054743 123.08,64.18 Z" id="Shape" fill="#FE6054"></path>
            <path d="M138.77,53.64 C138.215738,53.5765739 137.657625,53.5531799 137.1,53.57 L108.87,53.57 C108.393664,53.5449041 107.916336,53.5449041 107.44,53.57 C107.114133,53.5627529 106.800749,53.6953398 106.579031,53.9342604 C106.357312,54.1731809 106.248468,54.4955809 106.28,54.82 C106.28689,55.1450944 106.428761,55.4526577 106.671585,55.6689225 C106.914408,55.8851874 107.23628,55.9906443 107.56,55.96 L137,55.96 C137.557161,55.9734663 138.114643,55.9567752 138.67,55.91 C139.39,55.84 139.89,55.45 139.86,54.69 C139.823879,54.1103202 139.350625,53.654433 138.77,53.64 Z" id="Shape" fill="#FE6054"></path>
            <path d="M85.73,46.29 C94.18,46.29 102.64,46.29 111.09,46.29 C112.09,46.29 113.09,46.44 113.39,45.15 C113.56,44.29 112.77,43.86 111.05,43.85 C106.82,43.85 102.6,43.85 98.37,43.85 C94.14,43.85 89.91,43.85 85.68,43.85 C84.68,43.85 83.29,43.54 83.31,45.06 C83.33,46.58 84.74,46.28 85.73,46.29 Z" id="Shape" fill="#FE6054"></path>
            <path d="M91.17,55.93 L95.97,55.93 C96.61,55.93 97.25,55.93 97.88,55.93 C98.51,55.93 99.14,55.56 99.18,54.8 C99.22,54.04 98.72,53.66 98,53.57 C97.7602324,53.5550633 97.5197676,53.5550633 97.28,53.57 L85.28,53.57 C84.43,53.57 83.52,53.67 83.52,54.72 C83.52,55.77 84.45,56.02 85.41,56.01 C87.33,55.92 89.25,55.93 91.17,55.93 Z" id="Shape" fill="#FE6054"></path>
            <path d="M108.09,70.06 C107.850232,70.0450633 107.609768,70.0450633 107.37,70.06 L98.51,70.06 C97.56,70.06 96.65,70.29 96.69,71.45 C96.73,72.61 97.59,72.65 98.45,72.65 L103,72.65 C104.68,72.65 106.35,72.65 108,72.65 C108.78,72.65 109.42,72.22 109.37,71.32 C109.32,70.42 108.77,70.16 108.09,70.06 Z" id="Shape" fill="#FE6054"></path>
            <path d="M124.61,70 C123.75,69.92 122.87,70 122,70 C121.053995,69.9499551 120.106005,69.9499551 119.16,70 C118.835795,70.0041266 118.528114,70.1437518 118.311529,70.3850342 C118.094945,70.6263167 117.989228,70.9472322 118.02,71.27 C118.004608,71.5582524 118.114529,71.8390945 118.321499,72.0403152 C118.528469,72.241536 118.812295,72.3435037 119.1,72.32 C120.92,72.39 122.74,72.41 124.55,72.38 C124.874556,72.4087298 125.195894,72.2972128 125.432878,72.0736062 C125.669863,71.8499995 125.799843,71.535676 125.79,71.21 C125.800923,70.8910824 125.68111,70.5815406 125.458319,70.3530853 C125.235528,70.12463 124.929091,69.9970856 124.61,70 Z" id="Shape" fill="#FE6054"></path>
        </g>
    </g>
</svg>