<?xml version="1.0" encoding="UTF-8"?>
<svg width="152px" height="125px" viewBox="0 0 152 125" version="1.1" xmlns="http://www.w3.org/2000/svg" xmlns:xlink="http://www.w3.org/1999/xlink">
    <!-- Generator: Sketch 51.2 (57519) - http://www.bohemiancoding.com/sketch -->
    <title>Group 12</title>
    <desc>Created with Sketch.</desc>
    <defs></defs>
    <g id="Page-1" stroke="none" stroke-width="1" fill="none" fill-rule="evenodd">
        <g id="Group-12" fill-rule="nonzero">
            <path d="M119.1,94.68 C119.1,69.3466667 119.1,43.9966667 119.1,18.63 C119.1,15.63 119.2,12.58 118.92,9.56 C118.49,4.89 115.97,2.08 111.4,1.2 C109.504973,0.870634743 107.583202,0.719973202 105.66,0.75 L52.89,0.69 C50.0137891,0.662472186 47.143252,0.950867263 44.33,1.55 C40.3210131,2.45475231 37.3024217,5.76482145 36.77,9.84 C36.3821142,12.602089 36.2282339,15.3920069 36.31,18.18 C36.37,33.85 36.31,49.53 36.31,65.18 C36.31,81.18 36.31,97.18 36.31,113.18 C36.2965346,114.699004 36.4508023,116.214852 36.77,117.7 C37.2237789,120.366451 39.1184619,122.56151 41.69,123.4 C44.1570745,124.284925 46.7590223,124.734936 49.38,124.73 C68.38,124.6 87.29,124.64 106.24,124.73 C108.154499,124.758168 110.066208,124.573704 111.94,124.18 C115.00398,123.597638 117.492067,121.363752 118.4,118.38 C118.988241,116.715292 119.256286,114.954338 119.19,113.19 C118.94,107 119.1,100.83 119.1,94.68 Z M116.49,115.9 C115.9,119.3 114.22,121.12 110.84,121.83 C109.746136,122.07153 108.630157,122.198878 107.51,122.21 L47.3,122.26 C45.2135811,122.167579 43.181332,121.566829 41.38,120.51 C40.1200516,119.750765 39.2903948,118.443315 39.14,116.98 C38.870173,115.159761 38.7597539,113.319443 38.81,111.48 C38.81,79.74 38.81,47.9966667 38.81,16.25 C38.7779354,14.1704271 38.9318817,12.092152 39.27,10.04 C39.5782911,7.08054561 41.7592582,4.65724875 44.67,4.04 C46.8385222,3.50183714 49.0657385,3.2364524 51.3,3.25 C69.3666667,3.25 87.44,3.25 105.52,3.25 C107.359371,3.22288807 109.19728,3.36684085 111.01,3.68 C114.4,4.31 116.22,6.24 116.46,9.68 C116.64,12.47 116.63,15.27 116.63,18.07 C116.63,32.7033333 116.63,47.3366667 116.63,61.97 C116.63,77.7966667 116.63,93.63 116.63,109.47 C116.772055,111.61329 116.725208,113.764924 116.49,115.9 Z" id="Shape" fill="#222222"></path>
            <path d="M109.44,59 L109.49,59 C109.49,46.4466667 109.49,33.8933333 109.49,21.34 C109.491813,20.6236122 109.438321,19.9081534 109.33,19.2 C108.79036,16.3413335 106.318659,14.2537479 103.41,14.2 L54.24,14.2 C53.05,14.2 51.85,14.2 50.65,14.15 C48.8132137,14.0216602 47.1403319,15.205224 46.65,16.98 C46.1518477,18.3270418 45.9044384,19.7538819 45.92,21.19 C45.92,45.7433333 45.92,70.29 45.92,94.83 C45.9033904,95.6279733 45.9367891,96.4262033 46.02,97.22 C46.39,99.94 47.76,101.06 50.56,101.05 L104.28,100.99 C105.92,100.99 107.64,101.13 108.88,99.26 C109.337449,98.5450655 109.567556,97.7083108 109.54,96.86 C109.54,95.49 109.4,94.12 109.4,92.75 C109.426667,81.53 109.44,70.28 109.44,59 Z M106.96,59 L106.91,59 C106.91,71.2266667 106.91,83.46 106.91,95.7 C106.91,98.7 106.91,98.65 103.77,98.65 C86.1766667,98.65 68.5866667,98.67 51,98.71 C49,98.71 48.62,98.43 48.49,96.42 C48.43,95.42 48.44,94.5 48.44,93.54 C48.44,69.72 48.44,45.8966667 48.44,22.07 C48.44,21.67 48.44,21.27 48.44,20.87 C48.56,17.31 49.09,16.8 52.66,16.8 C69.2866667,16.8 85.9166667,16.8 102.55,16.8 C105.55,16.8 106.79,17.9 106.92,20.87 C106.99,22.22 106.92,23.58 106.92,24.94 L106.96,59 Z" id="Shape" fill="#222222"></path>
            <path d="M78,106.77 C74.13,106.77 71.68,109.09 71.61,112.77 C71.54,116 74.61,118.7 78.42,118.77 C80.042303,118.839942 81.6187664,118.221872 82.7612469,117.067967 C83.9037273,115.914062 84.5060804,114.331527 84.42,112.71 C84.37,109.08 81.81,106.74 78,106.77 Z M78.38,116.22 C75.92,116.22 74.07,114.69 74.1,112.71 C74.1,110.53 75.77,109.17 78.29,109.22 C80.57,109.22 81.97,110.57 81.97,112.68 C82.0357075,113.653581 81.6710819,114.606991 80.9724842,115.288268 C80.2738865,115.969545 79.3116248,116.310124 78.34,116.22 L78.38,116.22 Z" id="Shape" fill="#222222"></path>
            <path d="M70.77,27.46 C70.4,27.75 70.05,28.08 69.7,28.4 C65.34,32.4 61.55,36.9 57.32,41 C57.0254161,41.285972 56.7878678,41.6253267 56.62,42 C56.5095103,42.3659385 56.5831292,42.7627283 56.817536,43.064676 C57.0519427,43.3666237 57.4180933,43.5363166 57.8,43.52 C58.56,43.46 59.03,42.77 59.59,42.22 C63.77,38.22 67.5,33.7 71.83,29.82 C72.0067139,29.6566157 72.1736686,29.4829828 72.33,29.3 C72.5828471,29.0989248 72.7413033,28.8022534 72.7678179,28.4802909 C72.7943324,28.1583284 72.6865454,27.8397311 72.47,27.6 C72.2763735,27.3362922 71.9779592,27.1694458 71.651904,27.1425941 C71.3258488,27.1157425 71.0041595,27.2315217 70.77,27.46 Z" id="Shape" fill="#222222"></path>
            <path d="M65.73,44.68 C65.01,44.31 64.49,44.68 64.02,45.17 C61.7305971,47.2874253 59.6107657,49.5811229 57.68,52.03 C57.2,52.65 56.87,53.31 57.55,53.94 C58.23,54.57 59.07,54.2 59.55,53.54 C61.4666844,51.1786881 63.5378983,48.9471222 65.75,46.86 C66.1145223,46.5422464 66.3376027,46.0924876 66.37,45.61 C66.3014853,45.2219155 66.0680001,44.8826322 65.73,44.68 Z" id="Shape" fill="#222222"></path>
            <path d="M100.31,82.21 C99.7776494,81.9757282 99.1539372,82.1569419 98.83,82.64 C96.83,84.94 94.9,87.26 92.94,89.57 C92.36,90.25 92.03,91.01 92.8,91.67 C93.57,92.33 94.28,91.84 94.8,91.18 C96.6066667,89.0533333 98.4066667,86.92 100.2,84.78 C100.623354,84.3538249 100.909016,83.8103694 101.02,83.22 C100.981668,82.7803379 100.710724,82.3949107 100.31,82.21 Z" id="Shape" fill="#222222"></path>
            <path d="M116.62,109.45 C116.62,93.61 116.62,77.7766667 116.62,61.95 C116.62,47.2833333 116.62,32.65 116.62,18.05 C116.62,15.25 116.62,12.45 116.45,9.66 C116.21,6.2 114.39,4.27 111,3.66 C109.18728,3.34684085 107.349371,3.20288807 105.51,3.23 C87.43,3.23 69.3566667,3.23 51.29,3.23 C49.0557385,3.2164524 46.8285222,3.48183714 44.66,4.02 C41.7492582,4.63724875 39.5682911,7.06054561 39.26,10.02 C38.9218817,12.072152 38.7679354,14.1504271 38.8,16.23 C38.8,47.97 38.8,79.7133333 38.8,111.46 C38.7497539,113.299443 38.860173,115.139761 39.13,116.96 C39.2803948,118.423315 40.1100516,119.730765 41.37,120.49 C43.171332,121.546829 45.2035811,122.147579 47.29,122.24 L107.5,122.19 C108.620157,122.178878 109.736136,122.05153 110.83,121.81 C114.21,121.1 115.89,119.28 116.48,115.88 C116.715208,113.744924 116.762055,111.59329 116.62,109.45 Z M78.38,118.71 C74.58,118.71 71.5,115.97 71.57,112.71 C71.64,109.06 74.09,106.76 77.96,106.71 C81.83,106.66 84.37,109.02 84.39,112.59 C84.4939858,114.223437 83.8981473,115.82398 82.7513376,116.991779 C81.6045279,118.159579 80.0150538,118.784346 78.38,118.71 Z M108.93,99.33 C107.69,101.2 105.93,101.06 104.33,101.06 L50.61,101.12 C47.81,101.12 46.44,100.01 46.07,97.29 C45.9867891,96.4962033 45.9533904,95.6979733 45.97,94.9 C45.97,70.3533333 45.97,45.8066667 45.97,21.26 C45.9544384,19.8238819 46.2018477,18.3970418 46.7,17.05 C47.1903319,15.275224 48.8632137,14.0916602 50.7,14.22 C51.9,14.22 53.1,14.27 54.29,14.27 L103.46,14.27 C106.368659,14.3237479 108.84036,16.4113335 109.38,19.27 C109.488321,19.9781534 109.541813,20.6936122 109.54,21.41 C109.54,33.97 109.54,46.5233333 109.54,59.07 L109.49,59.07 C109.49,70.3433333 109.49,81.6166667 109.49,92.89 C109.49,94.26 109.59,95.63 109.63,97 C109.631648,97.8287178 109.388094,98.6394021 108.93,99.33 Z" id="Shape" fill="#FFFFFF"></path>
            <path d="M106.92,20.87 C106.79,17.87 105.58,16.8 102.55,16.8 C85.9166667,16.8 69.2866667,16.8 52.66,16.8 C49.09,16.8 48.56,17.31 48.44,20.87 C48.44,21.27 48.44,21.67 48.44,22.07 C48.44,45.89 48.44,69.7133333 48.44,93.54 C48.44,94.54 48.44,95.46 48.49,96.42 C48.62,98.42 48.96,98.71 51,98.71 C68.5933333,98.71 86.1833333,98.69 103.77,98.65 C106.89,98.65 106.91,98.65 106.91,95.7 C106.91,83.46 106.91,71.2266667 106.91,59 L106.96,59 L106.96,24.94 C107,23.58 107,22.22 106.92,20.87 Z M65.79,46.87 C63.5778983,48.9571222 61.5066844,51.1886881 59.59,53.55 C59.07,54.21 58.35,54.68 57.59,53.95 C56.83,53.22 57.24,52.66 57.72,52.04 C59.6507657,49.5911229 61.7705971,47.2974253 64.06,45.18 C64.53,44.74 65.06,44.32 65.77,44.69 C66.1232604,44.8839399 66.3723176,45.2245622 66.45,45.62 C66.4048,46.1049999 66.1670715,46.5516413 65.79,46.86 L65.79,46.87 Z M72.33,29.27 C72.1736686,29.4529828 72.0067139,29.6266157 71.83,29.79 C67.5,33.67 63.77,38.15 59.59,42.19 C59.03,42.74 58.59,43.43 57.8,43.49 C57.4180933,43.5063166 57.0519427,43.3366237 56.817536,43.034676 C56.5831292,42.7327283 56.5095103,42.3359385 56.62,41.97 C56.7878678,41.5953267 57.0254161,41.255972 57.32,40.97 C61.55,36.87 65.32,32.35 69.7,28.37 C70.05,28.05 70.4,27.72 70.77,27.43 C70.9986659,27.1970712 71.3168839,27.0744002 71.6427313,27.0935677 C71.9685787,27.1127352 72.27022,27.2718685 72.47,27.53 C72.6966214,27.770883 72.8107083,28.096426 72.7840313,28.4260777 C72.7573542,28.7557294 72.5924057,29.0586914 72.33,29.26 L72.33,29.27 Z M100.24,84.79 C98.4533333,86.93 96.6533333,89.0633333 94.84,91.19 C94.28,91.85 93.6,92.36 92.84,91.68 C92.08,91 92.4,90.26 92.98,89.58 C94.98,87.27 96.89,84.95 98.87,82.65 C99.1939372,82.1669419 99.8176494,81.9857282 100.35,82.22 C100.763368,82.3919901 101.050632,82.7750096 101.1,83.22 C100.977889,83.8150784 100.677999,84.3590653 100.24,84.78 L100.24,84.79 Z" id="Shape" fill="#FFFFFF"></path>
            <path d="M78.25,109.22 C75.73,109.17 74.09,110.53 74.06,112.71 C74.06,114.71 75.88,116.21 78.34,116.22 C79.3050076,116.297719 80.256064,115.951623 80.9454205,115.271867 C81.634777,114.592112 81.994178,113.646003 81.93,112.68 C81.93,110.57 80.53,109.26 78.25,109.22 Z" id="Shape" fill="#FFFFFF"></path>
            <path d="M14.05,92.59 C12.3090271,90.5012593 10.8188617,88.2156678 9.61,85.78 C8.03877478,82.3676092 6.7802863,78.8197427 5.85,75.18 C4.17087484,69.1657919 3.30319165,62.9541219 3.27,56.71 C3.40733824,46.3393944 6.31061879,36.1934473 11.68,27.32 C12.0418158,26.7953785 12.3436997,26.2318619 12.58,25.64 C12.82,24.89 12.16,24.2 11.26,24.27 C10.36,24.34 9.99,25.27 9.56,26.01 C6.70711533,30.8289038 4.48557403,35.9945755 2.95,41.38 C-1.4,57.67 1.12,73.22 8.09,88.27 C9.35,90.97 11.45,93.13 13.14,95.55 C13.2960379,95.8847755 13.5911081,96.1342269 13.9471797,96.2323872 C14.3032513,96.3305475 14.6844617,96.2675301 14.99,96.06 C15.76,95.55 15.58,94.83 15.15,94.17 C14.72,93.51 14.45,93.09 14.05,92.59 Z" id="Shape" fill="#FE6054"></path>
            <path d="M143.11,26.16 C142.792024,25.5140424 142.342387,24.941777 141.79,24.48 C141.388377,24.1849082 140.841623,24.1849082 140.44,24.48 C139.99953,24.7368885 139.822888,25.2840495 140.03,25.75 C140.293662,26.3305971 140.597742,26.891976 140.94,27.43 C144.401913,33.3753881 146.87734,39.8425689 148.27,46.58 C150.17,56.46 149.15,66.15 146.57,75.75 C144.9,81.97 142.63,87.91 138.33,92.87 C138.030651,93.2423604 137.75988,93.6368177 137.52,94.05 C137.07,94.78 136.74,95.57 137.65,96.13 C138.56,96.69 139.04,96.13 139.48,95.51 C141.25,92.95 143.36,90.64 144.74,87.81 C148.877845,79.0722684 151.256337,69.6058677 151.74,59.95 C152.083473,48.1008466 149.093348,36.3932768 143.11,26.16 Z" id="Shape" fill="#FE6054"></path>
            <path d="M133.44,41.54 C132.892834,40.1178287 132.043243,38.8315003 130.95,37.77 C130.29,37.15 129.47,36.58 128.66,37.43 C127.85,38.28 128.52,38.89 129.13,39.43 C130.250058,40.5813565 131.085601,41.9784946 131.57,43.51 C132.297392,45.5384113 132.901822,47.6088345 133.38,49.71 C135.84,60.25 135.72,70.48 129.67,79.97 C129.23,80.67 129.13,81.32 129.88,81.85 C130.63,82.38 131.3,81.98 131.74,81.37 C132.403726,80.4698019 132.992373,79.5165957 133.5,78.52 C136.151912,72.9152225 137.49248,66.7800738 137.42,60.58 C137.199611,54.0515026 135.853149,47.6101366 133.44,41.54 Z" id="Shape" fill="#FE6054"></path>
            <path d="M21.82,37.61 C20.5727908,38.7455184 19.6131208,40.1610318 19.02,41.74 C16.6008721,47.9294201 15.3202909,54.5051032 15.24,61.15 C15.24,61.95 15.24,62.75 15.24,63.55 C15.4645161,69.4052053 17.0973109,75.119987 20,80.21 C20.3109918,80.8631936 20.7739035,81.4324036 21.35,81.87 C21.7451274,82.1734527 22.2948726,82.1734527 22.69,81.87 C23.1946609,81.5665955 23.3781965,80.9242209 23.11,80.4 C22.9614529,80.1180178 22.7873926,79.8502327 22.59,79.6 C20.8466621,76.9119185 19.5844937,73.9409162 18.86,70.82 C16.55,61.91 17.86,53.22 20.59,44.64 C21.0754142,42.6104114 22.1138502,40.7550724 23.59,39.28 C24.19,38.76 24.53,38.08 23.9,37.4 C23.27,36.72 22.45,37 21.82,37.61 Z" id="Shape" fill="#FE6054"></path>
        </g>
    </g>
</svg>