<svg xmlns="http://www.w3.org/2000/svg" xmlns:xlink="http://www.w3.org/1999/xlink" width="46" height="35" viewBox="0 0 46 35"><defs><path id="9cica" d="M551 2283.65c-1.2 0-2.19.98-2.19 2.18 0 1.2.99 2.18 2.2 2.18 1.2 0 2.19-.98 2.19-2.18 0-1.2-.98-2.18-2.2-2.18zm0 7.02a4.87 4.87 0 0 1-4.88-4.85 4.87 4.87 0 0 1 4.88-4.84 4.87 4.87 0 0 1 4.88 4.84 4.87 4.87 0 0 1-4.88 4.85zm0-12.7a7.9 7.9 0 0 0-7.9 7.85 7.9 7.9 0 0 0 7.9 7.86 7.9 7.9 0 0 0 7.91-7.86 7.9 7.9 0 0 0-7.9-7.85zm10.74 0a5.2 5.2 0 0 1 .73-3.8 1.5 1.5 0 0 0-.42-2.2c-.17-.1-4.21-2.48-11.05-2.48-6.83 0-10.87 2.37-11.04 2.48a1.5 1.5 0 0 0-.43 2.2 5.2 5.2 0 0 1 .74 3.8l-7.7 1.85c-1.26-.89-1.54-2.4-1.54-3.58 0-5.18 8.77-9.23 19.97-9.23s19.97 4.05 19.97 9.23c0 1.17-.28 2.7-1.53 3.58zm-13.35-5.34a25.7 25.7 0 0 1 5.23 0l-.17.65h-4.88zm19.42 19.57v3.79h-33.63v-3.79c0-3.3 1.34-4.82 2.67-6.34 1.5-1.7 2.27-3.1 2.52-4.57l2.45-.6a1.5 1.5 0 0 0 1.06-.9 8.21 8.21 0 0 0-.06-5.85c.63-.25 1.5-.54 2.57-.8l.54 2.03c.17.66.78 1.12 1.46 1.12h7.21c.69 0 1.3-.46 1.47-1.12l.53-2.02c1.06.25 1.94.55 2.57.8a8.23 8.23 0 0 0-.06 5.83c.18.46.57.8 1.06.92l2.46.59c.25 1.47 1.03 2.87 2.55 4.61 1.3 1.48 2.63 3 2.63 6.3zm1.87-9.27c.23 0 .47-.06.68-.16 2.31-1.16 3.64-3.54 3.64-6.53 0-7.1-9.67-12.24-23-12.24s-23 5.15-23 12.24c0 3 1.33 5.37 3.64 6.53.32.16.69.2 1.04.12l3.18-.77c-.29.5-.71 1.1-1.34 1.8-1.42 1.63-3.38 3.86-3.38 8.28v5.3c0 .83.68 1.5 1.52 1.5h36.68c.84 0 1.51-.67 1.51-1.5v-5.3c0-4.42-1.95-6.65-3.41-8.31a11.1 11.1 0 0 1-1.3-1.77l3.18.77c.12.02.24.04.36.04z"/></defs><g><g transform="translate(-528 -2264)"><use fill="#ff6053" xlink:href="#9cica"/></g></g></svg>