<?xml version="1.0" encoding="UTF-8"?>
<svg width="106px" height="156px" viewBox="0 0 106 156" version="1.1" xmlns="http://www.w3.org/2000/svg" xmlns:xlink="http://www.w3.org/1999/xlink">
    <!-- Generator: Sketch 51.2 (57519) - http://www.bohemiancoding.com/sketch -->
    <title>Group 10</title>
    <desc>Created with Sketch.</desc>
    <defs></defs>
    <g id="Page-1" stroke="none" stroke-width="1" fill="none" fill-rule="evenodd">
        <g id="Group-10" fill-rule="nonzero">
            <path d="M105.77,55.54 C105.83,53.07 104.65,51.69 102.24,51.1 C101.7,50.97 101.14,50.89 100.59,50.8 C99.35,50.6 97.69,51.38 96.94,50.4 C96.19,49.42 96.76,47.79 96.69,46.4 C96.69,46 96.69,45.6 96.69,45.2 C96.58,44.11 96.96,43.55 98.15,43.62 C99.1092125,43.6749894 100.070787,43.6749894 101.03,43.62 C104.11,43.47 105.65,41.79 105.55,38.67 C105.55,37.67 105.28,36.61 105.29,35.58 C105.36,30.87 105.06,26.15 105.48,21.43 C105.544823,20.6335822 105.494302,19.8319771 105.33,19.05 C105.112853,17.1551127 103.662666,15.63548 101.78,15.33 C100.533393,15.0514316 99.2567415,14.9304857 97.98,14.97 C97.08,14.97 96.68,14.66 96.68,13.72 C96.68,11.88 96.55,10.04 96.59,8.21 C96.6818552,5.82043648 95.3459934,3.60447747 93.19,2.57 C91.0363538,1.33335232 88.6031866,0.665694003 86.12,0.63 C65.56,0.63 45,0.63 24.44,0.63 L12.92,0.63 C10.1151636,0.526428469 7.32476093,1.07766138 4.77,2.24 C2.58937107,3.31887494 0.991900986,5.30017651 0.4,7.66 C0.0727726948,9.22104017 -0.0115533248,10.8232345 0.15,12.41 L0.15,77 L0.15,139.4 C0.15,141.07 -0.05,142.75 0.06,144.4 C0.42,149.65 3.49,153.59 8.06,154.54 C11.2,155.2 39.77,155.54 50.87,155.73 C61.97,155.92 72.95,155.05 83.94,154.98 C91.8,154.92 96.27,153.22 96.7,146.57 C96.88,143.85 96.7,141.14 96.7,138.43 C96.7,128.35 96.7,118.27 96.7,108.19 C96.7,106.85 96.12,105.19 97.07,104.27 C97.83,103.52 99.37,104.06 100.56,104.03 C102.53548,104.071126 104.325738,102.872292 105.04,101.03 C105.499406,99.8360493 105.693892,98.556532 105.61,97.28 C105.74,83.37 105.46,69.45 105.77,55.54 Z M96.67,37.29 C96.62,34.49 96.67,31.7 96.67,28.9 C96.67,25.54 96.67,22.19 96.67,18.83 C96.67,17.11 96.73,17.1 98.42,17.1 L98.66,17.1 C102.53,17.41 103.11,17.76 102.96,21.65 C102.629981,27.2298549 102.670069,32.8254463 103.08,38.4 C103.23,40.05 102.58,40.69 100.89,40.89 L100.65,40.89 C95.72,40.91 96.75,41.3 96.67,37.29 Z M94,63.8 C94,68.2 94,72.6 94,77 L94,140.59 C94,142.1 94,143.59 94,145.13 C93.9919216,145.608097 93.9585416,146.085432 93.9,146.56 C93.48,150.11 91.58,152.02 88,152.3 C86.41,152.43 84.8,152.3 83.21,152.3 C60.65,152.3 38.0933333,152.3 15.54,152.3 C13.3038813,152.237913 11.0733564,152.044245 8.86,151.72 C6.32612972,151.455643 4.14326621,149.818496 3.18,147.46 C2.5101137,145.998414 2.16876906,144.407748 2.18,142.8 C2.46,126.8 2.27,110.8 2.3,94.8 C2.3,67.52 2.3,40.2433333 2.3,12.97 C2.3,11.61 2.3,10.25 2.37,8.89 C2.4011445,6.66810422 3.74308062,4.67481899 5.79,3.81 C7.53195037,2.99046269 9.43491892,2.57023804 11.36,2.58 L85.98,2.58 C87.642774,2.61685802 89.2774731,3.01614778 90.77,3.75 C92.5969363,4.56748768 93.7940603,6.35928685 93.85,8.36 C94.18,26.84 93.89,45.32 94,63.8 Z M96.72,71.96 C96.67,69.48 96.72,67.01 96.72,64.53 C96.72,61.18 96.72,57.82 96.72,54.47 C96.72,53.27 97.01,52.65 98.32,52.81 C98.7963393,52.8349854 99.2736607,52.8349854 99.75,52.81 C102.9,52.94 103.24,53.3 103.24,56.47 C103.24,62.53 103.24,68.6 103.24,74.67 C103.24,76.47 103.24,76.55 101.4,76.48 C99.92,76.43 98.07,77.18 97.06,76.11 C96.05,75.04 96.73,73.38 96.7,72 L96.72,71.96 Z M103.51,97.01 C103.575517,97.806759 103.483778,98.6086264 103.24,99.37 C102.891506,100.464723 101.888437,101.219031 100.74,101.25 C97.02,101.55 97.02,101.58 97.02,97.93 L97.02,90 C97.02,86.8 97.02,83.6 97.02,80.41 C96.9955097,80.0051359 97.1478096,79.6095499 97.4374781,79.3256364 C97.7271466,79.0417229 98.1257088,78.8973911 98.53,78.93 C100.1,79.08 102.1,78.29 103.15,79.24 C104.2,80.19 103.49,82.24 103.51,83.82 C103.53,88.24 103.49,92.62 103.49,97 L103.51,97.01 Z" id="Shape" fill="#222222"></path>
            <path d="M69.73,71.64 C69.73,57.01 69.73,42.38 69.97,27.75 C69.97,26.16 69.97,24.56 69.97,22.96 C69.9634334,21.8396235 69.886616,20.7207612 69.74,19.61 C69.574938,17.4560005 67.9685683,15.6889938 65.84,15.32 C64.4414127,15.0033992 63.013798,14.8324876 61.58,14.81 C51.03,14.81 40.47,14.81 29.92,14.81 C28.2422644,14.7986018 26.5674936,14.9526807 24.92,15.27 C22.8106401,15.6072189 21.0809848,17.1230966 20.47,19.17 C19.9859156,20.5217347 19.7291058,21.9443262 19.71,23.38 C19.71,32.26 19.71,41.13 19.71,50.01 L19.71,74.24 C19.71,75.49 19.59,76.75 19.64,78 C19.7761111,80.7193605 21.7262556,83.0061616 24.39,83.57 C26.0623955,83.9002505 27.7657275,84.0477832 29.47,84.01 L59.7,84.01 C60.8555088,84.0062886 62.0104205,84.0630328 63.16,84.18 C66.96,84.57 69.16,82.83 69.78,79.03 C70.0038829,77.9313028 70.0544949,76.8043429 69.93,75.69 C69.7639755,74.3467425 69.6971279,72.9930796 69.73,71.64 Z M43,18 C43.7154064,18.0601068 44.4345936,18.0601068 45.15,18 C46.35,18 47.55,18.09 48.74,18 C50.520559,17.8477357 52.2410429,18.6849355 53.22,20.18 C56.56,24.48 55.64,32.12 51.5,35.6 C48.33,38.28 44.8,38.12 41.1,37.22 C33.98,35.47 33.15,29.82 34.62,24.62 C34.9556248,23.5477909 35.4584865,22.5353177 36.11,21.62 C37.71,19.14 39.72,17.43 43,18 Z M47.25,82 C44.87,82 42.48,82 40.08,82 C40.55,78 44,76 47.08,77.73 C47.943352,78.1742049 48.5841401,78.9561835 48.85,79.89 C49.33,81.57 49,82 47.22,82 L47.25,82 Z M53.06,82 C52.13,82.14 51.74,81.8 51.81,80.84 C51.88,79.71 51.22,78.62 52.18,77.45 C52.42692,77.0743256 52.3927989,76.5800563 52.096599,76.2418754 C51.8003991,75.9036944 51.3149364,75.8047381 50.91,76 C49.65,76.76 49.01,75.9 48.15,75.49 C47.06,74.96 45.59,74.9 45.58,73.12 C45.58,72.66 44.94,72.39 44.43,72.48 C43.8660576,72.5983936 43.4542927,73.0842762 43.43,73.66 C43.36,74.13 43.43,74.66 42.83,74.84 C41.66,75.18 40.73,75.99 39.63,76.42 C39.4,76.51 38.97,76.05 38.63,75.86 C38.1319993,75.5334515 37.4640974,75.6670318 37.13,76.16 C36.7837425,76.5248125 36.7623324,77.0900388 37.08,77.48 C38.64,78.8 37.67,80.24 37.4,81.65 C33.92,82.12 33.82,82.01 34.52,78.55 C35.44,73.97 38.78,71.17 43.88,70.28 C48.27,69.52 52.14,72.48 53.98,75.7 C54.760465,77.2881293 55.1055407,79.0549165 54.98,80.82 C54.91,82.26 53.83,81.92 53,82 L53.06,82 Z M67.06,67.64 C56.99,50.09 31.66,50.24 22.31,67.2 C21.97,58.9 22.23,51.07 22.11,42.64 C28.46,49.71 35.6,53.39 44.76,53.12 C53.92,52.85 60.59,48.48 67.06,42.33 L67.06,67.64 Z M63.82,42.14 C61.8877808,43.8091397 59.8502449,45.3523227 57.72,46.76 C51.8725897,50.2100448 44.9614435,51.391559 38.3,50.08 C32.3,48.97 27.74,45.38 24,40.68 C22.8562802,39.1125027 22.2653692,37.2096284 22.32,35.27 C22.25,30.81 21.94,26.27 22.53,21.86 C22.9,18.99 24.03,17.99 26.95,17.86 C29.87,17.73 32.64,18.17 35.66,17.73 C35.3726413,18.5473054 34.9043118,19.289112 34.29,19.9 C31.5996257,23.5874736 30.8548021,28.3468969 32.29,32.68 C32.9024734,34.8657617 34.379427,36.7074397 36.38,37.78 C39.607667,39.6023366 43.3043003,40.4238107 47,40.14 C52,39.74 57,34.87 57.54,29.81 C57.98,25.93 57.7,22.13 55.37,18.81 C55.1777321,18.5686698 55.203886,18.2199516 55.43,18.01 C58.6218577,17.824008 61.8227203,17.85742 65.01,18.11 C66.273264,18.1139691 67.3113734,19.1080909 67.37,20.37 C67.4501364,21.1646514 67.4501364,21.9653486 67.37,22.76 C67.1401106,26.1894851 67.1401106,29.6305149 67.37,33.06 C67.65,36.75 66.85,39.82 63.76,42.18 L63.82,42.14 Z" id="Shape" fill="#222222"></path>
            <path d="M66.18,122.72 C68.2554305,122.613429 69.8827343,120.898163 69.88,118.82 C69.7772556,116.837672 68.1399891,115.283067 66.155,115.283067 C64.1700109,115.283067 62.5327444,116.837672 62.43,118.82 C62.4778985,120.896428 64.1070453,122.590741 66.18,122.72 Z M66.35,117.61 C66.6564212,117.628352 66.9405555,117.776231 67.131386,118.016678 C67.3222164,118.257124 67.4017108,118.567417 67.35,118.87 C67.19,119.66 66.81,120.34 65.97,120.18 C65.2512699,120.002226 64.8067956,119.282178 64.97,118.56 C65.07,117.77 65.65,117.55 66.35,117.61 Z" id="Shape" fill="#222222"></path>
            <path d="M20.67,118.81 C20.7115255,120.879534 22.3250975,122.57552 24.39,122.72 C26.4679357,122.634479 28.1110666,120.929676 28.12,118.85 C28.0172556,116.867672 26.3799891,115.313067 24.395,115.313067 C22.4100109,115.313067 20.7727444,116.867672 20.67,118.85 L20.67,118.81 Z M25.62,118.63 C25.7192956,119.379991 25.221299,120.078933 24.48,120.23 C23.749383,120.177025 23.1874655,119.562428 23.2,118.83 C23.1243712,118.509085 23.211787,118.171515 23.4336707,117.927643 C23.6555544,117.683771 23.9833875,117.564941 24.31,117.61 C25.05,117.57 25.57,117.87 25.62,118.63 Z" id="Shape" fill="#222222"></path>
            <path d="M24.22,132 C23.2576527,131.958908 22.3228143,132.326733 21.6464914,133.012582 C20.9701686,133.69843 20.6154537,134.638321 20.67,135.6 C20.6628885,137.686431 22.2606688,139.427881 24.34,139.6 C25.3816995,139.56883 26.3675909,139.122032 27.077742,138.359277 C27.787893,137.596522 28.1632217,136.581269 28.12,135.54 C28.09,133.26 26.57,131.89 24.22,132 Z M24.45,137 C23.61,137 23.22,136.34 23.2,135.58 C23.1535534,135.279144 23.2466783,134.973515 23.4529985,134.749677 C23.6593186,134.525839 23.9563639,134.408171 24.26,134.43 C25.14,134.43 25.61,134.78 25.63,135.52 C25.65,136.26 25.29,137 24.45,137 Z" id="Shape" fill="#222222"></path>
            <path d="M66.19,98.35 C65.1885879,98.2578696 64.1968221,98.6072668 63.4742901,99.3067392 C62.7517581,100.006212 62.3703878,100.986127 62.43,101.99 C62.4604169,104.060132 64.065459,105.764947 66.13,105.92 C67.1727947,105.88386 68.157354,105.430304 68.8625042,104.66122 C69.5676545,103.892136 69.9342724,102.872008 69.88,101.83 C69.9031491,100.862842 69.5143991,99.9313715 68.8105853,99.2676121 C68.1067715,98.6038528 67.1541452,98.2702855 66.19,98.35 Z M66.05,103.35 C65.6936928,103.289384 65.3769806,103.087406 65.1717429,102.789905 C64.9665051,102.492405 64.8901476,102.124612 64.96,101.77 C65.03,101 65.58,100.77 66.3,100.77 C66.6167953,100.764463 66.9203219,100.897045 67.1315356,101.13322 C67.3427492,101.369395 67.4407439,101.685787 67.4,102 C67.26,102.82 66.9,103.5 66.05,103.38 L66.05,103.35 Z" id="Shape" fill="#222222"></path>
            <path d="M24.29,98.36 C23.3259355,98.296577 22.3804139,98.646298 21.6896537,99.3217928 C20.9988935,99.9972876 20.6281335,100.934759 20.67,101.9 C20.659667,103.961912 22.2183948,105.693832 24.27,105.9 C25.3123362,105.884282 26.3052402,105.452982 27.0281498,104.701907 C27.7510594,103.950832 28.1441136,102.942176 28.12,101.9 C28.1625924,100.896572 27.7619717,99.9251412 27.0244284,99.2434433 C26.2868852,98.5617453 25.286979,98.2386941 24.29,98.36 Z M24.39,103.36 C23.56,103.36 23.19,102.63 23.19,101.87 C23.1583169,101.561372 23.271677,101.255519 23.4968523,101.042092 C23.7220276,100.828665 24.0335107,100.731841 24.34,100.78 C25.2,100.78 25.64,101.18 25.62,101.92 C25.6,102.66 25.24,103.41 24.39,103.39 L24.39,103.36 Z" id="Shape" fill="#222222"></path>
            <path d="M66.38,131.94 C64.04,131.86 62.54,133.17 62.44,135.4 C62.3707483,137.557517 64.0258647,139.3808 66.18,139.52 C68.2554305,139.413429 69.8827343,137.698163 69.88,135.62 C69.9539327,134.654737 69.6153126,133.703361 68.9481405,133.001877 C68.2809683,132.300393 67.3477549,131.914527 66.38,131.94 Z M66.24,137.05 C65.4660127,136.951338 64.9015613,136.268745 64.95,135.49 C64.95,134.75 65.45,134.39 66.21,134.41 C66.5276323,134.37244 66.8452417,134.480311 67.0742995,134.703545 C67.3033573,134.926779 67.4193697,135.241506 67.39,135.56 C67.4125324,136.267842 66.9304534,136.892449 66.24,137.05 Z" id="Shape" fill="#222222"></path>
            <path d="M45.81,105.92 C47.8893664,105.827988 49.5077632,104.080298 49.44,102 C49.5297541,100.994566 49.1640811,100.001845 48.4435582,99.2948804 C47.7230352,98.5879157 46.7235474,98.2411647 45.72,98.35 C44.7553187,98.248307 43.7947531,98.576199 43.093604,99.2465284 C42.3924549,99.9168577 42.0217442,100.861724 42.08,101.83 C42.0257024,102.868668 42.3896134,103.885823 43.0904661,104.654318 C43.7913188,105.422814 44.7707364,105.878638 45.81,105.92 Z M45.81,100.82 C46.1350172,100.777361 46.4614764,100.887494 46.6942435,101.118305 C46.9270105,101.349116 47.0398946,101.674635 47,102 C47,102.78 46.57,103.42 45.79,103.42 C45.01,103.42 44.59,102.76 44.59,101.95 C44.59,101.14 45,100.81 45.78,100.82 L45.81,100.82 Z" id="Shape" fill="#222222"></path>
            <path d="M45.78,122.72 C47.8632083,122.643958 49.4962452,120.903837 49.44,118.82 C49.44,116.787592 47.7924079,115.14 45.76,115.14 C43.7275921,115.14 42.08,116.787592 42.08,118.82 C42.0670266,120.902225 43.6999748,122.62344 45.78,122.72 Z M45.66,117.61 C46.4,117.61 46.93,117.84 46.98,118.61 C47.0557122,118.965242 46.9769351,119.335923 46.7632991,119.629672 C46.5496632,119.923422 46.2212873,120.112576 45.86,120.15 C45.03,120.23 44.64,119.58 44.58,118.78 C44.5254513,118.472299 44.617882,118.156789 44.8298437,117.927163 C45.0418054,117.697538 45.3489251,117.580202 45.66,117.61 Z" id="Shape" fill="#222222"></path>
            <path d="M45.68,132 C44.6727797,131.912088 43.6801683,132.286539 42.9819706,133.017799 C42.2837729,133.749059 41.9556148,134.757921 42.09,135.76 C42.10592,137.836532 43.773753,139.522108 45.85,139.56 C47.9306623,139.457513 49.5362108,137.690962 49.44,135.61 C49.5228222,134.602448 49.1475841,133.611155 48.4183358,132.910999 C47.6890875,132.210843 46.6833482,131.87625 45.68,132 Z M45.68,137.08 C44.9569301,136.921355 44.4670271,136.246664 44.54,135.51 C44.54,134.7 45.08,134.44 45.8,134.51 C46.52,134.58 46.98,134.91 46.95,135.68 C46.9159918,136.360753 46.3966612,136.918083 45.72,137 L45.68,137.08 Z" id="Shape" fill="#222222"></path>
            <path d="M85.29,24.36 C85.0267223,24.5306228 84.7820524,24.7283697 84.56,24.95 C82.56,26.68 80.56,28.4 78.64,30.15 C78.1412285,30.5392501 77.7147424,31.0131237 77.38,31.55 C77.1865067,31.9372466 77.2290432,32.4006736 77.4897976,32.7462263 C77.7505521,33.091779 78.1845269,33.2598262 78.61,33.18 C78.9252889,33.0407092 79.2238459,32.8662714 79.5,32.66 C81.72,30.7266667 83.9333333,28.7866667 86.14,26.84 C86.4250202,26.5673127 86.6767706,26.2618555 86.89,25.93 C87.1751355,25.5167175 87.1378408,24.9614409 86.8,24.59 C86.4351158,24.1287796 85.7756553,24.028332 85.29,24.36 Z" id="Shape" fill="#222222"></path>
            <path d="M85.83,16.38 C85.47231,16.5362776 85.1362167,16.7379335 84.83,16.98 C82.56,18.75 80.3,20.54 78.04,22.32 C77.6289675,22.5707357 77.3125047,22.9504911 77.14,23.4 C77.0242976,23.743616 77.0853525,24.1221783 77.3032158,24.4119964 C77.5210791,24.7018146 77.8677657,24.8656606 78.23,24.85 C78.7144149,24.8330708 79.1733311,24.6287097 79.51,24.28 L86.51,18.8 C86.7673163,18.6095313 86.9933641,18.3801097 87.18,18.12 C87.4943118,17.7286273 87.4943118,17.1713727 87.18,16.78 C86.9160303,16.2987734 86.3135179,16.1202512 85.83,16.38 Z" id="Shape" fill="#222222"></path>
            <path d="M84.18,33.51 C82.18,35.31 80.18,37.12 78.13,38.95 C77.8906542,39.1576604 77.7024407,39.4177372 77.58,39.71 C77.439813,40.0647335 77.4933992,40.4667705 77.7216042,40.7724022 C77.9498092,41.0780339 78.3200563,41.2436308 78.7,41.21 C79.0688586,41.1930443 79.4212019,41.052107 79.7,40.81 C81.77,38.94 83.86,37.08 85.92,35.2 C86.2313132,34.998248 86.4318124,34.6638539 86.4631054,34.2942047 C86.4943985,33.9245555 86.3529668,33.5612149 86.08,33.31 C85.42,32.65 84.75,33 84.18,33.51 Z" id="Shape" fill="#222222"></path>
            <path d="M38,32.89 C38.3942658,32.6206741 38.7685722,32.3232343 39.12,32 C39.8706607,32.4609928 40.656417,32.86223 41.47,33.2 C42.56,33.55 43.62,33.74 43.55,35.28 C43.6142355,35.8070797 44.0458165,36.2130408 44.5758369,36.2449402 C45.1058573,36.2768396 45.5830124,35.9255709 45.71,35.41 C45.6911315,34.8929843 45.8806278,34.3900395 46.2359697,34.0140164 C46.5913116,33.6379932 47.0827442,33.4203783 47.6,33.41 C48.55,33.25 49.36,32.21 50.47,33.1 C51,33.52 51.55,33.24 51.93,32.76 C52.1324528,32.5504423 52.2334359,32.2630052 52.206536,31.9728708 C52.1796361,31.6827364 52.0275291,31.4187647 51.79,31.25 C51.2283014,30.7598828 51.1015944,29.9362871 51.49,29.3 C51.7289364,28.6200585 51.8308965,27.8995405 51.79,27.18 C51.79,25.97 51.18,24.75 52.23,23.57 C52.68,23.05 51.71,21.84 51.17,22.2 C49.71,23.15 48.86,21.99 47.75,21.58 C46.64,21.17 45.8,20.83 45.55,19.46 C45.38,18.55 43.81,18.46 43.75,19.21 C43.57,21.21 41.75,21.21 40.7,22.12 C40.4369219,22.4084765 40.0679843,22.5777666 39.6777269,22.5890784 C39.2874695,22.6003902 38.9093456,22.4527541 38.63,22.18 C38.1480921,21.8803949 37.5201737,21.9734 37.1458043,22.399834 C36.7714349,22.8262681 36.7605179,23.460943 37.12,23.9 C38.12,24.72 37.95,25.66 37.68,26.71 C37.28,28.28 37.8,30.06 36.45,31.42 C36.13,31.73 36.29,32.35 36.68,32.72 C37.0233145,33.083895 37.5756871,33.1550339 38,32.89 Z M40,27.37 C40.554928,24.9569445 42.7456599,23.2782227 45.22,23.37 C46.2678069,23.3986595 47.2607475,23.8447132 47.9780909,24.6090032 C48.6954343,25.3732931 49.0777323,26.3924806 49.04,27.44 C49.1472751,28.5684276 48.7299638,29.683549 47.9082146,30.4643084 C47.0864654,31.2450677 45.9514677,31.6048242 44.83,31.44 C44.4362267,31.3976835 44.0454706,31.3308875 43.66,31.24 C41,30.71 39.65,29.23 40,27.37 Z" id="Shape" fill="#222222"></path>
            <path d="M93.83,8.35 C93.8262745,6.43712135 92.7314938,4.69401305 91.01,3.86 C89.4591545,3.06709247 87.7510749,2.62982408 86.01,2.58 L11.39,2.58 C9.46491892,2.57023804 7.56195037,2.99046269 5.82,3.81 C3.77308062,4.67481899 2.4311445,6.66810422 2.4,8.89 C2.33,10.25 2.33,11.61 2.33,12.97 C2.33,40.25 2.33,67.5266667 2.33,94.8 C2.33,110.8 2.49,126.8 2.21,142.8 C2.19876906,144.407748 2.5401137,145.998414 3.21,147.46 C4.17326621,149.818496 6.35612972,151.455643 8.89,151.72 C11.1033564,152.044245 13.3338813,152.237913 15.57,152.3 C38.1166667,152.26 60.6733333,152.26 83.24,152.3 C84.83,152.3 86.44,152.43 88.03,152.3 C91.61,152.02 93.51,150.11 93.93,146.56 C93.9901672,146.085712 94.0202274,145.608089 94.02,145.13 C94.02,143.62 94.02,142.13 94.02,140.59 L94.02,77 C94.02,72.6 94.02,68.2 94.02,63.8 C93.89,45.32 94.18,26.83 93.83,8.35 Z M24.27,105.92 C22.2183948,105.713832 20.659667,103.981912 20.67,101.92 C20.7727444,99.9376718 22.4100109,98.3830673 24.395,98.3830673 C26.3799891,98.3830673 28.0172556,99.9376718 28.12,101.92 C28.1441136,102.962176 27.7510594,103.970832 27.0281498,104.721907 C26.3052402,105.472982 25.3123362,105.904282 24.27,105.92 Z M28.12,118.85 C28.1110666,120.929676 26.4679357,122.634479 24.39,122.72 C22.3250975,122.57552 20.7115255,120.879534 20.67,118.81 C20.7727444,116.827672 22.4100109,115.273067 24.395,115.273067 C26.3799891,115.273067 28.0172556,116.827672 28.12,118.81 L28.12,118.85 Z M24.34,139.52 C22.2606688,139.347881 20.6628885,137.606431 20.67,135.52 C20.6154537,134.558321 20.9701686,133.61843 21.6464914,132.932582 C22.3228143,132.246733 23.2576527,131.878908 24.22,131.92 C26.57,131.85 28.09,133.22 28.12,135.42 C28.1742712,136.468019 27.8038941,137.493686 27.0925603,138.265239 C26.3812265,139.036791 25.3889686,139.489114 24.34,139.52 Z M42.08,101.83 C42.0217442,100.861724 42.3924549,99.9168577 43.093604,99.2465284 C43.7947531,98.576199 44.7553187,98.248307 45.72,98.35 C46.7235474,98.2411647 47.7230352,98.5879157 48.4435582,99.2948804 C49.1640811,100.001845 49.5297541,100.994566 49.44,102 C49.5077632,104.080298 47.8893664,105.827988 45.81,105.92 C44.7707364,105.878638 43.7913188,105.422814 43.0904661,104.654318 C42.3896134,103.885823 42.0257024,102.868668 42.08,101.83 Z M45.74,115.14 C46.745084,115.039932 47.7422499,115.394605 48.4583983,116.106882 C49.1745466,116.819159 49.5346189,117.814388 49.44,118.82 C49.4962452,120.903837 47.8632083,122.643958 45.78,122.72 C43.707738,122.623762 42.0777665,120.914494 42.08,118.84 C41.9695617,117.836047 42.3179745,116.835854 43.0282668,116.117799 C43.7385592,115.399744 44.7349058,115.04048 45.74,115.14 Z M45.85,139.51 C43.773753,139.472108 42.10592,137.786532 42.09,135.71 C41.9972834,134.35629 42.6570161,133.061392 43.806643,132.340638 C44.9562699,131.619885 46.4092427,131.590233 47.5873186,132.263482 C48.7653945,132.936731 49.477409,134.203634 49.44,135.56 C49.5362108,137.640962 47.9306623,139.407513 45.85,139.51 Z M66.18,139.51 C64.0258647,139.3708 62.3707483,137.547517 62.44,135.39 C62.54,133.16 64.04,131.85 66.38,131.93 C67.3477549,131.904527 68.2809683,132.290393 68.9481405,132.991877 C69.6153126,133.693361 69.9539327,134.644737 69.88,135.61 C69.8880773,137.692025 68.2593023,139.413244 66.18,139.52 L66.18,139.51 Z M62.43,118.83 C62.5327444,116.847672 64.1700109,115.293067 66.155,115.293067 C68.1399891,115.293067 69.7772556,116.847672 69.88,118.83 C69.8827343,120.908163 68.2554305,122.623429 66.18,122.73 C64.1107814,122.601101 62.4830029,120.912552 62.43,118.84 L62.43,118.83 Z M66.13,105.91 C64.065459,105.754947 62.4604169,104.050132 62.43,101.98 C62.4810861,99.9889485 64.0874363,98.3892973 66.0786839,98.3465322 C68.0699315,98.3037672 69.7434787,99.8329776 69.88,101.82 C69.9370494,102.863689 69.571679,103.886424 68.8662324,104.657713 C68.1607857,105.429001 67.1746245,105.88394 66.13,105.92 L66.13,105.91 Z M69.79,79.02 C69.19,82.82 66.97,84.56 63.17,84.17 C62.0204205,84.0530328 60.8655088,83.9962886 59.71,84 L29.48,84 C27.7757275,84.0377832 26.0723955,83.8902505 24.4,83.56 C21.7362556,82.9961616 19.7861111,80.7093605 19.65,77.99 C19.65,76.74 19.72,75.48 19.72,74.23 L19.72,50 C19.72,41.12 19.72,32.25 19.72,23.37 C19.7391058,21.9343262 19.9959156,20.5117347 20.48,19.16 C21.0909848,17.1130966 22.8206401,15.5972189 24.93,15.26 C26.5774936,14.9426807 28.2522644,14.7886018 29.93,14.8 C40.48,14.8 51.04,14.85 61.59,14.8 C63.023798,14.8224876 64.4514127,14.9933992 65.85,15.31 C67.9785683,15.6789938 69.584938,17.4460005 69.75,19.6 C69.896616,20.7107612 69.9734334,21.8296235 69.98,22.95 C69.98,24.55 69.98,26.15 69.98,27.74 C69.7,42.37 69.73,57 69.74,71.63 C69.7128872,72.966662 69.7830726,74.3035251 69.95,75.63 C70.0743721,76.7547529 70.0203739,77.8920897 69.79,79 L69.79,79.02 Z M85.92,35.19 C83.86,37.07 81.77,38.93 79.7,40.8 C79.4212019,41.042107 79.0688586,41.1830443 78.7,41.2 C78.3200563,41.2336308 77.9498092,41.0680339 77.7216042,40.7624022 C77.4933992,40.4567705 77.439813,40.0547335 77.58,39.7 C77.7024407,39.4077372 77.8906542,39.1476604 78.13,38.94 C80.13,37.11 82.13,35.3 84.18,33.5 C84.75,32.99 85.42,32.64 86.08,33.3 C86.3569064,33.5511578 86.5009422,33.91702 86.4695719,34.2895429 C86.4382015,34.6620658 86.2350092,34.9986877 85.92,35.2 L85.92,35.19 Z M86.92,25.92 C86.7067706,26.2518555 86.4550202,26.5573127 86.17,26.83 C83.9633333,28.7766667 81.75,30.7166667 79.53,32.65 C79.2538459,32.8562714 78.9552889,33.0307092 78.64,33.17 C78.2145269,33.2498262 77.7805521,33.081779 77.5197976,32.7362263 C77.2590432,32.3906736 77.2165067,31.9272466 77.41,31.54 C77.7447424,31.0031237 78.1712285,30.5292501 78.67,30.14 C80.67,28.39 82.61,26.67 84.59,24.94 C84.8120524,24.7183697 85.0567223,24.5206228 85.32,24.35 C85.8056553,24.018332 86.4651158,24.1187796 86.83,24.58 C87.1638298,24.9603613 87.1887703,25.5215232 86.89,25.93 L86.92,25.92 Z M87.16,18.11 C86.9733641,18.3701097 86.7473163,18.5995313 86.49,18.79 L79.49,24.27 C79.1533311,24.6187097 78.6944149,24.8230708 78.21,24.84 C77.8477657,24.8556606 77.5010791,24.6918146 77.2832158,24.4019964 C77.0653525,24.1121783 77.0042976,23.733616 77.12,23.39 C77.2925047,22.9404911 77.6089675,22.5607357 78.02,22.31 C80.28,20.53 82.54,18.74 84.81,16.97 C85.1162167,16.7279335 85.45231,16.5262776 85.81,16.37 C86.2734671,16.1611491 86.8198732,16.3332455 87.08,16.77 C87.4145413,17.1512665 87.4354215,17.7150311 87.13,18.12 L87.16,18.11 Z" id="Shape" fill="#FFFFFF"></path>
            <path d="M97,76.13 C98,77.2 99.86,76.45 101.34,76.5 C103.15,76.57 103.18,76.5 103.18,74.69 C103.18,68.62 103.18,62.55 103.18,56.49 C103.18,53.32 102.84,52.96 99.69,52.83 C99.2136607,52.8549854 98.7363393,52.8549854 98.26,52.83 C96.95,52.67 96.64,53.29 96.66,54.49 C96.72,57.84 96.66,61.2 96.66,64.55 C96.66,67.03 96.66,69.5 96.66,71.98 C96.73,73.38 96.1,75.17 97,76.13 Z" id="Shape" fill="#FFFFFF"></path>
            <path d="M103.47,83.85 C103.47,82.28 104.2,80.25 103.11,79.27 C102.02,78.29 100.11,79.11 98.49,78.96 C98.0857088,78.9273911 97.6871466,79.0717229 97.3974781,79.3556364 C97.1078096,79.6395499 96.9555097,80.0351359 96.98,80.44 C97.04,83.63 96.98,86.83 96.98,90.03 L96.98,97.93 C96.98,101.58 96.98,101.55 100.7,101.25 C101.848437,101.219031 102.851506,100.464723 103.2,99.37 C103.443778,98.6086264 103.535517,97.806759 103.47,97.01 C103.49,92.62 103.53,88.24 103.47,83.85 Z" id="Shape" fill="#FFFFFF"></path>
            <path d="M67.33,22.78 C67.4101364,21.9853486 67.4101364,21.1846514 67.33,20.39 C67.2713734,19.1280909 66.233264,18.1339691 64.97,18.13 C61.7827203,17.87742 58.5818577,17.844008 55.39,18.03 C55.163886,18.2399516 55.1377321,18.5886698 55.33,18.83 C57.66,22.19 57.94,25.99 57.5,29.83 C56.94,34.89 51.94,39.76 46.96,40.16 C43.2643003,40.4438107 39.567667,39.6223366 36.34,37.8 C34.339427,36.7274397 32.8624734,34.8857617 32.25,32.7 C30.8148021,28.3668969 31.5596257,23.6074736 34.25,19.92 C34.8643118,19.309112 35.3326413,18.5673054 35.62,17.75 C32.62,18.19 29.75,17.75 26.91,17.88 C24.07,18.01 22.86,18.99 22.49,21.88 C21.9,26.34 22.21,30.88 22.28,35.29 C22.2253692,37.2296284 22.8162802,39.1325027 23.96,40.7 C27.7,45.4 32.23,48.99 38.26,50.1 C44.9214435,51.411559 51.8325897,50.2300448 57.68,46.78 C59.8102449,45.3723227 61.8477808,43.8291397 63.78,42.16 C66.87,39.8 67.67,36.73 67.39,33.06 C67.1410219,29.6384959 67.1209772,26.2041773 67.33,22.78 Z" id="Shape" fill="#FFFFFF"></path>
            <path d="M22.05,42.68 C22.17,51.11 21.91,58.94 22.25,67.24 C31.6,50.24 56.93,50.13 67,67.68 L67,42.37 C60.53,48.52 53.71,52.89 44.7,53.16 C35.69,53.43 28.4,49.75 22.05,42.68 Z" id="Shape" fill="#FFFFFF"></path>
            <path d="M41.07,37.2 C44.77,38.1 48.3,38.26 51.47,35.58 C55.61,32.1 56.53,24.46 53.19,20.16 C52.2110429,18.6649355 50.490559,17.8277357 48.71,17.98 C47.52,18.09 46.32,17.98 45.12,17.98 C44.4045936,18.0401068 43.6854064,18.0401068 42.97,17.98 C39.72,17.43 37.71,19.14 36.08,21.62 C35.4284865,22.5353177 34.9256248,23.5477909 34.59,24.62 C33.12,29.8 34,35.45 41.07,37.2 Z M36.45,31.43 C37.8,30.07 37.28,28.29 37.68,26.72 C37.95,25.67 38.13,24.72 37.12,23.91 C36.7605179,23.470943 36.7714349,22.8362681 37.1458043,22.409834 C37.5201737,21.9834 38.1480921,21.8903949 38.63,22.19 C38.9093456,22.4627541 39.2874695,22.6103902 39.6777269,22.5990784 C40.0679843,22.5877666 40.4369219,22.4184765 40.7,22.13 C41.79,21.26 43.57,21.25 43.75,19.22 C43.81,18.46 45.38,18.56 45.55,19.47 C45.8,20.84 46.67,21.2 47.75,21.59 C48.83,21.98 49.75,23.16 51.17,22.21 C51.71,21.85 52.68,23.06 52.23,23.58 C51.23,24.76 51.79,25.98 51.79,27.19 C51.8308965,27.9095405 51.7289364,28.6300585 51.49,29.31 C51.1015944,29.9462871 51.2283014,30.7698828 51.79,31.26 C52.0275291,31.4287647 52.1796361,31.6927364 52.206536,31.9828708 C52.2334359,32.2730052 52.1324528,32.5604423 51.93,32.77 C51.55,33.25 51,33.53 50.47,33.11 C49.36,32.22 48.55,33.26 47.6,33.42 C47.0827442,33.4303783 46.5913116,33.6479932 46.2359697,34.0240164 C45.8806278,34.4000395 45.6911315,34.9029843 45.71,35.42 C45.5830124,35.9355709 45.1058573,36.2868396 44.5758369,36.2549402 C44.0458165,36.2230408 43.6142355,35.8170797 43.55,35.29 C43.62,33.75 42.55,33.56 41.47,33.21 C40.656417,32.87223 39.8706607,32.4709928 39.12,32.01 C38.7685722,32.3332343 38.3942658,32.6306741 38,32.9 C37.5779801,33.1675465 37.025878,33.100625 36.68,32.74 C36.29,32.36 36.13,31.74 36.45,31.43 Z" id="Shape" fill="#FFFFFF"></path>
            <path d="M43.83,70.32 C38.73,71.21 35.39,74.01 34.47,78.59 C33.77,82.05 33.87,82.16 37.35,81.69 C37.62,80.28 38.59,78.84 37.03,77.52 C36.7123324,77.1300388 36.7337425,76.5648125 37.08,76.2 C37.4140974,75.7070318 38.0819993,75.5734515 38.58,75.9 C38.92,76.09 39.35,76.55 39.58,76.46 C40.68,76.03 41.58,75.22 42.78,74.88 C43.36,74.71 43.31,74.17 43.38,73.7 C43.4042927,73.1242762 43.8160576,72.6383936 44.38,72.52 C44.89,72.43 45.52,72.7 45.53,73.16 C45.53,74.94 47.01,75 48.1,75.53 C48.96,75.94 49.6,76.8 50.86,76.04 C51.2649364,75.8447381 51.7503991,75.9436944 52.046599,76.2818754 C52.3427989,76.6200563 52.37692,77.1143256 52.13,77.49 C51.13,78.66 51.83,79.75 51.76,80.88 C51.69,81.88 52.08,82.18 53.01,82.04 C53.94,81.9 54.89,82.26 54.9,80.86 C55.0255407,79.0949165 54.680465,77.3281293 53.9,75.74 C52.09,72.52 48.22,69.56 43.83,70.32 Z" id="Shape" fill="#FFFFFF"></path>
            <path d="M47.09,77.74 C43.97,76.01 40.52,78 40.09,82.01 C42.49,82.01 44.88,82.01 47.26,82.01 C49.06,82.01 49.37,81.58 48.9,79.91 C48.627337,78.9650258 47.9707112,78.1778003 47.09,77.74 Z" id="Shape" fill="#FFFFFF"></path>
            <path d="M66,120.18 C66.84,120.34 67.22,119.66 67.38,118.87 C67.4317108,118.567417 67.3522164,118.257124 67.161386,118.016678 C66.9705555,117.776231 66.6864212,117.628352 66.38,117.61 C65.68,117.55 65.1,117.77 65,118.61 C64.8668836,119.315208 65.3046392,120.002484 66,120.18 Z" id="Shape" fill="#FFFFFF"></path>
            <path d="M23.2,118.83 C23.1874655,119.562428 23.749383,120.177025 24.48,120.23 C25.221299,120.078933 25.7192956,119.379991 25.62,118.63 C25.57,117.87 25.05,117.57 24.31,117.63 C23.9877027,117.587071 23.6646549,117.703516 23.4438686,117.942203 C23.2230823,118.180891 23.1321248,118.51202 23.2,118.83 Z" id="Shape" fill="#FFFFFF"></path>
            <path d="M24.26,134.41 C23.9563639,134.388171 23.6593186,134.505839 23.4529985,134.729677 C23.2466783,134.953515 23.1535534,135.259144 23.2,135.56 C23.2,136.32 23.61,137 24.45,136.98 C25.29,136.96 25.64,136.26 25.63,135.5 C25.62,134.74 25.14,134.38 24.26,134.41 Z" id="Shape" fill="#FFFFFF"></path>
            <path d="M66.3,100.81 C65.58,100.76 65.03,101.03 64.96,101.81 C64.8901476,102.164612 64.9665051,102.532405 65.1717429,102.829905 C65.3769806,103.127406 65.6936928,103.329384 66.05,103.39 C66.9,103.51 67.26,102.83 67.4,102.05 C67.4439336,101.734196 67.3473888,101.414989 67.1357983,101.176469 C66.9242079,100.937949 66.6187896,100.804034 66.3,100.81 Z" id="Shape" fill="#FFFFFF"></path>
            <path d="M24.34,100.81 C24.0335107,100.761841 23.7220276,100.858665 23.4968523,101.072092 C23.271677,101.285519 23.1583169,101.591372 23.19,101.9 C23.19,102.66 23.56,103.36 24.39,103.39 C25.22,103.42 25.6,102.72 25.62,101.95 C25.64,101.18 25.2,100.81 24.34,100.81 Z" id="Shape" fill="#FFFFFF"></path>
            <path d="M66.21,134.41 C65.45,134.41 64.96,134.75 64.95,135.49 C64.8251231,135.986594 65.0157448,136.50913 65.4310505,136.808664 C65.8463561,137.108199 66.402347,137.12415 66.8341418,136.848917 C67.2659367,136.573684 67.4862018,136.062936 67.39,135.56 C67.4193697,135.241506 67.3033573,134.926779 67.0742995,134.703545 C66.8452417,134.480311 66.5276323,134.37244 66.21,134.41 Z" id="Shape" fill="#FFFFFF"></path>
            <path d="M45.78,103.39 C46.56,103.39 46.98,102.75 46.99,101.97 C47.0211704,101.645563 46.9013511,101.324823 46.6650998,101.100286 C46.4288485,100.87575 46.1024344,100.772384 45.78,100.82 C45.04,100.82 44.57,101.13 44.58,101.92 C44.59,102.71 45,103.39 45.78,103.39 Z" id="Shape" fill="#FFFFFF"></path>
            <path d="M45.86,120.18 C46.2212873,120.142576 46.5496632,119.953422 46.7632991,119.659672 C46.9769351,119.365923 47.0557122,118.995242 46.98,118.64 C46.98,117.84 46.4,117.64 45.66,117.64 C45.3426119,117.607693 45.0288569,117.728763 44.8154383,117.965894 C44.6020198,118.203026 44.5145543,118.527757 44.58,118.84 C44.64,119.61 45,120.26 45.86,120.18 Z" id="Shape" fill="#FFFFFF"></path>
            <path d="M45.84,134.42 C45.12,134.42 44.61,134.65 44.58,135.42 C44.5070271,136.156664 44.9969301,136.831355 45.72,136.99 C46.4576464,136.92161 47.0143296,136.29041 46.99,135.55 C47,134.82 46.59,134.45 45.84,134.42 Z" id="Shape" fill="#FFFFFF"></path>
            <path d="M43.63,31.24 C44.0154706,31.3308875 44.4062267,31.3976835 44.8,31.44 C45.9214677,31.6048242 47.0564654,31.2450677 47.8782146,30.4643084 C48.6999638,29.683549 49.1172751,28.5684276 49.01,27.44 C49.0477323,26.3924806 48.6654343,25.3732931 47.9480909,24.6090032 C47.2307475,23.8447132 46.2378069,23.3986595 45.19,23.37 C42.7156599,23.2782227 40.524928,24.9569445 39.97,27.37 C39.65,29.23 41,30.71 43.63,31.24 Z" id="Shape" fill="#FFFFFF"></path>
            <path d="M96.66,28.9 C96.66,25.54 96.66,22.19 96.66,18.83 C96.66,17.11 96.72,17.1 98.41,17.1 L98.65,17.1 C102.52,17.41 103.1,17.76 102.95,21.65 C102.619981,27.2298549 102.660069,32.8254463 103.07,38.4 C103.22,40.05 102.57,40.69 100.88,40.89 L100.64,40.89 C95.71,40.89 96.74,41.29 96.64,37.28 C96.62,34.49 96.66,31.7 96.66,28.9 Z" id="Shape" fill="#FE6054"></path>
        </g>
    </g>
</svg>