<svg width="42" height="18" viewBox="0 0 42 18" fill="none" xmlns="http://www.w3.org/2000/svg">
<path d="M0 17C2.33333 17 3.03333 7.03774 4.14167 7.03774C5.25 7.03774 6.53333 13.9811 7.64167 13.9811C8.75 13.9811 9.68333 11.2642 10.5583 11.2642C11.4333 11.2642 13.475 17 14.7 17C15.925 17 16.3333 11.2642 17.6167 11.2642C18.9 11.2642 19.775 1 20.8833 1C21.9917 1 22.4583 8.84906 23.625 8.84906C24.7917 8.84906 25.1417 5.5283 25.725 5.5283C26.3083 5.5283 27.1833 13.9811 28 13.9811C28.8167 13.9811 29.2833 8.84906 30.2167 8.84906C31.15 8.84906 31.9667 17 33.4833 17C35 17 35.35 7.03774 36.6333 7.03774C37.9167 7.03774 38.0917 13.9811 42 13.9811" stroke="#EA1347" stroke-dasharray="1 1"/>
</svg>
