<?xml version="1.0" encoding="UTF-8"?>
<svg width="160px" height="135px" viewBox="0 0 160 135" version="1.1" xmlns="http://www.w3.org/2000/svg" xmlns:xlink="http://www.w3.org/1999/xlink">
    <!-- Generator: Sketch 51.2 (57519) - http://www.bohemiancoding.com/sketch -->
    <title>Group 17</title>
    <desc>Created with Sketch.</desc>
    <defs></defs>
    <g id="Page-1" stroke="none" stroke-width="1" fill="none" fill-rule="evenodd">
        <g id="Group-17" fill-rule="nonzero">
            <path d="M159.1,78.87 C158.69,73.94 155.93,70.99 151.1,70.08 C148.806718,69.6625919 146.443229,69.8733709 144.26,70.69 C143.470402,71.0295294 142.559739,70.9228409 141.87,70.41 C139.344922,69.022804 136.572872,68.1429497 133.71,67.82 C128.59,67.02 123.42,66.57 118.25,66.11 C110.36,65.42 102.47,64.99 94.56,64.92 C91.92,64.92 89.28,64.99 86.64,65.03 C85.94,65.03 85.24,65.18 84.78,64.35 C83.78,62.5 81.91,61.9 80.01,61.48 C73.9507335,60.0092445 67.7447259,59.227623 61.51,59.15 C55.12,59.21 48.73,59.67 42.32,59.31 C39.7,59.16 37.08,58.87 34.43,58.98 C27.55,59.25 20.75,60.31 13.92,61.11 C10.7380766,61.467139 7.63662703,62.3455452 4.74,63.71 C1.11,65.44 0.22,67.77 0.93,71.57 C1.93,77.1 2.28,82.67 2.93,88.22 C3.76399879,94.5786942 6.0235617,100.666866 9.54,106.03 C11.46,109.11 14.32,111.38 16.86,113.92 C18.39,115.45 19.86,117.02 19.86,119.42 C20.0131635,120.462863 20.538934,121.414934 21.34,122.1 C22.4205661,123.179878 23.7598281,123.964844 25.23,124.38 C28.1304359,125.347358 31.1727692,125.82061 34.23,125.78 C39.03,125.78 43.83,125.78 48.62,125.6 C51.8223042,125.608037 55.012166,125.201321 58.11,124.39 C60.58,123.67 62.65,122.39 63.46,119.73 C63.56,119.42 63.6,119.08 63.88,118.91 C66.33,117.4 67.88,115 69.56,112.67 C71.07,114.72 72.26,116.9 74.21,118.29 C76.88,120.2 79.15,122.59 81.83,124.47 C82.7059986,125.051596 83.3500952,125.922188 83.65,126.93 C84.65,130.21 87.01,131.84 90.16,132.58 C98.5194213,134.490117 107.187258,134.61959 115.6,132.96 C118.374578,132.596765 120.713465,130.713304 121.66,128.08 C122.45087,125.966016 123.958445,124.196561 125.92,123.08 C128.192842,121.72989 130.221364,120.005646 131.92,117.98 C132.492784,117.217285 133.352785,116.722243 134.3,116.61 C136.356528,116.301965 138.359492,115.706125 140.25,114.84 C145.9,112.37 150.62,108.84 153.34,103.1 C155.618447,98.0762968 157.387299,92.8367426 158.62,87.46 C159.250063,84.642375 159.412229,81.7402793 159.1,78.87 Z M142.89,82.97 C142.98514,81.9260217 143.842314,81.1159932 144.89,81.08 C146.230936,80.8849228 147.585036,80.7946494 148.94,80.81 C149.94,80.89 150.55,81.35 150.5,82.48 C150.499972,83.3571081 150.389094,84.2306964 150.17,85.08 C148.49,90.77 145.86,96.08 143.41,101.44 C142.26,103.96 139.9,105.44 137.02,106.93 C138.33,101.4 139.5,96.36 140.72,91.33 C141.44,88.54 142.21,85.77 142.89,83 L142.89,82.97 Z M99.52,67.44 C105.52,67.63 111.52,67.87 117.44,68.52 C122.52,69.08 127.61,69.42 132.67,70.17 C134.82,70.49 136.82,71.28 138.92,71.76 C140.06,72.02 140.23,72.97 139.36,73.71 C136.148798,76.3617722 132.200997,77.9639302 128.05,78.3 C127.404687,78.2705835 126.762698,78.1903349 126.13,78.06 C121.478188,76.8772448 116.689018,76.3223199 111.89,76.41 C103.26,76.41 94.64,76.72 86.04,77.41 C81.83,77.74 77.65,78.47 73.45,78.93 C70.8156695,79.1715189 68.1656631,78.683724 65.79,77.52 C64.6275847,77.1109009 63.8005986,76.0742563 63.66,74.85 C63.54,73.46 64.55,72.65 65.66,72.12 C68.4985421,70.8577359 71.461328,69.895836 74.5,69.25 C82.76,67.29 91.14,67.18 99.52,67.44 Z M4.46,66.81 C5.24617645,66.2633314 6.09152341,65.8071124 6.98,65.45 C9.35197342,64.488794 11.8399145,63.8432741 14.38,63.53 C18.73,62.92 23.11,62.53 27.47,61.97 C32.3152392,61.4268286 37.2022593,61.3631868 42.06,61.78 C49.41,62.25 56.75,61.45 64.06,61.62 C69.53,61.75 74.82,62.94 80.13,64.07 C80.5959504,64.1933697 81.0457239,64.3712652 81.47,64.6 C81.7326699,64.7901522 81.9740657,65.008079 82.19,65.25 C79.65,65.78 77.4,66.34 75.11,66.68 C72.1860123,67.0923516 69.3242749,67.8648864 66.59,68.98 C65.7774838,69.3201192 64.9000466,69.4771702 64.02,69.44 C54.9133333,69.2733333 45.8066667,69.4533333 36.7,69.98 C32.39,70.23 28.07,70.24 23.76,70.3 C20.63,70.35 17.42,70.3 14.47,71.1 C11.52,71.9 8.84,71.24 6.05,70.69 C5.33698713,70.578433 4.68390535,70.2254159 4.2,69.69 C3.75765212,69.3198459 3.52474725,68.7564384 3.57660759,68.1819854 C3.62846793,67.6075324 3.95851107,67.0949467 4.46,66.81 Z M67.46,111.12 C66.061476,113.743977 63.990827,115.949218 61.46,117.51 C60.0353701,118.241582 58.4698606,118.657687 56.87,118.73 C56.04,119.29 54.63,118.84 54.31,120.26 C54.89,122.26 56.52,121.15 57.58,121.31 C57.99,121.69 57.66,121.84 57.52,121.93 C57.3047627,122.032724 57.0756796,122.10347 56.84,122.14 C54.908714,122.642849 52.925235,122.918052 50.93,122.96 C44.24,123.1 37.55,123.62 30.86,123.08 C28.6238771,122.939891 26.4411754,122.337179 24.45,121.31 C23.31,120.7 21.96,120.02 22.67,118.2 C22.89,117.64 22.39,117.2 22.11,116.69 C20.6543611,114.303068 18.8359098,112.157363 16.72,110.33 C14.7465358,108.58523 12.9693511,106.630327 11.42,104.5 C10.672749,103.566483 10.1217334,102.491662 9.8,101.34 C7.12,96.44 5.22,91.34 5.39,85.63 C4.9979943,84.4180897 4.79231589,83.1536732 4.78,81.88 C4.45,78.96 4.43,76.01 3.78,73.11 C4.48441065,72.8689166 5.25267678,72.8938141 5.94,73.18 C13.43,74.78 21.04,75.62 28.61,76.7 C31.3682272,77.1420399 34.1565964,77.3693889 36.95,77.38 C37.9824107,77.2376719 39.0340128,77.3545166 40.01,77.72 C42.7419688,77.6432535 45.4760911,77.7166976 48.2,77.94 C50.909787,77.7616908 53.6275472,77.7383194 56.34,77.87 C57.34,77.87 58.65,77.19 59.34,77.87 C60.03,78.55 59.96,79.77 60.16,80.78 C60.68,83.44 61.16,86.11 61.65,88.78 C62.5709945,93.892256 63.8100684,98.9420665 65.36,103.9 C65.8535456,105.587405 66.5627328,107.204082 67.47,108.71 C67.9798383,109.431287 67.9838351,110.394507 67.48,111.12 L67.46,111.12 Z M134.07,108.83 C133.807933,110.161155 133.288188,111.428246 132.54,112.56 C131.140548,115.415071 129.054984,117.87858 126.47,119.73 C124.47,121.26 122.16,122.42 120.38,124.27 C120.19,124.47 119.8,124.48 119.5,124.57 C118.019093,125.16812 116.471132,125.584491 114.89,125.81 C114.08,125.89 113.47,126.3 113.59,127.18 C113.71,128.06 114.41,128.32 115.2,128.18 C116.3,128.05 117.38,127.84 118.52,127.66 C118.076968,129.185656 116.758959,130.29452 115.18,130.47 C113.470978,130.886013 111.732535,131.170181 109.98,131.32 C103.51,131.65 97.04,131.78 90.69,130.14 C88.38,129.54 86.59,128.51 85.9,126.01 C85.4156409,124.3713 84.3486014,122.966364 82.9,122.06 C80.3,120.31 78.19,117.98 75.66,116.16 C74.8182294,115.545133 74.0877164,114.790946 73.5,113.93 C70.635561,109.98069 68.4365189,105.589361 66.99,100.93 C64.93,93.78 63.83,86.42 62.36,79.15 C62.36,79.01 62.46,78.85 62.56,78.54 C65.03,80.3 67.9,80.91 70.75,81.54 C73.7,81.78 76.61,82.38 79.58,82.43 C81.875211,82.1835267 84.1881068,82.1467078 86.49,82.32 C96.06,82.48 105.63,82.6 115.2,82.21 C118.31,82.08 121.41,81.82 124.49,81.39 C125.121737,81.3348883 125.756044,81.3148575 126.39,81.33 L134.2,79.75 C136.61,78.59 139.2,77.86 141.46,75.86 C141.608112,77.1854732 141.478701,78.527265 141.08,79.8 C139.15,87.8 137.17,95.71 135.22,103.67 C134.84,105.41 134.54,107.14 134.09,108.83 L134.07,108.83 Z M156.07,87.41 C154.964099,91.8352617 153.554082,96.1789168 151.85,100.41 C149.33,106.62 144.62,110.41 138.61,112.84 C137.473933,113.371137 136.257246,113.709106 135.01,113.84 C135.43,112.67 135.81,111.74 136.11,110.77 C136.36,109.97 137.01,109.77 137.68,109.46 C139.811407,108.528328 141.753614,107.213186 143.41,105.58 C144.501095,104.630315 145.38014,103.461663 145.99,102.15 C147.99,97.28 150.41,92.58 152.07,87.56 C152.697161,85.9136558 153.03546,84.1714163 153.07,82.41 C153.02,79.95 152.07,78.75 149.56,78.41 C147.754061,78.2241503 145.92987,78.3356286 144.16,78.74 C144.03,77.03 144.44,75.37 144.04,73.74 C143.96,73.4 144.31,73.22 144.63,73.11 C147.354687,72.0705241 150.373329,72.1098666 153.07,73.22 C154.783406,74.0011699 156.002566,75.5756066 156.33,77.43 C157.040313,80.730804 156.944265,84.1542143 156.05,87.41 L156.07,87.41 Z" id="Shape" fill="#222222"></path>
            <path d="M119.13,59.65 C120.01,59.65 120.37,59.03 120.68,58.37 C123.53,52.27 124.78,46.01 122.87,39.32 C121.564267,35.285203 120.860041,31.0800611 120.78,26.84 C120.861884,23.2448449 121.375568,19.6725612 122.31,16.2 C122.680831,14.144052 123.267407,12.1329343 124.06,10.2 C124.236503,9.92175935 124.282767,9.58033837 124.186676,9.26515967 C124.090585,8.94998097 123.861711,8.69244361 123.56,8.56 C122.954973,8.2630603 122.22366,8.50831781 121.92,9.11 C121.625436,9.49021082 121.401857,9.92042979 121.26,10.38 C119.9,15.38 118.55,20.38 118.32,25.63 C118.1,30.58 119.25,35.3 120.48,40.01 C121.650962,44.0256219 121.588251,48.3004546 120.3,52.28 C119.728176,54.1006358 119.060579,55.8897951 118.3,57.64 C117.76,58.76 118.22,59.62 119.13,59.65 Z" id="Shape" fill="#222222"></path>
            <path d="M39.8,46.29 C39.6780845,46.6367605 39.5778904,46.9907795 39.5,47.35 C39.41,48.35 39.66,48.82 40.27,48.99 C41.04,49.2 41.47,48.74 41.78,48.13 C41.92,47.85 41.98,47.52 42.1,47.23 C44.02,42.64 44.05,37.91 43.18,33.11 C42.52,29.42 41.33,25.85 40.8,22.11 C40.1,17.11 39.57,12.11 40.62,7.11 C40.98,5.39 41.57,3.73 42.01,2.03 C42.2,1.29 42.13,0.54 41.24,0.27 C40.35,-8.04911693e-16 39.88,0.61 39.66,1.33 C38.4443854,4.79610905 37.7403222,8.42085552 37.57,12.09 C37.5993253,18.4020685 38.4600637,24.682769 40.13,30.77 C41.47,36 41.93,41.16 39.8,46.29 Z" id="Shape" fill="#222222"></path>
            <path d="M108.15,44.44 C108.181926,45.3162544 108.067006,46.1916749 107.81,47.03 C107.5,48.1 107.16,49.16 106.87,50.24 C106.750128,50.5447736 106.757824,50.8849446 106.891358,51.1839848 C107.024892,51.483025 107.273048,51.7158207 107.58,51.83 C107.884523,51.9476896 108.224025,51.9350993 108.518995,51.7951777 C108.813964,51.6552561 109.038494,51.4002932 109.14,51.09 C109.347511,50.6595883 109.524611,50.2151669 109.67,49.76 C110.801841,46.5829841 110.937892,43.1363475 110.06,39.88 C109.31,37.09 108.8,34.29 109.55,31.4 C109.695956,31.0608375 109.685798,30.6747226 109.522213,30.3437028 C109.358628,30.0126831 109.058079,29.7700756 108.7,29.68 C107.7,29.41 107.32,30.12 107.11,30.98 C106.621947,33.1630886 106.58791,35.4232044 107.01,37.62 C107.37,39.81 108.17,41.93 108.15,44.44 Z" id="Shape" fill="#222222"></path>
            <path d="M50.63,40.11 C50.5202559,40.7338277 50.4700302,41.3666712 50.48,42 C50.4956775,42.4132788 50.793981,42.7612996 51.2,42.84 C51.6574554,43.0125203 52.1739755,42.8712843 52.48,42.49 C52.7972438,42.0281398 52.983817,41.4891505 53.02,40.93 C53.376757,39.0891885 53.5243601,37.2139585 53.46,35.34 C53.5651031,32.9184979 53.3260535,30.4943325 52.75,28.14 C52.56,27.35 52.15,26.8 51.25,27.01 C50.35,27.22 50.33,27.81 50.36,28.49 C50.3930146,28.8064548 50.4464594,29.1204433 50.52,29.43 C51.1515059,32.9590015 51.1886848,36.56874 50.63,40.11 Z" id="Shape" fill="#222222"></path>
            <path d="M141.12,79.84 C141.518701,78.567265 141.648112,77.2254732 141.5,75.9 C139.27,77.9 136.65,78.63 134.24,79.79 C134.365176,79.889875 134.495344,79.9833287 134.63,80.07 C138.41,82.32 139.26,84.38 137.97,88.19 C136.68,92 133.85,93.88 129.91,93.43 C128.134293,93.3988147 126.439433,92.6821721 125.18,91.43 C123.249862,88.9569882 123.168595,85.5112557 124.98,82.95 C125.431213,82.3947334 125.915421,81.8671137 126.43,81.37 C125.796044,81.3548575 125.161737,81.3748883 124.53,81.43 C121.45,81.86 118.35,82.12 115.24,82.25 C105.67,82.64 96.1,82.52 86.53,82.36 C84.2281068,82.1867078 81.915211,82.2235267 79.62,82.47 C81.56,84.58 82.97,86.94 82.62,89.93 C82.11,94.11 79.54,96.18 75.38,95.58 C71.93,95.08 69.22,93.38 68.29,89.75 C67.4514644,86.7700819 68.4330265,83.5751166 70.8,81.58 C67.95,80.94 65.08,80.33 62.61,78.58 C62.51,78.89 62.39,79.05 62.41,79.19 C63.88,86.46 64.98,93.82 67.04,100.97 C68.4865189,105.629361 70.685561,110.02069 73.55,113.97 C74.1377164,114.830946 74.8682294,115.585133 75.71,116.2 C78.24,118.02 80.35,120.35 82.95,122.1 C84.3986014,123.006364 85.4656409,124.4113 85.95,126.05 C86.64,128.55 88.43,129.58 90.74,130.18 C97.09,131.82 103.56,131.69 110.03,131.36 C111.782535,131.210181 113.520978,130.926013 115.23,130.51 C116.808959,130.33452 118.126968,129.225656 118.57,127.7 C117.43,127.88 116.35,128.09 115.25,128.22 C114.46,128.32 113.75,128.05 113.64,127.22 C113.53,126.39 114.13,125.93 114.94,125.85 C116.521132,125.624491 118.069093,125.20812 119.55,124.61 C118.87,121.3 119.33,118.2 121.74,115.72 C124.74,112.66 128.3,111.31 132.59,112.6 C133.338188,111.468246 133.857933,110.201155 134.12,108.87 C134.57,107.18 134.87,105.45 135.29,103.75 C137.21,95.75 139.19,87.8 141.12,79.84 Z M98.56,119.77 C97.32,122.37 94.86,122.83 92.62,122.9 C89.8134126,123.094995 87.1016746,121.842843 85.43,119.58 C82.58,115.9 83.91,111.46 88.36,109.99 C90.7545204,109.209118 93.3606838,109.406827 95.61,110.54 C99.72,112.54 99.93,116.88 98.56,119.77 Z M113.56,101 C112.318939,102.970343 110.06581,104.063945 107.75,103.82 C106.085556,103.889595 104.43345,103.505947 102.97,102.71 C99.5812851,101.026681 98.0470216,97.0280338 99.44,93.51 C100.44,90.34 102.38,88.94 105.7,89.07 C106.980415,89.1064974 108.253725,89.2740382 109.5,89.57 C115,90.89 116.94,96.42 113.61,101 L113.56,101 Z" id="Shape" fill="#FFFFFF"></path>
            <path d="M65.39,103.88 C63.8400684,98.9220665 62.6009945,93.872256 61.68,88.76 C61.22,86.08 60.68,83.41 60.19,80.76 C59.99,79.76 60,78.46 59.37,77.85 C58.74,77.24 57.42,77.85 56.37,77.85 C53.6575472,77.7183194 50.939787,77.7416908 48.23,77.92 C49.9363194,78.9670041 51.4319842,80.3236161 52.64,81.92 C55.2367443,85.4311105 54.5379729,90.3759198 51.07,93.03 C46.18,96.86 36.65,93.03 35.44,87.97 C34.35,83.44 35.84,79.62 40.04,77.7 C39.0660921,77.3261057 38.0131814,77.2056748 36.98,77.35 C34.1865964,77.3393889 31.3982272,77.1120399 28.64,76.67 C21.07,75.59 13.46,74.75 5.97,73.15 C5.28267678,72.8638141 4.51441065,72.8389166 3.81,73.08 C4.42,75.98 4.44,78.93 4.81,81.85 C4.82231589,83.1236732 5.0279943,84.3880897 5.42,85.6 C10.86,83.08 15.8,88.47 15.69,93.08 C15.7942515,94.5929483 15.5584866,96.1100448 15,97.52 C14.0501754,99.5941289 12.0938065,101.028295 9.83,101.31 C10.1517334,102.461662 10.702749,103.536483 11.45,104.47 C12.9993511,106.600327 14.7765358,108.55523 16.75,110.3 C18.8659098,112.127363 20.6843611,114.273068 22.14,116.66 C22.42,117.14 22.92,117.66 22.7,118.17 C21.99,119.99 23.34,120.67 24.48,121.28 C26.4711754,122.307179 28.6538771,122.909891 30.89,123.05 C37.58,123.59 44.27,123.05 50.96,122.93 C52.955235,122.888052 54.938714,122.612849 56.87,122.11 C57.1056796,122.07347 57.3347627,122.002724 57.55,121.9 C57.69,121.81 58.02,121.66 57.61,121.28 C56.55,121.12 54.92,122.21 54.34,120.23 C52.95,120.57 51.56,120.91 50.17,121.23 C48.4445404,121.658654 46.6254523,121.500319 45,120.78 C43.2924425,120.121867 42.0260911,118.65481 41.624432,116.869436 C41.222773,115.084062 41.7388202,113.216016 43,111.89 C46,108.89 49.59,108.13 53.56,108.78 C56.15,109.2 57.56,110.98 57.8,113.59 C57.9822665,115.334202 57.6594555,117.094043 56.87,118.66 C58.4698606,118.587687 60.0353701,118.171582 61.46,117.44 C63.990827,115.879218 66.061476,113.673977 67.46,111.05 C67.9762312,110.322251 67.9762312,109.347749 67.46,108.62 C66.5720701,107.134028 65.8765026,105.541279 65.39,103.88 Z" id="Shape" fill="#FFFFFF"></path>
            <path d="M65.66,72.12 C64.55,72.65 63.54,73.46 63.66,74.85 C63.8005986,76.0742563 64.6275847,77.1109009 65.79,77.52 C68.1656631,78.683724 70.8156695,79.1715189 73.45,78.93 C77.65,78.47 81.83,77.74 86.04,77.41 C94.64,76.72 103.26,76.41 111.89,76.41 C116.689018,76.3223199 121.478188,76.8772448 126.13,78.06 C126.762698,78.1903349 127.404687,78.2705835 128.05,78.3 C132.200997,77.9639302 136.148798,76.3617722 139.36,73.71 C140.23,72.97 140.06,72.02 138.92,71.76 C136.82,71.28 134.82,70.49 132.67,70.17 C127.61,69.42 122.52,69.08 117.44,68.52 C111.44,67.87 105.49,67.63 99.52,67.44 C91.14,67.18 82.76,67.29 74.52,69.25 C71.4745069,69.8944921 68.5049513,70.8564136 65.66,72.12 Z" id="Shape" fill="#FFFFFF"></path>
            <path d="M6.1,70.69 C8.89,71.24 11.53,71.94 14.52,71.1 C17.51,70.26 20.68,70.35 23.81,70.3 C28.12,70.24 32.44,70.23 36.75,69.98 C45.85,69.46 54.9566667,69.28 64.07,69.44 C64.9500466,69.4771702 65.8274838,69.3201192 66.64,68.98 C69.3742749,67.8648864 72.2360123,67.0923516 75.16,66.68 C77.45,66.34 79.7,65.78 82.24,65.25 C82.0240657,65.008079 81.7826699,64.7901522 81.52,64.6 C81.0957239,64.3712652 80.6459504,64.1933697 80.18,64.07 C74.87,62.94 69.58,61.75 64.11,61.62 C56.75,61.45 49.41,62.25 42.11,61.78 C37.2522593,61.3631868 32.3652392,61.4268286 27.52,61.97 C23.16,62.56 18.78,62.92 14.43,63.53 C11.8899145,63.8432741 9.40197342,64.488794 7.03,65.45 C6.14152341,65.8071124 5.29617645,66.2633314 4.51,66.81 C4.01112687,67.1031413 3.68820998,67.6227649 3.64627517,68.1998677 C3.60434036,68.7769706 3.8487455,69.3378183 4.3,69.7 C4.77251332,70.2218717 5.40622889,70.5704152 6.1,70.69 Z" id="Shape" fill="#FFFFFF"></path>
            <path d="M156.32,77.43 C155.992566,75.5756066 154.773406,74.0011699 153.06,73.22 C150.363329,72.1098666 147.344687,72.0705241 144.62,73.11 C144.3,73.22 143.95,73.4 144.03,73.74 C144.43,75.35 144.03,77.01 144.15,78.74 C145.91987,78.3356286 147.744061,78.2241503 149.55,78.41 C152.03,78.75 153.01,79.95 153.06,82.41 C153.02546,84.1714163 152.687161,85.9136558 152.06,87.56 C150.4,92.56 148,97.28 145.98,102.15 C145.37014,103.461663 144.491095,104.630315 143.4,105.58 C141.743614,107.213186 139.801407,108.528328 137.67,109.46 C137,109.74 136.35,109.97 136.1,110.77 C135.8,111.77 135.42,112.67 135,113.84 C136.247246,113.709106 137.463933,113.371137 138.6,112.84 C144.6,110.42 149.32,106.62 151.84,100.41 C153.544082,96.1789168 154.954099,91.8352617 156.06,87.41 C156.947651,84.1525999 157.036838,80.7292004 156.32,77.43 Z" id="Shape" fill="#FFFFFF"></path>
            <path d="M51.09,93.06 C54.5579729,90.4059198 55.2567443,85.4611105 52.66,81.95 C51.4519842,80.3536161 49.9563194,78.9970041 48.25,77.95 C45.5261764,77.7250205 42.7917742,77.6549077 40.06,77.74 C35.86,79.66 34.37,83.48 35.46,88.01 C36.67,93.1 46.2,96.89 51.09,93.06 Z" id="Shape" fill="#FA5E52"></path>
            <path d="M53.57,108.85 C49.57,108.2 46.02,108.96 43.01,111.96 C41.7488202,113.286016 41.232773,115.154062 41.634432,116.939436 C42.0360911,118.72481 43.3024425,120.191867 45.01,120.85 C46.6354523,121.570319 48.4545404,121.728654 50.18,121.3 C51.57,120.94 52.96,120.6 54.35,120.3 C54.67,118.88 56.08,119.3 56.91,118.77 C57.6994555,117.204043 58.0222665,115.444202 57.84,113.7 C57.53,111.05 56.16,109.27 53.57,108.85 Z" id="Shape" fill="#FA5E52"></path>
            <path d="M70.79,81.58 C68.4230265,83.5751166 67.4414644,86.7700819 68.28,89.75 C69.21,93.38 71.92,95.08 75.37,95.58 C79.53,96.18 82.1,94.11 82.61,89.93 C82.97,86.93 81.61,84.58 79.61,82.47 C76.65,82.42 73.74,81.82 70.79,81.58 Z" id="Shape" fill="#FA5E52"></path>
            <path d="M134.63,80.07 C134.495344,79.9833287 134.365176,79.889875 134.24,79.79 L126.43,81.37 C125.920724,81.8838357 125.443175,82.4281742 125,83 C123.188595,85.5612557 123.269862,89.0069882 125.2,91.48 C126.459433,92.7321721 128.154293,93.4488147 129.93,93.48 C133.87,93.93 136.68,92.11 137.99,88.24 C139.3,84.37 138.41,82.32 134.63,80.07 Z" id="Shape" fill="#FA5E52"></path>
            <path d="M5.4,85.63 C5.23,91.33 7.13,96.44 9.81,101.34 C12.0738065,101.058295 14.0301754,99.6241289 14.98,97.55 C15.5384866,96.1400448 15.7742515,94.6229483 15.67,93.11 C15.78,88.5 10.84,83.11 5.4,85.63 Z" id="Shape" fill="#FA5E52"></path>
            <path d="M121.71,115.68 C119.3,118.16 118.84,121.26 119.52,124.57 C119.82,124.48 120.21,124.47 120.4,124.27 C122.18,122.42 124.47,121.27 126.49,119.73 C129.074984,117.87858 131.160548,115.415071 132.56,112.56 C128.27,111.27 124.69,112.62 121.71,115.68 Z" id="Shape" fill="#FA5E52"></path>
            <path d="M109.55,89.57 C108.303725,89.2740382 107.030415,89.1064974 105.75,89.07 C102.43,88.94 100.52,90.34 99.49,93.51 C98.0970216,97.0280338 99.6312851,101.026681 103.02,102.71 C104.48345,103.505947 106.135556,103.889595 107.8,103.82 C110.11581,104.063945 112.368939,102.970343 113.61,101 C116.94,96.42 115,90.89 109.55,89.57 Z" id="Shape" fill="#FA5E52"></path>
            <path d="M95.61,110.54 C93.3606838,109.406827 90.7545204,109.209118 88.36,109.99 C83.91,111.46 82.58,115.9 85.43,119.58 C87.1016746,121.842843 89.8134126,123.094995 92.62,122.9 C94.86,122.83 97.32,122.37 98.56,119.77 C99.93,116.88 99.72,112.54 95.61,110.54 Z" id="Shape" fill="#FA5E52"></path>
        </g>
    </g>
</svg>