<?xml version="1.0" encoding="UTF-8"?>
<svg width="202px" height="138px" viewBox="0 0 202 138" version="1.1" xmlns="http://www.w3.org/2000/svg" xmlns:xlink="http://www.w3.org/1999/xlink">
    <!-- Generator: Sketch 51.2 (57519) - http://www.bohemiancoding.com/sketch -->
    <title>Group 2</title>
    <desc>Created with Sketch.</desc>
    <defs></defs>
    <g id="Page-1" stroke="none" stroke-width="1" fill="none" fill-rule="evenodd">
        <g id="Group-2" fill-rule="nonzero">
            <path d="M201.54,111.18 C201.54,82.5133333 201.54,53.8766667 201.54,25.27 C201.54,22.48 201.8,19.7 201.54,16.89 C201.04,10.2 198.05,5.21 192,2.18 C190.375635,1.29924452 188.546947,0.864499716 186.7,0.92 C185.03,1.01 183.34,0.97 181.7,0.97 L102,0.97 L102,0.91 C73.68,0.91 45.3466667,0.91 17,0.91 C11.7,0.91 6.93,2.33 3.24,6.5 C1.60253594,8.36223576 0.557976901,10.6707112 0.24,13.13 C-0.13,15.54 0.24,17.9 0.24,20.27 C0.24,47.47 0.24,74.67 0.24,101.87 C0.24,105.54 0.24,109.22 0.14,112.87 C0.08,115.21 -0.07,117.6 1.37,119.87 C3.84535644,123.761665 7.83238832,126.44385 12.37,127.27 C13.8110027,127.586049 15.2853943,127.723749 16.76,127.68 C17.9450366,127.510624 19.0509609,128.311313 19.26,129.49 C19.88,131.55 20.78,133.49 21.47,135.56 C21.9,136.82 22.6,137.31 24.14,137.16 C27.2038386,136.833441 30.2927998,136.81669 33.36,137.11 C35.02,137.29 35.88,136.97 36.36,135.52 C37,133.38 37.9,131.32 38.59,129.2 C38.655581,128.80641 38.8773094,128.455975 39.2049026,128.228166 C39.5324958,128.000357 39.9381959,127.914476 40.33,127.99 C40.8063378,128.015041 41.2836622,128.015041 41.76,127.99 L160.31,127.99 C160.81,127.99 161.31,128.06 161.54,128.56 C162.54,131.12 164.54,133.14 165.35,135.74 C165.86,137.36 166.59,137.57 169.14,137.09 C171.844272,136.559953 174.625728,136.559953 177.33,137.09 C179.75,137.58 180.33,137.16 180.79,135.69 C181.58,133.35 182.66,131.12 183.61,128.83 C183.757061,128.386523 184.146307,128.067341 184.61,128.01 C186.61,127.66 188.47,127.01 190.5,127.21 C191.382072,127.223375 192.257281,127.053101 193.07,126.71 C197.61,125.14 202.07,119.42 201.51,114.23 C201.462285,113.213585 201.472301,112.19528 201.54,111.18 Z M34.34,133.9 C34.11,134.55 33.56,134.6 32.97,134.6 C30.34,134.6 27.71,134.6 25.08,134.6 C24.4311619,134.700665 23.8091162,134.301697 23.63,133.67 C23,131.88 22.3,130.11 21.5,128 L36.43,128 L34.34,133.9 Z M178.72,134.04 C178.495952,134.563177 177.939929,134.861936 177.38,134.76 L169,134.76 C168.52,134.76 168,134.84 167.72,134.33 C166.72,132.22 165.16,130.33 164.24,128.01 L181.24,128.01 C180.527889,130.058091 179.686189,132.0588 178.72,134 L178.72,134.04 Z M199.19,25.37 C199.19,53.6833333 199.19,81.9966667 199.19,110.31 C199.19,112.05 199.05,113.79 199.19,115.55 C199.56,119.55 194.71,124.98 190.07,125.4 C180.16,126.29 170.26,125.94 160.36,125.95 C116.933333,126.023333 73.5,126.023333 30.06,125.95 C25.06,125.95 20.14,125.95 15.21,125.56 C10.28,125.17 6.11,123.24 3.51,118.73 C2.98773679,117.818055 2.72491649,116.780606 2.75,115.73 C2.75,104.38 2.85,93.03 2.86,81.67 C2.86,61.0433333 2.86,40.41 2.86,19.77 C2.70500666,17.7095774 2.70500666,15.6404226 2.86,13.58 C3.07674283,11.7449775 3.86369094,10.0241843 5.11,8.66 C7.73,5.87 10.8,4.06 14.73,3.97 C16.33,3.97 17.92,3.78 19.52,3.78 L101.58,3.78 C128.3,3.78 155.016667,3.78 181.73,3.78 C183.48,3.78 185.24,3.78 187,3.78 C187.636651,3.74479443 188.274818,3.8123253 188.89,3.98 C193.41,5.68 197.14,8.23 198.38,13.27 C199.06,16.06 199.68,18.84 199.01,21.78 C198.79,22.92 199.19,24.17 199.19,25.37 Z" id="Shape" fill="#222222"></path>
            <path d="M191.08,22.42 C190.999235,19.4967823 189.757798,16.7260404 187.63,14.72 C185.47,12.72 182.94,11.39 179.79,11.98 C179.15141,12.0400735 178.50859,12.0400735 177.87,11.98 L28.39,11.98 C25.2068192,11.9065635 22.0235861,12.1241347 18.88,12.63 C16.8111945,12.9793281 14.9294418,14.0404669 13.56,15.63 C11.22,18.49 10.95,21.69 10.95,25.06 C10.95,50.9 10.95,76.7333333 10.95,102.56 C11.0131642,104.077186 10.936171,105.596965 10.72,107.1 C10.5304854,108.374301 10.6858733,109.676107 11.17,110.87 C12.76,115.12 16.41,117.31 21.4,116.87 C23.01,116.73 24.62,116.58 26.24,116.58 L178.18,116.58 C179.78,116.58 181.38,116.58 182.97,116.51 C186.776406,116.308627 189.999872,113.633923 190.9,109.93 C191.091132,108.905104 191.158281,107.860936 191.1,106.82 L191.1,30.28 C191.07,27.67 191.22,25 191.08,22.42 Z M145.3,34 C147.53,33.95 149.76,34 152,34 L152,33.91 C153.84,33.91 155.67,33.91 157.51,33.91 C160.07,33.91 161.04,35.51 159.85,37.7 C159.16,38.95 158.42,40.19 157.73,41.45 C157.394389,42.1898106 156.629497,42.638334 155.82,42.57 C153.35,42.51 150.82,42.57 148.4,42.51 C148.24,42.51 148.03,42.58 147.92,42.51 C145.847327,41.1778163 144.103628,39.3930899 142.82,37.29 C142.38,36.48 144.34,34 145.3,34 Z M136,38.55 L136,65.28 C133.53,62.39 131,60.4 131.59,56.28 C131.875115,53.8321282 131.834764,51.357276 131.47,48.92 C131.13,46.18 131.35,43.59 133.36,41.53 C134.23,40.62 134.66,39.35 136,38.5 L136,38.55 Z M119.56,34.38 C121.7,34.27 123.85,34.38 126,34.38 L126,34.3 C127.91,34.3 129.83,34.39 131.73,34.3 C133.09,34.21 133.45,35.16 134.01,36.01 C134.57,36.86 133.81,37.26 133.42,37.8 C132.42,39.15 131.42,40.49 130.48,41.89 C130.004269,42.5690886 129.207064,42.94871 128.38,42.89 C127.8,42.89 127.21,42.89 126.62,42.89 C124.62,42.82 122.32,43.55 120.77,42.48 C119.22,41.41 118.68,39.38 117.77,37.74 C116.62,35.76 117.32,34.44 119.56,34.33 L119.56,34.38 Z M65.8,34.38 C67.86,34.27 69.93,34.38 72,34.38 L72,34.3 C74,34.3 76,34.39 78,34.3 C79.36,34.22 79.72,35.16 80.28,36.01 C80.84,36.86 80.09,37.26 79.7,37.79 C78.7,39.14 77.7,40.47 76.78,41.86 C76.3793433,42.5696861 75.5881429,42.9652864 74.78,42.86 C74.14,42.86 73.5,42.86 72.87,42.86 C70.87,42.79 68.57,43.52 67.02,42.45 C65.47,41.38 64.93,39.35 63.96,37.71 C62.86,35.77 63.56,34.44 65.8,34.33 L65.8,34.38 Z M55.12,91.82 C54.4,92.24 53.91,92.42 53.33,91.61 C51.92,89.61 50.64,87.96 51.55,84.69 C52.2891808,82.2796146 52.3204195,79.7076275 51.64,77.28 C50.19,72.5 52.74,69.8 54.83,66.78 C55.24,66.2 55.76,66.56 55.83,67.11 C55.97,68.37 56.01,69.65 56.03,70.92 C56.03,73.63 56.03,76.34 56.03,79.05 C56.03,82.64 56.03,86.22 56.03,89.81 C56.1361042,90.5850805 55.7805589,91.3508703 55.12,91.77 L55.12,91.82 Z M57,61 C57.0302105,61.1552103 57.0302105,61.3147897 57,61.47 C56.61,62.38 56.55,63.61 55.29,63.8 C54.03,63.99 53.49,63.21 52.86,62.27 C51.6966986,60.5437432 51.1183198,58.4896219 51.21,56.41 C51.3,52.99 51.21,49.56 51.11,46.13 C51.0442222,45.33489 51.2601512,44.5419706 51.72,43.89 C52.8868449,42.4073166 53.8457069,40.7722045 54.57,39.03 C55.8286417,40.318817 56.6326241,41.9829554 56.86,43.77 C57.2,49.51 56.92,55.25 57,61 Z M59.52,63.49 C59.4373834,63.2664034 59.4032951,63.0277854 59.42,62.79 C59.56,56.32 59.11,49.86 59.63,43.4 C59.6550405,42.9236622 59.6550405,42.4463378 59.63,41.97 C59.57,39.97 59.57,39.97 61.47,38.28 C62.21,39.43 62.96,40.55 63.66,41.7 C64.4641082,42.7048443 64.7049701,44.0484021 64.3,45.27 C64.1087724,46.2080428 64.0783392,47.1717608 64.21,48.12 C64.21,51.8 64.21,55.47 64.28,59.12 C64.28,61.32 62.82,62.74 61.5,64.2 C61,64.73 59.79,64.2 59.51,63.49 L59.52,63.49 Z M60.45,92.49 C60.09,92.35 60.05,92.03 60.04,91.71 C60.04,90.99 60.04,90.27 60.04,89.56 C60.04,83.18 60.04,76.8 60.04,70.42 C60.04,69.2 60.04,68.02 61.41,67.06 C62.32,68.18 63.21,69.2 64.02,70.27 C64.67749,71.1729754 65.027994,72.2630426 65.02,73.38 C65.11,77.68 64.72,81.98 65.22,86.27 C65.2205292,86.5823436 65.130193,86.8880971 64.96,87.15 C63.919368,88.9383088 62.6961646,90.6139299 61.31,92.15 C61,92.44 60.8,92.65 60.44,92.52 L60.45,92.49 Z M77.09,97.78 C75.34,97.78 73.58,97.78 71.83,97.78 C69.61,97.78 67.38,97.71 65.16,97.58 C63.47,97.48 63.59,96 62.87,95.17 C62.15,94.34 63.08,93.92 63.46,93.39 C63.9602746,92.8800989 64.4029371,92.3167103 64.78,91.71 C66.54,87.52 70.27,88.54 73.53,88.36 C73.9320196,88.3354122 74.3294935,88.4560739 74.65,88.7 C76.5466828,90.3956694 78.1101323,92.4305277 79.26,94.7 C79.77,95.77 78.29,97.77 77.08,97.81 L77.09,97.78 Z M82.18,91.78 C82.18,92.23 82.35,92.78 81.74,93 C81.13,93.22 80.92,92.6 80.67,92.23 C79.9653077,90.9783485 79.1161673,89.8137173 78.14,88.76 C77.67,88.31 77.84,87.71 77.83,87.17 C77.83,82.78 77.83,78.38 77.83,73.99 C77.7804081,72.9492497 78.0951275,71.9237595 78.72,71.09 C79.25,70.4 79.65,69.6 80.16,68.89 C80.67,68.18 80.67,67.12 81.72,67.44 C82.77,67.76 82.34,68.8 82.56,69.53 C82.5924869,69.6845776 82.609239,69.8420473 82.61,70 C82,77.32 82.27,84.59 82.17,91.85 L82.18,91.78 Z M83.01,65.18 C80.66,62.46 78.32,60.49 78.48,56.92 C78.6083422,53.9669224 78.5716183,51.008981 78.37,48.06 C78.21,45.62 78.53,43.29 80.37,41.41 C81.23,40.53 81.67,39.26 83,38.41 L83.01,65.18 Z M104.01,67.63 C103.87,67.83 103.71,68.01 103.59,68.21 C102.823998,69.9558891 100.932261,70.9184988 99.07,70.51 C97.8843112,70.3384361 96.682169,70.3115726 95.49,70.43 C94.05,70.55 93.34,69.78 92.64,68.7 C90.39,65.27 90.39,65.31 92.77,61.94 C93.2777978,60.9203868 94.4002338,60.3612095 95.52,60.57 C96.3172567,60.6277917 97.1183924,60.6009754 97.91,60.49 C100.83,59.75 102.84,60.49 104.15,63.49 C105.16,65.81 105.47,65.68 104.05,67.7 L104.01,67.63 Z M113.16,63.16 C113.109776,62.6813138 113.109776,62.1986862 113.16,61.72 C113.16,56.2866667 113.16,50.8533333 113.16,45.42 C113.31857,43.9186921 113.392021,42.409611 113.38,40.9 C113.23,39.71 114.21,39.08 115.12,38.13 C115.8,39.13 116.4,39.97 116.95,40.84 C117.84,42.25 118.67,43.59 118.04,45.48 C117.832077,46.6590209 117.8051,47.8628487 117.96,49.05 C117.96,52.05 117.77,55.14 118.03,58.16 C118.24,60.62 116.93,62.22 115.59,63.87 C115.243551,64.2644157 114.703322,64.4281037 114.196222,64.2923112 C113.689122,64.1565186 113.302986,63.7447663 113.2,63.23 L113.16,63.16 Z M114.16,92.45 C113.8,92.31 113.76,91.99 113.75,91.67 C113.75,90.95 113.75,90.23 113.75,89.52 C113.75,83.14 113.75,76.76 113.75,70.38 C113.75,69.16 113.75,67.98 115.12,67.02 C116.03,68.14 116.92,69.16 117.73,70.23 C118.38749,71.1329754 118.737994,72.2230426 118.73,73.34 C118.82,77.64 118.43,81.94 118.93,86.23 C118.930529,86.5423436 118.840193,86.8480971 118.67,87.11 C117.629368,88.8983088 116.406165,90.5739299 115.02,92.11 C114.79,92.44 114.56,92.65 114.2,92.52 L114.16,92.45 Z M132.63,96.32 C132.19593,97.36988 131.0876,97.9740444 129.97,97.77 C128.47,97.68 126.97,97.77 125.44,97.77 C123.29,97.77 121.15,97.67 119,97.58 C117.17,97.51 117.26,95.97 116.54,95.07 C115.82,94.17 116.87,93.83 117.24,93.3 C118.11,92.07 119.08,90.9 119.91,89.64 C120.319726,88.9317169 121.093032,88.5141315 121.91,88.56 C122.542933,88.5925389 123.177483,88.5488926 123.8,88.43 C127.43,87.43 129.67,89.33 131.47,92.13 C131.725877,92.6192369 132.009679,93.093353 132.32,93.55 C133.124501,94.2790399 133.273425,95.4874481 132.67,96.39 L132.63,96.32 Z M136.26,70.77 C135.49,77.62 136.1,84.49 135.88,91.35 C135.88,92.08 136.39,93.21 135.41,93.45 C134.43,93.69 134.27,92.54 133.84,91.9 C133.75,91.77 133.71,91.6 133.59,91.5 C131.36,89.5 131.38,86.93 131.53,84.28 C131.59,83.17 131.53,82.05 131.53,80.93 C131.640133,79.6557085 131.640133,78.3742915 131.53,77.1 C130.9,73.68 132.61,71.1 134.36,68.53 C134.59,68.18 134.83,67.8 135.26,67.84 C135.69,67.88 135.99,68.37 136.06,68.84 C136.221195,69.4943969 136.301793,70.1660445 136.3,70.84 L136.26,70.77 Z M141.26,64.83 C140.52,63.29 140.26,45.71 140.86,41.26 C144.47,42.88 145.68,45.53 145.6,49.33 C145.53,52.69 145.06,56 144.97,59.33 C144.873532,59.9611832 144.591588,60.5494364 144.16,61.02 C143.356563,62.4250823 142.386188,63.7278692 141.27,64.9 L141.26,64.83 Z M144.5,64.83 C144.553059,64.7716355 144.599973,64.707967 144.64,64.64 C147.01,60.8 147.01,60.8 152.05,60.78 C153.005877,60.834958 153.964123,60.834958 154.92,60.78 C156.3009,60.5210846 157.654911,61.3447029 158.06,62.69 C159.5,65.98 159.53,65.93 157.27,68.69 C156.697787,69.4685938 155.775376,69.9110513 154.81,69.87 C153.454861,69.7563367 152.091938,69.7730803 150.74,69.92 C147.47,70.51 146.08,68.2 144.45,66.16 C144.294653,65.989027 144.213682,65.7632908 144.224937,65.5325579 C144.236193,65.3018251 144.33875,65.0850414 144.51,64.93 L144.5,64.83 Z M157.5,97.19 C155.67,97.19 153.83,97.19 152,97.19 C150.33,97.19 148.65,97.19 147,97.19 C144.54,97.14 143.86,95.97 145.14,93.97 C146.14,92.37 146.73,90.12 148.36,89.37 C149.99,88.62 151.95,89.17 153.78,89.16 C156.86,89.16 156.86,89.16 158.26,91.87 C158.62,92.58 159.01,93.27 159.4,93.97 C160.41,95.87 159.62,97.26 157.5,97.29 L157.5,97.19 Z M163.44,68.27 C163.44,75.2 163.33,82.13 163.34,89.07 C163.474781,90.7441453 162.901686,92.3981394 161.76,93.63 C160.04,90.28 157.76,87.54 158.06,83.63 C158.33,80.07 158.19,76.46 158.11,72.88 C158.056468,71.9329623 158.384164,71.0038884 159.02,70.3 C159.8,69.4 160.52,68.44 161.28,67.52 C161.70824,67.0130456 162.410331,66.8325081 163.03,67.07 C163.63,67.34 163.45,67.91 163.44,68.37 L163.44,68.27 Z" id="Shape" fill="#222222"></path>
            <path d="M164.27,128 C165.19,130.36 166.71,132.21 167.75,134.32 C168,134.83 168.55,134.75 169.03,134.75 L177.38,134.75 C177.939929,134.851936 178.495952,134.553177 178.72,134.03 C179.67977,132.085059 180.514791,130.081009 181.22,128.03 L164.27,128 Z" id="Shape" fill="#FFFFFF"></path>
            <path d="M23.63,133.67 C23.8091162,134.301697 24.4311619,134.700665 25.08,134.6 C27.71,134.6 30.34,134.6 32.97,134.6 C33.56,134.6 34.11,134.55 34.34,133.9 L36.43,128 L21.5,128 C22.3,130.11 23,131.88 23.63,133.67 Z" id="Shape" fill="#FFFFFF"></path>
            <path d="M56.82,43.77 C56.5926241,41.9829554 55.7886417,40.318817 54.53,39.03 C53.8057069,40.7722045 52.8468449,42.4073166 51.68,43.89 C51.2201512,44.5419706 51.0042222,45.33489 51.07,46.13 C51.13,49.56 51.26,52.99 51.17,56.41 C51.0783198,58.4896219 51.6566986,60.5437432 52.82,62.27 C53.45,63.21 54.08,63.97 55.25,63.8 C56.42,63.63 56.57,62.38 56.96,61.47 C56.9902105,61.3147897 56.9902105,61.1552103 56.96,61 C56.92,55.25 57.2,49.51 56.82,43.77 Z" id="Shape" fill="#FFFFFF"></path>
            <path d="M147.92,42.45 C148.03,42.52 148.24,42.45 148.4,42.45 C150.87,42.45 153.4,42.45 155.82,42.51 C156.629497,42.578334 157.394389,42.1298106 157.73,41.39 C158.42,40.13 159.16,38.89 159.85,37.64 C161.04,35.45 160.07,33.87 157.51,33.85 C155.67,33.85 153.84,33.85 152,33.85 L152,33.94 C149.76,33.94 147.53,33.94 145.3,33.94 C144.3,33.94 142.38,36.47 142.82,37.22 C144.102431,39.3267231 145.846217,41.1149588 147.92,42.45 Z" id="Shape" fill="#FFFFFF"></path>
            <path d="M74.64,88.74 C74.3194935,88.4960739 73.9220196,88.3754122 73.52,88.4 C70.26,88.58 66.52,87.56 64.77,91.75 C64.3929371,92.3567103 63.9502746,92.9200989 63.45,93.43 C63.07,93.96 62.16,94.43 62.86,95.21 C63.56,95.99 63.46,97.52 65.15,97.62 C67.37,97.75 69.6,97.8 71.82,97.82 C73.57,97.82 75.33,97.82 77.08,97.82 C78.29,97.82 79.77,95.82 79.25,94.75 C78.1011822,92.4769546 76.5376756,90.4386303 74.64,88.74 Z" id="Shape" fill="#FFFFFF"></path>
            <path d="M131.48,92.18 C129.68,89.38 127.48,87.51 123.81,88.48 C123.187483,88.5988926 122.552933,88.6425389 121.92,88.61 C121.103032,88.5641315 120.329726,88.9817169 119.92,89.69 C119.09,90.95 118.12,92.12 117.25,93.35 C116.88,93.88 115.89,94.3 116.55,95.12 C117.21,95.94 117.18,97.56 119.01,97.63 C121.16,97.72 123.3,97.78 125.45,97.82 C126.96,97.82 128.45,97.75 129.98,97.82 C131.0976,98.0240444 132.20593,97.41988 132.64,96.37 C133.217103,95.4803397 133.073875,94.305025 132.3,93.58 C132.000573,93.1291148 131.726805,92.6617065 131.48,92.18 Z" id="Shape" fill="#FFFFFF"></path>
            <path d="M61.48,64.23 C62.8,62.77 64.27,61.35 64.26,59.15 C64.26,55.47 64.2,51.8 64.19,48.15 C64.0583392,47.2017608 64.0887724,46.2380428 64.28,45.3 C64.6849701,44.0784021 64.4441082,42.7348443 63.64,41.73 C62.94,40.58 62.19,39.46 61.45,38.31 C59.55,40.02 59.55,40.02 59.61,42 C59.6350405,42.4763378 59.6350405,42.9536622 59.61,43.43 C59.09,49.89 59.54,56.35 59.4,62.82 C59.3832951,63.0577854 59.4173834,63.2964034 59.5,63.52 C59.79,64.2 61,64.73 61.48,64.23 Z" id="Shape" fill="#FFFFFF"></path>
            <path d="M115.57,63.94 C116.91,62.29 118.22,60.69 118.01,58.23 C117.75,55.23 117.94,52.16 117.94,49.12 C117.7851,47.9328487 117.812077,46.7290209 118.02,45.55 C118.65,43.66 117.82,42.32 116.93,40.91 C116.38,40.04 115.78,39.2 115.1,38.2 C114.19,39.15 113.21,39.78 113.36,40.97 C113.372021,42.479611 113.29857,43.9886921 113.14,45.49 C113.14,50.9233333 113.14,56.3566667 113.14,61.79 C113.089776,62.2686862 113.089776,62.7513138 113.14,63.23 C113.208753,63.7753194 113.594555,64.2278469 114.122133,64.3819953 C114.649711,64.5361436 115.218463,64.3625187 115.57,63.94 Z" id="Shape" fill="#FFFFFF"></path>
            <path d="M67,42.37 C68.55,43.44 70.86,42.71 72.85,42.78 C73.48,42.78 74.12,42.78 74.76,42.78 C75.5681429,42.8852864 76.3593433,42.4896861 76.76,41.78 C77.68,40.39 78.69,39.06 79.68,37.71 C80.07,37.18 80.85,36.81 80.26,35.93 C79.67,35.05 79.34,34.14 77.98,34.22 C75.98,34.34 73.98,34.22 71.98,34.22 L71.98,34.3 C69.91,34.3 67.84,34.21 65.78,34.3 C63.54,34.41 62.84,35.74 63.94,37.6 C64.93,39.27 65.59,41.39 67,42.37 Z" id="Shape" fill="#FFFFFF"></path>
            <path d="M120.77,42.37 C122.32,43.44 124.64,42.71 126.62,42.78 C127.21,42.78 127.8,42.78 128.38,42.78 C129.207064,42.83871 130.004269,42.4590886 130.48,41.78 C131.41,40.38 132.43,39.04 133.42,37.69 C133.81,37.15 134.6,36.79 134.01,35.9 C133.42,35.01 133.09,34.1 131.73,34.19 C129.83,34.31 127.91,34.19 126,34.19 L126,34.27 C123.85,34.27 121.7,34.18 119.56,34.27 C117.42,34.36 116.62,35.7 117.72,37.57 C118.68,39.27 119.34,41.39 120.77,42.37 Z" id="Shape" fill="#FFFFFF"></path>
            <path d="M163,67.15 C162.380331,66.9125081 161.67824,67.0930456 161.25,67.6 C160.49,68.52 159.77,69.48 158.99,70.38 C158.354164,71.0838884 158.026468,72.0129623 158.08,72.96 C158.16,76.54 158.3,80.15 158.03,83.71 C157.74,87.64 160.03,90.38 161.73,93.71 C162.871686,92.4781394 163.444781,90.8241453 163.31,89.15 C163.31,82.21 163.37,75.28 163.41,68.35 C163.45,67.91 163.63,67.34 163,67.15 Z" id="Shape" fill="#FFFFFF"></path>
            <path d="M98,60.56 C97.2083924,60.6709754 96.4072567,60.6977917 95.61,60.64 C94.4902338,60.4312095 93.3677978,60.9903868 92.86,62.01 C90.48,65.38 90.48,65.34 92.73,68.77 C93.43,69.85 94.14,70.62 95.58,70.5 C96.772169,70.3815726 97.9743112,70.4084361 99.16,70.58 C101.022261,70.9884988 102.913998,70.0258891 103.68,68.28 C103.8,68.08 103.96,67.9 104.1,67.7 C105.52,65.7 105.21,65.81 104.24,63.58 C102.88,60.56 100.87,59.82 98,60.56 Z" id="Shape" fill="#FFFFFF"></path>
            <path d="M150.75,70 C152.101938,69.8530803 153.464861,69.8363367 154.82,69.95 C155.785376,69.9910513 156.707787,69.5485938 157.28,68.77 C159.54,66.05 159.51,66.1 158.07,62.77 C157.664911,61.4247029 156.3109,60.6010846 154.93,60.86 C153.974123,60.914958 153.015877,60.914958 152.06,60.86 C147.06,60.86 147.06,60.86 144.65,64.72 C144.609973,64.787967 144.563059,64.8516355 144.51,64.91 C144.334368,65.0744872 144.234706,65.3043703 144.234706,65.545 C144.234706,65.7856297 144.334368,66.0155128 144.51,66.18 C146.09,68.24 147.48,70.55 150.75,70 Z" id="Shape" fill="#FFFFFF"></path>
            <path d="M56,79 C56,76.29 56,73.58 56,70.87 C56,69.6 55.94,68.32 55.8,67.06 C55.8,66.51 55.23,66.15 54.8,66.73 C52.71,69.73 50.16,72.45 51.61,77.23 C52.2904195,79.6576275 52.2591808,82.2296146 51.52,84.64 C50.61,87.91 51.89,89.64 53.3,91.56 C53.88,92.37 54.37,92.19 55.09,91.77 C55.7651805,91.3445881 56.1228445,90.5585132 56,89.77 C56,86.18 56,82.6 56,79.01 L56,79 Z" id="Shape" fill="#FFFFFF"></path>
            <path d="M158.24,92 C156.84,89.29 156.84,89.28 153.76,89.29 C151.93,89.29 149.86,88.8 148.34,89.5 C146.82,90.2 146.15,92.5 145.12,94.1 C143.84,96.1 144.52,97.27 146.98,97.32 C148.65,97.32 150.33,97.32 151.98,97.32 C153.81,97.32 155.65,97.32 157.48,97.32 C159.6,97.32 160.39,95.9 159.36,94.1 C159,93.37 158.6,92.68 158.24,92 Z" id="Shape" fill="#FFFFFF"></path>
            <path d="M118.92,86.3 C118.42,82.01 118.81,77.71 118.72,73.41 C118.727994,72.2930426 118.37749,71.2029754 117.72,70.3 C116.91,69.23 116.02,68.21 115.11,67.09 C113.73,68.09 113.74,69.23 113.74,70.45 C113.74,76.83 113.74,83.21 113.74,89.59 C113.74,90.3 113.74,91.02 113.74,91.74 C113.74,92.06 113.79,92.38 114.15,92.52 C114.51,92.66 114.74,92.44 114.96,92.2 C116.346165,90.6639299 117.569368,88.9883088 118.61,87.2 C118.801684,86.9381029 118.909741,86.6243882 118.92,86.3 Z" id="Shape" fill="#FFFFFF"></path>
            <path d="M65.16,86.3 C64.66,82.01 65.05,77.71 64.96,73.41 C64.967994,72.2930426 64.61749,71.2029754 63.96,70.3 C63.15,69.23 62.26,68.21 61.35,67.09 C59.97,68.09 59.98,69.23 59.98,70.45 C59.98,76.83 59.98,83.21 59.98,89.59 C59.98,90.3 59.98,91.02 59.98,91.74 C59.98,92.06 60.03,92.38 60.39,92.52 C60.75,92.66 60.98,92.44 61.2,92.2 C62.5861646,90.6639299 63.809368,88.9883088 64.85,87.2 C65.0416842,86.9381029 65.1497415,86.6243882 65.16,86.3 Z" id="Shape" fill="#FFFFFF"></path>
            <path d="M131.47,48.9 C131.834764,51.337276 131.875115,53.8121282 131.59,56.26 C130.99,60.35 133.53,62.34 136,65.26 L136,38.5 C134.66,39.35 134.23,40.62 133.36,41.5 C131.35,43.57 131.13,46.16 131.47,48.9 Z" id="Shape" fill="#FFFFFF"></path>
            <path d="M80.37,41.48 C78.52,43.36 78.2,45.69 78.37,48.13 C78.5716183,51.078981 78.6083422,54.0369224 78.48,56.99 C78.32,60.56 80.66,62.53 83.01,65.25 L83.01,38.49 C81.67,39.33 81.23,40.6 80.37,41.48 Z" id="Shape" fill="#FFFFFF"></path>
            <path d="M135.27,67.91 C134.84,67.91 134.6,68.25 134.37,68.6 C132.62,71.19 130.91,73.75 131.54,77.17 C131.650133,78.4442915 131.650133,79.7257085 131.54,81 C131.54,82.12 131.54,83.24 131.54,84.35 C131.39,87 131.37,89.6 133.6,91.57 C133.72,91.67 133.76,91.84 133.85,91.97 C134.28,92.61 134.58,93.73 135.42,93.52 C136.26,93.31 135.86,92.15 135.89,91.42 C136.11,84.56 135.5,77.69 136.27,70.84 C136.266351,70.2032463 136.189173,69.5690444 136.04,68.95 C136,68.44 135.81,68 135.27,67.91 Z" id="Shape" fill="#FFFFFF"></path>
            <path d="M82.52,69.6 C82.3,68.87 82.59,67.78 81.68,67.51 C80.77,67.24 80.55,68.37 80.12,68.96 C79.69,69.55 79.21,70.47 78.68,71.16 C78.0551275,71.9937595 77.7404081,73.0192497 77.79,74.06 C77.79,78.45 77.79,82.85 77.79,87.24 C77.79,87.78 77.63,88.38 78.1,88.83 C79.0761673,89.8837173 79.9253077,91.0483485 80.63,92.3 C80.88,92.67 81.12,93.23 81.7,93.07 C82.28,92.91 82.13,92.3 82.14,91.85 C82.24,84.59 81.93,77.32 82.54,70.07 C82.5491381,69.9130593 82.5424376,69.7555971 82.52,69.6 Z" id="Shape" fill="#FFFFFF"></path>
            <path d="M145.61,49.4 C145.69,45.6 144.48,42.95 140.87,41.33 C140.29,45.78 140.53,63.33 141.27,64.9 C142.383886,63.7564358 143.357426,62.4841194 144.17,61.11 C144.601588,60.6394364 144.883532,60.0511832 144.98,59.42 C145.07,56.07 145.54,52.76 145.61,49.4 Z" id="Shape" fill="#FFFFFF"></path>
            <path d="M101.61,3.83 C128.33,3.83 155.046667,3.83 181.76,3.83 C183.51,3.83 185.27,3.83 187.03,3.83 C187.666651,3.79479443 188.304818,3.8623253 188.92,4.03 C193.44,5.73 197.17,8.28 198.41,13.32 C199.09,16.11 199.71,18.89 199.04,21.83 C198.79,22.95 199.19,24.2 199.19,25.4 C199.19,53.7133333 199.19,82.0266667 199.19,110.34 C199.19,112.08 199.05,113.82 199.19,115.58 C199.56,119.58 194.71,125.01 190.07,125.43 C180.16,126.32 170.26,125.97 160.36,125.98 C116.933333,126.053333 73.5,126.053333 30.06,125.98 C25.06,125.98 20.14,125.98 15.21,125.59 C10.28,125.2 6.11,123.27 3.51,118.76 C2.98773679,117.848055 2.72491649,116.810606 2.75,115.76 C2.75,104.41 2.85,93.06 2.86,81.7 C2.86,61.0733333 2.86,40.44 2.86,19.8 C2.70500666,17.7395774 2.70500666,15.6704226 2.86,13.61 C3.07674283,11.7749775 3.86369094,10.0541843 5.11,8.69 C7.73,5.9 10.8,4.09 14.73,4 C16.33,4 17.92,3.81 19.52,3.81 L101.61,3.83 Z M102.53,11.98 L28.39,11.98 C24.9580398,11.8861593 21.5257467,12.1543072 18.15,12.78 C16.0199295,13.2409012 14.1663692,14.5427208 13.01,16.39 C11.18,19.06 10.95,22 10.95,25.09 C10.95,50.9166667 10.95,76.75 10.95,102.59 C11.01288,104.107185 10.9358881,105.626937 10.72,107.13 C10.5308296,108.40102 10.6862348,109.699517 11.17,110.89 C12.79,115.24 16.58,117.43 21.74,116.84 C23.2506414,116.668669 24.769675,116.581867 26.29,116.58 L178.18,116.58 C179.78,116.58 181.38,116.58 182.97,116.5 C186.778934,116.3051 190.005767,113.627602 190.9,109.92 C191.090909,108.898447 191.158059,107.857615 191.1,106.82 L191.1,30.28 C191.1,27.65 191.25,25.01 191.1,22.39 C191.019235,19.4667823 189.777798,16.6960404 187.65,14.69 C185.49,12.74 182.96,11.37 179.81,11.96 C179.171184,12.015057 178.528816,12.015057 177.89,11.96 L102.53,11.98 Z" id="Shape" fill="#FD5F52"></path>
        </g>
    </g>
</svg>