<svg width="56" height="56" viewBox="0 0 56 56" fill="none" xmlns="http://www.w3.org/2000/svg">
<g clip-path="url(#clip0)">
<path d="M55.0667 33.6H49.4667C48.9512 33.6 48.5333 34.0179 48.5333 34.5333H45.7333C45.2179 34.5333 44.8 34.9512 44.8 35.4667V35.6347L41.0191 36.3907L31.4655 35.4667C31.2353 35.4446 31.0051 35.5088 30.8196 35.6468L28.868 37.1019L26.6513 35.6235C26.4745 35.5039 26.262 35.4486 26.0493 35.4667L15.9021 36.3897L11.2 35.6095V35.4667C11.2 34.9512 10.7821 34.5333 10.2667 34.5333H7.46667C7.46667 34.0179 7.04877 33.6 6.53333 33.6H0.933333C0.4179 33.6 0 34.0179 0 34.5333V51.3333C0 51.8488 0.4179 52.2667 0.933333 52.2667H6.53333C7.04877 52.2667 7.46667 51.8488 7.46667 51.3333H10.2667C10.7821 51.3333 11.2 50.9154 11.2 50.4H14.7541L28.5861 55.9338C28.7749 56.0087 28.9828 56.0204 29.1788 55.9674L39.4455 53.1673C39.9361 53.0387 40.2296 52.5366 40.1009 52.0461C40.0984 52.0368 40.0959 52.0276 40.0932 52.0184L44.8532 50.6819C44.9722 51.0684 45.329 51.3324 45.7333 51.3333H48.5333C48.5333 51.8488 48.9512 52.2667 49.4667 52.2667H55.0667C55.5821 52.2667 56 51.8488 56 51.3333V34.5333C56 34.0179 55.5821 33.6 55.0667 33.6ZM5.6 50.4H1.86667V35.4667H5.6V50.4ZM9.33333 49.4667H7.46667V36.4H9.33333V49.4667ZM28.9893 54.0839L15.2805 48.5996C15.17 48.5559 15.0522 48.5333 14.9333 48.5333H11.2V37.5013L15.7127 38.2536C15.7913 38.2664 15.8712 38.2696 15.9507 38.2629L25.8897 37.3595L27.2776 38.2844L24.7576 40.1576C23.286 41.1272 22.8789 43.1064 23.8487 44.578C24.4405 45.4762 25.445 46.0159 26.5207 46.0133C27.1725 46.0122 27.8092 45.8172 28.35 45.4533L28.8932 45.0445L37.2073 51.8467L28.9893 54.0839ZM44.7925 48.7592L38.528 50.5167L30.4267 43.8835L31.9377 42.7467L30.8177 41.2533L27.2711 43.9255C26.6598 44.3337 25.8334 44.1692 25.4251 43.5579C25.2538 43.3015 25.1769 42.9937 25.2075 42.6869C25.2512 42.2741 25.4816 41.9041 25.8328 41.6827L31.6447 37.3632L40.9733 38.2667C41.0645 38.2747 41.1562 38.2697 41.2459 38.2517L44.7925 37.5424V48.7592ZM48.5333 49.4667H46.6667V36.4H48.5333V49.4667ZM54.1333 50.4H50.4V35.4667H54.1333V50.4Z" fill="white"/>
<path d="M14.3733 51.4076L13.6377 53.1233L20.1709 55.9247L20.9066 54.209L14.3733 51.4076Z" fill="white"/>
<path d="M21.4667 13.0667H13.0667V7.46667C13.0667 6.95123 12.6488 6.53333 12.1333 6.53333H9.33333V2.8C9.33333 2.28457 8.91543 1.86667 8.4 1.86667H7.46667V0H5.6V1.86667H4.66667C4.15123 1.86667 3.73333 2.28457 3.73333 2.8V6.53333H0.933333C0.4179 6.53333 0 6.95123 0 7.46667V30.8C0 31.3154 0.4179 31.7333 0.933333 31.7333H21.4667C21.9821 31.7333 22.4 31.3154 22.4 30.8V14C22.4 13.4846 21.9821 13.0667 21.4667 13.0667ZM5.6 3.73333H7.46667V6.53333H5.6V3.73333ZM11.2 29.8667H1.86667V8.4H11.2V29.8667ZM20.5333 16.8H18.6667V18.6667H20.5333V20.5333H18.6667V22.4H20.5333V29.8667H13.0667V14.9333H20.5333V16.8Z" fill="white"/>
<path d="M5.60006 14H3.7334V15.8667H5.60006V14Z" fill="white"/>
<path d="M9.33346 14H7.4668V15.8667H9.33346V14Z" fill="white"/>
<path d="M5.60006 17.7333H3.7334V19.6H5.60006V17.7333Z" fill="white"/>
<path d="M9.33346 17.7333H7.4668V19.6H9.33346V17.7333Z" fill="white"/>
<path d="M5.60006 21.4667H3.7334V23.3333H5.60006V21.4667Z" fill="white"/>
<path d="M16.8003 16.8H14.9336V18.6667H16.8003V16.8Z" fill="white"/>
<path d="M16.8003 20.5333H14.9336V22.4H16.8003V20.5333Z" fill="white"/>
<path d="M5.60006 10.2667H3.7334V12.1333H5.60006V10.2667Z" fill="white"/>
<path d="M9.33346 10.2667H7.4668V12.1333H9.33346V10.2667Z" fill="white"/>
<path d="M40.1335 0V1.4C40.1335 2.17315 39.5066 2.8 38.7335 2.8C36.9293 2.8 35.4668 4.26253 35.4668 6.06667V7.46667H37.3335V6.06667C37.3335 5.29352 37.9603 4.66667 38.7335 4.66667C40.5376 4.66667 42.0001 3.20413 42.0001 1.4V0H40.1335Z" fill="white"/>
<path d="M55.6739 20.7583L49.1405 15.1583C48.7492 14.8227 48.1601 14.8679 47.8244 15.2592C47.6794 15.4284 47.5996 15.6438 47.5996 15.8667V17.8369L44.4739 15.1583C44.0826 14.8227 43.4934 14.8679 43.1578 15.2592C43.0127 15.4284 42.9329 15.6438 42.9329 15.8667V20.5333H41.0663V11.2H41.9996V9.33333H41.3257C41.6565 8.7577 42.269 8.40198 42.9329 8.4C45.5089 8.39697 47.5966 6.30933 47.5996 3.73333V1.86667H45.7329V3.73333C45.7329 5.27975 44.4794 6.53333 42.9329 6.53333C41.2358 6.53975 39.7565 7.68997 39.3321 9.33333H34.5329V11.2H35.4663V20.5333H34.5329C34.0175 20.5333 33.5996 20.9512 33.5996 21.4667V30.8C33.5996 31.3154 34.0175 31.7333 34.5329 31.7333H55.0663C55.5817 31.7333 55.9996 31.3154 55.9996 30.8V21.4667C55.9996 21.1944 55.8806 20.9356 55.6739 20.7583ZM37.3329 11.2H39.1996V20.5333H37.3329V11.2ZM54.1329 29.8667H35.4663V22.4H43.8663C44.3817 22.4 44.7996 21.9821 44.7996 21.4667V17.8957L47.9253 20.5753C48.3166 20.9109 48.9058 20.8657 49.2415 20.4744C49.3866 20.3053 49.4663 20.0898 49.4663 19.8669V17.8957L54.1329 21.896V29.8667Z" fill="white"/>
<path d="M48.5337 26.1333H46.667V28H48.5337V26.1333Z" fill="white"/>
<path d="M52.2671 26.1333H50.4004V28H52.2671V26.1333Z" fill="white"/>
<path d="M48.5337 22.4H46.667V24.2667H48.5337V22.4Z" fill="white"/>
<path d="M52.2671 22.4H50.4004V24.2667H52.2671V22.4Z" fill="white"/>
<path d="M39.1997 24.2667H37.333V26.1333H39.1997V24.2667Z" fill="white"/>
<path d="M42.9331 24.2667H41.0664V26.1333H42.9331V24.2667Z" fill="white"/>
<path d="M28.9335 23.3333V21.4667H27.0669V23.3333H25.2002V25.2H27.0669V27.0667H28.9335V25.2H30.8002V23.3333H28.9335Z" fill="white"/>
</g>
<defs>
<clipPath id="clip0">
<rect width="56" height="56" fill="white"/>
</clipPath>
</defs>
</svg>
