<svg width="48" height="48" viewBox="0 0 48 48" fill="none" xmlns="http://www.w3.org/2000/svg">
<g clip-path="url(#clip0)">
<path d="M6.67819 7.60267V1.76241C6.67819 0.955309 7.33113 0.302368 8.13842 0.302368C8.94533 0.302368 9.59827 0.955309 9.59827 1.76241V7.60267C9.59827 8.40958 8.94533 9.06252 8.13842 9.06252C7.33113 9.06262 6.67819 8.40958 6.67819 7.60267ZM31.4989 9.06262C32.3057 9.06262 32.959 8.40968 32.959 7.60277V1.76241C32.959 0.955309 32.3057 0.302368 31.4989 0.302368C30.6918 0.302368 30.0384 0.955309 30.0384 1.76241V7.60267C30.0384 8.40958 30.6918 9.06262 31.4989 9.06262ZM47.5589 35.3428C47.5589 41.7938 42.3292 47.0234 35.8787 47.0234C29.4286 47.0234 24.1986 41.7938 24.1986 35.3428C24.1986 28.8927 29.4285 23.6628 35.8787 23.6628C42.3292 23.6628 47.5589 28.8926 47.5589 35.3428ZM44.6392 35.3428C44.6392 30.5128 40.7096 26.5827 35.8788 26.5827C31.0483 26.5827 27.1187 30.5127 27.1187 35.3428C27.1187 40.1738 31.0483 44.1032 35.8788 44.1032C40.7096 44.1032 44.6392 40.1738 44.6392 35.3428ZM12.5184 17.8228H6.67819V23.6628H12.5184V17.8228ZM6.67819 32.4231H12.5184V26.5827H6.67819V32.4231ZM15.4383 23.6628H21.2787V17.8228H15.4383V23.6628ZM15.4383 32.4231H21.2787V26.5827H15.4383V32.4231ZM3.75831 35.0525V14.9026H35.8788V20.7429H38.7989V9.35361C38.7989 7.57985 37.3843 6.14244 35.6365 6.14244H34.4187V7.60277C34.4187 9.21091 33.1096 10.5228 31.499 10.5228C29.888 10.5228 28.579 9.21091 28.579 7.60277V6.14244H11.0582V7.60277C11.0582 9.21091 9.74935 10.5228 8.13852 10.5228C6.52731 10.5228 5.21835 9.21091 5.21835 7.60277V6.14244H4.00202C2.25417 6.14244 0.838135 7.57985 0.838135 9.35361V35.0526C0.838135 36.8205 2.25417 38.2635 4.00202 38.2635H21.2787V35.3429H4.00202C3.86972 35.3428 3.75831 35.2062 3.75831 35.0525ZM30.0384 23.6628V17.8228H24.1987V23.6628H30.0384ZM40.2589 35.3428H35.8787V30.9626C35.8787 30.156 35.2257 29.503 34.4186 29.503C33.6115 29.503 32.959 30.156 32.959 30.9626V36.8033C32.959 37.61 33.6115 38.2634 34.4186 38.2634H40.2589C41.066 38.2634 41.7189 37.61 41.7189 36.8033C41.7189 35.9962 41.066 35.3428 40.2589 35.3428Z" fill="#37474F"/>
</g>
<defs>
<clipPath id="clip0">
<rect width="46.7209" height="46.7209" fill="white" transform="translate(0.837158 0.302368)"/>
</clipPath>
</defs>
</svg>
