<svg width="49" height="46" viewBox="0 0 49 46" fill="none" xmlns="http://www.w3.org/2000/svg">
<path d="M43.0326 26.1892C44.7985 15.3643 37.4548 5.15742 26.6299 3.39148C15.8049 1.62554 5.59799 8.96928 3.83205 19.7942C2.0661 30.6191 9.40988 40.8259 20.2348 42.5919C31.0597 44.3578 41.2666 37.0141 43.0326 26.1892Z" fill="#37474F"/>
<path d="M34.481 34.03C40.5781 27.9328 40.5781 18.0475 34.481 11.9504C28.3839 5.85325 18.4985 5.85325 12.4014 11.9504C6.30424 18.0475 6.30427 27.9328 12.4014 34.0299C18.4985 40.1271 28.3838 40.1271 34.481 34.03Z" fill="white"/>
<path d="M28.3481 34.2515C34.5704 31.5481 37.423 24.3124 34.7196 18.09C32.0161 11.8677 24.7803 9.01508 18.558 11.7185C12.3357 14.422 9.48308 21.6577 12.1865 27.88C14.89 34.1024 22.1257 36.955 28.3481 34.2515Z" fill="#37474F"/>
<path d="M26.7989 31.1417C31.3128 29.2822 33.4646 24.1155 31.605 19.6016C29.7455 15.0878 24.5788 12.936 20.0649 14.7955C15.551 16.6551 13.3993 21.8218 15.2589 26.3356C17.1184 30.8495 22.285 33.0013 26.7989 31.1417Z" fill="white"/>
<path d="M23.4302 28.1296C26.2833 28.1296 28.5962 25.8167 28.5962 22.9636C28.5962 20.1105 26.2833 17.7976 23.4302 17.7976C20.5771 17.7976 18.2642 20.1105 18.2642 22.9636C18.2642 25.8167 20.5771 28.1296 23.4302 28.1296Z" fill="#37474F"/>
<path d="M23.4303 23.6524C23.2007 23.6524 23.0859 23.5377 22.8563 23.4229C22.6267 23.0785 22.6267 22.734 22.9711 22.5044L45.8163 3.67723C46.1607 3.44763 46.5051 3.44763 46.7347 3.79203C46.9643 4.13643 46.9643 4.48082 46.6199 4.71042L23.7747 23.5377C23.7747 23.5377 23.6599 23.6524 23.4303 23.6524Z" fill="#37474F"/>
<path d="M45.0128 9.53204C44.898 9.53204 44.898 9.53204 44.7832 9.53204L41.1096 8.03966V4.13643C41.1096 3.79203 41.454 3.44766 41.7984 3.44766C42.1428 3.44766 42.4872 3.79203 42.4872 4.13643V7.12124L45.3572 8.26924C45.7016 8.38404 45.9312 8.84326 45.7016 9.18766C45.5868 9.41726 45.3572 9.53204 45.0128 9.53204Z" fill="#37474F"/>
<path d="M47.8827 7.58041C47.7679 7.58041 47.7679 7.58041 47.6531 7.58041L43.9795 6.08803V2.18484C43.9795 1.84044 44.3239 1.49603 44.6683 1.49603C45.0127 1.49603 45.3571 1.84044 45.3571 2.18484V5.16964L48.2271 6.31764C48.5715 6.43244 48.8011 6.89163 48.5715 7.23603C48.4567 7.35083 48.2271 7.58041 47.8827 7.58041Z" fill="#37474F"/>
</svg>
