<svg width="44" height="44" viewBox="0 0 44 44" fill="none" xmlns="http://www.w3.org/2000/svg">
<g clip-path="url(#clip0)">
<path d="M19.4282 5.60132L19.0506 7.80649C18.9824 8.20563 19.251 8.58463 19.6501 8.65278C19.8086 8.67997 19.9714 8.65412 20.114 8.57926L22.094 7.53894L24.0739 8.57926C24.4324 8.76792 24.8759 8.62995 25.0645 8.27143C25.1394 8.12876 25.1652 7.96528 25.138 7.80649L24.7597 5.60132L26.3613 4.04C26.6514 3.75735 26.6574 3.29308 26.3751 3.00304C26.2623 2.88723 26.1149 2.81203 25.9551 2.78887L23.7412 2.46761L22.7526 0.461834C22.5388 0.0986126 22.0708 -0.0225732 21.7073 0.1916C21.5958 0.25706 21.5028 0.350383 21.437 0.461834L20.4471 2.46761L18.2328 2.78887C17.832 2.84594 17.5534 3.21721 17.6104 3.61837C17.6333 3.77883 17.7088 3.92754 17.8253 4.04067L19.4282 5.60132ZM21.0416 3.8641C21.2806 3.82918 21.4874 3.67879 21.5938 3.46194L22.097 2.44344L22.5992 3.46194C22.7059 3.67913 22.9131 3.82918 23.1521 3.8641L24.2763 4.02691L23.4602 4.81948C23.2877 4.988 23.2088 5.23071 23.2498 5.46838L23.4418 6.58893L22.4357 6.05954C22.2219 5.94809 21.9667 5.94809 21.7529 6.05954L20.7475 6.58893L20.9388 5.46838C20.9798 5.23071 20.9013 4.988 20.7284 4.81948L19.9143 4.0259L21.0416 3.8641Z" fill="#37474F"/>
<path d="M26.3694 38.6783C26.2834 38.4128 26.0538 38.2191 25.7775 38.1788L23.5636 37.8575L22.5737 35.8518C22.3598 35.4885 21.8919 35.3673 21.5283 35.5815C21.4169 35.6473 21.3239 35.7403 21.2581 35.8518L20.2688 37.8575L18.0549 38.1788C17.6541 38.2369 17.3761 38.6092 17.4345 39.01C17.4577 39.1698 17.5329 39.3171 17.6483 39.4299L19.2499 40.9919L18.8716 43.1964C18.8031 43.5956 19.0714 43.9746 19.4705 44.043C19.6296 44.0702 19.7931 44.0444 19.9358 43.9692L21.9157 42.9289L23.896 43.9692C24.2545 44.1575 24.6979 44.0189 24.8859 43.6603C24.9604 43.5177 24.9863 43.3549 24.9591 43.1964L24.5814 40.9919L26.1854 39.4336C26.3861 39.2376 26.4576 38.9445 26.3694 38.6783ZM23.282 40.2108C23.1088 40.3789 23.0299 40.622 23.0715 40.86L23.2628 41.9799L22.2574 41.4511C22.0439 41.3387 21.7885 41.3387 21.5746 41.4511L20.5686 41.9799L20.7609 40.86C20.8015 40.622 20.723 40.3796 20.5501 40.2108L19.7354 39.4168L20.8606 39.254C21.0996 39.2194 21.3067 39.0691 21.4135 38.8519L21.9157 37.8334L22.4189 38.8519C22.5253 39.0687 22.7321 39.2191 22.9711 39.254L24.096 39.4168L23.282 40.2108Z" fill="#37474F"/>
<path d="M6.89044 10.7207L6.51177 12.9258C6.44363 13.325 6.71151 13.7043 7.11099 13.7725C7.26977 13.8 7.43325 13.7738 7.57592 13.6989L9.55585 12.6583L11.5361 13.6989C11.8946 13.8873 12.3377 13.7496 12.5264 13.3911C12.6013 13.2484 12.6275 13.085 12.5999 12.9258L12.2223 10.7207L13.8239 9.15935C14.1142 8.87703 14.1203 8.41243 13.8376 8.12239C13.7248 8.00657 13.5768 7.93138 13.417 7.90822L11.2038 7.58729L10.2128 5.58152C9.99863 5.2183 9.53067 5.09778 9.16745 5.31195C9.05634 5.37775 8.96368 5.4704 8.89822 5.58152L7.90793 7.58729L5.69469 7.90822C5.29387 7.96663 5.01625 8.33858 5.07433 8.73939C5.09783 8.89919 5.17302 9.04689 5.2885 9.15935L6.89044 10.7207ZM8.50378 8.98344C8.7428 8.94853 8.94925 8.79848 9.056 8.58162L9.55887 7.56312L10.0621 8.58229C10.1688 8.79881 10.3753 8.94887 10.6143 8.98344L11.7385 9.14626L10.9245 9.93984C10.7516 10.108 10.6724 10.3511 10.7133 10.5887L10.9053 11.7093L9.89926 11.1806C9.68576 11.0684 9.43064 11.0684 9.21713 11.1806L8.21106 11.7093L8.40307 10.5887C8.44403 10.3511 8.36481 10.1084 8.19192 9.93984L7.37585 9.14626L8.50378 8.98344Z" fill="#37474F"/>
<path d="M31.6546 35.7383L31.2763 37.9425C31.2074 38.3416 31.4753 38.7213 31.8745 38.7901C32.0336 38.8173 32.1974 38.7914 32.3404 38.7162L34.3203 37.6749L36.3006 38.7162C36.6588 38.9049 37.1022 38.7673 37.2909 38.4087C37.3661 38.2657 37.3919 38.1019 37.3647 37.9425L36.9868 35.7383L38.5883 34.177C38.8787 33.8943 38.8848 33.4301 38.6021 33.14C38.4897 33.0242 38.3419 32.949 38.1822 32.9258L35.9683 32.6039L34.9783 30.5981C34.7987 30.2349 34.3589 30.0862 33.9961 30.2655C33.8517 30.337 33.7345 30.4538 33.6634 30.5981L32.6727 32.6039L30.4595 32.9258C30.0587 32.9863 29.7831 33.3599 29.8435 33.76C29.867 33.9165 29.9405 34.0612 30.053 34.1723L31.6546 35.7383ZM33.2679 34.0001C33.5069 33.9655 33.7134 33.8154 33.8201 33.5989L34.3234 32.5797L34.8266 33.5989C34.9333 33.8154 35.1398 33.9655 35.3788 34.0001L36.5037 34.1635L35.6866 34.9602C35.5137 35.1287 35.4348 35.3714 35.4755 35.609L35.6675 36.7296L34.6621 36.2009C34.4486 36.0884 34.1931 36.0884 33.9793 36.2009L32.9732 36.7296L33.1655 35.609C33.2062 35.3717 33.1273 35.1293 32.9551 34.9608L32.141 34.1672L33.2679 34.0001Z" fill="#37474F"/>
<path d="M1.82796 23.3915L1.44997 25.596C1.38183 25.9951 1.65038 26.3741 2.04952 26.4422C2.20797 26.4694 2.37112 26.4436 2.51345 26.3691L4.49338 25.3284L6.47364 26.3691C6.83216 26.5574 7.27528 26.4194 7.46394 26.0612C7.5388 25.9182 7.56465 25.7551 7.53746 25.596L7.15913 23.3915L8.76073 21.8295C9.05077 21.5468 9.05715 21.0825 8.77449 20.7925C8.66203 20.677 8.51433 20.6015 8.35454 20.5783L6.14063 20.2571L5.15201 18.2513C4.93817 17.8881 4.47022 17.7672 4.10666 17.9811C3.99521 18.0469 3.90222 18.1398 3.83642 18.2513L2.84646 20.2571L0.632556 20.5783C0.231065 20.6341 -0.048904 21.0043 0.00682125 21.4055C0.0293128 21.5686 0.106187 21.719 0.224687 21.8332L1.82796 23.3915ZM3.44131 21.6536C3.68033 21.6187 3.88678 21.4683 3.99353 21.2517L4.4964 20.2329L4.99893 21.2517C5.10568 21.4686 5.31247 21.619 5.55182 21.6536L6.67673 21.8164L5.85965 22.6106C5.68711 22.7791 5.60856 23.0219 5.64917 23.2595L5.84153 24.3794L4.83511 23.8507C4.62161 23.7382 4.36615 23.7382 4.15231 23.8507L3.14691 24.3794L3.33859 23.2595C3.38022 23.0219 3.30133 22.7788 3.12811 22.6106L2.31405 21.8164L3.44131 21.6536Z" fill="#37474F"/>
<path d="M37.8634 20.2513L35.6502 20.5733C35.2494 20.631 34.9711 21.003 35.0291 21.4038C35.052 21.5639 35.1275 21.7116 35.243 21.8244L36.8446 23.3857L36.4669 25.5909C36.3988 25.99 36.6667 26.369 37.0661 26.4375C37.2249 26.4647 37.3884 26.4389 37.5311 26.3637L39.511 25.3224L41.4913 26.3637C41.8498 26.5523 42.2929 26.4144 42.4816 26.0558C42.5564 25.9132 42.5826 25.7497 42.5551 25.5909L42.1768 23.3857L43.7784 21.8244C44.0684 21.5418 44.0748 21.0775 43.7921 20.7875C43.6797 20.6716 43.532 20.5964 43.3722 20.5733L41.1589 20.2513L40.169 18.2456C39.9894 17.8823 39.5496 17.7336 39.1867 17.9129C39.0424 17.9844 38.9252 18.1012 38.8541 18.2456L37.8634 20.2513ZM39.0081 21.2463L39.5113 20.2272L40.0142 21.2463C40.121 21.4629 40.3278 21.6129 40.5664 21.6475L41.6913 21.8113L40.8776 22.6039C40.7044 22.7724 40.6252 23.0155 40.6661 23.2538L40.8585 24.3743L39.8524 23.8446C39.6389 23.7325 39.3838 23.7325 39.1703 23.8446L38.1642 24.3743L38.3562 23.2538C38.3968 23.0158 38.3179 22.7731 38.1451 22.6046L37.3323 21.811L38.4576 21.6475C38.6956 21.6126 38.9017 21.4625 39.0081 21.2463Z" fill="#37474F"/>
<path d="M13.8836 33.4324C13.7974 33.1669 13.5681 32.9735 13.2918 32.9332L11.0786 32.6133L10.0886 30.6075C9.87443 30.2443 9.40647 30.1231 9.04325 30.3373C8.93179 30.4031 8.83847 30.4961 8.77268 30.6075L7.78204 32.6133L5.56813 32.9352C5.16732 32.994 4.89003 33.3663 4.94844 33.7671C4.97161 33.9265 5.04714 34.0739 5.16262 34.1864L6.76421 35.7477L6.38488 37.9508C6.31673 38.35 6.58495 38.729 6.98409 38.7975C7.14288 38.8247 7.30636 38.7988 7.44903 38.7236L9.42896 37.6823L11.4092 38.7236C11.7681 38.9113 12.2112 38.7723 12.3988 38.4134C12.473 38.2711 12.4985 38.1086 12.4717 37.9508L12.094 35.7453L13.6956 34.1844C13.8964 33.99 13.9692 33.6983 13.8836 33.4324ZM10.7962 34.9645C10.6234 35.133 10.5441 35.3757 10.5848 35.6134L10.7771 36.734L9.77103 36.2069C9.55719 36.0955 9.3024 36.0955 9.0889 36.2069L8.08282 36.7363L8.27484 35.6158C8.31546 35.3777 8.23657 35.135 8.06369 34.9665L7.24963 34.1733L8.37521 34.0098C8.61423 33.9749 8.82068 33.8248 8.92743 33.6083L9.42997 32.5891L9.93384 33.6083C10.0406 33.8248 10.2467 33.9745 10.4851 34.0098L11.6103 34.1733L10.7962 34.9645Z" fill="#37474F"/>
<path d="M31.7809 10.9795L31.4026 13.1847C31.3341 13.5841 31.6023 13.9631 32.0014 14.0316C32.1606 14.0588 32.3237 14.033 32.4667 13.9578L34.4466 12.9164L36.4266 13.9578C36.7851 14.1464 37.2285 14.0085 37.4169 13.6499C37.4921 13.5073 37.5179 13.3438 37.4907 13.185L37.1124 10.9798L38.714 9.41851C39.004 9.13586 39.0101 8.67159 38.7274 8.38122C38.6146 8.26574 38.4669 8.19054 38.3068 8.16738L36.0936 7.84545L35.1036 5.84034C34.8898 5.47712 34.4218 5.35594 34.0582 5.57011C33.9468 5.63557 33.8538 5.72889 33.788 5.84034L32.7987 7.84545L30.5848 8.16738C30.184 8.22579 29.9064 8.59807 29.9651 8.99889C29.9883 9.15801 30.0635 9.30538 30.1786 9.4175L31.7809 10.9795ZM33.3942 9.2416C33.6336 9.20702 33.8404 9.05697 33.9471 8.84045L34.4497 7.82195L34.9525 8.84045C35.0596 9.05697 35.2661 9.20702 35.5047 9.2416L36.63 9.40508L35.8159 10.198C35.6427 10.3665 35.5638 10.6096 35.6048 10.8476L35.7924 11.9698L34.787 11.4401C34.5732 11.3279 34.3181 11.3279 34.1042 11.4401L33.0982 11.9698L33.2902 10.8492C33.3311 10.6112 33.2522 10.3685 33.0797 10.2L32.2656 9.40643L33.3942 9.2416Z" fill="#37474F"/>
</g>
<defs>
<clipPath id="clip0">
<rect width="44" height="44" fill="white"/>
</clipPath>
</defs>
</svg>
