<svg width="35" height="42" viewBox="0 0 35 42" fill="none" xmlns="http://www.w3.org/2000/svg">
<path d="M25.9145 16.7682C29.4733 15.8498 31.9989 12.6354 31.9989 8.84704C31.9989 4.25504 28.3253 0.581421 23.7333 0.581421C19.1413 0.581421 15.4677 4.25504 15.4677 8.84704C15.4677 12.6354 18.1081 15.8498 21.5521 16.7682C16.3861 17.8014 12.4829 22.2787 12.4829 27.7891V33.8734H34.8689V27.7891C34.9837 22.2787 31.0805 17.8014 25.9145 16.7682Z" fill="#37474F"/>
<path d="M14.664 24.2302C18.2228 23.3118 20.7484 20.0974 20.7484 16.309C20.7484 11.717 17.0748 8.0434 12.4828 8.0434C7.8908 8.0434 4.21719 11.717 4.21719 16.309C4.21719 20.0974 6.8576 23.3118 10.3016 24.2302C5.13561 25.2634 1.23242 29.7406 1.23242 35.251V41.3354H23.6184V35.251C23.7332 29.7406 19.83 25.2634 14.664 24.2302Z" fill="#37474F" stroke="white" stroke-miterlimit="10"/>
</svg>
